M48
; DRILL file {KiCad 5.1.10} date Tue Nov 30 15:42:55 2021
; FORMAT={-:-/ absolute / inch / decimal}
; #@! TF.CreationDate,2021-11-30T15:42:55+01:00
; #@! TF.GenerationSoftware,Kicad,Pcbnew,5.1.10
; #@! TF.FileFunction,Plated,1,4,PTH
FMAT,2
INCH
T1C0.0157
T2C0.0394
%
G90
G05
T1
X3.2338Y-6.1846
X3.2987Y-5.0113
X3.3504Y-4.9828
X3.5266Y-4.9547
X3.5886Y-5.1596
X3.6288Y-5.1571
X3.6288Y-6.1781
X3.7171Y-5.2132
X3.7408Y-5.8431
X3.9853Y-5.8328
X3.9863Y-5.9011
X4.06Y-5.2096
X4.1217Y-5.874
X4.2583Y-5.7176
X4.2583Y-5.4426
X4.2763Y-5.0246
X4.2788Y-4.9221
X4.3813Y-4.9221
X4.4163Y-5.0246
X4.4838Y-4.9221
X4.5838Y-5.0246
X4.5863Y-4.9221
X4.6348Y-5.9301
X4.6413Y-5.4496
X4.6683Y-5.7212
T2
X2.9114Y-4.7797
X2.9114Y-4.8797
X2.9114Y-4.9797
X2.9114Y-5.0797
X2.9114Y-5.1797
X2.9114Y-5.2797
X2.9114Y-5.6791
X2.9114Y-5.7791
X2.9114Y-5.8791
X2.9114Y-5.9791
X2.9114Y-6.0791
X2.9114Y-6.1791
X3.0114Y-4.7797
X3.0114Y-4.8797
X3.0114Y-4.9797
X3.0114Y-5.0797
X3.0114Y-5.1797
X3.0114Y-5.2797
X3.0114Y-5.6791
X3.0114Y-5.7791
X3.0114Y-5.8791
X3.0114Y-5.9791
X3.0114Y-6.0791
X3.0114Y-6.1791
X3.2476Y-4.7677
X3.2476Y-4.8677
X3.3476Y-4.7677
X3.3476Y-4.8677
X3.4059Y-5.1669
X3.4059Y-5.2669
X3.4059Y-5.3669
X3.4059Y-5.4669
X3.4059Y-5.5669
X3.4059Y-5.6669
X3.4059Y-5.7669
X3.4059Y-5.8669
X3.4059Y-5.9669
X3.4059Y-6.0669
X3.4476Y-4.7677
X3.4476Y-4.8677
X3.5059Y-5.1669
X3.5059Y-5.2669
X3.5059Y-5.3669
X3.5059Y-5.4669
X3.5059Y-5.5669
X3.5059Y-5.6669
X3.5059Y-5.7669
X3.5059Y-5.8669
X3.5059Y-5.9669
X3.5059Y-6.0669
X3.5476Y-4.7677
X3.5476Y-4.8677
X3.6476Y-4.7677
X3.6476Y-4.8677
X3.7476Y-4.7677
X3.7476Y-4.8677
X3.8173Y-5.1669
X3.8173Y-5.2669
X3.8173Y-5.3669
X3.8173Y-5.4669
X3.8173Y-5.5669
X3.8173Y-5.6669
X3.8173Y-5.7669
X3.8173Y-5.8669
X3.8173Y-5.9669
X3.8173Y-6.0669
X3.8476Y-4.7677
X3.8476Y-4.8677
X3.9173Y-5.1669
X3.9173Y-5.2669
X3.9173Y-5.3669
X3.9173Y-5.4669
X3.9173Y-5.5669
X3.9173Y-5.6669
X3.9173Y-5.7669
X3.9173Y-5.8669
X3.9173Y-5.9669
X3.9173Y-6.0669
X3.9476Y-4.7677
X3.9476Y-4.8677
X4.0476Y-4.7677
X4.0476Y-4.8677
X4.1476Y-4.7677
X4.1476Y-4.8677
X4.8232Y-5.065
X4.8232Y-5.165
X4.8232Y-5.265
X4.8232Y-5.365
X4.8232Y-5.465
X4.8232Y-5.565
X4.8232Y-5.665
X4.8232Y-5.765
X4.8232Y-5.865
X4.8232Y-5.965
X4.9232Y-5.065
X4.9232Y-5.165
X4.9232Y-5.265
X4.9232Y-5.365
X4.9232Y-5.465
X4.9232Y-5.565
X4.9232Y-5.665
X4.9232Y-5.765
X4.9232Y-5.865
X4.9232Y-5.965
T0
M30
