G04 #@! TF.GenerationSoftware,KiCad,Pcbnew,5.1.10*
G04 #@! TF.CreationDate,2021-11-30T15:42:49+01:00*
G04 #@! TF.ProjectId,JTAGMux_1.0,4a544147-4d75-4785-9f31-2e302e6b6963,v1.0.1*
G04 #@! TF.SameCoordinates,Original*
G04 #@! TF.FileFunction,Copper,L2,Inr*
G04 #@! TF.FilePolarity,Positive*
%FSLAX46Y46*%
G04 Gerber Fmt 4.6, Leading zero omitted, Abs format (unit mm)*
G04 Created by KiCad (PCBNEW 5.1.10) date 2021-11-30 15:42:49*
%MOMM*%
%LPD*%
G01*
G04 APERTURE LIST*
G04 #@! TA.AperFunction,ComponentPad*
%ADD10O,1.700000X1.700000*%
G04 #@! TD*
G04 #@! TA.AperFunction,ComponentPad*
%ADD11R,1.700000X1.700000*%
G04 #@! TD*
G04 #@! TA.AperFunction,ViaPad*
%ADD12C,0.800000*%
G04 #@! TD*
G04 #@! TA.AperFunction,Conductor*
%ADD13C,0.254000*%
G04 #@! TD*
G04 #@! TA.AperFunction,Conductor*
%ADD14C,0.100000*%
G04 #@! TD*
G04 APERTURE END LIST*
D10*
X73950000Y-156950000D03*
X76490000Y-156950000D03*
X73950000Y-154410000D03*
X76490000Y-154410000D03*
X73950000Y-151870000D03*
X76490000Y-151870000D03*
X73950000Y-149330000D03*
X76490000Y-149330000D03*
X73950000Y-146790000D03*
X76490000Y-146790000D03*
X73950000Y-144250000D03*
D11*
X76490000Y-144250000D03*
D10*
X73950000Y-134105000D03*
X76490000Y-134105000D03*
X73950000Y-131565000D03*
X76490000Y-131565000D03*
X73950000Y-129025000D03*
X76490000Y-129025000D03*
X73950000Y-126485000D03*
X76490000Y-126485000D03*
X73950000Y-123945000D03*
X76490000Y-123945000D03*
X73950000Y-121405000D03*
D11*
X76490000Y-121405000D03*
D10*
X86510000Y-131240000D03*
X89050000Y-131240000D03*
X86510000Y-133780000D03*
X89050000Y-133780000D03*
X86510000Y-136320000D03*
X89050000Y-136320000D03*
X86510000Y-138860000D03*
X89050000Y-138860000D03*
X86510000Y-141400000D03*
X89050000Y-141400000D03*
X86510000Y-143940000D03*
X89050000Y-143940000D03*
X86510000Y-146480000D03*
X89050000Y-146480000D03*
X86510000Y-149020000D03*
X89050000Y-149020000D03*
X86510000Y-151560000D03*
X89050000Y-151560000D03*
X86510000Y-154100000D03*
D11*
X89050000Y-154100000D03*
D10*
X122510000Y-128650000D03*
X125050000Y-128650000D03*
X122510000Y-131190000D03*
X125050000Y-131190000D03*
X122510000Y-133730000D03*
X125050000Y-133730000D03*
X122510000Y-136270000D03*
X125050000Y-136270000D03*
X122510000Y-138810000D03*
X125050000Y-138810000D03*
X122510000Y-141350000D03*
X125050000Y-141350000D03*
X122510000Y-143890000D03*
X125050000Y-143890000D03*
X122510000Y-146430000D03*
X125050000Y-146430000D03*
X122510000Y-148970000D03*
X125050000Y-148970000D03*
X122510000Y-151510000D03*
D11*
X125050000Y-151510000D03*
D10*
X96960000Y-131240000D03*
X99500000Y-131240000D03*
X96960000Y-133780000D03*
X99500000Y-133780000D03*
X96960000Y-136320000D03*
X99500000Y-136320000D03*
X96960000Y-138860000D03*
X99500000Y-138860000D03*
X96960000Y-141400000D03*
X99500000Y-141400000D03*
X96960000Y-143940000D03*
X99500000Y-143940000D03*
X96960000Y-146480000D03*
X99500000Y-146480000D03*
X96960000Y-149020000D03*
X99500000Y-149020000D03*
X96960000Y-151560000D03*
X99500000Y-151560000D03*
X96960000Y-154100000D03*
D11*
X99500000Y-154100000D03*
D10*
X82490000Y-123640000D03*
X82490000Y-121100000D03*
X85030000Y-123640000D03*
X85030000Y-121100000D03*
X87570000Y-123640000D03*
X87570000Y-121100000D03*
X90110000Y-123640000D03*
X90110000Y-121100000D03*
X92650000Y-123640000D03*
X92650000Y-121100000D03*
X95190000Y-123640000D03*
X95190000Y-121100000D03*
X97730000Y-123640000D03*
X97730000Y-121100000D03*
X100270000Y-123640000D03*
X100270000Y-121100000D03*
X102810000Y-123640000D03*
X102810000Y-121100000D03*
X105350000Y-123640000D03*
D11*
X105350000Y-121100000D03*
D12*
X117890000Y-138420000D03*
X108161500Y-145227500D03*
X118575500Y-145317500D03*
X116429500Y-127625000D03*
X116493000Y-125021500D03*
X113889500Y-125021500D03*
X111286000Y-125021500D03*
X112175000Y-127625000D03*
X108682500Y-125021500D03*
X108619000Y-127625000D03*
X92172500Y-156925000D03*
X82139500Y-157089000D03*
X108161800Y-138242200D03*
X103125002Y-132324000D03*
X104690069Y-149199206D03*
X92172500Y-130990500D03*
X91150010Y-131054000D03*
X89575000Y-125850000D03*
X85100000Y-126562500D03*
X83787500Y-127287500D03*
X94415001Y-132415001D03*
X101226465Y-148154268D03*
X95017300Y-148416000D03*
X101253000Y-149888100D03*
X117725000Y-150625000D03*
D13*
X127365000Y-158665000D02*
X71177000Y-158665000D01*
X71177000Y-157306890D01*
X72508524Y-157306890D01*
X72553175Y-157454099D01*
X72678359Y-157716920D01*
X72852412Y-157950269D01*
X73068645Y-158145178D01*
X73318748Y-158294157D01*
X73593109Y-158391481D01*
X73823000Y-158270814D01*
X73823000Y-157077000D01*
X74077000Y-157077000D01*
X74077000Y-158270814D01*
X74306891Y-158391481D01*
X74581252Y-158294157D01*
X74831355Y-158145178D01*
X75047588Y-157950269D01*
X75220000Y-157719120D01*
X75392412Y-157950269D01*
X75608645Y-158145178D01*
X75858748Y-158294157D01*
X76133109Y-158391481D01*
X76363000Y-158270814D01*
X76363000Y-157077000D01*
X76617000Y-157077000D01*
X76617000Y-158270814D01*
X76846891Y-158391481D01*
X77121252Y-158294157D01*
X77371355Y-158145178D01*
X77587588Y-157950269D01*
X77761641Y-157716920D01*
X77886825Y-157454099D01*
X77931476Y-157306890D01*
X77810155Y-157077000D01*
X76617000Y-157077000D01*
X76363000Y-157077000D01*
X74077000Y-157077000D01*
X73823000Y-157077000D01*
X72629845Y-157077000D01*
X72508524Y-157306890D01*
X71177000Y-157306890D01*
X71177000Y-156987061D01*
X81104500Y-156987061D01*
X81104500Y-157190939D01*
X81144274Y-157390898D01*
X81222295Y-157579256D01*
X81335563Y-157748774D01*
X81479726Y-157892937D01*
X81649244Y-158006205D01*
X81837602Y-158084226D01*
X82037561Y-158124000D01*
X82241439Y-158124000D01*
X82441398Y-158084226D01*
X82629756Y-158006205D01*
X82799274Y-157892937D01*
X82943437Y-157748774D01*
X83056705Y-157579256D01*
X83134726Y-157390898D01*
X83174500Y-157190939D01*
X83174500Y-156987061D01*
X83141879Y-156823061D01*
X91137500Y-156823061D01*
X91137500Y-157026939D01*
X91177274Y-157226898D01*
X91255295Y-157415256D01*
X91368563Y-157584774D01*
X91512726Y-157728937D01*
X91682244Y-157842205D01*
X91870602Y-157920226D01*
X92070561Y-157960000D01*
X92274439Y-157960000D01*
X92474398Y-157920226D01*
X92662756Y-157842205D01*
X92832274Y-157728937D01*
X92976437Y-157584774D01*
X93089705Y-157415256D01*
X93167726Y-157226898D01*
X93207500Y-157026939D01*
X93207500Y-156823061D01*
X93167726Y-156623102D01*
X93089705Y-156434744D01*
X92976437Y-156265226D01*
X92832274Y-156121063D01*
X92662756Y-156007795D01*
X92474398Y-155929774D01*
X92274439Y-155890000D01*
X92070561Y-155890000D01*
X91870602Y-155929774D01*
X91682244Y-156007795D01*
X91512726Y-156121063D01*
X91368563Y-156265226D01*
X91255295Y-156434744D01*
X91177274Y-156623102D01*
X91137500Y-156823061D01*
X83141879Y-156823061D01*
X83134726Y-156787102D01*
X83056705Y-156598744D01*
X82943437Y-156429226D01*
X82799274Y-156285063D01*
X82629756Y-156171795D01*
X82441398Y-156093774D01*
X82241439Y-156054000D01*
X82037561Y-156054000D01*
X81837602Y-156093774D01*
X81649244Y-156171795D01*
X81479726Y-156285063D01*
X81335563Y-156429226D01*
X81222295Y-156598744D01*
X81144274Y-156787102D01*
X81104500Y-156987061D01*
X71177000Y-156987061D01*
X71177000Y-144103740D01*
X72465000Y-144103740D01*
X72465000Y-144396260D01*
X72522068Y-144683158D01*
X72634010Y-144953411D01*
X72796525Y-145196632D01*
X73003368Y-145403475D01*
X73177760Y-145520000D01*
X73003368Y-145636525D01*
X72796525Y-145843368D01*
X72634010Y-146086589D01*
X72522068Y-146356842D01*
X72465000Y-146643740D01*
X72465000Y-146936260D01*
X72522068Y-147223158D01*
X72634010Y-147493411D01*
X72796525Y-147736632D01*
X73003368Y-147943475D01*
X73177760Y-148060000D01*
X73003368Y-148176525D01*
X72796525Y-148383368D01*
X72634010Y-148626589D01*
X72522068Y-148896842D01*
X72465000Y-149183740D01*
X72465000Y-149476260D01*
X72522068Y-149763158D01*
X72634010Y-150033411D01*
X72796525Y-150276632D01*
X73003368Y-150483475D01*
X73177760Y-150600000D01*
X73003368Y-150716525D01*
X72796525Y-150923368D01*
X72634010Y-151166589D01*
X72522068Y-151436842D01*
X72465000Y-151723740D01*
X72465000Y-152016260D01*
X72522068Y-152303158D01*
X72634010Y-152573411D01*
X72796525Y-152816632D01*
X73003368Y-153023475D01*
X73177760Y-153140000D01*
X73003368Y-153256525D01*
X72796525Y-153463368D01*
X72634010Y-153706589D01*
X72522068Y-153976842D01*
X72465000Y-154263740D01*
X72465000Y-154556260D01*
X72522068Y-154843158D01*
X72634010Y-155113411D01*
X72796525Y-155356632D01*
X73003368Y-155563475D01*
X73185534Y-155685195D01*
X73068645Y-155754822D01*
X72852412Y-155949731D01*
X72678359Y-156183080D01*
X72553175Y-156445901D01*
X72508524Y-156593110D01*
X72629845Y-156823000D01*
X73823000Y-156823000D01*
X73823000Y-156803000D01*
X74077000Y-156803000D01*
X74077000Y-156823000D01*
X76363000Y-156823000D01*
X76363000Y-156803000D01*
X76617000Y-156803000D01*
X76617000Y-156823000D01*
X77810155Y-156823000D01*
X77931476Y-156593110D01*
X77886825Y-156445901D01*
X77761641Y-156183080D01*
X77587588Y-155949731D01*
X77424637Y-155802849D01*
X121856600Y-155802849D01*
X121856600Y-156292351D01*
X121952097Y-156772448D01*
X122139421Y-157224689D01*
X122411374Y-157631695D01*
X122757505Y-157977826D01*
X123164511Y-158249779D01*
X123616752Y-158437103D01*
X124096849Y-158532600D01*
X124586351Y-158532600D01*
X125066448Y-158437103D01*
X125518689Y-158249779D01*
X125925695Y-157977826D01*
X126271826Y-157631695D01*
X126543779Y-157224689D01*
X126731103Y-156772448D01*
X126826600Y-156292351D01*
X126826600Y-155802849D01*
X126731103Y-155322752D01*
X126543779Y-154870511D01*
X126271826Y-154463505D01*
X125925695Y-154117374D01*
X125518689Y-153845421D01*
X125066448Y-153658097D01*
X124586351Y-153562600D01*
X124096849Y-153562600D01*
X123616752Y-153658097D01*
X123164511Y-153845421D01*
X122757505Y-154117374D01*
X122411374Y-154463505D01*
X122139421Y-154870511D01*
X121952097Y-155322752D01*
X121856600Y-155802849D01*
X77424637Y-155802849D01*
X77371355Y-155754822D01*
X77254466Y-155685195D01*
X77436632Y-155563475D01*
X77643475Y-155356632D01*
X77805990Y-155113411D01*
X77917932Y-154843158D01*
X77975000Y-154556260D01*
X77975000Y-154263740D01*
X77917932Y-153976842D01*
X77805990Y-153706589D01*
X77643475Y-153463368D01*
X77436632Y-153256525D01*
X77262240Y-153140000D01*
X77436632Y-153023475D01*
X77643475Y-152816632D01*
X77805990Y-152573411D01*
X77917932Y-152303158D01*
X77975000Y-152016260D01*
X77975000Y-151723740D01*
X77917932Y-151436842D01*
X77805990Y-151166589D01*
X77643475Y-150923368D01*
X77436632Y-150716525D01*
X77262240Y-150600000D01*
X77436632Y-150483475D01*
X77643475Y-150276632D01*
X77805990Y-150033411D01*
X77917932Y-149763158D01*
X77975000Y-149476260D01*
X77975000Y-149183740D01*
X77917932Y-148896842D01*
X77805990Y-148626589D01*
X77643475Y-148383368D01*
X77436632Y-148176525D01*
X77262240Y-148060000D01*
X77436632Y-147943475D01*
X77643475Y-147736632D01*
X77805990Y-147493411D01*
X77917932Y-147223158D01*
X77975000Y-146936260D01*
X77975000Y-146643740D01*
X77917932Y-146356842D01*
X77805990Y-146086589D01*
X77643475Y-145843368D01*
X77511620Y-145711513D01*
X77584180Y-145689502D01*
X77694494Y-145630537D01*
X77791185Y-145551185D01*
X77870537Y-145454494D01*
X77929502Y-145344180D01*
X77965812Y-145224482D01*
X77978072Y-145100000D01*
X77978072Y-143400000D01*
X77965812Y-143275518D01*
X77929502Y-143155820D01*
X77870537Y-143045506D01*
X77791185Y-142948815D01*
X77694494Y-142869463D01*
X77584180Y-142810498D01*
X77464482Y-142774188D01*
X77340000Y-142761928D01*
X75640000Y-142761928D01*
X75515518Y-142774188D01*
X75395820Y-142810498D01*
X75285506Y-142869463D01*
X75188815Y-142948815D01*
X75109463Y-143045506D01*
X75050498Y-143155820D01*
X75028487Y-143228380D01*
X74896632Y-143096525D01*
X74653411Y-142934010D01*
X74383158Y-142822068D01*
X74096260Y-142765000D01*
X73803740Y-142765000D01*
X73516842Y-142822068D01*
X73246589Y-142934010D01*
X73003368Y-143096525D01*
X72796525Y-143303368D01*
X72634010Y-143546589D01*
X72522068Y-143816842D01*
X72465000Y-144103740D01*
X71177000Y-144103740D01*
X71177000Y-134461890D01*
X72508524Y-134461890D01*
X72553175Y-134609099D01*
X72678359Y-134871920D01*
X72852412Y-135105269D01*
X73068645Y-135300178D01*
X73318748Y-135449157D01*
X73593109Y-135546481D01*
X73823000Y-135425814D01*
X73823000Y-134232000D01*
X74077000Y-134232000D01*
X74077000Y-135425814D01*
X74306891Y-135546481D01*
X74581252Y-135449157D01*
X74831355Y-135300178D01*
X75047588Y-135105269D01*
X75220000Y-134874120D01*
X75392412Y-135105269D01*
X75608645Y-135300178D01*
X75858748Y-135449157D01*
X76133109Y-135546481D01*
X76363000Y-135425814D01*
X76363000Y-134232000D01*
X76617000Y-134232000D01*
X76617000Y-135425814D01*
X76846891Y-135546481D01*
X77121252Y-135449157D01*
X77371355Y-135300178D01*
X77587588Y-135105269D01*
X77761641Y-134871920D01*
X77886825Y-134609099D01*
X77931476Y-134461890D01*
X77810155Y-134232000D01*
X76617000Y-134232000D01*
X76363000Y-134232000D01*
X74077000Y-134232000D01*
X73823000Y-134232000D01*
X72629845Y-134232000D01*
X72508524Y-134461890D01*
X71177000Y-134461890D01*
X71177000Y-121258740D01*
X72465000Y-121258740D01*
X72465000Y-121551260D01*
X72522068Y-121838158D01*
X72634010Y-122108411D01*
X72796525Y-122351632D01*
X73003368Y-122558475D01*
X73177760Y-122675000D01*
X73003368Y-122791525D01*
X72796525Y-122998368D01*
X72634010Y-123241589D01*
X72522068Y-123511842D01*
X72465000Y-123798740D01*
X72465000Y-124091260D01*
X72522068Y-124378158D01*
X72634010Y-124648411D01*
X72796525Y-124891632D01*
X73003368Y-125098475D01*
X73177760Y-125215000D01*
X73003368Y-125331525D01*
X72796525Y-125538368D01*
X72634010Y-125781589D01*
X72522068Y-126051842D01*
X72465000Y-126338740D01*
X72465000Y-126631260D01*
X72522068Y-126918158D01*
X72634010Y-127188411D01*
X72796525Y-127431632D01*
X73003368Y-127638475D01*
X73177760Y-127755000D01*
X73003368Y-127871525D01*
X72796525Y-128078368D01*
X72634010Y-128321589D01*
X72522068Y-128591842D01*
X72465000Y-128878740D01*
X72465000Y-129171260D01*
X72522068Y-129458158D01*
X72634010Y-129728411D01*
X72796525Y-129971632D01*
X73003368Y-130178475D01*
X73177760Y-130295000D01*
X73003368Y-130411525D01*
X72796525Y-130618368D01*
X72634010Y-130861589D01*
X72522068Y-131131842D01*
X72465000Y-131418740D01*
X72465000Y-131711260D01*
X72522068Y-131998158D01*
X72634010Y-132268411D01*
X72796525Y-132511632D01*
X73003368Y-132718475D01*
X73185534Y-132840195D01*
X73068645Y-132909822D01*
X72852412Y-133104731D01*
X72678359Y-133338080D01*
X72553175Y-133600901D01*
X72508524Y-133748110D01*
X72629845Y-133978000D01*
X73823000Y-133978000D01*
X73823000Y-133958000D01*
X74077000Y-133958000D01*
X74077000Y-133978000D01*
X76363000Y-133978000D01*
X76363000Y-133958000D01*
X76617000Y-133958000D01*
X76617000Y-133978000D01*
X77810155Y-133978000D01*
X77931476Y-133748110D01*
X77886825Y-133600901D01*
X77761641Y-133338080D01*
X77587588Y-133104731D01*
X77371355Y-132909822D01*
X77254466Y-132840195D01*
X77436632Y-132718475D01*
X77643475Y-132511632D01*
X77805990Y-132268411D01*
X77917932Y-131998158D01*
X77975000Y-131711260D01*
X77975000Y-131418740D01*
X77917932Y-131131842D01*
X77902150Y-131093740D01*
X85025000Y-131093740D01*
X85025000Y-131386260D01*
X85082068Y-131673158D01*
X85194010Y-131943411D01*
X85356525Y-132186632D01*
X85563368Y-132393475D01*
X85737760Y-132510000D01*
X85563368Y-132626525D01*
X85356525Y-132833368D01*
X85194010Y-133076589D01*
X85082068Y-133346842D01*
X85025000Y-133633740D01*
X85025000Y-133926260D01*
X85082068Y-134213158D01*
X85194010Y-134483411D01*
X85356525Y-134726632D01*
X85563368Y-134933475D01*
X85737760Y-135050000D01*
X85563368Y-135166525D01*
X85356525Y-135373368D01*
X85194010Y-135616589D01*
X85082068Y-135886842D01*
X85025000Y-136173740D01*
X85025000Y-136466260D01*
X85082068Y-136753158D01*
X85194010Y-137023411D01*
X85356525Y-137266632D01*
X85563368Y-137473475D01*
X85737760Y-137590000D01*
X85563368Y-137706525D01*
X85356525Y-137913368D01*
X85194010Y-138156589D01*
X85082068Y-138426842D01*
X85025000Y-138713740D01*
X85025000Y-139006260D01*
X85082068Y-139293158D01*
X85194010Y-139563411D01*
X85356525Y-139806632D01*
X85563368Y-140013475D01*
X85737760Y-140130000D01*
X85563368Y-140246525D01*
X85356525Y-140453368D01*
X85194010Y-140696589D01*
X85082068Y-140966842D01*
X85025000Y-141253740D01*
X85025000Y-141546260D01*
X85082068Y-141833158D01*
X85194010Y-142103411D01*
X85356525Y-142346632D01*
X85563368Y-142553475D01*
X85737760Y-142670000D01*
X85563368Y-142786525D01*
X85356525Y-142993368D01*
X85194010Y-143236589D01*
X85082068Y-143506842D01*
X85025000Y-143793740D01*
X85025000Y-144086260D01*
X85082068Y-144373158D01*
X85194010Y-144643411D01*
X85356525Y-144886632D01*
X85563368Y-145093475D01*
X85737760Y-145210000D01*
X85563368Y-145326525D01*
X85356525Y-145533368D01*
X85194010Y-145776589D01*
X85082068Y-146046842D01*
X85025000Y-146333740D01*
X85025000Y-146626260D01*
X85082068Y-146913158D01*
X85194010Y-147183411D01*
X85356525Y-147426632D01*
X85563368Y-147633475D01*
X85737760Y-147750000D01*
X85563368Y-147866525D01*
X85356525Y-148073368D01*
X85194010Y-148316589D01*
X85082068Y-148586842D01*
X85025000Y-148873740D01*
X85025000Y-149166260D01*
X85082068Y-149453158D01*
X85194010Y-149723411D01*
X85356525Y-149966632D01*
X85563368Y-150173475D01*
X85737760Y-150290000D01*
X85563368Y-150406525D01*
X85356525Y-150613368D01*
X85194010Y-150856589D01*
X85082068Y-151126842D01*
X85025000Y-151413740D01*
X85025000Y-151706260D01*
X85082068Y-151993158D01*
X85194010Y-152263411D01*
X85356525Y-152506632D01*
X85563368Y-152713475D01*
X85737760Y-152830000D01*
X85563368Y-152946525D01*
X85356525Y-153153368D01*
X85194010Y-153396589D01*
X85082068Y-153666842D01*
X85025000Y-153953740D01*
X85025000Y-154246260D01*
X85082068Y-154533158D01*
X85194010Y-154803411D01*
X85356525Y-155046632D01*
X85563368Y-155253475D01*
X85806589Y-155415990D01*
X86076842Y-155527932D01*
X86363740Y-155585000D01*
X86656260Y-155585000D01*
X86943158Y-155527932D01*
X87213411Y-155415990D01*
X87456632Y-155253475D01*
X87588487Y-155121620D01*
X87610498Y-155194180D01*
X87669463Y-155304494D01*
X87748815Y-155401185D01*
X87845506Y-155480537D01*
X87955820Y-155539502D01*
X88075518Y-155575812D01*
X88200000Y-155588072D01*
X89900000Y-155588072D01*
X90024482Y-155575812D01*
X90144180Y-155539502D01*
X90254494Y-155480537D01*
X90351185Y-155401185D01*
X90430537Y-155304494D01*
X90489502Y-155194180D01*
X90525812Y-155074482D01*
X90538072Y-154950000D01*
X90538072Y-153250000D01*
X90525812Y-153125518D01*
X90489502Y-153005820D01*
X90430537Y-152895506D01*
X90351185Y-152798815D01*
X90254494Y-152719463D01*
X90144180Y-152660498D01*
X90071620Y-152638487D01*
X90203475Y-152506632D01*
X90365990Y-152263411D01*
X90477932Y-151993158D01*
X90535000Y-151706260D01*
X90535000Y-151413740D01*
X90477932Y-151126842D01*
X90365990Y-150856589D01*
X90203475Y-150613368D01*
X89996632Y-150406525D01*
X89822240Y-150290000D01*
X89996632Y-150173475D01*
X90203475Y-149966632D01*
X90365990Y-149723411D01*
X90477932Y-149453158D01*
X90535000Y-149166260D01*
X90535000Y-148873740D01*
X90477932Y-148586842D01*
X90365990Y-148316589D01*
X90364301Y-148314061D01*
X93982300Y-148314061D01*
X93982300Y-148517939D01*
X94022074Y-148717898D01*
X94100095Y-148906256D01*
X94213363Y-149075774D01*
X94357526Y-149219937D01*
X94527044Y-149333205D01*
X94715402Y-149411226D01*
X94915361Y-149451000D01*
X95119239Y-149451000D01*
X95319198Y-149411226D01*
X95507556Y-149333205D01*
X95508131Y-149332821D01*
X95532068Y-149453158D01*
X95644010Y-149723411D01*
X95806525Y-149966632D01*
X96013368Y-150173475D01*
X96187760Y-150290000D01*
X96013368Y-150406525D01*
X95806525Y-150613368D01*
X95644010Y-150856589D01*
X95532068Y-151126842D01*
X95475000Y-151413740D01*
X95475000Y-151706260D01*
X95532068Y-151993158D01*
X95644010Y-152263411D01*
X95806525Y-152506632D01*
X96013368Y-152713475D01*
X96187760Y-152830000D01*
X96013368Y-152946525D01*
X95806525Y-153153368D01*
X95644010Y-153396589D01*
X95532068Y-153666842D01*
X95475000Y-153953740D01*
X95475000Y-154246260D01*
X95532068Y-154533158D01*
X95644010Y-154803411D01*
X95806525Y-155046632D01*
X96013368Y-155253475D01*
X96256589Y-155415990D01*
X96526842Y-155527932D01*
X96813740Y-155585000D01*
X97106260Y-155585000D01*
X97393158Y-155527932D01*
X97663411Y-155415990D01*
X97906632Y-155253475D01*
X98038487Y-155121620D01*
X98060498Y-155194180D01*
X98119463Y-155304494D01*
X98198815Y-155401185D01*
X98295506Y-155480537D01*
X98405820Y-155539502D01*
X98525518Y-155575812D01*
X98650000Y-155588072D01*
X100350000Y-155588072D01*
X100474482Y-155575812D01*
X100594180Y-155539502D01*
X100704494Y-155480537D01*
X100801185Y-155401185D01*
X100880537Y-155304494D01*
X100939502Y-155194180D01*
X100975812Y-155074482D01*
X100988072Y-154950000D01*
X100988072Y-153250000D01*
X100975812Y-153125518D01*
X100939502Y-153005820D01*
X100880537Y-152895506D01*
X100801185Y-152798815D01*
X100704494Y-152719463D01*
X100594180Y-152660498D01*
X100521620Y-152638487D01*
X100653475Y-152506632D01*
X100815990Y-152263411D01*
X100927932Y-151993158D01*
X100985000Y-151706260D01*
X100985000Y-151413740D01*
X100927932Y-151126842D01*
X100815990Y-150856589D01*
X100788986Y-150816175D01*
X100951102Y-150883326D01*
X101151061Y-150923100D01*
X101354939Y-150923100D01*
X101554898Y-150883326D01*
X101743256Y-150805305D01*
X101912774Y-150692037D01*
X102056937Y-150547874D01*
X102073516Y-150523061D01*
X116690000Y-150523061D01*
X116690000Y-150726939D01*
X116729774Y-150926898D01*
X116807795Y-151115256D01*
X116921063Y-151284774D01*
X117065226Y-151428937D01*
X117234744Y-151542205D01*
X117423102Y-151620226D01*
X117623061Y-151660000D01*
X117826939Y-151660000D01*
X118026898Y-151620226D01*
X118215256Y-151542205D01*
X118384774Y-151428937D01*
X118528937Y-151284774D01*
X118642205Y-151115256D01*
X118720226Y-150926898D01*
X118760000Y-150726939D01*
X118760000Y-150523061D01*
X118720226Y-150323102D01*
X118642205Y-150134744D01*
X118528937Y-149965226D01*
X118384774Y-149821063D01*
X118215256Y-149707795D01*
X118026898Y-149629774D01*
X117826939Y-149590000D01*
X117623061Y-149590000D01*
X117423102Y-149629774D01*
X117234744Y-149707795D01*
X117065226Y-149821063D01*
X116921063Y-149965226D01*
X116807795Y-150134744D01*
X116729774Y-150323102D01*
X116690000Y-150523061D01*
X102073516Y-150523061D01*
X102170205Y-150378356D01*
X102248226Y-150189998D01*
X102288000Y-149990039D01*
X102288000Y-149786161D01*
X102248226Y-149586202D01*
X102170205Y-149397844D01*
X102056937Y-149228326D01*
X101925878Y-149097267D01*
X103655069Y-149097267D01*
X103655069Y-149301145D01*
X103694843Y-149501104D01*
X103772864Y-149689462D01*
X103886132Y-149858980D01*
X104030295Y-150003143D01*
X104199813Y-150116411D01*
X104388171Y-150194432D01*
X104588130Y-150234206D01*
X104792008Y-150234206D01*
X104991967Y-150194432D01*
X105180325Y-150116411D01*
X105349843Y-150003143D01*
X105494006Y-149858980D01*
X105607274Y-149689462D01*
X105685295Y-149501104D01*
X105725069Y-149301145D01*
X105725069Y-149097267D01*
X105685295Y-148897308D01*
X105607274Y-148708950D01*
X105494006Y-148539432D01*
X105349843Y-148395269D01*
X105180325Y-148282001D01*
X104991967Y-148203980D01*
X104792008Y-148164206D01*
X104588130Y-148164206D01*
X104388171Y-148203980D01*
X104199813Y-148282001D01*
X104030295Y-148395269D01*
X103886132Y-148539432D01*
X103772864Y-148708950D01*
X103694843Y-148897308D01*
X103655069Y-149097267D01*
X101925878Y-149097267D01*
X101912774Y-149084163D01*
X101805252Y-149012319D01*
X101886239Y-148958205D01*
X102030402Y-148814042D01*
X102143670Y-148644524D01*
X102221691Y-148456166D01*
X102261465Y-148256207D01*
X102261465Y-148052329D01*
X102221691Y-147852370D01*
X102143670Y-147664012D01*
X102030402Y-147494494D01*
X101886239Y-147350331D01*
X101716721Y-147237063D01*
X101528363Y-147159042D01*
X101328404Y-147119268D01*
X101124526Y-147119268D01*
X100924567Y-147159042D01*
X100796953Y-147211902D01*
X100815990Y-147183411D01*
X100927932Y-146913158D01*
X100985000Y-146626260D01*
X100985000Y-146333740D01*
X100927932Y-146046842D01*
X100815990Y-145776589D01*
X100653475Y-145533368D01*
X100446632Y-145326525D01*
X100272240Y-145210000D01*
X100398611Y-145125561D01*
X107126500Y-145125561D01*
X107126500Y-145329439D01*
X107166274Y-145529398D01*
X107244295Y-145717756D01*
X107357563Y-145887274D01*
X107501726Y-146031437D01*
X107671244Y-146144705D01*
X107859602Y-146222726D01*
X108059561Y-146262500D01*
X108263439Y-146262500D01*
X108463398Y-146222726D01*
X108651756Y-146144705D01*
X108821274Y-146031437D01*
X108965437Y-145887274D01*
X109078705Y-145717756D01*
X109156726Y-145529398D01*
X109196500Y-145329439D01*
X109196500Y-145215561D01*
X117540500Y-145215561D01*
X117540500Y-145419439D01*
X117580274Y-145619398D01*
X117658295Y-145807756D01*
X117771563Y-145977274D01*
X117915726Y-146121437D01*
X118085244Y-146234705D01*
X118273602Y-146312726D01*
X118473561Y-146352500D01*
X118677439Y-146352500D01*
X118877398Y-146312726D01*
X119065756Y-146234705D01*
X119235274Y-146121437D01*
X119379437Y-145977274D01*
X119492705Y-145807756D01*
X119570726Y-145619398D01*
X119610500Y-145419439D01*
X119610500Y-145215561D01*
X119570726Y-145015602D01*
X119492705Y-144827244D01*
X119379437Y-144657726D01*
X119235274Y-144513563D01*
X119065756Y-144400295D01*
X118877398Y-144322274D01*
X118677439Y-144282500D01*
X118473561Y-144282500D01*
X118273602Y-144322274D01*
X118085244Y-144400295D01*
X117915726Y-144513563D01*
X117771563Y-144657726D01*
X117658295Y-144827244D01*
X117580274Y-145015602D01*
X117540500Y-145215561D01*
X109196500Y-145215561D01*
X109196500Y-145125561D01*
X109156726Y-144925602D01*
X109078705Y-144737244D01*
X108965437Y-144567726D01*
X108821274Y-144423563D01*
X108651756Y-144310295D01*
X108463398Y-144232274D01*
X108263439Y-144192500D01*
X108059561Y-144192500D01*
X107859602Y-144232274D01*
X107671244Y-144310295D01*
X107501726Y-144423563D01*
X107357563Y-144567726D01*
X107244295Y-144737244D01*
X107166274Y-144925602D01*
X107126500Y-145125561D01*
X100398611Y-145125561D01*
X100446632Y-145093475D01*
X100653475Y-144886632D01*
X100815990Y-144643411D01*
X100927932Y-144373158D01*
X100985000Y-144086260D01*
X100985000Y-143793740D01*
X100927932Y-143506842D01*
X100815990Y-143236589D01*
X100653475Y-142993368D01*
X100446632Y-142786525D01*
X100272240Y-142670000D01*
X100446632Y-142553475D01*
X100653475Y-142346632D01*
X100815990Y-142103411D01*
X100927932Y-141833158D01*
X100985000Y-141546260D01*
X100985000Y-141253740D01*
X100927932Y-140966842D01*
X100815990Y-140696589D01*
X100653475Y-140453368D01*
X100446632Y-140246525D01*
X100272240Y-140130000D01*
X100446632Y-140013475D01*
X100653475Y-139806632D01*
X100815990Y-139563411D01*
X100927932Y-139293158D01*
X100985000Y-139006260D01*
X100985000Y-138713740D01*
X100927932Y-138426842D01*
X100815990Y-138156589D01*
X100805080Y-138140261D01*
X107126800Y-138140261D01*
X107126800Y-138344139D01*
X107166574Y-138544098D01*
X107244595Y-138732456D01*
X107357863Y-138901974D01*
X107502026Y-139046137D01*
X107671544Y-139159405D01*
X107859902Y-139237426D01*
X108059861Y-139277200D01*
X108263739Y-139277200D01*
X108463698Y-139237426D01*
X108652056Y-139159405D01*
X108821574Y-139046137D01*
X108965737Y-138901974D01*
X109079005Y-138732456D01*
X109157026Y-138544098D01*
X109196800Y-138344139D01*
X109196800Y-138318061D01*
X116855000Y-138318061D01*
X116855000Y-138521939D01*
X116894774Y-138721898D01*
X116972795Y-138910256D01*
X117086063Y-139079774D01*
X117230226Y-139223937D01*
X117399744Y-139337205D01*
X117588102Y-139415226D01*
X117788061Y-139455000D01*
X117991939Y-139455000D01*
X118191898Y-139415226D01*
X118380256Y-139337205D01*
X118549774Y-139223937D01*
X118693937Y-139079774D01*
X118807205Y-138910256D01*
X118885226Y-138721898D01*
X118925000Y-138521939D01*
X118925000Y-138318061D01*
X118885226Y-138118102D01*
X118807205Y-137929744D01*
X118693937Y-137760226D01*
X118549774Y-137616063D01*
X118380256Y-137502795D01*
X118191898Y-137424774D01*
X117991939Y-137385000D01*
X117788061Y-137385000D01*
X117588102Y-137424774D01*
X117399744Y-137502795D01*
X117230226Y-137616063D01*
X117086063Y-137760226D01*
X116972795Y-137929744D01*
X116894774Y-138118102D01*
X116855000Y-138318061D01*
X109196800Y-138318061D01*
X109196800Y-138140261D01*
X109157026Y-137940302D01*
X109079005Y-137751944D01*
X108965737Y-137582426D01*
X108821574Y-137438263D01*
X108652056Y-137324995D01*
X108463698Y-137246974D01*
X108263739Y-137207200D01*
X108059861Y-137207200D01*
X107859902Y-137246974D01*
X107671544Y-137324995D01*
X107502026Y-137438263D01*
X107357863Y-137582426D01*
X107244595Y-137751944D01*
X107166574Y-137940302D01*
X107126800Y-138140261D01*
X100805080Y-138140261D01*
X100653475Y-137913368D01*
X100446632Y-137706525D01*
X100272240Y-137590000D01*
X100446632Y-137473475D01*
X100653475Y-137266632D01*
X100815990Y-137023411D01*
X100927932Y-136753158D01*
X100985000Y-136466260D01*
X100985000Y-136173740D01*
X100927932Y-135886842D01*
X100815990Y-135616589D01*
X100653475Y-135373368D01*
X100446632Y-135166525D01*
X100272240Y-135050000D01*
X100446632Y-134933475D01*
X100653475Y-134726632D01*
X100815990Y-134483411D01*
X100927932Y-134213158D01*
X100985000Y-133926260D01*
X100985000Y-133633740D01*
X100927932Y-133346842D01*
X100815990Y-133076589D01*
X100653475Y-132833368D01*
X100446632Y-132626525D01*
X100272240Y-132510000D01*
X100446632Y-132393475D01*
X100618046Y-132222061D01*
X102090002Y-132222061D01*
X102090002Y-132425939D01*
X102129776Y-132625898D01*
X102207797Y-132814256D01*
X102321065Y-132983774D01*
X102465228Y-133127937D01*
X102634746Y-133241205D01*
X102823104Y-133319226D01*
X103023063Y-133359000D01*
X103226941Y-133359000D01*
X103426900Y-133319226D01*
X103615258Y-133241205D01*
X103784776Y-133127937D01*
X103928939Y-132983774D01*
X104042207Y-132814256D01*
X104120228Y-132625898D01*
X104160002Y-132425939D01*
X104160002Y-132222061D01*
X104120228Y-132022102D01*
X104042207Y-131833744D01*
X103928939Y-131664226D01*
X103784776Y-131520063D01*
X103615258Y-131406795D01*
X103426900Y-131328774D01*
X103226941Y-131289000D01*
X103023063Y-131289000D01*
X102823104Y-131328774D01*
X102634746Y-131406795D01*
X102465228Y-131520063D01*
X102321065Y-131664226D01*
X102207797Y-131833744D01*
X102129776Y-132022102D01*
X102090002Y-132222061D01*
X100618046Y-132222061D01*
X100653475Y-132186632D01*
X100815990Y-131943411D01*
X100927932Y-131673158D01*
X100985000Y-131386260D01*
X100985000Y-131093740D01*
X100927932Y-130806842D01*
X100815990Y-130536589D01*
X100653475Y-130293368D01*
X100446632Y-130086525D01*
X100203411Y-129924010D01*
X99933158Y-129812068D01*
X99646260Y-129755000D01*
X99353740Y-129755000D01*
X99066842Y-129812068D01*
X98796589Y-129924010D01*
X98553368Y-130086525D01*
X98346525Y-130293368D01*
X98230000Y-130467760D01*
X98113475Y-130293368D01*
X97906632Y-130086525D01*
X97663411Y-129924010D01*
X97393158Y-129812068D01*
X97106260Y-129755000D01*
X96813740Y-129755000D01*
X96526842Y-129812068D01*
X96256589Y-129924010D01*
X96013368Y-130086525D01*
X95806525Y-130293368D01*
X95644010Y-130536589D01*
X95532068Y-130806842D01*
X95475000Y-131093740D01*
X95475000Y-131386260D01*
X95532068Y-131673158D01*
X95644010Y-131943411D01*
X95806525Y-132186632D01*
X96013368Y-132393475D01*
X96187760Y-132510000D01*
X96013368Y-132626525D01*
X95806525Y-132833368D01*
X95644010Y-133076589D01*
X95532068Y-133346842D01*
X95475000Y-133633740D01*
X95475000Y-133926260D01*
X95532068Y-134213158D01*
X95644010Y-134483411D01*
X95806525Y-134726632D01*
X96013368Y-134933475D01*
X96187760Y-135050000D01*
X96013368Y-135166525D01*
X95806525Y-135373368D01*
X95644010Y-135616589D01*
X95532068Y-135886842D01*
X95475000Y-136173740D01*
X95475000Y-136466260D01*
X95532068Y-136753158D01*
X95644010Y-137023411D01*
X95806525Y-137266632D01*
X96013368Y-137473475D01*
X96187760Y-137590000D01*
X96013368Y-137706525D01*
X95806525Y-137913368D01*
X95644010Y-138156589D01*
X95532068Y-138426842D01*
X95475000Y-138713740D01*
X95475000Y-139006260D01*
X95532068Y-139293158D01*
X95644010Y-139563411D01*
X95806525Y-139806632D01*
X96013368Y-140013475D01*
X96187760Y-140130000D01*
X96013368Y-140246525D01*
X95806525Y-140453368D01*
X95644010Y-140696589D01*
X95532068Y-140966842D01*
X95475000Y-141253740D01*
X95475000Y-141546260D01*
X95532068Y-141833158D01*
X95644010Y-142103411D01*
X95806525Y-142346632D01*
X96013368Y-142553475D01*
X96187760Y-142670000D01*
X96013368Y-142786525D01*
X95806525Y-142993368D01*
X95644010Y-143236589D01*
X95532068Y-143506842D01*
X95475000Y-143793740D01*
X95475000Y-144086260D01*
X95532068Y-144373158D01*
X95644010Y-144643411D01*
X95806525Y-144886632D01*
X96013368Y-145093475D01*
X96187760Y-145210000D01*
X96013368Y-145326525D01*
X95806525Y-145533368D01*
X95644010Y-145776589D01*
X95532068Y-146046842D01*
X95475000Y-146333740D01*
X95475000Y-146626260D01*
X95532068Y-146913158D01*
X95644010Y-147183411D01*
X95806525Y-147426632D01*
X96013368Y-147633475D01*
X96187760Y-147750000D01*
X96013368Y-147866525D01*
X95940259Y-147939634D01*
X95934505Y-147925744D01*
X95821237Y-147756226D01*
X95677074Y-147612063D01*
X95507556Y-147498795D01*
X95319198Y-147420774D01*
X95119239Y-147381000D01*
X94915361Y-147381000D01*
X94715402Y-147420774D01*
X94527044Y-147498795D01*
X94357526Y-147612063D01*
X94213363Y-147756226D01*
X94100095Y-147925744D01*
X94022074Y-148114102D01*
X93982300Y-148314061D01*
X90364301Y-148314061D01*
X90203475Y-148073368D01*
X89996632Y-147866525D01*
X89822240Y-147750000D01*
X89996632Y-147633475D01*
X90203475Y-147426632D01*
X90365990Y-147183411D01*
X90477932Y-146913158D01*
X90535000Y-146626260D01*
X90535000Y-146333740D01*
X90477932Y-146046842D01*
X90365990Y-145776589D01*
X90203475Y-145533368D01*
X89996632Y-145326525D01*
X89822240Y-145210000D01*
X89996632Y-145093475D01*
X90203475Y-144886632D01*
X90365990Y-144643411D01*
X90477932Y-144373158D01*
X90535000Y-144086260D01*
X90535000Y-143793740D01*
X90477932Y-143506842D01*
X90365990Y-143236589D01*
X90203475Y-142993368D01*
X89996632Y-142786525D01*
X89822240Y-142670000D01*
X89996632Y-142553475D01*
X90203475Y-142346632D01*
X90365990Y-142103411D01*
X90477932Y-141833158D01*
X90535000Y-141546260D01*
X90535000Y-141253740D01*
X90477932Y-140966842D01*
X90365990Y-140696589D01*
X90203475Y-140453368D01*
X89996632Y-140246525D01*
X89822240Y-140130000D01*
X89996632Y-140013475D01*
X90203475Y-139806632D01*
X90365990Y-139563411D01*
X90477932Y-139293158D01*
X90535000Y-139006260D01*
X90535000Y-138713740D01*
X90477932Y-138426842D01*
X90365990Y-138156589D01*
X90203475Y-137913368D01*
X89996632Y-137706525D01*
X89822240Y-137590000D01*
X89996632Y-137473475D01*
X90203475Y-137266632D01*
X90365990Y-137023411D01*
X90477932Y-136753158D01*
X90535000Y-136466260D01*
X90535000Y-136173740D01*
X90477932Y-135886842D01*
X90365990Y-135616589D01*
X90203475Y-135373368D01*
X89996632Y-135166525D01*
X89822240Y-135050000D01*
X89996632Y-134933475D01*
X90203475Y-134726632D01*
X90365990Y-134483411D01*
X90477932Y-134213158D01*
X90535000Y-133926260D01*
X90535000Y-133633740D01*
X90477932Y-133346842D01*
X90365990Y-133076589D01*
X90203475Y-132833368D01*
X89996632Y-132626525D01*
X89822240Y-132510000D01*
X89996632Y-132393475D01*
X90077045Y-132313062D01*
X93380001Y-132313062D01*
X93380001Y-132516940D01*
X93419775Y-132716899D01*
X93497796Y-132905257D01*
X93611064Y-133074775D01*
X93755227Y-133218938D01*
X93924745Y-133332206D01*
X94113103Y-133410227D01*
X94313062Y-133450001D01*
X94516940Y-133450001D01*
X94716899Y-133410227D01*
X94905257Y-133332206D01*
X95074775Y-133218938D01*
X95218938Y-133074775D01*
X95332206Y-132905257D01*
X95410227Y-132716899D01*
X95450001Y-132516940D01*
X95450001Y-132313062D01*
X95410227Y-132113103D01*
X95332206Y-131924745D01*
X95218938Y-131755227D01*
X95074775Y-131611064D01*
X94905257Y-131497796D01*
X94716899Y-131419775D01*
X94516940Y-131380001D01*
X94313062Y-131380001D01*
X94113103Y-131419775D01*
X93924745Y-131497796D01*
X93755227Y-131611064D01*
X93611064Y-131755227D01*
X93497796Y-131924745D01*
X93419775Y-132113103D01*
X93380001Y-132313062D01*
X90077045Y-132313062D01*
X90203475Y-132186632D01*
X90365990Y-131943411D01*
X90427415Y-131795116D01*
X90490236Y-131857937D01*
X90659754Y-131971205D01*
X90848112Y-132049226D01*
X91048071Y-132089000D01*
X91251949Y-132089000D01*
X91451908Y-132049226D01*
X91640266Y-131971205D01*
X91714997Y-131921272D01*
X91870602Y-131985726D01*
X92070561Y-132025500D01*
X92274439Y-132025500D01*
X92474398Y-131985726D01*
X92662756Y-131907705D01*
X92832274Y-131794437D01*
X92976437Y-131650274D01*
X93089705Y-131480756D01*
X93167726Y-131292398D01*
X93207500Y-131092439D01*
X93207500Y-130888561D01*
X93167726Y-130688602D01*
X93089705Y-130500244D01*
X92976437Y-130330726D01*
X92832274Y-130186563D01*
X92662756Y-130073295D01*
X92474398Y-129995274D01*
X92274439Y-129955500D01*
X92070561Y-129955500D01*
X91870602Y-129995274D01*
X91682244Y-130073295D01*
X91607513Y-130123228D01*
X91451908Y-130058774D01*
X91251949Y-130019000D01*
X91048071Y-130019000D01*
X90848112Y-130058774D01*
X90659754Y-130136795D01*
X90490236Y-130250063D01*
X90346073Y-130394226D01*
X90308470Y-130450504D01*
X90203475Y-130293368D01*
X89996632Y-130086525D01*
X89753411Y-129924010D01*
X89483158Y-129812068D01*
X89196260Y-129755000D01*
X88903740Y-129755000D01*
X88616842Y-129812068D01*
X88346589Y-129924010D01*
X88103368Y-130086525D01*
X87896525Y-130293368D01*
X87780000Y-130467760D01*
X87663475Y-130293368D01*
X87456632Y-130086525D01*
X87213411Y-129924010D01*
X86943158Y-129812068D01*
X86656260Y-129755000D01*
X86363740Y-129755000D01*
X86076842Y-129812068D01*
X85806589Y-129924010D01*
X85563368Y-130086525D01*
X85356525Y-130293368D01*
X85194010Y-130536589D01*
X85082068Y-130806842D01*
X85025000Y-131093740D01*
X77902150Y-131093740D01*
X77805990Y-130861589D01*
X77643475Y-130618368D01*
X77436632Y-130411525D01*
X77262240Y-130295000D01*
X77436632Y-130178475D01*
X77643475Y-129971632D01*
X77805990Y-129728411D01*
X77917932Y-129458158D01*
X77975000Y-129171260D01*
X77975000Y-128878740D01*
X77917932Y-128591842D01*
X77805990Y-128321589D01*
X77643475Y-128078368D01*
X77436632Y-127871525D01*
X77262240Y-127755000D01*
X77436632Y-127638475D01*
X77643475Y-127431632D01*
X77805990Y-127188411D01*
X77807170Y-127185561D01*
X82752500Y-127185561D01*
X82752500Y-127389439D01*
X82792274Y-127589398D01*
X82870295Y-127777756D01*
X82983563Y-127947274D01*
X83127726Y-128091437D01*
X83297244Y-128204705D01*
X83485602Y-128282726D01*
X83685561Y-128322500D01*
X83889439Y-128322500D01*
X84089398Y-128282726D01*
X84277756Y-128204705D01*
X84447274Y-128091437D01*
X84591437Y-127947274D01*
X84704705Y-127777756D01*
X84782726Y-127589398D01*
X84789717Y-127554253D01*
X84798102Y-127557726D01*
X84998061Y-127597500D01*
X85201939Y-127597500D01*
X85401898Y-127557726D01*
X85485586Y-127523061D01*
X107584000Y-127523061D01*
X107584000Y-127726939D01*
X107623774Y-127926898D01*
X107701795Y-128115256D01*
X107815063Y-128284774D01*
X107959226Y-128428937D01*
X108128744Y-128542205D01*
X108317102Y-128620226D01*
X108517061Y-128660000D01*
X108720939Y-128660000D01*
X108920898Y-128620226D01*
X109109256Y-128542205D01*
X109278774Y-128428937D01*
X109422937Y-128284774D01*
X109536205Y-128115256D01*
X109614226Y-127926898D01*
X109654000Y-127726939D01*
X109654000Y-127523061D01*
X111140000Y-127523061D01*
X111140000Y-127726939D01*
X111179774Y-127926898D01*
X111257795Y-128115256D01*
X111371063Y-128284774D01*
X111515226Y-128428937D01*
X111684744Y-128542205D01*
X111873102Y-128620226D01*
X112073061Y-128660000D01*
X112276939Y-128660000D01*
X112476898Y-128620226D01*
X112665256Y-128542205D01*
X112834774Y-128428937D01*
X112978937Y-128284774D01*
X113092205Y-128115256D01*
X113170226Y-127926898D01*
X113210000Y-127726939D01*
X113210000Y-127523061D01*
X115394500Y-127523061D01*
X115394500Y-127726939D01*
X115434274Y-127926898D01*
X115512295Y-128115256D01*
X115625563Y-128284774D01*
X115769726Y-128428937D01*
X115939244Y-128542205D01*
X116127602Y-128620226D01*
X116327561Y-128660000D01*
X116531439Y-128660000D01*
X116731398Y-128620226D01*
X116919756Y-128542205D01*
X116977323Y-128503740D01*
X121025000Y-128503740D01*
X121025000Y-128796260D01*
X121082068Y-129083158D01*
X121194010Y-129353411D01*
X121356525Y-129596632D01*
X121563368Y-129803475D01*
X121737760Y-129920000D01*
X121563368Y-130036525D01*
X121356525Y-130243368D01*
X121194010Y-130486589D01*
X121082068Y-130756842D01*
X121025000Y-131043740D01*
X121025000Y-131336260D01*
X121082068Y-131623158D01*
X121194010Y-131893411D01*
X121356525Y-132136632D01*
X121563368Y-132343475D01*
X121737760Y-132460000D01*
X121563368Y-132576525D01*
X121356525Y-132783368D01*
X121194010Y-133026589D01*
X121082068Y-133296842D01*
X121025000Y-133583740D01*
X121025000Y-133876260D01*
X121082068Y-134163158D01*
X121194010Y-134433411D01*
X121356525Y-134676632D01*
X121563368Y-134883475D01*
X121737760Y-135000000D01*
X121563368Y-135116525D01*
X121356525Y-135323368D01*
X121194010Y-135566589D01*
X121082068Y-135836842D01*
X121025000Y-136123740D01*
X121025000Y-136416260D01*
X121082068Y-136703158D01*
X121194010Y-136973411D01*
X121356525Y-137216632D01*
X121563368Y-137423475D01*
X121737760Y-137540000D01*
X121563368Y-137656525D01*
X121356525Y-137863368D01*
X121194010Y-138106589D01*
X121082068Y-138376842D01*
X121025000Y-138663740D01*
X121025000Y-138956260D01*
X121082068Y-139243158D01*
X121194010Y-139513411D01*
X121356525Y-139756632D01*
X121563368Y-139963475D01*
X121737760Y-140080000D01*
X121563368Y-140196525D01*
X121356525Y-140403368D01*
X121194010Y-140646589D01*
X121082068Y-140916842D01*
X121025000Y-141203740D01*
X121025000Y-141496260D01*
X121082068Y-141783158D01*
X121194010Y-142053411D01*
X121356525Y-142296632D01*
X121563368Y-142503475D01*
X121737760Y-142620000D01*
X121563368Y-142736525D01*
X121356525Y-142943368D01*
X121194010Y-143186589D01*
X121082068Y-143456842D01*
X121025000Y-143743740D01*
X121025000Y-144036260D01*
X121082068Y-144323158D01*
X121194010Y-144593411D01*
X121356525Y-144836632D01*
X121563368Y-145043475D01*
X121737760Y-145160000D01*
X121563368Y-145276525D01*
X121356525Y-145483368D01*
X121194010Y-145726589D01*
X121082068Y-145996842D01*
X121025000Y-146283740D01*
X121025000Y-146576260D01*
X121082068Y-146863158D01*
X121194010Y-147133411D01*
X121356525Y-147376632D01*
X121563368Y-147583475D01*
X121737760Y-147700000D01*
X121563368Y-147816525D01*
X121356525Y-148023368D01*
X121194010Y-148266589D01*
X121082068Y-148536842D01*
X121025000Y-148823740D01*
X121025000Y-149116260D01*
X121082068Y-149403158D01*
X121194010Y-149673411D01*
X121356525Y-149916632D01*
X121563368Y-150123475D01*
X121737760Y-150240000D01*
X121563368Y-150356525D01*
X121356525Y-150563368D01*
X121194010Y-150806589D01*
X121082068Y-151076842D01*
X121025000Y-151363740D01*
X121025000Y-151656260D01*
X121082068Y-151943158D01*
X121194010Y-152213411D01*
X121356525Y-152456632D01*
X121563368Y-152663475D01*
X121806589Y-152825990D01*
X122076842Y-152937932D01*
X122363740Y-152995000D01*
X122656260Y-152995000D01*
X122943158Y-152937932D01*
X123213411Y-152825990D01*
X123456632Y-152663475D01*
X123588487Y-152531620D01*
X123610498Y-152604180D01*
X123669463Y-152714494D01*
X123748815Y-152811185D01*
X123845506Y-152890537D01*
X123955820Y-152949502D01*
X124075518Y-152985812D01*
X124200000Y-152998072D01*
X125900000Y-152998072D01*
X126024482Y-152985812D01*
X126144180Y-152949502D01*
X126254494Y-152890537D01*
X126351185Y-152811185D01*
X126430537Y-152714494D01*
X126489502Y-152604180D01*
X126525812Y-152484482D01*
X126538072Y-152360000D01*
X126538072Y-150660000D01*
X126525812Y-150535518D01*
X126489502Y-150415820D01*
X126430537Y-150305506D01*
X126351185Y-150208815D01*
X126254494Y-150129463D01*
X126144180Y-150070498D01*
X126071620Y-150048487D01*
X126203475Y-149916632D01*
X126365990Y-149673411D01*
X126477932Y-149403158D01*
X126535000Y-149116260D01*
X126535000Y-148823740D01*
X126477932Y-148536842D01*
X126365990Y-148266589D01*
X126203475Y-148023368D01*
X125996632Y-147816525D01*
X125822240Y-147700000D01*
X125996632Y-147583475D01*
X126203475Y-147376632D01*
X126365990Y-147133411D01*
X126477932Y-146863158D01*
X126535000Y-146576260D01*
X126535000Y-146283740D01*
X126477932Y-145996842D01*
X126365990Y-145726589D01*
X126203475Y-145483368D01*
X125996632Y-145276525D01*
X125822240Y-145160000D01*
X125996632Y-145043475D01*
X126203475Y-144836632D01*
X126365990Y-144593411D01*
X126477932Y-144323158D01*
X126535000Y-144036260D01*
X126535000Y-143743740D01*
X126477932Y-143456842D01*
X126365990Y-143186589D01*
X126203475Y-142943368D01*
X125996632Y-142736525D01*
X125822240Y-142620000D01*
X125996632Y-142503475D01*
X126203475Y-142296632D01*
X126365990Y-142053411D01*
X126477932Y-141783158D01*
X126535000Y-141496260D01*
X126535000Y-141203740D01*
X126477932Y-140916842D01*
X126365990Y-140646589D01*
X126203475Y-140403368D01*
X125996632Y-140196525D01*
X125822240Y-140080000D01*
X125996632Y-139963475D01*
X126203475Y-139756632D01*
X126365990Y-139513411D01*
X126477932Y-139243158D01*
X126535000Y-138956260D01*
X126535000Y-138663740D01*
X126477932Y-138376842D01*
X126365990Y-138106589D01*
X126203475Y-137863368D01*
X125996632Y-137656525D01*
X125822240Y-137540000D01*
X125996632Y-137423475D01*
X126203475Y-137216632D01*
X126365990Y-136973411D01*
X126477932Y-136703158D01*
X126535000Y-136416260D01*
X126535000Y-136123740D01*
X126477932Y-135836842D01*
X126365990Y-135566589D01*
X126203475Y-135323368D01*
X125996632Y-135116525D01*
X125822240Y-135000000D01*
X125996632Y-134883475D01*
X126203475Y-134676632D01*
X126365990Y-134433411D01*
X126477932Y-134163158D01*
X126535000Y-133876260D01*
X126535000Y-133583740D01*
X126477932Y-133296842D01*
X126365990Y-133026589D01*
X126203475Y-132783368D01*
X125996632Y-132576525D01*
X125822240Y-132460000D01*
X125996632Y-132343475D01*
X126203475Y-132136632D01*
X126365990Y-131893411D01*
X126477932Y-131623158D01*
X126535000Y-131336260D01*
X126535000Y-131043740D01*
X126477932Y-130756842D01*
X126365990Y-130486589D01*
X126203475Y-130243368D01*
X125996632Y-130036525D01*
X125822240Y-129920000D01*
X125996632Y-129803475D01*
X126203475Y-129596632D01*
X126365990Y-129353411D01*
X126477932Y-129083158D01*
X126535000Y-128796260D01*
X126535000Y-128503740D01*
X126477932Y-128216842D01*
X126365990Y-127946589D01*
X126203475Y-127703368D01*
X125996632Y-127496525D01*
X125753411Y-127334010D01*
X125483158Y-127222068D01*
X125196260Y-127165000D01*
X124903740Y-127165000D01*
X124616842Y-127222068D01*
X124346589Y-127334010D01*
X124103368Y-127496525D01*
X123896525Y-127703368D01*
X123780000Y-127877760D01*
X123663475Y-127703368D01*
X123456632Y-127496525D01*
X123213411Y-127334010D01*
X122943158Y-127222068D01*
X122656260Y-127165000D01*
X122363740Y-127165000D01*
X122076842Y-127222068D01*
X121806589Y-127334010D01*
X121563368Y-127496525D01*
X121356525Y-127703368D01*
X121194010Y-127946589D01*
X121082068Y-128216842D01*
X121025000Y-128503740D01*
X116977323Y-128503740D01*
X117089274Y-128428937D01*
X117233437Y-128284774D01*
X117346705Y-128115256D01*
X117424726Y-127926898D01*
X117464500Y-127726939D01*
X117464500Y-127523061D01*
X117424726Y-127323102D01*
X117346705Y-127134744D01*
X117233437Y-126965226D01*
X117089274Y-126821063D01*
X116919756Y-126707795D01*
X116731398Y-126629774D01*
X116531439Y-126590000D01*
X116327561Y-126590000D01*
X116127602Y-126629774D01*
X115939244Y-126707795D01*
X115769726Y-126821063D01*
X115625563Y-126965226D01*
X115512295Y-127134744D01*
X115434274Y-127323102D01*
X115394500Y-127523061D01*
X113210000Y-127523061D01*
X113170226Y-127323102D01*
X113092205Y-127134744D01*
X112978937Y-126965226D01*
X112834774Y-126821063D01*
X112665256Y-126707795D01*
X112476898Y-126629774D01*
X112276939Y-126590000D01*
X112073061Y-126590000D01*
X111873102Y-126629774D01*
X111684744Y-126707795D01*
X111515226Y-126821063D01*
X111371063Y-126965226D01*
X111257795Y-127134744D01*
X111179774Y-127323102D01*
X111140000Y-127523061D01*
X109654000Y-127523061D01*
X109614226Y-127323102D01*
X109536205Y-127134744D01*
X109422937Y-126965226D01*
X109278774Y-126821063D01*
X109109256Y-126707795D01*
X108920898Y-126629774D01*
X108720939Y-126590000D01*
X108517061Y-126590000D01*
X108317102Y-126629774D01*
X108128744Y-126707795D01*
X107959226Y-126821063D01*
X107815063Y-126965226D01*
X107701795Y-127134744D01*
X107623774Y-127323102D01*
X107584000Y-127523061D01*
X85485586Y-127523061D01*
X85590256Y-127479705D01*
X85759774Y-127366437D01*
X85903937Y-127222274D01*
X86017205Y-127052756D01*
X86095226Y-126864398D01*
X86135000Y-126664439D01*
X86135000Y-126460561D01*
X86095226Y-126260602D01*
X86017205Y-126072244D01*
X85903937Y-125902726D01*
X85759774Y-125758563D01*
X85590256Y-125645295D01*
X85401898Y-125567274D01*
X85201939Y-125527500D01*
X84998061Y-125527500D01*
X84798102Y-125567274D01*
X84609744Y-125645295D01*
X84440226Y-125758563D01*
X84296063Y-125902726D01*
X84182795Y-126072244D01*
X84104774Y-126260602D01*
X84097783Y-126295747D01*
X84089398Y-126292274D01*
X83889439Y-126252500D01*
X83685561Y-126252500D01*
X83485602Y-126292274D01*
X83297244Y-126370295D01*
X83127726Y-126483563D01*
X82983563Y-126627726D01*
X82870295Y-126797244D01*
X82792274Y-126985602D01*
X82752500Y-127185561D01*
X77807170Y-127185561D01*
X77917932Y-126918158D01*
X77975000Y-126631260D01*
X77975000Y-126338740D01*
X77917932Y-126051842D01*
X77805990Y-125781589D01*
X77643475Y-125538368D01*
X77436632Y-125331525D01*
X77262240Y-125215000D01*
X77436632Y-125098475D01*
X77643475Y-124891632D01*
X77805990Y-124648411D01*
X77917932Y-124378158D01*
X77975000Y-124091260D01*
X77975000Y-123798740D01*
X77917932Y-123511842D01*
X77805990Y-123241589D01*
X77643475Y-122998368D01*
X77511620Y-122866513D01*
X77584180Y-122844502D01*
X77694494Y-122785537D01*
X77791185Y-122706185D01*
X77870537Y-122609494D01*
X77929502Y-122499180D01*
X77965812Y-122379482D01*
X77978072Y-122255000D01*
X77978072Y-120953740D01*
X81005000Y-120953740D01*
X81005000Y-121246260D01*
X81062068Y-121533158D01*
X81174010Y-121803411D01*
X81336525Y-122046632D01*
X81543368Y-122253475D01*
X81717760Y-122370000D01*
X81543368Y-122486525D01*
X81336525Y-122693368D01*
X81174010Y-122936589D01*
X81062068Y-123206842D01*
X81005000Y-123493740D01*
X81005000Y-123786260D01*
X81062068Y-124073158D01*
X81174010Y-124343411D01*
X81336525Y-124586632D01*
X81543368Y-124793475D01*
X81786589Y-124955990D01*
X82056842Y-125067932D01*
X82343740Y-125125000D01*
X82636260Y-125125000D01*
X82923158Y-125067932D01*
X83193411Y-124955990D01*
X83436632Y-124793475D01*
X83643475Y-124586632D01*
X83760000Y-124412240D01*
X83876525Y-124586632D01*
X84083368Y-124793475D01*
X84326589Y-124955990D01*
X84596842Y-125067932D01*
X84883740Y-125125000D01*
X85176260Y-125125000D01*
X85463158Y-125067932D01*
X85733411Y-124955990D01*
X85976632Y-124793475D01*
X86183475Y-124586632D01*
X86300000Y-124412240D01*
X86416525Y-124586632D01*
X86623368Y-124793475D01*
X86866589Y-124955990D01*
X87136842Y-125067932D01*
X87423740Y-125125000D01*
X87716260Y-125125000D01*
X88003158Y-125067932D01*
X88273411Y-124955990D01*
X88516632Y-124793475D01*
X88723475Y-124586632D01*
X88840000Y-124412240D01*
X88956525Y-124586632D01*
X89163368Y-124793475D01*
X89261994Y-124859375D01*
X89084744Y-124932795D01*
X88915226Y-125046063D01*
X88771063Y-125190226D01*
X88657795Y-125359744D01*
X88579774Y-125548102D01*
X88540000Y-125748061D01*
X88540000Y-125951939D01*
X88579774Y-126151898D01*
X88657795Y-126340256D01*
X88771063Y-126509774D01*
X88915226Y-126653937D01*
X89084744Y-126767205D01*
X89273102Y-126845226D01*
X89473061Y-126885000D01*
X89676939Y-126885000D01*
X89876898Y-126845226D01*
X90065256Y-126767205D01*
X90234774Y-126653937D01*
X90378937Y-126509774D01*
X90492205Y-126340256D01*
X90570226Y-126151898D01*
X90610000Y-125951939D01*
X90610000Y-125748061D01*
X90570226Y-125548102D01*
X90492205Y-125359744D01*
X90378937Y-125190226D01*
X90304179Y-125115468D01*
X90543158Y-125067932D01*
X90813411Y-124955990D01*
X91056632Y-124793475D01*
X91263475Y-124586632D01*
X91380000Y-124412240D01*
X91496525Y-124586632D01*
X91703368Y-124793475D01*
X91946589Y-124955990D01*
X92216842Y-125067932D01*
X92503740Y-125125000D01*
X92796260Y-125125000D01*
X93083158Y-125067932D01*
X93353411Y-124955990D01*
X93596632Y-124793475D01*
X93803475Y-124586632D01*
X93920000Y-124412240D01*
X94036525Y-124586632D01*
X94243368Y-124793475D01*
X94486589Y-124955990D01*
X94756842Y-125067932D01*
X95043740Y-125125000D01*
X95336260Y-125125000D01*
X95623158Y-125067932D01*
X95893411Y-124955990D01*
X96136632Y-124793475D01*
X96343475Y-124586632D01*
X96460000Y-124412240D01*
X96576525Y-124586632D01*
X96783368Y-124793475D01*
X97026589Y-124955990D01*
X97296842Y-125067932D01*
X97583740Y-125125000D01*
X97876260Y-125125000D01*
X98163158Y-125067932D01*
X98433411Y-124955990D01*
X98676632Y-124793475D01*
X98883475Y-124586632D01*
X99000000Y-124412240D01*
X99116525Y-124586632D01*
X99323368Y-124793475D01*
X99566589Y-124955990D01*
X99836842Y-125067932D01*
X100123740Y-125125000D01*
X100416260Y-125125000D01*
X100703158Y-125067932D01*
X100973411Y-124955990D01*
X101216632Y-124793475D01*
X101423475Y-124586632D01*
X101540000Y-124412240D01*
X101656525Y-124586632D01*
X101863368Y-124793475D01*
X102106589Y-124955990D01*
X102376842Y-125067932D01*
X102663740Y-125125000D01*
X102956260Y-125125000D01*
X103243158Y-125067932D01*
X103513411Y-124955990D01*
X103756632Y-124793475D01*
X103963475Y-124586632D01*
X104085195Y-124404466D01*
X104154822Y-124521355D01*
X104349731Y-124737588D01*
X104583080Y-124911641D01*
X104845901Y-125036825D01*
X104993110Y-125081476D01*
X105223000Y-124960155D01*
X105223000Y-123767000D01*
X105477000Y-123767000D01*
X105477000Y-124960155D01*
X105706890Y-125081476D01*
X105854099Y-125036825D01*
X106100292Y-124919561D01*
X107647500Y-124919561D01*
X107647500Y-125123439D01*
X107687274Y-125323398D01*
X107765295Y-125511756D01*
X107878563Y-125681274D01*
X108022726Y-125825437D01*
X108192244Y-125938705D01*
X108380602Y-126016726D01*
X108580561Y-126056500D01*
X108784439Y-126056500D01*
X108984398Y-126016726D01*
X109172756Y-125938705D01*
X109342274Y-125825437D01*
X109486437Y-125681274D01*
X109599705Y-125511756D01*
X109677726Y-125323398D01*
X109717500Y-125123439D01*
X109717500Y-124919561D01*
X110251000Y-124919561D01*
X110251000Y-125123439D01*
X110290774Y-125323398D01*
X110368795Y-125511756D01*
X110482063Y-125681274D01*
X110626226Y-125825437D01*
X110795744Y-125938705D01*
X110984102Y-126016726D01*
X111184061Y-126056500D01*
X111387939Y-126056500D01*
X111587898Y-126016726D01*
X111776256Y-125938705D01*
X111945774Y-125825437D01*
X112089937Y-125681274D01*
X112203205Y-125511756D01*
X112281226Y-125323398D01*
X112321000Y-125123439D01*
X112321000Y-124919561D01*
X112854500Y-124919561D01*
X112854500Y-125123439D01*
X112894274Y-125323398D01*
X112972295Y-125511756D01*
X113085563Y-125681274D01*
X113229726Y-125825437D01*
X113399244Y-125938705D01*
X113587602Y-126016726D01*
X113787561Y-126056500D01*
X113991439Y-126056500D01*
X114191398Y-126016726D01*
X114379756Y-125938705D01*
X114549274Y-125825437D01*
X114693437Y-125681274D01*
X114806705Y-125511756D01*
X114884726Y-125323398D01*
X114924500Y-125123439D01*
X114924500Y-124919561D01*
X115458000Y-124919561D01*
X115458000Y-125123439D01*
X115497774Y-125323398D01*
X115575795Y-125511756D01*
X115689063Y-125681274D01*
X115833226Y-125825437D01*
X116002744Y-125938705D01*
X116191102Y-126016726D01*
X116391061Y-126056500D01*
X116594939Y-126056500D01*
X116794898Y-126016726D01*
X116983256Y-125938705D01*
X117152774Y-125825437D01*
X117296937Y-125681274D01*
X117410205Y-125511756D01*
X117488226Y-125323398D01*
X117528000Y-125123439D01*
X117528000Y-124919561D01*
X117488226Y-124719602D01*
X117410205Y-124531244D01*
X117296937Y-124361726D01*
X117152774Y-124217563D01*
X116983256Y-124104295D01*
X116794898Y-124026274D01*
X116594939Y-123986500D01*
X116391061Y-123986500D01*
X116191102Y-124026274D01*
X116002744Y-124104295D01*
X115833226Y-124217563D01*
X115689063Y-124361726D01*
X115575795Y-124531244D01*
X115497774Y-124719602D01*
X115458000Y-124919561D01*
X114924500Y-124919561D01*
X114884726Y-124719602D01*
X114806705Y-124531244D01*
X114693437Y-124361726D01*
X114549274Y-124217563D01*
X114379756Y-124104295D01*
X114191398Y-124026274D01*
X113991439Y-123986500D01*
X113787561Y-123986500D01*
X113587602Y-124026274D01*
X113399244Y-124104295D01*
X113229726Y-124217563D01*
X113085563Y-124361726D01*
X112972295Y-124531244D01*
X112894274Y-124719602D01*
X112854500Y-124919561D01*
X112321000Y-124919561D01*
X112281226Y-124719602D01*
X112203205Y-124531244D01*
X112089937Y-124361726D01*
X111945774Y-124217563D01*
X111776256Y-124104295D01*
X111587898Y-124026274D01*
X111387939Y-123986500D01*
X111184061Y-123986500D01*
X110984102Y-124026274D01*
X110795744Y-124104295D01*
X110626226Y-124217563D01*
X110482063Y-124361726D01*
X110368795Y-124531244D01*
X110290774Y-124719602D01*
X110251000Y-124919561D01*
X109717500Y-124919561D01*
X109677726Y-124719602D01*
X109599705Y-124531244D01*
X109486437Y-124361726D01*
X109342274Y-124217563D01*
X109172756Y-124104295D01*
X108984398Y-124026274D01*
X108784439Y-123986500D01*
X108580561Y-123986500D01*
X108380602Y-124026274D01*
X108192244Y-124104295D01*
X108022726Y-124217563D01*
X107878563Y-124361726D01*
X107765295Y-124531244D01*
X107687274Y-124719602D01*
X107647500Y-124919561D01*
X106100292Y-124919561D01*
X106116920Y-124911641D01*
X106350269Y-124737588D01*
X106545178Y-124521355D01*
X106694157Y-124271252D01*
X106791481Y-123996891D01*
X106670814Y-123767000D01*
X105477000Y-123767000D01*
X105223000Y-123767000D01*
X105203000Y-123767000D01*
X105203000Y-123513000D01*
X105223000Y-123513000D01*
X105223000Y-121227000D01*
X105477000Y-121227000D01*
X105477000Y-123513000D01*
X106670814Y-123513000D01*
X106791481Y-123283109D01*
X106694157Y-123008748D01*
X106545178Y-122758645D01*
X106368374Y-122562498D01*
X106444180Y-122539502D01*
X106554494Y-122480537D01*
X106651185Y-122401185D01*
X106730537Y-122304494D01*
X106789502Y-122194180D01*
X106825812Y-122074482D01*
X106838072Y-121950000D01*
X106835900Y-121550949D01*
X121856600Y-121550949D01*
X121856600Y-122040451D01*
X121952097Y-122520548D01*
X122139421Y-122972789D01*
X122411374Y-123379795D01*
X122757505Y-123725926D01*
X123164511Y-123997879D01*
X123616752Y-124185203D01*
X124096849Y-124280700D01*
X124586351Y-124280700D01*
X125066448Y-124185203D01*
X125518689Y-123997879D01*
X125925695Y-123725926D01*
X126271826Y-123379795D01*
X126543779Y-122972789D01*
X126731103Y-122520548D01*
X126826600Y-122040451D01*
X126826600Y-121550949D01*
X126731103Y-121070852D01*
X126543779Y-120618611D01*
X126271826Y-120211605D01*
X125925695Y-119865474D01*
X125518689Y-119593521D01*
X125066448Y-119406197D01*
X124586351Y-119310700D01*
X124096849Y-119310700D01*
X123616752Y-119406197D01*
X123164511Y-119593521D01*
X122757505Y-119865474D01*
X122411374Y-120211605D01*
X122139421Y-120618611D01*
X121952097Y-121070852D01*
X121856600Y-121550949D01*
X106835900Y-121550949D01*
X106835000Y-121385750D01*
X106676250Y-121227000D01*
X105477000Y-121227000D01*
X105223000Y-121227000D01*
X105203000Y-121227000D01*
X105203000Y-120973000D01*
X105223000Y-120973000D01*
X105223000Y-119773750D01*
X105477000Y-119773750D01*
X105477000Y-120973000D01*
X106676250Y-120973000D01*
X106835000Y-120814250D01*
X106838072Y-120250000D01*
X106825812Y-120125518D01*
X106789502Y-120005820D01*
X106730537Y-119895506D01*
X106651185Y-119798815D01*
X106554494Y-119719463D01*
X106444180Y-119660498D01*
X106324482Y-119624188D01*
X106200000Y-119611928D01*
X105635750Y-119615000D01*
X105477000Y-119773750D01*
X105223000Y-119773750D01*
X105064250Y-119615000D01*
X104500000Y-119611928D01*
X104375518Y-119624188D01*
X104255820Y-119660498D01*
X104145506Y-119719463D01*
X104048815Y-119798815D01*
X103969463Y-119895506D01*
X103910498Y-120005820D01*
X103888487Y-120078380D01*
X103756632Y-119946525D01*
X103513411Y-119784010D01*
X103243158Y-119672068D01*
X102956260Y-119615000D01*
X102663740Y-119615000D01*
X102376842Y-119672068D01*
X102106589Y-119784010D01*
X101863368Y-119946525D01*
X101656525Y-120153368D01*
X101540000Y-120327760D01*
X101423475Y-120153368D01*
X101216632Y-119946525D01*
X100973411Y-119784010D01*
X100703158Y-119672068D01*
X100416260Y-119615000D01*
X100123740Y-119615000D01*
X99836842Y-119672068D01*
X99566589Y-119784010D01*
X99323368Y-119946525D01*
X99116525Y-120153368D01*
X99000000Y-120327760D01*
X98883475Y-120153368D01*
X98676632Y-119946525D01*
X98433411Y-119784010D01*
X98163158Y-119672068D01*
X97876260Y-119615000D01*
X97583740Y-119615000D01*
X97296842Y-119672068D01*
X97026589Y-119784010D01*
X96783368Y-119946525D01*
X96576525Y-120153368D01*
X96460000Y-120327760D01*
X96343475Y-120153368D01*
X96136632Y-119946525D01*
X95893411Y-119784010D01*
X95623158Y-119672068D01*
X95336260Y-119615000D01*
X95043740Y-119615000D01*
X94756842Y-119672068D01*
X94486589Y-119784010D01*
X94243368Y-119946525D01*
X94036525Y-120153368D01*
X93920000Y-120327760D01*
X93803475Y-120153368D01*
X93596632Y-119946525D01*
X93353411Y-119784010D01*
X93083158Y-119672068D01*
X92796260Y-119615000D01*
X92503740Y-119615000D01*
X92216842Y-119672068D01*
X91946589Y-119784010D01*
X91703368Y-119946525D01*
X91496525Y-120153368D01*
X91380000Y-120327760D01*
X91263475Y-120153368D01*
X91056632Y-119946525D01*
X90813411Y-119784010D01*
X90543158Y-119672068D01*
X90256260Y-119615000D01*
X89963740Y-119615000D01*
X89676842Y-119672068D01*
X89406589Y-119784010D01*
X89163368Y-119946525D01*
X88956525Y-120153368D01*
X88840000Y-120327760D01*
X88723475Y-120153368D01*
X88516632Y-119946525D01*
X88273411Y-119784010D01*
X88003158Y-119672068D01*
X87716260Y-119615000D01*
X87423740Y-119615000D01*
X87136842Y-119672068D01*
X86866589Y-119784010D01*
X86623368Y-119946525D01*
X86416525Y-120153368D01*
X86300000Y-120327760D01*
X86183475Y-120153368D01*
X85976632Y-119946525D01*
X85733411Y-119784010D01*
X85463158Y-119672068D01*
X85176260Y-119615000D01*
X84883740Y-119615000D01*
X84596842Y-119672068D01*
X84326589Y-119784010D01*
X84083368Y-119946525D01*
X83876525Y-120153368D01*
X83760000Y-120327760D01*
X83643475Y-120153368D01*
X83436632Y-119946525D01*
X83193411Y-119784010D01*
X82923158Y-119672068D01*
X82636260Y-119615000D01*
X82343740Y-119615000D01*
X82056842Y-119672068D01*
X81786589Y-119784010D01*
X81543368Y-119946525D01*
X81336525Y-120153368D01*
X81174010Y-120396589D01*
X81062068Y-120666842D01*
X81005000Y-120953740D01*
X77978072Y-120953740D01*
X77978072Y-120555000D01*
X77965812Y-120430518D01*
X77929502Y-120310820D01*
X77870537Y-120200506D01*
X77791185Y-120103815D01*
X77694494Y-120024463D01*
X77584180Y-119965498D01*
X77464482Y-119929188D01*
X77340000Y-119916928D01*
X75640000Y-119916928D01*
X75515518Y-119929188D01*
X75395820Y-119965498D01*
X75285506Y-120024463D01*
X75188815Y-120103815D01*
X75109463Y-120200506D01*
X75050498Y-120310820D01*
X75028487Y-120383380D01*
X74896632Y-120251525D01*
X74653411Y-120089010D01*
X74383158Y-119977068D01*
X74096260Y-119920000D01*
X73803740Y-119920000D01*
X73516842Y-119977068D01*
X73246589Y-120089010D01*
X73003368Y-120251525D01*
X72796525Y-120458368D01*
X72634010Y-120701589D01*
X72522068Y-120971842D01*
X72465000Y-121258740D01*
X71177000Y-121258740D01*
X71177000Y-119227000D01*
X127365001Y-119227000D01*
X127365000Y-158665000D01*
G04 #@! TA.AperFunction,Conductor*
D14*
G36*
X127365000Y-158665000D02*
G01*
X71177000Y-158665000D01*
X71177000Y-157306890D01*
X72508524Y-157306890D01*
X72553175Y-157454099D01*
X72678359Y-157716920D01*
X72852412Y-157950269D01*
X73068645Y-158145178D01*
X73318748Y-158294157D01*
X73593109Y-158391481D01*
X73823000Y-158270814D01*
X73823000Y-157077000D01*
X74077000Y-157077000D01*
X74077000Y-158270814D01*
X74306891Y-158391481D01*
X74581252Y-158294157D01*
X74831355Y-158145178D01*
X75047588Y-157950269D01*
X75220000Y-157719120D01*
X75392412Y-157950269D01*
X75608645Y-158145178D01*
X75858748Y-158294157D01*
X76133109Y-158391481D01*
X76363000Y-158270814D01*
X76363000Y-157077000D01*
X76617000Y-157077000D01*
X76617000Y-158270814D01*
X76846891Y-158391481D01*
X77121252Y-158294157D01*
X77371355Y-158145178D01*
X77587588Y-157950269D01*
X77761641Y-157716920D01*
X77886825Y-157454099D01*
X77931476Y-157306890D01*
X77810155Y-157077000D01*
X76617000Y-157077000D01*
X76363000Y-157077000D01*
X74077000Y-157077000D01*
X73823000Y-157077000D01*
X72629845Y-157077000D01*
X72508524Y-157306890D01*
X71177000Y-157306890D01*
X71177000Y-156987061D01*
X81104500Y-156987061D01*
X81104500Y-157190939D01*
X81144274Y-157390898D01*
X81222295Y-157579256D01*
X81335563Y-157748774D01*
X81479726Y-157892937D01*
X81649244Y-158006205D01*
X81837602Y-158084226D01*
X82037561Y-158124000D01*
X82241439Y-158124000D01*
X82441398Y-158084226D01*
X82629756Y-158006205D01*
X82799274Y-157892937D01*
X82943437Y-157748774D01*
X83056705Y-157579256D01*
X83134726Y-157390898D01*
X83174500Y-157190939D01*
X83174500Y-156987061D01*
X83141879Y-156823061D01*
X91137500Y-156823061D01*
X91137500Y-157026939D01*
X91177274Y-157226898D01*
X91255295Y-157415256D01*
X91368563Y-157584774D01*
X91512726Y-157728937D01*
X91682244Y-157842205D01*
X91870602Y-157920226D01*
X92070561Y-157960000D01*
X92274439Y-157960000D01*
X92474398Y-157920226D01*
X92662756Y-157842205D01*
X92832274Y-157728937D01*
X92976437Y-157584774D01*
X93089705Y-157415256D01*
X93167726Y-157226898D01*
X93207500Y-157026939D01*
X93207500Y-156823061D01*
X93167726Y-156623102D01*
X93089705Y-156434744D01*
X92976437Y-156265226D01*
X92832274Y-156121063D01*
X92662756Y-156007795D01*
X92474398Y-155929774D01*
X92274439Y-155890000D01*
X92070561Y-155890000D01*
X91870602Y-155929774D01*
X91682244Y-156007795D01*
X91512726Y-156121063D01*
X91368563Y-156265226D01*
X91255295Y-156434744D01*
X91177274Y-156623102D01*
X91137500Y-156823061D01*
X83141879Y-156823061D01*
X83134726Y-156787102D01*
X83056705Y-156598744D01*
X82943437Y-156429226D01*
X82799274Y-156285063D01*
X82629756Y-156171795D01*
X82441398Y-156093774D01*
X82241439Y-156054000D01*
X82037561Y-156054000D01*
X81837602Y-156093774D01*
X81649244Y-156171795D01*
X81479726Y-156285063D01*
X81335563Y-156429226D01*
X81222295Y-156598744D01*
X81144274Y-156787102D01*
X81104500Y-156987061D01*
X71177000Y-156987061D01*
X71177000Y-144103740D01*
X72465000Y-144103740D01*
X72465000Y-144396260D01*
X72522068Y-144683158D01*
X72634010Y-144953411D01*
X72796525Y-145196632D01*
X73003368Y-145403475D01*
X73177760Y-145520000D01*
X73003368Y-145636525D01*
X72796525Y-145843368D01*
X72634010Y-146086589D01*
X72522068Y-146356842D01*
X72465000Y-146643740D01*
X72465000Y-146936260D01*
X72522068Y-147223158D01*
X72634010Y-147493411D01*
X72796525Y-147736632D01*
X73003368Y-147943475D01*
X73177760Y-148060000D01*
X73003368Y-148176525D01*
X72796525Y-148383368D01*
X72634010Y-148626589D01*
X72522068Y-148896842D01*
X72465000Y-149183740D01*
X72465000Y-149476260D01*
X72522068Y-149763158D01*
X72634010Y-150033411D01*
X72796525Y-150276632D01*
X73003368Y-150483475D01*
X73177760Y-150600000D01*
X73003368Y-150716525D01*
X72796525Y-150923368D01*
X72634010Y-151166589D01*
X72522068Y-151436842D01*
X72465000Y-151723740D01*
X72465000Y-152016260D01*
X72522068Y-152303158D01*
X72634010Y-152573411D01*
X72796525Y-152816632D01*
X73003368Y-153023475D01*
X73177760Y-153140000D01*
X73003368Y-153256525D01*
X72796525Y-153463368D01*
X72634010Y-153706589D01*
X72522068Y-153976842D01*
X72465000Y-154263740D01*
X72465000Y-154556260D01*
X72522068Y-154843158D01*
X72634010Y-155113411D01*
X72796525Y-155356632D01*
X73003368Y-155563475D01*
X73185534Y-155685195D01*
X73068645Y-155754822D01*
X72852412Y-155949731D01*
X72678359Y-156183080D01*
X72553175Y-156445901D01*
X72508524Y-156593110D01*
X72629845Y-156823000D01*
X73823000Y-156823000D01*
X73823000Y-156803000D01*
X74077000Y-156803000D01*
X74077000Y-156823000D01*
X76363000Y-156823000D01*
X76363000Y-156803000D01*
X76617000Y-156803000D01*
X76617000Y-156823000D01*
X77810155Y-156823000D01*
X77931476Y-156593110D01*
X77886825Y-156445901D01*
X77761641Y-156183080D01*
X77587588Y-155949731D01*
X77424637Y-155802849D01*
X121856600Y-155802849D01*
X121856600Y-156292351D01*
X121952097Y-156772448D01*
X122139421Y-157224689D01*
X122411374Y-157631695D01*
X122757505Y-157977826D01*
X123164511Y-158249779D01*
X123616752Y-158437103D01*
X124096849Y-158532600D01*
X124586351Y-158532600D01*
X125066448Y-158437103D01*
X125518689Y-158249779D01*
X125925695Y-157977826D01*
X126271826Y-157631695D01*
X126543779Y-157224689D01*
X126731103Y-156772448D01*
X126826600Y-156292351D01*
X126826600Y-155802849D01*
X126731103Y-155322752D01*
X126543779Y-154870511D01*
X126271826Y-154463505D01*
X125925695Y-154117374D01*
X125518689Y-153845421D01*
X125066448Y-153658097D01*
X124586351Y-153562600D01*
X124096849Y-153562600D01*
X123616752Y-153658097D01*
X123164511Y-153845421D01*
X122757505Y-154117374D01*
X122411374Y-154463505D01*
X122139421Y-154870511D01*
X121952097Y-155322752D01*
X121856600Y-155802849D01*
X77424637Y-155802849D01*
X77371355Y-155754822D01*
X77254466Y-155685195D01*
X77436632Y-155563475D01*
X77643475Y-155356632D01*
X77805990Y-155113411D01*
X77917932Y-154843158D01*
X77975000Y-154556260D01*
X77975000Y-154263740D01*
X77917932Y-153976842D01*
X77805990Y-153706589D01*
X77643475Y-153463368D01*
X77436632Y-153256525D01*
X77262240Y-153140000D01*
X77436632Y-153023475D01*
X77643475Y-152816632D01*
X77805990Y-152573411D01*
X77917932Y-152303158D01*
X77975000Y-152016260D01*
X77975000Y-151723740D01*
X77917932Y-151436842D01*
X77805990Y-151166589D01*
X77643475Y-150923368D01*
X77436632Y-150716525D01*
X77262240Y-150600000D01*
X77436632Y-150483475D01*
X77643475Y-150276632D01*
X77805990Y-150033411D01*
X77917932Y-149763158D01*
X77975000Y-149476260D01*
X77975000Y-149183740D01*
X77917932Y-148896842D01*
X77805990Y-148626589D01*
X77643475Y-148383368D01*
X77436632Y-148176525D01*
X77262240Y-148060000D01*
X77436632Y-147943475D01*
X77643475Y-147736632D01*
X77805990Y-147493411D01*
X77917932Y-147223158D01*
X77975000Y-146936260D01*
X77975000Y-146643740D01*
X77917932Y-146356842D01*
X77805990Y-146086589D01*
X77643475Y-145843368D01*
X77511620Y-145711513D01*
X77584180Y-145689502D01*
X77694494Y-145630537D01*
X77791185Y-145551185D01*
X77870537Y-145454494D01*
X77929502Y-145344180D01*
X77965812Y-145224482D01*
X77978072Y-145100000D01*
X77978072Y-143400000D01*
X77965812Y-143275518D01*
X77929502Y-143155820D01*
X77870537Y-143045506D01*
X77791185Y-142948815D01*
X77694494Y-142869463D01*
X77584180Y-142810498D01*
X77464482Y-142774188D01*
X77340000Y-142761928D01*
X75640000Y-142761928D01*
X75515518Y-142774188D01*
X75395820Y-142810498D01*
X75285506Y-142869463D01*
X75188815Y-142948815D01*
X75109463Y-143045506D01*
X75050498Y-143155820D01*
X75028487Y-143228380D01*
X74896632Y-143096525D01*
X74653411Y-142934010D01*
X74383158Y-142822068D01*
X74096260Y-142765000D01*
X73803740Y-142765000D01*
X73516842Y-142822068D01*
X73246589Y-142934010D01*
X73003368Y-143096525D01*
X72796525Y-143303368D01*
X72634010Y-143546589D01*
X72522068Y-143816842D01*
X72465000Y-144103740D01*
X71177000Y-144103740D01*
X71177000Y-134461890D01*
X72508524Y-134461890D01*
X72553175Y-134609099D01*
X72678359Y-134871920D01*
X72852412Y-135105269D01*
X73068645Y-135300178D01*
X73318748Y-135449157D01*
X73593109Y-135546481D01*
X73823000Y-135425814D01*
X73823000Y-134232000D01*
X74077000Y-134232000D01*
X74077000Y-135425814D01*
X74306891Y-135546481D01*
X74581252Y-135449157D01*
X74831355Y-135300178D01*
X75047588Y-135105269D01*
X75220000Y-134874120D01*
X75392412Y-135105269D01*
X75608645Y-135300178D01*
X75858748Y-135449157D01*
X76133109Y-135546481D01*
X76363000Y-135425814D01*
X76363000Y-134232000D01*
X76617000Y-134232000D01*
X76617000Y-135425814D01*
X76846891Y-135546481D01*
X77121252Y-135449157D01*
X77371355Y-135300178D01*
X77587588Y-135105269D01*
X77761641Y-134871920D01*
X77886825Y-134609099D01*
X77931476Y-134461890D01*
X77810155Y-134232000D01*
X76617000Y-134232000D01*
X76363000Y-134232000D01*
X74077000Y-134232000D01*
X73823000Y-134232000D01*
X72629845Y-134232000D01*
X72508524Y-134461890D01*
X71177000Y-134461890D01*
X71177000Y-121258740D01*
X72465000Y-121258740D01*
X72465000Y-121551260D01*
X72522068Y-121838158D01*
X72634010Y-122108411D01*
X72796525Y-122351632D01*
X73003368Y-122558475D01*
X73177760Y-122675000D01*
X73003368Y-122791525D01*
X72796525Y-122998368D01*
X72634010Y-123241589D01*
X72522068Y-123511842D01*
X72465000Y-123798740D01*
X72465000Y-124091260D01*
X72522068Y-124378158D01*
X72634010Y-124648411D01*
X72796525Y-124891632D01*
X73003368Y-125098475D01*
X73177760Y-125215000D01*
X73003368Y-125331525D01*
X72796525Y-125538368D01*
X72634010Y-125781589D01*
X72522068Y-126051842D01*
X72465000Y-126338740D01*
X72465000Y-126631260D01*
X72522068Y-126918158D01*
X72634010Y-127188411D01*
X72796525Y-127431632D01*
X73003368Y-127638475D01*
X73177760Y-127755000D01*
X73003368Y-127871525D01*
X72796525Y-128078368D01*
X72634010Y-128321589D01*
X72522068Y-128591842D01*
X72465000Y-128878740D01*
X72465000Y-129171260D01*
X72522068Y-129458158D01*
X72634010Y-129728411D01*
X72796525Y-129971632D01*
X73003368Y-130178475D01*
X73177760Y-130295000D01*
X73003368Y-130411525D01*
X72796525Y-130618368D01*
X72634010Y-130861589D01*
X72522068Y-131131842D01*
X72465000Y-131418740D01*
X72465000Y-131711260D01*
X72522068Y-131998158D01*
X72634010Y-132268411D01*
X72796525Y-132511632D01*
X73003368Y-132718475D01*
X73185534Y-132840195D01*
X73068645Y-132909822D01*
X72852412Y-133104731D01*
X72678359Y-133338080D01*
X72553175Y-133600901D01*
X72508524Y-133748110D01*
X72629845Y-133978000D01*
X73823000Y-133978000D01*
X73823000Y-133958000D01*
X74077000Y-133958000D01*
X74077000Y-133978000D01*
X76363000Y-133978000D01*
X76363000Y-133958000D01*
X76617000Y-133958000D01*
X76617000Y-133978000D01*
X77810155Y-133978000D01*
X77931476Y-133748110D01*
X77886825Y-133600901D01*
X77761641Y-133338080D01*
X77587588Y-133104731D01*
X77371355Y-132909822D01*
X77254466Y-132840195D01*
X77436632Y-132718475D01*
X77643475Y-132511632D01*
X77805990Y-132268411D01*
X77917932Y-131998158D01*
X77975000Y-131711260D01*
X77975000Y-131418740D01*
X77917932Y-131131842D01*
X77902150Y-131093740D01*
X85025000Y-131093740D01*
X85025000Y-131386260D01*
X85082068Y-131673158D01*
X85194010Y-131943411D01*
X85356525Y-132186632D01*
X85563368Y-132393475D01*
X85737760Y-132510000D01*
X85563368Y-132626525D01*
X85356525Y-132833368D01*
X85194010Y-133076589D01*
X85082068Y-133346842D01*
X85025000Y-133633740D01*
X85025000Y-133926260D01*
X85082068Y-134213158D01*
X85194010Y-134483411D01*
X85356525Y-134726632D01*
X85563368Y-134933475D01*
X85737760Y-135050000D01*
X85563368Y-135166525D01*
X85356525Y-135373368D01*
X85194010Y-135616589D01*
X85082068Y-135886842D01*
X85025000Y-136173740D01*
X85025000Y-136466260D01*
X85082068Y-136753158D01*
X85194010Y-137023411D01*
X85356525Y-137266632D01*
X85563368Y-137473475D01*
X85737760Y-137590000D01*
X85563368Y-137706525D01*
X85356525Y-137913368D01*
X85194010Y-138156589D01*
X85082068Y-138426842D01*
X85025000Y-138713740D01*
X85025000Y-139006260D01*
X85082068Y-139293158D01*
X85194010Y-139563411D01*
X85356525Y-139806632D01*
X85563368Y-140013475D01*
X85737760Y-140130000D01*
X85563368Y-140246525D01*
X85356525Y-140453368D01*
X85194010Y-140696589D01*
X85082068Y-140966842D01*
X85025000Y-141253740D01*
X85025000Y-141546260D01*
X85082068Y-141833158D01*
X85194010Y-142103411D01*
X85356525Y-142346632D01*
X85563368Y-142553475D01*
X85737760Y-142670000D01*
X85563368Y-142786525D01*
X85356525Y-142993368D01*
X85194010Y-143236589D01*
X85082068Y-143506842D01*
X85025000Y-143793740D01*
X85025000Y-144086260D01*
X85082068Y-144373158D01*
X85194010Y-144643411D01*
X85356525Y-144886632D01*
X85563368Y-145093475D01*
X85737760Y-145210000D01*
X85563368Y-145326525D01*
X85356525Y-145533368D01*
X85194010Y-145776589D01*
X85082068Y-146046842D01*
X85025000Y-146333740D01*
X85025000Y-146626260D01*
X85082068Y-146913158D01*
X85194010Y-147183411D01*
X85356525Y-147426632D01*
X85563368Y-147633475D01*
X85737760Y-147750000D01*
X85563368Y-147866525D01*
X85356525Y-148073368D01*
X85194010Y-148316589D01*
X85082068Y-148586842D01*
X85025000Y-148873740D01*
X85025000Y-149166260D01*
X85082068Y-149453158D01*
X85194010Y-149723411D01*
X85356525Y-149966632D01*
X85563368Y-150173475D01*
X85737760Y-150290000D01*
X85563368Y-150406525D01*
X85356525Y-150613368D01*
X85194010Y-150856589D01*
X85082068Y-151126842D01*
X85025000Y-151413740D01*
X85025000Y-151706260D01*
X85082068Y-151993158D01*
X85194010Y-152263411D01*
X85356525Y-152506632D01*
X85563368Y-152713475D01*
X85737760Y-152830000D01*
X85563368Y-152946525D01*
X85356525Y-153153368D01*
X85194010Y-153396589D01*
X85082068Y-153666842D01*
X85025000Y-153953740D01*
X85025000Y-154246260D01*
X85082068Y-154533158D01*
X85194010Y-154803411D01*
X85356525Y-155046632D01*
X85563368Y-155253475D01*
X85806589Y-155415990D01*
X86076842Y-155527932D01*
X86363740Y-155585000D01*
X86656260Y-155585000D01*
X86943158Y-155527932D01*
X87213411Y-155415990D01*
X87456632Y-155253475D01*
X87588487Y-155121620D01*
X87610498Y-155194180D01*
X87669463Y-155304494D01*
X87748815Y-155401185D01*
X87845506Y-155480537D01*
X87955820Y-155539502D01*
X88075518Y-155575812D01*
X88200000Y-155588072D01*
X89900000Y-155588072D01*
X90024482Y-155575812D01*
X90144180Y-155539502D01*
X90254494Y-155480537D01*
X90351185Y-155401185D01*
X90430537Y-155304494D01*
X90489502Y-155194180D01*
X90525812Y-155074482D01*
X90538072Y-154950000D01*
X90538072Y-153250000D01*
X90525812Y-153125518D01*
X90489502Y-153005820D01*
X90430537Y-152895506D01*
X90351185Y-152798815D01*
X90254494Y-152719463D01*
X90144180Y-152660498D01*
X90071620Y-152638487D01*
X90203475Y-152506632D01*
X90365990Y-152263411D01*
X90477932Y-151993158D01*
X90535000Y-151706260D01*
X90535000Y-151413740D01*
X90477932Y-151126842D01*
X90365990Y-150856589D01*
X90203475Y-150613368D01*
X89996632Y-150406525D01*
X89822240Y-150290000D01*
X89996632Y-150173475D01*
X90203475Y-149966632D01*
X90365990Y-149723411D01*
X90477932Y-149453158D01*
X90535000Y-149166260D01*
X90535000Y-148873740D01*
X90477932Y-148586842D01*
X90365990Y-148316589D01*
X90364301Y-148314061D01*
X93982300Y-148314061D01*
X93982300Y-148517939D01*
X94022074Y-148717898D01*
X94100095Y-148906256D01*
X94213363Y-149075774D01*
X94357526Y-149219937D01*
X94527044Y-149333205D01*
X94715402Y-149411226D01*
X94915361Y-149451000D01*
X95119239Y-149451000D01*
X95319198Y-149411226D01*
X95507556Y-149333205D01*
X95508131Y-149332821D01*
X95532068Y-149453158D01*
X95644010Y-149723411D01*
X95806525Y-149966632D01*
X96013368Y-150173475D01*
X96187760Y-150290000D01*
X96013368Y-150406525D01*
X95806525Y-150613368D01*
X95644010Y-150856589D01*
X95532068Y-151126842D01*
X95475000Y-151413740D01*
X95475000Y-151706260D01*
X95532068Y-151993158D01*
X95644010Y-152263411D01*
X95806525Y-152506632D01*
X96013368Y-152713475D01*
X96187760Y-152830000D01*
X96013368Y-152946525D01*
X95806525Y-153153368D01*
X95644010Y-153396589D01*
X95532068Y-153666842D01*
X95475000Y-153953740D01*
X95475000Y-154246260D01*
X95532068Y-154533158D01*
X95644010Y-154803411D01*
X95806525Y-155046632D01*
X96013368Y-155253475D01*
X96256589Y-155415990D01*
X96526842Y-155527932D01*
X96813740Y-155585000D01*
X97106260Y-155585000D01*
X97393158Y-155527932D01*
X97663411Y-155415990D01*
X97906632Y-155253475D01*
X98038487Y-155121620D01*
X98060498Y-155194180D01*
X98119463Y-155304494D01*
X98198815Y-155401185D01*
X98295506Y-155480537D01*
X98405820Y-155539502D01*
X98525518Y-155575812D01*
X98650000Y-155588072D01*
X100350000Y-155588072D01*
X100474482Y-155575812D01*
X100594180Y-155539502D01*
X100704494Y-155480537D01*
X100801185Y-155401185D01*
X100880537Y-155304494D01*
X100939502Y-155194180D01*
X100975812Y-155074482D01*
X100988072Y-154950000D01*
X100988072Y-153250000D01*
X100975812Y-153125518D01*
X100939502Y-153005820D01*
X100880537Y-152895506D01*
X100801185Y-152798815D01*
X100704494Y-152719463D01*
X100594180Y-152660498D01*
X100521620Y-152638487D01*
X100653475Y-152506632D01*
X100815990Y-152263411D01*
X100927932Y-151993158D01*
X100985000Y-151706260D01*
X100985000Y-151413740D01*
X100927932Y-151126842D01*
X100815990Y-150856589D01*
X100788986Y-150816175D01*
X100951102Y-150883326D01*
X101151061Y-150923100D01*
X101354939Y-150923100D01*
X101554898Y-150883326D01*
X101743256Y-150805305D01*
X101912774Y-150692037D01*
X102056937Y-150547874D01*
X102073516Y-150523061D01*
X116690000Y-150523061D01*
X116690000Y-150726939D01*
X116729774Y-150926898D01*
X116807795Y-151115256D01*
X116921063Y-151284774D01*
X117065226Y-151428937D01*
X117234744Y-151542205D01*
X117423102Y-151620226D01*
X117623061Y-151660000D01*
X117826939Y-151660000D01*
X118026898Y-151620226D01*
X118215256Y-151542205D01*
X118384774Y-151428937D01*
X118528937Y-151284774D01*
X118642205Y-151115256D01*
X118720226Y-150926898D01*
X118760000Y-150726939D01*
X118760000Y-150523061D01*
X118720226Y-150323102D01*
X118642205Y-150134744D01*
X118528937Y-149965226D01*
X118384774Y-149821063D01*
X118215256Y-149707795D01*
X118026898Y-149629774D01*
X117826939Y-149590000D01*
X117623061Y-149590000D01*
X117423102Y-149629774D01*
X117234744Y-149707795D01*
X117065226Y-149821063D01*
X116921063Y-149965226D01*
X116807795Y-150134744D01*
X116729774Y-150323102D01*
X116690000Y-150523061D01*
X102073516Y-150523061D01*
X102170205Y-150378356D01*
X102248226Y-150189998D01*
X102288000Y-149990039D01*
X102288000Y-149786161D01*
X102248226Y-149586202D01*
X102170205Y-149397844D01*
X102056937Y-149228326D01*
X101925878Y-149097267D01*
X103655069Y-149097267D01*
X103655069Y-149301145D01*
X103694843Y-149501104D01*
X103772864Y-149689462D01*
X103886132Y-149858980D01*
X104030295Y-150003143D01*
X104199813Y-150116411D01*
X104388171Y-150194432D01*
X104588130Y-150234206D01*
X104792008Y-150234206D01*
X104991967Y-150194432D01*
X105180325Y-150116411D01*
X105349843Y-150003143D01*
X105494006Y-149858980D01*
X105607274Y-149689462D01*
X105685295Y-149501104D01*
X105725069Y-149301145D01*
X105725069Y-149097267D01*
X105685295Y-148897308D01*
X105607274Y-148708950D01*
X105494006Y-148539432D01*
X105349843Y-148395269D01*
X105180325Y-148282001D01*
X104991967Y-148203980D01*
X104792008Y-148164206D01*
X104588130Y-148164206D01*
X104388171Y-148203980D01*
X104199813Y-148282001D01*
X104030295Y-148395269D01*
X103886132Y-148539432D01*
X103772864Y-148708950D01*
X103694843Y-148897308D01*
X103655069Y-149097267D01*
X101925878Y-149097267D01*
X101912774Y-149084163D01*
X101805252Y-149012319D01*
X101886239Y-148958205D01*
X102030402Y-148814042D01*
X102143670Y-148644524D01*
X102221691Y-148456166D01*
X102261465Y-148256207D01*
X102261465Y-148052329D01*
X102221691Y-147852370D01*
X102143670Y-147664012D01*
X102030402Y-147494494D01*
X101886239Y-147350331D01*
X101716721Y-147237063D01*
X101528363Y-147159042D01*
X101328404Y-147119268D01*
X101124526Y-147119268D01*
X100924567Y-147159042D01*
X100796953Y-147211902D01*
X100815990Y-147183411D01*
X100927932Y-146913158D01*
X100985000Y-146626260D01*
X100985000Y-146333740D01*
X100927932Y-146046842D01*
X100815990Y-145776589D01*
X100653475Y-145533368D01*
X100446632Y-145326525D01*
X100272240Y-145210000D01*
X100398611Y-145125561D01*
X107126500Y-145125561D01*
X107126500Y-145329439D01*
X107166274Y-145529398D01*
X107244295Y-145717756D01*
X107357563Y-145887274D01*
X107501726Y-146031437D01*
X107671244Y-146144705D01*
X107859602Y-146222726D01*
X108059561Y-146262500D01*
X108263439Y-146262500D01*
X108463398Y-146222726D01*
X108651756Y-146144705D01*
X108821274Y-146031437D01*
X108965437Y-145887274D01*
X109078705Y-145717756D01*
X109156726Y-145529398D01*
X109196500Y-145329439D01*
X109196500Y-145215561D01*
X117540500Y-145215561D01*
X117540500Y-145419439D01*
X117580274Y-145619398D01*
X117658295Y-145807756D01*
X117771563Y-145977274D01*
X117915726Y-146121437D01*
X118085244Y-146234705D01*
X118273602Y-146312726D01*
X118473561Y-146352500D01*
X118677439Y-146352500D01*
X118877398Y-146312726D01*
X119065756Y-146234705D01*
X119235274Y-146121437D01*
X119379437Y-145977274D01*
X119492705Y-145807756D01*
X119570726Y-145619398D01*
X119610500Y-145419439D01*
X119610500Y-145215561D01*
X119570726Y-145015602D01*
X119492705Y-144827244D01*
X119379437Y-144657726D01*
X119235274Y-144513563D01*
X119065756Y-144400295D01*
X118877398Y-144322274D01*
X118677439Y-144282500D01*
X118473561Y-144282500D01*
X118273602Y-144322274D01*
X118085244Y-144400295D01*
X117915726Y-144513563D01*
X117771563Y-144657726D01*
X117658295Y-144827244D01*
X117580274Y-145015602D01*
X117540500Y-145215561D01*
X109196500Y-145215561D01*
X109196500Y-145125561D01*
X109156726Y-144925602D01*
X109078705Y-144737244D01*
X108965437Y-144567726D01*
X108821274Y-144423563D01*
X108651756Y-144310295D01*
X108463398Y-144232274D01*
X108263439Y-144192500D01*
X108059561Y-144192500D01*
X107859602Y-144232274D01*
X107671244Y-144310295D01*
X107501726Y-144423563D01*
X107357563Y-144567726D01*
X107244295Y-144737244D01*
X107166274Y-144925602D01*
X107126500Y-145125561D01*
X100398611Y-145125561D01*
X100446632Y-145093475D01*
X100653475Y-144886632D01*
X100815990Y-144643411D01*
X100927932Y-144373158D01*
X100985000Y-144086260D01*
X100985000Y-143793740D01*
X100927932Y-143506842D01*
X100815990Y-143236589D01*
X100653475Y-142993368D01*
X100446632Y-142786525D01*
X100272240Y-142670000D01*
X100446632Y-142553475D01*
X100653475Y-142346632D01*
X100815990Y-142103411D01*
X100927932Y-141833158D01*
X100985000Y-141546260D01*
X100985000Y-141253740D01*
X100927932Y-140966842D01*
X100815990Y-140696589D01*
X100653475Y-140453368D01*
X100446632Y-140246525D01*
X100272240Y-140130000D01*
X100446632Y-140013475D01*
X100653475Y-139806632D01*
X100815990Y-139563411D01*
X100927932Y-139293158D01*
X100985000Y-139006260D01*
X100985000Y-138713740D01*
X100927932Y-138426842D01*
X100815990Y-138156589D01*
X100805080Y-138140261D01*
X107126800Y-138140261D01*
X107126800Y-138344139D01*
X107166574Y-138544098D01*
X107244595Y-138732456D01*
X107357863Y-138901974D01*
X107502026Y-139046137D01*
X107671544Y-139159405D01*
X107859902Y-139237426D01*
X108059861Y-139277200D01*
X108263739Y-139277200D01*
X108463698Y-139237426D01*
X108652056Y-139159405D01*
X108821574Y-139046137D01*
X108965737Y-138901974D01*
X109079005Y-138732456D01*
X109157026Y-138544098D01*
X109196800Y-138344139D01*
X109196800Y-138318061D01*
X116855000Y-138318061D01*
X116855000Y-138521939D01*
X116894774Y-138721898D01*
X116972795Y-138910256D01*
X117086063Y-139079774D01*
X117230226Y-139223937D01*
X117399744Y-139337205D01*
X117588102Y-139415226D01*
X117788061Y-139455000D01*
X117991939Y-139455000D01*
X118191898Y-139415226D01*
X118380256Y-139337205D01*
X118549774Y-139223937D01*
X118693937Y-139079774D01*
X118807205Y-138910256D01*
X118885226Y-138721898D01*
X118925000Y-138521939D01*
X118925000Y-138318061D01*
X118885226Y-138118102D01*
X118807205Y-137929744D01*
X118693937Y-137760226D01*
X118549774Y-137616063D01*
X118380256Y-137502795D01*
X118191898Y-137424774D01*
X117991939Y-137385000D01*
X117788061Y-137385000D01*
X117588102Y-137424774D01*
X117399744Y-137502795D01*
X117230226Y-137616063D01*
X117086063Y-137760226D01*
X116972795Y-137929744D01*
X116894774Y-138118102D01*
X116855000Y-138318061D01*
X109196800Y-138318061D01*
X109196800Y-138140261D01*
X109157026Y-137940302D01*
X109079005Y-137751944D01*
X108965737Y-137582426D01*
X108821574Y-137438263D01*
X108652056Y-137324995D01*
X108463698Y-137246974D01*
X108263739Y-137207200D01*
X108059861Y-137207200D01*
X107859902Y-137246974D01*
X107671544Y-137324995D01*
X107502026Y-137438263D01*
X107357863Y-137582426D01*
X107244595Y-137751944D01*
X107166574Y-137940302D01*
X107126800Y-138140261D01*
X100805080Y-138140261D01*
X100653475Y-137913368D01*
X100446632Y-137706525D01*
X100272240Y-137590000D01*
X100446632Y-137473475D01*
X100653475Y-137266632D01*
X100815990Y-137023411D01*
X100927932Y-136753158D01*
X100985000Y-136466260D01*
X100985000Y-136173740D01*
X100927932Y-135886842D01*
X100815990Y-135616589D01*
X100653475Y-135373368D01*
X100446632Y-135166525D01*
X100272240Y-135050000D01*
X100446632Y-134933475D01*
X100653475Y-134726632D01*
X100815990Y-134483411D01*
X100927932Y-134213158D01*
X100985000Y-133926260D01*
X100985000Y-133633740D01*
X100927932Y-133346842D01*
X100815990Y-133076589D01*
X100653475Y-132833368D01*
X100446632Y-132626525D01*
X100272240Y-132510000D01*
X100446632Y-132393475D01*
X100618046Y-132222061D01*
X102090002Y-132222061D01*
X102090002Y-132425939D01*
X102129776Y-132625898D01*
X102207797Y-132814256D01*
X102321065Y-132983774D01*
X102465228Y-133127937D01*
X102634746Y-133241205D01*
X102823104Y-133319226D01*
X103023063Y-133359000D01*
X103226941Y-133359000D01*
X103426900Y-133319226D01*
X103615258Y-133241205D01*
X103784776Y-133127937D01*
X103928939Y-132983774D01*
X104042207Y-132814256D01*
X104120228Y-132625898D01*
X104160002Y-132425939D01*
X104160002Y-132222061D01*
X104120228Y-132022102D01*
X104042207Y-131833744D01*
X103928939Y-131664226D01*
X103784776Y-131520063D01*
X103615258Y-131406795D01*
X103426900Y-131328774D01*
X103226941Y-131289000D01*
X103023063Y-131289000D01*
X102823104Y-131328774D01*
X102634746Y-131406795D01*
X102465228Y-131520063D01*
X102321065Y-131664226D01*
X102207797Y-131833744D01*
X102129776Y-132022102D01*
X102090002Y-132222061D01*
X100618046Y-132222061D01*
X100653475Y-132186632D01*
X100815990Y-131943411D01*
X100927932Y-131673158D01*
X100985000Y-131386260D01*
X100985000Y-131093740D01*
X100927932Y-130806842D01*
X100815990Y-130536589D01*
X100653475Y-130293368D01*
X100446632Y-130086525D01*
X100203411Y-129924010D01*
X99933158Y-129812068D01*
X99646260Y-129755000D01*
X99353740Y-129755000D01*
X99066842Y-129812068D01*
X98796589Y-129924010D01*
X98553368Y-130086525D01*
X98346525Y-130293368D01*
X98230000Y-130467760D01*
X98113475Y-130293368D01*
X97906632Y-130086525D01*
X97663411Y-129924010D01*
X97393158Y-129812068D01*
X97106260Y-129755000D01*
X96813740Y-129755000D01*
X96526842Y-129812068D01*
X96256589Y-129924010D01*
X96013368Y-130086525D01*
X95806525Y-130293368D01*
X95644010Y-130536589D01*
X95532068Y-130806842D01*
X95475000Y-131093740D01*
X95475000Y-131386260D01*
X95532068Y-131673158D01*
X95644010Y-131943411D01*
X95806525Y-132186632D01*
X96013368Y-132393475D01*
X96187760Y-132510000D01*
X96013368Y-132626525D01*
X95806525Y-132833368D01*
X95644010Y-133076589D01*
X95532068Y-133346842D01*
X95475000Y-133633740D01*
X95475000Y-133926260D01*
X95532068Y-134213158D01*
X95644010Y-134483411D01*
X95806525Y-134726632D01*
X96013368Y-134933475D01*
X96187760Y-135050000D01*
X96013368Y-135166525D01*
X95806525Y-135373368D01*
X95644010Y-135616589D01*
X95532068Y-135886842D01*
X95475000Y-136173740D01*
X95475000Y-136466260D01*
X95532068Y-136753158D01*
X95644010Y-137023411D01*
X95806525Y-137266632D01*
X96013368Y-137473475D01*
X96187760Y-137590000D01*
X96013368Y-137706525D01*
X95806525Y-137913368D01*
X95644010Y-138156589D01*
X95532068Y-138426842D01*
X95475000Y-138713740D01*
X95475000Y-139006260D01*
X95532068Y-139293158D01*
X95644010Y-139563411D01*
X95806525Y-139806632D01*
X96013368Y-140013475D01*
X96187760Y-140130000D01*
X96013368Y-140246525D01*
X95806525Y-140453368D01*
X95644010Y-140696589D01*
X95532068Y-140966842D01*
X95475000Y-141253740D01*
X95475000Y-141546260D01*
X95532068Y-141833158D01*
X95644010Y-142103411D01*
X95806525Y-142346632D01*
X96013368Y-142553475D01*
X96187760Y-142670000D01*
X96013368Y-142786525D01*
X95806525Y-142993368D01*
X95644010Y-143236589D01*
X95532068Y-143506842D01*
X95475000Y-143793740D01*
X95475000Y-144086260D01*
X95532068Y-144373158D01*
X95644010Y-144643411D01*
X95806525Y-144886632D01*
X96013368Y-145093475D01*
X96187760Y-145210000D01*
X96013368Y-145326525D01*
X95806525Y-145533368D01*
X95644010Y-145776589D01*
X95532068Y-146046842D01*
X95475000Y-146333740D01*
X95475000Y-146626260D01*
X95532068Y-146913158D01*
X95644010Y-147183411D01*
X95806525Y-147426632D01*
X96013368Y-147633475D01*
X96187760Y-147750000D01*
X96013368Y-147866525D01*
X95940259Y-147939634D01*
X95934505Y-147925744D01*
X95821237Y-147756226D01*
X95677074Y-147612063D01*
X95507556Y-147498795D01*
X95319198Y-147420774D01*
X95119239Y-147381000D01*
X94915361Y-147381000D01*
X94715402Y-147420774D01*
X94527044Y-147498795D01*
X94357526Y-147612063D01*
X94213363Y-147756226D01*
X94100095Y-147925744D01*
X94022074Y-148114102D01*
X93982300Y-148314061D01*
X90364301Y-148314061D01*
X90203475Y-148073368D01*
X89996632Y-147866525D01*
X89822240Y-147750000D01*
X89996632Y-147633475D01*
X90203475Y-147426632D01*
X90365990Y-147183411D01*
X90477932Y-146913158D01*
X90535000Y-146626260D01*
X90535000Y-146333740D01*
X90477932Y-146046842D01*
X90365990Y-145776589D01*
X90203475Y-145533368D01*
X89996632Y-145326525D01*
X89822240Y-145210000D01*
X89996632Y-145093475D01*
X90203475Y-144886632D01*
X90365990Y-144643411D01*
X90477932Y-144373158D01*
X90535000Y-144086260D01*
X90535000Y-143793740D01*
X90477932Y-143506842D01*
X90365990Y-143236589D01*
X90203475Y-142993368D01*
X89996632Y-142786525D01*
X89822240Y-142670000D01*
X89996632Y-142553475D01*
X90203475Y-142346632D01*
X90365990Y-142103411D01*
X90477932Y-141833158D01*
X90535000Y-141546260D01*
X90535000Y-141253740D01*
X90477932Y-140966842D01*
X90365990Y-140696589D01*
X90203475Y-140453368D01*
X89996632Y-140246525D01*
X89822240Y-140130000D01*
X89996632Y-140013475D01*
X90203475Y-139806632D01*
X90365990Y-139563411D01*
X90477932Y-139293158D01*
X90535000Y-139006260D01*
X90535000Y-138713740D01*
X90477932Y-138426842D01*
X90365990Y-138156589D01*
X90203475Y-137913368D01*
X89996632Y-137706525D01*
X89822240Y-137590000D01*
X89996632Y-137473475D01*
X90203475Y-137266632D01*
X90365990Y-137023411D01*
X90477932Y-136753158D01*
X90535000Y-136466260D01*
X90535000Y-136173740D01*
X90477932Y-135886842D01*
X90365990Y-135616589D01*
X90203475Y-135373368D01*
X89996632Y-135166525D01*
X89822240Y-135050000D01*
X89996632Y-134933475D01*
X90203475Y-134726632D01*
X90365990Y-134483411D01*
X90477932Y-134213158D01*
X90535000Y-133926260D01*
X90535000Y-133633740D01*
X90477932Y-133346842D01*
X90365990Y-133076589D01*
X90203475Y-132833368D01*
X89996632Y-132626525D01*
X89822240Y-132510000D01*
X89996632Y-132393475D01*
X90077045Y-132313062D01*
X93380001Y-132313062D01*
X93380001Y-132516940D01*
X93419775Y-132716899D01*
X93497796Y-132905257D01*
X93611064Y-133074775D01*
X93755227Y-133218938D01*
X93924745Y-133332206D01*
X94113103Y-133410227D01*
X94313062Y-133450001D01*
X94516940Y-133450001D01*
X94716899Y-133410227D01*
X94905257Y-133332206D01*
X95074775Y-133218938D01*
X95218938Y-133074775D01*
X95332206Y-132905257D01*
X95410227Y-132716899D01*
X95450001Y-132516940D01*
X95450001Y-132313062D01*
X95410227Y-132113103D01*
X95332206Y-131924745D01*
X95218938Y-131755227D01*
X95074775Y-131611064D01*
X94905257Y-131497796D01*
X94716899Y-131419775D01*
X94516940Y-131380001D01*
X94313062Y-131380001D01*
X94113103Y-131419775D01*
X93924745Y-131497796D01*
X93755227Y-131611064D01*
X93611064Y-131755227D01*
X93497796Y-131924745D01*
X93419775Y-132113103D01*
X93380001Y-132313062D01*
X90077045Y-132313062D01*
X90203475Y-132186632D01*
X90365990Y-131943411D01*
X90427415Y-131795116D01*
X90490236Y-131857937D01*
X90659754Y-131971205D01*
X90848112Y-132049226D01*
X91048071Y-132089000D01*
X91251949Y-132089000D01*
X91451908Y-132049226D01*
X91640266Y-131971205D01*
X91714997Y-131921272D01*
X91870602Y-131985726D01*
X92070561Y-132025500D01*
X92274439Y-132025500D01*
X92474398Y-131985726D01*
X92662756Y-131907705D01*
X92832274Y-131794437D01*
X92976437Y-131650274D01*
X93089705Y-131480756D01*
X93167726Y-131292398D01*
X93207500Y-131092439D01*
X93207500Y-130888561D01*
X93167726Y-130688602D01*
X93089705Y-130500244D01*
X92976437Y-130330726D01*
X92832274Y-130186563D01*
X92662756Y-130073295D01*
X92474398Y-129995274D01*
X92274439Y-129955500D01*
X92070561Y-129955500D01*
X91870602Y-129995274D01*
X91682244Y-130073295D01*
X91607513Y-130123228D01*
X91451908Y-130058774D01*
X91251949Y-130019000D01*
X91048071Y-130019000D01*
X90848112Y-130058774D01*
X90659754Y-130136795D01*
X90490236Y-130250063D01*
X90346073Y-130394226D01*
X90308470Y-130450504D01*
X90203475Y-130293368D01*
X89996632Y-130086525D01*
X89753411Y-129924010D01*
X89483158Y-129812068D01*
X89196260Y-129755000D01*
X88903740Y-129755000D01*
X88616842Y-129812068D01*
X88346589Y-129924010D01*
X88103368Y-130086525D01*
X87896525Y-130293368D01*
X87780000Y-130467760D01*
X87663475Y-130293368D01*
X87456632Y-130086525D01*
X87213411Y-129924010D01*
X86943158Y-129812068D01*
X86656260Y-129755000D01*
X86363740Y-129755000D01*
X86076842Y-129812068D01*
X85806589Y-129924010D01*
X85563368Y-130086525D01*
X85356525Y-130293368D01*
X85194010Y-130536589D01*
X85082068Y-130806842D01*
X85025000Y-131093740D01*
X77902150Y-131093740D01*
X77805990Y-130861589D01*
X77643475Y-130618368D01*
X77436632Y-130411525D01*
X77262240Y-130295000D01*
X77436632Y-130178475D01*
X77643475Y-129971632D01*
X77805990Y-129728411D01*
X77917932Y-129458158D01*
X77975000Y-129171260D01*
X77975000Y-128878740D01*
X77917932Y-128591842D01*
X77805990Y-128321589D01*
X77643475Y-128078368D01*
X77436632Y-127871525D01*
X77262240Y-127755000D01*
X77436632Y-127638475D01*
X77643475Y-127431632D01*
X77805990Y-127188411D01*
X77807170Y-127185561D01*
X82752500Y-127185561D01*
X82752500Y-127389439D01*
X82792274Y-127589398D01*
X82870295Y-127777756D01*
X82983563Y-127947274D01*
X83127726Y-128091437D01*
X83297244Y-128204705D01*
X83485602Y-128282726D01*
X83685561Y-128322500D01*
X83889439Y-128322500D01*
X84089398Y-128282726D01*
X84277756Y-128204705D01*
X84447274Y-128091437D01*
X84591437Y-127947274D01*
X84704705Y-127777756D01*
X84782726Y-127589398D01*
X84789717Y-127554253D01*
X84798102Y-127557726D01*
X84998061Y-127597500D01*
X85201939Y-127597500D01*
X85401898Y-127557726D01*
X85485586Y-127523061D01*
X107584000Y-127523061D01*
X107584000Y-127726939D01*
X107623774Y-127926898D01*
X107701795Y-128115256D01*
X107815063Y-128284774D01*
X107959226Y-128428937D01*
X108128744Y-128542205D01*
X108317102Y-128620226D01*
X108517061Y-128660000D01*
X108720939Y-128660000D01*
X108920898Y-128620226D01*
X109109256Y-128542205D01*
X109278774Y-128428937D01*
X109422937Y-128284774D01*
X109536205Y-128115256D01*
X109614226Y-127926898D01*
X109654000Y-127726939D01*
X109654000Y-127523061D01*
X111140000Y-127523061D01*
X111140000Y-127726939D01*
X111179774Y-127926898D01*
X111257795Y-128115256D01*
X111371063Y-128284774D01*
X111515226Y-128428937D01*
X111684744Y-128542205D01*
X111873102Y-128620226D01*
X112073061Y-128660000D01*
X112276939Y-128660000D01*
X112476898Y-128620226D01*
X112665256Y-128542205D01*
X112834774Y-128428937D01*
X112978937Y-128284774D01*
X113092205Y-128115256D01*
X113170226Y-127926898D01*
X113210000Y-127726939D01*
X113210000Y-127523061D01*
X115394500Y-127523061D01*
X115394500Y-127726939D01*
X115434274Y-127926898D01*
X115512295Y-128115256D01*
X115625563Y-128284774D01*
X115769726Y-128428937D01*
X115939244Y-128542205D01*
X116127602Y-128620226D01*
X116327561Y-128660000D01*
X116531439Y-128660000D01*
X116731398Y-128620226D01*
X116919756Y-128542205D01*
X116977323Y-128503740D01*
X121025000Y-128503740D01*
X121025000Y-128796260D01*
X121082068Y-129083158D01*
X121194010Y-129353411D01*
X121356525Y-129596632D01*
X121563368Y-129803475D01*
X121737760Y-129920000D01*
X121563368Y-130036525D01*
X121356525Y-130243368D01*
X121194010Y-130486589D01*
X121082068Y-130756842D01*
X121025000Y-131043740D01*
X121025000Y-131336260D01*
X121082068Y-131623158D01*
X121194010Y-131893411D01*
X121356525Y-132136632D01*
X121563368Y-132343475D01*
X121737760Y-132460000D01*
X121563368Y-132576525D01*
X121356525Y-132783368D01*
X121194010Y-133026589D01*
X121082068Y-133296842D01*
X121025000Y-133583740D01*
X121025000Y-133876260D01*
X121082068Y-134163158D01*
X121194010Y-134433411D01*
X121356525Y-134676632D01*
X121563368Y-134883475D01*
X121737760Y-135000000D01*
X121563368Y-135116525D01*
X121356525Y-135323368D01*
X121194010Y-135566589D01*
X121082068Y-135836842D01*
X121025000Y-136123740D01*
X121025000Y-136416260D01*
X121082068Y-136703158D01*
X121194010Y-136973411D01*
X121356525Y-137216632D01*
X121563368Y-137423475D01*
X121737760Y-137540000D01*
X121563368Y-137656525D01*
X121356525Y-137863368D01*
X121194010Y-138106589D01*
X121082068Y-138376842D01*
X121025000Y-138663740D01*
X121025000Y-138956260D01*
X121082068Y-139243158D01*
X121194010Y-139513411D01*
X121356525Y-139756632D01*
X121563368Y-139963475D01*
X121737760Y-140080000D01*
X121563368Y-140196525D01*
X121356525Y-140403368D01*
X121194010Y-140646589D01*
X121082068Y-140916842D01*
X121025000Y-141203740D01*
X121025000Y-141496260D01*
X121082068Y-141783158D01*
X121194010Y-142053411D01*
X121356525Y-142296632D01*
X121563368Y-142503475D01*
X121737760Y-142620000D01*
X121563368Y-142736525D01*
X121356525Y-142943368D01*
X121194010Y-143186589D01*
X121082068Y-143456842D01*
X121025000Y-143743740D01*
X121025000Y-144036260D01*
X121082068Y-144323158D01*
X121194010Y-144593411D01*
X121356525Y-144836632D01*
X121563368Y-145043475D01*
X121737760Y-145160000D01*
X121563368Y-145276525D01*
X121356525Y-145483368D01*
X121194010Y-145726589D01*
X121082068Y-145996842D01*
X121025000Y-146283740D01*
X121025000Y-146576260D01*
X121082068Y-146863158D01*
X121194010Y-147133411D01*
X121356525Y-147376632D01*
X121563368Y-147583475D01*
X121737760Y-147700000D01*
X121563368Y-147816525D01*
X121356525Y-148023368D01*
X121194010Y-148266589D01*
X121082068Y-148536842D01*
X121025000Y-148823740D01*
X121025000Y-149116260D01*
X121082068Y-149403158D01*
X121194010Y-149673411D01*
X121356525Y-149916632D01*
X121563368Y-150123475D01*
X121737760Y-150240000D01*
X121563368Y-150356525D01*
X121356525Y-150563368D01*
X121194010Y-150806589D01*
X121082068Y-151076842D01*
X121025000Y-151363740D01*
X121025000Y-151656260D01*
X121082068Y-151943158D01*
X121194010Y-152213411D01*
X121356525Y-152456632D01*
X121563368Y-152663475D01*
X121806589Y-152825990D01*
X122076842Y-152937932D01*
X122363740Y-152995000D01*
X122656260Y-152995000D01*
X122943158Y-152937932D01*
X123213411Y-152825990D01*
X123456632Y-152663475D01*
X123588487Y-152531620D01*
X123610498Y-152604180D01*
X123669463Y-152714494D01*
X123748815Y-152811185D01*
X123845506Y-152890537D01*
X123955820Y-152949502D01*
X124075518Y-152985812D01*
X124200000Y-152998072D01*
X125900000Y-152998072D01*
X126024482Y-152985812D01*
X126144180Y-152949502D01*
X126254494Y-152890537D01*
X126351185Y-152811185D01*
X126430537Y-152714494D01*
X126489502Y-152604180D01*
X126525812Y-152484482D01*
X126538072Y-152360000D01*
X126538072Y-150660000D01*
X126525812Y-150535518D01*
X126489502Y-150415820D01*
X126430537Y-150305506D01*
X126351185Y-150208815D01*
X126254494Y-150129463D01*
X126144180Y-150070498D01*
X126071620Y-150048487D01*
X126203475Y-149916632D01*
X126365990Y-149673411D01*
X126477932Y-149403158D01*
X126535000Y-149116260D01*
X126535000Y-148823740D01*
X126477932Y-148536842D01*
X126365990Y-148266589D01*
X126203475Y-148023368D01*
X125996632Y-147816525D01*
X125822240Y-147700000D01*
X125996632Y-147583475D01*
X126203475Y-147376632D01*
X126365990Y-147133411D01*
X126477932Y-146863158D01*
X126535000Y-146576260D01*
X126535000Y-146283740D01*
X126477932Y-145996842D01*
X126365990Y-145726589D01*
X126203475Y-145483368D01*
X125996632Y-145276525D01*
X125822240Y-145160000D01*
X125996632Y-145043475D01*
X126203475Y-144836632D01*
X126365990Y-144593411D01*
X126477932Y-144323158D01*
X126535000Y-144036260D01*
X126535000Y-143743740D01*
X126477932Y-143456842D01*
X126365990Y-143186589D01*
X126203475Y-142943368D01*
X125996632Y-142736525D01*
X125822240Y-142620000D01*
X125996632Y-142503475D01*
X126203475Y-142296632D01*
X126365990Y-142053411D01*
X126477932Y-141783158D01*
X126535000Y-141496260D01*
X126535000Y-141203740D01*
X126477932Y-140916842D01*
X126365990Y-140646589D01*
X126203475Y-140403368D01*
X125996632Y-140196525D01*
X125822240Y-140080000D01*
X125996632Y-139963475D01*
X126203475Y-139756632D01*
X126365990Y-139513411D01*
X126477932Y-139243158D01*
X126535000Y-138956260D01*
X126535000Y-138663740D01*
X126477932Y-138376842D01*
X126365990Y-138106589D01*
X126203475Y-137863368D01*
X125996632Y-137656525D01*
X125822240Y-137540000D01*
X125996632Y-137423475D01*
X126203475Y-137216632D01*
X126365990Y-136973411D01*
X126477932Y-136703158D01*
X126535000Y-136416260D01*
X126535000Y-136123740D01*
X126477932Y-135836842D01*
X126365990Y-135566589D01*
X126203475Y-135323368D01*
X125996632Y-135116525D01*
X125822240Y-135000000D01*
X125996632Y-134883475D01*
X126203475Y-134676632D01*
X126365990Y-134433411D01*
X126477932Y-134163158D01*
X126535000Y-133876260D01*
X126535000Y-133583740D01*
X126477932Y-133296842D01*
X126365990Y-133026589D01*
X126203475Y-132783368D01*
X125996632Y-132576525D01*
X125822240Y-132460000D01*
X125996632Y-132343475D01*
X126203475Y-132136632D01*
X126365990Y-131893411D01*
X126477932Y-131623158D01*
X126535000Y-131336260D01*
X126535000Y-131043740D01*
X126477932Y-130756842D01*
X126365990Y-130486589D01*
X126203475Y-130243368D01*
X125996632Y-130036525D01*
X125822240Y-129920000D01*
X125996632Y-129803475D01*
X126203475Y-129596632D01*
X126365990Y-129353411D01*
X126477932Y-129083158D01*
X126535000Y-128796260D01*
X126535000Y-128503740D01*
X126477932Y-128216842D01*
X126365990Y-127946589D01*
X126203475Y-127703368D01*
X125996632Y-127496525D01*
X125753411Y-127334010D01*
X125483158Y-127222068D01*
X125196260Y-127165000D01*
X124903740Y-127165000D01*
X124616842Y-127222068D01*
X124346589Y-127334010D01*
X124103368Y-127496525D01*
X123896525Y-127703368D01*
X123780000Y-127877760D01*
X123663475Y-127703368D01*
X123456632Y-127496525D01*
X123213411Y-127334010D01*
X122943158Y-127222068D01*
X122656260Y-127165000D01*
X122363740Y-127165000D01*
X122076842Y-127222068D01*
X121806589Y-127334010D01*
X121563368Y-127496525D01*
X121356525Y-127703368D01*
X121194010Y-127946589D01*
X121082068Y-128216842D01*
X121025000Y-128503740D01*
X116977323Y-128503740D01*
X117089274Y-128428937D01*
X117233437Y-128284774D01*
X117346705Y-128115256D01*
X117424726Y-127926898D01*
X117464500Y-127726939D01*
X117464500Y-127523061D01*
X117424726Y-127323102D01*
X117346705Y-127134744D01*
X117233437Y-126965226D01*
X117089274Y-126821063D01*
X116919756Y-126707795D01*
X116731398Y-126629774D01*
X116531439Y-126590000D01*
X116327561Y-126590000D01*
X116127602Y-126629774D01*
X115939244Y-126707795D01*
X115769726Y-126821063D01*
X115625563Y-126965226D01*
X115512295Y-127134744D01*
X115434274Y-127323102D01*
X115394500Y-127523061D01*
X113210000Y-127523061D01*
X113170226Y-127323102D01*
X113092205Y-127134744D01*
X112978937Y-126965226D01*
X112834774Y-126821063D01*
X112665256Y-126707795D01*
X112476898Y-126629774D01*
X112276939Y-126590000D01*
X112073061Y-126590000D01*
X111873102Y-126629774D01*
X111684744Y-126707795D01*
X111515226Y-126821063D01*
X111371063Y-126965226D01*
X111257795Y-127134744D01*
X111179774Y-127323102D01*
X111140000Y-127523061D01*
X109654000Y-127523061D01*
X109614226Y-127323102D01*
X109536205Y-127134744D01*
X109422937Y-126965226D01*
X109278774Y-126821063D01*
X109109256Y-126707795D01*
X108920898Y-126629774D01*
X108720939Y-126590000D01*
X108517061Y-126590000D01*
X108317102Y-126629774D01*
X108128744Y-126707795D01*
X107959226Y-126821063D01*
X107815063Y-126965226D01*
X107701795Y-127134744D01*
X107623774Y-127323102D01*
X107584000Y-127523061D01*
X85485586Y-127523061D01*
X85590256Y-127479705D01*
X85759774Y-127366437D01*
X85903937Y-127222274D01*
X86017205Y-127052756D01*
X86095226Y-126864398D01*
X86135000Y-126664439D01*
X86135000Y-126460561D01*
X86095226Y-126260602D01*
X86017205Y-126072244D01*
X85903937Y-125902726D01*
X85759774Y-125758563D01*
X85590256Y-125645295D01*
X85401898Y-125567274D01*
X85201939Y-125527500D01*
X84998061Y-125527500D01*
X84798102Y-125567274D01*
X84609744Y-125645295D01*
X84440226Y-125758563D01*
X84296063Y-125902726D01*
X84182795Y-126072244D01*
X84104774Y-126260602D01*
X84097783Y-126295747D01*
X84089398Y-126292274D01*
X83889439Y-126252500D01*
X83685561Y-126252500D01*
X83485602Y-126292274D01*
X83297244Y-126370295D01*
X83127726Y-126483563D01*
X82983563Y-126627726D01*
X82870295Y-126797244D01*
X82792274Y-126985602D01*
X82752500Y-127185561D01*
X77807170Y-127185561D01*
X77917932Y-126918158D01*
X77975000Y-126631260D01*
X77975000Y-126338740D01*
X77917932Y-126051842D01*
X77805990Y-125781589D01*
X77643475Y-125538368D01*
X77436632Y-125331525D01*
X77262240Y-125215000D01*
X77436632Y-125098475D01*
X77643475Y-124891632D01*
X77805990Y-124648411D01*
X77917932Y-124378158D01*
X77975000Y-124091260D01*
X77975000Y-123798740D01*
X77917932Y-123511842D01*
X77805990Y-123241589D01*
X77643475Y-122998368D01*
X77511620Y-122866513D01*
X77584180Y-122844502D01*
X77694494Y-122785537D01*
X77791185Y-122706185D01*
X77870537Y-122609494D01*
X77929502Y-122499180D01*
X77965812Y-122379482D01*
X77978072Y-122255000D01*
X77978072Y-120953740D01*
X81005000Y-120953740D01*
X81005000Y-121246260D01*
X81062068Y-121533158D01*
X81174010Y-121803411D01*
X81336525Y-122046632D01*
X81543368Y-122253475D01*
X81717760Y-122370000D01*
X81543368Y-122486525D01*
X81336525Y-122693368D01*
X81174010Y-122936589D01*
X81062068Y-123206842D01*
X81005000Y-123493740D01*
X81005000Y-123786260D01*
X81062068Y-124073158D01*
X81174010Y-124343411D01*
X81336525Y-124586632D01*
X81543368Y-124793475D01*
X81786589Y-124955990D01*
X82056842Y-125067932D01*
X82343740Y-125125000D01*
X82636260Y-125125000D01*
X82923158Y-125067932D01*
X83193411Y-124955990D01*
X83436632Y-124793475D01*
X83643475Y-124586632D01*
X83760000Y-124412240D01*
X83876525Y-124586632D01*
X84083368Y-124793475D01*
X84326589Y-124955990D01*
X84596842Y-125067932D01*
X84883740Y-125125000D01*
X85176260Y-125125000D01*
X85463158Y-125067932D01*
X85733411Y-124955990D01*
X85976632Y-124793475D01*
X86183475Y-124586632D01*
X86300000Y-124412240D01*
X86416525Y-124586632D01*
X86623368Y-124793475D01*
X86866589Y-124955990D01*
X87136842Y-125067932D01*
X87423740Y-125125000D01*
X87716260Y-125125000D01*
X88003158Y-125067932D01*
X88273411Y-124955990D01*
X88516632Y-124793475D01*
X88723475Y-124586632D01*
X88840000Y-124412240D01*
X88956525Y-124586632D01*
X89163368Y-124793475D01*
X89261994Y-124859375D01*
X89084744Y-124932795D01*
X88915226Y-125046063D01*
X88771063Y-125190226D01*
X88657795Y-125359744D01*
X88579774Y-125548102D01*
X88540000Y-125748061D01*
X88540000Y-125951939D01*
X88579774Y-126151898D01*
X88657795Y-126340256D01*
X88771063Y-126509774D01*
X88915226Y-126653937D01*
X89084744Y-126767205D01*
X89273102Y-126845226D01*
X89473061Y-126885000D01*
X89676939Y-126885000D01*
X89876898Y-126845226D01*
X90065256Y-126767205D01*
X90234774Y-126653937D01*
X90378937Y-126509774D01*
X90492205Y-126340256D01*
X90570226Y-126151898D01*
X90610000Y-125951939D01*
X90610000Y-125748061D01*
X90570226Y-125548102D01*
X90492205Y-125359744D01*
X90378937Y-125190226D01*
X90304179Y-125115468D01*
X90543158Y-125067932D01*
X90813411Y-124955990D01*
X91056632Y-124793475D01*
X91263475Y-124586632D01*
X91380000Y-124412240D01*
X91496525Y-124586632D01*
X91703368Y-124793475D01*
X91946589Y-124955990D01*
X92216842Y-125067932D01*
X92503740Y-125125000D01*
X92796260Y-125125000D01*
X93083158Y-125067932D01*
X93353411Y-124955990D01*
X93596632Y-124793475D01*
X93803475Y-124586632D01*
X93920000Y-124412240D01*
X94036525Y-124586632D01*
X94243368Y-124793475D01*
X94486589Y-124955990D01*
X94756842Y-125067932D01*
X95043740Y-125125000D01*
X95336260Y-125125000D01*
X95623158Y-125067932D01*
X95893411Y-124955990D01*
X96136632Y-124793475D01*
X96343475Y-124586632D01*
X96460000Y-124412240D01*
X96576525Y-124586632D01*
X96783368Y-124793475D01*
X97026589Y-124955990D01*
X97296842Y-125067932D01*
X97583740Y-125125000D01*
X97876260Y-125125000D01*
X98163158Y-125067932D01*
X98433411Y-124955990D01*
X98676632Y-124793475D01*
X98883475Y-124586632D01*
X99000000Y-124412240D01*
X99116525Y-124586632D01*
X99323368Y-124793475D01*
X99566589Y-124955990D01*
X99836842Y-125067932D01*
X100123740Y-125125000D01*
X100416260Y-125125000D01*
X100703158Y-125067932D01*
X100973411Y-124955990D01*
X101216632Y-124793475D01*
X101423475Y-124586632D01*
X101540000Y-124412240D01*
X101656525Y-124586632D01*
X101863368Y-124793475D01*
X102106589Y-124955990D01*
X102376842Y-125067932D01*
X102663740Y-125125000D01*
X102956260Y-125125000D01*
X103243158Y-125067932D01*
X103513411Y-124955990D01*
X103756632Y-124793475D01*
X103963475Y-124586632D01*
X104085195Y-124404466D01*
X104154822Y-124521355D01*
X104349731Y-124737588D01*
X104583080Y-124911641D01*
X104845901Y-125036825D01*
X104993110Y-125081476D01*
X105223000Y-124960155D01*
X105223000Y-123767000D01*
X105477000Y-123767000D01*
X105477000Y-124960155D01*
X105706890Y-125081476D01*
X105854099Y-125036825D01*
X106100292Y-124919561D01*
X107647500Y-124919561D01*
X107647500Y-125123439D01*
X107687274Y-125323398D01*
X107765295Y-125511756D01*
X107878563Y-125681274D01*
X108022726Y-125825437D01*
X108192244Y-125938705D01*
X108380602Y-126016726D01*
X108580561Y-126056500D01*
X108784439Y-126056500D01*
X108984398Y-126016726D01*
X109172756Y-125938705D01*
X109342274Y-125825437D01*
X109486437Y-125681274D01*
X109599705Y-125511756D01*
X109677726Y-125323398D01*
X109717500Y-125123439D01*
X109717500Y-124919561D01*
X110251000Y-124919561D01*
X110251000Y-125123439D01*
X110290774Y-125323398D01*
X110368795Y-125511756D01*
X110482063Y-125681274D01*
X110626226Y-125825437D01*
X110795744Y-125938705D01*
X110984102Y-126016726D01*
X111184061Y-126056500D01*
X111387939Y-126056500D01*
X111587898Y-126016726D01*
X111776256Y-125938705D01*
X111945774Y-125825437D01*
X112089937Y-125681274D01*
X112203205Y-125511756D01*
X112281226Y-125323398D01*
X112321000Y-125123439D01*
X112321000Y-124919561D01*
X112854500Y-124919561D01*
X112854500Y-125123439D01*
X112894274Y-125323398D01*
X112972295Y-125511756D01*
X113085563Y-125681274D01*
X113229726Y-125825437D01*
X113399244Y-125938705D01*
X113587602Y-126016726D01*
X113787561Y-126056500D01*
X113991439Y-126056500D01*
X114191398Y-126016726D01*
X114379756Y-125938705D01*
X114549274Y-125825437D01*
X114693437Y-125681274D01*
X114806705Y-125511756D01*
X114884726Y-125323398D01*
X114924500Y-125123439D01*
X114924500Y-124919561D01*
X115458000Y-124919561D01*
X115458000Y-125123439D01*
X115497774Y-125323398D01*
X115575795Y-125511756D01*
X115689063Y-125681274D01*
X115833226Y-125825437D01*
X116002744Y-125938705D01*
X116191102Y-126016726D01*
X116391061Y-126056500D01*
X116594939Y-126056500D01*
X116794898Y-126016726D01*
X116983256Y-125938705D01*
X117152774Y-125825437D01*
X117296937Y-125681274D01*
X117410205Y-125511756D01*
X117488226Y-125323398D01*
X117528000Y-125123439D01*
X117528000Y-124919561D01*
X117488226Y-124719602D01*
X117410205Y-124531244D01*
X117296937Y-124361726D01*
X117152774Y-124217563D01*
X116983256Y-124104295D01*
X116794898Y-124026274D01*
X116594939Y-123986500D01*
X116391061Y-123986500D01*
X116191102Y-124026274D01*
X116002744Y-124104295D01*
X115833226Y-124217563D01*
X115689063Y-124361726D01*
X115575795Y-124531244D01*
X115497774Y-124719602D01*
X115458000Y-124919561D01*
X114924500Y-124919561D01*
X114884726Y-124719602D01*
X114806705Y-124531244D01*
X114693437Y-124361726D01*
X114549274Y-124217563D01*
X114379756Y-124104295D01*
X114191398Y-124026274D01*
X113991439Y-123986500D01*
X113787561Y-123986500D01*
X113587602Y-124026274D01*
X113399244Y-124104295D01*
X113229726Y-124217563D01*
X113085563Y-124361726D01*
X112972295Y-124531244D01*
X112894274Y-124719602D01*
X112854500Y-124919561D01*
X112321000Y-124919561D01*
X112281226Y-124719602D01*
X112203205Y-124531244D01*
X112089937Y-124361726D01*
X111945774Y-124217563D01*
X111776256Y-124104295D01*
X111587898Y-124026274D01*
X111387939Y-123986500D01*
X111184061Y-123986500D01*
X110984102Y-124026274D01*
X110795744Y-124104295D01*
X110626226Y-124217563D01*
X110482063Y-124361726D01*
X110368795Y-124531244D01*
X110290774Y-124719602D01*
X110251000Y-124919561D01*
X109717500Y-124919561D01*
X109677726Y-124719602D01*
X109599705Y-124531244D01*
X109486437Y-124361726D01*
X109342274Y-124217563D01*
X109172756Y-124104295D01*
X108984398Y-124026274D01*
X108784439Y-123986500D01*
X108580561Y-123986500D01*
X108380602Y-124026274D01*
X108192244Y-124104295D01*
X108022726Y-124217563D01*
X107878563Y-124361726D01*
X107765295Y-124531244D01*
X107687274Y-124719602D01*
X107647500Y-124919561D01*
X106100292Y-124919561D01*
X106116920Y-124911641D01*
X106350269Y-124737588D01*
X106545178Y-124521355D01*
X106694157Y-124271252D01*
X106791481Y-123996891D01*
X106670814Y-123767000D01*
X105477000Y-123767000D01*
X105223000Y-123767000D01*
X105203000Y-123767000D01*
X105203000Y-123513000D01*
X105223000Y-123513000D01*
X105223000Y-121227000D01*
X105477000Y-121227000D01*
X105477000Y-123513000D01*
X106670814Y-123513000D01*
X106791481Y-123283109D01*
X106694157Y-123008748D01*
X106545178Y-122758645D01*
X106368374Y-122562498D01*
X106444180Y-122539502D01*
X106554494Y-122480537D01*
X106651185Y-122401185D01*
X106730537Y-122304494D01*
X106789502Y-122194180D01*
X106825812Y-122074482D01*
X106838072Y-121950000D01*
X106835900Y-121550949D01*
X121856600Y-121550949D01*
X121856600Y-122040451D01*
X121952097Y-122520548D01*
X122139421Y-122972789D01*
X122411374Y-123379795D01*
X122757505Y-123725926D01*
X123164511Y-123997879D01*
X123616752Y-124185203D01*
X124096849Y-124280700D01*
X124586351Y-124280700D01*
X125066448Y-124185203D01*
X125518689Y-123997879D01*
X125925695Y-123725926D01*
X126271826Y-123379795D01*
X126543779Y-122972789D01*
X126731103Y-122520548D01*
X126826600Y-122040451D01*
X126826600Y-121550949D01*
X126731103Y-121070852D01*
X126543779Y-120618611D01*
X126271826Y-120211605D01*
X125925695Y-119865474D01*
X125518689Y-119593521D01*
X125066448Y-119406197D01*
X124586351Y-119310700D01*
X124096849Y-119310700D01*
X123616752Y-119406197D01*
X123164511Y-119593521D01*
X122757505Y-119865474D01*
X122411374Y-120211605D01*
X122139421Y-120618611D01*
X121952097Y-121070852D01*
X121856600Y-121550949D01*
X106835900Y-121550949D01*
X106835000Y-121385750D01*
X106676250Y-121227000D01*
X105477000Y-121227000D01*
X105223000Y-121227000D01*
X105203000Y-121227000D01*
X105203000Y-120973000D01*
X105223000Y-120973000D01*
X105223000Y-119773750D01*
X105477000Y-119773750D01*
X105477000Y-120973000D01*
X106676250Y-120973000D01*
X106835000Y-120814250D01*
X106838072Y-120250000D01*
X106825812Y-120125518D01*
X106789502Y-120005820D01*
X106730537Y-119895506D01*
X106651185Y-119798815D01*
X106554494Y-119719463D01*
X106444180Y-119660498D01*
X106324482Y-119624188D01*
X106200000Y-119611928D01*
X105635750Y-119615000D01*
X105477000Y-119773750D01*
X105223000Y-119773750D01*
X105064250Y-119615000D01*
X104500000Y-119611928D01*
X104375518Y-119624188D01*
X104255820Y-119660498D01*
X104145506Y-119719463D01*
X104048815Y-119798815D01*
X103969463Y-119895506D01*
X103910498Y-120005820D01*
X103888487Y-120078380D01*
X103756632Y-119946525D01*
X103513411Y-119784010D01*
X103243158Y-119672068D01*
X102956260Y-119615000D01*
X102663740Y-119615000D01*
X102376842Y-119672068D01*
X102106589Y-119784010D01*
X101863368Y-119946525D01*
X101656525Y-120153368D01*
X101540000Y-120327760D01*
X101423475Y-120153368D01*
X101216632Y-119946525D01*
X100973411Y-119784010D01*
X100703158Y-119672068D01*
X100416260Y-119615000D01*
X100123740Y-119615000D01*
X99836842Y-119672068D01*
X99566589Y-119784010D01*
X99323368Y-119946525D01*
X99116525Y-120153368D01*
X99000000Y-120327760D01*
X98883475Y-120153368D01*
X98676632Y-119946525D01*
X98433411Y-119784010D01*
X98163158Y-119672068D01*
X97876260Y-119615000D01*
X97583740Y-119615000D01*
X97296842Y-119672068D01*
X97026589Y-119784010D01*
X96783368Y-119946525D01*
X96576525Y-120153368D01*
X96460000Y-120327760D01*
X96343475Y-120153368D01*
X96136632Y-119946525D01*
X95893411Y-119784010D01*
X95623158Y-119672068D01*
X95336260Y-119615000D01*
X95043740Y-119615000D01*
X94756842Y-119672068D01*
X94486589Y-119784010D01*
X94243368Y-119946525D01*
X94036525Y-120153368D01*
X93920000Y-120327760D01*
X93803475Y-120153368D01*
X93596632Y-119946525D01*
X93353411Y-119784010D01*
X93083158Y-119672068D01*
X92796260Y-119615000D01*
X92503740Y-119615000D01*
X92216842Y-119672068D01*
X91946589Y-119784010D01*
X91703368Y-119946525D01*
X91496525Y-120153368D01*
X91380000Y-120327760D01*
X91263475Y-120153368D01*
X91056632Y-119946525D01*
X90813411Y-119784010D01*
X90543158Y-119672068D01*
X90256260Y-119615000D01*
X89963740Y-119615000D01*
X89676842Y-119672068D01*
X89406589Y-119784010D01*
X89163368Y-119946525D01*
X88956525Y-120153368D01*
X88840000Y-120327760D01*
X88723475Y-120153368D01*
X88516632Y-119946525D01*
X88273411Y-119784010D01*
X88003158Y-119672068D01*
X87716260Y-119615000D01*
X87423740Y-119615000D01*
X87136842Y-119672068D01*
X86866589Y-119784010D01*
X86623368Y-119946525D01*
X86416525Y-120153368D01*
X86300000Y-120327760D01*
X86183475Y-120153368D01*
X85976632Y-119946525D01*
X85733411Y-119784010D01*
X85463158Y-119672068D01*
X85176260Y-119615000D01*
X84883740Y-119615000D01*
X84596842Y-119672068D01*
X84326589Y-119784010D01*
X84083368Y-119946525D01*
X83876525Y-120153368D01*
X83760000Y-120327760D01*
X83643475Y-120153368D01*
X83436632Y-119946525D01*
X83193411Y-119784010D01*
X82923158Y-119672068D01*
X82636260Y-119615000D01*
X82343740Y-119615000D01*
X82056842Y-119672068D01*
X81786589Y-119784010D01*
X81543368Y-119946525D01*
X81336525Y-120153368D01*
X81174010Y-120396589D01*
X81062068Y-120666842D01*
X81005000Y-120953740D01*
X77978072Y-120953740D01*
X77978072Y-120555000D01*
X77965812Y-120430518D01*
X77929502Y-120310820D01*
X77870537Y-120200506D01*
X77791185Y-120103815D01*
X77694494Y-120024463D01*
X77584180Y-119965498D01*
X77464482Y-119929188D01*
X77340000Y-119916928D01*
X75640000Y-119916928D01*
X75515518Y-119929188D01*
X75395820Y-119965498D01*
X75285506Y-120024463D01*
X75188815Y-120103815D01*
X75109463Y-120200506D01*
X75050498Y-120310820D01*
X75028487Y-120383380D01*
X74896632Y-120251525D01*
X74653411Y-120089010D01*
X74383158Y-119977068D01*
X74096260Y-119920000D01*
X73803740Y-119920000D01*
X73516842Y-119977068D01*
X73246589Y-120089010D01*
X73003368Y-120251525D01*
X72796525Y-120458368D01*
X72634010Y-120701589D01*
X72522068Y-120971842D01*
X72465000Y-121258740D01*
X71177000Y-121258740D01*
X71177000Y-119227000D01*
X127365001Y-119227000D01*
X127365000Y-158665000D01*
G37*
G04 #@! TD.AperFunction*
M02*
