G04 #@! TF.GenerationSoftware,KiCad,Pcbnew,5.1.10*
G04 #@! TF.CreationDate,2021-11-30T15:42:49+01:00*
G04 #@! TF.ProjectId,JTAGMux_1.0,4a544147-4d75-4785-9f31-2e302e6b6963,v1.0.1*
G04 #@! TF.SameCoordinates,Original*
G04 #@! TF.FileFunction,Copper,L1,Top*
G04 #@! TF.FilePolarity,Positive*
%FSLAX46Y46*%
G04 Gerber Fmt 4.6, Leading zero omitted, Abs format (unit mm)*
G04 Created by KiCad (PCBNEW 5.1.10) date 2021-11-30 15:42:49*
%MOMM*%
%LPD*%
G01*
G04 APERTURE LIST*
G04 #@! TA.AperFunction,ComponentPad*
%ADD10O,1.700000X1.700000*%
G04 #@! TD*
G04 #@! TA.AperFunction,ComponentPad*
%ADD11R,1.700000X1.700000*%
G04 #@! TD*
G04 #@! TA.AperFunction,SMDPad,CuDef*
%ADD12R,1.200000X0.400000*%
G04 #@! TD*
G04 #@! TA.AperFunction,ViaPad*
%ADD13C,0.800000*%
G04 #@! TD*
G04 #@! TA.AperFunction,Conductor*
%ADD14C,0.250000*%
G04 #@! TD*
G04 #@! TA.AperFunction,Conductor*
%ADD15C,0.254000*%
G04 #@! TD*
G04 #@! TA.AperFunction,Conductor*
%ADD16C,0.100000*%
G04 #@! TD*
G04 APERTURE END LIST*
D10*
X73950000Y-156950000D03*
X76490000Y-156950000D03*
X73950000Y-154410000D03*
X76490000Y-154410000D03*
X73950000Y-151870000D03*
X76490000Y-151870000D03*
X73950000Y-149330000D03*
X76490000Y-149330000D03*
X73950000Y-146790000D03*
X76490000Y-146790000D03*
X73950000Y-144250000D03*
D11*
X76490000Y-144250000D03*
D10*
X73950000Y-134105000D03*
X76490000Y-134105000D03*
X73950000Y-131565000D03*
X76490000Y-131565000D03*
X73950000Y-129025000D03*
X76490000Y-129025000D03*
X73950000Y-126485000D03*
X76490000Y-126485000D03*
X73950000Y-123945000D03*
X76490000Y-123945000D03*
X73950000Y-121405000D03*
D11*
X76490000Y-121405000D03*
D10*
X86510000Y-131240000D03*
X89050000Y-131240000D03*
X86510000Y-133780000D03*
X89050000Y-133780000D03*
X86510000Y-136320000D03*
X89050000Y-136320000D03*
X86510000Y-138860000D03*
X89050000Y-138860000D03*
X86510000Y-141400000D03*
X89050000Y-141400000D03*
X86510000Y-143940000D03*
X89050000Y-143940000D03*
X86510000Y-146480000D03*
X89050000Y-146480000D03*
X86510000Y-149020000D03*
X89050000Y-149020000D03*
X86510000Y-151560000D03*
X89050000Y-151560000D03*
X86510000Y-154100000D03*
D11*
X89050000Y-154100000D03*
G04 #@! TA.AperFunction,SMDPad,CuDef*
G36*
G01*
X99750000Y-157316250D02*
X99750000Y-156803750D01*
G75*
G02*
X99968750Y-156585000I218750J0D01*
G01*
X100406250Y-156585000D01*
G75*
G02*
X100625000Y-156803750I0J-218750D01*
G01*
X100625000Y-157316250D01*
G75*
G02*
X100406250Y-157535000I-218750J0D01*
G01*
X99968750Y-157535000D01*
G75*
G02*
X99750000Y-157316250I0J218750D01*
G01*
G37*
G04 #@! TD.AperFunction*
G04 #@! TA.AperFunction,SMDPad,CuDef*
G36*
G01*
X98175000Y-157316250D02*
X98175000Y-156803750D01*
G75*
G02*
X98393750Y-156585000I218750J0D01*
G01*
X98831250Y-156585000D01*
G75*
G02*
X99050000Y-156803750I0J-218750D01*
G01*
X99050000Y-157316250D01*
G75*
G02*
X98831250Y-157535000I-218750J0D01*
G01*
X98393750Y-157535000D01*
G75*
G02*
X98175000Y-157316250I0J218750D01*
G01*
G37*
G04 #@! TD.AperFunction*
D12*
X106350000Y-149672500D03*
X106350000Y-149037500D03*
X106350000Y-148402500D03*
X106350000Y-147767500D03*
X106350000Y-147132500D03*
X106350000Y-146497500D03*
X106350000Y-145862500D03*
X106350000Y-145227500D03*
X106350000Y-144592500D03*
X106350000Y-143957500D03*
X106350000Y-143322500D03*
X106350000Y-142687500D03*
X106350000Y-142052500D03*
X106350000Y-141417500D03*
X106350000Y-140782500D03*
X106350000Y-140147500D03*
X106350000Y-139512500D03*
X106350000Y-138877500D03*
X106350000Y-138242500D03*
X106350000Y-137607500D03*
X106350000Y-136972500D03*
X106350000Y-136337500D03*
X106350000Y-135702500D03*
X106350000Y-135067500D03*
X106350000Y-134432500D03*
X106350000Y-133797500D03*
X106350000Y-133162500D03*
X106350000Y-132527500D03*
X115750000Y-132527500D03*
X115750000Y-133162500D03*
X115750000Y-133797500D03*
X115750000Y-134432500D03*
X115750000Y-135067500D03*
X115750000Y-135702500D03*
X115750000Y-136337500D03*
X115750000Y-136972500D03*
X115750000Y-137607500D03*
X115750000Y-138242500D03*
X115750000Y-138877500D03*
X115750000Y-139512500D03*
X115750000Y-140147500D03*
X115750000Y-140782500D03*
X115750000Y-141417500D03*
X115750000Y-142052500D03*
X115750000Y-142687500D03*
X115750000Y-143322500D03*
X115750000Y-143957500D03*
X115750000Y-144592500D03*
X115750000Y-145227500D03*
X115750000Y-145862500D03*
X115750000Y-146497500D03*
X115750000Y-147132500D03*
X115750000Y-147767500D03*
X115750000Y-148402500D03*
X115750000Y-149037500D03*
X115750000Y-149672500D03*
G04 #@! TA.AperFunction,SMDPad,CuDef*
G36*
G01*
X94250000Y-156793750D02*
X94250000Y-157306250D01*
G75*
G02*
X94031250Y-157525000I-218750J0D01*
G01*
X93593750Y-157525000D01*
G75*
G02*
X93375000Y-157306250I0J218750D01*
G01*
X93375000Y-156793750D01*
G75*
G02*
X93593750Y-156575000I218750J0D01*
G01*
X94031250Y-156575000D01*
G75*
G02*
X94250000Y-156793750I0J-218750D01*
G01*
G37*
G04 #@! TD.AperFunction*
G04 #@! TA.AperFunction,SMDPad,CuDef*
G36*
G01*
X95825000Y-156793750D02*
X95825000Y-157306250D01*
G75*
G02*
X95606250Y-157525000I-218750J0D01*
G01*
X95168750Y-157525000D01*
G75*
G02*
X94950000Y-157306250I0J218750D01*
G01*
X94950000Y-156793750D01*
G75*
G02*
X95168750Y-156575000I218750J0D01*
G01*
X95606250Y-156575000D01*
G75*
G02*
X95825000Y-156793750I0J-218750D01*
G01*
G37*
G04 #@! TD.AperFunction*
G04 #@! TA.AperFunction,SMDPad,CuDef*
G36*
G01*
X83912500Y-156843750D02*
X83912500Y-157356250D01*
G75*
G02*
X83693750Y-157575000I-218750J0D01*
G01*
X83256250Y-157575000D01*
G75*
G02*
X83037500Y-157356250I0J218750D01*
G01*
X83037500Y-156843750D01*
G75*
G02*
X83256250Y-156625000I218750J0D01*
G01*
X83693750Y-156625000D01*
G75*
G02*
X83912500Y-156843750I0J-218750D01*
G01*
G37*
G04 #@! TD.AperFunction*
G04 #@! TA.AperFunction,SMDPad,CuDef*
G36*
G01*
X85487500Y-156843750D02*
X85487500Y-157356250D01*
G75*
G02*
X85268750Y-157575000I-218750J0D01*
G01*
X84831250Y-157575000D01*
G75*
G02*
X84612500Y-157356250I0J218750D01*
G01*
X84612500Y-156843750D01*
G75*
G02*
X84831250Y-156625000I218750J0D01*
G01*
X85268750Y-156625000D01*
G75*
G02*
X85487500Y-156843750I0J-218750D01*
G01*
G37*
G04 #@! TD.AperFunction*
D10*
X122510000Y-128650000D03*
X125050000Y-128650000D03*
X122510000Y-131190000D03*
X125050000Y-131190000D03*
X122510000Y-133730000D03*
X125050000Y-133730000D03*
X122510000Y-136270000D03*
X125050000Y-136270000D03*
X122510000Y-138810000D03*
X125050000Y-138810000D03*
X122510000Y-141350000D03*
X125050000Y-141350000D03*
X122510000Y-143890000D03*
X125050000Y-143890000D03*
X122510000Y-146430000D03*
X125050000Y-146430000D03*
X122510000Y-148970000D03*
X125050000Y-148970000D03*
X122510000Y-151510000D03*
D11*
X125050000Y-151510000D03*
D10*
X96960000Y-131240000D03*
X99500000Y-131240000D03*
X96960000Y-133780000D03*
X99500000Y-133780000D03*
X96960000Y-136320000D03*
X99500000Y-136320000D03*
X96960000Y-138860000D03*
X99500000Y-138860000D03*
X96960000Y-141400000D03*
X99500000Y-141400000D03*
X96960000Y-143940000D03*
X99500000Y-143940000D03*
X96960000Y-146480000D03*
X99500000Y-146480000D03*
X96960000Y-149020000D03*
X99500000Y-149020000D03*
X96960000Y-151560000D03*
X99500000Y-151560000D03*
X96960000Y-154100000D03*
D11*
X99500000Y-154100000D03*
D10*
X82490000Y-123640000D03*
X82490000Y-121100000D03*
X85030000Y-123640000D03*
X85030000Y-121100000D03*
X87570000Y-123640000D03*
X87570000Y-121100000D03*
X90110000Y-123640000D03*
X90110000Y-121100000D03*
X92650000Y-123640000D03*
X92650000Y-121100000D03*
X95190000Y-123640000D03*
X95190000Y-121100000D03*
X97730000Y-123640000D03*
X97730000Y-121100000D03*
X100270000Y-123640000D03*
X100270000Y-121100000D03*
X102810000Y-123640000D03*
X102810000Y-121100000D03*
X105350000Y-123640000D03*
D11*
X105350000Y-121100000D03*
G04 #@! TA.AperFunction,SMDPad,CuDef*
G36*
G01*
X89612500Y-157316250D02*
X89612500Y-156803750D01*
G75*
G02*
X89831250Y-156585000I218750J0D01*
G01*
X90268750Y-156585000D01*
G75*
G02*
X90487500Y-156803750I0J-218750D01*
G01*
X90487500Y-157316250D01*
G75*
G02*
X90268750Y-157535000I-218750J0D01*
G01*
X89831250Y-157535000D01*
G75*
G02*
X89612500Y-157316250I0J218750D01*
G01*
G37*
G04 #@! TD.AperFunction*
G04 #@! TA.AperFunction,SMDPad,CuDef*
G36*
G01*
X88037500Y-157316250D02*
X88037500Y-156803750D01*
G75*
G02*
X88256250Y-156585000I218750J0D01*
G01*
X88693750Y-156585000D01*
G75*
G02*
X88912500Y-156803750I0J-218750D01*
G01*
X88912500Y-157316250D01*
G75*
G02*
X88693750Y-157535000I-218750J0D01*
G01*
X88256250Y-157535000D01*
G75*
G02*
X88037500Y-157316250I0J218750D01*
G01*
G37*
G04 #@! TD.AperFunction*
G04 #@! TA.AperFunction,SMDPad,CuDef*
G36*
G01*
X114336250Y-127910000D02*
X113823750Y-127910000D01*
G75*
G02*
X113605000Y-127691250I0J218750D01*
G01*
X113605000Y-127253750D01*
G75*
G02*
X113823750Y-127035000I218750J0D01*
G01*
X114336250Y-127035000D01*
G75*
G02*
X114555000Y-127253750I0J-218750D01*
G01*
X114555000Y-127691250D01*
G75*
G02*
X114336250Y-127910000I-218750J0D01*
G01*
G37*
G04 #@! TD.AperFunction*
G04 #@! TA.AperFunction,SMDPad,CuDef*
G36*
G01*
X114336250Y-129485000D02*
X113823750Y-129485000D01*
G75*
G02*
X113605000Y-129266250I0J218750D01*
G01*
X113605000Y-128828750D01*
G75*
G02*
X113823750Y-128610000I218750J0D01*
G01*
X114336250Y-128610000D01*
G75*
G02*
X114555000Y-128828750I0J-218750D01*
G01*
X114555000Y-129266250D01*
G75*
G02*
X114336250Y-129485000I-218750J0D01*
G01*
G37*
G04 #@! TD.AperFunction*
G04 #@! TA.AperFunction,SMDPad,CuDef*
G36*
G01*
X110526250Y-127910000D02*
X110013750Y-127910000D01*
G75*
G02*
X109795000Y-127691250I0J218750D01*
G01*
X109795000Y-127253750D01*
G75*
G02*
X110013750Y-127035000I218750J0D01*
G01*
X110526250Y-127035000D01*
G75*
G02*
X110745000Y-127253750I0J-218750D01*
G01*
X110745000Y-127691250D01*
G75*
G02*
X110526250Y-127910000I-218750J0D01*
G01*
G37*
G04 #@! TD.AperFunction*
G04 #@! TA.AperFunction,SMDPad,CuDef*
G36*
G01*
X110526250Y-129485000D02*
X110013750Y-129485000D01*
G75*
G02*
X109795000Y-129266250I0J218750D01*
G01*
X109795000Y-128828750D01*
G75*
G02*
X110013750Y-128610000I218750J0D01*
G01*
X110526250Y-128610000D01*
G75*
G02*
X110745000Y-128828750I0J-218750D01*
G01*
X110745000Y-129266250D01*
G75*
G02*
X110526250Y-129485000I-218750J0D01*
G01*
G37*
G04 #@! TD.AperFunction*
D13*
X117890000Y-138420000D03*
X108161500Y-145227500D03*
X118575500Y-145317500D03*
X116429500Y-127625000D03*
X116493000Y-125021500D03*
X113889500Y-125021500D03*
X111286000Y-125021500D03*
X112175000Y-127625000D03*
X108682500Y-125021500D03*
X108619000Y-127625000D03*
X92172500Y-156925000D03*
X82139500Y-157089000D03*
X108161800Y-138242200D03*
X103125002Y-132324000D03*
X104690069Y-149199206D03*
X92172500Y-130990500D03*
X91150010Y-131054000D03*
X89575000Y-125850000D03*
X85100000Y-126562500D03*
X83787500Y-127287500D03*
X94415001Y-132415001D03*
X101226465Y-148154268D03*
X95017300Y-148416000D03*
X101253000Y-149888100D03*
X117725000Y-150625000D03*
D14*
X115750000Y-138242500D02*
X117712500Y-138242500D01*
X117712500Y-138242500D02*
X117890000Y-138420000D01*
X106350000Y-145227500D02*
X108161500Y-145227500D01*
X118575500Y-145227500D02*
X118575500Y-145317500D01*
X115750000Y-145227500D02*
X118575500Y-145227500D01*
X93812500Y-157050000D02*
X92297500Y-157050000D01*
X92297500Y-157050000D02*
X92172500Y-156925000D01*
X83475000Y-157100000D02*
X82150500Y-157100000D01*
X82150500Y-157100000D02*
X82139500Y-157089000D01*
X107200000Y-138242500D02*
X107200300Y-138242200D01*
X106350000Y-138242500D02*
X107200000Y-138242500D01*
X107200300Y-138242200D02*
X108161800Y-138242200D01*
X120105419Y-145227500D02*
X121307919Y-146430000D01*
X121307919Y-146430000D02*
X122510000Y-146430000D01*
X118575500Y-145227500D02*
X120105419Y-145227500D01*
X114080000Y-129585000D02*
X114080000Y-129047500D01*
X114900000Y-133162500D02*
X114080000Y-132342500D01*
X115750000Y-133162500D02*
X114900000Y-133162500D01*
X114080000Y-129047500D02*
X110270000Y-129047500D01*
X105190000Y-123800000D02*
X105350000Y-123640000D01*
X105190000Y-123967500D02*
X105190000Y-123800000D01*
X105350000Y-121100000D02*
X105350000Y-123640000D01*
X110270000Y-129047500D02*
X106358500Y-129047500D01*
X105350000Y-128039000D02*
X105350000Y-123640000D01*
X106358500Y-129047500D02*
X105350000Y-128039000D01*
X114900000Y-139512500D02*
X114080000Y-138692500D01*
X115750000Y-139512500D02*
X114900000Y-139512500D01*
X114080000Y-132342500D02*
X114080000Y-131879500D01*
X114080000Y-138692500D02*
X114080000Y-131879500D01*
X114080000Y-131879500D02*
X114080000Y-129585000D01*
X76490000Y-156950000D02*
X73950000Y-156950000D01*
X73100001Y-151020001D02*
X73950000Y-151870000D01*
X71800000Y-141125000D02*
X71800000Y-149720000D01*
X71800000Y-149720000D02*
X73100001Y-151020001D01*
X77850000Y-135075000D02*
X71800000Y-141125000D01*
X77850000Y-129925000D02*
X77850000Y-135075000D01*
X82490000Y-125285000D02*
X77850000Y-129925000D01*
X82490000Y-123640000D02*
X82490000Y-125285000D01*
X105486775Y-148402500D02*
X105090068Y-148799207D01*
X105090068Y-148799207D02*
X104690069Y-149199206D01*
X106350000Y-148402500D02*
X105486775Y-148402500D01*
X96500000Y-120670998D02*
X96500000Y-124504000D01*
X96365001Y-125563999D02*
X103125002Y-132324000D01*
X96365001Y-124638999D02*
X96365001Y-125563999D01*
X94929002Y-119100000D02*
X96500000Y-120670998D01*
X84490000Y-119100000D02*
X94929002Y-119100000D01*
X82490000Y-121100000D02*
X84490000Y-119100000D01*
X96500000Y-124504000D02*
X96365001Y-124638999D01*
X90150000Y-154100000D02*
X89050000Y-154100000D01*
X106350000Y-148402500D02*
X107200000Y-148402500D01*
X107200000Y-148402500D02*
X107275001Y-148477501D01*
X107275001Y-150132501D02*
X101982502Y-155425000D01*
X91475000Y-155425000D02*
X90150000Y-154100000D01*
X107275001Y-148477501D02*
X107275001Y-150132501D01*
X101982502Y-155425000D02*
X91475000Y-155425000D01*
X73100001Y-148480001D02*
X73950000Y-149330000D01*
X72250011Y-147630011D02*
X73100001Y-148480001D01*
X78300011Y-135327169D02*
X72250011Y-141377169D01*
X72250011Y-141377169D02*
X72250011Y-147630011D01*
X85030000Y-123640000D02*
X84180001Y-124489999D01*
X84180001Y-124489999D02*
X84112179Y-124489999D01*
X78300011Y-130302167D02*
X78300011Y-135327169D01*
X84112179Y-124489999D02*
X78300011Y-130302167D01*
X92572499Y-130590501D02*
X92172500Y-130990500D01*
X93250000Y-119650000D02*
X93875000Y-120275000D01*
X85030000Y-121100000D02*
X86480000Y-119650000D01*
X93875000Y-120275000D02*
X93875000Y-129288000D01*
X86480000Y-119650000D02*
X93250000Y-119650000D01*
X93875000Y-129288000D02*
X92572499Y-130590501D01*
X99914002Y-142725000D02*
X90375000Y-142725000D01*
X89899999Y-142249999D02*
X89050000Y-141400000D01*
X90375000Y-142725000D02*
X89899999Y-142249999D01*
X106350000Y-140147500D02*
X102491502Y-140147500D01*
X102491502Y-140147500D02*
X99914002Y-142725000D01*
X73100001Y-145940001D02*
X73950000Y-146790000D01*
X84288600Y-124949989D02*
X78750022Y-130488567D01*
X78750022Y-135513568D02*
X72725000Y-141538590D01*
X72725000Y-141538590D02*
X72725000Y-145565000D01*
X72725000Y-145565000D02*
X73100001Y-145940001D01*
X86260011Y-124949989D02*
X84288600Y-124949989D01*
X87570000Y-123640000D02*
X86260011Y-124949989D01*
X78750022Y-130488567D02*
X78750022Y-135513568D01*
X90380000Y-137650000D02*
X89899999Y-137169999D01*
X106350000Y-136972500D02*
X100586502Y-136972500D01*
X89899999Y-137169999D02*
X89050000Y-136320000D01*
X99909002Y-137650000D02*
X90380000Y-137650000D01*
X100586502Y-136972500D02*
X99909002Y-137650000D01*
X91410500Y-130793510D02*
X91150010Y-131054000D01*
X91410500Y-122866899D02*
X91410500Y-130793510D01*
X90885401Y-122341800D02*
X91410500Y-122866899D01*
X87570000Y-121100000D02*
X88811800Y-122341800D01*
X88811800Y-122341800D02*
X90885401Y-122341800D01*
X79200033Y-130674967D02*
X79200033Y-138999967D01*
X90110000Y-123640000D02*
X88350000Y-125400000D01*
X79200033Y-138999967D02*
X74799999Y-143400001D01*
X88350000Y-125400000D02*
X84475000Y-125400000D01*
X74799999Y-143400001D02*
X73950000Y-144250000D01*
X84475000Y-125400000D02*
X79200033Y-130674967D01*
X87136410Y-125850000D02*
X80575010Y-132411400D01*
X89575000Y-125850000D02*
X87136410Y-125850000D01*
X80575010Y-147784990D02*
X76490000Y-151870000D01*
X80575010Y-132411400D02*
X80575010Y-147784990D01*
X80125000Y-145695000D02*
X76490000Y-149330000D01*
X85100000Y-126562500D02*
X85100000Y-127250000D01*
X80125000Y-132225000D02*
X80125000Y-145695000D01*
X85100000Y-127250000D02*
X80125000Y-132225000D01*
X76490000Y-146790000D02*
X79650044Y-143629956D01*
X79650044Y-143629956D02*
X79650044Y-131424956D01*
X79650044Y-131424956D02*
X83387501Y-127687499D01*
X83387501Y-127687499D02*
X83787500Y-127287500D01*
X102810000Y-123640000D02*
X102810000Y-121100000D01*
X90225001Y-132415001D02*
X89899999Y-132089999D01*
X89899999Y-132089999D02*
X89050000Y-131240000D01*
X94415001Y-132415001D02*
X90225001Y-132415001D01*
X100034002Y-132575000D02*
X94575000Y-132575000D01*
X106350000Y-134432500D02*
X101891502Y-134432500D01*
X94575000Y-132575000D02*
X94415001Y-132415001D01*
X101891502Y-134432500D02*
X100034002Y-132575000D01*
X89899999Y-134629999D02*
X89050000Y-133780000D01*
X90345000Y-135075000D02*
X89899999Y-134629999D01*
X106350000Y-135702500D02*
X100621502Y-135702500D01*
X99994002Y-135075000D02*
X90345000Y-135075000D01*
X100621502Y-135702500D02*
X99994002Y-135075000D01*
X89899999Y-139709999D02*
X89050000Y-138860000D01*
X90365000Y-140175000D02*
X89899999Y-139709999D01*
X99924002Y-140175000D02*
X90365000Y-140175000D01*
X106350000Y-138877500D02*
X101221502Y-138877500D01*
X101221502Y-138877500D02*
X99924002Y-140175000D01*
X89899999Y-144789999D02*
X89050000Y-143940000D01*
X99929002Y-145250000D02*
X90360000Y-145250000D01*
X90360000Y-145250000D02*
X89899999Y-144789999D01*
X106350000Y-141417500D02*
X103761502Y-141417500D01*
X103761502Y-141417500D02*
X99929002Y-145250000D01*
X104991587Y-142687500D02*
X99988087Y-147691000D01*
X106350000Y-142687500D02*
X104991587Y-142687500D01*
X89899999Y-147329999D02*
X89050000Y-146480000D01*
X90261000Y-147691000D02*
X89899999Y-147329999D01*
X99988087Y-147691000D02*
X90261000Y-147691000D01*
X101626464Y-147754269D02*
X101226465Y-148154268D01*
X105423233Y-143957500D02*
X101626464Y-147754269D01*
X106350000Y-143957500D02*
X105423233Y-143957500D01*
X89050000Y-149020000D02*
X94413300Y-149020000D01*
X94413300Y-149020000D02*
X95017300Y-148416000D01*
X89899999Y-150710001D02*
X89050000Y-151560000D01*
X100211696Y-150250000D02*
X90360000Y-150250000D01*
X90360000Y-150250000D02*
X89899999Y-150710001D01*
X106350000Y-145862500D02*
X105500000Y-145862500D01*
X101532400Y-150802500D02*
X100764196Y-150802500D01*
X100764196Y-150802500D02*
X100211696Y-150250000D01*
X105500000Y-145862500D02*
X102727302Y-148635198D01*
X102727302Y-148635198D02*
X102727302Y-149607598D01*
X102727302Y-149607598D02*
X101532400Y-150802500D01*
X87359999Y-154949999D02*
X86510000Y-154100000D01*
X107100002Y-147132500D02*
X107725010Y-147757508D01*
X106350000Y-147132500D02*
X107100002Y-147132500D01*
X107725010Y-150318902D02*
X102143912Y-155900000D01*
X88310000Y-155900000D02*
X87359999Y-154949999D01*
X107725010Y-147757508D02*
X107725010Y-150318902D01*
X102143912Y-155900000D02*
X88310000Y-155900000D01*
X102057500Y-133797500D02*
X99500000Y-131240000D01*
X106350000Y-133797500D02*
X102057500Y-133797500D01*
X100787500Y-135067500D02*
X99500000Y-133780000D01*
X106350000Y-135067500D02*
X100787500Y-135067500D01*
X99517500Y-136337500D02*
X99500000Y-136320000D01*
X106350000Y-136337500D02*
X99517500Y-136337500D01*
X100752500Y-137607500D02*
X99500000Y-138860000D01*
X106350000Y-137607500D02*
X100752500Y-137607500D01*
X101387500Y-139512500D02*
X99500000Y-141400000D01*
X106350000Y-139512500D02*
X101387500Y-139512500D01*
X102657500Y-140782500D02*
X99500000Y-143940000D01*
X106350000Y-140782500D02*
X102657500Y-140782500D01*
X103927500Y-142052500D02*
X99500000Y-146480000D01*
X106350000Y-142052500D02*
X103927500Y-142052500D01*
X100349999Y-148005414D02*
X100349999Y-148170001D01*
X105032913Y-143322500D02*
X100349999Y-148005414D01*
X106350000Y-143322500D02*
X105032913Y-143322500D01*
X100349999Y-148170001D02*
X99500000Y-149020000D01*
X102575014Y-148000401D02*
X101253000Y-149322415D01*
X101253000Y-149322415D02*
X101253000Y-149888100D01*
X105500000Y-144592500D02*
X102575014Y-147517486D01*
X106350000Y-144592500D02*
X105500000Y-144592500D01*
X102575014Y-147517486D02*
X102575014Y-148000401D01*
X97809999Y-153250001D02*
X96960000Y-154100000D01*
X98260000Y-152800000D02*
X97809999Y-153250001D01*
X106350000Y-146497500D02*
X105718015Y-146497500D01*
X105718015Y-146497500D02*
X103177313Y-149038202D01*
X103177313Y-149038202D02*
X103177313Y-149944987D01*
X100322300Y-152800000D02*
X98260000Y-152800000D01*
X103177313Y-149944987D02*
X100322300Y-152800000D01*
X105500000Y-147767500D02*
X106350000Y-147767500D01*
X105084425Y-147767500D02*
X105500000Y-147767500D01*
X103767024Y-149084901D02*
X105084425Y-147767500D01*
X103767024Y-150142676D02*
X103767024Y-149084901D01*
X99500000Y-154100000D02*
X99809700Y-154100000D01*
X99809700Y-154100000D02*
X103767024Y-150142676D01*
X125050000Y-127175000D02*
X125050000Y-128650000D01*
X121075000Y-127175000D02*
X125050000Y-127175000D01*
X121075000Y-129957500D02*
X121075000Y-127175000D01*
X115750000Y-134432500D02*
X116600000Y-134432500D01*
X116600000Y-134432500D02*
X121075000Y-129957500D01*
X124660000Y-130800000D02*
X125050000Y-131190000D01*
X123835000Y-129975000D02*
X124660000Y-130800000D01*
X116600000Y-135702500D02*
X116838750Y-135463750D01*
X115750000Y-135702500D02*
X116600000Y-135702500D01*
X116838750Y-135463750D02*
X116838750Y-134911250D01*
X116838750Y-134911250D02*
X121775000Y-129975000D01*
X121775000Y-129975000D02*
X123835000Y-129975000D01*
X124200001Y-132880001D02*
X125050000Y-133730000D01*
X121017501Y-132554999D02*
X123874999Y-132554999D01*
X116600000Y-136972500D02*
X121017501Y-132554999D01*
X123874999Y-132554999D02*
X124200001Y-132880001D01*
X115750000Y-136972500D02*
X116600000Y-136972500D01*
X123821800Y-135041800D02*
X124200001Y-135420001D01*
X121687300Y-135041800D02*
X123821800Y-135041800D01*
X119725000Y-137004100D02*
X121687300Y-135041800D01*
X117274498Y-138877500D02*
X117541999Y-139145001D01*
X119725000Y-137654680D02*
X119725000Y-137004100D01*
X117541999Y-139145001D02*
X118234679Y-139145001D01*
X124200001Y-135420001D02*
X125050000Y-136270000D01*
X115750000Y-138877500D02*
X117274498Y-138877500D01*
X118234679Y-139145001D02*
X119725000Y-137654680D01*
X123715000Y-137475000D02*
X124200001Y-137960001D01*
X120541090Y-137475000D02*
X123715000Y-137475000D01*
X124200001Y-137960001D02*
X125050000Y-138810000D01*
X115750000Y-140782500D02*
X117233590Y-140782500D01*
X117233590Y-140782500D02*
X120541090Y-137475000D01*
X124200001Y-140500001D02*
X125050000Y-141350000D01*
X123750000Y-140050000D02*
X124200001Y-140500001D01*
X118602500Y-140050000D02*
X123750000Y-140050000D01*
X115750000Y-142052500D02*
X116600000Y-142052500D01*
X116600000Y-142052500D02*
X118602500Y-140050000D01*
X124200001Y-143040001D02*
X125050000Y-143890000D01*
X123735000Y-142575000D02*
X124200001Y-143040001D01*
X117347500Y-142575000D02*
X123735000Y-142575000D01*
X115750000Y-143322500D02*
X116600000Y-143322500D01*
X116600000Y-143322500D02*
X117347500Y-142575000D01*
X124200001Y-145580001D02*
X125050000Y-146430000D01*
X123820000Y-145200000D02*
X124200001Y-145580001D01*
X115750000Y-144592500D02*
X121067500Y-144592500D01*
X121675000Y-145200000D02*
X123820000Y-145200000D01*
X121067500Y-144592500D02*
X121675000Y-145200000D01*
X123755000Y-147675000D02*
X124200001Y-148120001D01*
X121826000Y-147675000D02*
X123755000Y-147675000D01*
X124200001Y-148120001D02*
X125050000Y-148970000D01*
X115750000Y-146497500D02*
X120648500Y-146497500D01*
X120648500Y-146497500D02*
X121826000Y-147675000D01*
X116202498Y-151510000D02*
X121307919Y-151510000D01*
X114824999Y-150132501D02*
X116202498Y-151510000D01*
X114824999Y-147842501D02*
X114824999Y-150132501D01*
X121307919Y-151510000D02*
X122510000Y-151510000D01*
X114900000Y-147767500D02*
X114824999Y-147842501D01*
X115750000Y-147767500D02*
X114900000Y-147767500D01*
X121650000Y-150200000D02*
X124840000Y-150200000D01*
X115750000Y-149037500D02*
X120487500Y-149037500D01*
X120487500Y-149037500D02*
X121650000Y-150200000D01*
X125050000Y-150410000D02*
X125050000Y-151510000D01*
X124840000Y-150200000D02*
X125050000Y-150410000D01*
X115750000Y-149672500D02*
X116772500Y-149672500D01*
X116772500Y-149672500D02*
X117725000Y-150625000D01*
X109857511Y-134548601D02*
X109857510Y-149459222D01*
X109857510Y-149459222D02*
X101006712Y-158310020D01*
X107311409Y-132002499D02*
X109857511Y-134548601D01*
X105489999Y-132002499D02*
X107311409Y-132002499D01*
X105424999Y-132067499D02*
X105489999Y-132002499D01*
X105424999Y-133087499D02*
X105424999Y-132067499D01*
X105500000Y-133162500D02*
X105424999Y-133087499D01*
X106350000Y-133162500D02*
X105500000Y-133162500D01*
X91300020Y-158310020D02*
X90050000Y-157060000D01*
X101006712Y-158310020D02*
X91300020Y-158310020D01*
X85090000Y-157060000D02*
X85050000Y-157100000D01*
X88475000Y-157060000D02*
X85090000Y-157060000D01*
X109407501Y-134735001D02*
X109407501Y-149272821D01*
X107200000Y-132527500D02*
X109407501Y-134735001D01*
X106350000Y-132527500D02*
X107200000Y-132527500D01*
X101620322Y-157060000D02*
X109407501Y-149272821D01*
X100187500Y-157060000D02*
X101620322Y-157060000D01*
X95397500Y-157060000D02*
X95387500Y-157050000D01*
X98612500Y-157060000D02*
X95397500Y-157060000D01*
D15*
X117445500Y-127944424D02*
X115186285Y-127978916D01*
X115193072Y-127910000D01*
X115190000Y-127758250D01*
X115031250Y-127599500D01*
X114207000Y-127599500D01*
X114207000Y-127619500D01*
X113953000Y-127619500D01*
X113953000Y-127599500D01*
X113128750Y-127599500D01*
X112970000Y-127758250D01*
X112966928Y-127910000D01*
X112977037Y-128012645D01*
X111369994Y-128037180D01*
X111370812Y-128034482D01*
X111383072Y-127910000D01*
X111380000Y-127758250D01*
X111221250Y-127599500D01*
X110397000Y-127599500D01*
X110397000Y-127619500D01*
X110143000Y-127619500D01*
X110143000Y-127599500D01*
X109318750Y-127599500D01*
X109160000Y-127758250D01*
X109156928Y-127910000D01*
X109169188Y-128034482D01*
X109179811Y-128069500D01*
X108111000Y-128069500D01*
X108111000Y-127035000D01*
X109156928Y-127035000D01*
X109160000Y-127186750D01*
X109318750Y-127345500D01*
X110143000Y-127345500D01*
X110143000Y-126558750D01*
X110397000Y-126558750D01*
X110397000Y-127345500D01*
X111221250Y-127345500D01*
X111380000Y-127186750D01*
X111383072Y-127035000D01*
X112966928Y-127035000D01*
X112970000Y-127186750D01*
X113128750Y-127345500D01*
X113953000Y-127345500D01*
X113953000Y-126558750D01*
X114207000Y-126558750D01*
X114207000Y-127345500D01*
X115031250Y-127345500D01*
X115190000Y-127186750D01*
X115193072Y-127035000D01*
X115180812Y-126910518D01*
X115144502Y-126790820D01*
X115085537Y-126680506D01*
X115006185Y-126583815D01*
X114909494Y-126504463D01*
X114799180Y-126445498D01*
X114679482Y-126409188D01*
X114555000Y-126396928D01*
X114365750Y-126400000D01*
X114207000Y-126558750D01*
X113953000Y-126558750D01*
X113794250Y-126400000D01*
X113605000Y-126396928D01*
X113480518Y-126409188D01*
X113360820Y-126445498D01*
X113250506Y-126504463D01*
X113153815Y-126583815D01*
X113074463Y-126680506D01*
X113015498Y-126790820D01*
X112979188Y-126910518D01*
X112966928Y-127035000D01*
X111383072Y-127035000D01*
X111370812Y-126910518D01*
X111334502Y-126790820D01*
X111275537Y-126680506D01*
X111196185Y-126583815D01*
X111099494Y-126504463D01*
X110989180Y-126445498D01*
X110869482Y-126409188D01*
X110745000Y-126396928D01*
X110555750Y-126400000D01*
X110397000Y-126558750D01*
X110143000Y-126558750D01*
X109984250Y-126400000D01*
X109795000Y-126396928D01*
X109670518Y-126409188D01*
X109550820Y-126445498D01*
X109440506Y-126504463D01*
X109343815Y-126583815D01*
X109264463Y-126680506D01*
X109205498Y-126790820D01*
X109169188Y-126910518D01*
X109156928Y-127035000D01*
X108111000Y-127035000D01*
X108111000Y-123939712D01*
X111477654Y-123878500D01*
X117445500Y-123878500D01*
X117445500Y-127944424D01*
G04 #@! TA.AperFunction,Conductor*
D16*
G36*
X117445500Y-127944424D02*
G01*
X115186285Y-127978916D01*
X115193072Y-127910000D01*
X115190000Y-127758250D01*
X115031250Y-127599500D01*
X114207000Y-127599500D01*
X114207000Y-127619500D01*
X113953000Y-127619500D01*
X113953000Y-127599500D01*
X113128750Y-127599500D01*
X112970000Y-127758250D01*
X112966928Y-127910000D01*
X112977037Y-128012645D01*
X111369994Y-128037180D01*
X111370812Y-128034482D01*
X111383072Y-127910000D01*
X111380000Y-127758250D01*
X111221250Y-127599500D01*
X110397000Y-127599500D01*
X110397000Y-127619500D01*
X110143000Y-127619500D01*
X110143000Y-127599500D01*
X109318750Y-127599500D01*
X109160000Y-127758250D01*
X109156928Y-127910000D01*
X109169188Y-128034482D01*
X109179811Y-128069500D01*
X108111000Y-128069500D01*
X108111000Y-127035000D01*
X109156928Y-127035000D01*
X109160000Y-127186750D01*
X109318750Y-127345500D01*
X110143000Y-127345500D01*
X110143000Y-126558750D01*
X110397000Y-126558750D01*
X110397000Y-127345500D01*
X111221250Y-127345500D01*
X111380000Y-127186750D01*
X111383072Y-127035000D01*
X112966928Y-127035000D01*
X112970000Y-127186750D01*
X113128750Y-127345500D01*
X113953000Y-127345500D01*
X113953000Y-126558750D01*
X114207000Y-126558750D01*
X114207000Y-127345500D01*
X115031250Y-127345500D01*
X115190000Y-127186750D01*
X115193072Y-127035000D01*
X115180812Y-126910518D01*
X115144502Y-126790820D01*
X115085537Y-126680506D01*
X115006185Y-126583815D01*
X114909494Y-126504463D01*
X114799180Y-126445498D01*
X114679482Y-126409188D01*
X114555000Y-126396928D01*
X114365750Y-126400000D01*
X114207000Y-126558750D01*
X113953000Y-126558750D01*
X113794250Y-126400000D01*
X113605000Y-126396928D01*
X113480518Y-126409188D01*
X113360820Y-126445498D01*
X113250506Y-126504463D01*
X113153815Y-126583815D01*
X113074463Y-126680506D01*
X113015498Y-126790820D01*
X112979188Y-126910518D01*
X112966928Y-127035000D01*
X111383072Y-127035000D01*
X111370812Y-126910518D01*
X111334502Y-126790820D01*
X111275537Y-126680506D01*
X111196185Y-126583815D01*
X111099494Y-126504463D01*
X110989180Y-126445498D01*
X110869482Y-126409188D01*
X110745000Y-126396928D01*
X110555750Y-126400000D01*
X110397000Y-126558750D01*
X110143000Y-126558750D01*
X109984250Y-126400000D01*
X109795000Y-126396928D01*
X109670518Y-126409188D01*
X109550820Y-126445498D01*
X109440506Y-126504463D01*
X109343815Y-126583815D01*
X109264463Y-126680506D01*
X109205498Y-126790820D01*
X109169188Y-126910518D01*
X109156928Y-127035000D01*
X108111000Y-127035000D01*
X108111000Y-123939712D01*
X111477654Y-123878500D01*
X117445500Y-123878500D01*
X117445500Y-127944424D01*
G37*
G04 #@! TD.AperFunction*
M02*
