%FSLAX45Y45*%
G04 Gerber Fmt 4.5, Leading zero omitted, Abs format (unit mm)*
G04 Created by KiCad (PCBNEW (5.1.0-165-g615c49315)) date 2019-04-12 11:42:47*
%MOMM*%
%LPD*%
G04 APERTURE LIST*
%ADD10C,0.100000*%
%ADD11C,0.200000*%
%ADD12C,0.300000*%
G04 APERTURE END LIST*
D10*
X10800000Y-10865000D02*
X5010000Y-10865000D01*
X10800000Y-14990000D02*
X10800000Y-10865000D01*
X5010000Y-14990000D02*
X10800000Y-14990000D01*
X5010000Y-10865000D02*
X5010000Y-14990000D01*
D11*
X5195840Y-11010240D02*
X5565840Y-11380240D01*
X5565840Y-11010240D02*
X5195840Y-11380240D01*
X5195840Y-14435430D02*
X5565840Y-14805430D01*
X5565840Y-14435430D02*
X5195840Y-14805430D01*
D12*
X5291428Y-15460714D02*
X5291428Y-15160714D01*
X5362857Y-15160714D01*
X5405714Y-15175000D01*
X5434286Y-15203571D01*
X5448571Y-15232143D01*
X5462857Y-15289286D01*
X5462857Y-15332143D01*
X5448571Y-15389286D01*
X5434286Y-15417857D01*
X5405714Y-15446429D01*
X5362857Y-15460714D01*
X5291428Y-15460714D01*
X5591428Y-15460714D02*
X5591428Y-15260714D01*
X5591428Y-15317857D02*
X5605714Y-15289286D01*
X5620000Y-15275000D01*
X5648571Y-15260714D01*
X5677143Y-15260714D01*
X5777143Y-15460714D02*
X5777143Y-15260714D01*
X5777143Y-15160714D02*
X5762857Y-15175000D01*
X5777143Y-15189286D01*
X5791428Y-15175000D01*
X5777143Y-15160714D01*
X5777143Y-15189286D01*
X5962857Y-15460714D02*
X5934286Y-15446429D01*
X5920000Y-15417857D01*
X5920000Y-15160714D01*
X6120000Y-15460714D02*
X6091428Y-15446429D01*
X6077143Y-15417857D01*
X6077143Y-15160714D01*
X6462857Y-15460714D02*
X6462857Y-15160714D01*
X6562857Y-15375000D01*
X6662857Y-15160714D01*
X6662857Y-15460714D01*
X6934286Y-15460714D02*
X6934286Y-15303571D01*
X6920000Y-15275000D01*
X6891428Y-15260714D01*
X6834286Y-15260714D01*
X6805714Y-15275000D01*
X6934286Y-15446429D02*
X6905714Y-15460714D01*
X6834286Y-15460714D01*
X6805714Y-15446429D01*
X6791428Y-15417857D01*
X6791428Y-15389286D01*
X6805714Y-15360714D01*
X6834286Y-15346429D01*
X6905714Y-15346429D01*
X6934286Y-15332143D01*
X7077143Y-15260714D02*
X7077143Y-15560714D01*
X7077143Y-15275000D02*
X7105714Y-15260714D01*
X7162857Y-15260714D01*
X7191428Y-15275000D01*
X7205714Y-15289286D01*
X7220000Y-15317857D01*
X7220000Y-15403571D01*
X7205714Y-15432143D01*
X7191428Y-15446429D01*
X7162857Y-15460714D01*
X7105714Y-15460714D01*
X7077143Y-15446429D01*
X7348571Y-15432143D02*
X7362857Y-15446429D01*
X7348571Y-15460714D01*
X7334286Y-15446429D01*
X7348571Y-15432143D01*
X7348571Y-15460714D01*
X7348571Y-15275000D02*
X7362857Y-15289286D01*
X7348571Y-15303571D01*
X7334286Y-15289286D01*
X7348571Y-15275000D01*
X7348571Y-15303571D01*
X4635000Y-15770000D02*
X5005000Y-16140000D01*
X5005000Y-15770000D02*
X4635000Y-16140000D01*
X5262857Y-15790714D02*
X5448571Y-15790714D01*
X5348571Y-15905000D01*
X5391428Y-15905000D01*
X5420000Y-15919286D01*
X5434286Y-15933571D01*
X5448571Y-15962143D01*
X5448571Y-16033571D01*
X5434286Y-16062143D01*
X5420000Y-16076429D01*
X5391428Y-16090714D01*
X5305714Y-16090714D01*
X5277143Y-16076429D01*
X5262857Y-16062143D01*
X5577143Y-16062143D02*
X5591428Y-16076429D01*
X5577143Y-16090714D01*
X5562857Y-16076429D01*
X5577143Y-16062143D01*
X5577143Y-16090714D01*
X5691428Y-15790714D02*
X5891428Y-15790714D01*
X5762857Y-16090714D01*
X6062857Y-15790714D02*
X6091428Y-15790714D01*
X6120000Y-15805000D01*
X6134286Y-15819286D01*
X6148571Y-15847857D01*
X6162857Y-15905000D01*
X6162857Y-15976429D01*
X6148571Y-16033571D01*
X6134286Y-16062143D01*
X6120000Y-16076429D01*
X6091428Y-16090714D01*
X6062857Y-16090714D01*
X6034286Y-16076429D01*
X6020000Y-16062143D01*
X6005714Y-16033571D01*
X5991428Y-15976429D01*
X5991428Y-15905000D01*
X6005714Y-15847857D01*
X6020000Y-15819286D01*
X6034286Y-15805000D01*
X6062857Y-15790714D01*
X6291428Y-16090714D02*
X6291428Y-15890714D01*
X6291428Y-15919286D02*
X6305714Y-15905000D01*
X6334286Y-15890714D01*
X6377143Y-15890714D01*
X6405714Y-15905000D01*
X6420000Y-15933571D01*
X6420000Y-16090714D01*
X6420000Y-15933571D02*
X6434286Y-15905000D01*
X6462857Y-15890714D01*
X6505714Y-15890714D01*
X6534286Y-15905000D01*
X6548571Y-15933571D01*
X6548571Y-16090714D01*
X6691428Y-16090714D02*
X6691428Y-15890714D01*
X6691428Y-15919286D02*
X6705714Y-15905000D01*
X6734286Y-15890714D01*
X6777143Y-15890714D01*
X6805714Y-15905000D01*
X6820000Y-15933571D01*
X6820000Y-16090714D01*
X6820000Y-15933571D02*
X6834286Y-15905000D01*
X6862857Y-15890714D01*
X6905714Y-15890714D01*
X6934286Y-15905000D01*
X6948571Y-15933571D01*
X6948571Y-16090714D01*
X7534286Y-15776429D02*
X7277143Y-16162143D01*
X7920000Y-15790714D02*
X7948571Y-15790714D01*
X7977143Y-15805000D01*
X7991428Y-15819286D01*
X8005714Y-15847857D01*
X8020000Y-15905000D01*
X8020000Y-15976429D01*
X8005714Y-16033571D01*
X7991428Y-16062143D01*
X7977143Y-16076429D01*
X7948571Y-16090714D01*
X7920000Y-16090714D01*
X7891428Y-16076429D01*
X7877143Y-16062143D01*
X7862857Y-16033571D01*
X7848571Y-15976429D01*
X7848571Y-15905000D01*
X7862857Y-15847857D01*
X7877143Y-15819286D01*
X7891428Y-15805000D01*
X7920000Y-15790714D01*
X8148571Y-16062143D02*
X8162857Y-16076429D01*
X8148571Y-16090714D01*
X8134286Y-16076429D01*
X8148571Y-16062143D01*
X8148571Y-16090714D01*
X8448571Y-16090714D02*
X8277143Y-16090714D01*
X8362857Y-16090714D02*
X8362857Y-15790714D01*
X8334286Y-15833571D01*
X8305714Y-15862143D01*
X8277143Y-15876429D01*
X8705714Y-15890714D02*
X8705714Y-16090714D01*
X8634286Y-15776429D02*
X8562857Y-15990714D01*
X8748571Y-15990714D01*
X8991428Y-15790714D02*
X8934286Y-15790714D01*
X8905714Y-15805000D01*
X8891428Y-15819286D01*
X8862857Y-15862143D01*
X8848571Y-15919286D01*
X8848571Y-16033571D01*
X8862857Y-16062143D01*
X8877143Y-16076429D01*
X8905714Y-16090714D01*
X8962857Y-16090714D01*
X8991428Y-16076429D01*
X9005714Y-16062143D01*
X9020000Y-16033571D01*
X9020000Y-15962143D01*
X9005714Y-15933571D01*
X8991428Y-15919286D01*
X8962857Y-15905000D01*
X8905714Y-15905000D01*
X8877143Y-15919286D01*
X8862857Y-15933571D01*
X8848571Y-15962143D01*
X9134286Y-15790714D02*
X9134286Y-15847857D01*
X9248571Y-15790714D02*
X9248571Y-15847857D01*
X9691428Y-16205000D02*
X9677143Y-16190714D01*
X9648571Y-16147857D01*
X9634286Y-16119286D01*
X9620000Y-16076429D01*
X9605714Y-16005000D01*
X9605714Y-15947857D01*
X9620000Y-15876429D01*
X9634286Y-15833571D01*
X9648571Y-15805000D01*
X9677143Y-15762143D01*
X9691428Y-15747857D01*
X9791428Y-15819286D02*
X9805714Y-15805000D01*
X9834286Y-15790714D01*
X9905714Y-15790714D01*
X9934286Y-15805000D01*
X9948571Y-15819286D01*
X9962857Y-15847857D01*
X9962857Y-15876429D01*
X9948571Y-15919286D01*
X9777143Y-16090714D01*
X9962857Y-16090714D01*
X10320000Y-16090714D02*
X10320000Y-15790714D01*
X10448571Y-16090714D02*
X10448571Y-15933571D01*
X10434286Y-15905000D01*
X10405714Y-15890714D01*
X10362857Y-15890714D01*
X10334286Y-15905000D01*
X10320000Y-15919286D01*
X10634286Y-16090714D02*
X10605714Y-16076429D01*
X10591428Y-16062143D01*
X10577143Y-16033571D01*
X10577143Y-15947857D01*
X10591428Y-15919286D01*
X10605714Y-15905000D01*
X10634286Y-15890714D01*
X10677143Y-15890714D01*
X10705714Y-15905000D01*
X10720000Y-15919286D01*
X10734286Y-15947857D01*
X10734286Y-16033571D01*
X10720000Y-16062143D01*
X10705714Y-16076429D01*
X10677143Y-16090714D01*
X10634286Y-16090714D01*
X10905714Y-16090714D02*
X10877143Y-16076429D01*
X10862857Y-16047857D01*
X10862857Y-15790714D01*
X11134286Y-16076429D02*
X11105714Y-16090714D01*
X11048571Y-16090714D01*
X11020000Y-16076429D01*
X11005714Y-16047857D01*
X11005714Y-15933571D01*
X11020000Y-15905000D01*
X11048571Y-15890714D01*
X11105714Y-15890714D01*
X11134286Y-15905000D01*
X11148571Y-15933571D01*
X11148571Y-15962143D01*
X11005714Y-15990714D01*
X11262857Y-16076429D02*
X11291428Y-16090714D01*
X11348571Y-16090714D01*
X11377143Y-16076429D01*
X11391428Y-16047857D01*
X11391428Y-16033571D01*
X11377143Y-16005000D01*
X11348571Y-15990714D01*
X11305714Y-15990714D01*
X11277143Y-15976429D01*
X11262857Y-15947857D01*
X11262857Y-15933571D01*
X11277143Y-15905000D01*
X11305714Y-15890714D01*
X11348571Y-15890714D01*
X11377143Y-15905000D01*
X11491428Y-16205000D02*
X11505714Y-16190714D01*
X11534286Y-16147857D01*
X11548571Y-16119286D01*
X11562857Y-16076429D01*
X11577143Y-16005000D01*
X11577143Y-15947857D01*
X11562857Y-15876429D01*
X11548571Y-15833571D01*
X11534286Y-15805000D01*
X11505714Y-15762143D01*
X11491428Y-15747857D01*
X12034286Y-16205000D02*
X12020000Y-16190714D01*
X11991428Y-16147857D01*
X11977143Y-16119286D01*
X11962857Y-16076429D01*
X11948571Y-16005000D01*
X11948571Y-15947857D01*
X11962857Y-15876429D01*
X11977143Y-15833571D01*
X11991428Y-15805000D01*
X12020000Y-15762143D01*
X12034286Y-15747857D01*
X12148571Y-15890714D02*
X12148571Y-16090714D01*
X12148571Y-15919286D02*
X12162857Y-15905000D01*
X12191428Y-15890714D01*
X12234286Y-15890714D01*
X12262857Y-15905000D01*
X12277143Y-15933571D01*
X12277143Y-16090714D01*
X12462857Y-16090714D02*
X12434286Y-16076429D01*
X12420000Y-16062143D01*
X12405714Y-16033571D01*
X12405714Y-15947857D01*
X12420000Y-15919286D01*
X12434286Y-15905000D01*
X12462857Y-15890714D01*
X12505714Y-15890714D01*
X12534286Y-15905000D01*
X12548571Y-15919286D01*
X12562857Y-15947857D01*
X12562857Y-16033571D01*
X12548571Y-16062143D01*
X12534286Y-16076429D01*
X12505714Y-16090714D01*
X12462857Y-16090714D01*
X12648571Y-15890714D02*
X12762857Y-15890714D01*
X12691428Y-15790714D02*
X12691428Y-16047857D01*
X12705714Y-16076429D01*
X12734286Y-16090714D01*
X12762857Y-16090714D01*
X13091428Y-15890714D02*
X13091428Y-16190714D01*
X13091428Y-15905000D02*
X13120000Y-15890714D01*
X13177143Y-15890714D01*
X13205714Y-15905000D01*
X13220000Y-15919286D01*
X13234286Y-15947857D01*
X13234286Y-16033571D01*
X13220000Y-16062143D01*
X13205714Y-16076429D01*
X13177143Y-16090714D01*
X13120000Y-16090714D01*
X13091428Y-16076429D01*
X13405714Y-16090714D02*
X13377143Y-16076429D01*
X13362857Y-16047857D01*
X13362857Y-15790714D01*
X13648571Y-16090714D02*
X13648571Y-15933571D01*
X13634286Y-15905000D01*
X13605714Y-15890714D01*
X13548571Y-15890714D01*
X13520000Y-15905000D01*
X13648571Y-16076429D02*
X13620000Y-16090714D01*
X13548571Y-16090714D01*
X13520000Y-16076429D01*
X13505714Y-16047857D01*
X13505714Y-16019286D01*
X13520000Y-15990714D01*
X13548571Y-15976429D01*
X13620000Y-15976429D01*
X13648571Y-15962143D01*
X13748571Y-15890714D02*
X13862857Y-15890714D01*
X13791428Y-15790714D02*
X13791428Y-16047857D01*
X13805714Y-16076429D01*
X13834286Y-16090714D01*
X13862857Y-16090714D01*
X14077143Y-16076429D02*
X14048571Y-16090714D01*
X13991428Y-16090714D01*
X13962857Y-16076429D01*
X13948571Y-16047857D01*
X13948571Y-15933571D01*
X13962857Y-15905000D01*
X13991428Y-15890714D01*
X14048571Y-15890714D01*
X14077143Y-15905000D01*
X14091428Y-15933571D01*
X14091428Y-15962143D01*
X13948571Y-15990714D01*
X14348571Y-16090714D02*
X14348571Y-15790714D01*
X14348571Y-16076429D02*
X14320000Y-16090714D01*
X14262857Y-16090714D01*
X14234286Y-16076429D01*
X14220000Y-16062143D01*
X14205714Y-16033571D01*
X14205714Y-15947857D01*
X14220000Y-15919286D01*
X14234286Y-15905000D01*
X14262857Y-15890714D01*
X14320000Y-15890714D01*
X14348571Y-15905000D01*
X14462857Y-16205000D02*
X14477143Y-16190714D01*
X14505714Y-16147857D01*
X14520000Y-16119286D01*
X14534286Y-16076429D01*
X14548571Y-16005000D01*
X14548571Y-15947857D01*
X14534286Y-15876429D01*
X14520000Y-15833571D01*
X14505714Y-15805000D01*
X14477143Y-15762143D01*
X14462857Y-15747857D01*
M02*
