G04 #@! TF.GenerationSoftware,KiCad,Pcbnew,(5.1.0-165-g615c49315)*
G04 #@! TF.CreationDate,2019-04-12T15:14:10+02:00*
G04 #@! TF.ProjectId,JTAGMux_1.0,4a544147-4d75-4785-9f31-2e302e6b6963,rev?*
G04 #@! TF.SameCoordinates,Original*
G04 #@! TF.FileFunction,Drawing*
%FSLAX46Y46*%
G04 Gerber Fmt 4.6, Leading zero omitted, Abs format (unit mm)*
G04 Created by KiCad (PCBNEW (5.1.0-165-g615c49315)) date 2019-04-12 15:14:10*
%MOMM*%
%LPD*%
G04 APERTURE LIST*
%ADD10C,0.300000*%
%ADD11C,0.150000*%
G04 APERTURE END LIST*
D10*
X148607242Y-88581971D02*
X148607242Y-89796257D01*
X148678671Y-89939114D01*
X148750100Y-90010542D01*
X148892957Y-90081971D01*
X149178671Y-90081971D01*
X149321528Y-90010542D01*
X149392957Y-89939114D01*
X149464385Y-89796257D01*
X149464385Y-88581971D01*
X150178671Y-89081971D02*
X150178671Y-90581971D01*
X150178671Y-89153400D02*
X150321528Y-89081971D01*
X150607242Y-89081971D01*
X150750100Y-89153400D01*
X150821528Y-89224828D01*
X150892957Y-89367685D01*
X150892957Y-89796257D01*
X150821528Y-89939114D01*
X150750100Y-90010542D01*
X150607242Y-90081971D01*
X150321528Y-90081971D01*
X150178671Y-90010542D01*
X152178671Y-90081971D02*
X152178671Y-88581971D01*
X152178671Y-90010542D02*
X152035814Y-90081971D01*
X151750100Y-90081971D01*
X151607242Y-90010542D01*
X151535814Y-89939114D01*
X151464385Y-89796257D01*
X151464385Y-89367685D01*
X151535814Y-89224828D01*
X151607242Y-89153400D01*
X151750100Y-89081971D01*
X152035814Y-89081971D01*
X152178671Y-89153400D01*
X153535814Y-90081971D02*
X153535814Y-89296257D01*
X153464385Y-89153400D01*
X153321528Y-89081971D01*
X153035814Y-89081971D01*
X152892957Y-89153400D01*
X153535814Y-90010542D02*
X153392957Y-90081971D01*
X153035814Y-90081971D01*
X152892957Y-90010542D01*
X152821528Y-89867685D01*
X152821528Y-89724828D01*
X152892957Y-89581971D01*
X153035814Y-89510542D01*
X153392957Y-89510542D01*
X153535814Y-89439114D01*
X154035814Y-89081971D02*
X154607242Y-89081971D01*
X154250100Y-88581971D02*
X154250100Y-89867685D01*
X154321528Y-90010542D01*
X154464385Y-90081971D01*
X154607242Y-90081971D01*
X155678671Y-90010542D02*
X155535814Y-90081971D01*
X155250100Y-90081971D01*
X155107242Y-90010542D01*
X155035814Y-89867685D01*
X155035814Y-89296257D01*
X155107242Y-89153400D01*
X155250100Y-89081971D01*
X155535814Y-89081971D01*
X155678671Y-89153400D01*
X155750100Y-89296257D01*
X155750100Y-89439114D01*
X155035814Y-89581971D01*
X156321528Y-90010542D02*
X156464385Y-90081971D01*
X156750100Y-90081971D01*
X156892957Y-90010542D01*
X156964385Y-89867685D01*
X156964385Y-89796257D01*
X156892957Y-89653400D01*
X156750100Y-89581971D01*
X156535814Y-89581971D01*
X156392957Y-89510542D01*
X156321528Y-89367685D01*
X156321528Y-89296257D01*
X156392957Y-89153400D01*
X156535814Y-89081971D01*
X156750100Y-89081971D01*
X156892957Y-89153400D01*
X157607242Y-89939114D02*
X157678671Y-90010542D01*
X157607242Y-90081971D01*
X157535814Y-90010542D01*
X157607242Y-89939114D01*
X157607242Y-90081971D01*
X157607242Y-89153400D02*
X157678671Y-89224828D01*
X157607242Y-89296257D01*
X157535814Y-89224828D01*
X157607242Y-89153400D01*
X157607242Y-89296257D01*
X149964385Y-91131971D02*
X149964385Y-91489114D01*
X149607242Y-91346257D02*
X149964385Y-91489114D01*
X150321528Y-91346257D01*
X149750100Y-91774828D02*
X149964385Y-91489114D01*
X150178671Y-91774828D01*
X152035814Y-92631971D02*
X152035814Y-91131971D01*
X152392957Y-91131971D01*
X152607242Y-91203400D01*
X152750100Y-91346257D01*
X152821528Y-91489114D01*
X152892957Y-91774828D01*
X152892957Y-91989114D01*
X152821528Y-92274828D01*
X152750100Y-92417685D01*
X152607242Y-92560542D01*
X152392957Y-92631971D01*
X152035814Y-92631971D01*
X154107242Y-92560542D02*
X153964385Y-92631971D01*
X153678671Y-92631971D01*
X153535814Y-92560542D01*
X153464385Y-92417685D01*
X153464385Y-91846257D01*
X153535814Y-91703400D01*
X153678671Y-91631971D01*
X153964385Y-91631971D01*
X154107242Y-91703400D01*
X154178671Y-91846257D01*
X154178671Y-91989114D01*
X153464385Y-92131971D01*
X154750100Y-92560542D02*
X154892957Y-92631971D01*
X155178671Y-92631971D01*
X155321528Y-92560542D01*
X155392957Y-92417685D01*
X155392957Y-92346257D01*
X155321528Y-92203400D01*
X155178671Y-92131971D01*
X154964385Y-92131971D01*
X154821528Y-92060542D01*
X154750100Y-91917685D01*
X154750100Y-91846257D01*
X154821528Y-91703400D01*
X154964385Y-91631971D01*
X155178671Y-91631971D01*
X155321528Y-91703400D01*
X156035814Y-92631971D02*
X156035814Y-91631971D01*
X156035814Y-91131971D02*
X155964385Y-91203400D01*
X156035814Y-91274828D01*
X156107242Y-91203400D01*
X156035814Y-91131971D01*
X156035814Y-91274828D01*
X157392957Y-91631971D02*
X157392957Y-92846257D01*
X157321528Y-92989114D01*
X157250100Y-93060542D01*
X157107242Y-93131971D01*
X156892957Y-93131971D01*
X156750100Y-93060542D01*
X157392957Y-92560542D02*
X157250100Y-92631971D01*
X156964385Y-92631971D01*
X156821528Y-92560542D01*
X156750100Y-92489114D01*
X156678671Y-92346257D01*
X156678671Y-91917685D01*
X156750100Y-91774828D01*
X156821528Y-91703400D01*
X156964385Y-91631971D01*
X157250100Y-91631971D01*
X157392957Y-91703400D01*
X158107242Y-91631971D02*
X158107242Y-92631971D01*
X158107242Y-91774828D02*
X158178671Y-91703400D01*
X158321528Y-91631971D01*
X158535814Y-91631971D01*
X158678671Y-91703400D01*
X158750100Y-91846257D01*
X158750100Y-92631971D01*
X160464385Y-91631971D02*
X160750100Y-92631971D01*
X161035814Y-91917685D01*
X161321528Y-92631971D01*
X161607242Y-91631971D01*
X162178671Y-92631971D02*
X162178671Y-91631971D01*
X162178671Y-91131971D02*
X162107242Y-91203400D01*
X162178671Y-91274828D01*
X162250100Y-91203400D01*
X162178671Y-91131971D01*
X162178671Y-91274828D01*
X162678671Y-91631971D02*
X163250100Y-91631971D01*
X162892957Y-91131971D02*
X162892957Y-92417685D01*
X162964385Y-92560542D01*
X163107242Y-92631971D01*
X163250100Y-92631971D01*
X163750100Y-92631971D02*
X163750100Y-91131971D01*
X164392957Y-92631971D02*
X164392957Y-91846257D01*
X164321528Y-91703400D01*
X164178671Y-91631971D01*
X163964385Y-91631971D01*
X163821528Y-91703400D01*
X163750100Y-91774828D01*
X166250100Y-92631971D02*
X166250100Y-91631971D01*
X166250100Y-91774828D02*
X166321528Y-91703400D01*
X166464385Y-91631971D01*
X166678671Y-91631971D01*
X166821528Y-91703400D01*
X166892957Y-91846257D01*
X166892957Y-92631971D01*
X166892957Y-91846257D02*
X166964385Y-91703400D01*
X167107242Y-91631971D01*
X167321528Y-91631971D01*
X167464385Y-91703400D01*
X167535814Y-91846257D01*
X167535814Y-92631971D01*
X168892957Y-92631971D02*
X168892957Y-91846257D01*
X168821528Y-91703400D01*
X168678671Y-91631971D01*
X168392957Y-91631971D01*
X168250100Y-91703400D01*
X168892957Y-92560542D02*
X168750100Y-92631971D01*
X168392957Y-92631971D01*
X168250100Y-92560542D01*
X168178671Y-92417685D01*
X168178671Y-92274828D01*
X168250100Y-92131971D01*
X168392957Y-92060542D01*
X168750100Y-92060542D01*
X168892957Y-91989114D01*
X169607242Y-91631971D02*
X169607242Y-92631971D01*
X169607242Y-91774828D02*
X169678671Y-91703400D01*
X169821528Y-91631971D01*
X170035814Y-91631971D01*
X170178671Y-91703400D01*
X170250100Y-91846257D01*
X170250100Y-92631971D01*
X171607242Y-91631971D02*
X171607242Y-92631971D01*
X170964385Y-91631971D02*
X170964385Y-92417685D01*
X171035814Y-92560542D01*
X171178671Y-92631971D01*
X171392957Y-92631971D01*
X171535814Y-92560542D01*
X171607242Y-92489114D01*
X172107242Y-91631971D02*
X172678671Y-91631971D01*
X172321528Y-92631971D02*
X172321528Y-91346257D01*
X172392957Y-91203400D01*
X172535814Y-91131971D01*
X172678671Y-91131971D01*
X173821528Y-92631971D02*
X173821528Y-91846257D01*
X173750100Y-91703400D01*
X173607242Y-91631971D01*
X173321528Y-91631971D01*
X173178671Y-91703400D01*
X173821528Y-92560542D02*
X173678671Y-92631971D01*
X173321528Y-92631971D01*
X173178671Y-92560542D01*
X173107242Y-92417685D01*
X173107242Y-92274828D01*
X173178671Y-92131971D01*
X173321528Y-92060542D01*
X173678671Y-92060542D01*
X173821528Y-91989114D01*
X175178671Y-92560542D02*
X175035814Y-92631971D01*
X174750100Y-92631971D01*
X174607242Y-92560542D01*
X174535814Y-92489114D01*
X174464385Y-92346257D01*
X174464385Y-91917685D01*
X174535814Y-91774828D01*
X174607242Y-91703400D01*
X174750100Y-91631971D01*
X175035814Y-91631971D01*
X175178671Y-91703400D01*
X175607242Y-91631971D02*
X176178671Y-91631971D01*
X175821528Y-91131971D02*
X175821528Y-92417685D01*
X175892957Y-92560542D01*
X176035814Y-92631971D01*
X176178671Y-92631971D01*
X177321528Y-91631971D02*
X177321528Y-92631971D01*
X176678671Y-91631971D02*
X176678671Y-92417685D01*
X176750100Y-92560542D01*
X176892957Y-92631971D01*
X177107242Y-92631971D01*
X177250100Y-92560542D01*
X177321528Y-92489114D01*
X178035814Y-92631971D02*
X178035814Y-91631971D01*
X178035814Y-91917685D02*
X178107242Y-91774828D01*
X178178671Y-91703400D01*
X178321528Y-91631971D01*
X178464385Y-91631971D01*
X178964385Y-92631971D02*
X178964385Y-91631971D01*
X178964385Y-91131971D02*
X178892957Y-91203400D01*
X178964385Y-91274828D01*
X179035814Y-91203400D01*
X178964385Y-91131971D01*
X178964385Y-91274828D01*
X179678671Y-91631971D02*
X179678671Y-92631971D01*
X179678671Y-91774828D02*
X179750100Y-91703400D01*
X179892957Y-91631971D01*
X180107242Y-91631971D01*
X180250100Y-91703400D01*
X180321528Y-91846257D01*
X180321528Y-92631971D01*
X181678671Y-91631971D02*
X181678671Y-92846257D01*
X181607242Y-92989114D01*
X181535814Y-93060542D01*
X181392957Y-93131971D01*
X181178671Y-93131971D01*
X181035814Y-93060542D01*
X181678671Y-92560542D02*
X181535814Y-92631971D01*
X181250100Y-92631971D01*
X181107242Y-92560542D01*
X181035814Y-92489114D01*
X180964385Y-92346257D01*
X180964385Y-91917685D01*
X181035814Y-91774828D01*
X181107242Y-91703400D01*
X181250100Y-91631971D01*
X181535814Y-91631971D01*
X181678671Y-91703400D01*
X183321528Y-91631971D02*
X183892957Y-91631971D01*
X183535814Y-91131971D02*
X183535814Y-92417685D01*
X183607242Y-92560542D01*
X183750100Y-92631971D01*
X183892957Y-92631971D01*
X184607242Y-92631971D02*
X184464385Y-92560542D01*
X184392957Y-92489114D01*
X184321528Y-92346257D01*
X184321528Y-91917685D01*
X184392957Y-91774828D01*
X184464385Y-91703400D01*
X184607242Y-91631971D01*
X184821528Y-91631971D01*
X184964385Y-91703400D01*
X185035814Y-91774828D01*
X185107242Y-91917685D01*
X185107242Y-92346257D01*
X185035814Y-92489114D01*
X184964385Y-92560542D01*
X184821528Y-92631971D01*
X184607242Y-92631971D01*
X185964385Y-92631971D02*
X185821528Y-92560542D01*
X185750100Y-92417685D01*
X185750100Y-91131971D01*
X186750100Y-92631971D02*
X186607242Y-92560542D01*
X186535814Y-92417685D01*
X186535814Y-91131971D01*
X187892957Y-92560542D02*
X187750100Y-92631971D01*
X187464385Y-92631971D01*
X187321528Y-92560542D01*
X187250100Y-92417685D01*
X187250100Y-91846257D01*
X187321528Y-91703400D01*
X187464385Y-91631971D01*
X187750100Y-91631971D01*
X187892957Y-91703400D01*
X187964385Y-91846257D01*
X187964385Y-91989114D01*
X187250100Y-92131971D01*
X188607242Y-92631971D02*
X188607242Y-91631971D01*
X188607242Y-91917685D02*
X188678671Y-91774828D01*
X188750100Y-91703400D01*
X188892957Y-91631971D01*
X189035814Y-91631971D01*
X190178671Y-92631971D02*
X190178671Y-91846257D01*
X190107242Y-91703400D01*
X189964385Y-91631971D01*
X189678671Y-91631971D01*
X189535814Y-91703400D01*
X190178671Y-92560542D02*
X190035814Y-92631971D01*
X189678671Y-92631971D01*
X189535814Y-92560542D01*
X189464385Y-92417685D01*
X189464385Y-92274828D01*
X189535814Y-92131971D01*
X189678671Y-92060542D01*
X190035814Y-92060542D01*
X190178671Y-91989114D01*
X190892957Y-91631971D02*
X190892957Y-92631971D01*
X190892957Y-91774828D02*
X190964385Y-91703400D01*
X191107242Y-91631971D01*
X191321528Y-91631971D01*
X191464385Y-91703400D01*
X191535814Y-91846257D01*
X191535814Y-92631971D01*
X192892957Y-92560542D02*
X192750100Y-92631971D01*
X192464385Y-92631971D01*
X192321528Y-92560542D01*
X192250100Y-92489114D01*
X192178671Y-92346257D01*
X192178671Y-91917685D01*
X192250100Y-91774828D01*
X192321528Y-91703400D01*
X192464385Y-91631971D01*
X192750100Y-91631971D01*
X192892957Y-91703400D01*
X194107242Y-92560542D02*
X193964385Y-92631971D01*
X193678671Y-92631971D01*
X193535814Y-92560542D01*
X193464385Y-92417685D01*
X193464385Y-91846257D01*
X193535814Y-91703400D01*
X193678671Y-91631971D01*
X193964385Y-91631971D01*
X194107242Y-91703400D01*
X194178671Y-91846257D01*
X194178671Y-91989114D01*
X193464385Y-92131971D01*
X196250100Y-91131971D02*
X196392957Y-91131971D01*
X196535814Y-91203400D01*
X196607242Y-91274828D01*
X196678671Y-91417685D01*
X196750100Y-91703400D01*
X196750100Y-92060542D01*
X196678671Y-92346257D01*
X196607242Y-92489114D01*
X196535814Y-92560542D01*
X196392957Y-92631971D01*
X196250100Y-92631971D01*
X196107242Y-92560542D01*
X196035814Y-92489114D01*
X195964385Y-92346257D01*
X195892957Y-92060542D01*
X195892957Y-91703400D01*
X195964385Y-91417685D01*
X196035814Y-91274828D01*
X196107242Y-91203400D01*
X196250100Y-91131971D01*
X197392957Y-92489114D02*
X197464385Y-92560542D01*
X197392957Y-92631971D01*
X197321528Y-92560542D01*
X197392957Y-92489114D01*
X197392957Y-92631971D01*
X198892957Y-92631971D02*
X198035814Y-92631971D01*
X198464385Y-92631971D02*
X198464385Y-91131971D01*
X198321528Y-91346257D01*
X198178671Y-91489114D01*
X198035814Y-91560542D01*
X199392957Y-91131971D02*
X200392957Y-91131971D01*
X199750100Y-92631971D01*
X201678671Y-91131971D02*
X200964385Y-91131971D01*
X200892957Y-91846257D01*
X200964385Y-91774828D01*
X201107242Y-91703400D01*
X201464385Y-91703400D01*
X201607242Y-91774828D01*
X201678671Y-91846257D01*
X201750100Y-91989114D01*
X201750100Y-92346257D01*
X201678671Y-92489114D01*
X201607242Y-92560542D01*
X201464385Y-92631971D01*
X201107242Y-92631971D01*
X200964385Y-92560542D01*
X200892957Y-92489114D01*
X203535814Y-92631971D02*
X203535814Y-91631971D01*
X203535814Y-91774828D02*
X203607242Y-91703400D01*
X203750100Y-91631971D01*
X203964385Y-91631971D01*
X204107242Y-91703400D01*
X204178671Y-91846257D01*
X204178671Y-92631971D01*
X204178671Y-91846257D02*
X204250100Y-91703400D01*
X204392957Y-91631971D01*
X204607242Y-91631971D01*
X204750100Y-91703400D01*
X204821528Y-91846257D01*
X204821528Y-92631971D01*
X205535814Y-92631971D02*
X205535814Y-91631971D01*
X205535814Y-91774828D02*
X205607242Y-91703400D01*
X205750100Y-91631971D01*
X205964385Y-91631971D01*
X206107242Y-91703400D01*
X206178671Y-91846257D01*
X206178671Y-92631971D01*
X206178671Y-91846257D02*
X206250100Y-91703400D01*
X206392957Y-91631971D01*
X206607242Y-91631971D01*
X206750100Y-91703400D01*
X206821528Y-91846257D01*
X206821528Y-92631971D01*
X149964385Y-93681971D02*
X149964385Y-94039114D01*
X149607242Y-93896257D02*
X149964385Y-94039114D01*
X150321528Y-93896257D01*
X149750100Y-94324828D02*
X149964385Y-94039114D01*
X150178671Y-94324828D01*
X151821528Y-93681971D02*
X152678671Y-93681971D01*
X152250100Y-95181971D02*
X152250100Y-93681971D01*
X152964385Y-93681971D02*
X153464385Y-95181971D01*
X153964385Y-93681971D01*
X154392957Y-95110542D02*
X154607242Y-95181971D01*
X154964385Y-95181971D01*
X155107242Y-95110542D01*
X155178671Y-95039114D01*
X155250100Y-94896257D01*
X155250100Y-94753400D01*
X155178671Y-94610542D01*
X155107242Y-94539114D01*
X154964385Y-94467685D01*
X154678671Y-94396257D01*
X154535814Y-94324828D01*
X154464385Y-94253400D01*
X154392957Y-94110542D01*
X154392957Y-93967685D01*
X154464385Y-93824828D01*
X154535814Y-93753400D01*
X154678671Y-93681971D01*
X155035814Y-93681971D01*
X155250100Y-93753400D01*
X156178671Y-93681971D02*
X156464385Y-93681971D01*
X156607242Y-93753400D01*
X156750100Y-93896257D01*
X156821528Y-94181971D01*
X156821528Y-94681971D01*
X156750100Y-94967685D01*
X156607242Y-95110542D01*
X156464385Y-95181971D01*
X156178671Y-95181971D01*
X156035814Y-95110542D01*
X155892957Y-94967685D01*
X155821528Y-94681971D01*
X155821528Y-94181971D01*
X155892957Y-93896257D01*
X156035814Y-93753400D01*
X156178671Y-93681971D01*
X157464385Y-95181971D02*
X157464385Y-93681971D01*
X158035814Y-93681971D01*
X158178671Y-93753400D01*
X158250100Y-93824828D01*
X158321528Y-93967685D01*
X158321528Y-94181971D01*
X158250100Y-94324828D01*
X158178671Y-94396257D01*
X158035814Y-94467685D01*
X157464385Y-94467685D01*
X159892957Y-94181971D02*
X160464385Y-94181971D01*
X160107242Y-95181971D02*
X160107242Y-93896257D01*
X160178671Y-93753400D01*
X160321528Y-93681971D01*
X160464385Y-93681971D01*
X161178671Y-95181971D02*
X161035814Y-95110542D01*
X160964385Y-95039114D01*
X160892957Y-94896257D01*
X160892957Y-94467685D01*
X160964385Y-94324828D01*
X161035814Y-94253400D01*
X161178671Y-94181971D01*
X161392957Y-94181971D01*
X161535814Y-94253400D01*
X161607242Y-94324828D01*
X161678671Y-94467685D01*
X161678671Y-94896257D01*
X161607242Y-95039114D01*
X161535814Y-95110542D01*
X161392957Y-95181971D01*
X161178671Y-95181971D01*
X162535814Y-95181971D02*
X162392957Y-95110542D01*
X162321528Y-95039114D01*
X162250100Y-94896257D01*
X162250100Y-94467685D01*
X162321528Y-94324828D01*
X162392957Y-94253400D01*
X162535814Y-94181971D01*
X162750100Y-94181971D01*
X162892957Y-94253400D01*
X162964385Y-94324828D01*
X163035814Y-94467685D01*
X163035814Y-94896257D01*
X162964385Y-95039114D01*
X162892957Y-95110542D01*
X162750100Y-95181971D01*
X162535814Y-95181971D01*
X163464385Y-94181971D02*
X164035814Y-94181971D01*
X163678671Y-93681971D02*
X163678671Y-94967685D01*
X163750100Y-95110542D01*
X163892957Y-95181971D01*
X164035814Y-95181971D01*
X164535814Y-94181971D02*
X164535814Y-95681971D01*
X164535814Y-94253400D02*
X164678671Y-94181971D01*
X164964385Y-94181971D01*
X165107242Y-94253400D01*
X165178671Y-94324828D01*
X165250100Y-94467685D01*
X165250100Y-94896257D01*
X165178671Y-95039114D01*
X165107242Y-95110542D01*
X164964385Y-95181971D01*
X164678671Y-95181971D01*
X164535814Y-95110542D01*
X165892957Y-95181971D02*
X165892957Y-94181971D01*
X165892957Y-94467685D02*
X165964385Y-94324828D01*
X166035814Y-94253400D01*
X166178671Y-94181971D01*
X166321528Y-94181971D01*
X166821528Y-95181971D02*
X166821528Y-94181971D01*
X166821528Y-93681971D02*
X166750100Y-93753400D01*
X166821528Y-93824828D01*
X166892957Y-93753400D01*
X166821528Y-93681971D01*
X166821528Y-93824828D01*
X167535814Y-94181971D02*
X167535814Y-95181971D01*
X167535814Y-94324828D02*
X167607242Y-94253400D01*
X167750100Y-94181971D01*
X167964385Y-94181971D01*
X168107242Y-94253400D01*
X168178671Y-94396257D01*
X168178671Y-95181971D01*
X168678671Y-94181971D02*
X169250100Y-94181971D01*
X168892957Y-93681971D02*
X168892957Y-94967685D01*
X168964385Y-95110542D01*
X169107242Y-95181971D01*
X169250100Y-95181971D01*
X170678671Y-94181971D02*
X171250100Y-94181971D01*
X170892957Y-93681971D02*
X170892957Y-94967685D01*
X170964385Y-95110542D01*
X171107242Y-95181971D01*
X171250100Y-95181971D01*
X171964385Y-95181971D02*
X171821528Y-95110542D01*
X171750100Y-95039114D01*
X171678671Y-94896257D01*
X171678671Y-94467685D01*
X171750100Y-94324828D01*
X171821528Y-94253400D01*
X171964385Y-94181971D01*
X172178671Y-94181971D01*
X172321528Y-94253400D01*
X172392957Y-94324828D01*
X172464385Y-94467685D01*
X172464385Y-94896257D01*
X172392957Y-95039114D01*
X172321528Y-95110542D01*
X172178671Y-95181971D01*
X171964385Y-95181971D01*
X174892957Y-95181971D02*
X174892957Y-94396257D01*
X174821528Y-94253400D01*
X174678671Y-94181971D01*
X174392957Y-94181971D01*
X174250100Y-94253400D01*
X174892957Y-95110542D02*
X174750100Y-95181971D01*
X174392957Y-95181971D01*
X174250100Y-95110542D01*
X174178671Y-94967685D01*
X174178671Y-94824828D01*
X174250100Y-94681971D01*
X174392957Y-94610542D01*
X174750100Y-94610542D01*
X174892957Y-94539114D01*
X176250100Y-95110542D02*
X176107242Y-95181971D01*
X175821528Y-95181971D01*
X175678671Y-95110542D01*
X175607242Y-95039114D01*
X175535814Y-94896257D01*
X175535814Y-94467685D01*
X175607242Y-94324828D01*
X175678671Y-94253400D01*
X175821528Y-94181971D01*
X176107242Y-94181971D01*
X176250100Y-94253400D01*
X177535814Y-95110542D02*
X177392957Y-95181971D01*
X177107242Y-95181971D01*
X176964385Y-95110542D01*
X176892957Y-95039114D01*
X176821528Y-94896257D01*
X176821528Y-94467685D01*
X176892957Y-94324828D01*
X176964385Y-94253400D01*
X177107242Y-94181971D01*
X177392957Y-94181971D01*
X177535814Y-94253400D01*
X178392957Y-95181971D02*
X178250100Y-95110542D01*
X178178671Y-95039114D01*
X178107242Y-94896257D01*
X178107242Y-94467685D01*
X178178671Y-94324828D01*
X178250100Y-94253400D01*
X178392957Y-94181971D01*
X178607242Y-94181971D01*
X178750100Y-94253400D01*
X178821528Y-94324828D01*
X178892957Y-94467685D01*
X178892957Y-94896257D01*
X178821528Y-95039114D01*
X178750100Y-95110542D01*
X178607242Y-95181971D01*
X178392957Y-95181971D01*
X179535814Y-95181971D02*
X179535814Y-94181971D01*
X179535814Y-94324828D02*
X179607242Y-94253400D01*
X179750100Y-94181971D01*
X179964385Y-94181971D01*
X180107242Y-94253400D01*
X180178671Y-94396257D01*
X180178671Y-95181971D01*
X180178671Y-94396257D02*
X180250100Y-94253400D01*
X180392957Y-94181971D01*
X180607242Y-94181971D01*
X180750100Y-94253400D01*
X180821528Y-94396257D01*
X180821528Y-95181971D01*
X181750100Y-95181971D02*
X181607242Y-95110542D01*
X181535814Y-95039114D01*
X181464385Y-94896257D01*
X181464385Y-94467685D01*
X181535814Y-94324828D01*
X181607242Y-94253400D01*
X181750100Y-94181971D01*
X181964385Y-94181971D01*
X182107242Y-94253400D01*
X182178671Y-94324828D01*
X182250100Y-94467685D01*
X182250100Y-94896257D01*
X182178671Y-95039114D01*
X182107242Y-95110542D01*
X181964385Y-95181971D01*
X181750100Y-95181971D01*
X183535814Y-95181971D02*
X183535814Y-93681971D01*
X183535814Y-95110542D02*
X183392957Y-95181971D01*
X183107242Y-95181971D01*
X182964385Y-95110542D01*
X182892957Y-95039114D01*
X182821528Y-94896257D01*
X182821528Y-94467685D01*
X182892957Y-94324828D01*
X182964385Y-94253400D01*
X183107242Y-94181971D01*
X183392957Y-94181971D01*
X183535814Y-94253400D01*
X184892957Y-95181971D02*
X184892957Y-94396257D01*
X184821528Y-94253400D01*
X184678671Y-94181971D01*
X184392957Y-94181971D01*
X184250100Y-94253400D01*
X184892957Y-95110542D02*
X184750100Y-95181971D01*
X184392957Y-95181971D01*
X184250100Y-95110542D01*
X184178671Y-94967685D01*
X184178671Y-94824828D01*
X184250100Y-94681971D01*
X184392957Y-94610542D01*
X184750100Y-94610542D01*
X184892957Y-94539114D01*
X185392957Y-94181971D02*
X185964385Y-94181971D01*
X185607242Y-93681971D02*
X185607242Y-94967685D01*
X185678671Y-95110542D01*
X185821528Y-95181971D01*
X185964385Y-95181971D01*
X187035814Y-95110542D02*
X186892957Y-95181971D01*
X186607242Y-95181971D01*
X186464385Y-95110542D01*
X186392957Y-94967685D01*
X186392957Y-94396257D01*
X186464385Y-94253400D01*
X186607242Y-94181971D01*
X186892957Y-94181971D01*
X187035814Y-94253400D01*
X187107242Y-94396257D01*
X187107242Y-94539114D01*
X186392957Y-94681971D01*
X188678671Y-94181971D02*
X189250100Y-94181971D01*
X188892957Y-93681971D02*
X188892957Y-94967685D01*
X188964385Y-95110542D01*
X189107242Y-95181971D01*
X189250100Y-95181971D01*
X189750100Y-95181971D02*
X189750100Y-93681971D01*
X190392957Y-95181971D02*
X190392957Y-94396257D01*
X190321528Y-94253400D01*
X190178671Y-94181971D01*
X189964385Y-94181971D01*
X189821528Y-94253400D01*
X189750100Y-94324828D01*
X191678671Y-95110542D02*
X191535814Y-95181971D01*
X191250100Y-95181971D01*
X191107242Y-95110542D01*
X191035814Y-94967685D01*
X191035814Y-94396257D01*
X191107242Y-94253400D01*
X191250100Y-94181971D01*
X191535814Y-94181971D01*
X191678671Y-94253400D01*
X191750100Y-94396257D01*
X191750100Y-94539114D01*
X191035814Y-94681971D01*
X193321528Y-94181971D02*
X193892957Y-94181971D01*
X193535814Y-93681971D02*
X193535814Y-94967685D01*
X193607242Y-95110542D01*
X193750100Y-95181971D01*
X193892957Y-95181971D01*
X194607242Y-95181971D02*
X194464385Y-95110542D01*
X194392957Y-95039114D01*
X194321528Y-94896257D01*
X194321528Y-94467685D01*
X194392957Y-94324828D01*
X194464385Y-94253400D01*
X194607242Y-94181971D01*
X194821528Y-94181971D01*
X194964385Y-94253400D01*
X195035814Y-94324828D01*
X195107242Y-94467685D01*
X195107242Y-94896257D01*
X195035814Y-95039114D01*
X194964385Y-95110542D01*
X194821528Y-95181971D01*
X194607242Y-95181971D01*
X195964385Y-95181971D02*
X195821528Y-95110542D01*
X195750100Y-94967685D01*
X195750100Y-93681971D01*
X197107242Y-95110542D02*
X196964385Y-95181971D01*
X196678671Y-95181971D01*
X196535814Y-95110542D01*
X196464385Y-94967685D01*
X196464385Y-94396257D01*
X196535814Y-94253400D01*
X196678671Y-94181971D01*
X196964385Y-94181971D01*
X197107242Y-94253400D01*
X197178671Y-94396257D01*
X197178671Y-94539114D01*
X196464385Y-94681971D01*
X197821528Y-95181971D02*
X197821528Y-94181971D01*
X197821528Y-94467685D02*
X197892957Y-94324828D01*
X197964385Y-94253400D01*
X198107242Y-94181971D01*
X198250100Y-94181971D01*
X199392957Y-95181971D02*
X199392957Y-94396257D01*
X199321528Y-94253400D01*
X199178671Y-94181971D01*
X198892957Y-94181971D01*
X198750100Y-94253400D01*
X199392957Y-95110542D02*
X199250100Y-95181971D01*
X198892957Y-95181971D01*
X198750100Y-95110542D01*
X198678671Y-94967685D01*
X198678671Y-94824828D01*
X198750100Y-94681971D01*
X198892957Y-94610542D01*
X199250100Y-94610542D01*
X199392957Y-94539114D01*
X200107242Y-94181971D02*
X200107242Y-95181971D01*
X200107242Y-94324828D02*
X200178671Y-94253400D01*
X200321528Y-94181971D01*
X200535814Y-94181971D01*
X200678671Y-94253400D01*
X200750100Y-94396257D01*
X200750100Y-95181971D01*
X202107242Y-95110542D02*
X201964385Y-95181971D01*
X201678671Y-95181971D01*
X201535814Y-95110542D01*
X201464385Y-95039114D01*
X201392957Y-94896257D01*
X201392957Y-94467685D01*
X201464385Y-94324828D01*
X201535814Y-94253400D01*
X201678671Y-94181971D01*
X201964385Y-94181971D01*
X202107242Y-94253400D01*
X203321528Y-95110542D02*
X203178671Y-95181971D01*
X202892957Y-95181971D01*
X202750100Y-95110542D01*
X202678671Y-94967685D01*
X202678671Y-94396257D01*
X202750100Y-94253400D01*
X202892957Y-94181971D01*
X203178671Y-94181971D01*
X203321528Y-94253400D01*
X203392957Y-94396257D01*
X203392957Y-94539114D01*
X202678671Y-94681971D01*
X149964385Y-96231971D02*
X149964385Y-96589114D01*
X149607242Y-96446257D02*
X149964385Y-96589114D01*
X150321528Y-96446257D01*
X149750100Y-96874828D02*
X149964385Y-96589114D01*
X150178671Y-96874828D01*
X152535814Y-96946257D02*
X152035814Y-96946257D01*
X152035814Y-97731971D02*
X152035814Y-96231971D01*
X152750100Y-96231971D01*
X153321528Y-97731971D02*
X153321528Y-96731971D01*
X153321528Y-96231971D02*
X153250100Y-96303400D01*
X153321528Y-96374828D01*
X153392957Y-96303400D01*
X153321528Y-96231971D01*
X153321528Y-96374828D01*
X153892957Y-97731971D02*
X154678671Y-96731971D01*
X153892957Y-96731971D02*
X154678671Y-97731971D01*
X155821528Y-97660542D02*
X155678671Y-97731971D01*
X155392957Y-97731971D01*
X155250100Y-97660542D01*
X155178671Y-97517685D01*
X155178671Y-96946257D01*
X155250100Y-96803400D01*
X155392957Y-96731971D01*
X155678671Y-96731971D01*
X155821528Y-96803400D01*
X155892957Y-96946257D01*
X155892957Y-97089114D01*
X155178671Y-97231971D01*
X157178671Y-97731971D02*
X157178671Y-96231971D01*
X157178671Y-97660542D02*
X157035814Y-97731971D01*
X156750100Y-97731971D01*
X156607242Y-97660542D01*
X156535814Y-97589114D01*
X156464385Y-97446257D01*
X156464385Y-97017685D01*
X156535814Y-96874828D01*
X156607242Y-96803400D01*
X156750100Y-96731971D01*
X157035814Y-96731971D01*
X157178671Y-96803400D01*
X158892957Y-96731971D02*
X159178671Y-97731971D01*
X159464385Y-97017685D01*
X159750100Y-97731971D01*
X160035814Y-96731971D01*
X160607242Y-97731971D02*
X160607242Y-96731971D01*
X160607242Y-97017685D02*
X160678671Y-96874828D01*
X160750100Y-96803400D01*
X160892957Y-96731971D01*
X161035814Y-96731971D01*
X161750100Y-97731971D02*
X161607242Y-97660542D01*
X161535814Y-97589114D01*
X161464385Y-97446257D01*
X161464385Y-97017685D01*
X161535814Y-96874828D01*
X161607242Y-96803400D01*
X161750100Y-96731971D01*
X161964385Y-96731971D01*
X162107242Y-96803400D01*
X162178671Y-96874828D01*
X162250100Y-97017685D01*
X162250100Y-97446257D01*
X162178671Y-97589114D01*
X162107242Y-97660542D01*
X161964385Y-97731971D01*
X161750100Y-97731971D01*
X162892957Y-96731971D02*
X162892957Y-97731971D01*
X162892957Y-96874828D02*
X162964385Y-96803400D01*
X163107242Y-96731971D01*
X163321528Y-96731971D01*
X163464385Y-96803400D01*
X163535814Y-96946257D01*
X163535814Y-97731971D01*
X164892957Y-96731971D02*
X164892957Y-97946257D01*
X164821528Y-98089114D01*
X164750100Y-98160542D01*
X164607242Y-98231971D01*
X164392957Y-98231971D01*
X164250100Y-98160542D01*
X164892957Y-97660542D02*
X164750100Y-97731971D01*
X164464385Y-97731971D01*
X164321528Y-97660542D01*
X164250100Y-97589114D01*
X164178671Y-97446257D01*
X164178671Y-97017685D01*
X164250100Y-96874828D01*
X164321528Y-96803400D01*
X164464385Y-96731971D01*
X164750100Y-96731971D01*
X164892957Y-96803400D01*
X166750100Y-96731971D02*
X166750100Y-98231971D01*
X166750100Y-96803400D02*
X166892957Y-96731971D01*
X167178671Y-96731971D01*
X167321528Y-96803400D01*
X167392957Y-96874828D01*
X167464385Y-97017685D01*
X167464385Y-97446257D01*
X167392957Y-97589114D01*
X167321528Y-97660542D01*
X167178671Y-97731971D01*
X166892957Y-97731971D01*
X166750100Y-97660542D01*
X168321528Y-97731971D02*
X168178671Y-97660542D01*
X168107242Y-97517685D01*
X168107242Y-96231971D01*
X169535814Y-97731971D02*
X169535814Y-96946257D01*
X169464385Y-96803400D01*
X169321528Y-96731971D01*
X169035814Y-96731971D01*
X168892957Y-96803400D01*
X169535814Y-97660542D02*
X169392957Y-97731971D01*
X169035814Y-97731971D01*
X168892957Y-97660542D01*
X168821528Y-97517685D01*
X168821528Y-97374828D01*
X168892957Y-97231971D01*
X169035814Y-97160542D01*
X169392957Y-97160542D01*
X169535814Y-97089114D01*
X170892957Y-97660542D02*
X170750100Y-97731971D01*
X170464385Y-97731971D01*
X170321528Y-97660542D01*
X170250100Y-97589114D01*
X170178671Y-97446257D01*
X170178671Y-97017685D01*
X170250100Y-96874828D01*
X170321528Y-96803400D01*
X170464385Y-96731971D01*
X170750100Y-96731971D01*
X170892957Y-96803400D01*
X172107242Y-97660542D02*
X171964385Y-97731971D01*
X171678671Y-97731971D01*
X171535814Y-97660542D01*
X171464385Y-97517685D01*
X171464385Y-96946257D01*
X171535814Y-96803400D01*
X171678671Y-96731971D01*
X171964385Y-96731971D01*
X172107242Y-96803400D01*
X172178671Y-96946257D01*
X172178671Y-97089114D01*
X171464385Y-97231971D01*
X172821528Y-97731971D02*
X172821528Y-96731971D01*
X172821528Y-96874828D02*
X172892957Y-96803400D01*
X173035814Y-96731971D01*
X173250100Y-96731971D01*
X173392957Y-96803400D01*
X173464385Y-96946257D01*
X173464385Y-97731971D01*
X173464385Y-96946257D02*
X173535814Y-96803400D01*
X173678671Y-96731971D01*
X173892957Y-96731971D01*
X174035814Y-96803400D01*
X174107242Y-96946257D01*
X174107242Y-97731971D01*
X175392957Y-97660542D02*
X175250100Y-97731971D01*
X174964385Y-97731971D01*
X174821528Y-97660542D01*
X174750100Y-97517685D01*
X174750100Y-96946257D01*
X174821528Y-96803400D01*
X174964385Y-96731971D01*
X175250100Y-96731971D01*
X175392957Y-96803400D01*
X175464385Y-96946257D01*
X175464385Y-97089114D01*
X174750100Y-97231971D01*
X176107242Y-96731971D02*
X176107242Y-97731971D01*
X176107242Y-96874828D02*
X176178671Y-96803400D01*
X176321528Y-96731971D01*
X176535814Y-96731971D01*
X176678671Y-96803400D01*
X176750100Y-96946257D01*
X176750100Y-97731971D01*
X177250100Y-96731971D02*
X177821528Y-96731971D01*
X177464385Y-96231971D02*
X177464385Y-97517685D01*
X177535814Y-97660542D01*
X177678671Y-97731971D01*
X177821528Y-97731971D01*
X179678671Y-97731971D02*
X179535814Y-97660542D01*
X179464385Y-97589114D01*
X179392957Y-97446257D01*
X179392957Y-97017685D01*
X179464385Y-96874828D01*
X179535814Y-96803400D01*
X179678671Y-96731971D01*
X179892957Y-96731971D01*
X180035814Y-96803400D01*
X180107242Y-96874828D01*
X180178671Y-97017685D01*
X180178671Y-97446257D01*
X180107242Y-97589114D01*
X180035814Y-97660542D01*
X179892957Y-97731971D01*
X179678671Y-97731971D01*
X180607242Y-96731971D02*
X181178671Y-96731971D01*
X180821528Y-97731971D02*
X180821528Y-96446257D01*
X180892957Y-96303400D01*
X181035814Y-96231971D01*
X181178671Y-96231971D01*
X182821528Y-96731971D02*
X182821528Y-98231971D01*
X182821528Y-96803400D02*
X182964385Y-96731971D01*
X183250100Y-96731971D01*
X183392957Y-96803400D01*
X183464385Y-96874828D01*
X183535814Y-97017685D01*
X183535814Y-97446257D01*
X183464385Y-97589114D01*
X183392957Y-97660542D01*
X183250100Y-97731971D01*
X182964385Y-97731971D01*
X182821528Y-97660542D01*
X184178671Y-97731971D02*
X184178671Y-96731971D01*
X184178671Y-96874828D02*
X184250100Y-96803400D01*
X184392957Y-96731971D01*
X184607242Y-96731971D01*
X184750100Y-96803400D01*
X184821528Y-96946257D01*
X184821528Y-97731971D01*
X184821528Y-96946257D02*
X184892957Y-96803400D01*
X185035814Y-96731971D01*
X185250100Y-96731971D01*
X185392957Y-96803400D01*
X185464385Y-96946257D01*
X185464385Y-97731971D01*
X186392957Y-97731971D02*
X186250100Y-97660542D01*
X186178671Y-97589114D01*
X186107242Y-97446257D01*
X186107242Y-97017685D01*
X186178671Y-96874828D01*
X186250100Y-96803400D01*
X186392957Y-96731971D01*
X186607242Y-96731971D01*
X186750100Y-96803400D01*
X186821528Y-96874828D01*
X186892957Y-97017685D01*
X186892957Y-97446257D01*
X186821528Y-97589114D01*
X186750100Y-97660542D01*
X186607242Y-97731971D01*
X186392957Y-97731971D01*
X188178671Y-97731971D02*
X188178671Y-96231971D01*
X188178671Y-97660542D02*
X188035814Y-97731971D01*
X187750100Y-97731971D01*
X187607242Y-97660542D01*
X187535814Y-97589114D01*
X187464385Y-97446257D01*
X187464385Y-97017685D01*
X187535814Y-96874828D01*
X187607242Y-96803400D01*
X187750100Y-96731971D01*
X188035814Y-96731971D01*
X188178671Y-96803400D01*
X190678671Y-97660542D02*
X190535814Y-97731971D01*
X190250100Y-97731971D01*
X190107242Y-97660542D01*
X190035814Y-97589114D01*
X189964385Y-97446257D01*
X189964385Y-97017685D01*
X190035814Y-96874828D01*
X190107242Y-96803400D01*
X190250100Y-96731971D01*
X190535814Y-96731971D01*
X190678671Y-96803400D01*
X191535814Y-97731971D02*
X191392957Y-97660542D01*
X191321528Y-97589114D01*
X191250100Y-97446257D01*
X191250100Y-97017685D01*
X191321528Y-96874828D01*
X191392957Y-96803400D01*
X191535814Y-96731971D01*
X191750100Y-96731971D01*
X191892957Y-96803400D01*
X191964385Y-96874828D01*
X192035814Y-97017685D01*
X192035814Y-97446257D01*
X191964385Y-97589114D01*
X191892957Y-97660542D01*
X191750100Y-97731971D01*
X191535814Y-97731971D01*
X192678671Y-96731971D02*
X192678671Y-97731971D01*
X192678671Y-96874828D02*
X192750100Y-96803400D01*
X192892957Y-96731971D01*
X193107242Y-96731971D01*
X193250100Y-96803400D01*
X193321528Y-96946257D01*
X193321528Y-97731971D01*
X194035814Y-96731971D02*
X194035814Y-97731971D01*
X194035814Y-96874828D02*
X194107242Y-96803400D01*
X194250100Y-96731971D01*
X194464385Y-96731971D01*
X194607242Y-96803400D01*
X194678671Y-96946257D01*
X194678671Y-97731971D01*
X195964385Y-97660542D02*
X195821528Y-97731971D01*
X195535814Y-97731971D01*
X195392957Y-97660542D01*
X195321528Y-97517685D01*
X195321528Y-96946257D01*
X195392957Y-96803400D01*
X195535814Y-96731971D01*
X195821528Y-96731971D01*
X195964385Y-96803400D01*
X196035814Y-96946257D01*
X196035814Y-97089114D01*
X195321528Y-97231971D01*
X197321528Y-97660542D02*
X197178671Y-97731971D01*
X196892957Y-97731971D01*
X196750100Y-97660542D01*
X196678671Y-97589114D01*
X196607242Y-97446257D01*
X196607242Y-97017685D01*
X196678671Y-96874828D01*
X196750100Y-96803400D01*
X196892957Y-96731971D01*
X197178671Y-96731971D01*
X197321528Y-96803400D01*
X197750100Y-96731971D02*
X198321528Y-96731971D01*
X197964385Y-96231971D02*
X197964385Y-97517685D01*
X198035814Y-97660542D01*
X198178671Y-97731971D01*
X198321528Y-97731971D01*
X199035814Y-97731971D02*
X198892957Y-97660542D01*
X198821528Y-97589114D01*
X198750100Y-97446257D01*
X198750100Y-97017685D01*
X198821528Y-96874828D01*
X198892957Y-96803400D01*
X199035814Y-96731971D01*
X199250100Y-96731971D01*
X199392957Y-96803400D01*
X199464385Y-96874828D01*
X199535814Y-97017685D01*
X199535814Y-97446257D01*
X199464385Y-97589114D01*
X199392957Y-97660542D01*
X199250100Y-97731971D01*
X199035814Y-97731971D01*
X200178671Y-97731971D02*
X200178671Y-96731971D01*
X200178671Y-97017685D02*
X200250100Y-96874828D01*
X200321528Y-96803400D01*
X200464385Y-96731971D01*
X200607242Y-96731971D01*
X201035814Y-97660542D02*
X201178671Y-97731971D01*
X201464385Y-97731971D01*
X201607242Y-97660542D01*
X201678671Y-97517685D01*
X201678671Y-97446257D01*
X201607242Y-97303400D01*
X201464385Y-97231971D01*
X201250100Y-97231971D01*
X201107242Y-97160542D01*
X201035814Y-97017685D01*
X201035814Y-96946257D01*
X201107242Y-96803400D01*
X201250100Y-96731971D01*
X201464385Y-96731971D01*
X201607242Y-96803400D01*
X203321528Y-96731971D02*
X203607242Y-97731971D01*
X203892957Y-97017685D01*
X204178671Y-97731971D01*
X204464385Y-96731971D01*
X205035814Y-97731971D02*
X205035814Y-96731971D01*
X205035814Y-97017685D02*
X205107242Y-96874828D01*
X205178671Y-96803400D01*
X205321528Y-96731971D01*
X205464385Y-96731971D01*
X205750100Y-96731971D02*
X206321528Y-96731971D01*
X205964385Y-96231971D02*
X205964385Y-97517685D01*
X206035814Y-97660542D01*
X206178671Y-97731971D01*
X206321528Y-97731971D01*
X207964385Y-97731971D02*
X207964385Y-96231971D01*
X207964385Y-96803400D02*
X208107242Y-96731971D01*
X208392957Y-96731971D01*
X208535814Y-96803400D01*
X208607242Y-96874828D01*
X208678671Y-97017685D01*
X208678671Y-97446257D01*
X208607242Y-97589114D01*
X208535814Y-97660542D01*
X208392957Y-97731971D01*
X208107242Y-97731971D01*
X207964385Y-97660542D01*
X209535814Y-97731971D02*
X209392957Y-97660542D01*
X209321528Y-97589114D01*
X209250100Y-97446257D01*
X209250100Y-97017685D01*
X209321528Y-96874828D01*
X209392957Y-96803400D01*
X209535814Y-96731971D01*
X209750100Y-96731971D01*
X209892957Y-96803400D01*
X209964385Y-96874828D01*
X210035814Y-97017685D01*
X210035814Y-97446257D01*
X209964385Y-97589114D01*
X209892957Y-97660542D01*
X209750100Y-97731971D01*
X209535814Y-97731971D01*
X211321528Y-97731971D02*
X211321528Y-96946257D01*
X211250100Y-96803400D01*
X211107242Y-96731971D01*
X210821528Y-96731971D01*
X210678671Y-96803400D01*
X211321528Y-97660542D02*
X211178671Y-97731971D01*
X210821528Y-97731971D01*
X210678671Y-97660542D01*
X210607242Y-97517685D01*
X210607242Y-97374828D01*
X210678671Y-97231971D01*
X210821528Y-97160542D01*
X211178671Y-97160542D01*
X211321528Y-97089114D01*
X212035814Y-97731971D02*
X212035814Y-96731971D01*
X212035814Y-97017685D02*
X212107242Y-96874828D01*
X212178671Y-96803400D01*
X212321528Y-96731971D01*
X212464385Y-96731971D01*
X213607242Y-97731971D02*
X213607242Y-96231971D01*
X213607242Y-97660542D02*
X213464385Y-97731971D01*
X213178671Y-97731971D01*
X213035814Y-97660542D01*
X212964385Y-97589114D01*
X212892957Y-97446257D01*
X212892957Y-97017685D01*
X212964385Y-96874828D01*
X213035814Y-96803400D01*
X213178671Y-96731971D01*
X213464385Y-96731971D01*
X213607242Y-96803400D01*
X216035814Y-97660542D02*
X215892957Y-97731971D01*
X215607242Y-97731971D01*
X215464385Y-97660542D01*
X215392957Y-97517685D01*
X215392957Y-96946257D01*
X215464385Y-96803400D01*
X215607242Y-96731971D01*
X215892957Y-96731971D01*
X216035814Y-96803400D01*
X216107242Y-96946257D01*
X216107242Y-97089114D01*
X215392957Y-97231971D01*
X217392957Y-97731971D02*
X217392957Y-96231971D01*
X217392957Y-97660542D02*
X217250100Y-97731971D01*
X216964385Y-97731971D01*
X216821528Y-97660542D01*
X216750100Y-97589114D01*
X216678671Y-97446257D01*
X216678671Y-97017685D01*
X216750100Y-96874828D01*
X216821528Y-96803400D01*
X216964385Y-96731971D01*
X217250100Y-96731971D01*
X217392957Y-96803400D01*
X218750100Y-96731971D02*
X218750100Y-97946257D01*
X218678671Y-98089114D01*
X218607242Y-98160542D01*
X218464385Y-98231971D01*
X218250100Y-98231971D01*
X218107242Y-98160542D01*
X218750100Y-97660542D02*
X218607242Y-97731971D01*
X218321528Y-97731971D01*
X218178671Y-97660542D01*
X218107242Y-97589114D01*
X218035814Y-97446257D01*
X218035814Y-97017685D01*
X218107242Y-96874828D01*
X218178671Y-96803400D01*
X218321528Y-96731971D01*
X218607242Y-96731971D01*
X218750100Y-96803400D01*
X220035814Y-97660542D02*
X219892957Y-97731971D01*
X219607242Y-97731971D01*
X219464385Y-97660542D01*
X219392957Y-97517685D01*
X219392957Y-96946257D01*
X219464385Y-96803400D01*
X219607242Y-96731971D01*
X219892957Y-96731971D01*
X220035814Y-96803400D01*
X220107242Y-96946257D01*
X220107242Y-97089114D01*
X219392957Y-97231971D01*
X149964385Y-98781971D02*
X149964385Y-99139114D01*
X149607242Y-98996257D02*
X149964385Y-99139114D01*
X150321528Y-98996257D01*
X149750100Y-99424828D02*
X149964385Y-99139114D01*
X150178671Y-99424828D01*
X152535814Y-99496257D02*
X152035814Y-99496257D01*
X152035814Y-100281971D02*
X152035814Y-98781971D01*
X152750100Y-98781971D01*
X153321528Y-100281971D02*
X153321528Y-99281971D01*
X153321528Y-98781971D02*
X153250100Y-98853400D01*
X153321528Y-98924828D01*
X153392957Y-98853400D01*
X153321528Y-98781971D01*
X153321528Y-98924828D01*
X153892957Y-100281971D02*
X154678671Y-99281971D01*
X153892957Y-99281971D02*
X154678671Y-100281971D01*
X155821528Y-100210542D02*
X155678671Y-100281971D01*
X155392957Y-100281971D01*
X155250100Y-100210542D01*
X155178671Y-100067685D01*
X155178671Y-99496257D01*
X155250100Y-99353400D01*
X155392957Y-99281971D01*
X155678671Y-99281971D01*
X155821528Y-99353400D01*
X155892957Y-99496257D01*
X155892957Y-99639114D01*
X155178671Y-99781971D01*
X157178671Y-100281971D02*
X157178671Y-98781971D01*
X157178671Y-100210542D02*
X157035814Y-100281971D01*
X156750100Y-100281971D01*
X156607242Y-100210542D01*
X156535814Y-100139114D01*
X156464385Y-99996257D01*
X156464385Y-99567685D01*
X156535814Y-99424828D01*
X156607242Y-99353400D01*
X156750100Y-99281971D01*
X157035814Y-99281971D01*
X157178671Y-99353400D01*
X159750100Y-100281971D02*
X159035814Y-100281971D01*
X159035814Y-98781971D01*
X160250100Y-99496257D02*
X160750100Y-99496257D01*
X160964385Y-100281971D02*
X160250100Y-100281971D01*
X160250100Y-98781971D01*
X160964385Y-98781971D01*
X161607242Y-100281971D02*
X161607242Y-98781971D01*
X161964385Y-98781971D01*
X162178671Y-98853400D01*
X162321528Y-98996257D01*
X162392957Y-99139114D01*
X162464385Y-99424828D01*
X162464385Y-99639114D01*
X162392957Y-99924828D01*
X162321528Y-100067685D01*
X162178671Y-100210542D01*
X161964385Y-100281971D01*
X161607242Y-100281971D01*
X164178671Y-100210542D02*
X164321528Y-100281971D01*
X164607242Y-100281971D01*
X164750100Y-100210542D01*
X164821528Y-100067685D01*
X164821528Y-99996257D01*
X164750100Y-99853400D01*
X164607242Y-99781971D01*
X164392957Y-99781971D01*
X164250100Y-99710542D01*
X164178671Y-99567685D01*
X164178671Y-99496257D01*
X164250100Y-99353400D01*
X164392957Y-99281971D01*
X164607242Y-99281971D01*
X164750100Y-99353400D01*
X165321528Y-99281971D02*
X165607242Y-100281971D01*
X165892957Y-99567685D01*
X166178671Y-100281971D01*
X166464385Y-99281971D01*
X167678671Y-100281971D02*
X167678671Y-99496257D01*
X167607242Y-99353400D01*
X167464385Y-99281971D01*
X167178671Y-99281971D01*
X167035814Y-99353400D01*
X167678671Y-100210542D02*
X167535814Y-100281971D01*
X167178671Y-100281971D01*
X167035814Y-100210542D01*
X166964385Y-100067685D01*
X166964385Y-99924828D01*
X167035814Y-99781971D01*
X167178671Y-99710542D01*
X167535814Y-99710542D01*
X167678671Y-99639114D01*
X168392957Y-99281971D02*
X168392957Y-100781971D01*
X168392957Y-99353400D02*
X168535814Y-99281971D01*
X168821528Y-99281971D01*
X168964385Y-99353400D01*
X169035814Y-99424828D01*
X169107242Y-99567685D01*
X169107242Y-99996257D01*
X169035814Y-100139114D01*
X168964385Y-100210542D01*
X168821528Y-100281971D01*
X168535814Y-100281971D01*
X168392957Y-100210542D01*
X149964385Y-101331971D02*
X149964385Y-101689114D01*
X149607242Y-101546257D02*
X149964385Y-101689114D01*
X150321528Y-101546257D01*
X149750100Y-101974828D02*
X149964385Y-101689114D01*
X150178671Y-101974828D01*
X152035814Y-101331971D02*
X152035814Y-102546257D01*
X152107242Y-102689114D01*
X152178671Y-102760542D01*
X152321528Y-102831971D01*
X152607242Y-102831971D01*
X152750100Y-102760542D01*
X152821528Y-102689114D01*
X152892957Y-102546257D01*
X152892957Y-101331971D01*
X153535814Y-102760542D02*
X153678671Y-102831971D01*
X153964385Y-102831971D01*
X154107242Y-102760542D01*
X154178671Y-102617685D01*
X154178671Y-102546257D01*
X154107242Y-102403400D01*
X153964385Y-102331971D01*
X153750100Y-102331971D01*
X153607242Y-102260542D01*
X153535814Y-102117685D01*
X153535814Y-102046257D01*
X153607242Y-101903400D01*
X153750100Y-101831971D01*
X153964385Y-101831971D01*
X154107242Y-101903400D01*
X155392957Y-102760542D02*
X155250100Y-102831971D01*
X154964385Y-102831971D01*
X154821528Y-102760542D01*
X154750100Y-102617685D01*
X154750100Y-102046257D01*
X154821528Y-101903400D01*
X154964385Y-101831971D01*
X155250100Y-101831971D01*
X155392957Y-101903400D01*
X155464385Y-102046257D01*
X155464385Y-102189114D01*
X154750100Y-102331971D01*
X156750100Y-102831971D02*
X156750100Y-101331971D01*
X156750100Y-102760542D02*
X156607242Y-102831971D01*
X156321528Y-102831971D01*
X156178671Y-102760542D01*
X156107242Y-102689114D01*
X156035814Y-102546257D01*
X156035814Y-102117685D01*
X156107242Y-101974828D01*
X156178671Y-101903400D01*
X156321528Y-101831971D01*
X156607242Y-101831971D01*
X156750100Y-101903400D01*
X158892957Y-101331971D02*
X159035814Y-101331971D01*
X159178671Y-101403400D01*
X159250100Y-101474828D01*
X159321528Y-101617685D01*
X159392957Y-101903400D01*
X159392957Y-102260542D01*
X159321528Y-102546257D01*
X159250100Y-102689114D01*
X159178671Y-102760542D01*
X159035814Y-102831971D01*
X158892957Y-102831971D01*
X158750100Y-102760542D01*
X158678671Y-102689114D01*
X158607242Y-102546257D01*
X158535814Y-102260542D01*
X158535814Y-101903400D01*
X158607242Y-101617685D01*
X158678671Y-101474828D01*
X158750100Y-101403400D01*
X158892957Y-101331971D01*
X160250100Y-101974828D02*
X160107242Y-101903400D01*
X160035814Y-101831971D01*
X159964385Y-101689114D01*
X159964385Y-101617685D01*
X160035814Y-101474828D01*
X160107242Y-101403400D01*
X160250100Y-101331971D01*
X160535814Y-101331971D01*
X160678671Y-101403400D01*
X160750100Y-101474828D01*
X160821528Y-101617685D01*
X160821528Y-101689114D01*
X160750100Y-101831971D01*
X160678671Y-101903400D01*
X160535814Y-101974828D01*
X160250100Y-101974828D01*
X160107242Y-102046257D01*
X160035814Y-102117685D01*
X159964385Y-102260542D01*
X159964385Y-102546257D01*
X160035814Y-102689114D01*
X160107242Y-102760542D01*
X160250100Y-102831971D01*
X160535814Y-102831971D01*
X160678671Y-102760542D01*
X160750100Y-102689114D01*
X160821528Y-102546257D01*
X160821528Y-102260542D01*
X160750100Y-102117685D01*
X160678671Y-102046257D01*
X160535814Y-101974828D01*
X161750100Y-101331971D02*
X161892957Y-101331971D01*
X162035814Y-101403400D01*
X162107242Y-101474828D01*
X162178671Y-101617685D01*
X162250100Y-101903400D01*
X162250100Y-102260542D01*
X162178671Y-102546257D01*
X162107242Y-102689114D01*
X162035814Y-102760542D01*
X161892957Y-102831971D01*
X161750100Y-102831971D01*
X161607242Y-102760542D01*
X161535814Y-102689114D01*
X161464385Y-102546257D01*
X161392957Y-102260542D01*
X161392957Y-101903400D01*
X161464385Y-101617685D01*
X161535814Y-101474828D01*
X161607242Y-101403400D01*
X161750100Y-101331971D01*
X163607242Y-101331971D02*
X162892957Y-101331971D01*
X162821528Y-102046257D01*
X162892957Y-101974828D01*
X163035814Y-101903400D01*
X163392957Y-101903400D01*
X163535814Y-101974828D01*
X163607242Y-102046257D01*
X163678671Y-102189114D01*
X163678671Y-102546257D01*
X163607242Y-102689114D01*
X163535814Y-102760542D01*
X163392957Y-102831971D01*
X163035814Y-102831971D01*
X162892957Y-102760542D01*
X162821528Y-102689114D01*
X165464385Y-101831971D02*
X165464385Y-103331971D01*
X165464385Y-101903400D02*
X165607242Y-101831971D01*
X165892957Y-101831971D01*
X166035814Y-101903400D01*
X166107242Y-101974828D01*
X166178671Y-102117685D01*
X166178671Y-102546257D01*
X166107242Y-102689114D01*
X166035814Y-102760542D01*
X165892957Y-102831971D01*
X165607242Y-102831971D01*
X165464385Y-102760542D01*
X167464385Y-102831971D02*
X167464385Y-102046257D01*
X167392957Y-101903400D01*
X167250100Y-101831971D01*
X166964385Y-101831971D01*
X166821528Y-101903400D01*
X167464385Y-102760542D02*
X167321528Y-102831971D01*
X166964385Y-102831971D01*
X166821528Y-102760542D01*
X166750100Y-102617685D01*
X166750100Y-102474828D01*
X166821528Y-102331971D01*
X166964385Y-102260542D01*
X167321528Y-102260542D01*
X167464385Y-102189114D01*
X168107242Y-102760542D02*
X168250100Y-102831971D01*
X168535814Y-102831971D01*
X168678671Y-102760542D01*
X168750100Y-102617685D01*
X168750100Y-102546257D01*
X168678671Y-102403400D01*
X168535814Y-102331971D01*
X168321528Y-102331971D01*
X168178671Y-102260542D01*
X168107242Y-102117685D01*
X168107242Y-102046257D01*
X168178671Y-101903400D01*
X168321528Y-101831971D01*
X168535814Y-101831971D01*
X168678671Y-101903400D01*
X169321528Y-102760542D02*
X169464385Y-102831971D01*
X169750100Y-102831971D01*
X169892957Y-102760542D01*
X169964385Y-102617685D01*
X169964385Y-102546257D01*
X169892957Y-102403400D01*
X169750100Y-102331971D01*
X169535814Y-102331971D01*
X169392957Y-102260542D01*
X169321528Y-102117685D01*
X169321528Y-102046257D01*
X169392957Y-101903400D01*
X169535814Y-101831971D01*
X169750100Y-101831971D01*
X169892957Y-101903400D01*
X170607242Y-102831971D02*
X170607242Y-101831971D01*
X170607242Y-101331971D02*
X170535814Y-101403400D01*
X170607242Y-101474828D01*
X170678671Y-101403400D01*
X170607242Y-101331971D01*
X170607242Y-101474828D01*
X171178671Y-101831971D02*
X171535814Y-102831971D01*
X171892957Y-101831971D01*
X173035814Y-102760542D02*
X172892957Y-102831971D01*
X172607242Y-102831971D01*
X172464385Y-102760542D01*
X172392957Y-102617685D01*
X172392957Y-102046257D01*
X172464385Y-101903400D01*
X172607242Y-101831971D01*
X172892957Y-101831971D01*
X173035814Y-101903400D01*
X173107242Y-102046257D01*
X173107242Y-102189114D01*
X172392957Y-102331971D01*
X173678671Y-102760542D02*
X173821528Y-102831971D01*
X174107242Y-102831971D01*
X174250100Y-102760542D01*
X174321528Y-102617685D01*
X174321528Y-102546257D01*
X174250100Y-102403400D01*
X174107242Y-102331971D01*
X173892957Y-102331971D01*
X173750100Y-102260542D01*
X173678671Y-102117685D01*
X173678671Y-102046257D01*
X173750100Y-101903400D01*
X173892957Y-101831971D01*
X174107242Y-101831971D01*
X174250100Y-101903400D01*
X149964385Y-103881971D02*
X149964385Y-104239114D01*
X149607242Y-104096257D02*
X149964385Y-104239114D01*
X150321528Y-104096257D01*
X149750100Y-104524828D02*
X149964385Y-104239114D01*
X150178671Y-104524828D01*
X151964385Y-104953400D02*
X152678671Y-104953400D01*
X151821528Y-105381971D02*
X152321528Y-103881971D01*
X152821528Y-105381971D01*
X153964385Y-105381971D02*
X153964385Y-103881971D01*
X153964385Y-105310542D02*
X153821528Y-105381971D01*
X153535814Y-105381971D01*
X153392957Y-105310542D01*
X153321528Y-105239114D01*
X153250100Y-105096257D01*
X153250100Y-104667685D01*
X153321528Y-104524828D01*
X153392957Y-104453400D01*
X153535814Y-104381971D01*
X153821528Y-104381971D01*
X153964385Y-104453400D01*
X155321528Y-105381971D02*
X155321528Y-103881971D01*
X155321528Y-105310542D02*
X155178671Y-105381971D01*
X154892957Y-105381971D01*
X154750100Y-105310542D01*
X154678671Y-105239114D01*
X154607242Y-105096257D01*
X154607242Y-104667685D01*
X154678671Y-104524828D01*
X154750100Y-104453400D01*
X154892957Y-104381971D01*
X155178671Y-104381971D01*
X155321528Y-104453400D01*
X156607242Y-105310542D02*
X156464385Y-105381971D01*
X156178671Y-105381971D01*
X156035814Y-105310542D01*
X155964385Y-105167685D01*
X155964385Y-104596257D01*
X156035814Y-104453400D01*
X156178671Y-104381971D01*
X156464385Y-104381971D01*
X156607242Y-104453400D01*
X156678671Y-104596257D01*
X156678671Y-104739114D01*
X155964385Y-104881971D01*
X157964385Y-105381971D02*
X157964385Y-103881971D01*
X157964385Y-105310542D02*
X157821528Y-105381971D01*
X157535814Y-105381971D01*
X157392957Y-105310542D01*
X157321528Y-105239114D01*
X157250100Y-105096257D01*
X157250100Y-104667685D01*
X157321528Y-104524828D01*
X157392957Y-104453400D01*
X157535814Y-104381971D01*
X157821528Y-104381971D01*
X157964385Y-104453400D01*
X159821528Y-105381971D02*
X159821528Y-103881971D01*
X160321528Y-104953400D01*
X160821528Y-103881971D01*
X160821528Y-105381971D01*
X161750100Y-105381971D02*
X161607242Y-105310542D01*
X161535814Y-105239114D01*
X161464385Y-105096257D01*
X161464385Y-104667685D01*
X161535814Y-104524828D01*
X161607242Y-104453400D01*
X161750100Y-104381971D01*
X161964385Y-104381971D01*
X162107242Y-104453400D01*
X162178671Y-104524828D01*
X162250100Y-104667685D01*
X162250100Y-105096257D01*
X162178671Y-105239114D01*
X162107242Y-105310542D01*
X161964385Y-105381971D01*
X161750100Y-105381971D01*
X163535814Y-104381971D02*
X163535814Y-105381971D01*
X162892957Y-104381971D02*
X162892957Y-105167685D01*
X162964385Y-105310542D01*
X163107242Y-105381971D01*
X163321528Y-105381971D01*
X163464385Y-105310542D01*
X163535814Y-105239114D01*
X164250100Y-104381971D02*
X164250100Y-105381971D01*
X164250100Y-104524828D02*
X164321528Y-104453400D01*
X164464385Y-104381971D01*
X164678671Y-104381971D01*
X164821528Y-104453400D01*
X164892957Y-104596257D01*
X164892957Y-105381971D01*
X165392957Y-104381971D02*
X165964385Y-104381971D01*
X165607242Y-103881971D02*
X165607242Y-105167685D01*
X165678671Y-105310542D01*
X165821528Y-105381971D01*
X165964385Y-105381971D01*
X166464385Y-105381971D02*
X166464385Y-104381971D01*
X166464385Y-103881971D02*
X166392957Y-103953400D01*
X166464385Y-104024828D01*
X166535814Y-103953400D01*
X166464385Y-103881971D01*
X166464385Y-104024828D01*
X167178671Y-104381971D02*
X167178671Y-105381971D01*
X167178671Y-104524828D02*
X167250100Y-104453400D01*
X167392957Y-104381971D01*
X167607242Y-104381971D01*
X167750100Y-104453400D01*
X167821528Y-104596257D01*
X167821528Y-105381971D01*
X169178671Y-104381971D02*
X169178671Y-105596257D01*
X169107242Y-105739114D01*
X169035814Y-105810542D01*
X168892957Y-105881971D01*
X168678671Y-105881971D01*
X168535814Y-105810542D01*
X169178671Y-105310542D02*
X169035814Y-105381971D01*
X168750100Y-105381971D01*
X168607242Y-105310542D01*
X168535814Y-105239114D01*
X168464385Y-105096257D01*
X168464385Y-104667685D01*
X168535814Y-104524828D01*
X168607242Y-104453400D01*
X168750100Y-104381971D01*
X169035814Y-104381971D01*
X169178671Y-104453400D01*
X171035814Y-105381971D02*
X171035814Y-103881971D01*
X171678671Y-105381971D02*
X171678671Y-104596257D01*
X171607242Y-104453400D01*
X171464385Y-104381971D01*
X171250100Y-104381971D01*
X171107242Y-104453400D01*
X171035814Y-104524828D01*
X172607242Y-105381971D02*
X172464385Y-105310542D01*
X172392957Y-105239114D01*
X172321528Y-105096257D01*
X172321528Y-104667685D01*
X172392957Y-104524828D01*
X172464385Y-104453400D01*
X172607242Y-104381971D01*
X172821528Y-104381971D01*
X172964385Y-104453400D01*
X173035814Y-104524828D01*
X173107242Y-104667685D01*
X173107242Y-105096257D01*
X173035814Y-105239114D01*
X172964385Y-105310542D01*
X172821528Y-105381971D01*
X172607242Y-105381971D01*
X173964385Y-105381971D02*
X173821528Y-105310542D01*
X173750100Y-105167685D01*
X173750100Y-103881971D01*
X175107242Y-105310542D02*
X174964385Y-105381971D01*
X174678671Y-105381971D01*
X174535814Y-105310542D01*
X174464385Y-105167685D01*
X174464385Y-104596257D01*
X174535814Y-104453400D01*
X174678671Y-104381971D01*
X174964385Y-104381971D01*
X175107242Y-104453400D01*
X175178671Y-104596257D01*
X175178671Y-104739114D01*
X174464385Y-104881971D01*
X175750100Y-105310542D02*
X175892957Y-105381971D01*
X176178671Y-105381971D01*
X176321528Y-105310542D01*
X176392957Y-105167685D01*
X176392957Y-105096257D01*
X176321528Y-104953400D01*
X176178671Y-104881971D01*
X175964385Y-104881971D01*
X175821528Y-104810542D01*
X175750100Y-104667685D01*
X175750100Y-104596257D01*
X175821528Y-104453400D01*
X175964385Y-104381971D01*
X176178671Y-104381971D01*
X176321528Y-104453400D01*
X149964385Y-106431971D02*
X149964385Y-106789114D01*
X149607242Y-106646257D02*
X149964385Y-106789114D01*
X150321528Y-106646257D01*
X149750100Y-107074828D02*
X149964385Y-106789114D01*
X150178671Y-107074828D01*
X152535814Y-107146257D02*
X152035814Y-107146257D01*
X152035814Y-107931971D02*
X152035814Y-106431971D01*
X152750100Y-106431971D01*
X153321528Y-107931971D02*
X153321528Y-106931971D01*
X153321528Y-106431971D02*
X153250100Y-106503400D01*
X153321528Y-106574828D01*
X153392957Y-106503400D01*
X153321528Y-106431971D01*
X153321528Y-106574828D01*
X153892957Y-107931971D02*
X154678671Y-106931971D01*
X153892957Y-106931971D02*
X154678671Y-107931971D01*
X155821528Y-107860542D02*
X155678671Y-107931971D01*
X155392957Y-107931971D01*
X155250100Y-107860542D01*
X155178671Y-107717685D01*
X155178671Y-107146257D01*
X155250100Y-107003400D01*
X155392957Y-106931971D01*
X155678671Y-106931971D01*
X155821528Y-107003400D01*
X155892957Y-107146257D01*
X155892957Y-107289114D01*
X155178671Y-107431971D01*
X157178671Y-107931971D02*
X157178671Y-106431971D01*
X157178671Y-107860542D02*
X157035814Y-107931971D01*
X156750100Y-107931971D01*
X156607242Y-107860542D01*
X156535814Y-107789114D01*
X156464385Y-107646257D01*
X156464385Y-107217685D01*
X156535814Y-107074828D01*
X156607242Y-107003400D01*
X156750100Y-106931971D01*
X157035814Y-106931971D01*
X157178671Y-107003400D01*
X159035814Y-106931971D02*
X159035814Y-108431971D01*
X159035814Y-107003400D02*
X159178671Y-106931971D01*
X159464385Y-106931971D01*
X159607242Y-107003400D01*
X159678671Y-107074828D01*
X159750100Y-107217685D01*
X159750100Y-107646257D01*
X159678671Y-107789114D01*
X159607242Y-107860542D01*
X159464385Y-107931971D01*
X159178671Y-107931971D01*
X159035814Y-107860542D01*
X160392957Y-107931971D02*
X160392957Y-106931971D01*
X160392957Y-107074828D02*
X160464385Y-107003400D01*
X160607242Y-106931971D01*
X160821528Y-106931971D01*
X160964385Y-107003400D01*
X161035814Y-107146257D01*
X161035814Y-107931971D01*
X161035814Y-107146257D02*
X161107242Y-107003400D01*
X161250100Y-106931971D01*
X161464385Y-106931971D01*
X161607242Y-107003400D01*
X161678671Y-107146257D01*
X161678671Y-107931971D01*
X162607242Y-107931971D02*
X162464385Y-107860542D01*
X162392957Y-107789114D01*
X162321528Y-107646257D01*
X162321528Y-107217685D01*
X162392957Y-107074828D01*
X162464385Y-107003400D01*
X162607242Y-106931971D01*
X162821528Y-106931971D01*
X162964385Y-107003400D01*
X163035814Y-107074828D01*
X163107242Y-107217685D01*
X163107242Y-107646257D01*
X163035814Y-107789114D01*
X162964385Y-107860542D01*
X162821528Y-107931971D01*
X162607242Y-107931971D01*
X164392957Y-107931971D02*
X164392957Y-106431971D01*
X164392957Y-107860542D02*
X164250100Y-107931971D01*
X163964385Y-107931971D01*
X163821528Y-107860542D01*
X163750100Y-107789114D01*
X163678671Y-107646257D01*
X163678671Y-107217685D01*
X163750100Y-107074828D01*
X163821528Y-107003400D01*
X163964385Y-106931971D01*
X164250100Y-106931971D01*
X164392957Y-107003400D01*
X166107242Y-106931971D02*
X166392957Y-107931971D01*
X166678671Y-107217685D01*
X166964385Y-107931971D01*
X167250100Y-106931971D01*
X167821528Y-107931971D02*
X167821528Y-106931971D01*
X167821528Y-107217685D02*
X167892957Y-107074828D01*
X167964385Y-107003400D01*
X168107242Y-106931971D01*
X168250100Y-106931971D01*
X168964385Y-107931971D02*
X168821528Y-107860542D01*
X168750100Y-107789114D01*
X168678671Y-107646257D01*
X168678671Y-107217685D01*
X168750100Y-107074828D01*
X168821528Y-107003400D01*
X168964385Y-106931971D01*
X169178671Y-106931971D01*
X169321528Y-107003400D01*
X169392957Y-107074828D01*
X169464385Y-107217685D01*
X169464385Y-107646257D01*
X169392957Y-107789114D01*
X169321528Y-107860542D01*
X169178671Y-107931971D01*
X168964385Y-107931971D01*
X170107242Y-106931971D02*
X170107242Y-107931971D01*
X170107242Y-107074828D02*
X170178671Y-107003400D01*
X170321528Y-106931971D01*
X170535814Y-106931971D01*
X170678671Y-107003400D01*
X170750100Y-107146257D01*
X170750100Y-107931971D01*
X172107242Y-106931971D02*
X172107242Y-108146257D01*
X172035814Y-108289114D01*
X171964385Y-108360542D01*
X171821528Y-108431971D01*
X171607242Y-108431971D01*
X171464385Y-108360542D01*
X172107242Y-107860542D02*
X171964385Y-107931971D01*
X171678671Y-107931971D01*
X171535814Y-107860542D01*
X171464385Y-107789114D01*
X171392957Y-107646257D01*
X171392957Y-107217685D01*
X171464385Y-107074828D01*
X171535814Y-107003400D01*
X171678671Y-106931971D01*
X171964385Y-106931971D01*
X172107242Y-107003400D01*
X173964385Y-106931971D02*
X173964385Y-107931971D01*
X173964385Y-107074828D02*
X174035814Y-107003400D01*
X174178671Y-106931971D01*
X174392957Y-106931971D01*
X174535814Y-107003400D01*
X174607242Y-107146257D01*
X174607242Y-107931971D01*
X175964385Y-106931971D02*
X175964385Y-107931971D01*
X175321528Y-106931971D02*
X175321528Y-107717685D01*
X175392957Y-107860542D01*
X175535814Y-107931971D01*
X175750100Y-107931971D01*
X175892957Y-107860542D01*
X175964385Y-107789114D01*
X176678671Y-107931971D02*
X176678671Y-106931971D01*
X176678671Y-107074828D02*
X176750100Y-107003400D01*
X176892957Y-106931971D01*
X177107242Y-106931971D01*
X177250100Y-107003400D01*
X177321528Y-107146257D01*
X177321528Y-107931971D01*
X177321528Y-107146257D02*
X177392957Y-107003400D01*
X177535814Y-106931971D01*
X177750100Y-106931971D01*
X177892957Y-107003400D01*
X177964385Y-107146257D01*
X177964385Y-107931971D01*
X178678671Y-107931971D02*
X178678671Y-106431971D01*
X178678671Y-107003400D02*
X178821528Y-106931971D01*
X179107242Y-106931971D01*
X179250100Y-107003400D01*
X179321528Y-107074828D01*
X179392957Y-107217685D01*
X179392957Y-107646257D01*
X179321528Y-107789114D01*
X179250100Y-107860542D01*
X179107242Y-107931971D01*
X178821528Y-107931971D01*
X178678671Y-107860542D01*
X180607242Y-107860542D02*
X180464385Y-107931971D01*
X180178671Y-107931971D01*
X180035814Y-107860542D01*
X179964385Y-107717685D01*
X179964385Y-107146257D01*
X180035814Y-107003400D01*
X180178671Y-106931971D01*
X180464385Y-106931971D01*
X180607242Y-107003400D01*
X180678671Y-107146257D01*
X180678671Y-107289114D01*
X179964385Y-107431971D01*
X181321528Y-107931971D02*
X181321528Y-106931971D01*
X181321528Y-107217685D02*
X181392957Y-107074828D01*
X181464385Y-107003400D01*
X181607242Y-106931971D01*
X181750100Y-106931971D01*
X182250100Y-107931971D02*
X182250100Y-106931971D01*
X182250100Y-106431971D02*
X182178671Y-106503400D01*
X182250100Y-106574828D01*
X182321528Y-106503400D01*
X182250100Y-106431971D01*
X182250100Y-106574828D01*
X182964385Y-106931971D02*
X182964385Y-107931971D01*
X182964385Y-107074828D02*
X183035814Y-107003400D01*
X183178671Y-106931971D01*
X183392957Y-106931971D01*
X183535814Y-107003400D01*
X183607242Y-107146257D01*
X183607242Y-107931971D01*
X184964385Y-106931971D02*
X184964385Y-108146257D01*
X184892957Y-108289114D01*
X184821528Y-108360542D01*
X184678671Y-108431971D01*
X184464385Y-108431971D01*
X184321528Y-108360542D01*
X184964385Y-107860542D02*
X184821528Y-107931971D01*
X184535814Y-107931971D01*
X184392957Y-107860542D01*
X184321528Y-107789114D01*
X184250100Y-107646257D01*
X184250100Y-107217685D01*
X184321528Y-107074828D01*
X184392957Y-107003400D01*
X184535814Y-106931971D01*
X184821528Y-106931971D01*
X184964385Y-107003400D01*
X149964385Y-108981971D02*
X149964385Y-109339114D01*
X149607242Y-109196257D02*
X149964385Y-109339114D01*
X150321528Y-109196257D01*
X149750100Y-109624828D02*
X149964385Y-109339114D01*
X150178671Y-109624828D01*
X152678671Y-110410542D02*
X152535814Y-110481971D01*
X152250100Y-110481971D01*
X152107242Y-110410542D01*
X152035814Y-110339114D01*
X151964385Y-110196257D01*
X151964385Y-109767685D01*
X152035814Y-109624828D01*
X152107242Y-109553400D01*
X152250100Y-109481971D01*
X152535814Y-109481971D01*
X152678671Y-109553400D01*
X153321528Y-110481971D02*
X153321528Y-108981971D01*
X153964385Y-110481971D02*
X153964385Y-109696257D01*
X153892957Y-109553400D01*
X153750100Y-109481971D01*
X153535814Y-109481971D01*
X153392957Y-109553400D01*
X153321528Y-109624828D01*
X155321528Y-110481971D02*
X155321528Y-109696257D01*
X155250100Y-109553400D01*
X155107242Y-109481971D01*
X154821528Y-109481971D01*
X154678671Y-109553400D01*
X155321528Y-110410542D02*
X155178671Y-110481971D01*
X154821528Y-110481971D01*
X154678671Y-110410542D01*
X154607242Y-110267685D01*
X154607242Y-110124828D01*
X154678671Y-109981971D01*
X154821528Y-109910542D01*
X155178671Y-109910542D01*
X155321528Y-109839114D01*
X156035814Y-109481971D02*
X156035814Y-110481971D01*
X156035814Y-109624828D02*
X156107242Y-109553400D01*
X156250100Y-109481971D01*
X156464385Y-109481971D01*
X156607242Y-109553400D01*
X156678671Y-109696257D01*
X156678671Y-110481971D01*
X158035814Y-109481971D02*
X158035814Y-110696257D01*
X157964385Y-110839114D01*
X157892957Y-110910542D01*
X157750100Y-110981971D01*
X157535814Y-110981971D01*
X157392957Y-110910542D01*
X158035814Y-110410542D02*
X157892957Y-110481971D01*
X157607242Y-110481971D01*
X157464385Y-110410542D01*
X157392957Y-110339114D01*
X157321528Y-110196257D01*
X157321528Y-109767685D01*
X157392957Y-109624828D01*
X157464385Y-109553400D01*
X157607242Y-109481971D01*
X157892957Y-109481971D01*
X158035814Y-109553400D01*
X159321528Y-110410542D02*
X159178671Y-110481971D01*
X158892957Y-110481971D01*
X158750100Y-110410542D01*
X158678671Y-110267685D01*
X158678671Y-109696257D01*
X158750100Y-109553400D01*
X158892957Y-109481971D01*
X159178671Y-109481971D01*
X159321528Y-109553400D01*
X159392957Y-109696257D01*
X159392957Y-109839114D01*
X158678671Y-109981971D01*
X161821528Y-110410542D02*
X161678671Y-110481971D01*
X161392957Y-110481971D01*
X161250100Y-110410542D01*
X161178671Y-110339114D01*
X161107242Y-110196257D01*
X161107242Y-109767685D01*
X161178671Y-109624828D01*
X161250100Y-109553400D01*
X161392957Y-109481971D01*
X161678671Y-109481971D01*
X161821528Y-109553400D01*
X162464385Y-110481971D02*
X162464385Y-108981971D01*
X163107242Y-110481971D02*
X163107242Y-109696257D01*
X163035814Y-109553400D01*
X162892957Y-109481971D01*
X162678671Y-109481971D01*
X162535814Y-109553400D01*
X162464385Y-109624828D01*
X163821528Y-110481971D02*
X163821528Y-109481971D01*
X163821528Y-108981971D02*
X163750100Y-109053400D01*
X163821528Y-109124828D01*
X163892957Y-109053400D01*
X163821528Y-108981971D01*
X163821528Y-109124828D01*
X164535814Y-109481971D02*
X164535814Y-110981971D01*
X164535814Y-109553400D02*
X164678671Y-109481971D01*
X164964385Y-109481971D01*
X165107242Y-109553400D01*
X165178671Y-109624828D01*
X165250100Y-109767685D01*
X165250100Y-110196257D01*
X165178671Y-110339114D01*
X165107242Y-110410542D01*
X164964385Y-110481971D01*
X164678671Y-110481971D01*
X164535814Y-110410542D01*
X166821528Y-109481971D02*
X167392957Y-109481971D01*
X167035814Y-108981971D02*
X167035814Y-110267685D01*
X167107242Y-110410542D01*
X167250100Y-110481971D01*
X167392957Y-110481971D01*
X168107242Y-110481971D02*
X167964385Y-110410542D01*
X167892957Y-110339114D01*
X167821528Y-110196257D01*
X167821528Y-109767685D01*
X167892957Y-109624828D01*
X167964385Y-109553400D01*
X168107242Y-109481971D01*
X168321528Y-109481971D01*
X168464385Y-109553400D01*
X168535814Y-109624828D01*
X168607242Y-109767685D01*
X168607242Y-110196257D01*
X168535814Y-110339114D01*
X168464385Y-110410542D01*
X168321528Y-110481971D01*
X168107242Y-110481971D01*
X170392957Y-108981971D02*
X170392957Y-110196257D01*
X170464385Y-110339114D01*
X170535814Y-110410542D01*
X170678671Y-110481971D01*
X170964385Y-110481971D01*
X171107242Y-110410542D01*
X171178671Y-110339114D01*
X171250100Y-110196257D01*
X171250100Y-108981971D01*
X172678671Y-110481971D02*
X171964385Y-110481971D01*
X171964385Y-108981971D01*
X172821528Y-110624828D02*
X173964385Y-110624828D01*
X174250100Y-110410542D02*
X174464385Y-110481971D01*
X174821528Y-110481971D01*
X174964385Y-110410542D01*
X175035814Y-110339114D01*
X175107242Y-110196257D01*
X175107242Y-110053400D01*
X175035814Y-109910542D01*
X174964385Y-109839114D01*
X174821528Y-109767685D01*
X174535814Y-109696257D01*
X174392957Y-109624828D01*
X174321528Y-109553400D01*
X174250100Y-109410542D01*
X174250100Y-109267685D01*
X174321528Y-109124828D01*
X174392957Y-109053400D01*
X174535814Y-108981971D01*
X174892957Y-108981971D01*
X175107242Y-109053400D01*
X175750100Y-110481971D02*
X175750100Y-108981971D01*
X176607242Y-110481971D01*
X176607242Y-108981971D01*
X177178671Y-108981971D02*
X178178671Y-108981971D01*
X177535814Y-110481971D01*
X179392957Y-109481971D02*
X179392957Y-110481971D01*
X179035814Y-108910542D02*
X178678671Y-109981971D01*
X179607242Y-109981971D01*
X181035814Y-110339114D02*
X180964385Y-110410542D01*
X180750100Y-110481971D01*
X180607242Y-110481971D01*
X180392957Y-110410542D01*
X180250100Y-110267685D01*
X180178671Y-110124828D01*
X180107242Y-109839114D01*
X180107242Y-109624828D01*
X180178671Y-109339114D01*
X180250100Y-109196257D01*
X180392957Y-109053400D01*
X180607242Y-108981971D01*
X180750100Y-108981971D01*
X180964385Y-109053400D01*
X181035814Y-109124828D01*
X182178671Y-109696257D02*
X182392957Y-109767685D01*
X182464385Y-109839114D01*
X182535814Y-109981971D01*
X182535814Y-110196257D01*
X182464385Y-110339114D01*
X182392957Y-110410542D01*
X182250100Y-110481971D01*
X181678671Y-110481971D01*
X181678671Y-108981971D01*
X182178671Y-108981971D01*
X182321528Y-109053400D01*
X182392957Y-109124828D01*
X182464385Y-109267685D01*
X182464385Y-109410542D01*
X182392957Y-109553400D01*
X182321528Y-109624828D01*
X182178671Y-109696257D01*
X181678671Y-109696257D01*
X182964385Y-108981971D02*
X183821528Y-108981971D01*
X183392957Y-110481971D02*
X183392957Y-108981971D01*
X185035814Y-110481971D02*
X184321528Y-110481971D01*
X184321528Y-108981971D01*
X185321528Y-108981971D02*
X185821528Y-110481971D01*
X186321528Y-108981971D01*
X187607242Y-110481971D02*
X186750100Y-110481971D01*
X187178671Y-110481971D02*
X187178671Y-108981971D01*
X187035814Y-109196257D01*
X186892957Y-109339114D01*
X186750100Y-109410542D01*
X188892957Y-108981971D02*
X188607242Y-108981971D01*
X188464385Y-109053400D01*
X188392957Y-109124828D01*
X188250100Y-109339114D01*
X188178671Y-109624828D01*
X188178671Y-110196257D01*
X188250100Y-110339114D01*
X188321528Y-110410542D01*
X188464385Y-110481971D01*
X188750100Y-110481971D01*
X188892957Y-110410542D01*
X188964385Y-110339114D01*
X189035814Y-110196257D01*
X189035814Y-109839114D01*
X188964385Y-109696257D01*
X188892957Y-109624828D01*
X188750100Y-109553400D01*
X188464385Y-109553400D01*
X188321528Y-109624828D01*
X188250100Y-109696257D01*
X188178671Y-109839114D01*
X189607242Y-109124828D02*
X189678671Y-109053400D01*
X189821528Y-108981971D01*
X190178671Y-108981971D01*
X190321528Y-109053400D01*
X190392957Y-109124828D01*
X190464385Y-109267685D01*
X190464385Y-109410542D01*
X190392957Y-109624828D01*
X189535814Y-110481971D01*
X190464385Y-110481971D01*
X191178671Y-110481971D02*
X191464385Y-110481971D01*
X191607242Y-110410542D01*
X191678671Y-110339114D01*
X191821528Y-110124828D01*
X191892957Y-109839114D01*
X191892957Y-109267685D01*
X191821528Y-109124828D01*
X191750100Y-109053400D01*
X191607242Y-108981971D01*
X191321528Y-108981971D01*
X191178671Y-109053400D01*
X191107242Y-109124828D01*
X191035814Y-109267685D01*
X191035814Y-109624828D01*
X191107242Y-109767685D01*
X191178671Y-109839114D01*
X191321528Y-109910542D01*
X191607242Y-109910542D01*
X191750100Y-109839114D01*
X191821528Y-109767685D01*
X191892957Y-109624828D01*
X192464385Y-109124828D02*
X192535814Y-109053400D01*
X192678671Y-108981971D01*
X193035814Y-108981971D01*
X193178671Y-109053400D01*
X193250100Y-109124828D01*
X193321528Y-109267685D01*
X193321528Y-109410542D01*
X193250100Y-109624828D01*
X192392957Y-110481971D01*
X193321528Y-110481971D01*
X194750099Y-109053400D02*
X194607242Y-108981971D01*
X194392957Y-108981971D01*
X194178671Y-109053400D01*
X194035814Y-109196257D01*
X193964385Y-109339114D01*
X193892957Y-109624828D01*
X193892957Y-109839114D01*
X193964385Y-110124828D01*
X194035814Y-110267685D01*
X194178671Y-110410542D01*
X194392957Y-110481971D01*
X194535814Y-110481971D01*
X194750099Y-110410542D01*
X194821528Y-110339114D01*
X194821528Y-109839114D01*
X194535814Y-109839114D01*
X196321528Y-110481971D02*
X195821528Y-109767685D01*
X195464385Y-110481971D02*
X195464385Y-108981971D01*
X196035814Y-108981971D01*
X196178671Y-109053400D01*
X196250099Y-109124828D01*
X196321528Y-109267685D01*
X196321528Y-109481971D01*
X196250099Y-109624828D01*
X196178671Y-109696257D01*
X196035814Y-109767685D01*
X195464385Y-109767685D01*
X198535814Y-111053400D02*
X198464385Y-110981971D01*
X198321528Y-110767685D01*
X198250099Y-110624828D01*
X198178671Y-110410542D01*
X198107242Y-110053400D01*
X198107242Y-109767685D01*
X198178671Y-109410542D01*
X198250099Y-109196257D01*
X198321528Y-109053400D01*
X198464385Y-108839114D01*
X198535814Y-108767685D01*
X198892957Y-108981971D02*
X199750099Y-108981971D01*
X199321528Y-110481971D02*
X199321528Y-108981971D01*
X200035814Y-108981971D02*
X200535814Y-110481971D01*
X201035814Y-108981971D01*
X201464385Y-110410542D02*
X201678671Y-110481971D01*
X202035814Y-110481971D01*
X202178671Y-110410542D01*
X202250099Y-110339114D01*
X202321528Y-110196257D01*
X202321528Y-110053400D01*
X202250099Y-109910542D01*
X202178671Y-109839114D01*
X202035814Y-109767685D01*
X201750099Y-109696257D01*
X201607242Y-109624828D01*
X201535814Y-109553400D01*
X201464385Y-109410542D01*
X201464385Y-109267685D01*
X201535814Y-109124828D01*
X201607242Y-109053400D01*
X201750099Y-108981971D01*
X202107242Y-108981971D01*
X202321528Y-109053400D01*
X202892957Y-110410542D02*
X203107242Y-110481971D01*
X203464385Y-110481971D01*
X203607242Y-110410542D01*
X203678671Y-110339114D01*
X203750099Y-110196257D01*
X203750099Y-110053400D01*
X203678671Y-109910542D01*
X203607242Y-109839114D01*
X203464385Y-109767685D01*
X203178671Y-109696257D01*
X203035814Y-109624828D01*
X202964385Y-109553400D01*
X202892957Y-109410542D01*
X202892957Y-109267685D01*
X202964385Y-109124828D01*
X203035814Y-109053400D01*
X203178671Y-108981971D01*
X203535814Y-108981971D01*
X203750099Y-109053400D01*
X204678671Y-108981971D02*
X204964385Y-108981971D01*
X205107242Y-109053400D01*
X205250099Y-109196257D01*
X205321528Y-109481971D01*
X205321528Y-109981971D01*
X205250099Y-110267685D01*
X205107242Y-110410542D01*
X204964385Y-110481971D01*
X204678671Y-110481971D01*
X204535814Y-110410542D01*
X204392957Y-110267685D01*
X204321528Y-109981971D01*
X204321528Y-109481971D01*
X204392957Y-109196257D01*
X204535814Y-109053400D01*
X204678671Y-108981971D01*
X205964385Y-110481971D02*
X205964385Y-108981971D01*
X206535814Y-108981971D01*
X206678671Y-109053400D01*
X206750099Y-109124828D01*
X206821528Y-109267685D01*
X206821528Y-109481971D01*
X206750099Y-109624828D01*
X206678671Y-109696257D01*
X206535814Y-109767685D01*
X205964385Y-109767685D01*
X208607242Y-109696257D02*
X209750099Y-109696257D01*
X209750099Y-110124828D02*
X208607242Y-110124828D01*
X210464385Y-109481971D02*
X211607242Y-109910542D01*
X210464385Y-110339114D01*
X213250099Y-108981971D02*
X214107242Y-108981971D01*
X213678671Y-110481971D02*
X213678671Y-108981971D01*
X214535814Y-110410542D02*
X214750099Y-110481971D01*
X215107242Y-110481971D01*
X215250099Y-110410542D01*
X215321528Y-110339114D01*
X215392957Y-110196257D01*
X215392957Y-110053400D01*
X215321528Y-109910542D01*
X215250099Y-109839114D01*
X215107242Y-109767685D01*
X214821528Y-109696257D01*
X214678671Y-109624828D01*
X214607242Y-109553400D01*
X214535814Y-109410542D01*
X214535814Y-109267685D01*
X214607242Y-109124828D01*
X214678671Y-109053400D01*
X214821528Y-108981971D01*
X215178671Y-108981971D01*
X215392957Y-109053400D01*
X215964385Y-110410542D02*
X216178671Y-110481971D01*
X216535814Y-110481971D01*
X216678671Y-110410542D01*
X216750099Y-110339114D01*
X216821528Y-110196257D01*
X216821528Y-110053400D01*
X216750099Y-109910542D01*
X216678671Y-109839114D01*
X216535814Y-109767685D01*
X216250099Y-109696257D01*
X216107242Y-109624828D01*
X216035814Y-109553400D01*
X215964385Y-109410542D01*
X215964385Y-109267685D01*
X216035814Y-109124828D01*
X216107242Y-109053400D01*
X216250099Y-108981971D01*
X216607242Y-108981971D01*
X216821528Y-109053400D01*
X217750100Y-108981971D02*
X218035814Y-108981971D01*
X218178671Y-109053400D01*
X218321528Y-109196257D01*
X218392957Y-109481971D01*
X218392957Y-109981971D01*
X218321528Y-110267685D01*
X218178671Y-110410542D01*
X218035814Y-110481971D01*
X217750100Y-110481971D01*
X217607242Y-110410542D01*
X217464385Y-110267685D01*
X217392957Y-109981971D01*
X217392957Y-109481971D01*
X217464385Y-109196257D01*
X217607242Y-109053400D01*
X217750100Y-108981971D01*
X219035814Y-110481971D02*
X219035814Y-108981971D01*
X219607242Y-108981971D01*
X219750099Y-109053400D01*
X219821528Y-109124828D01*
X219892957Y-109267685D01*
X219892957Y-109481971D01*
X219821528Y-109624828D01*
X219750099Y-109696257D01*
X219607242Y-109767685D01*
X219035814Y-109767685D01*
X220392957Y-111053400D02*
X220464385Y-110981971D01*
X220607242Y-110767685D01*
X220678671Y-110624828D01*
X220750099Y-110410542D01*
X220821528Y-110053400D01*
X220821528Y-109767685D01*
X220750099Y-109410542D01*
X220678671Y-109196257D01*
X220607242Y-109053400D01*
X220464385Y-108839114D01*
X220392957Y-108767685D01*
X149964385Y-111531971D02*
X149964385Y-111889114D01*
X149607242Y-111746257D02*
X149964385Y-111889114D01*
X150321528Y-111746257D01*
X149750100Y-112174828D02*
X149964385Y-111889114D01*
X150178671Y-112174828D01*
X152678671Y-112031971D02*
X152678671Y-113031971D01*
X152321528Y-111460542D02*
X151964385Y-112531971D01*
X152892957Y-112531971D01*
X154821528Y-113031971D02*
X154678671Y-112960542D01*
X154607242Y-112817685D01*
X154607242Y-111531971D01*
X156035814Y-113031971D02*
X156035814Y-112246257D01*
X155964385Y-112103400D01*
X155821528Y-112031971D01*
X155535814Y-112031971D01*
X155392957Y-112103400D01*
X156035814Y-112960542D02*
X155892957Y-113031971D01*
X155535814Y-113031971D01*
X155392957Y-112960542D01*
X155321528Y-112817685D01*
X155321528Y-112674828D01*
X155392957Y-112531971D01*
X155535814Y-112460542D01*
X155892957Y-112460542D01*
X156035814Y-112389114D01*
X156607242Y-112031971D02*
X156964385Y-113031971D01*
X157321528Y-112031971D02*
X156964385Y-113031971D01*
X156821528Y-113389114D01*
X156750100Y-113460542D01*
X156607242Y-113531971D01*
X158464385Y-112960542D02*
X158321528Y-113031971D01*
X158035814Y-113031971D01*
X157892957Y-112960542D01*
X157821528Y-112817685D01*
X157821528Y-112246257D01*
X157892957Y-112103400D01*
X158035814Y-112031971D01*
X158321528Y-112031971D01*
X158464385Y-112103400D01*
X158535814Y-112246257D01*
X158535814Y-112389114D01*
X157821528Y-112531971D01*
X159178671Y-113031971D02*
X159178671Y-112031971D01*
X159178671Y-112317685D02*
X159250100Y-112174828D01*
X159321528Y-112103400D01*
X159464385Y-112031971D01*
X159607242Y-112031971D01*
X161250100Y-113031971D02*
X161250100Y-111531971D01*
X161250100Y-112103400D02*
X161392957Y-112031971D01*
X161678671Y-112031971D01*
X161821528Y-112103400D01*
X161892957Y-112174828D01*
X161964385Y-112317685D01*
X161964385Y-112746257D01*
X161892957Y-112889114D01*
X161821528Y-112960542D01*
X161678671Y-113031971D01*
X161392957Y-113031971D01*
X161250100Y-112960542D01*
X162821528Y-113031971D02*
X162678671Y-112960542D01*
X162607242Y-112889114D01*
X162535814Y-112746257D01*
X162535814Y-112317685D01*
X162607242Y-112174828D01*
X162678671Y-112103400D01*
X162821528Y-112031971D01*
X163035814Y-112031971D01*
X163178671Y-112103400D01*
X163250100Y-112174828D01*
X163321528Y-112317685D01*
X163321528Y-112746257D01*
X163250100Y-112889114D01*
X163178671Y-112960542D01*
X163035814Y-113031971D01*
X162821528Y-113031971D01*
X164607242Y-113031971D02*
X164607242Y-112246257D01*
X164535814Y-112103400D01*
X164392957Y-112031971D01*
X164107242Y-112031971D01*
X163964385Y-112103400D01*
X164607242Y-112960542D02*
X164464385Y-113031971D01*
X164107242Y-113031971D01*
X163964385Y-112960542D01*
X163892957Y-112817685D01*
X163892957Y-112674828D01*
X163964385Y-112531971D01*
X164107242Y-112460542D01*
X164464385Y-112460542D01*
X164607242Y-112389114D01*
X165321528Y-113031971D02*
X165321528Y-112031971D01*
X165321528Y-112317685D02*
X165392957Y-112174828D01*
X165464385Y-112103400D01*
X165607242Y-112031971D01*
X165750100Y-112031971D01*
X166892957Y-113031971D02*
X166892957Y-111531971D01*
X166892957Y-112960542D02*
X166750100Y-113031971D01*
X166464385Y-113031971D01*
X166321528Y-112960542D01*
X166250100Y-112889114D01*
X166178671Y-112746257D01*
X166178671Y-112317685D01*
X166250100Y-112174828D01*
X166321528Y-112103400D01*
X166464385Y-112031971D01*
X166750100Y-112031971D01*
X166892957Y-112103400D01*
X148392957Y-114081971D02*
X149250100Y-114081971D01*
X148821528Y-115581971D02*
X148821528Y-114081971D01*
X150035814Y-114081971D02*
X150321528Y-114081971D01*
X150464385Y-114153400D01*
X150607242Y-114296257D01*
X150678671Y-114581971D01*
X150678671Y-115081971D01*
X150607242Y-115367685D01*
X150464385Y-115510542D01*
X150321528Y-115581971D01*
X150035814Y-115581971D01*
X149892957Y-115510542D01*
X149750100Y-115367685D01*
X149678671Y-115081971D01*
X149678671Y-114581971D01*
X149750100Y-114296257D01*
X149892957Y-114153400D01*
X150035814Y-114081971D01*
X151321528Y-115581971D02*
X151321528Y-114081971D01*
X151678671Y-114081971D01*
X151892957Y-114153400D01*
X152035814Y-114296257D01*
X152107242Y-114439114D01*
X152178671Y-114724828D01*
X152178671Y-114939114D01*
X152107242Y-115224828D01*
X152035814Y-115367685D01*
X151892957Y-115510542D01*
X151678671Y-115581971D01*
X151321528Y-115581971D01*
X153107242Y-114081971D02*
X153392957Y-114081971D01*
X153535814Y-114153400D01*
X153678671Y-114296257D01*
X153750100Y-114581971D01*
X153750100Y-115081971D01*
X153678671Y-115367685D01*
X153535814Y-115510542D01*
X153392957Y-115581971D01*
X153107242Y-115581971D01*
X152964385Y-115510542D01*
X152821528Y-115367685D01*
X152750100Y-115081971D01*
X152750100Y-114581971D01*
X152821528Y-114296257D01*
X152964385Y-114153400D01*
X153107242Y-114081971D01*
X155535814Y-115439114D02*
X155607242Y-115510542D01*
X155535814Y-115581971D01*
X155464385Y-115510542D01*
X155535814Y-115439114D01*
X155535814Y-115581971D01*
X155535814Y-114653400D02*
X155607242Y-114724828D01*
X155535814Y-114796257D01*
X155464385Y-114724828D01*
X155535814Y-114653400D01*
X155535814Y-114796257D01*
X149964385Y-116631971D02*
X149964385Y-116989114D01*
X149607242Y-116846257D02*
X149964385Y-116989114D01*
X150321528Y-116846257D01*
X149750100Y-117274828D02*
X149964385Y-116989114D01*
X150178671Y-117274828D01*
X152035814Y-118131971D02*
X152035814Y-117131971D01*
X152035814Y-117274828D02*
X152107242Y-117203400D01*
X152250100Y-117131971D01*
X152464385Y-117131971D01*
X152607242Y-117203400D01*
X152678671Y-117346257D01*
X152678671Y-118131971D01*
X152678671Y-117346257D02*
X152750100Y-117203400D01*
X152892957Y-117131971D01*
X153107242Y-117131971D01*
X153250100Y-117203400D01*
X153321528Y-117346257D01*
X153321528Y-118131971D01*
X154678671Y-117131971D02*
X154678671Y-118131971D01*
X154035814Y-117131971D02*
X154035814Y-117917685D01*
X154107242Y-118060542D01*
X154250100Y-118131971D01*
X154464385Y-118131971D01*
X154607242Y-118060542D01*
X154678671Y-117989114D01*
X155250100Y-118131971D02*
X156035814Y-117131971D01*
X155250100Y-117131971D02*
X156035814Y-118131971D01*
X156678671Y-118060542D02*
X156678671Y-118131971D01*
X156607242Y-118274828D01*
X156535814Y-118346257D01*
X159107242Y-118060542D02*
X158964385Y-118131971D01*
X158678671Y-118131971D01*
X158535814Y-118060542D01*
X158464385Y-117989114D01*
X158392957Y-117846257D01*
X158392957Y-117417685D01*
X158464385Y-117274828D01*
X158535814Y-117203400D01*
X158678671Y-117131971D01*
X158964385Y-117131971D01*
X159107242Y-117203400D01*
X160392957Y-118131971D02*
X160392957Y-117346257D01*
X160321528Y-117203400D01*
X160178671Y-117131971D01*
X159892957Y-117131971D01*
X159750100Y-117203400D01*
X160392957Y-118060542D02*
X160250100Y-118131971D01*
X159892957Y-118131971D01*
X159750100Y-118060542D01*
X159678671Y-117917685D01*
X159678671Y-117774828D01*
X159750100Y-117631971D01*
X159892957Y-117560542D01*
X160250100Y-117560542D01*
X160392957Y-117489114D01*
X161107242Y-117131971D02*
X161107242Y-118631971D01*
X161107242Y-117203400D02*
X161250100Y-117131971D01*
X161535814Y-117131971D01*
X161678671Y-117203400D01*
X161750100Y-117274828D01*
X161821528Y-117417685D01*
X161821528Y-117846257D01*
X161750100Y-117989114D01*
X161678671Y-118060542D01*
X161535814Y-118131971D01*
X161250100Y-118131971D01*
X161107242Y-118060542D01*
X163107242Y-118131971D02*
X163107242Y-117346257D01*
X163035814Y-117203400D01*
X162892957Y-117131971D01*
X162607242Y-117131971D01*
X162464385Y-117203400D01*
X163107242Y-118060542D02*
X162964385Y-118131971D01*
X162607242Y-118131971D01*
X162464385Y-118060542D01*
X162392957Y-117917685D01*
X162392957Y-117774828D01*
X162464385Y-117631971D01*
X162607242Y-117560542D01*
X162964385Y-117560542D01*
X163107242Y-117489114D01*
X163750100Y-118060542D02*
X163892957Y-118131971D01*
X164178671Y-118131971D01*
X164321528Y-118060542D01*
X164392957Y-117917685D01*
X164392957Y-117846257D01*
X164321528Y-117703400D01*
X164178671Y-117631971D01*
X163964385Y-117631971D01*
X163821528Y-117560542D01*
X163750100Y-117417685D01*
X163750100Y-117346257D01*
X163821528Y-117203400D01*
X163964385Y-117131971D01*
X164178671Y-117131971D01*
X164321528Y-117203400D01*
X167535814Y-118131971D02*
X167392957Y-118060542D01*
X167321528Y-117989114D01*
X167250100Y-117846257D01*
X167250100Y-117417685D01*
X167321528Y-117274828D01*
X167392957Y-117203400D01*
X167535814Y-117131971D01*
X167750100Y-117131971D01*
X167892957Y-117203400D01*
X167964385Y-117274828D01*
X168035814Y-117417685D01*
X168035814Y-117846257D01*
X167964385Y-117989114D01*
X167892957Y-118060542D01*
X167750100Y-118131971D01*
X167535814Y-118131971D01*
X168678671Y-117131971D02*
X168678671Y-118131971D01*
X168678671Y-117274828D02*
X168750100Y-117203400D01*
X168892957Y-117131971D01*
X169107242Y-117131971D01*
X169250100Y-117203400D01*
X169321528Y-117346257D01*
X169321528Y-118131971D01*
X170964385Y-117131971D02*
X171535814Y-117131971D01*
X171178671Y-116631971D02*
X171178671Y-117917685D01*
X171250100Y-118060542D01*
X171392957Y-118131971D01*
X171535814Y-118131971D01*
X172035814Y-118131971D02*
X172035814Y-116631971D01*
X172678671Y-118131971D02*
X172678671Y-117346257D01*
X172607242Y-117203400D01*
X172464385Y-117131971D01*
X172250100Y-117131971D01*
X172107242Y-117203400D01*
X172035814Y-117274828D01*
X173964385Y-118060542D02*
X173821528Y-118131971D01*
X173535814Y-118131971D01*
X173392957Y-118060542D01*
X173321528Y-117917685D01*
X173321528Y-117346257D01*
X173392957Y-117203400D01*
X173535814Y-117131971D01*
X173821528Y-117131971D01*
X173964385Y-117203400D01*
X174035814Y-117346257D01*
X174035814Y-117489114D01*
X173321528Y-117631971D01*
X175821528Y-118131971D02*
X175821528Y-116631971D01*
X175821528Y-117203400D02*
X175964385Y-117131971D01*
X176250100Y-117131971D01*
X176392957Y-117203400D01*
X176464385Y-117274828D01*
X176535814Y-117417685D01*
X176535814Y-117846257D01*
X176464385Y-117989114D01*
X176392957Y-118060542D01*
X176250100Y-118131971D01*
X175964385Y-118131971D01*
X175821528Y-118060542D01*
X177821528Y-118131971D02*
X177821528Y-117346257D01*
X177750100Y-117203400D01*
X177607242Y-117131971D01*
X177321528Y-117131971D01*
X177178671Y-117203400D01*
X177821528Y-118060542D02*
X177678671Y-118131971D01*
X177321528Y-118131971D01*
X177178671Y-118060542D01*
X177107242Y-117917685D01*
X177107242Y-117774828D01*
X177178671Y-117631971D01*
X177321528Y-117560542D01*
X177678671Y-117560542D01*
X177821528Y-117489114D01*
X179178671Y-118060542D02*
X179035814Y-118131971D01*
X178750100Y-118131971D01*
X178607242Y-118060542D01*
X178535814Y-117989114D01*
X178464385Y-117846257D01*
X178464385Y-117417685D01*
X178535814Y-117274828D01*
X178607242Y-117203400D01*
X178750100Y-117131971D01*
X179035814Y-117131971D01*
X179178671Y-117203400D01*
X179821528Y-118131971D02*
X179821528Y-116631971D01*
X179964385Y-117560542D02*
X180392957Y-118131971D01*
X180392957Y-117131971D02*
X179821528Y-117703400D01*
X181250100Y-117989114D02*
X181321528Y-118060542D01*
X181250100Y-118131971D01*
X181178671Y-118060542D01*
X181250100Y-117989114D01*
X181250100Y-118131971D01*
X180964385Y-116703400D02*
X181107242Y-116631971D01*
X181464385Y-116631971D01*
X181607242Y-116703400D01*
X181678671Y-116846257D01*
X181678671Y-116989114D01*
X181607242Y-117131971D01*
X181535814Y-117203400D01*
X181392957Y-117274828D01*
X181321528Y-117346257D01*
X181250100Y-117489114D01*
X181250100Y-117560542D01*
X149964385Y-119181971D02*
X149964385Y-119539114D01*
X149607242Y-119396257D02*
X149964385Y-119539114D01*
X150321528Y-119396257D01*
X149750100Y-119824828D02*
X149964385Y-119539114D01*
X150178671Y-119824828D01*
X151964385Y-120610542D02*
X152178671Y-120681971D01*
X152535814Y-120681971D01*
X152678671Y-120610542D01*
X152750100Y-120539114D01*
X152821528Y-120396257D01*
X152821528Y-120253400D01*
X152750100Y-120110542D01*
X152678671Y-120039114D01*
X152535814Y-119967685D01*
X152250100Y-119896257D01*
X152107242Y-119824828D01*
X152035814Y-119753400D01*
X151964385Y-119610542D01*
X151964385Y-119467685D01*
X152035814Y-119324828D01*
X152107242Y-119253400D01*
X152250100Y-119181971D01*
X152607242Y-119181971D01*
X152821528Y-119253400D01*
X154107242Y-119681971D02*
X154107242Y-120681971D01*
X153464385Y-119681971D02*
X153464385Y-120467685D01*
X153535814Y-120610542D01*
X153678671Y-120681971D01*
X153892957Y-120681971D01*
X154035814Y-120610542D01*
X154107242Y-120539114D01*
X154821528Y-120681971D02*
X154821528Y-119681971D01*
X154821528Y-119967685D02*
X154892957Y-119824828D01*
X154964385Y-119753400D01*
X155107242Y-119681971D01*
X155250100Y-119681971D01*
X155535814Y-119681971D02*
X156107242Y-119681971D01*
X155750100Y-120681971D02*
X155750100Y-119396257D01*
X155821528Y-119253400D01*
X155964385Y-119181971D01*
X156107242Y-119181971D01*
X157250100Y-120681971D02*
X157250100Y-119896257D01*
X157178671Y-119753400D01*
X157035814Y-119681971D01*
X156750100Y-119681971D01*
X156607242Y-119753400D01*
X157250100Y-120610542D02*
X157107242Y-120681971D01*
X156750100Y-120681971D01*
X156607242Y-120610542D01*
X156535814Y-120467685D01*
X156535814Y-120324828D01*
X156607242Y-120181971D01*
X156750100Y-120110542D01*
X157107242Y-120110542D01*
X157250100Y-120039114D01*
X158607242Y-120610542D02*
X158464385Y-120681971D01*
X158178671Y-120681971D01*
X158035814Y-120610542D01*
X157964385Y-120539114D01*
X157892957Y-120396257D01*
X157892957Y-119967685D01*
X157964385Y-119824828D01*
X158035814Y-119753400D01*
X158178671Y-119681971D01*
X158464385Y-119681971D01*
X158607242Y-119753400D01*
X159821528Y-120610542D02*
X159678671Y-120681971D01*
X159392957Y-120681971D01*
X159250100Y-120610542D01*
X159178671Y-120467685D01*
X159178671Y-119896257D01*
X159250100Y-119753400D01*
X159392957Y-119681971D01*
X159678671Y-119681971D01*
X159821528Y-119753400D01*
X159892957Y-119896257D01*
X159892957Y-120039114D01*
X159178671Y-120181971D01*
X161678671Y-120681971D02*
X161678671Y-119681971D01*
X161678671Y-119824828D02*
X161750100Y-119753400D01*
X161892957Y-119681971D01*
X162107242Y-119681971D01*
X162250100Y-119753400D01*
X162321528Y-119896257D01*
X162321528Y-120681971D01*
X162321528Y-119896257D02*
X162392957Y-119753400D01*
X162535814Y-119681971D01*
X162750100Y-119681971D01*
X162892957Y-119753400D01*
X162964385Y-119896257D01*
X162964385Y-120681971D01*
X163892957Y-120681971D02*
X163750100Y-120610542D01*
X163678671Y-120539114D01*
X163607242Y-120396257D01*
X163607242Y-119967685D01*
X163678671Y-119824828D01*
X163750100Y-119753400D01*
X163892957Y-119681971D01*
X164107242Y-119681971D01*
X164250100Y-119753400D01*
X164321528Y-119824828D01*
X164392957Y-119967685D01*
X164392957Y-120396257D01*
X164321528Y-120539114D01*
X164250100Y-120610542D01*
X164107242Y-120681971D01*
X163892957Y-120681971D01*
X165678671Y-119681971D02*
X165678671Y-120681971D01*
X165035814Y-119681971D02*
X165035814Y-120467685D01*
X165107242Y-120610542D01*
X165250100Y-120681971D01*
X165464385Y-120681971D01*
X165607242Y-120610542D01*
X165678671Y-120539114D01*
X166392957Y-119681971D02*
X166392957Y-120681971D01*
X166392957Y-119824828D02*
X166464385Y-119753400D01*
X166607242Y-119681971D01*
X166821528Y-119681971D01*
X166964385Y-119753400D01*
X167035814Y-119896257D01*
X167035814Y-120681971D01*
X167535814Y-119681971D02*
X168107242Y-119681971D01*
X167750100Y-119181971D02*
X167750100Y-120467685D01*
X167821528Y-120610542D01*
X167964385Y-120681971D01*
X168107242Y-120681971D01*
X169750100Y-120681971D02*
X169750100Y-119181971D01*
X170392957Y-120681971D02*
X170392957Y-119896257D01*
X170321528Y-119753400D01*
X170178671Y-119681971D01*
X169964385Y-119681971D01*
X169821528Y-119753400D01*
X169750100Y-119824828D01*
X171678671Y-120610542D02*
X171535814Y-120681971D01*
X171250100Y-120681971D01*
X171107242Y-120610542D01*
X171035814Y-120467685D01*
X171035814Y-119896257D01*
X171107242Y-119753400D01*
X171250100Y-119681971D01*
X171535814Y-119681971D01*
X171678671Y-119753400D01*
X171750100Y-119896257D01*
X171750100Y-120039114D01*
X171035814Y-120181971D01*
X173035814Y-120681971D02*
X173035814Y-119896257D01*
X172964385Y-119753400D01*
X172821528Y-119681971D01*
X172535814Y-119681971D01*
X172392957Y-119753400D01*
X173035814Y-120610542D02*
X172892957Y-120681971D01*
X172535814Y-120681971D01*
X172392957Y-120610542D01*
X172321528Y-120467685D01*
X172321528Y-120324828D01*
X172392957Y-120181971D01*
X172535814Y-120110542D01*
X172892957Y-120110542D01*
X173035814Y-120039114D01*
X174392957Y-120681971D02*
X174392957Y-119181971D01*
X174392957Y-120610542D02*
X174250100Y-120681971D01*
X173964385Y-120681971D01*
X173821528Y-120610542D01*
X173750100Y-120539114D01*
X173678671Y-120396257D01*
X173678671Y-119967685D01*
X173750100Y-119824828D01*
X173821528Y-119753400D01*
X173964385Y-119681971D01*
X174250100Y-119681971D01*
X174392957Y-119753400D01*
X175678671Y-120610542D02*
X175535814Y-120681971D01*
X175250100Y-120681971D01*
X175107242Y-120610542D01*
X175035814Y-120467685D01*
X175035814Y-119896257D01*
X175107242Y-119753400D01*
X175250100Y-119681971D01*
X175535814Y-119681971D01*
X175678671Y-119753400D01*
X175750100Y-119896257D01*
X175750100Y-120039114D01*
X175035814Y-120181971D01*
X176392957Y-120681971D02*
X176392957Y-119681971D01*
X176392957Y-119967685D02*
X176464385Y-119824828D01*
X176535814Y-119753400D01*
X176678671Y-119681971D01*
X176821528Y-119681971D01*
X177250100Y-120610542D02*
X177392957Y-120681971D01*
X177678671Y-120681971D01*
X177821528Y-120610542D01*
X177892957Y-120467685D01*
X177892957Y-120396257D01*
X177821528Y-120253400D01*
X177678671Y-120181971D01*
X177464385Y-120181971D01*
X177321528Y-120110542D01*
X177250100Y-119967685D01*
X177250100Y-119896257D01*
X177321528Y-119753400D01*
X177464385Y-119681971D01*
X177678671Y-119681971D01*
X177821528Y-119753400D01*
X179892957Y-120539114D02*
X179964385Y-120610542D01*
X179892957Y-120681971D01*
X179821528Y-120610542D01*
X179892957Y-120539114D01*
X179892957Y-120681971D01*
X179607242Y-119253400D02*
X179750100Y-119181971D01*
X180107242Y-119181971D01*
X180250100Y-119253400D01*
X180321528Y-119396257D01*
X180321528Y-119539114D01*
X180250100Y-119681971D01*
X180178671Y-119753400D01*
X180035814Y-119824828D01*
X179964385Y-119896257D01*
X179892957Y-120039114D01*
X179892957Y-120110542D01*
X149964385Y-121731971D02*
X149964385Y-122089114D01*
X149607242Y-121946257D02*
X149964385Y-122089114D01*
X150321528Y-121946257D01*
X149750100Y-122374828D02*
X149964385Y-122089114D01*
X150178671Y-122374828D01*
X152750100Y-123231971D02*
X152035814Y-123231971D01*
X152035814Y-121731971D01*
X153821528Y-123160542D02*
X153678671Y-123231971D01*
X153392957Y-123231971D01*
X153250100Y-123160542D01*
X153178671Y-123017685D01*
X153178671Y-122446257D01*
X153250100Y-122303400D01*
X153392957Y-122231971D01*
X153678671Y-122231971D01*
X153821528Y-122303400D01*
X153892957Y-122446257D01*
X153892957Y-122589114D01*
X153178671Y-122731971D01*
X154392957Y-122231971D02*
X154750100Y-123231971D01*
X155107242Y-122231971D01*
X156250100Y-123160542D02*
X156107242Y-123231971D01*
X155821528Y-123231971D01*
X155678671Y-123160542D01*
X155607242Y-123017685D01*
X155607242Y-122446257D01*
X155678671Y-122303400D01*
X155821528Y-122231971D01*
X156107242Y-122231971D01*
X156250100Y-122303400D01*
X156321528Y-122446257D01*
X156321528Y-122589114D01*
X155607242Y-122731971D01*
X157178671Y-123231971D02*
X157035814Y-123160542D01*
X156964385Y-123017685D01*
X156964385Y-121731971D01*
X158821528Y-123160542D02*
X158964385Y-123231971D01*
X159250100Y-123231971D01*
X159392957Y-123160542D01*
X159464385Y-123017685D01*
X159464385Y-122946257D01*
X159392957Y-122803400D01*
X159250100Y-122731971D01*
X159035814Y-122731971D01*
X158892957Y-122660542D01*
X158821528Y-122517685D01*
X158821528Y-122446257D01*
X158892957Y-122303400D01*
X159035814Y-122231971D01*
X159250100Y-122231971D01*
X159392957Y-122303400D01*
X160107242Y-123231971D02*
X160107242Y-121731971D01*
X160750100Y-123231971D02*
X160750100Y-122446257D01*
X160678671Y-122303400D01*
X160535814Y-122231971D01*
X160321528Y-122231971D01*
X160178671Y-122303400D01*
X160107242Y-122374828D01*
X161464385Y-123231971D02*
X161464385Y-122231971D01*
X161464385Y-121731971D02*
X161392957Y-121803400D01*
X161464385Y-121874828D01*
X161535814Y-121803400D01*
X161464385Y-121731971D01*
X161464385Y-121874828D01*
X161964385Y-122231971D02*
X162535814Y-122231971D01*
X162178671Y-123231971D02*
X162178671Y-121946257D01*
X162250100Y-121803400D01*
X162392957Y-121731971D01*
X162535814Y-121731971D01*
X162821528Y-122231971D02*
X163392957Y-122231971D01*
X163035814Y-121731971D02*
X163035814Y-123017685D01*
X163107242Y-123160542D01*
X163250100Y-123231971D01*
X163392957Y-123231971D01*
X164464385Y-123160542D02*
X164321528Y-123231971D01*
X164035814Y-123231971D01*
X163892957Y-123160542D01*
X163821528Y-123017685D01*
X163821528Y-122446257D01*
X163892957Y-122303400D01*
X164035814Y-122231971D01*
X164321528Y-122231971D01*
X164464385Y-122303400D01*
X164535814Y-122446257D01*
X164535814Y-122589114D01*
X163821528Y-122731971D01*
X165178671Y-123231971D02*
X165178671Y-122231971D01*
X165178671Y-122517685D02*
X165250100Y-122374828D01*
X165321528Y-122303400D01*
X165464385Y-122231971D01*
X165607242Y-122231971D01*
X168321528Y-121660542D02*
X167035814Y-123589114D01*
X169964385Y-123231971D02*
X169964385Y-121731971D01*
X170678671Y-122231971D02*
X170678671Y-123231971D01*
X170678671Y-122374828D02*
X170750100Y-122303400D01*
X170892957Y-122231971D01*
X171107242Y-122231971D01*
X171250100Y-122303400D01*
X171321528Y-122446257D01*
X171321528Y-123231971D01*
X172035814Y-122231971D02*
X172035814Y-123731971D01*
X172035814Y-122303400D02*
X172178671Y-122231971D01*
X172464385Y-122231971D01*
X172607242Y-122303400D01*
X172678671Y-122374828D01*
X172750100Y-122517685D01*
X172750100Y-122946257D01*
X172678671Y-123089114D01*
X172607242Y-123160542D01*
X172464385Y-123231971D01*
X172178671Y-123231971D01*
X172035814Y-123160542D01*
X174035814Y-122231971D02*
X174035814Y-123231971D01*
X173392957Y-122231971D02*
X173392957Y-123017685D01*
X173464385Y-123160542D01*
X173607242Y-123231971D01*
X173821528Y-123231971D01*
X173964385Y-123160542D01*
X174035814Y-123089114D01*
X174535814Y-122231971D02*
X175107242Y-122231971D01*
X174750100Y-121731971D02*
X174750100Y-123017685D01*
X174821528Y-123160542D01*
X174964385Y-123231971D01*
X175107242Y-123231971D01*
X176750100Y-122231971D02*
X176750100Y-123731971D01*
X176750100Y-122303400D02*
X176892957Y-122231971D01*
X177178671Y-122231971D01*
X177321528Y-122303400D01*
X177392957Y-122374828D01*
X177464385Y-122517685D01*
X177464385Y-122946257D01*
X177392957Y-123089114D01*
X177321528Y-123160542D01*
X177178671Y-123231971D01*
X176892957Y-123231971D01*
X176750100Y-123160542D01*
X178107242Y-123231971D02*
X178107242Y-122231971D01*
X178107242Y-122517685D02*
X178178671Y-122374828D01*
X178250100Y-122303400D01*
X178392957Y-122231971D01*
X178535814Y-122231971D01*
X179250100Y-123231971D02*
X179107242Y-123160542D01*
X179035814Y-123089114D01*
X178964385Y-122946257D01*
X178964385Y-122517685D01*
X179035814Y-122374828D01*
X179107242Y-122303400D01*
X179250100Y-122231971D01*
X179464385Y-122231971D01*
X179607242Y-122303400D01*
X179678671Y-122374828D01*
X179750100Y-122517685D01*
X179750100Y-122946257D01*
X179678671Y-123089114D01*
X179607242Y-123160542D01*
X179464385Y-123231971D01*
X179250100Y-123231971D01*
X180178671Y-122231971D02*
X180750100Y-122231971D01*
X180392957Y-121731971D02*
X180392957Y-123017685D01*
X180464385Y-123160542D01*
X180607242Y-123231971D01*
X180750100Y-123231971D01*
X181821528Y-123160542D02*
X181678671Y-123231971D01*
X181392957Y-123231971D01*
X181250100Y-123160542D01*
X181178671Y-123017685D01*
X181178671Y-122446257D01*
X181250100Y-122303400D01*
X181392957Y-122231971D01*
X181678671Y-122231971D01*
X181821528Y-122303400D01*
X181892957Y-122446257D01*
X181892957Y-122589114D01*
X181178671Y-122731971D01*
X183178671Y-123160542D02*
X183035814Y-123231971D01*
X182750100Y-123231971D01*
X182607242Y-123160542D01*
X182535814Y-123089114D01*
X182464385Y-122946257D01*
X182464385Y-122517685D01*
X182535814Y-122374828D01*
X182607242Y-122303400D01*
X182750100Y-122231971D01*
X183035814Y-122231971D01*
X183178671Y-122303400D01*
X183607242Y-122231971D02*
X184178671Y-122231971D01*
X183821528Y-121731971D02*
X183821528Y-123017685D01*
X183892957Y-123160542D01*
X184035814Y-123231971D01*
X184178671Y-123231971D01*
X184678671Y-123231971D02*
X184678671Y-122231971D01*
X184678671Y-121731971D02*
X184607242Y-121803400D01*
X184678671Y-121874828D01*
X184750100Y-121803400D01*
X184678671Y-121731971D01*
X184678671Y-121874828D01*
X185607242Y-123231971D02*
X185464385Y-123160542D01*
X185392957Y-123089114D01*
X185321528Y-122946257D01*
X185321528Y-122517685D01*
X185392957Y-122374828D01*
X185464385Y-122303400D01*
X185607242Y-122231971D01*
X185821528Y-122231971D01*
X185964385Y-122303400D01*
X186035814Y-122374828D01*
X186107242Y-122517685D01*
X186107242Y-122946257D01*
X186035814Y-123089114D01*
X185964385Y-123160542D01*
X185821528Y-123231971D01*
X185607242Y-123231971D01*
X186750100Y-122231971D02*
X186750100Y-123231971D01*
X186750100Y-122374828D02*
X186821528Y-122303400D01*
X186964385Y-122231971D01*
X187178671Y-122231971D01*
X187321528Y-122303400D01*
X187392957Y-122446257D01*
X187392957Y-123231971D01*
X189464385Y-123089114D02*
X189535814Y-123160542D01*
X189464385Y-123231971D01*
X189392957Y-123160542D01*
X189464385Y-123089114D01*
X189464385Y-123231971D01*
X189178671Y-121803400D02*
X189321528Y-121731971D01*
X189678671Y-121731971D01*
X189821528Y-121803400D01*
X189892957Y-121946257D01*
X189892957Y-122089114D01*
X189821528Y-122231971D01*
X189750100Y-122303400D01*
X189607242Y-122374828D01*
X189535814Y-122446257D01*
X189464385Y-122589114D01*
X189464385Y-122660542D01*
X149964385Y-124281971D02*
X149964385Y-124639114D01*
X149607242Y-124496257D02*
X149964385Y-124639114D01*
X150321528Y-124496257D01*
X149750100Y-124924828D02*
X149964385Y-124639114D01*
X150178671Y-124924828D01*
X152821528Y-125781971D02*
X151964385Y-125781971D01*
X152392957Y-125781971D02*
X152392957Y-124281971D01*
X152250100Y-124496257D01*
X152107242Y-124639114D01*
X151964385Y-124710542D01*
X153464385Y-125639114D02*
X153535814Y-125710542D01*
X153464385Y-125781971D01*
X153392957Y-125710542D01*
X153464385Y-125639114D01*
X153464385Y-125781971D01*
X154392957Y-124924828D02*
X154250100Y-124853400D01*
X154178671Y-124781971D01*
X154107242Y-124639114D01*
X154107242Y-124567685D01*
X154178671Y-124424828D01*
X154250100Y-124353400D01*
X154392957Y-124281971D01*
X154678671Y-124281971D01*
X154821528Y-124353400D01*
X154892957Y-124424828D01*
X154964385Y-124567685D01*
X154964385Y-124639114D01*
X154892957Y-124781971D01*
X154821528Y-124853400D01*
X154678671Y-124924828D01*
X154392957Y-124924828D01*
X154250100Y-124996257D01*
X154178671Y-125067685D01*
X154107242Y-125210542D01*
X154107242Y-125496257D01*
X154178671Y-125639114D01*
X154250100Y-125710542D01*
X154392957Y-125781971D01*
X154678671Y-125781971D01*
X154821528Y-125710542D01*
X154892957Y-125639114D01*
X154964385Y-125496257D01*
X154964385Y-125210542D01*
X154892957Y-125067685D01*
X154821528Y-124996257D01*
X154678671Y-124924828D01*
X155464385Y-124781971D02*
X155821528Y-125781971D01*
X156178671Y-124781971D01*
X158321528Y-126353400D02*
X158250100Y-126281971D01*
X158107242Y-126067685D01*
X158035814Y-125924828D01*
X157964385Y-125710542D01*
X157892957Y-125353400D01*
X157892957Y-125067685D01*
X157964385Y-124710542D01*
X158035814Y-124496257D01*
X158107242Y-124353400D01*
X158250100Y-124139114D01*
X158321528Y-124067685D01*
X159107242Y-125781971D02*
X158964385Y-125710542D01*
X158892957Y-125639114D01*
X158821528Y-125496257D01*
X158821528Y-125067685D01*
X158892957Y-124924828D01*
X158964385Y-124853400D01*
X159107242Y-124781971D01*
X159321528Y-124781971D01*
X159464385Y-124853400D01*
X159535814Y-124924828D01*
X159607242Y-125067685D01*
X159607242Y-125496257D01*
X159535814Y-125639114D01*
X159464385Y-125710542D01*
X159321528Y-125781971D01*
X159107242Y-125781971D01*
X160035814Y-124781971D02*
X160607242Y-124781971D01*
X160250100Y-124281971D02*
X160250100Y-125567685D01*
X160321528Y-125710542D01*
X160464385Y-125781971D01*
X160607242Y-125781971D01*
X161107242Y-125781971D02*
X161107242Y-124281971D01*
X161750100Y-125781971D02*
X161750100Y-124996257D01*
X161678671Y-124853400D01*
X161535814Y-124781971D01*
X161321528Y-124781971D01*
X161178671Y-124853400D01*
X161107242Y-124924828D01*
X163035814Y-125710542D02*
X162892957Y-125781971D01*
X162607242Y-125781971D01*
X162464385Y-125710542D01*
X162392957Y-125567685D01*
X162392957Y-124996257D01*
X162464385Y-124853400D01*
X162607242Y-124781971D01*
X162892957Y-124781971D01*
X163035814Y-124853400D01*
X163107242Y-124996257D01*
X163107242Y-125139114D01*
X162392957Y-125281971D01*
X163750100Y-125781971D02*
X163750100Y-124781971D01*
X163750100Y-125067685D02*
X163821528Y-124924828D01*
X163892957Y-124853400D01*
X164035814Y-124781971D01*
X164178671Y-124781971D01*
X166035814Y-125639114D02*
X166107242Y-125710542D01*
X166035814Y-125781971D01*
X165964385Y-125710542D01*
X166035814Y-125639114D01*
X166035814Y-125781971D01*
X165750100Y-124353400D02*
X165892957Y-124281971D01*
X166250100Y-124281971D01*
X166392957Y-124353400D01*
X166464385Y-124496257D01*
X166464385Y-124639114D01*
X166392957Y-124781971D01*
X166321528Y-124853400D01*
X166178671Y-124924828D01*
X166107242Y-124996257D01*
X166035814Y-125139114D01*
X166035814Y-125210542D01*
X166964385Y-126353400D02*
X167035814Y-126281971D01*
X167178671Y-126067685D01*
X167250100Y-125924828D01*
X167321528Y-125710542D01*
X167392957Y-125353400D01*
X167392957Y-125067685D01*
X167321528Y-124710542D01*
X167250100Y-124496257D01*
X167178671Y-124353400D01*
X167035814Y-124139114D01*
X166964385Y-124067685D01*
X169035814Y-124281971D02*
X169535814Y-125781971D01*
X170035814Y-124281971D01*
X170750100Y-125781971D02*
X170607242Y-125710542D01*
X170535814Y-125639114D01*
X170464385Y-125496257D01*
X170464385Y-125067685D01*
X170535814Y-124924828D01*
X170607242Y-124853400D01*
X170750100Y-124781971D01*
X170964385Y-124781971D01*
X171107242Y-124853400D01*
X171178671Y-124924828D01*
X171250100Y-125067685D01*
X171250100Y-125496257D01*
X171178671Y-125639114D01*
X171107242Y-125710542D01*
X170964385Y-125781971D01*
X170750100Y-125781971D01*
X172107242Y-125781971D02*
X171964385Y-125710542D01*
X171892957Y-125567685D01*
X171892957Y-124281971D01*
X172464385Y-124781971D02*
X173035814Y-124781971D01*
X172678671Y-124281971D02*
X172678671Y-125567685D01*
X172750100Y-125710542D01*
X172892957Y-125781971D01*
X173035814Y-125781971D01*
X174178671Y-125781971D02*
X174178671Y-124996257D01*
X174107242Y-124853400D01*
X173964385Y-124781971D01*
X173678671Y-124781971D01*
X173535814Y-124853400D01*
X174178671Y-125710542D02*
X174035814Y-125781971D01*
X173678671Y-125781971D01*
X173535814Y-125710542D01*
X173464385Y-125567685D01*
X173464385Y-125424828D01*
X173535814Y-125281971D01*
X173678671Y-125210542D01*
X174035814Y-125210542D01*
X174178671Y-125139114D01*
X175535814Y-124781971D02*
X175535814Y-125996257D01*
X175464385Y-126139114D01*
X175392957Y-126210542D01*
X175250100Y-126281971D01*
X175035814Y-126281971D01*
X174892957Y-126210542D01*
X175535814Y-125710542D02*
X175392957Y-125781971D01*
X175107242Y-125781971D01*
X174964385Y-125710542D01*
X174892957Y-125639114D01*
X174821528Y-125496257D01*
X174821528Y-125067685D01*
X174892957Y-124924828D01*
X174964385Y-124853400D01*
X175107242Y-124781971D01*
X175392957Y-124781971D01*
X175535814Y-124853400D01*
X176821528Y-125710542D02*
X176678671Y-125781971D01*
X176392957Y-125781971D01*
X176250100Y-125710542D01*
X176178671Y-125567685D01*
X176178671Y-124996257D01*
X176250100Y-124853400D01*
X176392957Y-124781971D01*
X176678671Y-124781971D01*
X176821528Y-124853400D01*
X176892957Y-124996257D01*
X176892957Y-125139114D01*
X176178671Y-125281971D01*
X178678671Y-125781971D02*
X178678671Y-124781971D01*
X178678671Y-125067685D02*
X178750100Y-124924828D01*
X178821528Y-124853400D01*
X178964385Y-124781971D01*
X179107242Y-124781971D01*
X180178671Y-125710542D02*
X180035814Y-125781971D01*
X179750100Y-125781971D01*
X179607242Y-125710542D01*
X179535814Y-125567685D01*
X179535814Y-124996257D01*
X179607242Y-124853400D01*
X179750100Y-124781971D01*
X180035814Y-124781971D01*
X180178671Y-124853400D01*
X180250100Y-124996257D01*
X180250100Y-125139114D01*
X179535814Y-125281971D01*
X180678671Y-124781971D02*
X181250100Y-124781971D01*
X180892957Y-125781971D02*
X180892957Y-124496257D01*
X180964385Y-124353400D01*
X181107242Y-124281971D01*
X181250100Y-124281971D01*
X182321528Y-125710542D02*
X182178671Y-125781971D01*
X181892957Y-125781971D01*
X181750100Y-125710542D01*
X181678671Y-125567685D01*
X181678671Y-124996257D01*
X181750100Y-124853400D01*
X181892957Y-124781971D01*
X182178671Y-124781971D01*
X182321528Y-124853400D01*
X182392957Y-124996257D01*
X182392957Y-125139114D01*
X181678671Y-125281971D01*
X183035814Y-125781971D02*
X183035814Y-124781971D01*
X183035814Y-125067685D02*
X183107242Y-124924828D01*
X183178671Y-124853400D01*
X183321528Y-124781971D01*
X183464385Y-124781971D01*
X184535814Y-125710542D02*
X184392957Y-125781971D01*
X184107242Y-125781971D01*
X183964385Y-125710542D01*
X183892957Y-125567685D01*
X183892957Y-124996257D01*
X183964385Y-124853400D01*
X184107242Y-124781971D01*
X184392957Y-124781971D01*
X184535814Y-124853400D01*
X184607242Y-124996257D01*
X184607242Y-125139114D01*
X183892957Y-125281971D01*
X185250100Y-124781971D02*
X185250100Y-125781971D01*
X185250100Y-124924828D02*
X185321528Y-124853400D01*
X185464385Y-124781971D01*
X185678671Y-124781971D01*
X185821528Y-124853400D01*
X185892957Y-124996257D01*
X185892957Y-125781971D01*
X187250100Y-125710542D02*
X187107242Y-125781971D01*
X186821528Y-125781971D01*
X186678671Y-125710542D01*
X186607242Y-125639114D01*
X186535814Y-125496257D01*
X186535814Y-125067685D01*
X186607242Y-124924828D01*
X186678671Y-124853400D01*
X186821528Y-124781971D01*
X187107242Y-124781971D01*
X187250100Y-124853400D01*
X188464385Y-125710542D02*
X188321528Y-125781971D01*
X188035814Y-125781971D01*
X187892957Y-125710542D01*
X187821528Y-125567685D01*
X187821528Y-124996257D01*
X187892957Y-124853400D01*
X188035814Y-124781971D01*
X188321528Y-124781971D01*
X188464385Y-124853400D01*
X188535814Y-124996257D01*
X188535814Y-125139114D01*
X187821528Y-125281971D01*
X190535814Y-125639114D02*
X190607242Y-125710542D01*
X190535814Y-125781971D01*
X190464385Y-125710542D01*
X190535814Y-125639114D01*
X190535814Y-125781971D01*
X190250100Y-124353400D02*
X190392957Y-124281971D01*
X190750100Y-124281971D01*
X190892957Y-124353400D01*
X190964385Y-124496257D01*
X190964385Y-124639114D01*
X190892957Y-124781971D01*
X190821528Y-124853400D01*
X190678671Y-124924828D01*
X190607242Y-124996257D01*
X190535814Y-125139114D01*
X190535814Y-125210542D01*
X194535814Y-125781971D02*
X194535814Y-124996257D01*
X194464385Y-124853400D01*
X194321528Y-124781971D01*
X194035814Y-124781971D01*
X193892957Y-124853400D01*
X194535814Y-125710542D02*
X194392957Y-125781971D01*
X194035814Y-125781971D01*
X193892957Y-125710542D01*
X193821528Y-125567685D01*
X193821528Y-125424828D01*
X193892957Y-125281971D01*
X194035814Y-125210542D01*
X194392957Y-125210542D01*
X194535814Y-125139114D01*
X195178671Y-125710542D02*
X195321528Y-125781971D01*
X195607242Y-125781971D01*
X195750100Y-125710542D01*
X195821528Y-125567685D01*
X195821528Y-125496257D01*
X195750100Y-125353400D01*
X195607242Y-125281971D01*
X195392957Y-125281971D01*
X195250100Y-125210542D01*
X195178671Y-125067685D01*
X195178671Y-124996257D01*
X195250100Y-124853400D01*
X195392957Y-124781971D01*
X195607242Y-124781971D01*
X195750100Y-124853400D01*
X197392957Y-124281971D02*
X197892957Y-125781971D01*
X198392957Y-124281971D01*
X198678671Y-124781971D02*
X199250100Y-124781971D01*
X198892957Y-124281971D02*
X198892957Y-125567685D01*
X198964385Y-125710542D01*
X199107242Y-125781971D01*
X199250100Y-125781971D01*
X199750100Y-125781971D02*
X199750100Y-124781971D01*
X199750100Y-125067685D02*
X199821528Y-124924828D01*
X199892957Y-124853400D01*
X200035814Y-124781971D01*
X200178671Y-124781971D01*
X201321528Y-124781971D02*
X201321528Y-125996257D01*
X201250100Y-126139114D01*
X201178671Y-126210542D01*
X201035814Y-126281971D01*
X200821528Y-126281971D01*
X200678671Y-126210542D01*
X201321528Y-125710542D02*
X201178671Y-125781971D01*
X200892957Y-125781971D01*
X200750100Y-125710542D01*
X200678671Y-125639114D01*
X200607242Y-125496257D01*
X200607242Y-125067685D01*
X200678671Y-124924828D01*
X200750100Y-124853400D01*
X200892957Y-124781971D01*
X201178671Y-124781971D01*
X201321528Y-124853400D01*
X201821528Y-124781971D02*
X202392957Y-124781971D01*
X202035814Y-124281971D02*
X202035814Y-125567685D01*
X202107242Y-125710542D01*
X202250100Y-125781971D01*
X202392957Y-125781971D01*
D11*
X126522535Y-118327142D02*
X126570155Y-118374761D01*
X126617774Y-118470000D01*
X126617774Y-118708095D01*
X126570155Y-118803333D01*
X126522535Y-118850952D01*
X126427297Y-118898571D01*
X126332059Y-118898571D01*
X126189202Y-118850952D01*
X125617774Y-118279523D01*
X125617774Y-118898571D01*
X126522535Y-119279523D02*
X126570155Y-119327142D01*
X126617774Y-119422380D01*
X126617774Y-119660476D01*
X126570155Y-119755714D01*
X126522535Y-119803333D01*
X126427297Y-119850952D01*
X126332059Y-119850952D01*
X126189202Y-119803333D01*
X125617774Y-119231904D01*
X125617774Y-119850952D01*
X125665393Y-120327142D02*
X125617774Y-120327142D01*
X125522535Y-120279523D01*
X125474916Y-120231904D01*
X126189202Y-120898571D02*
X126236821Y-120803333D01*
X126284440Y-120755714D01*
X126379678Y-120708095D01*
X126427297Y-120708095D01*
X126522535Y-120755714D01*
X126570155Y-120803333D01*
X126617774Y-120898571D01*
X126617774Y-121089047D01*
X126570155Y-121184285D01*
X126522535Y-121231904D01*
X126427297Y-121279523D01*
X126379678Y-121279523D01*
X126284440Y-121231904D01*
X126236821Y-121184285D01*
X126189202Y-121089047D01*
X126189202Y-120898571D01*
X126141583Y-120803333D01*
X126093964Y-120755714D01*
X125998726Y-120708095D01*
X125808250Y-120708095D01*
X125713012Y-120755714D01*
X125665393Y-120803333D01*
X125617774Y-120898571D01*
X125617774Y-121089047D01*
X125665393Y-121184285D01*
X125713012Y-121231904D01*
X125808250Y-121279523D01*
X125998726Y-121279523D01*
X126093964Y-121231904D01*
X126141583Y-121184285D01*
X126189202Y-121089047D01*
X126617774Y-122136666D02*
X126617774Y-121946190D01*
X126570155Y-121850952D01*
X126522535Y-121803333D01*
X126379678Y-121708095D01*
X126189202Y-121660476D01*
X125808250Y-121660476D01*
X125713012Y-121708095D01*
X125665393Y-121755714D01*
X125617774Y-121850952D01*
X125617774Y-122041428D01*
X125665393Y-122136666D01*
X125713012Y-122184285D01*
X125808250Y-122231904D01*
X126046345Y-122231904D01*
X126141583Y-122184285D01*
X126189202Y-122136666D01*
X126236821Y-122041428D01*
X126236821Y-121850952D01*
X126189202Y-121755714D01*
X126141583Y-121708095D01*
X126046345Y-121660476D01*
X126617774Y-122850952D02*
X126617774Y-122946190D01*
X126570155Y-123041428D01*
X126522535Y-123089047D01*
X126427297Y-123136666D01*
X126236821Y-123184285D01*
X125998726Y-123184285D01*
X125808250Y-123136666D01*
X125713012Y-123089047D01*
X125665393Y-123041428D01*
X125617774Y-122946190D01*
X125617774Y-122850952D01*
X125665393Y-122755714D01*
X125713012Y-122708095D01*
X125808250Y-122660476D01*
X125998726Y-122612857D01*
X126236821Y-122612857D01*
X126427297Y-122660476D01*
X126522535Y-122708095D01*
X126570155Y-122755714D01*
X126617774Y-122850952D01*
X125617774Y-124374761D02*
X126284440Y-124374761D01*
X126189202Y-124374761D02*
X126236821Y-124422380D01*
X126284440Y-124517619D01*
X126284440Y-124660476D01*
X126236821Y-124755714D01*
X126141583Y-124803333D01*
X125617774Y-124803333D01*
X126141583Y-124803333D02*
X126236821Y-124850952D01*
X126284440Y-124946190D01*
X126284440Y-125089047D01*
X126236821Y-125184285D01*
X126141583Y-125231904D01*
X125617774Y-125231904D01*
X125617774Y-125708095D02*
X126284440Y-125708095D01*
X126189202Y-125708095D02*
X126236821Y-125755714D01*
X126284440Y-125850952D01*
X126284440Y-125993809D01*
X126236821Y-126089047D01*
X126141583Y-126136666D01*
X125617774Y-126136666D01*
X126141583Y-126136666D02*
X126236821Y-126184285D01*
X126284440Y-126279523D01*
X126284440Y-126422380D01*
X126236821Y-126517619D01*
X126141583Y-126565238D01*
X125617774Y-126565238D01*
X124770155Y-111040000D02*
X124770155Y-133900000D01*
X104200000Y-111040000D02*
X125356576Y-111040000D01*
X104200000Y-133900000D02*
X125356576Y-133900000D01*
X124770155Y-133900000D02*
X124183734Y-132773496D01*
X124770155Y-133900000D02*
X125356576Y-132773496D01*
X124770155Y-111040000D02*
X124183734Y-112166504D01*
X124770155Y-111040000D02*
X125356576Y-112166504D01*
X102380714Y-102312352D02*
X102999761Y-102312352D01*
X102666428Y-102693305D01*
X102809285Y-102693305D01*
X102904523Y-102740924D01*
X102952142Y-102788543D01*
X102999761Y-102883781D01*
X102999761Y-103121876D01*
X102952142Y-103217114D01*
X102904523Y-103264733D01*
X102809285Y-103312352D01*
X102523571Y-103312352D01*
X102428333Y-103264733D01*
X102380714Y-103217114D01*
X103475952Y-103264733D02*
X103475952Y-103312352D01*
X103428333Y-103407591D01*
X103380714Y-103455210D01*
X104047380Y-102740924D02*
X103952142Y-102693305D01*
X103904523Y-102645686D01*
X103856904Y-102550448D01*
X103856904Y-102502829D01*
X103904523Y-102407591D01*
X103952142Y-102359972D01*
X104047380Y-102312352D01*
X104237857Y-102312352D01*
X104333095Y-102359972D01*
X104380714Y-102407591D01*
X104428333Y-102502829D01*
X104428333Y-102550448D01*
X104380714Y-102645686D01*
X104333095Y-102693305D01*
X104237857Y-102740924D01*
X104047380Y-102740924D01*
X103952142Y-102788543D01*
X103904523Y-102836162D01*
X103856904Y-102931400D01*
X103856904Y-103121876D01*
X103904523Y-103217114D01*
X103952142Y-103264733D01*
X104047380Y-103312352D01*
X104237857Y-103312352D01*
X104333095Y-103264733D01*
X104380714Y-103217114D01*
X104428333Y-103121876D01*
X104428333Y-102931400D01*
X104380714Y-102836162D01*
X104333095Y-102788543D01*
X104237857Y-102740924D01*
X105380714Y-103312352D02*
X104809285Y-103312352D01*
X105095000Y-103312352D02*
X105095000Y-102312352D01*
X104999761Y-102455210D01*
X104904523Y-102550448D01*
X104809285Y-102598067D01*
X105999761Y-102312352D02*
X106095000Y-102312352D01*
X106190238Y-102359972D01*
X106237857Y-102407591D01*
X106285476Y-102502829D01*
X106333095Y-102693305D01*
X106333095Y-102931400D01*
X106285476Y-103121876D01*
X106237857Y-103217114D01*
X106190238Y-103264733D01*
X106095000Y-103312352D01*
X105999761Y-103312352D01*
X105904523Y-103264733D01*
X105856904Y-103217114D01*
X105809285Y-103121876D01*
X105761666Y-102931400D01*
X105761666Y-102693305D01*
X105809285Y-102502829D01*
X105856904Y-102407591D01*
X105904523Y-102359972D01*
X105999761Y-102312352D01*
X107523571Y-103312352D02*
X107523571Y-102645686D01*
X107523571Y-102740924D02*
X107571190Y-102693305D01*
X107666428Y-102645686D01*
X107809285Y-102645686D01*
X107904523Y-102693305D01*
X107952142Y-102788543D01*
X107952142Y-103312352D01*
X107952142Y-102788543D02*
X107999761Y-102693305D01*
X108095000Y-102645686D01*
X108237857Y-102645686D01*
X108333095Y-102693305D01*
X108380714Y-102788543D01*
X108380714Y-103312352D01*
X108856904Y-103312352D02*
X108856904Y-102645686D01*
X108856904Y-102740924D02*
X108904523Y-102693305D01*
X108999761Y-102645686D01*
X109142619Y-102645686D01*
X109237857Y-102693305D01*
X109285476Y-102788543D01*
X109285476Y-103312352D01*
X109285476Y-102788543D02*
X109333095Y-102693305D01*
X109428333Y-102645686D01*
X109571190Y-102645686D01*
X109666428Y-102693305D01*
X109714047Y-102788543D01*
X109714047Y-103312352D01*
X108000000Y-104159972D02*
X104190000Y-104159972D01*
X108000000Y-112200000D02*
X108000000Y-103573551D01*
X104190000Y-112200000D02*
X104190000Y-103573551D01*
X104190000Y-104159972D02*
X105316504Y-103573551D01*
X104190000Y-104159972D02*
X105316504Y-104746393D01*
X108000000Y-104159972D02*
X106873496Y-103573551D01*
X108000000Y-104159972D02*
X106873496Y-104746393D01*
X58753591Y-111109380D02*
X58878591Y-110109380D01*
X59122638Y-110823666D01*
X59545257Y-110109380D01*
X59420257Y-111109380D01*
X60420257Y-111109380D02*
X59848829Y-111109380D01*
X60134543Y-111109380D02*
X60259543Y-110109380D01*
X60146448Y-110252238D01*
X60039305Y-110347476D01*
X59938114Y-110395095D01*
M02*
