G04 #@! TF.GenerationSoftware,KiCad,Pcbnew,5.1.10*
G04 #@! TF.CreationDate,2021-11-30T15:42:49+01:00*
G04 #@! TF.ProjectId,JTAGMux_1.0,4a544147-4d75-4785-9f31-2e302e6b6963,v1.0.1*
G04 #@! TF.SameCoordinates,Original*
G04 #@! TF.FileFunction,Soldermask,Top*
G04 #@! TF.FilePolarity,Negative*
%FSLAX46Y46*%
G04 Gerber Fmt 4.6, Leading zero omitted, Abs format (unit mm)*
G04 Created by KiCad (PCBNEW 5.1.10) date 2021-11-30 15:42:49*
%MOMM*%
%LPD*%
G01*
G04 APERTURE LIST*
%ADD10O,1.802000X1.802000*%
%ADD11C,3.802000*%
%ADD12C,0.100000*%
G04 APERTURE END LIST*
D10*
X73950000Y-156950000D03*
X76490000Y-156950000D03*
X73950000Y-154410000D03*
X76490000Y-154410000D03*
X73950000Y-151870000D03*
X76490000Y-151870000D03*
X73950000Y-149330000D03*
X76490000Y-149330000D03*
X73950000Y-146790000D03*
X76490000Y-146790000D03*
X73950000Y-144250000D03*
G36*
G01*
X75589000Y-145100000D02*
X75589000Y-143400000D01*
G75*
G02*
X75640000Y-143349000I51000J0D01*
G01*
X77340000Y-143349000D01*
G75*
G02*
X77391000Y-143400000I0J-51000D01*
G01*
X77391000Y-145100000D01*
G75*
G02*
X77340000Y-145151000I-51000J0D01*
G01*
X75640000Y-145151000D01*
G75*
G02*
X75589000Y-145100000I0J51000D01*
G01*
G37*
X73950000Y-134105000D03*
X76490000Y-134105000D03*
X73950000Y-131565000D03*
X76490000Y-131565000D03*
X73950000Y-129025000D03*
X76490000Y-129025000D03*
X73950000Y-126485000D03*
X76490000Y-126485000D03*
X73950000Y-123945000D03*
X76490000Y-123945000D03*
X73950000Y-121405000D03*
G36*
G01*
X75589000Y-122255000D02*
X75589000Y-120555000D01*
G75*
G02*
X75640000Y-120504000I51000J0D01*
G01*
X77340000Y-120504000D01*
G75*
G02*
X77391000Y-120555000I0J-51000D01*
G01*
X77391000Y-122255000D01*
G75*
G02*
X77340000Y-122306000I-51000J0D01*
G01*
X75640000Y-122306000D01*
G75*
G02*
X75589000Y-122255000I0J51000D01*
G01*
G37*
X86510000Y-131240000D03*
X89050000Y-131240000D03*
X86510000Y-133780000D03*
X89050000Y-133780000D03*
X86510000Y-136320000D03*
X89050000Y-136320000D03*
X86510000Y-138860000D03*
X89050000Y-138860000D03*
X86510000Y-141400000D03*
X89050000Y-141400000D03*
X86510000Y-143940000D03*
X89050000Y-143940000D03*
X86510000Y-146480000D03*
X89050000Y-146480000D03*
X86510000Y-149020000D03*
X89050000Y-149020000D03*
X86510000Y-151560000D03*
X89050000Y-151560000D03*
X86510000Y-154100000D03*
G36*
G01*
X89951000Y-153250000D02*
X89951000Y-154950000D01*
G75*
G02*
X89900000Y-155001000I-51000J0D01*
G01*
X88200000Y-155001000D01*
G75*
G02*
X88149000Y-154950000I0J51000D01*
G01*
X88149000Y-153250000D01*
G75*
G02*
X88200000Y-153199000I51000J0D01*
G01*
X89900000Y-153199000D01*
G75*
G02*
X89951000Y-153250000I0J-51000D01*
G01*
G37*
D11*
X124341600Y-121795700D03*
X124341600Y-156047600D03*
G36*
G01*
X99699000Y-157341750D02*
X99699000Y-156778250D01*
G75*
G02*
X99943250Y-156534000I244250J0D01*
G01*
X100431750Y-156534000D01*
G75*
G02*
X100676000Y-156778250I0J-244250D01*
G01*
X100676000Y-157341750D01*
G75*
G02*
X100431750Y-157586000I-244250J0D01*
G01*
X99943250Y-157586000D01*
G75*
G02*
X99699000Y-157341750I0J244250D01*
G01*
G37*
G36*
G01*
X98124000Y-157341750D02*
X98124000Y-156778250D01*
G75*
G02*
X98368250Y-156534000I244250J0D01*
G01*
X98856750Y-156534000D01*
G75*
G02*
X99101000Y-156778250I0J-244250D01*
G01*
X99101000Y-157341750D01*
G75*
G02*
X98856750Y-157586000I-244250J0D01*
G01*
X98368250Y-157586000D01*
G75*
G02*
X98124000Y-157341750I0J244250D01*
G01*
G37*
G36*
G01*
X107001000Y-149472500D02*
X107001000Y-149872500D01*
G75*
G02*
X106950000Y-149923500I-51000J0D01*
G01*
X105750000Y-149923500D01*
G75*
G02*
X105699000Y-149872500I0J51000D01*
G01*
X105699000Y-149472500D01*
G75*
G02*
X105750000Y-149421500I51000J0D01*
G01*
X106950000Y-149421500D01*
G75*
G02*
X107001000Y-149472500I0J-51000D01*
G01*
G37*
G36*
G01*
X107001000Y-148837500D02*
X107001000Y-149237500D01*
G75*
G02*
X106950000Y-149288500I-51000J0D01*
G01*
X105750000Y-149288500D01*
G75*
G02*
X105699000Y-149237500I0J51000D01*
G01*
X105699000Y-148837500D01*
G75*
G02*
X105750000Y-148786500I51000J0D01*
G01*
X106950000Y-148786500D01*
G75*
G02*
X107001000Y-148837500I0J-51000D01*
G01*
G37*
G36*
G01*
X107001000Y-148202500D02*
X107001000Y-148602500D01*
G75*
G02*
X106950000Y-148653500I-51000J0D01*
G01*
X105750000Y-148653500D01*
G75*
G02*
X105699000Y-148602500I0J51000D01*
G01*
X105699000Y-148202500D01*
G75*
G02*
X105750000Y-148151500I51000J0D01*
G01*
X106950000Y-148151500D01*
G75*
G02*
X107001000Y-148202500I0J-51000D01*
G01*
G37*
G36*
G01*
X107001000Y-147567500D02*
X107001000Y-147967500D01*
G75*
G02*
X106950000Y-148018500I-51000J0D01*
G01*
X105750000Y-148018500D01*
G75*
G02*
X105699000Y-147967500I0J51000D01*
G01*
X105699000Y-147567500D01*
G75*
G02*
X105750000Y-147516500I51000J0D01*
G01*
X106950000Y-147516500D01*
G75*
G02*
X107001000Y-147567500I0J-51000D01*
G01*
G37*
G36*
G01*
X107001000Y-146932500D02*
X107001000Y-147332500D01*
G75*
G02*
X106950000Y-147383500I-51000J0D01*
G01*
X105750000Y-147383500D01*
G75*
G02*
X105699000Y-147332500I0J51000D01*
G01*
X105699000Y-146932500D01*
G75*
G02*
X105750000Y-146881500I51000J0D01*
G01*
X106950000Y-146881500D01*
G75*
G02*
X107001000Y-146932500I0J-51000D01*
G01*
G37*
G36*
G01*
X107001000Y-146297500D02*
X107001000Y-146697500D01*
G75*
G02*
X106950000Y-146748500I-51000J0D01*
G01*
X105750000Y-146748500D01*
G75*
G02*
X105699000Y-146697500I0J51000D01*
G01*
X105699000Y-146297500D01*
G75*
G02*
X105750000Y-146246500I51000J0D01*
G01*
X106950000Y-146246500D01*
G75*
G02*
X107001000Y-146297500I0J-51000D01*
G01*
G37*
G36*
G01*
X107001000Y-145662500D02*
X107001000Y-146062500D01*
G75*
G02*
X106950000Y-146113500I-51000J0D01*
G01*
X105750000Y-146113500D01*
G75*
G02*
X105699000Y-146062500I0J51000D01*
G01*
X105699000Y-145662500D01*
G75*
G02*
X105750000Y-145611500I51000J0D01*
G01*
X106950000Y-145611500D01*
G75*
G02*
X107001000Y-145662500I0J-51000D01*
G01*
G37*
G36*
G01*
X107001000Y-145027500D02*
X107001000Y-145427500D01*
G75*
G02*
X106950000Y-145478500I-51000J0D01*
G01*
X105750000Y-145478500D01*
G75*
G02*
X105699000Y-145427500I0J51000D01*
G01*
X105699000Y-145027500D01*
G75*
G02*
X105750000Y-144976500I51000J0D01*
G01*
X106950000Y-144976500D01*
G75*
G02*
X107001000Y-145027500I0J-51000D01*
G01*
G37*
G36*
G01*
X107001000Y-144392500D02*
X107001000Y-144792500D01*
G75*
G02*
X106950000Y-144843500I-51000J0D01*
G01*
X105750000Y-144843500D01*
G75*
G02*
X105699000Y-144792500I0J51000D01*
G01*
X105699000Y-144392500D01*
G75*
G02*
X105750000Y-144341500I51000J0D01*
G01*
X106950000Y-144341500D01*
G75*
G02*
X107001000Y-144392500I0J-51000D01*
G01*
G37*
G36*
G01*
X107001000Y-143757500D02*
X107001000Y-144157500D01*
G75*
G02*
X106950000Y-144208500I-51000J0D01*
G01*
X105750000Y-144208500D01*
G75*
G02*
X105699000Y-144157500I0J51000D01*
G01*
X105699000Y-143757500D01*
G75*
G02*
X105750000Y-143706500I51000J0D01*
G01*
X106950000Y-143706500D01*
G75*
G02*
X107001000Y-143757500I0J-51000D01*
G01*
G37*
G36*
G01*
X107001000Y-143122500D02*
X107001000Y-143522500D01*
G75*
G02*
X106950000Y-143573500I-51000J0D01*
G01*
X105750000Y-143573500D01*
G75*
G02*
X105699000Y-143522500I0J51000D01*
G01*
X105699000Y-143122500D01*
G75*
G02*
X105750000Y-143071500I51000J0D01*
G01*
X106950000Y-143071500D01*
G75*
G02*
X107001000Y-143122500I0J-51000D01*
G01*
G37*
G36*
G01*
X107001000Y-142487500D02*
X107001000Y-142887500D01*
G75*
G02*
X106950000Y-142938500I-51000J0D01*
G01*
X105750000Y-142938500D01*
G75*
G02*
X105699000Y-142887500I0J51000D01*
G01*
X105699000Y-142487500D01*
G75*
G02*
X105750000Y-142436500I51000J0D01*
G01*
X106950000Y-142436500D01*
G75*
G02*
X107001000Y-142487500I0J-51000D01*
G01*
G37*
G36*
G01*
X107001000Y-141852500D02*
X107001000Y-142252500D01*
G75*
G02*
X106950000Y-142303500I-51000J0D01*
G01*
X105750000Y-142303500D01*
G75*
G02*
X105699000Y-142252500I0J51000D01*
G01*
X105699000Y-141852500D01*
G75*
G02*
X105750000Y-141801500I51000J0D01*
G01*
X106950000Y-141801500D01*
G75*
G02*
X107001000Y-141852500I0J-51000D01*
G01*
G37*
G36*
G01*
X107001000Y-141217500D02*
X107001000Y-141617500D01*
G75*
G02*
X106950000Y-141668500I-51000J0D01*
G01*
X105750000Y-141668500D01*
G75*
G02*
X105699000Y-141617500I0J51000D01*
G01*
X105699000Y-141217500D01*
G75*
G02*
X105750000Y-141166500I51000J0D01*
G01*
X106950000Y-141166500D01*
G75*
G02*
X107001000Y-141217500I0J-51000D01*
G01*
G37*
G36*
G01*
X107001000Y-140582500D02*
X107001000Y-140982500D01*
G75*
G02*
X106950000Y-141033500I-51000J0D01*
G01*
X105750000Y-141033500D01*
G75*
G02*
X105699000Y-140982500I0J51000D01*
G01*
X105699000Y-140582500D01*
G75*
G02*
X105750000Y-140531500I51000J0D01*
G01*
X106950000Y-140531500D01*
G75*
G02*
X107001000Y-140582500I0J-51000D01*
G01*
G37*
G36*
G01*
X107001000Y-139947500D02*
X107001000Y-140347500D01*
G75*
G02*
X106950000Y-140398500I-51000J0D01*
G01*
X105750000Y-140398500D01*
G75*
G02*
X105699000Y-140347500I0J51000D01*
G01*
X105699000Y-139947500D01*
G75*
G02*
X105750000Y-139896500I51000J0D01*
G01*
X106950000Y-139896500D01*
G75*
G02*
X107001000Y-139947500I0J-51000D01*
G01*
G37*
G36*
G01*
X107001000Y-139312500D02*
X107001000Y-139712500D01*
G75*
G02*
X106950000Y-139763500I-51000J0D01*
G01*
X105750000Y-139763500D01*
G75*
G02*
X105699000Y-139712500I0J51000D01*
G01*
X105699000Y-139312500D01*
G75*
G02*
X105750000Y-139261500I51000J0D01*
G01*
X106950000Y-139261500D01*
G75*
G02*
X107001000Y-139312500I0J-51000D01*
G01*
G37*
G36*
G01*
X107001000Y-138677500D02*
X107001000Y-139077500D01*
G75*
G02*
X106950000Y-139128500I-51000J0D01*
G01*
X105750000Y-139128500D01*
G75*
G02*
X105699000Y-139077500I0J51000D01*
G01*
X105699000Y-138677500D01*
G75*
G02*
X105750000Y-138626500I51000J0D01*
G01*
X106950000Y-138626500D01*
G75*
G02*
X107001000Y-138677500I0J-51000D01*
G01*
G37*
G36*
G01*
X107001000Y-138042500D02*
X107001000Y-138442500D01*
G75*
G02*
X106950000Y-138493500I-51000J0D01*
G01*
X105750000Y-138493500D01*
G75*
G02*
X105699000Y-138442500I0J51000D01*
G01*
X105699000Y-138042500D01*
G75*
G02*
X105750000Y-137991500I51000J0D01*
G01*
X106950000Y-137991500D01*
G75*
G02*
X107001000Y-138042500I0J-51000D01*
G01*
G37*
G36*
G01*
X107001000Y-137407500D02*
X107001000Y-137807500D01*
G75*
G02*
X106950000Y-137858500I-51000J0D01*
G01*
X105750000Y-137858500D01*
G75*
G02*
X105699000Y-137807500I0J51000D01*
G01*
X105699000Y-137407500D01*
G75*
G02*
X105750000Y-137356500I51000J0D01*
G01*
X106950000Y-137356500D01*
G75*
G02*
X107001000Y-137407500I0J-51000D01*
G01*
G37*
G36*
G01*
X107001000Y-136772500D02*
X107001000Y-137172500D01*
G75*
G02*
X106950000Y-137223500I-51000J0D01*
G01*
X105750000Y-137223500D01*
G75*
G02*
X105699000Y-137172500I0J51000D01*
G01*
X105699000Y-136772500D01*
G75*
G02*
X105750000Y-136721500I51000J0D01*
G01*
X106950000Y-136721500D01*
G75*
G02*
X107001000Y-136772500I0J-51000D01*
G01*
G37*
G36*
G01*
X107001000Y-136137500D02*
X107001000Y-136537500D01*
G75*
G02*
X106950000Y-136588500I-51000J0D01*
G01*
X105750000Y-136588500D01*
G75*
G02*
X105699000Y-136537500I0J51000D01*
G01*
X105699000Y-136137500D01*
G75*
G02*
X105750000Y-136086500I51000J0D01*
G01*
X106950000Y-136086500D01*
G75*
G02*
X107001000Y-136137500I0J-51000D01*
G01*
G37*
G36*
G01*
X107001000Y-135502500D02*
X107001000Y-135902500D01*
G75*
G02*
X106950000Y-135953500I-51000J0D01*
G01*
X105750000Y-135953500D01*
G75*
G02*
X105699000Y-135902500I0J51000D01*
G01*
X105699000Y-135502500D01*
G75*
G02*
X105750000Y-135451500I51000J0D01*
G01*
X106950000Y-135451500D01*
G75*
G02*
X107001000Y-135502500I0J-51000D01*
G01*
G37*
G36*
G01*
X107001000Y-134867500D02*
X107001000Y-135267500D01*
G75*
G02*
X106950000Y-135318500I-51000J0D01*
G01*
X105750000Y-135318500D01*
G75*
G02*
X105699000Y-135267500I0J51000D01*
G01*
X105699000Y-134867500D01*
G75*
G02*
X105750000Y-134816500I51000J0D01*
G01*
X106950000Y-134816500D01*
G75*
G02*
X107001000Y-134867500I0J-51000D01*
G01*
G37*
G36*
G01*
X107001000Y-134232500D02*
X107001000Y-134632500D01*
G75*
G02*
X106950000Y-134683500I-51000J0D01*
G01*
X105750000Y-134683500D01*
G75*
G02*
X105699000Y-134632500I0J51000D01*
G01*
X105699000Y-134232500D01*
G75*
G02*
X105750000Y-134181500I51000J0D01*
G01*
X106950000Y-134181500D01*
G75*
G02*
X107001000Y-134232500I0J-51000D01*
G01*
G37*
G36*
G01*
X107001000Y-133597500D02*
X107001000Y-133997500D01*
G75*
G02*
X106950000Y-134048500I-51000J0D01*
G01*
X105750000Y-134048500D01*
G75*
G02*
X105699000Y-133997500I0J51000D01*
G01*
X105699000Y-133597500D01*
G75*
G02*
X105750000Y-133546500I51000J0D01*
G01*
X106950000Y-133546500D01*
G75*
G02*
X107001000Y-133597500I0J-51000D01*
G01*
G37*
G36*
G01*
X107001000Y-132962500D02*
X107001000Y-133362500D01*
G75*
G02*
X106950000Y-133413500I-51000J0D01*
G01*
X105750000Y-133413500D01*
G75*
G02*
X105699000Y-133362500I0J51000D01*
G01*
X105699000Y-132962500D01*
G75*
G02*
X105750000Y-132911500I51000J0D01*
G01*
X106950000Y-132911500D01*
G75*
G02*
X107001000Y-132962500I0J-51000D01*
G01*
G37*
G36*
G01*
X107001000Y-132327500D02*
X107001000Y-132727500D01*
G75*
G02*
X106950000Y-132778500I-51000J0D01*
G01*
X105750000Y-132778500D01*
G75*
G02*
X105699000Y-132727500I0J51000D01*
G01*
X105699000Y-132327500D01*
G75*
G02*
X105750000Y-132276500I51000J0D01*
G01*
X106950000Y-132276500D01*
G75*
G02*
X107001000Y-132327500I0J-51000D01*
G01*
G37*
G36*
G01*
X116401000Y-132327500D02*
X116401000Y-132727500D01*
G75*
G02*
X116350000Y-132778500I-51000J0D01*
G01*
X115150000Y-132778500D01*
G75*
G02*
X115099000Y-132727500I0J51000D01*
G01*
X115099000Y-132327500D01*
G75*
G02*
X115150000Y-132276500I51000J0D01*
G01*
X116350000Y-132276500D01*
G75*
G02*
X116401000Y-132327500I0J-51000D01*
G01*
G37*
G36*
G01*
X116401000Y-132962500D02*
X116401000Y-133362500D01*
G75*
G02*
X116350000Y-133413500I-51000J0D01*
G01*
X115150000Y-133413500D01*
G75*
G02*
X115099000Y-133362500I0J51000D01*
G01*
X115099000Y-132962500D01*
G75*
G02*
X115150000Y-132911500I51000J0D01*
G01*
X116350000Y-132911500D01*
G75*
G02*
X116401000Y-132962500I0J-51000D01*
G01*
G37*
G36*
G01*
X116401000Y-133597500D02*
X116401000Y-133997500D01*
G75*
G02*
X116350000Y-134048500I-51000J0D01*
G01*
X115150000Y-134048500D01*
G75*
G02*
X115099000Y-133997500I0J51000D01*
G01*
X115099000Y-133597500D01*
G75*
G02*
X115150000Y-133546500I51000J0D01*
G01*
X116350000Y-133546500D01*
G75*
G02*
X116401000Y-133597500I0J-51000D01*
G01*
G37*
G36*
G01*
X116401000Y-134232500D02*
X116401000Y-134632500D01*
G75*
G02*
X116350000Y-134683500I-51000J0D01*
G01*
X115150000Y-134683500D01*
G75*
G02*
X115099000Y-134632500I0J51000D01*
G01*
X115099000Y-134232500D01*
G75*
G02*
X115150000Y-134181500I51000J0D01*
G01*
X116350000Y-134181500D01*
G75*
G02*
X116401000Y-134232500I0J-51000D01*
G01*
G37*
G36*
G01*
X116401000Y-134867500D02*
X116401000Y-135267500D01*
G75*
G02*
X116350000Y-135318500I-51000J0D01*
G01*
X115150000Y-135318500D01*
G75*
G02*
X115099000Y-135267500I0J51000D01*
G01*
X115099000Y-134867500D01*
G75*
G02*
X115150000Y-134816500I51000J0D01*
G01*
X116350000Y-134816500D01*
G75*
G02*
X116401000Y-134867500I0J-51000D01*
G01*
G37*
G36*
G01*
X116401000Y-135502500D02*
X116401000Y-135902500D01*
G75*
G02*
X116350000Y-135953500I-51000J0D01*
G01*
X115150000Y-135953500D01*
G75*
G02*
X115099000Y-135902500I0J51000D01*
G01*
X115099000Y-135502500D01*
G75*
G02*
X115150000Y-135451500I51000J0D01*
G01*
X116350000Y-135451500D01*
G75*
G02*
X116401000Y-135502500I0J-51000D01*
G01*
G37*
G36*
G01*
X116401000Y-136137500D02*
X116401000Y-136537500D01*
G75*
G02*
X116350000Y-136588500I-51000J0D01*
G01*
X115150000Y-136588500D01*
G75*
G02*
X115099000Y-136537500I0J51000D01*
G01*
X115099000Y-136137500D01*
G75*
G02*
X115150000Y-136086500I51000J0D01*
G01*
X116350000Y-136086500D01*
G75*
G02*
X116401000Y-136137500I0J-51000D01*
G01*
G37*
G36*
G01*
X116401000Y-136772500D02*
X116401000Y-137172500D01*
G75*
G02*
X116350000Y-137223500I-51000J0D01*
G01*
X115150000Y-137223500D01*
G75*
G02*
X115099000Y-137172500I0J51000D01*
G01*
X115099000Y-136772500D01*
G75*
G02*
X115150000Y-136721500I51000J0D01*
G01*
X116350000Y-136721500D01*
G75*
G02*
X116401000Y-136772500I0J-51000D01*
G01*
G37*
G36*
G01*
X116401000Y-137407500D02*
X116401000Y-137807500D01*
G75*
G02*
X116350000Y-137858500I-51000J0D01*
G01*
X115150000Y-137858500D01*
G75*
G02*
X115099000Y-137807500I0J51000D01*
G01*
X115099000Y-137407500D01*
G75*
G02*
X115150000Y-137356500I51000J0D01*
G01*
X116350000Y-137356500D01*
G75*
G02*
X116401000Y-137407500I0J-51000D01*
G01*
G37*
G36*
G01*
X116401000Y-138042500D02*
X116401000Y-138442500D01*
G75*
G02*
X116350000Y-138493500I-51000J0D01*
G01*
X115150000Y-138493500D01*
G75*
G02*
X115099000Y-138442500I0J51000D01*
G01*
X115099000Y-138042500D01*
G75*
G02*
X115150000Y-137991500I51000J0D01*
G01*
X116350000Y-137991500D01*
G75*
G02*
X116401000Y-138042500I0J-51000D01*
G01*
G37*
G36*
G01*
X116401000Y-138677500D02*
X116401000Y-139077500D01*
G75*
G02*
X116350000Y-139128500I-51000J0D01*
G01*
X115150000Y-139128500D01*
G75*
G02*
X115099000Y-139077500I0J51000D01*
G01*
X115099000Y-138677500D01*
G75*
G02*
X115150000Y-138626500I51000J0D01*
G01*
X116350000Y-138626500D01*
G75*
G02*
X116401000Y-138677500I0J-51000D01*
G01*
G37*
G36*
G01*
X116401000Y-139312500D02*
X116401000Y-139712500D01*
G75*
G02*
X116350000Y-139763500I-51000J0D01*
G01*
X115150000Y-139763500D01*
G75*
G02*
X115099000Y-139712500I0J51000D01*
G01*
X115099000Y-139312500D01*
G75*
G02*
X115150000Y-139261500I51000J0D01*
G01*
X116350000Y-139261500D01*
G75*
G02*
X116401000Y-139312500I0J-51000D01*
G01*
G37*
G36*
G01*
X116401000Y-139947500D02*
X116401000Y-140347500D01*
G75*
G02*
X116350000Y-140398500I-51000J0D01*
G01*
X115150000Y-140398500D01*
G75*
G02*
X115099000Y-140347500I0J51000D01*
G01*
X115099000Y-139947500D01*
G75*
G02*
X115150000Y-139896500I51000J0D01*
G01*
X116350000Y-139896500D01*
G75*
G02*
X116401000Y-139947500I0J-51000D01*
G01*
G37*
G36*
G01*
X116401000Y-140582500D02*
X116401000Y-140982500D01*
G75*
G02*
X116350000Y-141033500I-51000J0D01*
G01*
X115150000Y-141033500D01*
G75*
G02*
X115099000Y-140982500I0J51000D01*
G01*
X115099000Y-140582500D01*
G75*
G02*
X115150000Y-140531500I51000J0D01*
G01*
X116350000Y-140531500D01*
G75*
G02*
X116401000Y-140582500I0J-51000D01*
G01*
G37*
G36*
G01*
X116401000Y-141217500D02*
X116401000Y-141617500D01*
G75*
G02*
X116350000Y-141668500I-51000J0D01*
G01*
X115150000Y-141668500D01*
G75*
G02*
X115099000Y-141617500I0J51000D01*
G01*
X115099000Y-141217500D01*
G75*
G02*
X115150000Y-141166500I51000J0D01*
G01*
X116350000Y-141166500D01*
G75*
G02*
X116401000Y-141217500I0J-51000D01*
G01*
G37*
G36*
G01*
X116401000Y-141852500D02*
X116401000Y-142252500D01*
G75*
G02*
X116350000Y-142303500I-51000J0D01*
G01*
X115150000Y-142303500D01*
G75*
G02*
X115099000Y-142252500I0J51000D01*
G01*
X115099000Y-141852500D01*
G75*
G02*
X115150000Y-141801500I51000J0D01*
G01*
X116350000Y-141801500D01*
G75*
G02*
X116401000Y-141852500I0J-51000D01*
G01*
G37*
G36*
G01*
X116401000Y-142487500D02*
X116401000Y-142887500D01*
G75*
G02*
X116350000Y-142938500I-51000J0D01*
G01*
X115150000Y-142938500D01*
G75*
G02*
X115099000Y-142887500I0J51000D01*
G01*
X115099000Y-142487500D01*
G75*
G02*
X115150000Y-142436500I51000J0D01*
G01*
X116350000Y-142436500D01*
G75*
G02*
X116401000Y-142487500I0J-51000D01*
G01*
G37*
G36*
G01*
X116401000Y-143122500D02*
X116401000Y-143522500D01*
G75*
G02*
X116350000Y-143573500I-51000J0D01*
G01*
X115150000Y-143573500D01*
G75*
G02*
X115099000Y-143522500I0J51000D01*
G01*
X115099000Y-143122500D01*
G75*
G02*
X115150000Y-143071500I51000J0D01*
G01*
X116350000Y-143071500D01*
G75*
G02*
X116401000Y-143122500I0J-51000D01*
G01*
G37*
G36*
G01*
X116401000Y-143757500D02*
X116401000Y-144157500D01*
G75*
G02*
X116350000Y-144208500I-51000J0D01*
G01*
X115150000Y-144208500D01*
G75*
G02*
X115099000Y-144157500I0J51000D01*
G01*
X115099000Y-143757500D01*
G75*
G02*
X115150000Y-143706500I51000J0D01*
G01*
X116350000Y-143706500D01*
G75*
G02*
X116401000Y-143757500I0J-51000D01*
G01*
G37*
G36*
G01*
X116401000Y-144392500D02*
X116401000Y-144792500D01*
G75*
G02*
X116350000Y-144843500I-51000J0D01*
G01*
X115150000Y-144843500D01*
G75*
G02*
X115099000Y-144792500I0J51000D01*
G01*
X115099000Y-144392500D01*
G75*
G02*
X115150000Y-144341500I51000J0D01*
G01*
X116350000Y-144341500D01*
G75*
G02*
X116401000Y-144392500I0J-51000D01*
G01*
G37*
G36*
G01*
X116401000Y-145027500D02*
X116401000Y-145427500D01*
G75*
G02*
X116350000Y-145478500I-51000J0D01*
G01*
X115150000Y-145478500D01*
G75*
G02*
X115099000Y-145427500I0J51000D01*
G01*
X115099000Y-145027500D01*
G75*
G02*
X115150000Y-144976500I51000J0D01*
G01*
X116350000Y-144976500D01*
G75*
G02*
X116401000Y-145027500I0J-51000D01*
G01*
G37*
G36*
G01*
X116401000Y-145662500D02*
X116401000Y-146062500D01*
G75*
G02*
X116350000Y-146113500I-51000J0D01*
G01*
X115150000Y-146113500D01*
G75*
G02*
X115099000Y-146062500I0J51000D01*
G01*
X115099000Y-145662500D01*
G75*
G02*
X115150000Y-145611500I51000J0D01*
G01*
X116350000Y-145611500D01*
G75*
G02*
X116401000Y-145662500I0J-51000D01*
G01*
G37*
G36*
G01*
X116401000Y-146297500D02*
X116401000Y-146697500D01*
G75*
G02*
X116350000Y-146748500I-51000J0D01*
G01*
X115150000Y-146748500D01*
G75*
G02*
X115099000Y-146697500I0J51000D01*
G01*
X115099000Y-146297500D01*
G75*
G02*
X115150000Y-146246500I51000J0D01*
G01*
X116350000Y-146246500D01*
G75*
G02*
X116401000Y-146297500I0J-51000D01*
G01*
G37*
G36*
G01*
X116401000Y-146932500D02*
X116401000Y-147332500D01*
G75*
G02*
X116350000Y-147383500I-51000J0D01*
G01*
X115150000Y-147383500D01*
G75*
G02*
X115099000Y-147332500I0J51000D01*
G01*
X115099000Y-146932500D01*
G75*
G02*
X115150000Y-146881500I51000J0D01*
G01*
X116350000Y-146881500D01*
G75*
G02*
X116401000Y-146932500I0J-51000D01*
G01*
G37*
G36*
G01*
X116401000Y-147567500D02*
X116401000Y-147967500D01*
G75*
G02*
X116350000Y-148018500I-51000J0D01*
G01*
X115150000Y-148018500D01*
G75*
G02*
X115099000Y-147967500I0J51000D01*
G01*
X115099000Y-147567500D01*
G75*
G02*
X115150000Y-147516500I51000J0D01*
G01*
X116350000Y-147516500D01*
G75*
G02*
X116401000Y-147567500I0J-51000D01*
G01*
G37*
G36*
G01*
X116401000Y-148202500D02*
X116401000Y-148602500D01*
G75*
G02*
X116350000Y-148653500I-51000J0D01*
G01*
X115150000Y-148653500D01*
G75*
G02*
X115099000Y-148602500I0J51000D01*
G01*
X115099000Y-148202500D01*
G75*
G02*
X115150000Y-148151500I51000J0D01*
G01*
X116350000Y-148151500D01*
G75*
G02*
X116401000Y-148202500I0J-51000D01*
G01*
G37*
G36*
G01*
X116401000Y-148837500D02*
X116401000Y-149237500D01*
G75*
G02*
X116350000Y-149288500I-51000J0D01*
G01*
X115150000Y-149288500D01*
G75*
G02*
X115099000Y-149237500I0J51000D01*
G01*
X115099000Y-148837500D01*
G75*
G02*
X115150000Y-148786500I51000J0D01*
G01*
X116350000Y-148786500D01*
G75*
G02*
X116401000Y-148837500I0J-51000D01*
G01*
G37*
G36*
G01*
X116401000Y-149472500D02*
X116401000Y-149872500D01*
G75*
G02*
X116350000Y-149923500I-51000J0D01*
G01*
X115150000Y-149923500D01*
G75*
G02*
X115099000Y-149872500I0J51000D01*
G01*
X115099000Y-149472500D01*
G75*
G02*
X115150000Y-149421500I51000J0D01*
G01*
X116350000Y-149421500D01*
G75*
G02*
X116401000Y-149472500I0J-51000D01*
G01*
G37*
G36*
G01*
X94301000Y-156768250D02*
X94301000Y-157331750D01*
G75*
G02*
X94056750Y-157576000I-244250J0D01*
G01*
X93568250Y-157576000D01*
G75*
G02*
X93324000Y-157331750I0J244250D01*
G01*
X93324000Y-156768250D01*
G75*
G02*
X93568250Y-156524000I244250J0D01*
G01*
X94056750Y-156524000D01*
G75*
G02*
X94301000Y-156768250I0J-244250D01*
G01*
G37*
G36*
G01*
X95876000Y-156768250D02*
X95876000Y-157331750D01*
G75*
G02*
X95631750Y-157576000I-244250J0D01*
G01*
X95143250Y-157576000D01*
G75*
G02*
X94899000Y-157331750I0J244250D01*
G01*
X94899000Y-156768250D01*
G75*
G02*
X95143250Y-156524000I244250J0D01*
G01*
X95631750Y-156524000D01*
G75*
G02*
X95876000Y-156768250I0J-244250D01*
G01*
G37*
G36*
G01*
X83963500Y-156818250D02*
X83963500Y-157381750D01*
G75*
G02*
X83719250Y-157626000I-244250J0D01*
G01*
X83230750Y-157626000D01*
G75*
G02*
X82986500Y-157381750I0J244250D01*
G01*
X82986500Y-156818250D01*
G75*
G02*
X83230750Y-156574000I244250J0D01*
G01*
X83719250Y-156574000D01*
G75*
G02*
X83963500Y-156818250I0J-244250D01*
G01*
G37*
G36*
G01*
X85538500Y-156818250D02*
X85538500Y-157381750D01*
G75*
G02*
X85294250Y-157626000I-244250J0D01*
G01*
X84805750Y-157626000D01*
G75*
G02*
X84561500Y-157381750I0J244250D01*
G01*
X84561500Y-156818250D01*
G75*
G02*
X84805750Y-156574000I244250J0D01*
G01*
X85294250Y-156574000D01*
G75*
G02*
X85538500Y-156818250I0J-244250D01*
G01*
G37*
D10*
X122510000Y-128650000D03*
X125050000Y-128650000D03*
X122510000Y-131190000D03*
X125050000Y-131190000D03*
X122510000Y-133730000D03*
X125050000Y-133730000D03*
X122510000Y-136270000D03*
X125050000Y-136270000D03*
X122510000Y-138810000D03*
X125050000Y-138810000D03*
X122510000Y-141350000D03*
X125050000Y-141350000D03*
X122510000Y-143890000D03*
X125050000Y-143890000D03*
X122510000Y-146430000D03*
X125050000Y-146430000D03*
X122510000Y-148970000D03*
X125050000Y-148970000D03*
X122510000Y-151510000D03*
G36*
G01*
X125951000Y-150660000D02*
X125951000Y-152360000D01*
G75*
G02*
X125900000Y-152411000I-51000J0D01*
G01*
X124200000Y-152411000D01*
G75*
G02*
X124149000Y-152360000I0J51000D01*
G01*
X124149000Y-150660000D01*
G75*
G02*
X124200000Y-150609000I51000J0D01*
G01*
X125900000Y-150609000D01*
G75*
G02*
X125951000Y-150660000I0J-51000D01*
G01*
G37*
X96960000Y-131240000D03*
X99500000Y-131240000D03*
X96960000Y-133780000D03*
X99500000Y-133780000D03*
X96960000Y-136320000D03*
X99500000Y-136320000D03*
X96960000Y-138860000D03*
X99500000Y-138860000D03*
X96960000Y-141400000D03*
X99500000Y-141400000D03*
X96960000Y-143940000D03*
X99500000Y-143940000D03*
X96960000Y-146480000D03*
X99500000Y-146480000D03*
X96960000Y-149020000D03*
X99500000Y-149020000D03*
X96960000Y-151560000D03*
X99500000Y-151560000D03*
X96960000Y-154100000D03*
G36*
G01*
X100401000Y-153250000D02*
X100401000Y-154950000D01*
G75*
G02*
X100350000Y-155001000I-51000J0D01*
G01*
X98650000Y-155001000D01*
G75*
G02*
X98599000Y-154950000I0J51000D01*
G01*
X98599000Y-153250000D01*
G75*
G02*
X98650000Y-153199000I51000J0D01*
G01*
X100350000Y-153199000D01*
G75*
G02*
X100401000Y-153250000I0J-51000D01*
G01*
G37*
X82490000Y-123640000D03*
X82490000Y-121100000D03*
X85030000Y-123640000D03*
X85030000Y-121100000D03*
X87570000Y-123640000D03*
X87570000Y-121100000D03*
X90110000Y-123640000D03*
X90110000Y-121100000D03*
X92650000Y-123640000D03*
X92650000Y-121100000D03*
X95190000Y-123640000D03*
X95190000Y-121100000D03*
X97730000Y-123640000D03*
X97730000Y-121100000D03*
X100270000Y-123640000D03*
X100270000Y-121100000D03*
X102810000Y-123640000D03*
X102810000Y-121100000D03*
X105350000Y-123640000D03*
G36*
G01*
X104500000Y-120199000D02*
X106200000Y-120199000D01*
G75*
G02*
X106251000Y-120250000I0J-51000D01*
G01*
X106251000Y-121950000D01*
G75*
G02*
X106200000Y-122001000I-51000J0D01*
G01*
X104500000Y-122001000D01*
G75*
G02*
X104449000Y-121950000I0J51000D01*
G01*
X104449000Y-120250000D01*
G75*
G02*
X104500000Y-120199000I51000J0D01*
G01*
G37*
G36*
G01*
X89561500Y-157341750D02*
X89561500Y-156778250D01*
G75*
G02*
X89805750Y-156534000I244250J0D01*
G01*
X90294250Y-156534000D01*
G75*
G02*
X90538500Y-156778250I0J-244250D01*
G01*
X90538500Y-157341750D01*
G75*
G02*
X90294250Y-157586000I-244250J0D01*
G01*
X89805750Y-157586000D01*
G75*
G02*
X89561500Y-157341750I0J244250D01*
G01*
G37*
G36*
G01*
X87986500Y-157341750D02*
X87986500Y-156778250D01*
G75*
G02*
X88230750Y-156534000I244250J0D01*
G01*
X88719250Y-156534000D01*
G75*
G02*
X88963500Y-156778250I0J-244250D01*
G01*
X88963500Y-157341750D01*
G75*
G02*
X88719250Y-157586000I-244250J0D01*
G01*
X88230750Y-157586000D01*
G75*
G02*
X87986500Y-157341750I0J244250D01*
G01*
G37*
G36*
G01*
X114361750Y-127961000D02*
X113798250Y-127961000D01*
G75*
G02*
X113554000Y-127716750I0J244250D01*
G01*
X113554000Y-127228250D01*
G75*
G02*
X113798250Y-126984000I244250J0D01*
G01*
X114361750Y-126984000D01*
G75*
G02*
X114606000Y-127228250I0J-244250D01*
G01*
X114606000Y-127716750D01*
G75*
G02*
X114361750Y-127961000I-244250J0D01*
G01*
G37*
G36*
G01*
X114361750Y-129536000D02*
X113798250Y-129536000D01*
G75*
G02*
X113554000Y-129291750I0J244250D01*
G01*
X113554000Y-128803250D01*
G75*
G02*
X113798250Y-128559000I244250J0D01*
G01*
X114361750Y-128559000D01*
G75*
G02*
X114606000Y-128803250I0J-244250D01*
G01*
X114606000Y-129291750D01*
G75*
G02*
X114361750Y-129536000I-244250J0D01*
G01*
G37*
G36*
G01*
X110551750Y-127961000D02*
X109988250Y-127961000D01*
G75*
G02*
X109744000Y-127716750I0J244250D01*
G01*
X109744000Y-127228250D01*
G75*
G02*
X109988250Y-126984000I244250J0D01*
G01*
X110551750Y-126984000D01*
G75*
G02*
X110796000Y-127228250I0J-244250D01*
G01*
X110796000Y-127716750D01*
G75*
G02*
X110551750Y-127961000I-244250J0D01*
G01*
G37*
G36*
G01*
X110551750Y-129536000D02*
X109988250Y-129536000D01*
G75*
G02*
X109744000Y-129291750I0J244250D01*
G01*
X109744000Y-128803250D01*
G75*
G02*
X109988250Y-128559000I244250J0D01*
G01*
X110551750Y-128559000D01*
G75*
G02*
X110796000Y-128803250I0J-244250D01*
G01*
X110796000Y-129291750D01*
G75*
G02*
X110551750Y-129536000I-244250J0D01*
G01*
G37*
D12*
G36*
X107002732Y-149287500D02*
G01*
X107003000Y-149288500D01*
X107003000Y-149421500D01*
X107002000Y-149423232D01*
X107001000Y-149423500D01*
X105699000Y-149423500D01*
X105697268Y-149422500D01*
X105697000Y-149421500D01*
X105697000Y-149288500D01*
X105698000Y-149286768D01*
X105699000Y-149286500D01*
X107001000Y-149286500D01*
X107002732Y-149287500D01*
G37*
G36*
X116402732Y-149287500D02*
G01*
X116403000Y-149288500D01*
X116403000Y-149421500D01*
X116402000Y-149423232D01*
X116401000Y-149423500D01*
X115099000Y-149423500D01*
X115097268Y-149422500D01*
X115097000Y-149421500D01*
X115097000Y-149288500D01*
X115098000Y-149286768D01*
X115099000Y-149286500D01*
X116401000Y-149286500D01*
X116402732Y-149287500D01*
G37*
G36*
X116402732Y-148652500D02*
G01*
X116403000Y-148653500D01*
X116403000Y-148786500D01*
X116402000Y-148788232D01*
X116401000Y-148788500D01*
X115099000Y-148788500D01*
X115097268Y-148787500D01*
X115097000Y-148786500D01*
X115097000Y-148653500D01*
X115098000Y-148651768D01*
X115099000Y-148651500D01*
X116401000Y-148651500D01*
X116402732Y-148652500D01*
G37*
G36*
X107002732Y-148652500D02*
G01*
X107003000Y-148653500D01*
X107003000Y-148786500D01*
X107002000Y-148788232D01*
X107001000Y-148788500D01*
X105699000Y-148788500D01*
X105697268Y-148787500D01*
X105697000Y-148786500D01*
X105697000Y-148653500D01*
X105698000Y-148651768D01*
X105699000Y-148651500D01*
X107001000Y-148651500D01*
X107002732Y-148652500D01*
G37*
G36*
X116402732Y-148017500D02*
G01*
X116403000Y-148018500D01*
X116403000Y-148151500D01*
X116402000Y-148153232D01*
X116401000Y-148153500D01*
X115099000Y-148153500D01*
X115097268Y-148152500D01*
X115097000Y-148151500D01*
X115097000Y-148018500D01*
X115098000Y-148016768D01*
X115099000Y-148016500D01*
X116401000Y-148016500D01*
X116402732Y-148017500D01*
G37*
G36*
X107002732Y-148017500D02*
G01*
X107003000Y-148018500D01*
X107003000Y-148151500D01*
X107002000Y-148153232D01*
X107001000Y-148153500D01*
X105699000Y-148153500D01*
X105697268Y-148152500D01*
X105697000Y-148151500D01*
X105697000Y-148018500D01*
X105698000Y-148016768D01*
X105699000Y-148016500D01*
X107001000Y-148016500D01*
X107002732Y-148017500D01*
G37*
G36*
X116402732Y-147382500D02*
G01*
X116403000Y-147383500D01*
X116403000Y-147516500D01*
X116402000Y-147518232D01*
X116401000Y-147518500D01*
X115099000Y-147518500D01*
X115097268Y-147517500D01*
X115097000Y-147516500D01*
X115097000Y-147383500D01*
X115098000Y-147381768D01*
X115099000Y-147381500D01*
X116401000Y-147381500D01*
X116402732Y-147382500D01*
G37*
G36*
X107002732Y-147382500D02*
G01*
X107003000Y-147383500D01*
X107003000Y-147516500D01*
X107002000Y-147518232D01*
X107001000Y-147518500D01*
X105699000Y-147518500D01*
X105697268Y-147517500D01*
X105697000Y-147516500D01*
X105697000Y-147383500D01*
X105698000Y-147381768D01*
X105699000Y-147381500D01*
X107001000Y-147381500D01*
X107002732Y-147382500D01*
G37*
G36*
X116402732Y-146747500D02*
G01*
X116403000Y-146748500D01*
X116403000Y-146881500D01*
X116402000Y-146883232D01*
X116401000Y-146883500D01*
X115099000Y-146883500D01*
X115097268Y-146882500D01*
X115097000Y-146881500D01*
X115097000Y-146748500D01*
X115098000Y-146746768D01*
X115099000Y-146746500D01*
X116401000Y-146746500D01*
X116402732Y-146747500D01*
G37*
G36*
X107002732Y-146747500D02*
G01*
X107003000Y-146748500D01*
X107003000Y-146881500D01*
X107002000Y-146883232D01*
X107001000Y-146883500D01*
X105699000Y-146883500D01*
X105697268Y-146882500D01*
X105697000Y-146881500D01*
X105697000Y-146748500D01*
X105698000Y-146746768D01*
X105699000Y-146746500D01*
X107001000Y-146746500D01*
X107002732Y-146747500D01*
G37*
G36*
X116402732Y-146112500D02*
G01*
X116403000Y-146113500D01*
X116403000Y-146246500D01*
X116402000Y-146248232D01*
X116401000Y-146248500D01*
X115099000Y-146248500D01*
X115097268Y-146247500D01*
X115097000Y-146246500D01*
X115097000Y-146113500D01*
X115098000Y-146111768D01*
X115099000Y-146111500D01*
X116401000Y-146111500D01*
X116402732Y-146112500D01*
G37*
G36*
X107002732Y-146112500D02*
G01*
X107003000Y-146113500D01*
X107003000Y-146246500D01*
X107002000Y-146248232D01*
X107001000Y-146248500D01*
X105699000Y-146248500D01*
X105697268Y-146247500D01*
X105697000Y-146246500D01*
X105697000Y-146113500D01*
X105698000Y-146111768D01*
X105699000Y-146111500D01*
X107001000Y-146111500D01*
X107002732Y-146112500D01*
G37*
G36*
X116402732Y-145477500D02*
G01*
X116403000Y-145478500D01*
X116403000Y-145611500D01*
X116402000Y-145613232D01*
X116401000Y-145613500D01*
X115099000Y-145613500D01*
X115097268Y-145612500D01*
X115097000Y-145611500D01*
X115097000Y-145478500D01*
X115098000Y-145476768D01*
X115099000Y-145476500D01*
X116401000Y-145476500D01*
X116402732Y-145477500D01*
G37*
G36*
X107002732Y-145477500D02*
G01*
X107003000Y-145478500D01*
X107003000Y-145611500D01*
X107002000Y-145613232D01*
X107001000Y-145613500D01*
X105699000Y-145613500D01*
X105697268Y-145612500D01*
X105697000Y-145611500D01*
X105697000Y-145478500D01*
X105698000Y-145476768D01*
X105699000Y-145476500D01*
X107001000Y-145476500D01*
X107002732Y-145477500D01*
G37*
G36*
X107002732Y-144842500D02*
G01*
X107003000Y-144843500D01*
X107003000Y-144976500D01*
X107002000Y-144978232D01*
X107001000Y-144978500D01*
X105699000Y-144978500D01*
X105697268Y-144977500D01*
X105697000Y-144976500D01*
X105697000Y-144843500D01*
X105698000Y-144841768D01*
X105699000Y-144841500D01*
X107001000Y-144841500D01*
X107002732Y-144842500D01*
G37*
G36*
X116402732Y-144842500D02*
G01*
X116403000Y-144843500D01*
X116403000Y-144976500D01*
X116402000Y-144978232D01*
X116401000Y-144978500D01*
X115099000Y-144978500D01*
X115097268Y-144977500D01*
X115097000Y-144976500D01*
X115097000Y-144843500D01*
X115098000Y-144841768D01*
X115099000Y-144841500D01*
X116401000Y-144841500D01*
X116402732Y-144842500D01*
G37*
G36*
X107002732Y-144207500D02*
G01*
X107003000Y-144208500D01*
X107003000Y-144341500D01*
X107002000Y-144343232D01*
X107001000Y-144343500D01*
X105699000Y-144343500D01*
X105697268Y-144342500D01*
X105697000Y-144341500D01*
X105697000Y-144208500D01*
X105698000Y-144206768D01*
X105699000Y-144206500D01*
X107001000Y-144206500D01*
X107002732Y-144207500D01*
G37*
G36*
X116402732Y-144207500D02*
G01*
X116403000Y-144208500D01*
X116403000Y-144341500D01*
X116402000Y-144343232D01*
X116401000Y-144343500D01*
X115099000Y-144343500D01*
X115097268Y-144342500D01*
X115097000Y-144341500D01*
X115097000Y-144208500D01*
X115098000Y-144206768D01*
X115099000Y-144206500D01*
X116401000Y-144206500D01*
X116402732Y-144207500D01*
G37*
G36*
X116402732Y-143572500D02*
G01*
X116403000Y-143573500D01*
X116403000Y-143706500D01*
X116402000Y-143708232D01*
X116401000Y-143708500D01*
X115099000Y-143708500D01*
X115097268Y-143707500D01*
X115097000Y-143706500D01*
X115097000Y-143573500D01*
X115098000Y-143571768D01*
X115099000Y-143571500D01*
X116401000Y-143571500D01*
X116402732Y-143572500D01*
G37*
G36*
X107002732Y-143572500D02*
G01*
X107003000Y-143573500D01*
X107003000Y-143706500D01*
X107002000Y-143708232D01*
X107001000Y-143708500D01*
X105699000Y-143708500D01*
X105697268Y-143707500D01*
X105697000Y-143706500D01*
X105697000Y-143573500D01*
X105698000Y-143571768D01*
X105699000Y-143571500D01*
X107001000Y-143571500D01*
X107002732Y-143572500D01*
G37*
G36*
X107002732Y-142937500D02*
G01*
X107003000Y-142938500D01*
X107003000Y-143071500D01*
X107002000Y-143073232D01*
X107001000Y-143073500D01*
X105699000Y-143073500D01*
X105697268Y-143072500D01*
X105697000Y-143071500D01*
X105697000Y-142938500D01*
X105698000Y-142936768D01*
X105699000Y-142936500D01*
X107001000Y-142936500D01*
X107002732Y-142937500D01*
G37*
G36*
X116402732Y-142937500D02*
G01*
X116403000Y-142938500D01*
X116403000Y-143071500D01*
X116402000Y-143073232D01*
X116401000Y-143073500D01*
X115099000Y-143073500D01*
X115097268Y-143072500D01*
X115097000Y-143071500D01*
X115097000Y-142938500D01*
X115098000Y-142936768D01*
X115099000Y-142936500D01*
X116401000Y-142936500D01*
X116402732Y-142937500D01*
G37*
G36*
X107002732Y-142302500D02*
G01*
X107003000Y-142303500D01*
X107003000Y-142436500D01*
X107002000Y-142438232D01*
X107001000Y-142438500D01*
X105699000Y-142438500D01*
X105697268Y-142437500D01*
X105697000Y-142436500D01*
X105697000Y-142303500D01*
X105698000Y-142301768D01*
X105699000Y-142301500D01*
X107001000Y-142301500D01*
X107002732Y-142302500D01*
G37*
G36*
X116402732Y-142302500D02*
G01*
X116403000Y-142303500D01*
X116403000Y-142436500D01*
X116402000Y-142438232D01*
X116401000Y-142438500D01*
X115099000Y-142438500D01*
X115097268Y-142437500D01*
X115097000Y-142436500D01*
X115097000Y-142303500D01*
X115098000Y-142301768D01*
X115099000Y-142301500D01*
X116401000Y-142301500D01*
X116402732Y-142302500D01*
G37*
G36*
X116402732Y-141667500D02*
G01*
X116403000Y-141668500D01*
X116403000Y-141801500D01*
X116402000Y-141803232D01*
X116401000Y-141803500D01*
X115099000Y-141803500D01*
X115097268Y-141802500D01*
X115097000Y-141801500D01*
X115097000Y-141668500D01*
X115098000Y-141666768D01*
X115099000Y-141666500D01*
X116401000Y-141666500D01*
X116402732Y-141667500D01*
G37*
G36*
X107002732Y-141667500D02*
G01*
X107003000Y-141668500D01*
X107003000Y-141801500D01*
X107002000Y-141803232D01*
X107001000Y-141803500D01*
X105699000Y-141803500D01*
X105697268Y-141802500D01*
X105697000Y-141801500D01*
X105697000Y-141668500D01*
X105698000Y-141666768D01*
X105699000Y-141666500D01*
X107001000Y-141666500D01*
X107002732Y-141667500D01*
G37*
G36*
X116402732Y-141032500D02*
G01*
X116403000Y-141033500D01*
X116403000Y-141166500D01*
X116402000Y-141168232D01*
X116401000Y-141168500D01*
X115099000Y-141168500D01*
X115097268Y-141167500D01*
X115097000Y-141166500D01*
X115097000Y-141033500D01*
X115098000Y-141031768D01*
X115099000Y-141031500D01*
X116401000Y-141031500D01*
X116402732Y-141032500D01*
G37*
G36*
X107002732Y-141032500D02*
G01*
X107003000Y-141033500D01*
X107003000Y-141166500D01*
X107002000Y-141168232D01*
X107001000Y-141168500D01*
X105699000Y-141168500D01*
X105697268Y-141167500D01*
X105697000Y-141166500D01*
X105697000Y-141033500D01*
X105698000Y-141031768D01*
X105699000Y-141031500D01*
X107001000Y-141031500D01*
X107002732Y-141032500D01*
G37*
G36*
X107002732Y-140397500D02*
G01*
X107003000Y-140398500D01*
X107003000Y-140531500D01*
X107002000Y-140533232D01*
X107001000Y-140533500D01*
X105699000Y-140533500D01*
X105697268Y-140532500D01*
X105697000Y-140531500D01*
X105697000Y-140398500D01*
X105698000Y-140396768D01*
X105699000Y-140396500D01*
X107001000Y-140396500D01*
X107002732Y-140397500D01*
G37*
G36*
X116402732Y-140397500D02*
G01*
X116403000Y-140398500D01*
X116403000Y-140531500D01*
X116402000Y-140533232D01*
X116401000Y-140533500D01*
X115099000Y-140533500D01*
X115097268Y-140532500D01*
X115097000Y-140531500D01*
X115097000Y-140398500D01*
X115098000Y-140396768D01*
X115099000Y-140396500D01*
X116401000Y-140396500D01*
X116402732Y-140397500D01*
G37*
G36*
X107002732Y-139762500D02*
G01*
X107003000Y-139763500D01*
X107003000Y-139896500D01*
X107002000Y-139898232D01*
X107001000Y-139898500D01*
X105699000Y-139898500D01*
X105697268Y-139897500D01*
X105697000Y-139896500D01*
X105697000Y-139763500D01*
X105698000Y-139761768D01*
X105699000Y-139761500D01*
X107001000Y-139761500D01*
X107002732Y-139762500D01*
G37*
G36*
X116402732Y-139762500D02*
G01*
X116403000Y-139763500D01*
X116403000Y-139896500D01*
X116402000Y-139898232D01*
X116401000Y-139898500D01*
X115099000Y-139898500D01*
X115097268Y-139897500D01*
X115097000Y-139896500D01*
X115097000Y-139763500D01*
X115098000Y-139761768D01*
X115099000Y-139761500D01*
X116401000Y-139761500D01*
X116402732Y-139762500D01*
G37*
G36*
X107002732Y-139127500D02*
G01*
X107003000Y-139128500D01*
X107003000Y-139261500D01*
X107002000Y-139263232D01*
X107001000Y-139263500D01*
X105699000Y-139263500D01*
X105697268Y-139262500D01*
X105697000Y-139261500D01*
X105697000Y-139128500D01*
X105698000Y-139126768D01*
X105699000Y-139126500D01*
X107001000Y-139126500D01*
X107002732Y-139127500D01*
G37*
G36*
X116402732Y-139127500D02*
G01*
X116403000Y-139128500D01*
X116403000Y-139261500D01*
X116402000Y-139263232D01*
X116401000Y-139263500D01*
X115099000Y-139263500D01*
X115097268Y-139262500D01*
X115097000Y-139261500D01*
X115097000Y-139128500D01*
X115098000Y-139126768D01*
X115099000Y-139126500D01*
X116401000Y-139126500D01*
X116402732Y-139127500D01*
G37*
G36*
X116402732Y-138492500D02*
G01*
X116403000Y-138493500D01*
X116403000Y-138626500D01*
X116402000Y-138628232D01*
X116401000Y-138628500D01*
X115099000Y-138628500D01*
X115097268Y-138627500D01*
X115097000Y-138626500D01*
X115097000Y-138493500D01*
X115098000Y-138491768D01*
X115099000Y-138491500D01*
X116401000Y-138491500D01*
X116402732Y-138492500D01*
G37*
G36*
X107002732Y-138492500D02*
G01*
X107003000Y-138493500D01*
X107003000Y-138626500D01*
X107002000Y-138628232D01*
X107001000Y-138628500D01*
X105699000Y-138628500D01*
X105697268Y-138627500D01*
X105697000Y-138626500D01*
X105697000Y-138493500D01*
X105698000Y-138491768D01*
X105699000Y-138491500D01*
X107001000Y-138491500D01*
X107002732Y-138492500D01*
G37*
G36*
X116402732Y-137857500D02*
G01*
X116403000Y-137858500D01*
X116403000Y-137991500D01*
X116402000Y-137993232D01*
X116401000Y-137993500D01*
X115099000Y-137993500D01*
X115097268Y-137992500D01*
X115097000Y-137991500D01*
X115097000Y-137858500D01*
X115098000Y-137856768D01*
X115099000Y-137856500D01*
X116401000Y-137856500D01*
X116402732Y-137857500D01*
G37*
G36*
X107002732Y-137857500D02*
G01*
X107003000Y-137858500D01*
X107003000Y-137991500D01*
X107002000Y-137993232D01*
X107001000Y-137993500D01*
X105699000Y-137993500D01*
X105697268Y-137992500D01*
X105697000Y-137991500D01*
X105697000Y-137858500D01*
X105698000Y-137856768D01*
X105699000Y-137856500D01*
X107001000Y-137856500D01*
X107002732Y-137857500D01*
G37*
G36*
X116402732Y-137222500D02*
G01*
X116403000Y-137223500D01*
X116403000Y-137356500D01*
X116402000Y-137358232D01*
X116401000Y-137358500D01*
X115099000Y-137358500D01*
X115097268Y-137357500D01*
X115097000Y-137356500D01*
X115097000Y-137223500D01*
X115098000Y-137221768D01*
X115099000Y-137221500D01*
X116401000Y-137221500D01*
X116402732Y-137222500D01*
G37*
G36*
X107002732Y-137222500D02*
G01*
X107003000Y-137223500D01*
X107003000Y-137356500D01*
X107002000Y-137358232D01*
X107001000Y-137358500D01*
X105699000Y-137358500D01*
X105697268Y-137357500D01*
X105697000Y-137356500D01*
X105697000Y-137223500D01*
X105698000Y-137221768D01*
X105699000Y-137221500D01*
X107001000Y-137221500D01*
X107002732Y-137222500D01*
G37*
G36*
X107002732Y-136587500D02*
G01*
X107003000Y-136588500D01*
X107003000Y-136721500D01*
X107002000Y-136723232D01*
X107001000Y-136723500D01*
X105699000Y-136723500D01*
X105697268Y-136722500D01*
X105697000Y-136721500D01*
X105697000Y-136588500D01*
X105698000Y-136586768D01*
X105699000Y-136586500D01*
X107001000Y-136586500D01*
X107002732Y-136587500D01*
G37*
G36*
X116402732Y-136587500D02*
G01*
X116403000Y-136588500D01*
X116403000Y-136721500D01*
X116402000Y-136723232D01*
X116401000Y-136723500D01*
X115099000Y-136723500D01*
X115097268Y-136722500D01*
X115097000Y-136721500D01*
X115097000Y-136588500D01*
X115098000Y-136586768D01*
X115099000Y-136586500D01*
X116401000Y-136586500D01*
X116402732Y-136587500D01*
G37*
G36*
X116402732Y-135952500D02*
G01*
X116403000Y-135953500D01*
X116403000Y-136086500D01*
X116402000Y-136088232D01*
X116401000Y-136088500D01*
X115099000Y-136088500D01*
X115097268Y-136087500D01*
X115097000Y-136086500D01*
X115097000Y-135953500D01*
X115098000Y-135951768D01*
X115099000Y-135951500D01*
X116401000Y-135951500D01*
X116402732Y-135952500D01*
G37*
G36*
X107002732Y-135952500D02*
G01*
X107003000Y-135953500D01*
X107003000Y-136086500D01*
X107002000Y-136088232D01*
X107001000Y-136088500D01*
X105699000Y-136088500D01*
X105697268Y-136087500D01*
X105697000Y-136086500D01*
X105697000Y-135953500D01*
X105698000Y-135951768D01*
X105699000Y-135951500D01*
X107001000Y-135951500D01*
X107002732Y-135952500D01*
G37*
G36*
X107002732Y-135317500D02*
G01*
X107003000Y-135318500D01*
X107003000Y-135451500D01*
X107002000Y-135453232D01*
X107001000Y-135453500D01*
X105699000Y-135453500D01*
X105697268Y-135452500D01*
X105697000Y-135451500D01*
X105697000Y-135318500D01*
X105698000Y-135316768D01*
X105699000Y-135316500D01*
X107001000Y-135316500D01*
X107002732Y-135317500D01*
G37*
G36*
X116402732Y-135317500D02*
G01*
X116403000Y-135318500D01*
X116403000Y-135451500D01*
X116402000Y-135453232D01*
X116401000Y-135453500D01*
X115099000Y-135453500D01*
X115097268Y-135452500D01*
X115097000Y-135451500D01*
X115097000Y-135318500D01*
X115098000Y-135316768D01*
X115099000Y-135316500D01*
X116401000Y-135316500D01*
X116402732Y-135317500D01*
G37*
G36*
X116402732Y-134682500D02*
G01*
X116403000Y-134683500D01*
X116403000Y-134816500D01*
X116402000Y-134818232D01*
X116401000Y-134818500D01*
X115099000Y-134818500D01*
X115097268Y-134817500D01*
X115097000Y-134816500D01*
X115097000Y-134683500D01*
X115098000Y-134681768D01*
X115099000Y-134681500D01*
X116401000Y-134681500D01*
X116402732Y-134682500D01*
G37*
G36*
X107002732Y-134682500D02*
G01*
X107003000Y-134683500D01*
X107003000Y-134816500D01*
X107002000Y-134818232D01*
X107001000Y-134818500D01*
X105699000Y-134818500D01*
X105697268Y-134817500D01*
X105697000Y-134816500D01*
X105697000Y-134683500D01*
X105698000Y-134681768D01*
X105699000Y-134681500D01*
X107001000Y-134681500D01*
X107002732Y-134682500D01*
G37*
G36*
X107002732Y-134047500D02*
G01*
X107003000Y-134048500D01*
X107003000Y-134181500D01*
X107002000Y-134183232D01*
X107001000Y-134183500D01*
X105699000Y-134183500D01*
X105697268Y-134182500D01*
X105697000Y-134181500D01*
X105697000Y-134048500D01*
X105698000Y-134046768D01*
X105699000Y-134046500D01*
X107001000Y-134046500D01*
X107002732Y-134047500D01*
G37*
G36*
X116402732Y-134047500D02*
G01*
X116403000Y-134048500D01*
X116403000Y-134181500D01*
X116402000Y-134183232D01*
X116401000Y-134183500D01*
X115099000Y-134183500D01*
X115097268Y-134182500D01*
X115097000Y-134181500D01*
X115097000Y-134048500D01*
X115098000Y-134046768D01*
X115099000Y-134046500D01*
X116401000Y-134046500D01*
X116402732Y-134047500D01*
G37*
G36*
X116402732Y-133412500D02*
G01*
X116403000Y-133413500D01*
X116403000Y-133546500D01*
X116402000Y-133548232D01*
X116401000Y-133548500D01*
X115099000Y-133548500D01*
X115097268Y-133547500D01*
X115097000Y-133546500D01*
X115097000Y-133413500D01*
X115098000Y-133411768D01*
X115099000Y-133411500D01*
X116401000Y-133411500D01*
X116402732Y-133412500D01*
G37*
G36*
X107002732Y-133412500D02*
G01*
X107003000Y-133413500D01*
X107003000Y-133546500D01*
X107002000Y-133548232D01*
X107001000Y-133548500D01*
X105699000Y-133548500D01*
X105697268Y-133547500D01*
X105697000Y-133546500D01*
X105697000Y-133413500D01*
X105698000Y-133411768D01*
X105699000Y-133411500D01*
X107001000Y-133411500D01*
X107002732Y-133412500D01*
G37*
G36*
X107002732Y-132777500D02*
G01*
X107003000Y-132778500D01*
X107003000Y-132911500D01*
X107002000Y-132913232D01*
X107001000Y-132913500D01*
X105699000Y-132913500D01*
X105697268Y-132912500D01*
X105697000Y-132911500D01*
X105697000Y-132778500D01*
X105698000Y-132776768D01*
X105699000Y-132776500D01*
X107001000Y-132776500D01*
X107002732Y-132777500D01*
G37*
G36*
X116402732Y-132777500D02*
G01*
X116403000Y-132778500D01*
X116403000Y-132911500D01*
X116402000Y-132913232D01*
X116401000Y-132913500D01*
X115099000Y-132913500D01*
X115097268Y-132912500D01*
X115097000Y-132911500D01*
X115097000Y-132778500D01*
X115098000Y-132776768D01*
X115099000Y-132776500D01*
X116401000Y-132776500D01*
X116402732Y-132777500D01*
G37*
M02*
