G04 #@! TF.GenerationSoftware,KiCad,Pcbnew,5.1.10*
G04 #@! TF.CreationDate,2021-11-30T15:42:49+01:00*
G04 #@! TF.ProjectId,JTAGMux_1.0,4a544147-4d75-4785-9f31-2e302e6b6963,v1.0.1*
G04 #@! TF.SameCoordinates,Original*
G04 #@! TF.FileFunction,Legend,Top*
G04 #@! TF.FilePolarity,Positive*
%FSLAX46Y46*%
G04 Gerber Fmt 4.6, Leading zero omitted, Abs format (unit mm)*
G04 Created by KiCad (PCBNEW 5.1.10) date 2021-11-30 15:42:49*
%MOMM*%
%LPD*%
G01*
G04 APERTURE LIST*
%ADD10C,0.120000*%
%ADD11C,0.150000*%
%ADD12C,0.125000*%
G04 APERTURE END LIST*
D10*
X126825000Y-151425000D02*
X127175000Y-151175000D01*
X126825000Y-151425000D02*
X127175000Y-151675000D01*
X126825000Y-151425000D02*
X128075000Y-151425000D01*
X91600000Y-154175000D02*
X91950000Y-153925000D01*
X91600000Y-154175000D02*
X91950000Y-154425000D01*
X91600000Y-154175000D02*
X92850000Y-154175000D01*
X101850000Y-154150000D02*
X102200000Y-154400000D01*
X101850000Y-154150000D02*
X102200000Y-153900000D01*
X101850000Y-154150000D02*
X103100000Y-154150000D01*
D11*
X107573495Y-154128880D02*
X107573495Y-154843166D01*
X107525876Y-154986023D01*
X107430638Y-155081261D01*
X107287780Y-155128880D01*
X107192542Y-155128880D01*
X107906828Y-154128880D02*
X108478257Y-154128880D01*
X108192542Y-155128880D02*
X108192542Y-154128880D01*
X108763971Y-154843166D02*
X109240161Y-154843166D01*
X108668733Y-155128880D02*
X109002066Y-154128880D01*
X109335400Y-155128880D01*
X110192542Y-154176500D02*
X110097304Y-154128880D01*
X109954447Y-154128880D01*
X109811590Y-154176500D01*
X109716352Y-154271738D01*
X109668733Y-154366976D01*
X109621114Y-154557452D01*
X109621114Y-154700309D01*
X109668733Y-154890785D01*
X109716352Y-154986023D01*
X109811590Y-155081261D01*
X109954447Y-155128880D01*
X110049685Y-155128880D01*
X110192542Y-155081261D01*
X110240161Y-155033642D01*
X110240161Y-154700309D01*
X110049685Y-154700309D01*
X110668733Y-155128880D02*
X110668733Y-154128880D01*
X111002066Y-154843166D01*
X111335400Y-154128880D01*
X111335400Y-155128880D01*
X112240161Y-154462214D02*
X112240161Y-155128880D01*
X111811590Y-154462214D02*
X111811590Y-154986023D01*
X111859209Y-155081261D01*
X111954447Y-155128880D01*
X112097304Y-155128880D01*
X112192542Y-155081261D01*
X112240161Y-155033642D01*
X112621114Y-155128880D02*
X113144923Y-154462214D01*
X112621114Y-154462214D02*
X113144923Y-155128880D01*
X114192542Y-154462214D02*
X114430638Y-155128880D01*
X114668733Y-154462214D01*
X115573495Y-155128880D02*
X115002066Y-155128880D01*
X115287780Y-155128880D02*
X115287780Y-154128880D01*
X115192542Y-154271738D01*
X115097304Y-154366976D01*
X115002066Y-154414595D01*
X116002066Y-155033642D02*
X116049685Y-155081261D01*
X116002066Y-155128880D01*
X115954447Y-155081261D01*
X116002066Y-155033642D01*
X116002066Y-155128880D01*
X116668733Y-154128880D02*
X116763971Y-154128880D01*
X116859209Y-154176500D01*
X116906828Y-154224119D01*
X116954447Y-154319357D01*
X117002066Y-154509833D01*
X117002066Y-154747928D01*
X116954447Y-154938404D01*
X116906828Y-155033642D01*
X116859209Y-155081261D01*
X116763971Y-155128880D01*
X116668733Y-155128880D01*
X116573495Y-155081261D01*
X116525876Y-155033642D01*
X116478257Y-154938404D01*
X116430638Y-154747928D01*
X116430638Y-154509833D01*
X116478257Y-154319357D01*
X116525876Y-154224119D01*
X116573495Y-154176500D01*
X116668733Y-154128880D01*
X117430638Y-155033642D02*
X117478257Y-155081261D01*
X117430638Y-155128880D01*
X117383019Y-155081261D01*
X117430638Y-155033642D01*
X117430638Y-155128880D01*
X118430638Y-155128880D02*
X117859209Y-155128880D01*
X118144923Y-155128880D02*
X118144923Y-154128880D01*
X118049685Y-154271738D01*
X117954447Y-154366976D01*
X117859209Y-154414595D01*
X109168733Y-156255071D02*
X109502066Y-156255071D01*
X109644923Y-156778880D02*
X109168733Y-156778880D01*
X109168733Y-155778880D01*
X109644923Y-155778880D01*
X110073495Y-155778880D02*
X110073495Y-156588404D01*
X110121114Y-156683642D01*
X110168733Y-156731261D01*
X110263971Y-156778880D01*
X110454447Y-156778880D01*
X110549685Y-156731261D01*
X110597304Y-156683642D01*
X110644923Y-156588404D01*
X110644923Y-155778880D01*
X111692542Y-156778880D02*
X111359209Y-156302690D01*
X111121114Y-156778880D02*
X111121114Y-155778880D01*
X111502066Y-155778880D01*
X111597304Y-155826500D01*
X111644923Y-155874119D01*
X111692542Y-155969357D01*
X111692542Y-156112214D01*
X111644923Y-156207452D01*
X111597304Y-156255071D01*
X111502066Y-156302690D01*
X111121114Y-156302690D01*
X112121114Y-156255071D02*
X112454447Y-156255071D01*
X112597304Y-156778880D02*
X112121114Y-156778880D01*
X112121114Y-155778880D01*
X112597304Y-155778880D01*
X113597304Y-156683642D02*
X113549685Y-156731261D01*
X113406828Y-156778880D01*
X113311590Y-156778880D01*
X113168733Y-156731261D01*
X113073495Y-156636023D01*
X113025876Y-156540785D01*
X112978257Y-156350309D01*
X112978257Y-156207452D01*
X113025876Y-156016976D01*
X113073495Y-155921738D01*
X113168733Y-155826500D01*
X113311590Y-155778880D01*
X113406828Y-155778880D01*
X113549685Y-155826500D01*
X113597304Y-155874119D01*
X114216352Y-155778880D02*
X114406828Y-155778880D01*
X114502066Y-155826500D01*
X114597304Y-155921738D01*
X114644923Y-156112214D01*
X114644923Y-156445547D01*
X114597304Y-156636023D01*
X114502066Y-156731261D01*
X114406828Y-156778880D01*
X114216352Y-156778880D01*
X114121114Y-156731261D01*
X114025876Y-156636023D01*
X113978257Y-156445547D01*
X113978257Y-156112214D01*
X114025876Y-155921738D01*
X114121114Y-155826500D01*
X114216352Y-155778880D01*
X115073495Y-156778880D02*
X115073495Y-155778880D01*
X115406828Y-156493166D01*
X115740161Y-155778880D01*
X115740161Y-156778880D01*
D12*
X72463957Y-119025528D02*
X72463957Y-119425528D01*
X72463957Y-119082671D02*
X72492528Y-119054100D01*
X72549671Y-119025528D01*
X72635385Y-119025528D01*
X72692528Y-119054100D01*
X72721100Y-119111242D01*
X72721100Y-119425528D01*
X72978242Y-119396957D02*
X73063957Y-119425528D01*
X73206814Y-119425528D01*
X73263957Y-119396957D01*
X73292528Y-119368385D01*
X73321100Y-119311242D01*
X73321100Y-119254100D01*
X73292528Y-119196957D01*
X73263957Y-119168385D01*
X73206814Y-119139814D01*
X73092528Y-119111242D01*
X73035385Y-119082671D01*
X73006814Y-119054100D01*
X72978242Y-118996957D01*
X72978242Y-118939814D01*
X73006814Y-118882671D01*
X73035385Y-118854100D01*
X73092528Y-118825528D01*
X73235385Y-118825528D01*
X73321100Y-118854100D01*
X73921100Y-119425528D02*
X73721100Y-119139814D01*
X73578242Y-119425528D02*
X73578242Y-118825528D01*
X73806814Y-118825528D01*
X73863957Y-118854100D01*
X73892528Y-118882671D01*
X73921100Y-118939814D01*
X73921100Y-119025528D01*
X73892528Y-119082671D01*
X73863957Y-119111242D01*
X73806814Y-119139814D01*
X73578242Y-119139814D01*
X74149671Y-119396957D02*
X74235385Y-119425528D01*
X74378242Y-119425528D01*
X74435385Y-119396957D01*
X74463957Y-119368385D01*
X74492528Y-119311242D01*
X74492528Y-119254100D01*
X74463957Y-119196957D01*
X74435385Y-119168385D01*
X74378242Y-119139814D01*
X74263957Y-119111242D01*
X74206814Y-119082671D01*
X74178242Y-119054100D01*
X74149671Y-118996957D01*
X74149671Y-118939814D01*
X74178242Y-118882671D01*
X74206814Y-118854100D01*
X74263957Y-118825528D01*
X74406814Y-118825528D01*
X74492528Y-118854100D01*
X74663957Y-118825528D02*
X75006814Y-118825528D01*
X74835385Y-119425528D02*
X74835385Y-118825528D01*
X75063957Y-119482671D02*
X75521100Y-119482671D01*
X75663957Y-119425528D02*
X75663957Y-119025528D01*
X75663957Y-118825528D02*
X75635385Y-118854100D01*
X75663957Y-118882671D01*
X75692528Y-118854100D01*
X75663957Y-118825528D01*
X75663957Y-118882671D01*
X75949671Y-119025528D02*
X75949671Y-119425528D01*
X75949671Y-119082671D02*
X75978242Y-119054100D01*
X76035385Y-119025528D01*
X76121100Y-119025528D01*
X76178242Y-119054100D01*
X76206814Y-119111242D01*
X76206814Y-119425528D01*
X76606814Y-118825528D02*
X76663957Y-118825528D01*
X76721100Y-118854100D01*
X76749671Y-118882671D01*
X76778242Y-118939814D01*
X76806814Y-119054100D01*
X76806814Y-119196957D01*
X76778242Y-119311242D01*
X76749671Y-119368385D01*
X76721100Y-119396957D01*
X76663957Y-119425528D01*
X76606814Y-119425528D01*
X76549671Y-119396957D01*
X76521100Y-119368385D01*
X76492528Y-119311242D01*
X76463957Y-119196957D01*
X76463957Y-119054100D01*
X76492528Y-118939814D01*
X76521100Y-118882671D01*
X76549671Y-118854100D01*
X76606814Y-118825528D01*
X77659771Y-119679528D02*
X77459771Y-119393814D01*
X77316914Y-119679528D02*
X77316914Y-119079528D01*
X77545485Y-119079528D01*
X77602628Y-119108100D01*
X77631200Y-119136671D01*
X77659771Y-119193814D01*
X77659771Y-119279528D01*
X77631200Y-119336671D01*
X77602628Y-119365242D01*
X77545485Y-119393814D01*
X77316914Y-119393814D01*
X77831200Y-119079528D02*
X78174057Y-119079528D01*
X78002628Y-119679528D02*
X78002628Y-119079528D01*
X78716914Y-119622385D02*
X78688342Y-119650957D01*
X78602628Y-119679528D01*
X78545485Y-119679528D01*
X78459771Y-119650957D01*
X78402628Y-119593814D01*
X78374057Y-119536671D01*
X78345485Y-119422385D01*
X78345485Y-119336671D01*
X78374057Y-119222385D01*
X78402628Y-119165242D01*
X78459771Y-119108100D01*
X78545485Y-119079528D01*
X78602628Y-119079528D01*
X78688342Y-119108100D01*
X78716914Y-119136671D01*
X78974057Y-119679528D02*
X78974057Y-119079528D01*
X79316914Y-119679528D02*
X79059771Y-119336671D01*
X79316914Y-119079528D02*
X78974057Y-119422385D01*
X79431200Y-119736671D02*
X79888342Y-119736671D01*
X80031200Y-119679528D02*
X80031200Y-119279528D01*
X80031200Y-119079528D02*
X80002628Y-119108100D01*
X80031200Y-119136671D01*
X80059771Y-119108100D01*
X80031200Y-119079528D01*
X80031200Y-119136671D01*
X80316914Y-119279528D02*
X80316914Y-119679528D01*
X80316914Y-119336671D02*
X80345485Y-119308100D01*
X80402628Y-119279528D01*
X80488342Y-119279528D01*
X80545485Y-119308100D01*
X80574057Y-119365242D01*
X80574057Y-119679528D01*
X80974057Y-119079528D02*
X81031200Y-119079528D01*
X81088342Y-119108100D01*
X81116914Y-119136671D01*
X81145485Y-119193814D01*
X81174057Y-119308100D01*
X81174057Y-119450957D01*
X81145485Y-119565242D01*
X81116914Y-119622385D01*
X81088342Y-119650957D01*
X81031200Y-119679528D01*
X80974057Y-119679528D01*
X80916914Y-119650957D01*
X80888342Y-119622385D01*
X80859771Y-119565242D01*
X80831200Y-119450957D01*
X80831200Y-119308100D01*
X80859771Y-119193814D01*
X80888342Y-119136671D01*
X80916914Y-119108100D01*
X80974057Y-119079528D01*
D10*
X81021900Y-119878000D02*
X77377000Y-119878000D01*
X82431600Y-121135300D02*
X81021900Y-119878000D01*
X82825300Y-118989000D02*
X77504000Y-118989000D01*
X84755700Y-120805100D02*
X82825300Y-118989000D01*
D12*
X76778785Y-120260628D02*
X76978785Y-120860628D01*
X77178785Y-120260628D01*
X77293071Y-120260628D02*
X77635928Y-120260628D01*
X77464500Y-120860628D02*
X77464500Y-120260628D01*
X78178785Y-120860628D02*
X77978785Y-120574914D01*
X77835928Y-120860628D02*
X77835928Y-120260628D01*
X78064500Y-120260628D01*
X78121642Y-120289200D01*
X78150214Y-120317771D01*
X78178785Y-120374914D01*
X78178785Y-120460628D01*
X78150214Y-120517771D01*
X78121642Y-120546342D01*
X78064500Y-120574914D01*
X77835928Y-120574914D01*
X78435928Y-120546342D02*
X78635928Y-120546342D01*
X78721642Y-120860628D02*
X78435928Y-120860628D01*
X78435928Y-120260628D01*
X78721642Y-120260628D01*
X79178785Y-120546342D02*
X78978785Y-120546342D01*
X78978785Y-120860628D02*
X78978785Y-120260628D01*
X79264500Y-120260628D01*
X79350214Y-120917771D02*
X79807357Y-120917771D01*
X79950214Y-120860628D02*
X79950214Y-120460628D01*
X79950214Y-120260628D02*
X79921642Y-120289200D01*
X79950214Y-120317771D01*
X79978785Y-120289200D01*
X79950214Y-120260628D01*
X79950214Y-120317771D01*
X80235928Y-120460628D02*
X80235928Y-120860628D01*
X80235928Y-120517771D02*
X80264500Y-120489200D01*
X80321642Y-120460628D01*
X80407357Y-120460628D01*
X80464500Y-120489200D01*
X80493071Y-120546342D01*
X80493071Y-120860628D01*
X80893071Y-120260628D02*
X80950214Y-120260628D01*
X81007357Y-120289200D01*
X81035928Y-120317771D01*
X81064500Y-120374914D01*
X81093071Y-120489200D01*
X81093071Y-120632057D01*
X81064500Y-120746342D01*
X81035928Y-120803485D01*
X81007357Y-120832057D01*
X80950214Y-120860628D01*
X80893071Y-120860628D01*
X80835928Y-120832057D01*
X80807357Y-120803485D01*
X80778785Y-120746342D01*
X80750214Y-120632057D01*
X80750214Y-120489200D01*
X80778785Y-120374914D01*
X80807357Y-120317771D01*
X80835928Y-120289200D01*
X80893071Y-120260628D01*
D10*
X84323900Y-118684200D02*
X72157300Y-118696900D01*
X87625900Y-120944800D02*
X84323900Y-118684200D01*
D11*
X105470328Y-124825285D02*
X105470328Y-125753857D01*
X104898900Y-125253857D01*
X104898900Y-125468142D01*
X104827471Y-125611000D01*
X104756042Y-125682428D01*
X104613185Y-125753857D01*
X104256042Y-125753857D01*
X104113185Y-125682428D01*
X104041757Y-125611000D01*
X103970328Y-125468142D01*
X103970328Y-125039571D01*
X104041757Y-124896714D01*
X104113185Y-124825285D01*
X105470328Y-126182428D02*
X103970328Y-126682428D01*
X105470328Y-127182428D01*
X105470328Y-127539571D02*
X105470328Y-128468142D01*
X104898900Y-127968142D01*
X104898900Y-128182428D01*
X104827471Y-128325285D01*
X104756042Y-128396714D01*
X104613185Y-128468142D01*
X104256042Y-128468142D01*
X104113185Y-128396714D01*
X104041757Y-128325285D01*
X103970328Y-128182428D01*
X103970328Y-127753857D01*
X104041757Y-127611000D01*
X104113185Y-127539571D01*
X101570328Y-124968142D02*
X103070328Y-124968142D01*
X102570328Y-125682428D02*
X101570328Y-125682428D01*
X102427471Y-125682428D02*
X102498900Y-125753857D01*
X102570328Y-125896714D01*
X102570328Y-126111000D01*
X102498900Y-126253857D01*
X102356042Y-126325285D01*
X101570328Y-126325285D01*
X101427471Y-126682428D02*
X101427471Y-127825285D01*
X101641757Y-128111000D02*
X101570328Y-128325285D01*
X101570328Y-128682428D01*
X101641757Y-128825285D01*
X101713185Y-128896714D01*
X101856042Y-128968142D01*
X101998900Y-128968142D01*
X102141757Y-128896714D01*
X102213185Y-128825285D01*
X102284614Y-128682428D01*
X102356042Y-128396714D01*
X102427471Y-128253857D01*
X102498900Y-128182428D01*
X102641757Y-128111000D01*
X102784614Y-128111000D01*
X102927471Y-128182428D01*
X102998900Y-128253857D01*
X103070328Y-128396714D01*
X103070328Y-128753857D01*
X102998900Y-128968142D01*
X101641757Y-130182428D02*
X101570328Y-130039571D01*
X101570328Y-129753857D01*
X101641757Y-129611000D01*
X101784614Y-129539571D01*
X102356042Y-129539571D01*
X102498900Y-129611000D01*
X102570328Y-129753857D01*
X102570328Y-130039571D01*
X102498900Y-130182428D01*
X102356042Y-130253857D01*
X102213185Y-130253857D01*
X102070328Y-129539571D01*
X101570328Y-131111000D02*
X101641757Y-130968142D01*
X101784614Y-130896714D01*
X103070328Y-130896714D01*
X100598900Y-125753857D02*
X100670328Y-125611000D01*
X100670328Y-125396714D01*
X100598900Y-125182428D01*
X100456042Y-125039571D01*
X100313185Y-124968142D01*
X100027471Y-124896714D01*
X99813185Y-124896714D01*
X99527471Y-124968142D01*
X99384614Y-125039571D01*
X99241757Y-125182428D01*
X99170328Y-125396714D01*
X99170328Y-125539571D01*
X99241757Y-125753857D01*
X99313185Y-125825285D01*
X99813185Y-125825285D01*
X99813185Y-125539571D01*
X99170328Y-126468142D02*
X100670328Y-126468142D01*
X99170328Y-127325285D01*
X100670328Y-127325285D01*
X99170328Y-128039571D02*
X100670328Y-128039571D01*
X100670328Y-128396714D01*
X100598900Y-128611000D01*
X100456042Y-128753857D01*
X100313185Y-128825285D01*
X100027471Y-128896714D01*
X99813185Y-128896714D01*
X99527471Y-128825285D01*
X99384614Y-128753857D01*
X99241757Y-128611000D01*
X99170328Y-128396714D01*
X99170328Y-128039571D01*
X97556042Y-124968142D02*
X97556042Y-125468142D01*
X96770328Y-125682428D02*
X96770328Y-124968142D01*
X98270328Y-124968142D01*
X98270328Y-125682428D01*
X98270328Y-126182428D02*
X96770328Y-127182428D01*
X98270328Y-127182428D02*
X96770328Y-126182428D01*
X98270328Y-127539571D02*
X98270328Y-128396714D01*
X96770328Y-127968142D02*
X98270328Y-127968142D01*
X98270328Y-129182428D02*
X98270328Y-129325285D01*
X98198900Y-129468142D01*
X98127471Y-129539571D01*
X97984614Y-129611000D01*
X97698900Y-129682428D01*
X97341757Y-129682428D01*
X97056042Y-129611000D01*
X96913185Y-129539571D01*
X96841757Y-129468142D01*
X96770328Y-129325285D01*
X96770328Y-129182428D01*
X96841757Y-129039571D01*
X96913185Y-128968142D01*
X97056042Y-128896714D01*
X97341757Y-128825285D01*
X97698900Y-128825285D01*
X97984614Y-128896714D01*
X98127471Y-128968142D01*
X98198900Y-129039571D01*
X98270328Y-129182428D01*
X95156042Y-124968142D02*
X95156042Y-125468142D01*
X94370328Y-125682428D02*
X94370328Y-124968142D01*
X95870328Y-124968142D01*
X95870328Y-125682428D01*
X95870328Y-126182428D02*
X94370328Y-127182428D01*
X95870328Y-127182428D02*
X94370328Y-126182428D01*
X95870328Y-127539571D02*
X95870328Y-128396714D01*
X94370328Y-127968142D02*
X95870328Y-127968142D01*
X94370328Y-129682428D02*
X94370328Y-128825285D01*
X94370328Y-129253857D02*
X95870328Y-129253857D01*
X95656042Y-129111000D01*
X95513185Y-128968142D01*
X95441757Y-128825285D01*
X92756042Y-124968142D02*
X92756042Y-125468142D01*
X91970328Y-125682428D02*
X91970328Y-124968142D01*
X93470328Y-124968142D01*
X93470328Y-125682428D01*
X93470328Y-126182428D02*
X91970328Y-127182428D01*
X93470328Y-127182428D02*
X91970328Y-126182428D01*
X93470328Y-127539571D02*
X93470328Y-128396714D01*
X91970328Y-127968142D02*
X93470328Y-127968142D01*
X93327471Y-128825285D02*
X93398900Y-128896714D01*
X93470328Y-129039571D01*
X93470328Y-129396714D01*
X93398900Y-129539571D01*
X93327471Y-129611000D01*
X93184614Y-129682428D01*
X93041757Y-129682428D01*
X92827471Y-129611000D01*
X91970328Y-128753857D01*
X91970328Y-129682428D01*
X90356042Y-124968142D02*
X90356042Y-125468142D01*
X89570328Y-125682428D02*
X89570328Y-124968142D01*
X91070328Y-124968142D01*
X91070328Y-125682428D01*
X91070328Y-126182428D02*
X89570328Y-127182428D01*
X91070328Y-127182428D02*
X89570328Y-126182428D01*
X91070328Y-127539571D02*
X91070328Y-128396714D01*
X89570328Y-127968142D02*
X91070328Y-127968142D01*
X91070328Y-128753857D02*
X91070328Y-129682428D01*
X90498900Y-129182428D01*
X90498900Y-129396714D01*
X90427471Y-129539571D01*
X90356042Y-129611000D01*
X90213185Y-129682428D01*
X89856042Y-129682428D01*
X89713185Y-129611000D01*
X89641757Y-129539571D01*
X89570328Y-129396714D01*
X89570328Y-128968142D01*
X89641757Y-128825285D01*
X89713185Y-128753857D01*
X87956042Y-124968142D02*
X87956042Y-125468142D01*
X87170328Y-125682428D02*
X87170328Y-124968142D01*
X88670328Y-124968142D01*
X88670328Y-125682428D01*
X88670328Y-126182428D02*
X87170328Y-127182428D01*
X88670328Y-127182428D02*
X87170328Y-126182428D01*
X88670328Y-127539571D02*
X88670328Y-128396714D01*
X87170328Y-127968142D02*
X88670328Y-127968142D01*
X88170328Y-129539571D02*
X87170328Y-129539571D01*
X88741757Y-129182428D02*
X87670328Y-128825285D01*
X87670328Y-129753857D01*
X85556042Y-124968142D02*
X85556042Y-125468142D01*
X84770328Y-125682428D02*
X84770328Y-124968142D01*
X86270328Y-124968142D01*
X86270328Y-125682428D01*
X86270328Y-126182428D02*
X84770328Y-127182428D01*
X86270328Y-127182428D02*
X84770328Y-126182428D01*
X86270328Y-127539571D02*
X86270328Y-128396714D01*
X84770328Y-127968142D02*
X86270328Y-127968142D01*
X86270328Y-129611000D02*
X86270328Y-128896714D01*
X85556042Y-128825285D01*
X85627471Y-128896714D01*
X85698900Y-129039571D01*
X85698900Y-129396714D01*
X85627471Y-129539571D01*
X85556042Y-129611000D01*
X85413185Y-129682428D01*
X85056042Y-129682428D01*
X84913185Y-129611000D01*
X84841757Y-129539571D01*
X84770328Y-129396714D01*
X84770328Y-129039571D01*
X84841757Y-128896714D01*
X84913185Y-128825285D01*
X83156042Y-124968142D02*
X83156042Y-125468142D01*
X82370328Y-125682428D02*
X82370328Y-124968142D01*
X83870328Y-124968142D01*
X83870328Y-125682428D01*
X83870328Y-126182428D02*
X82370328Y-127182428D01*
X83870328Y-127182428D02*
X82370328Y-126182428D01*
X83870328Y-127539571D02*
X83870328Y-128396714D01*
X82370328Y-127968142D02*
X83870328Y-127968142D01*
X83870328Y-129539571D02*
X83870328Y-129253857D01*
X83798900Y-129111000D01*
X83727471Y-129039571D01*
X83513185Y-128896714D01*
X83227471Y-128825285D01*
X82656042Y-128825285D01*
X82513185Y-128896714D01*
X82441757Y-128968142D01*
X82370328Y-129111000D01*
X82370328Y-129396714D01*
X82441757Y-129539571D01*
X82513185Y-129611000D01*
X82656042Y-129682428D01*
X83013185Y-129682428D01*
X83156042Y-129611000D01*
X83227471Y-129539571D01*
X83298900Y-129396714D01*
X83298900Y-129111000D01*
X83227471Y-128968142D01*
X83156042Y-128896714D01*
X83013185Y-128825285D01*
X95480952Y-108482380D02*
X95004761Y-108482380D01*
X94957142Y-108958571D01*
X95004761Y-108910952D01*
X95100000Y-108863333D01*
X95338095Y-108863333D01*
X95433333Y-108910952D01*
X95480952Y-108958571D01*
X95528571Y-109053809D01*
X95528571Y-109291904D01*
X95480952Y-109387142D01*
X95433333Y-109434761D01*
X95338095Y-109482380D01*
X95100000Y-109482380D01*
X95004761Y-109434761D01*
X94957142Y-109387142D01*
X95861904Y-108482380D02*
X96528571Y-108482380D01*
X96100000Y-109482380D01*
X96957142Y-109434761D02*
X96957142Y-109482380D01*
X96909523Y-109577619D01*
X96861904Y-109625238D01*
X97433333Y-109482380D02*
X97623809Y-109482380D01*
X97719047Y-109434761D01*
X97766666Y-109387142D01*
X97861904Y-109244285D01*
X97909523Y-109053809D01*
X97909523Y-108672857D01*
X97861904Y-108577619D01*
X97814285Y-108530000D01*
X97719047Y-108482380D01*
X97528571Y-108482380D01*
X97433333Y-108530000D01*
X97385714Y-108577619D01*
X97338095Y-108672857D01*
X97338095Y-108910952D01*
X97385714Y-109006190D01*
X97433333Y-109053809D01*
X97528571Y-109101428D01*
X97719047Y-109101428D01*
X97814285Y-109053809D01*
X97861904Y-109006190D01*
X97909523Y-108910952D01*
X98528571Y-108482380D02*
X98623809Y-108482380D01*
X98719047Y-108530000D01*
X98766666Y-108577619D01*
X98814285Y-108672857D01*
X98861904Y-108863333D01*
X98861904Y-109101428D01*
X98814285Y-109291904D01*
X98766666Y-109387142D01*
X98719047Y-109434761D01*
X98623809Y-109482380D01*
X98528571Y-109482380D01*
X98433333Y-109434761D01*
X98385714Y-109387142D01*
X98338095Y-109291904D01*
X98290476Y-109101428D01*
X98290476Y-108863333D01*
X98338095Y-108672857D01*
X98385714Y-108577619D01*
X98433333Y-108530000D01*
X98528571Y-108482380D01*
X99480952Y-108482380D02*
X99576190Y-108482380D01*
X99671428Y-108530000D01*
X99719047Y-108577619D01*
X99766666Y-108672857D01*
X99814285Y-108863333D01*
X99814285Y-109101428D01*
X99766666Y-109291904D01*
X99719047Y-109387142D01*
X99671428Y-109434761D01*
X99576190Y-109482380D01*
X99480952Y-109482380D01*
X99385714Y-109434761D01*
X99338095Y-109387142D01*
X99290476Y-109291904D01*
X99242857Y-109101428D01*
X99242857Y-108863333D01*
X99290476Y-108672857D01*
X99338095Y-108577619D01*
X99385714Y-108530000D01*
X99480952Y-108482380D01*
X101004761Y-109482380D02*
X101004761Y-108815714D01*
X101004761Y-108910952D02*
X101052380Y-108863333D01*
X101147619Y-108815714D01*
X101290476Y-108815714D01*
X101385714Y-108863333D01*
X101433333Y-108958571D01*
X101433333Y-109482380D01*
X101433333Y-108958571D02*
X101480952Y-108863333D01*
X101576190Y-108815714D01*
X101719047Y-108815714D01*
X101814285Y-108863333D01*
X101861904Y-108958571D01*
X101861904Y-109482380D01*
X102338095Y-109482380D02*
X102338095Y-108815714D01*
X102338095Y-108910952D02*
X102385714Y-108863333D01*
X102480952Y-108815714D01*
X102623809Y-108815714D01*
X102719047Y-108863333D01*
X102766666Y-108958571D01*
X102766666Y-109482380D01*
X102766666Y-108958571D02*
X102814285Y-108863333D01*
X102909523Y-108815714D01*
X103052380Y-108815714D01*
X103147619Y-108863333D01*
X103195238Y-108958571D01*
X103195238Y-109482380D01*
D10*
X128050000Y-110300000D02*
X70150000Y-110300000D01*
X128050000Y-118100000D02*
X128050000Y-109713579D01*
X70150000Y-118100000D02*
X70150000Y-109713579D01*
X70150000Y-110300000D02*
X71276504Y-109713579D01*
X70150000Y-110300000D02*
X71276504Y-110886421D01*
X128050000Y-110300000D02*
X126923496Y-109713579D01*
X128050000Y-110300000D02*
X126923496Y-110886421D01*
D11*
X135355714Y-142391666D02*
X136022380Y-142391666D01*
X134974761Y-142629761D02*
X135689047Y-142867857D01*
X135689047Y-142248809D01*
X136022380Y-141344047D02*
X136022380Y-141915476D01*
X136022380Y-141629761D02*
X135022380Y-141629761D01*
X135165238Y-141725000D01*
X135260476Y-141820238D01*
X135308095Y-141915476D01*
X135974761Y-140867857D02*
X136022380Y-140867857D01*
X136117619Y-140915476D01*
X136165238Y-140963095D01*
X135117619Y-140486904D02*
X135070000Y-140439285D01*
X135022380Y-140344047D01*
X135022380Y-140105952D01*
X135070000Y-140010714D01*
X135117619Y-139963095D01*
X135212857Y-139915476D01*
X135308095Y-139915476D01*
X135450952Y-139963095D01*
X136022380Y-140534523D01*
X136022380Y-139915476D01*
X135022380Y-139010714D02*
X135022380Y-139486904D01*
X135498571Y-139534523D01*
X135450952Y-139486904D01*
X135403333Y-139391666D01*
X135403333Y-139153571D01*
X135450952Y-139058333D01*
X135498571Y-139010714D01*
X135593809Y-138963095D01*
X135831904Y-138963095D01*
X135927142Y-139010714D01*
X135974761Y-139058333D01*
X136022380Y-139153571D01*
X136022380Y-139391666D01*
X135974761Y-139486904D01*
X135927142Y-139534523D01*
X135022380Y-138344047D02*
X135022380Y-138248809D01*
X135070000Y-138153571D01*
X135117619Y-138105952D01*
X135212857Y-138058333D01*
X135403333Y-138010714D01*
X135641428Y-138010714D01*
X135831904Y-138058333D01*
X135927142Y-138105952D01*
X135974761Y-138153571D01*
X136022380Y-138248809D01*
X136022380Y-138344047D01*
X135974761Y-138439285D01*
X135927142Y-138486904D01*
X135831904Y-138534523D01*
X135641428Y-138582142D01*
X135403333Y-138582142D01*
X135212857Y-138534523D01*
X135117619Y-138486904D01*
X135070000Y-138439285D01*
X135022380Y-138344047D01*
X136022380Y-136820238D02*
X135355714Y-136820238D01*
X135450952Y-136820238D02*
X135403333Y-136772619D01*
X135355714Y-136677380D01*
X135355714Y-136534523D01*
X135403333Y-136439285D01*
X135498571Y-136391666D01*
X136022380Y-136391666D01*
X135498571Y-136391666D02*
X135403333Y-136344047D01*
X135355714Y-136248809D01*
X135355714Y-136105952D01*
X135403333Y-136010714D01*
X135498571Y-135963095D01*
X136022380Y-135963095D01*
X136022380Y-135486904D02*
X135355714Y-135486904D01*
X135450952Y-135486904D02*
X135403333Y-135439285D01*
X135355714Y-135344047D01*
X135355714Y-135201190D01*
X135403333Y-135105952D01*
X135498571Y-135058333D01*
X136022380Y-135058333D01*
X135498571Y-135058333D02*
X135403333Y-135010714D01*
X135355714Y-134915476D01*
X135355714Y-134772619D01*
X135403333Y-134677380D01*
X135498571Y-134629761D01*
X136022380Y-134629761D01*
D10*
X134300000Y-159350000D02*
X134300000Y-118100000D01*
X128050000Y-159350000D02*
X134886421Y-159350000D01*
X128050000Y-118100000D02*
X134886421Y-118100000D01*
X134300000Y-118100000D02*
X134886421Y-119226504D01*
X134300000Y-118100000D02*
X133713579Y-119226504D01*
X134300000Y-159350000D02*
X134886421Y-158223496D01*
X134300000Y-159350000D02*
X133713579Y-158223496D01*
X72510000Y-142920000D02*
X72510000Y-158280000D01*
X72510000Y-158280000D02*
X69850000Y-158280000D01*
X69850000Y-158280000D02*
X69850000Y-142920000D01*
X69850000Y-142920000D02*
X72510000Y-142920000D01*
X69850000Y-143870000D02*
X63850000Y-143870000D01*
X63850000Y-143870000D02*
X63850000Y-144630000D01*
X63850000Y-144630000D02*
X69850000Y-144630000D01*
X69850000Y-143930000D02*
X63850000Y-143930000D01*
X69850000Y-144050000D02*
X63850000Y-144050000D01*
X69850000Y-144170000D02*
X63850000Y-144170000D01*
X69850000Y-144290000D02*
X63850000Y-144290000D01*
X69850000Y-144410000D02*
X63850000Y-144410000D01*
X69850000Y-144530000D02*
X63850000Y-144530000D01*
X72907071Y-143870000D02*
X72510000Y-143870000D01*
X72907071Y-144630000D02*
X72510000Y-144630000D01*
X75380000Y-143870000D02*
X74992929Y-143870000D01*
X75380000Y-144630000D02*
X74992929Y-144630000D01*
X72510000Y-145520000D02*
X69850000Y-145520000D01*
X69850000Y-146410000D02*
X63850000Y-146410000D01*
X63850000Y-146410000D02*
X63850000Y-147170000D01*
X63850000Y-147170000D02*
X69850000Y-147170000D01*
X72907071Y-146410000D02*
X72510000Y-146410000D01*
X72907071Y-147170000D02*
X72510000Y-147170000D01*
X75447071Y-146410000D02*
X74992929Y-146410000D01*
X75447071Y-147170000D02*
X74992929Y-147170000D01*
X72510000Y-148060000D02*
X69850000Y-148060000D01*
X69850000Y-148950000D02*
X63850000Y-148950000D01*
X63850000Y-148950000D02*
X63850000Y-149710000D01*
X63850000Y-149710000D02*
X69850000Y-149710000D01*
X72907071Y-148950000D02*
X72510000Y-148950000D01*
X72907071Y-149710000D02*
X72510000Y-149710000D01*
X75447071Y-148950000D02*
X74992929Y-148950000D01*
X75447071Y-149710000D02*
X74992929Y-149710000D01*
X72510000Y-150600000D02*
X69850000Y-150600000D01*
X69850000Y-151490000D02*
X63850000Y-151490000D01*
X63850000Y-151490000D02*
X63850000Y-152250000D01*
X63850000Y-152250000D02*
X69850000Y-152250000D01*
X72907071Y-151490000D02*
X72510000Y-151490000D01*
X72907071Y-152250000D02*
X72510000Y-152250000D01*
X75447071Y-151490000D02*
X74992929Y-151490000D01*
X75447071Y-152250000D02*
X74992929Y-152250000D01*
X72510000Y-153140000D02*
X69850000Y-153140000D01*
X69850000Y-154030000D02*
X63850000Y-154030000D01*
X63850000Y-154030000D02*
X63850000Y-154790000D01*
X63850000Y-154790000D02*
X69850000Y-154790000D01*
X72907071Y-154030000D02*
X72510000Y-154030000D01*
X72907071Y-154790000D02*
X72510000Y-154790000D01*
X75447071Y-154030000D02*
X74992929Y-154030000D01*
X75447071Y-154790000D02*
X74992929Y-154790000D01*
X72510000Y-155680000D02*
X69850000Y-155680000D01*
X69850000Y-156570000D02*
X63850000Y-156570000D01*
X63850000Y-156570000D02*
X63850000Y-157330000D01*
X63850000Y-157330000D02*
X69850000Y-157330000D01*
X72907071Y-156570000D02*
X72510000Y-156570000D01*
X72907071Y-157330000D02*
X72510000Y-157330000D01*
X75447071Y-156570000D02*
X74992929Y-156570000D01*
X75447071Y-157330000D02*
X74992929Y-157330000D01*
X77760000Y-144250000D02*
X77760000Y-142980000D01*
X77760000Y-142980000D02*
X76490000Y-142980000D01*
X72510000Y-120075000D02*
X72510000Y-135435000D01*
X72510000Y-135435000D02*
X69850000Y-135435000D01*
X69850000Y-135435000D02*
X69850000Y-120075000D01*
X69850000Y-120075000D02*
X72510000Y-120075000D01*
X69850000Y-121025000D02*
X63850000Y-121025000D01*
X63850000Y-121025000D02*
X63850000Y-121785000D01*
X63850000Y-121785000D02*
X69850000Y-121785000D01*
X69850000Y-121085000D02*
X63850000Y-121085000D01*
X69850000Y-121205000D02*
X63850000Y-121205000D01*
X69850000Y-121325000D02*
X63850000Y-121325000D01*
X69850000Y-121445000D02*
X63850000Y-121445000D01*
X69850000Y-121565000D02*
X63850000Y-121565000D01*
X69850000Y-121685000D02*
X63850000Y-121685000D01*
X72907071Y-121025000D02*
X72510000Y-121025000D01*
X72907071Y-121785000D02*
X72510000Y-121785000D01*
X75380000Y-121025000D02*
X74992929Y-121025000D01*
X75380000Y-121785000D02*
X74992929Y-121785000D01*
X72510000Y-122675000D02*
X69850000Y-122675000D01*
X69850000Y-123565000D02*
X63850000Y-123565000D01*
X63850000Y-123565000D02*
X63850000Y-124325000D01*
X63850000Y-124325000D02*
X69850000Y-124325000D01*
X72907071Y-123565000D02*
X72510000Y-123565000D01*
X72907071Y-124325000D02*
X72510000Y-124325000D01*
X75447071Y-123565000D02*
X74992929Y-123565000D01*
X75447071Y-124325000D02*
X74992929Y-124325000D01*
X72510000Y-125215000D02*
X69850000Y-125215000D01*
X69850000Y-126105000D02*
X63850000Y-126105000D01*
X63850000Y-126105000D02*
X63850000Y-126865000D01*
X63850000Y-126865000D02*
X69850000Y-126865000D01*
X72907071Y-126105000D02*
X72510000Y-126105000D01*
X72907071Y-126865000D02*
X72510000Y-126865000D01*
X75447071Y-126105000D02*
X74992929Y-126105000D01*
X75447071Y-126865000D02*
X74992929Y-126865000D01*
X72510000Y-127755000D02*
X69850000Y-127755000D01*
X69850000Y-128645000D02*
X63850000Y-128645000D01*
X63850000Y-128645000D02*
X63850000Y-129405000D01*
X63850000Y-129405000D02*
X69850000Y-129405000D01*
X72907071Y-128645000D02*
X72510000Y-128645000D01*
X72907071Y-129405000D02*
X72510000Y-129405000D01*
X75447071Y-128645000D02*
X74992929Y-128645000D01*
X75447071Y-129405000D02*
X74992929Y-129405000D01*
X72510000Y-130295000D02*
X69850000Y-130295000D01*
X69850000Y-131185000D02*
X63850000Y-131185000D01*
X63850000Y-131185000D02*
X63850000Y-131945000D01*
X63850000Y-131945000D02*
X69850000Y-131945000D01*
X72907071Y-131185000D02*
X72510000Y-131185000D01*
X72907071Y-131945000D02*
X72510000Y-131945000D01*
X75447071Y-131185000D02*
X74992929Y-131185000D01*
X75447071Y-131945000D02*
X74992929Y-131945000D01*
X72510000Y-132835000D02*
X69850000Y-132835000D01*
X69850000Y-133725000D02*
X63850000Y-133725000D01*
X63850000Y-133725000D02*
X63850000Y-134485000D01*
X63850000Y-134485000D02*
X69850000Y-134485000D01*
X72907071Y-133725000D02*
X72510000Y-133725000D01*
X72907071Y-134485000D02*
X72510000Y-134485000D01*
X75447071Y-133725000D02*
X74992929Y-133725000D01*
X75447071Y-134485000D02*
X74992929Y-134485000D01*
X77760000Y-121405000D02*
X77760000Y-120135000D01*
X77760000Y-120135000D02*
X76490000Y-120135000D01*
X90380000Y-129910000D02*
X85180000Y-129910000D01*
X90380000Y-152830000D02*
X90380000Y-129910000D01*
X85180000Y-155430000D02*
X85180000Y-129910000D01*
X90380000Y-152830000D02*
X87780000Y-152830000D01*
X87780000Y-152830000D02*
X87780000Y-155430000D01*
X87780000Y-155430000D02*
X85180000Y-155430000D01*
X90380000Y-154100000D02*
X90380000Y-155430000D01*
X90380000Y-155430000D02*
X89050000Y-155430000D01*
X100200000Y-156325000D02*
X97915000Y-156325000D01*
X97915000Y-156325000D02*
X97915000Y-157795000D01*
X97915000Y-157795000D02*
X100200000Y-157795000D01*
D11*
X114925000Y-150450000D02*
X114925000Y-150175000D01*
X107175000Y-150450000D02*
X107175000Y-150097500D01*
X107175000Y-131750000D02*
X107175000Y-132102500D01*
X114925000Y-131750000D02*
X114925000Y-132102500D01*
X114925000Y-150450000D02*
X107175000Y-150450000D01*
X114925000Y-131750000D02*
X107175000Y-131750000D01*
X114925000Y-150175000D02*
X116350000Y-150175000D01*
D10*
X94762779Y-157560000D02*
X94437221Y-157560000D01*
X94762779Y-156540000D02*
X94437221Y-156540000D01*
X84425279Y-157610000D02*
X84099721Y-157610000D01*
X84425279Y-156590000D02*
X84099721Y-156590000D01*
X126380000Y-127320000D02*
X121180000Y-127320000D01*
X126380000Y-150240000D02*
X126380000Y-127320000D01*
X121180000Y-152840000D02*
X121180000Y-127320000D01*
X126380000Y-150240000D02*
X123780000Y-150240000D01*
X123780000Y-150240000D02*
X123780000Y-152840000D01*
X123780000Y-152840000D02*
X121180000Y-152840000D01*
X126380000Y-151510000D02*
X126380000Y-152840000D01*
X126380000Y-152840000D02*
X125050000Y-152840000D01*
X100830000Y-129910000D02*
X95630000Y-129910000D01*
X100830000Y-152830000D02*
X100830000Y-129910000D01*
X95630000Y-155430000D02*
X95630000Y-129910000D01*
X100830000Y-152830000D02*
X98230000Y-152830000D01*
X98230000Y-152830000D02*
X98230000Y-155430000D01*
X98230000Y-155430000D02*
X95630000Y-155430000D01*
X100830000Y-154100000D02*
X100830000Y-155430000D01*
X100830000Y-155430000D02*
X99500000Y-155430000D01*
X81160000Y-119770000D02*
X81160000Y-124970000D01*
X104080000Y-119770000D02*
X81160000Y-119770000D01*
X106680000Y-124970000D02*
X81160000Y-124970000D01*
X104080000Y-119770000D02*
X104080000Y-122370000D01*
X104080000Y-122370000D02*
X106680000Y-122370000D01*
X106680000Y-122370000D02*
X106680000Y-124970000D01*
X105350000Y-119770000D02*
X106680000Y-119770000D01*
X106680000Y-119770000D02*
X106680000Y-121100000D01*
X90062500Y-156325000D02*
X87777500Y-156325000D01*
X87777500Y-156325000D02*
X87777500Y-157795000D01*
X87777500Y-157795000D02*
X90062500Y-157795000D01*
X113570000Y-128422779D02*
X113570000Y-128097221D01*
X114590000Y-128422779D02*
X114590000Y-128097221D01*
X109760000Y-128422779D02*
X109760000Y-128097221D01*
X110780000Y-128422779D02*
X110780000Y-128097221D01*
D11*
X67814761Y-140892380D02*
X67814761Y-139892380D01*
X68195714Y-139892380D01*
X68290952Y-139940000D01*
X68338571Y-139987619D01*
X68386190Y-140082857D01*
X68386190Y-140225714D01*
X68338571Y-140320952D01*
X68290952Y-140368571D01*
X68195714Y-140416190D01*
X67814761Y-140416190D01*
X68814761Y-140892380D02*
X68814761Y-139892380D01*
X69148095Y-140606666D01*
X69481428Y-139892380D01*
X69481428Y-140892380D01*
X70148095Y-139892380D02*
X70338571Y-139892380D01*
X70433809Y-139940000D01*
X70529047Y-140035238D01*
X70576666Y-140225714D01*
X70576666Y-140559047D01*
X70529047Y-140749523D01*
X70433809Y-140844761D01*
X70338571Y-140892380D01*
X70148095Y-140892380D01*
X70052857Y-140844761D01*
X69957619Y-140749523D01*
X69910000Y-140559047D01*
X69910000Y-140225714D01*
X69957619Y-140035238D01*
X70052857Y-139940000D01*
X70148095Y-139892380D01*
X71005238Y-140892380D02*
X71005238Y-139892380D01*
X71243333Y-139892380D01*
X71386190Y-139940000D01*
X71481428Y-140035238D01*
X71529047Y-140130476D01*
X71576666Y-140320952D01*
X71576666Y-140463809D01*
X71529047Y-140654285D01*
X71481428Y-140749523D01*
X71386190Y-140844761D01*
X71243333Y-140892380D01*
X71005238Y-140892380D01*
X71767142Y-140987619D02*
X72529047Y-140987619D01*
X73052857Y-139892380D02*
X73052857Y-140606666D01*
X73005238Y-140749523D01*
X72910000Y-140844761D01*
X72767142Y-140892380D01*
X72671904Y-140892380D01*
X73862380Y-140368571D02*
X74005238Y-140416190D01*
X74052857Y-140463809D01*
X74100476Y-140559047D01*
X74100476Y-140701904D01*
X74052857Y-140797142D01*
X74005238Y-140844761D01*
X73910000Y-140892380D01*
X73529047Y-140892380D01*
X73529047Y-139892380D01*
X73862380Y-139892380D01*
X73957619Y-139940000D01*
X74005238Y-139987619D01*
X74052857Y-140082857D01*
X74052857Y-140178095D01*
X74005238Y-140273333D01*
X73957619Y-140320952D01*
X73862380Y-140368571D01*
X73529047Y-140368571D01*
X75052857Y-140892380D02*
X74481428Y-140892380D01*
X74767142Y-140892380D02*
X74767142Y-139892380D01*
X74671904Y-140035238D01*
X74576666Y-140130476D01*
X74481428Y-140178095D01*
X67886190Y-118047380D02*
X67886190Y-117047380D01*
X68267142Y-117047380D01*
X68362380Y-117095000D01*
X68410000Y-117142619D01*
X68457619Y-117237857D01*
X68457619Y-117380714D01*
X68410000Y-117475952D01*
X68362380Y-117523571D01*
X68267142Y-117571190D01*
X67886190Y-117571190D01*
X68886190Y-118047380D02*
X68886190Y-117047380D01*
X69219523Y-117761666D01*
X69552857Y-117047380D01*
X69552857Y-118047380D01*
X70219523Y-117047380D02*
X70410000Y-117047380D01*
X70505238Y-117095000D01*
X70600476Y-117190238D01*
X70648095Y-117380714D01*
X70648095Y-117714047D01*
X70600476Y-117904523D01*
X70505238Y-117999761D01*
X70410000Y-118047380D01*
X70219523Y-118047380D01*
X70124285Y-117999761D01*
X70029047Y-117904523D01*
X69981428Y-117714047D01*
X69981428Y-117380714D01*
X70029047Y-117190238D01*
X70124285Y-117095000D01*
X70219523Y-117047380D01*
X71076666Y-118047380D02*
X71076666Y-117047380D01*
X71314761Y-117047380D01*
X71457619Y-117095000D01*
X71552857Y-117190238D01*
X71600476Y-117285476D01*
X71648095Y-117475952D01*
X71648095Y-117618809D01*
X71600476Y-117809285D01*
X71552857Y-117904523D01*
X71457619Y-117999761D01*
X71314761Y-118047380D01*
X71076666Y-118047380D01*
X71838571Y-118142619D02*
X72600476Y-118142619D01*
X73124285Y-117047380D02*
X73124285Y-117761666D01*
X73076666Y-117904523D01*
X72981428Y-117999761D01*
X72838571Y-118047380D01*
X72743333Y-118047380D01*
X73552857Y-117761666D02*
X74029047Y-117761666D01*
X73457619Y-118047380D02*
X73790952Y-117047380D01*
X74124285Y-118047380D01*
X74981428Y-118047380D02*
X74410000Y-118047380D01*
X74695714Y-118047380D02*
X74695714Y-117047380D01*
X74600476Y-117190238D01*
X74505238Y-117285476D01*
X74410000Y-117333095D01*
X91109771Y-152466471D02*
X92181200Y-152466471D01*
X92395485Y-152537900D01*
X92538342Y-152680757D01*
X92609771Y-152895042D01*
X92609771Y-153037900D01*
X91109771Y-151966471D02*
X91109771Y-151109328D01*
X92609771Y-151537900D02*
X91109771Y-151537900D01*
X92181200Y-150680757D02*
X92181200Y-149966471D01*
X92609771Y-150823614D02*
X91109771Y-150323614D01*
X92609771Y-149823614D01*
X91181200Y-148537900D02*
X91109771Y-148680757D01*
X91109771Y-148895042D01*
X91181200Y-149109328D01*
X91324057Y-149252185D01*
X91466914Y-149323614D01*
X91752628Y-149395042D01*
X91966914Y-149395042D01*
X92252628Y-149323614D01*
X92395485Y-149252185D01*
X92538342Y-149109328D01*
X92609771Y-148895042D01*
X92609771Y-148752185D01*
X92538342Y-148537900D01*
X92466914Y-148466471D01*
X91966914Y-148466471D01*
X91966914Y-148752185D01*
X92752628Y-148180757D02*
X92752628Y-147037900D01*
X92609771Y-146680757D02*
X91109771Y-146680757D01*
X92609771Y-145966471D02*
X91109771Y-145966471D01*
X92609771Y-145109328D01*
X91109771Y-145109328D01*
X91109771Y-144109328D02*
X91109771Y-143966471D01*
X91181200Y-143823614D01*
X91252628Y-143752185D01*
X91395485Y-143680757D01*
X91681200Y-143609328D01*
X92038342Y-143609328D01*
X92324057Y-143680757D01*
X92466914Y-143752185D01*
X92538342Y-143823614D01*
X92609771Y-143966471D01*
X92609771Y-144109328D01*
X92538342Y-144252185D01*
X92466914Y-144323614D01*
X92324057Y-144395042D01*
X92038342Y-144466471D01*
X91681200Y-144466471D01*
X91395485Y-144395042D01*
X91252628Y-144323614D01*
X91181200Y-144252185D01*
X91109771Y-144109328D01*
X98762304Y-159116180D02*
X98762304Y-158116180D01*
X99000400Y-158116180D01*
X99143257Y-158163800D01*
X99238495Y-158259038D01*
X99286114Y-158354276D01*
X99333733Y-158544752D01*
X99333733Y-158687609D01*
X99286114Y-158878085D01*
X99238495Y-158973323D01*
X99143257Y-159068561D01*
X99000400Y-159116180D01*
X98762304Y-159116180D01*
X100286114Y-159116180D02*
X99714685Y-159116180D01*
X100000400Y-159116180D02*
X100000400Y-158116180D01*
X99905161Y-158259038D01*
X99809923Y-158354276D01*
X99714685Y-158401895D01*
X110288095Y-150827380D02*
X110288095Y-151636904D01*
X110335714Y-151732142D01*
X110383333Y-151779761D01*
X110478571Y-151827380D01*
X110669047Y-151827380D01*
X110764285Y-151779761D01*
X110811904Y-151732142D01*
X110859523Y-151636904D01*
X110859523Y-150827380D01*
X111859523Y-151827380D02*
X111288095Y-151827380D01*
X111573809Y-151827380D02*
X111573809Y-150827380D01*
X111478571Y-150970238D01*
X111383333Y-151065476D01*
X111288095Y-151113095D01*
X94418833Y-158887580D02*
X94085500Y-158411390D01*
X93847404Y-158887580D02*
X93847404Y-157887580D01*
X94228357Y-157887580D01*
X94323595Y-157935200D01*
X94371214Y-157982819D01*
X94418833Y-158078057D01*
X94418833Y-158220914D01*
X94371214Y-158316152D01*
X94323595Y-158363771D01*
X94228357Y-158411390D01*
X93847404Y-158411390D01*
X95371214Y-158887580D02*
X94799785Y-158887580D01*
X95085500Y-158887580D02*
X95085500Y-157887580D01*
X94990261Y-158030438D01*
X94895023Y-158125676D01*
X94799785Y-158173295D01*
X84095833Y-158982380D02*
X83762500Y-158506190D01*
X83524404Y-158982380D02*
X83524404Y-157982380D01*
X83905357Y-157982380D01*
X84000595Y-158030000D01*
X84048214Y-158077619D01*
X84095833Y-158172857D01*
X84095833Y-158315714D01*
X84048214Y-158410952D01*
X84000595Y-158458571D01*
X83905357Y-158506190D01*
X83524404Y-158506190D01*
X84714880Y-157982380D02*
X84810119Y-157982380D01*
X84905357Y-158030000D01*
X84952976Y-158077619D01*
X85000595Y-158172857D01*
X85048214Y-158363333D01*
X85048214Y-158601428D01*
X85000595Y-158791904D01*
X84952976Y-158887142D01*
X84905357Y-158934761D01*
X84810119Y-158982380D01*
X84714880Y-158982380D01*
X84619642Y-158934761D01*
X84572023Y-158887142D01*
X84524404Y-158791904D01*
X84476785Y-158601428D01*
X84476785Y-158363333D01*
X84524404Y-158172857D01*
X84572023Y-158077619D01*
X84619642Y-158030000D01*
X84714880Y-157982380D01*
X118859271Y-146075071D02*
X119930700Y-146075071D01*
X120144985Y-146146500D01*
X120287842Y-146289357D01*
X120359271Y-146503642D01*
X120359271Y-146646500D01*
X118859271Y-145575071D02*
X118859271Y-144717928D01*
X120359271Y-145146500D02*
X118859271Y-145146500D01*
X119930700Y-144289357D02*
X119930700Y-143575071D01*
X120359271Y-144432214D02*
X118859271Y-143932214D01*
X120359271Y-143432214D01*
X118930700Y-142146500D02*
X118859271Y-142289357D01*
X118859271Y-142503642D01*
X118930700Y-142717928D01*
X119073557Y-142860785D01*
X119216414Y-142932214D01*
X119502128Y-143003642D01*
X119716414Y-143003642D01*
X120002128Y-142932214D01*
X120144985Y-142860785D01*
X120287842Y-142717928D01*
X120359271Y-142503642D01*
X120359271Y-142360785D01*
X120287842Y-142146500D01*
X120216414Y-142075071D01*
X119716414Y-142075071D01*
X119716414Y-142360785D01*
X120502128Y-141789357D02*
X120502128Y-140646500D01*
X118859271Y-140003642D02*
X118859271Y-139717928D01*
X118930700Y-139575071D01*
X119073557Y-139432214D01*
X119359271Y-139360785D01*
X119859271Y-139360785D01*
X120144985Y-139432214D01*
X120287842Y-139575071D01*
X120359271Y-139717928D01*
X120359271Y-140003642D01*
X120287842Y-140146500D01*
X120144985Y-140289357D01*
X119859271Y-140360785D01*
X119359271Y-140360785D01*
X119073557Y-140289357D01*
X118930700Y-140146500D01*
X118859271Y-140003642D01*
X118859271Y-138717928D02*
X120073557Y-138717928D01*
X120216414Y-138646500D01*
X120287842Y-138575071D01*
X120359271Y-138432214D01*
X120359271Y-138146500D01*
X120287842Y-138003642D01*
X120216414Y-137932214D01*
X120073557Y-137860785D01*
X118859271Y-137860785D01*
X118859271Y-137360785D02*
X118859271Y-136503642D01*
X120359271Y-136932214D02*
X118859271Y-136932214D01*
X118859271Y-135717928D02*
X118859271Y-135575071D01*
X118930700Y-135432214D01*
X119002128Y-135360785D01*
X119144985Y-135289357D01*
X119430700Y-135217928D01*
X119787842Y-135217928D01*
X120073557Y-135289357D01*
X120216414Y-135360785D01*
X120287842Y-135432214D01*
X120359271Y-135575071D01*
X120359271Y-135717928D01*
X120287842Y-135860785D01*
X120216414Y-135932214D01*
X120073557Y-136003642D01*
X119787842Y-136075071D01*
X119430700Y-136075071D01*
X119144985Y-136003642D01*
X119002128Y-135932214D01*
X118930700Y-135860785D01*
X118859271Y-135717928D01*
X101739671Y-152466471D02*
X102811100Y-152466471D01*
X103025385Y-152537900D01*
X103168242Y-152680757D01*
X103239671Y-152895042D01*
X103239671Y-153037900D01*
X101739671Y-151966471D02*
X101739671Y-151109328D01*
X103239671Y-151537900D02*
X101739671Y-151537900D01*
X102811100Y-150680757D02*
X102811100Y-149966471D01*
X103239671Y-150823614D02*
X101739671Y-150323614D01*
X103239671Y-149823614D01*
X101811100Y-148537900D02*
X101739671Y-148680757D01*
X101739671Y-148895042D01*
X101811100Y-149109328D01*
X101953957Y-149252185D01*
X102096814Y-149323614D01*
X102382528Y-149395042D01*
X102596814Y-149395042D01*
X102882528Y-149323614D01*
X103025385Y-149252185D01*
X103168242Y-149109328D01*
X103239671Y-148895042D01*
X103239671Y-148752185D01*
X103168242Y-148537900D01*
X103096814Y-148466471D01*
X102596814Y-148466471D01*
X102596814Y-148752185D01*
X103382528Y-148180757D02*
X103382528Y-147037900D01*
X103239671Y-146680757D02*
X101739671Y-146680757D01*
X103239671Y-145966471D02*
X101739671Y-145966471D01*
X103239671Y-145109328D01*
X101739671Y-145109328D01*
X103239671Y-143609328D02*
X103239671Y-144466471D01*
X103239671Y-144037900D02*
X101739671Y-144037900D01*
X101953957Y-144180757D01*
X102096814Y-144323614D01*
X102168242Y-144466471D01*
X97922466Y-118454080D02*
X97922466Y-119168366D01*
X97874847Y-119311223D01*
X97779609Y-119406461D01*
X97636752Y-119454080D01*
X97541514Y-119454080D01*
X98922466Y-119454080D02*
X98351038Y-119454080D01*
X98636752Y-119454080D02*
X98636752Y-118454080D01*
X98541514Y-118596938D01*
X98446276Y-118692176D01*
X98351038Y-118739795D01*
X88881704Y-159027280D02*
X88881704Y-158027280D01*
X89119800Y-158027280D01*
X89262657Y-158074900D01*
X89357895Y-158170138D01*
X89405514Y-158265376D01*
X89453133Y-158455852D01*
X89453133Y-158598709D01*
X89405514Y-158789185D01*
X89357895Y-158884423D01*
X89262657Y-158979661D01*
X89119800Y-159027280D01*
X88881704Y-159027280D01*
X90072180Y-158027280D02*
X90167419Y-158027280D01*
X90262657Y-158074900D01*
X90310276Y-158122519D01*
X90357895Y-158217757D01*
X90405514Y-158408233D01*
X90405514Y-158646328D01*
X90357895Y-158836804D01*
X90310276Y-158932042D01*
X90262657Y-158979661D01*
X90167419Y-159027280D01*
X90072180Y-159027280D01*
X89976942Y-158979661D01*
X89929323Y-158932042D01*
X89881704Y-158836804D01*
X89834085Y-158646328D01*
X89834085Y-158408233D01*
X89881704Y-158217757D01*
X89929323Y-158122519D01*
X89976942Y-158074900D01*
X90072180Y-158027280D01*
X113007142Y-128426666D02*
X113054761Y-128474285D01*
X113102380Y-128617142D01*
X113102380Y-128712380D01*
X113054761Y-128855238D01*
X112959523Y-128950476D01*
X112864285Y-128998095D01*
X112673809Y-129045714D01*
X112530952Y-129045714D01*
X112340476Y-128998095D01*
X112245238Y-128950476D01*
X112150000Y-128855238D01*
X112102380Y-128712380D01*
X112102380Y-128617142D01*
X112150000Y-128474285D01*
X112197619Y-128426666D01*
X113102380Y-127474285D02*
X113102380Y-128045714D01*
X113102380Y-127760000D02*
X112102380Y-127760000D01*
X112245238Y-127855238D01*
X112340476Y-127950476D01*
X112388095Y-128045714D01*
X109197142Y-128426666D02*
X109244761Y-128474285D01*
X109292380Y-128617142D01*
X109292380Y-128712380D01*
X109244761Y-128855238D01*
X109149523Y-128950476D01*
X109054285Y-128998095D01*
X108863809Y-129045714D01*
X108720952Y-129045714D01*
X108530476Y-128998095D01*
X108435238Y-128950476D01*
X108340000Y-128855238D01*
X108292380Y-128712380D01*
X108292380Y-128617142D01*
X108340000Y-128474285D01*
X108387619Y-128426666D01*
X108292380Y-127807619D02*
X108292380Y-127712380D01*
X108340000Y-127617142D01*
X108387619Y-127569523D01*
X108482857Y-127521904D01*
X108673333Y-127474285D01*
X108911428Y-127474285D01*
X109101904Y-127521904D01*
X109197142Y-127569523D01*
X109244761Y-127617142D01*
X109292380Y-127712380D01*
X109292380Y-127807619D01*
X109244761Y-127902857D01*
X109197142Y-127950476D01*
X109101904Y-127998095D01*
X108911428Y-128045714D01*
X108673333Y-128045714D01*
X108482857Y-127998095D01*
X108387619Y-127950476D01*
X108340000Y-127902857D01*
X108292380Y-127807619D01*
M02*
