M48
; DRILL file {KiCad (5.1.0-165-g615c49315)} date ven. 12 avril 2019 15:14:08 CEST
; FORMAT={-:-/ absolute / inch / decimal}
; #@! TF.CreationDate,2019-04-12T15:14:08+02:00
; #@! TF.GenerationSoftware,Kicad,Pcbnew,(5.1.0-165-g615c49315)
; #@! TF.FileFunction,Plated,1,4,PTH
FMAT,2
INCH
T1C0.0157
T2C0.0394
%
G90
G05
T1
X2.3455Y-4.83
X2.3724Y-5.1016
X2.3749Y-4.6416
X2.4274Y-5.6291
X2.4299Y-5.5266
X2.5299Y-5.6291
X2.5974Y-5.5266
X2.6324Y-5.6291
X2.7349Y-5.6291
X2.7374Y-5.5266
X2.7554Y-5.1086
X2.7555Y-4.8336
X2.8921Y-4.6772
X2.9537Y-5.3416
X3.0274Y-4.6501
X3.0285Y-4.7183
X3.2729Y-4.708
X3.3849Y-4.373
X3.3849Y-5.3941
X3.4274Y-5.3916
X3.7799Y-4.3666
T2
X2.8661Y-5.6835
X2.8661Y-5.7835
X2.9661Y-5.6835
X2.9661Y-5.7835
X3.0661Y-5.6835
X3.0661Y-5.7835
X3.1661Y-5.6835
X3.1661Y-5.7835
X3.2661Y-5.6835
X3.2661Y-5.7835
X3.3661Y-5.6835
X3.3661Y-5.7835
X3.4661Y-5.6835
X3.4661Y-5.7835
X3.5661Y-5.6835
X3.5661Y-5.7835
X3.6661Y-5.6835
X3.6661Y-5.7835
X3.7661Y-5.6835
X3.7661Y-5.7835
X3.0965Y-4.4843
X3.0965Y-4.5843
X3.0965Y-4.6843
X3.0965Y-4.7843
X3.0965Y-4.8843
X3.0965Y-4.9843
X3.0965Y-5.0843
X3.0965Y-5.1843
X3.0965Y-5.2843
X3.0965Y-5.3843
X3.1965Y-4.4843
X3.1965Y-4.5843
X3.1965Y-4.6843
X3.1965Y-4.7843
X3.1965Y-4.8843
X3.1965Y-4.9843
X3.1965Y-5.0843
X3.1965Y-5.1843
X3.1965Y-5.2843
X3.1965Y-5.3843
X4.0024Y-4.3717
X4.0024Y-4.4717
X4.0024Y-4.5717
X4.0024Y-4.6717
X4.0024Y-4.7717
X4.0024Y-4.8717
X4.1024Y-4.3717
X4.1024Y-4.4717
X4.1024Y-4.5717
X4.1024Y-4.6717
X4.1024Y-4.7717
X4.1024Y-4.8717
X2.0906Y-4.5862
X2.0906Y-4.6862
X2.0906Y-4.7862
X2.0906Y-4.8862
X2.0906Y-4.9862
X2.0906Y-5.0862
X2.0906Y-5.1862
X2.0906Y-5.2862
X2.0906Y-5.3862
X2.0906Y-5.4862
X2.1906Y-4.5862
X2.1906Y-4.6862
X2.1906Y-4.7862
X2.1906Y-4.8862
X2.1906Y-4.9862
X2.1906Y-5.0862
X2.1906Y-5.1862
X2.1906Y-5.2862
X2.1906Y-5.3862
X2.1906Y-5.4862
X3.5079Y-4.4843
X3.5079Y-4.5843
X3.5079Y-4.6843
X3.5079Y-4.7843
X3.5079Y-4.8843
X3.5079Y-4.9843
X3.5079Y-5.0843
X3.5079Y-5.1843
X3.5079Y-5.2843
X3.5079Y-5.3843
X3.6079Y-4.4843
X3.6079Y-4.5843
X3.6079Y-4.6843
X3.6079Y-4.7843
X3.6079Y-4.8843
X3.6079Y-4.9843
X3.6079Y-5.0843
X3.6079Y-5.1843
X3.6079Y-5.2843
X3.6079Y-5.3843
X4.0012Y-5.2713
X4.0012Y-5.3713
X4.0012Y-5.4713
X4.0012Y-5.5713
X4.0012Y-5.6713
X4.0012Y-5.7713
X4.1012Y-5.2713
X4.1012Y-5.3713
X4.1012Y-5.4713
X4.1012Y-5.5713
X4.1012Y-5.6713
X4.1012Y-5.7713
T0
M30
