G04 #@! TF.GenerationSoftware,KiCad,Pcbnew,(5.1.0-165-g615c49315)*
G04 #@! TF.CreationDate,2019-04-12T15:14:10+02:00*
G04 #@! TF.ProjectId,JTAGMux_1.0,4a544147-4d75-4785-9f31-2e302e6b6963,rev?*
G04 #@! TF.SameCoordinates,Original*
G04 #@! TF.FileFunction,Paste,Top*
G04 #@! TF.FilePolarity,Positive*
%FSLAX46Y46*%
G04 Gerber Fmt 4.6, Leading zero omitted, Abs format (unit mm)*
G04 Created by KiCad (PCBNEW (5.1.0-165-g615c49315)) date 2019-04-12 15:14:10*
%MOMM*%
%LPD*%
G04 APERTURE LIST*
%ADD10C,0.100000*%
%ADD11C,0.875000*%
%ADD12R,1.200000X0.400000*%
G04 APERTURE END LIST*
D10*
G36*
X78202691Y-110466053D02*
G01*
X78223926Y-110469203D01*
X78244750Y-110474419D01*
X78264962Y-110481651D01*
X78284368Y-110490830D01*
X78302781Y-110501866D01*
X78320024Y-110514654D01*
X78335930Y-110529070D01*
X78350346Y-110544976D01*
X78363134Y-110562219D01*
X78374170Y-110580632D01*
X78383349Y-110600038D01*
X78390581Y-110620250D01*
X78395797Y-110641074D01*
X78398947Y-110662309D01*
X78400000Y-110683750D01*
X78400000Y-111196250D01*
X78398947Y-111217691D01*
X78395797Y-111238926D01*
X78390581Y-111259750D01*
X78383349Y-111279962D01*
X78374170Y-111299368D01*
X78363134Y-111317781D01*
X78350346Y-111335024D01*
X78335930Y-111350930D01*
X78320024Y-111365346D01*
X78302781Y-111378134D01*
X78284368Y-111389170D01*
X78264962Y-111398349D01*
X78244750Y-111405581D01*
X78223926Y-111410797D01*
X78202691Y-111413947D01*
X78181250Y-111415000D01*
X77743750Y-111415000D01*
X77722309Y-111413947D01*
X77701074Y-111410797D01*
X77680250Y-111405581D01*
X77660038Y-111398349D01*
X77640632Y-111389170D01*
X77622219Y-111378134D01*
X77604976Y-111365346D01*
X77589070Y-111350930D01*
X77574654Y-111335024D01*
X77561866Y-111317781D01*
X77550830Y-111299368D01*
X77541651Y-111279962D01*
X77534419Y-111259750D01*
X77529203Y-111238926D01*
X77526053Y-111217691D01*
X77525000Y-111196250D01*
X77525000Y-110683750D01*
X77526053Y-110662309D01*
X77529203Y-110641074D01*
X77534419Y-110620250D01*
X77541651Y-110600038D01*
X77550830Y-110580632D01*
X77561866Y-110562219D01*
X77574654Y-110544976D01*
X77589070Y-110529070D01*
X77604976Y-110514654D01*
X77622219Y-110501866D01*
X77640632Y-110490830D01*
X77660038Y-110481651D01*
X77680250Y-110474419D01*
X77701074Y-110469203D01*
X77722309Y-110466053D01*
X77743750Y-110465000D01*
X78181250Y-110465000D01*
X78202691Y-110466053D01*
X78202691Y-110466053D01*
G37*
D11*
X77962500Y-110940000D03*
D10*
G36*
X79777691Y-110466053D02*
G01*
X79798926Y-110469203D01*
X79819750Y-110474419D01*
X79839962Y-110481651D01*
X79859368Y-110490830D01*
X79877781Y-110501866D01*
X79895024Y-110514654D01*
X79910930Y-110529070D01*
X79925346Y-110544976D01*
X79938134Y-110562219D01*
X79949170Y-110580632D01*
X79958349Y-110600038D01*
X79965581Y-110620250D01*
X79970797Y-110641074D01*
X79973947Y-110662309D01*
X79975000Y-110683750D01*
X79975000Y-111196250D01*
X79973947Y-111217691D01*
X79970797Y-111238926D01*
X79965581Y-111259750D01*
X79958349Y-111279962D01*
X79949170Y-111299368D01*
X79938134Y-111317781D01*
X79925346Y-111335024D01*
X79910930Y-111350930D01*
X79895024Y-111365346D01*
X79877781Y-111378134D01*
X79859368Y-111389170D01*
X79839962Y-111398349D01*
X79819750Y-111405581D01*
X79798926Y-111410797D01*
X79777691Y-111413947D01*
X79756250Y-111415000D01*
X79318750Y-111415000D01*
X79297309Y-111413947D01*
X79276074Y-111410797D01*
X79255250Y-111405581D01*
X79235038Y-111398349D01*
X79215632Y-111389170D01*
X79197219Y-111378134D01*
X79179976Y-111365346D01*
X79164070Y-111350930D01*
X79149654Y-111335024D01*
X79136866Y-111317781D01*
X79125830Y-111299368D01*
X79116651Y-111279962D01*
X79109419Y-111259750D01*
X79104203Y-111238926D01*
X79101053Y-111217691D01*
X79100000Y-111196250D01*
X79100000Y-110683750D01*
X79101053Y-110662309D01*
X79104203Y-110641074D01*
X79109419Y-110620250D01*
X79116651Y-110600038D01*
X79125830Y-110580632D01*
X79136866Y-110562219D01*
X79149654Y-110544976D01*
X79164070Y-110529070D01*
X79179976Y-110514654D01*
X79197219Y-110501866D01*
X79215632Y-110490830D01*
X79235038Y-110481651D01*
X79255250Y-110474419D01*
X79276074Y-110469203D01*
X79297309Y-110466053D01*
X79318750Y-110465000D01*
X79756250Y-110465000D01*
X79777691Y-110466053D01*
X79777691Y-110466053D01*
G37*
D11*
X79537500Y-110940000D03*
D12*
X71800000Y-118327500D03*
X71800000Y-118962500D03*
X71800000Y-119597500D03*
X71800000Y-120232500D03*
X71800000Y-120867500D03*
X71800000Y-121502500D03*
X71800000Y-122137500D03*
X71800000Y-122772500D03*
X71800000Y-123407500D03*
X71800000Y-124042500D03*
X71800000Y-124677500D03*
X71800000Y-125312500D03*
X71800000Y-125947500D03*
X71800000Y-126582500D03*
X71800000Y-127217500D03*
X71800000Y-127852500D03*
X71800000Y-128487500D03*
X71800000Y-129122500D03*
X71800000Y-129757500D03*
X71800000Y-130392500D03*
X71800000Y-131027500D03*
X71800000Y-131662500D03*
X71800000Y-132297500D03*
X71800000Y-132932500D03*
X71800000Y-133567500D03*
X71800000Y-134202500D03*
X71800000Y-134837500D03*
X71800000Y-135472500D03*
X62400000Y-135472500D03*
X62400000Y-134837500D03*
X62400000Y-134202500D03*
X62400000Y-133567500D03*
X62400000Y-132932500D03*
X62400000Y-132297500D03*
X62400000Y-131662500D03*
X62400000Y-131027500D03*
X62400000Y-130392500D03*
X62400000Y-129757500D03*
X62400000Y-129122500D03*
X62400000Y-128487500D03*
X62400000Y-127852500D03*
X62400000Y-127217500D03*
X62400000Y-126582500D03*
X62400000Y-125947500D03*
X62400000Y-125312500D03*
X62400000Y-124677500D03*
X62400000Y-124042500D03*
X62400000Y-123407500D03*
X62400000Y-122772500D03*
X62400000Y-122137500D03*
X62400000Y-121502500D03*
X62400000Y-120867500D03*
X62400000Y-120232500D03*
X62400000Y-119597500D03*
X62400000Y-118962500D03*
X62400000Y-118327500D03*
D10*
G36*
X84577691Y-110476053D02*
G01*
X84598926Y-110479203D01*
X84619750Y-110484419D01*
X84639962Y-110491651D01*
X84659368Y-110500830D01*
X84677781Y-110511866D01*
X84695024Y-110524654D01*
X84710930Y-110539070D01*
X84725346Y-110554976D01*
X84738134Y-110572219D01*
X84749170Y-110590632D01*
X84758349Y-110610038D01*
X84765581Y-110630250D01*
X84770797Y-110651074D01*
X84773947Y-110672309D01*
X84775000Y-110693750D01*
X84775000Y-111206250D01*
X84773947Y-111227691D01*
X84770797Y-111248926D01*
X84765581Y-111269750D01*
X84758349Y-111289962D01*
X84749170Y-111309368D01*
X84738134Y-111327781D01*
X84725346Y-111345024D01*
X84710930Y-111360930D01*
X84695024Y-111375346D01*
X84677781Y-111388134D01*
X84659368Y-111399170D01*
X84639962Y-111408349D01*
X84619750Y-111415581D01*
X84598926Y-111420797D01*
X84577691Y-111423947D01*
X84556250Y-111425000D01*
X84118750Y-111425000D01*
X84097309Y-111423947D01*
X84076074Y-111420797D01*
X84055250Y-111415581D01*
X84035038Y-111408349D01*
X84015632Y-111399170D01*
X83997219Y-111388134D01*
X83979976Y-111375346D01*
X83964070Y-111360930D01*
X83949654Y-111345024D01*
X83936866Y-111327781D01*
X83925830Y-111309368D01*
X83916651Y-111289962D01*
X83909419Y-111269750D01*
X83904203Y-111248926D01*
X83901053Y-111227691D01*
X83900000Y-111206250D01*
X83900000Y-110693750D01*
X83901053Y-110672309D01*
X83904203Y-110651074D01*
X83909419Y-110630250D01*
X83916651Y-110610038D01*
X83925830Y-110590632D01*
X83936866Y-110572219D01*
X83949654Y-110554976D01*
X83964070Y-110539070D01*
X83979976Y-110524654D01*
X83997219Y-110511866D01*
X84015632Y-110500830D01*
X84035038Y-110491651D01*
X84055250Y-110484419D01*
X84076074Y-110479203D01*
X84097309Y-110476053D01*
X84118750Y-110475000D01*
X84556250Y-110475000D01*
X84577691Y-110476053D01*
X84577691Y-110476053D01*
G37*
D11*
X84337500Y-110950000D03*
D10*
G36*
X83002691Y-110476053D02*
G01*
X83023926Y-110479203D01*
X83044750Y-110484419D01*
X83064962Y-110491651D01*
X83084368Y-110500830D01*
X83102781Y-110511866D01*
X83120024Y-110524654D01*
X83135930Y-110539070D01*
X83150346Y-110554976D01*
X83163134Y-110572219D01*
X83174170Y-110590632D01*
X83183349Y-110610038D01*
X83190581Y-110630250D01*
X83195797Y-110651074D01*
X83198947Y-110672309D01*
X83200000Y-110693750D01*
X83200000Y-111206250D01*
X83198947Y-111227691D01*
X83195797Y-111248926D01*
X83190581Y-111269750D01*
X83183349Y-111289962D01*
X83174170Y-111309368D01*
X83163134Y-111327781D01*
X83150346Y-111345024D01*
X83135930Y-111360930D01*
X83120024Y-111375346D01*
X83102781Y-111388134D01*
X83084368Y-111399170D01*
X83064962Y-111408349D01*
X83044750Y-111415581D01*
X83023926Y-111420797D01*
X83002691Y-111423947D01*
X82981250Y-111425000D01*
X82543750Y-111425000D01*
X82522309Y-111423947D01*
X82501074Y-111420797D01*
X82480250Y-111415581D01*
X82460038Y-111408349D01*
X82440632Y-111399170D01*
X82422219Y-111388134D01*
X82404976Y-111375346D01*
X82389070Y-111360930D01*
X82374654Y-111345024D01*
X82361866Y-111327781D01*
X82350830Y-111309368D01*
X82341651Y-111289962D01*
X82334419Y-111269750D01*
X82329203Y-111248926D01*
X82326053Y-111227691D01*
X82325000Y-111206250D01*
X82325000Y-110693750D01*
X82326053Y-110672309D01*
X82329203Y-110651074D01*
X82334419Y-110630250D01*
X82341651Y-110610038D01*
X82350830Y-110590632D01*
X82361866Y-110572219D01*
X82374654Y-110554976D01*
X82389070Y-110539070D01*
X82404976Y-110524654D01*
X82422219Y-110511866D01*
X82440632Y-110500830D01*
X82460038Y-110491651D01*
X82480250Y-110484419D01*
X82501074Y-110479203D01*
X82522309Y-110476053D01*
X82543750Y-110475000D01*
X82981250Y-110475000D01*
X83002691Y-110476053D01*
X83002691Y-110476053D01*
G37*
D11*
X82762500Y-110950000D03*
D10*
G36*
X94915191Y-110426053D02*
G01*
X94936426Y-110429203D01*
X94957250Y-110434419D01*
X94977462Y-110441651D01*
X94996868Y-110450830D01*
X95015281Y-110461866D01*
X95032524Y-110474654D01*
X95048430Y-110489070D01*
X95062846Y-110504976D01*
X95075634Y-110522219D01*
X95086670Y-110540632D01*
X95095849Y-110560038D01*
X95103081Y-110580250D01*
X95108297Y-110601074D01*
X95111447Y-110622309D01*
X95112500Y-110643750D01*
X95112500Y-111156250D01*
X95111447Y-111177691D01*
X95108297Y-111198926D01*
X95103081Y-111219750D01*
X95095849Y-111239962D01*
X95086670Y-111259368D01*
X95075634Y-111277781D01*
X95062846Y-111295024D01*
X95048430Y-111310930D01*
X95032524Y-111325346D01*
X95015281Y-111338134D01*
X94996868Y-111349170D01*
X94977462Y-111358349D01*
X94957250Y-111365581D01*
X94936426Y-111370797D01*
X94915191Y-111373947D01*
X94893750Y-111375000D01*
X94456250Y-111375000D01*
X94434809Y-111373947D01*
X94413574Y-111370797D01*
X94392750Y-111365581D01*
X94372538Y-111358349D01*
X94353132Y-111349170D01*
X94334719Y-111338134D01*
X94317476Y-111325346D01*
X94301570Y-111310930D01*
X94287154Y-111295024D01*
X94274366Y-111277781D01*
X94263330Y-111259368D01*
X94254151Y-111239962D01*
X94246919Y-111219750D01*
X94241703Y-111198926D01*
X94238553Y-111177691D01*
X94237500Y-111156250D01*
X94237500Y-110643750D01*
X94238553Y-110622309D01*
X94241703Y-110601074D01*
X94246919Y-110580250D01*
X94254151Y-110560038D01*
X94263330Y-110540632D01*
X94274366Y-110522219D01*
X94287154Y-110504976D01*
X94301570Y-110489070D01*
X94317476Y-110474654D01*
X94334719Y-110461866D01*
X94353132Y-110450830D01*
X94372538Y-110441651D01*
X94392750Y-110434419D01*
X94413574Y-110429203D01*
X94434809Y-110426053D01*
X94456250Y-110425000D01*
X94893750Y-110425000D01*
X94915191Y-110426053D01*
X94915191Y-110426053D01*
G37*
D11*
X94675000Y-110900000D03*
D10*
G36*
X93340191Y-110426053D02*
G01*
X93361426Y-110429203D01*
X93382250Y-110434419D01*
X93402462Y-110441651D01*
X93421868Y-110450830D01*
X93440281Y-110461866D01*
X93457524Y-110474654D01*
X93473430Y-110489070D01*
X93487846Y-110504976D01*
X93500634Y-110522219D01*
X93511670Y-110540632D01*
X93520849Y-110560038D01*
X93528081Y-110580250D01*
X93533297Y-110601074D01*
X93536447Y-110622309D01*
X93537500Y-110643750D01*
X93537500Y-111156250D01*
X93536447Y-111177691D01*
X93533297Y-111198926D01*
X93528081Y-111219750D01*
X93520849Y-111239962D01*
X93511670Y-111259368D01*
X93500634Y-111277781D01*
X93487846Y-111295024D01*
X93473430Y-111310930D01*
X93457524Y-111325346D01*
X93440281Y-111338134D01*
X93421868Y-111349170D01*
X93402462Y-111358349D01*
X93382250Y-111365581D01*
X93361426Y-111370797D01*
X93340191Y-111373947D01*
X93318750Y-111375000D01*
X92881250Y-111375000D01*
X92859809Y-111373947D01*
X92838574Y-111370797D01*
X92817750Y-111365581D01*
X92797538Y-111358349D01*
X92778132Y-111349170D01*
X92759719Y-111338134D01*
X92742476Y-111325346D01*
X92726570Y-111310930D01*
X92712154Y-111295024D01*
X92699366Y-111277781D01*
X92688330Y-111259368D01*
X92679151Y-111239962D01*
X92671919Y-111219750D01*
X92666703Y-111198926D01*
X92663553Y-111177691D01*
X92662500Y-111156250D01*
X92662500Y-110643750D01*
X92663553Y-110622309D01*
X92666703Y-110601074D01*
X92671919Y-110580250D01*
X92679151Y-110560038D01*
X92688330Y-110540632D01*
X92699366Y-110522219D01*
X92712154Y-110504976D01*
X92726570Y-110489070D01*
X92742476Y-110474654D01*
X92759719Y-110461866D01*
X92778132Y-110450830D01*
X92797538Y-110441651D01*
X92817750Y-110434419D01*
X92838574Y-110429203D01*
X92859809Y-110426053D01*
X92881250Y-110425000D01*
X93318750Y-110425000D01*
X93340191Y-110426053D01*
X93340191Y-110426053D01*
G37*
D11*
X93100000Y-110900000D03*
D10*
G36*
X88340191Y-110466053D02*
G01*
X88361426Y-110469203D01*
X88382250Y-110474419D01*
X88402462Y-110481651D01*
X88421868Y-110490830D01*
X88440281Y-110501866D01*
X88457524Y-110514654D01*
X88473430Y-110529070D01*
X88487846Y-110544976D01*
X88500634Y-110562219D01*
X88511670Y-110580632D01*
X88520849Y-110600038D01*
X88528081Y-110620250D01*
X88533297Y-110641074D01*
X88536447Y-110662309D01*
X88537500Y-110683750D01*
X88537500Y-111196250D01*
X88536447Y-111217691D01*
X88533297Y-111238926D01*
X88528081Y-111259750D01*
X88520849Y-111279962D01*
X88511670Y-111299368D01*
X88500634Y-111317781D01*
X88487846Y-111335024D01*
X88473430Y-111350930D01*
X88457524Y-111365346D01*
X88440281Y-111378134D01*
X88421868Y-111389170D01*
X88402462Y-111398349D01*
X88382250Y-111405581D01*
X88361426Y-111410797D01*
X88340191Y-111413947D01*
X88318750Y-111415000D01*
X87881250Y-111415000D01*
X87859809Y-111413947D01*
X87838574Y-111410797D01*
X87817750Y-111405581D01*
X87797538Y-111398349D01*
X87778132Y-111389170D01*
X87759719Y-111378134D01*
X87742476Y-111365346D01*
X87726570Y-111350930D01*
X87712154Y-111335024D01*
X87699366Y-111317781D01*
X87688330Y-111299368D01*
X87679151Y-111279962D01*
X87671919Y-111259750D01*
X87666703Y-111238926D01*
X87663553Y-111217691D01*
X87662500Y-111196250D01*
X87662500Y-110683750D01*
X87663553Y-110662309D01*
X87666703Y-110641074D01*
X87671919Y-110620250D01*
X87679151Y-110600038D01*
X87688330Y-110580632D01*
X87699366Y-110562219D01*
X87712154Y-110544976D01*
X87726570Y-110529070D01*
X87742476Y-110514654D01*
X87759719Y-110501866D01*
X87778132Y-110490830D01*
X87797538Y-110481651D01*
X87817750Y-110474419D01*
X87838574Y-110469203D01*
X87859809Y-110466053D01*
X87881250Y-110465000D01*
X88318750Y-110465000D01*
X88340191Y-110466053D01*
X88340191Y-110466053D01*
G37*
D11*
X88100000Y-110940000D03*
D10*
G36*
X89915191Y-110466053D02*
G01*
X89936426Y-110469203D01*
X89957250Y-110474419D01*
X89977462Y-110481651D01*
X89996868Y-110490830D01*
X90015281Y-110501866D01*
X90032524Y-110514654D01*
X90048430Y-110529070D01*
X90062846Y-110544976D01*
X90075634Y-110562219D01*
X90086670Y-110580632D01*
X90095849Y-110600038D01*
X90103081Y-110620250D01*
X90108297Y-110641074D01*
X90111447Y-110662309D01*
X90112500Y-110683750D01*
X90112500Y-111196250D01*
X90111447Y-111217691D01*
X90108297Y-111238926D01*
X90103081Y-111259750D01*
X90095849Y-111279962D01*
X90086670Y-111299368D01*
X90075634Y-111317781D01*
X90062846Y-111335024D01*
X90048430Y-111350930D01*
X90032524Y-111365346D01*
X90015281Y-111378134D01*
X89996868Y-111389170D01*
X89977462Y-111398349D01*
X89957250Y-111405581D01*
X89936426Y-111410797D01*
X89915191Y-111413947D01*
X89893750Y-111415000D01*
X89456250Y-111415000D01*
X89434809Y-111413947D01*
X89413574Y-111410797D01*
X89392750Y-111405581D01*
X89372538Y-111398349D01*
X89353132Y-111389170D01*
X89334719Y-111378134D01*
X89317476Y-111365346D01*
X89301570Y-111350930D01*
X89287154Y-111335024D01*
X89274366Y-111317781D01*
X89263330Y-111299368D01*
X89254151Y-111279962D01*
X89246919Y-111259750D01*
X89241703Y-111238926D01*
X89238553Y-111217691D01*
X89237500Y-111196250D01*
X89237500Y-110683750D01*
X89238553Y-110662309D01*
X89241703Y-110641074D01*
X89246919Y-110620250D01*
X89254151Y-110600038D01*
X89263330Y-110580632D01*
X89274366Y-110562219D01*
X89287154Y-110544976D01*
X89301570Y-110529070D01*
X89317476Y-110514654D01*
X89334719Y-110501866D01*
X89353132Y-110490830D01*
X89372538Y-110481651D01*
X89392750Y-110474419D01*
X89413574Y-110469203D01*
X89434809Y-110466053D01*
X89456250Y-110465000D01*
X89893750Y-110465000D01*
X89915191Y-110466053D01*
X89915191Y-110466053D01*
G37*
D11*
X89675000Y-110940000D03*
D10*
G36*
X64347691Y-140091053D02*
G01*
X64368926Y-140094203D01*
X64389750Y-140099419D01*
X64409962Y-140106651D01*
X64429368Y-140115830D01*
X64447781Y-140126866D01*
X64465024Y-140139654D01*
X64480930Y-140154070D01*
X64495346Y-140169976D01*
X64508134Y-140187219D01*
X64519170Y-140205632D01*
X64528349Y-140225038D01*
X64535581Y-140245250D01*
X64540797Y-140266074D01*
X64543947Y-140287309D01*
X64545000Y-140308750D01*
X64545000Y-140746250D01*
X64543947Y-140767691D01*
X64540797Y-140788926D01*
X64535581Y-140809750D01*
X64528349Y-140829962D01*
X64519170Y-140849368D01*
X64508134Y-140867781D01*
X64495346Y-140885024D01*
X64480930Y-140900930D01*
X64465024Y-140915346D01*
X64447781Y-140928134D01*
X64429368Y-140939170D01*
X64409962Y-140948349D01*
X64389750Y-140955581D01*
X64368926Y-140960797D01*
X64347691Y-140963947D01*
X64326250Y-140965000D01*
X63813750Y-140965000D01*
X63792309Y-140963947D01*
X63771074Y-140960797D01*
X63750250Y-140955581D01*
X63730038Y-140948349D01*
X63710632Y-140939170D01*
X63692219Y-140928134D01*
X63674976Y-140915346D01*
X63659070Y-140900930D01*
X63644654Y-140885024D01*
X63631866Y-140867781D01*
X63620830Y-140849368D01*
X63611651Y-140829962D01*
X63604419Y-140809750D01*
X63599203Y-140788926D01*
X63596053Y-140767691D01*
X63595000Y-140746250D01*
X63595000Y-140308750D01*
X63596053Y-140287309D01*
X63599203Y-140266074D01*
X63604419Y-140245250D01*
X63611651Y-140225038D01*
X63620830Y-140205632D01*
X63631866Y-140187219D01*
X63644654Y-140169976D01*
X63659070Y-140154070D01*
X63674976Y-140139654D01*
X63692219Y-140126866D01*
X63710632Y-140115830D01*
X63730038Y-140106651D01*
X63750250Y-140099419D01*
X63771074Y-140094203D01*
X63792309Y-140091053D01*
X63813750Y-140090000D01*
X64326250Y-140090000D01*
X64347691Y-140091053D01*
X64347691Y-140091053D01*
G37*
D11*
X64070000Y-140527500D03*
D10*
G36*
X64347691Y-138516053D02*
G01*
X64368926Y-138519203D01*
X64389750Y-138524419D01*
X64409962Y-138531651D01*
X64429368Y-138540830D01*
X64447781Y-138551866D01*
X64465024Y-138564654D01*
X64480930Y-138579070D01*
X64495346Y-138594976D01*
X64508134Y-138612219D01*
X64519170Y-138630632D01*
X64528349Y-138650038D01*
X64535581Y-138670250D01*
X64540797Y-138691074D01*
X64543947Y-138712309D01*
X64545000Y-138733750D01*
X64545000Y-139171250D01*
X64543947Y-139192691D01*
X64540797Y-139213926D01*
X64535581Y-139234750D01*
X64528349Y-139254962D01*
X64519170Y-139274368D01*
X64508134Y-139292781D01*
X64495346Y-139310024D01*
X64480930Y-139325930D01*
X64465024Y-139340346D01*
X64447781Y-139353134D01*
X64429368Y-139364170D01*
X64409962Y-139373349D01*
X64389750Y-139380581D01*
X64368926Y-139385797D01*
X64347691Y-139388947D01*
X64326250Y-139390000D01*
X63813750Y-139390000D01*
X63792309Y-139388947D01*
X63771074Y-139385797D01*
X63750250Y-139380581D01*
X63730038Y-139373349D01*
X63710632Y-139364170D01*
X63692219Y-139353134D01*
X63674976Y-139340346D01*
X63659070Y-139325930D01*
X63644654Y-139310024D01*
X63631866Y-139292781D01*
X63620830Y-139274368D01*
X63611651Y-139254962D01*
X63604419Y-139234750D01*
X63599203Y-139213926D01*
X63596053Y-139192691D01*
X63595000Y-139171250D01*
X63595000Y-138733750D01*
X63596053Y-138712309D01*
X63599203Y-138691074D01*
X63604419Y-138670250D01*
X63611651Y-138650038D01*
X63620830Y-138630632D01*
X63631866Y-138612219D01*
X63644654Y-138594976D01*
X63659070Y-138579070D01*
X63674976Y-138564654D01*
X63692219Y-138551866D01*
X63710632Y-138540830D01*
X63730038Y-138531651D01*
X63750250Y-138524419D01*
X63771074Y-138519203D01*
X63792309Y-138516053D01*
X63813750Y-138515000D01*
X64326250Y-138515000D01*
X64347691Y-138516053D01*
X64347691Y-138516053D01*
G37*
D11*
X64070000Y-138952500D03*
D10*
G36*
X68157691Y-140091053D02*
G01*
X68178926Y-140094203D01*
X68199750Y-140099419D01*
X68219962Y-140106651D01*
X68239368Y-140115830D01*
X68257781Y-140126866D01*
X68275024Y-140139654D01*
X68290930Y-140154070D01*
X68305346Y-140169976D01*
X68318134Y-140187219D01*
X68329170Y-140205632D01*
X68338349Y-140225038D01*
X68345581Y-140245250D01*
X68350797Y-140266074D01*
X68353947Y-140287309D01*
X68355000Y-140308750D01*
X68355000Y-140746250D01*
X68353947Y-140767691D01*
X68350797Y-140788926D01*
X68345581Y-140809750D01*
X68338349Y-140829962D01*
X68329170Y-140849368D01*
X68318134Y-140867781D01*
X68305346Y-140885024D01*
X68290930Y-140900930D01*
X68275024Y-140915346D01*
X68257781Y-140928134D01*
X68239368Y-140939170D01*
X68219962Y-140948349D01*
X68199750Y-140955581D01*
X68178926Y-140960797D01*
X68157691Y-140963947D01*
X68136250Y-140965000D01*
X67623750Y-140965000D01*
X67602309Y-140963947D01*
X67581074Y-140960797D01*
X67560250Y-140955581D01*
X67540038Y-140948349D01*
X67520632Y-140939170D01*
X67502219Y-140928134D01*
X67484976Y-140915346D01*
X67469070Y-140900930D01*
X67454654Y-140885024D01*
X67441866Y-140867781D01*
X67430830Y-140849368D01*
X67421651Y-140829962D01*
X67414419Y-140809750D01*
X67409203Y-140788926D01*
X67406053Y-140767691D01*
X67405000Y-140746250D01*
X67405000Y-140308750D01*
X67406053Y-140287309D01*
X67409203Y-140266074D01*
X67414419Y-140245250D01*
X67421651Y-140225038D01*
X67430830Y-140205632D01*
X67441866Y-140187219D01*
X67454654Y-140169976D01*
X67469070Y-140154070D01*
X67484976Y-140139654D01*
X67502219Y-140126866D01*
X67520632Y-140115830D01*
X67540038Y-140106651D01*
X67560250Y-140099419D01*
X67581074Y-140094203D01*
X67602309Y-140091053D01*
X67623750Y-140090000D01*
X68136250Y-140090000D01*
X68157691Y-140091053D01*
X68157691Y-140091053D01*
G37*
D11*
X67880000Y-140527500D03*
D10*
G36*
X68157691Y-138516053D02*
G01*
X68178926Y-138519203D01*
X68199750Y-138524419D01*
X68219962Y-138531651D01*
X68239368Y-138540830D01*
X68257781Y-138551866D01*
X68275024Y-138564654D01*
X68290930Y-138579070D01*
X68305346Y-138594976D01*
X68318134Y-138612219D01*
X68329170Y-138630632D01*
X68338349Y-138650038D01*
X68345581Y-138670250D01*
X68350797Y-138691074D01*
X68353947Y-138712309D01*
X68355000Y-138733750D01*
X68355000Y-139171250D01*
X68353947Y-139192691D01*
X68350797Y-139213926D01*
X68345581Y-139234750D01*
X68338349Y-139254962D01*
X68329170Y-139274368D01*
X68318134Y-139292781D01*
X68305346Y-139310024D01*
X68290930Y-139325930D01*
X68275024Y-139340346D01*
X68257781Y-139353134D01*
X68239368Y-139364170D01*
X68219962Y-139373349D01*
X68199750Y-139380581D01*
X68178926Y-139385797D01*
X68157691Y-139388947D01*
X68136250Y-139390000D01*
X67623750Y-139390000D01*
X67602309Y-139388947D01*
X67581074Y-139385797D01*
X67560250Y-139380581D01*
X67540038Y-139373349D01*
X67520632Y-139364170D01*
X67502219Y-139353134D01*
X67484976Y-139340346D01*
X67469070Y-139325930D01*
X67454654Y-139310024D01*
X67441866Y-139292781D01*
X67430830Y-139274368D01*
X67421651Y-139254962D01*
X67414419Y-139234750D01*
X67409203Y-139213926D01*
X67406053Y-139192691D01*
X67405000Y-139171250D01*
X67405000Y-138733750D01*
X67406053Y-138712309D01*
X67409203Y-138691074D01*
X67414419Y-138670250D01*
X67421651Y-138650038D01*
X67430830Y-138630632D01*
X67441866Y-138612219D01*
X67454654Y-138594976D01*
X67469070Y-138579070D01*
X67484976Y-138564654D01*
X67502219Y-138551866D01*
X67520632Y-138540830D01*
X67540038Y-138531651D01*
X67560250Y-138524419D01*
X67581074Y-138519203D01*
X67602309Y-138516053D01*
X67623750Y-138515000D01*
X68136250Y-138515000D01*
X68157691Y-138516053D01*
X68157691Y-138516053D01*
G37*
D11*
X67880000Y-138952500D03*
M02*
