G04 #@! TF.GenerationSoftware,KiCad,Pcbnew,(5.1.0-165-g615c49315)*
G04 #@! TF.CreationDate,2019-04-12T15:14:10+02:00*
G04 #@! TF.ProjectId,JTAGMux_1.0,4a544147-4d75-4785-9f31-2e302e6b6963,rev?*
G04 #@! TF.SameCoordinates,Original*
G04 #@! TF.FileFunction,Soldermask,Top*
G04 #@! TF.FilePolarity,Negative*
%FSLAX46Y46*%
G04 Gerber Fmt 4.6, Leading zero omitted, Abs format (unit mm)*
G04 Created by KiCad (PCBNEW (5.1.0-165-g615c49315)) date 2019-04-12 15:14:10*
%MOMM*%
%LPD*%
G04 APERTURE LIST*
%ADD10C,0.100000*%
G04 APERTURE END LIST*
D10*
G36*
X54362901Y-144376354D02*
G01*
X54708861Y-144519656D01*
X55020217Y-144727697D01*
X55285003Y-144992483D01*
X55493044Y-145303839D01*
X55636346Y-145649799D01*
X55646737Y-145702037D01*
X55696023Y-145949814D01*
X55709400Y-146017068D01*
X55709400Y-146391532D01*
X55636346Y-146758801D01*
X55493044Y-147104761D01*
X55285003Y-147416117D01*
X55020217Y-147680903D01*
X54708861Y-147888944D01*
X54362901Y-148032246D01*
X53995633Y-148105300D01*
X53621167Y-148105300D01*
X53253899Y-148032246D01*
X52907939Y-147888944D01*
X52596583Y-147680903D01*
X52331797Y-147416117D01*
X52123756Y-147104761D01*
X51980454Y-146758801D01*
X51907400Y-146391532D01*
X51907400Y-146017068D01*
X51920778Y-145949814D01*
X51970063Y-145702037D01*
X51980454Y-145649799D01*
X52123756Y-145303839D01*
X52331797Y-144992483D01*
X52596583Y-144727697D01*
X52907939Y-144519656D01*
X53253899Y-144376354D01*
X53621167Y-144303300D01*
X53995633Y-144303300D01*
X54362901Y-144376354D01*
X54362901Y-144376354D01*
G37*
G36*
X95770442Y-146005518D02*
G01*
X95836627Y-146012037D01*
X96006466Y-146063557D01*
X96162991Y-146147222D01*
X96198729Y-146176552D01*
X96300186Y-146259814D01*
X96383448Y-146361271D01*
X96412778Y-146397009D01*
X96496443Y-146553534D01*
X96547963Y-146723373D01*
X96565359Y-146900000D01*
X96547963Y-147076627D01*
X96496443Y-147246466D01*
X96412778Y-147402991D01*
X96393532Y-147426442D01*
X96300186Y-147540186D01*
X96198729Y-147623448D01*
X96162991Y-147652778D01*
X96006466Y-147736443D01*
X95836627Y-147787963D01*
X95770442Y-147794482D01*
X95704260Y-147801000D01*
X95615740Y-147801000D01*
X95549558Y-147794482D01*
X95483373Y-147787963D01*
X95313534Y-147736443D01*
X95157009Y-147652778D01*
X95121271Y-147623448D01*
X95019814Y-147540186D01*
X94926468Y-147426442D01*
X94907222Y-147402991D01*
X94823557Y-147246466D01*
X94772037Y-147076627D01*
X94754641Y-146900000D01*
X94772037Y-146723373D01*
X94823557Y-146553534D01*
X94907222Y-146397009D01*
X94936552Y-146361271D01*
X95019814Y-146259814D01*
X95121271Y-146176552D01*
X95157009Y-146147222D01*
X95313534Y-146063557D01*
X95483373Y-146012037D01*
X95549558Y-146005518D01*
X95615740Y-145999000D01*
X95704260Y-145999000D01*
X95770442Y-146005518D01*
X95770442Y-146005518D01*
G37*
G36*
X73701000Y-147801000D02*
G01*
X71899000Y-147801000D01*
X71899000Y-145999000D01*
X73701000Y-145999000D01*
X73701000Y-147801000D01*
X73701000Y-147801000D01*
G37*
G36*
X75450442Y-146005518D02*
G01*
X75516627Y-146012037D01*
X75686466Y-146063557D01*
X75842991Y-146147222D01*
X75878729Y-146176552D01*
X75980186Y-146259814D01*
X76063448Y-146361271D01*
X76092778Y-146397009D01*
X76176443Y-146553534D01*
X76227963Y-146723373D01*
X76245359Y-146900000D01*
X76227963Y-147076627D01*
X76176443Y-147246466D01*
X76092778Y-147402991D01*
X76073532Y-147426442D01*
X75980186Y-147540186D01*
X75878729Y-147623448D01*
X75842991Y-147652778D01*
X75686466Y-147736443D01*
X75516627Y-147787963D01*
X75450442Y-147794482D01*
X75384260Y-147801000D01*
X75295740Y-147801000D01*
X75229558Y-147794482D01*
X75163373Y-147787963D01*
X74993534Y-147736443D01*
X74837009Y-147652778D01*
X74801271Y-147623448D01*
X74699814Y-147540186D01*
X74606468Y-147426442D01*
X74587222Y-147402991D01*
X74503557Y-147246466D01*
X74452037Y-147076627D01*
X74434641Y-146900000D01*
X74452037Y-146723373D01*
X74503557Y-146553534D01*
X74587222Y-146397009D01*
X74616552Y-146361271D01*
X74699814Y-146259814D01*
X74801271Y-146176552D01*
X74837009Y-146147222D01*
X74993534Y-146063557D01*
X75163373Y-146012037D01*
X75229558Y-146005518D01*
X75295740Y-145999000D01*
X75384260Y-145999000D01*
X75450442Y-146005518D01*
X75450442Y-146005518D01*
G37*
G36*
X77990442Y-146005518D02*
G01*
X78056627Y-146012037D01*
X78226466Y-146063557D01*
X78382991Y-146147222D01*
X78418729Y-146176552D01*
X78520186Y-146259814D01*
X78603448Y-146361271D01*
X78632778Y-146397009D01*
X78716443Y-146553534D01*
X78767963Y-146723373D01*
X78785359Y-146900000D01*
X78767963Y-147076627D01*
X78716443Y-147246466D01*
X78632778Y-147402991D01*
X78613532Y-147426442D01*
X78520186Y-147540186D01*
X78418729Y-147623448D01*
X78382991Y-147652778D01*
X78226466Y-147736443D01*
X78056627Y-147787963D01*
X77990442Y-147794482D01*
X77924260Y-147801000D01*
X77835740Y-147801000D01*
X77769558Y-147794482D01*
X77703373Y-147787963D01*
X77533534Y-147736443D01*
X77377009Y-147652778D01*
X77341271Y-147623448D01*
X77239814Y-147540186D01*
X77146468Y-147426442D01*
X77127222Y-147402991D01*
X77043557Y-147246466D01*
X76992037Y-147076627D01*
X76974641Y-146900000D01*
X76992037Y-146723373D01*
X77043557Y-146553534D01*
X77127222Y-146397009D01*
X77156552Y-146361271D01*
X77239814Y-146259814D01*
X77341271Y-146176552D01*
X77377009Y-146147222D01*
X77533534Y-146063557D01*
X77703373Y-146012037D01*
X77769558Y-146005518D01*
X77835740Y-145999000D01*
X77924260Y-145999000D01*
X77990442Y-146005518D01*
X77990442Y-146005518D01*
G37*
G36*
X80530442Y-146005518D02*
G01*
X80596627Y-146012037D01*
X80766466Y-146063557D01*
X80922991Y-146147222D01*
X80958729Y-146176552D01*
X81060186Y-146259814D01*
X81143448Y-146361271D01*
X81172778Y-146397009D01*
X81256443Y-146553534D01*
X81307963Y-146723373D01*
X81325359Y-146900000D01*
X81307963Y-147076627D01*
X81256443Y-147246466D01*
X81172778Y-147402991D01*
X81153532Y-147426442D01*
X81060186Y-147540186D01*
X80958729Y-147623448D01*
X80922991Y-147652778D01*
X80766466Y-147736443D01*
X80596627Y-147787963D01*
X80530442Y-147794482D01*
X80464260Y-147801000D01*
X80375740Y-147801000D01*
X80309558Y-147794482D01*
X80243373Y-147787963D01*
X80073534Y-147736443D01*
X79917009Y-147652778D01*
X79881271Y-147623448D01*
X79779814Y-147540186D01*
X79686468Y-147426442D01*
X79667222Y-147402991D01*
X79583557Y-147246466D01*
X79532037Y-147076627D01*
X79514641Y-146900000D01*
X79532037Y-146723373D01*
X79583557Y-146553534D01*
X79667222Y-146397009D01*
X79696552Y-146361271D01*
X79779814Y-146259814D01*
X79881271Y-146176552D01*
X79917009Y-146147222D01*
X80073534Y-146063557D01*
X80243373Y-146012037D01*
X80309558Y-146005518D01*
X80375740Y-145999000D01*
X80464260Y-145999000D01*
X80530442Y-146005518D01*
X80530442Y-146005518D01*
G37*
G36*
X85610442Y-146005518D02*
G01*
X85676627Y-146012037D01*
X85846466Y-146063557D01*
X86002991Y-146147222D01*
X86038729Y-146176552D01*
X86140186Y-146259814D01*
X86223448Y-146361271D01*
X86252778Y-146397009D01*
X86336443Y-146553534D01*
X86387963Y-146723373D01*
X86405359Y-146900000D01*
X86387963Y-147076627D01*
X86336443Y-147246466D01*
X86252778Y-147402991D01*
X86233532Y-147426442D01*
X86140186Y-147540186D01*
X86038729Y-147623448D01*
X86002991Y-147652778D01*
X85846466Y-147736443D01*
X85676627Y-147787963D01*
X85610442Y-147794482D01*
X85544260Y-147801000D01*
X85455740Y-147801000D01*
X85389558Y-147794482D01*
X85323373Y-147787963D01*
X85153534Y-147736443D01*
X84997009Y-147652778D01*
X84961271Y-147623448D01*
X84859814Y-147540186D01*
X84766468Y-147426442D01*
X84747222Y-147402991D01*
X84663557Y-147246466D01*
X84612037Y-147076627D01*
X84594641Y-146900000D01*
X84612037Y-146723373D01*
X84663557Y-146553534D01*
X84747222Y-146397009D01*
X84776552Y-146361271D01*
X84859814Y-146259814D01*
X84961271Y-146176552D01*
X84997009Y-146147222D01*
X85153534Y-146063557D01*
X85323373Y-146012037D01*
X85389558Y-146005518D01*
X85455740Y-145999000D01*
X85544260Y-145999000D01*
X85610442Y-146005518D01*
X85610442Y-146005518D01*
G37*
G36*
X83070442Y-146005518D02*
G01*
X83136627Y-146012037D01*
X83306466Y-146063557D01*
X83462991Y-146147222D01*
X83498729Y-146176552D01*
X83600186Y-146259814D01*
X83683448Y-146361271D01*
X83712778Y-146397009D01*
X83796443Y-146553534D01*
X83847963Y-146723373D01*
X83865359Y-146900000D01*
X83847963Y-147076627D01*
X83796443Y-147246466D01*
X83712778Y-147402991D01*
X83693532Y-147426442D01*
X83600186Y-147540186D01*
X83498729Y-147623448D01*
X83462991Y-147652778D01*
X83306466Y-147736443D01*
X83136627Y-147787963D01*
X83070442Y-147794482D01*
X83004260Y-147801000D01*
X82915740Y-147801000D01*
X82849558Y-147794482D01*
X82783373Y-147787963D01*
X82613534Y-147736443D01*
X82457009Y-147652778D01*
X82421271Y-147623448D01*
X82319814Y-147540186D01*
X82226468Y-147426442D01*
X82207222Y-147402991D01*
X82123557Y-147246466D01*
X82072037Y-147076627D01*
X82054641Y-146900000D01*
X82072037Y-146723373D01*
X82123557Y-146553534D01*
X82207222Y-146397009D01*
X82236552Y-146361271D01*
X82319814Y-146259814D01*
X82421271Y-146176552D01*
X82457009Y-146147222D01*
X82613534Y-146063557D01*
X82783373Y-146012037D01*
X82849558Y-146005518D01*
X82915740Y-145999000D01*
X83004260Y-145999000D01*
X83070442Y-146005518D01*
X83070442Y-146005518D01*
G37*
G36*
X93230442Y-146005518D02*
G01*
X93296627Y-146012037D01*
X93466466Y-146063557D01*
X93622991Y-146147222D01*
X93658729Y-146176552D01*
X93760186Y-146259814D01*
X93843448Y-146361271D01*
X93872778Y-146397009D01*
X93956443Y-146553534D01*
X94007963Y-146723373D01*
X94025359Y-146900000D01*
X94007963Y-147076627D01*
X93956443Y-147246466D01*
X93872778Y-147402991D01*
X93853532Y-147426442D01*
X93760186Y-147540186D01*
X93658729Y-147623448D01*
X93622991Y-147652778D01*
X93466466Y-147736443D01*
X93296627Y-147787963D01*
X93230442Y-147794482D01*
X93164260Y-147801000D01*
X93075740Y-147801000D01*
X93009558Y-147794482D01*
X92943373Y-147787963D01*
X92773534Y-147736443D01*
X92617009Y-147652778D01*
X92581271Y-147623448D01*
X92479814Y-147540186D01*
X92386468Y-147426442D01*
X92367222Y-147402991D01*
X92283557Y-147246466D01*
X92232037Y-147076627D01*
X92214641Y-146900000D01*
X92232037Y-146723373D01*
X92283557Y-146553534D01*
X92367222Y-146397009D01*
X92396552Y-146361271D01*
X92479814Y-146259814D01*
X92581271Y-146176552D01*
X92617009Y-146147222D01*
X92773534Y-146063557D01*
X92943373Y-146012037D01*
X93009558Y-146005518D01*
X93075740Y-145999000D01*
X93164260Y-145999000D01*
X93230442Y-146005518D01*
X93230442Y-146005518D01*
G37*
G36*
X88150442Y-146005518D02*
G01*
X88216627Y-146012037D01*
X88386466Y-146063557D01*
X88542991Y-146147222D01*
X88578729Y-146176552D01*
X88680186Y-146259814D01*
X88763448Y-146361271D01*
X88792778Y-146397009D01*
X88876443Y-146553534D01*
X88927963Y-146723373D01*
X88945359Y-146900000D01*
X88927963Y-147076627D01*
X88876443Y-147246466D01*
X88792778Y-147402991D01*
X88773532Y-147426442D01*
X88680186Y-147540186D01*
X88578729Y-147623448D01*
X88542991Y-147652778D01*
X88386466Y-147736443D01*
X88216627Y-147787963D01*
X88150442Y-147794482D01*
X88084260Y-147801000D01*
X87995740Y-147801000D01*
X87929558Y-147794482D01*
X87863373Y-147787963D01*
X87693534Y-147736443D01*
X87537009Y-147652778D01*
X87501271Y-147623448D01*
X87399814Y-147540186D01*
X87306468Y-147426442D01*
X87287222Y-147402991D01*
X87203557Y-147246466D01*
X87152037Y-147076627D01*
X87134641Y-146900000D01*
X87152037Y-146723373D01*
X87203557Y-146553534D01*
X87287222Y-146397009D01*
X87316552Y-146361271D01*
X87399814Y-146259814D01*
X87501271Y-146176552D01*
X87537009Y-146147222D01*
X87693534Y-146063557D01*
X87863373Y-146012037D01*
X87929558Y-146005518D01*
X87995740Y-145999000D01*
X88084260Y-145999000D01*
X88150442Y-146005518D01*
X88150442Y-146005518D01*
G37*
G36*
X90690442Y-146005518D02*
G01*
X90756627Y-146012037D01*
X90926466Y-146063557D01*
X91082991Y-146147222D01*
X91118729Y-146176552D01*
X91220186Y-146259814D01*
X91303448Y-146361271D01*
X91332778Y-146397009D01*
X91416443Y-146553534D01*
X91467963Y-146723373D01*
X91485359Y-146900000D01*
X91467963Y-147076627D01*
X91416443Y-147246466D01*
X91332778Y-147402991D01*
X91313532Y-147426442D01*
X91220186Y-147540186D01*
X91118729Y-147623448D01*
X91082991Y-147652778D01*
X90926466Y-147736443D01*
X90756627Y-147787963D01*
X90690442Y-147794482D01*
X90624260Y-147801000D01*
X90535740Y-147801000D01*
X90469558Y-147794482D01*
X90403373Y-147787963D01*
X90233534Y-147736443D01*
X90077009Y-147652778D01*
X90041271Y-147623448D01*
X89939814Y-147540186D01*
X89846468Y-147426442D01*
X89827222Y-147402991D01*
X89743557Y-147246466D01*
X89692037Y-147076627D01*
X89674641Y-146900000D01*
X89692037Y-146723373D01*
X89743557Y-146553534D01*
X89827222Y-146397009D01*
X89856552Y-146361271D01*
X89939814Y-146259814D01*
X90041271Y-146176552D01*
X90077009Y-146147222D01*
X90233534Y-146063557D01*
X90403373Y-146012037D01*
X90469558Y-146005518D01*
X90535740Y-145999000D01*
X90624260Y-145999000D01*
X90690442Y-146005518D01*
X90690442Y-146005518D01*
G37*
G36*
X104280443Y-145695519D02*
G01*
X104346627Y-145702037D01*
X104516466Y-145753557D01*
X104672991Y-145837222D01*
X104708729Y-145866552D01*
X104810186Y-145949814D01*
X104893448Y-146051271D01*
X104922778Y-146087009D01*
X105006443Y-146243534D01*
X105057963Y-146413373D01*
X105075359Y-146590000D01*
X105057963Y-146766627D01*
X105006443Y-146936466D01*
X104922778Y-147092991D01*
X104893448Y-147128729D01*
X104810186Y-147230186D01*
X104708729Y-147313448D01*
X104672991Y-147342778D01*
X104672989Y-147342779D01*
X104535785Y-147416117D01*
X104516466Y-147426443D01*
X104346627Y-147477963D01*
X104280443Y-147484481D01*
X104214260Y-147491000D01*
X104125740Y-147491000D01*
X104059557Y-147484481D01*
X103993373Y-147477963D01*
X103823534Y-147426443D01*
X103804216Y-147416117D01*
X103667011Y-147342779D01*
X103667009Y-147342778D01*
X103631271Y-147313448D01*
X103529814Y-147230186D01*
X103446552Y-147128729D01*
X103417222Y-147092991D01*
X103333557Y-146936466D01*
X103282037Y-146766627D01*
X103264641Y-146590000D01*
X103282037Y-146413373D01*
X103333557Y-146243534D01*
X103417222Y-146087009D01*
X103446552Y-146051271D01*
X103529814Y-145949814D01*
X103631271Y-145866552D01*
X103667009Y-145837222D01*
X103823534Y-145753557D01*
X103993373Y-145702037D01*
X104059557Y-145695519D01*
X104125740Y-145689000D01*
X104214260Y-145689000D01*
X104280443Y-145695519D01*
X104280443Y-145695519D01*
G37*
G36*
X101740443Y-145695519D02*
G01*
X101806627Y-145702037D01*
X101976466Y-145753557D01*
X102132991Y-145837222D01*
X102168729Y-145866552D01*
X102270186Y-145949814D01*
X102353448Y-146051271D01*
X102382778Y-146087009D01*
X102466443Y-146243534D01*
X102517963Y-146413373D01*
X102535359Y-146590000D01*
X102517963Y-146766627D01*
X102466443Y-146936466D01*
X102382778Y-147092991D01*
X102353448Y-147128729D01*
X102270186Y-147230186D01*
X102168729Y-147313448D01*
X102132991Y-147342778D01*
X102132989Y-147342779D01*
X101995785Y-147416117D01*
X101976466Y-147426443D01*
X101806627Y-147477963D01*
X101740443Y-147484481D01*
X101674260Y-147491000D01*
X101585740Y-147491000D01*
X101519557Y-147484481D01*
X101453373Y-147477963D01*
X101283534Y-147426443D01*
X101264216Y-147416117D01*
X101127011Y-147342779D01*
X101127009Y-147342778D01*
X101091271Y-147313448D01*
X100989814Y-147230186D01*
X100906552Y-147128729D01*
X100877222Y-147092991D01*
X100793557Y-146936466D01*
X100742037Y-146766627D01*
X100724641Y-146590000D01*
X100742037Y-146413373D01*
X100793557Y-146243534D01*
X100877222Y-146087009D01*
X100906552Y-146051271D01*
X100989814Y-145949814D01*
X101091271Y-145866552D01*
X101127009Y-145837222D01*
X101283534Y-145753557D01*
X101453373Y-145702037D01*
X101519557Y-145695519D01*
X101585740Y-145689000D01*
X101674260Y-145689000D01*
X101740443Y-145695519D01*
X101740443Y-145695519D01*
G37*
G36*
X75450443Y-143465519D02*
G01*
X75516627Y-143472037D01*
X75686466Y-143523557D01*
X75842991Y-143607222D01*
X75878729Y-143636552D01*
X75980186Y-143719814D01*
X76063448Y-143821271D01*
X76092778Y-143857009D01*
X76176443Y-144013534D01*
X76227963Y-144183373D01*
X76245359Y-144360000D01*
X76227963Y-144536627D01*
X76176443Y-144706466D01*
X76092778Y-144862991D01*
X76073532Y-144886442D01*
X75980186Y-145000186D01*
X75878729Y-145083448D01*
X75842991Y-145112778D01*
X75686466Y-145196443D01*
X75516627Y-145247963D01*
X75450443Y-145254481D01*
X75384260Y-145261000D01*
X75295740Y-145261000D01*
X75229557Y-145254481D01*
X75163373Y-145247963D01*
X74993534Y-145196443D01*
X74837009Y-145112778D01*
X74801271Y-145083448D01*
X74699814Y-145000186D01*
X74606468Y-144886442D01*
X74587222Y-144862991D01*
X74503557Y-144706466D01*
X74452037Y-144536627D01*
X74434641Y-144360000D01*
X74452037Y-144183373D01*
X74503557Y-144013534D01*
X74587222Y-143857009D01*
X74616552Y-143821271D01*
X74699814Y-143719814D01*
X74801271Y-143636552D01*
X74837009Y-143607222D01*
X74993534Y-143523557D01*
X75163373Y-143472037D01*
X75229557Y-143465519D01*
X75295740Y-143459000D01*
X75384260Y-143459000D01*
X75450443Y-143465519D01*
X75450443Y-143465519D01*
G37*
G36*
X72910443Y-143465519D02*
G01*
X72976627Y-143472037D01*
X73146466Y-143523557D01*
X73302991Y-143607222D01*
X73338729Y-143636552D01*
X73440186Y-143719814D01*
X73523448Y-143821271D01*
X73552778Y-143857009D01*
X73636443Y-144013534D01*
X73687963Y-144183373D01*
X73705359Y-144360000D01*
X73687963Y-144536627D01*
X73636443Y-144706466D01*
X73552778Y-144862991D01*
X73533532Y-144886442D01*
X73440186Y-145000186D01*
X73338729Y-145083448D01*
X73302991Y-145112778D01*
X73146466Y-145196443D01*
X72976627Y-145247963D01*
X72910443Y-145254481D01*
X72844260Y-145261000D01*
X72755740Y-145261000D01*
X72689557Y-145254481D01*
X72623373Y-145247963D01*
X72453534Y-145196443D01*
X72297009Y-145112778D01*
X72261271Y-145083448D01*
X72159814Y-145000186D01*
X72066468Y-144886442D01*
X72047222Y-144862991D01*
X71963557Y-144706466D01*
X71912037Y-144536627D01*
X71894641Y-144360000D01*
X71912037Y-144183373D01*
X71963557Y-144013534D01*
X72047222Y-143857009D01*
X72076552Y-143821271D01*
X72159814Y-143719814D01*
X72261271Y-143636552D01*
X72297009Y-143607222D01*
X72453534Y-143523557D01*
X72623373Y-143472037D01*
X72689557Y-143465519D01*
X72755740Y-143459000D01*
X72844260Y-143459000D01*
X72910443Y-143465519D01*
X72910443Y-143465519D01*
G37*
G36*
X95770443Y-143465519D02*
G01*
X95836627Y-143472037D01*
X96006466Y-143523557D01*
X96162991Y-143607222D01*
X96198729Y-143636552D01*
X96300186Y-143719814D01*
X96383448Y-143821271D01*
X96412778Y-143857009D01*
X96496443Y-144013534D01*
X96547963Y-144183373D01*
X96565359Y-144360000D01*
X96547963Y-144536627D01*
X96496443Y-144706466D01*
X96412778Y-144862991D01*
X96393532Y-144886442D01*
X96300186Y-145000186D01*
X96198729Y-145083448D01*
X96162991Y-145112778D01*
X96006466Y-145196443D01*
X95836627Y-145247963D01*
X95770443Y-145254481D01*
X95704260Y-145261000D01*
X95615740Y-145261000D01*
X95549557Y-145254481D01*
X95483373Y-145247963D01*
X95313534Y-145196443D01*
X95157009Y-145112778D01*
X95121271Y-145083448D01*
X95019814Y-145000186D01*
X94926468Y-144886442D01*
X94907222Y-144862991D01*
X94823557Y-144706466D01*
X94772037Y-144536627D01*
X94754641Y-144360000D01*
X94772037Y-144183373D01*
X94823557Y-144013534D01*
X94907222Y-143857009D01*
X94936552Y-143821271D01*
X95019814Y-143719814D01*
X95121271Y-143636552D01*
X95157009Y-143607222D01*
X95313534Y-143523557D01*
X95483373Y-143472037D01*
X95549557Y-143465519D01*
X95615740Y-143459000D01*
X95704260Y-143459000D01*
X95770443Y-143465519D01*
X95770443Y-143465519D01*
G37*
G36*
X77990443Y-143465519D02*
G01*
X78056627Y-143472037D01*
X78226466Y-143523557D01*
X78382991Y-143607222D01*
X78418729Y-143636552D01*
X78520186Y-143719814D01*
X78603448Y-143821271D01*
X78632778Y-143857009D01*
X78716443Y-144013534D01*
X78767963Y-144183373D01*
X78785359Y-144360000D01*
X78767963Y-144536627D01*
X78716443Y-144706466D01*
X78632778Y-144862991D01*
X78613532Y-144886442D01*
X78520186Y-145000186D01*
X78418729Y-145083448D01*
X78382991Y-145112778D01*
X78226466Y-145196443D01*
X78056627Y-145247963D01*
X77990443Y-145254481D01*
X77924260Y-145261000D01*
X77835740Y-145261000D01*
X77769557Y-145254481D01*
X77703373Y-145247963D01*
X77533534Y-145196443D01*
X77377009Y-145112778D01*
X77341271Y-145083448D01*
X77239814Y-145000186D01*
X77146468Y-144886442D01*
X77127222Y-144862991D01*
X77043557Y-144706466D01*
X76992037Y-144536627D01*
X76974641Y-144360000D01*
X76992037Y-144183373D01*
X77043557Y-144013534D01*
X77127222Y-143857009D01*
X77156552Y-143821271D01*
X77239814Y-143719814D01*
X77341271Y-143636552D01*
X77377009Y-143607222D01*
X77533534Y-143523557D01*
X77703373Y-143472037D01*
X77769557Y-143465519D01*
X77835740Y-143459000D01*
X77924260Y-143459000D01*
X77990443Y-143465519D01*
X77990443Y-143465519D01*
G37*
G36*
X93230443Y-143465519D02*
G01*
X93296627Y-143472037D01*
X93466466Y-143523557D01*
X93622991Y-143607222D01*
X93658729Y-143636552D01*
X93760186Y-143719814D01*
X93843448Y-143821271D01*
X93872778Y-143857009D01*
X93956443Y-144013534D01*
X94007963Y-144183373D01*
X94025359Y-144360000D01*
X94007963Y-144536627D01*
X93956443Y-144706466D01*
X93872778Y-144862991D01*
X93853532Y-144886442D01*
X93760186Y-145000186D01*
X93658729Y-145083448D01*
X93622991Y-145112778D01*
X93466466Y-145196443D01*
X93296627Y-145247963D01*
X93230443Y-145254481D01*
X93164260Y-145261000D01*
X93075740Y-145261000D01*
X93009557Y-145254481D01*
X92943373Y-145247963D01*
X92773534Y-145196443D01*
X92617009Y-145112778D01*
X92581271Y-145083448D01*
X92479814Y-145000186D01*
X92386468Y-144886442D01*
X92367222Y-144862991D01*
X92283557Y-144706466D01*
X92232037Y-144536627D01*
X92214641Y-144360000D01*
X92232037Y-144183373D01*
X92283557Y-144013534D01*
X92367222Y-143857009D01*
X92396552Y-143821271D01*
X92479814Y-143719814D01*
X92581271Y-143636552D01*
X92617009Y-143607222D01*
X92773534Y-143523557D01*
X92943373Y-143472037D01*
X93009557Y-143465519D01*
X93075740Y-143459000D01*
X93164260Y-143459000D01*
X93230443Y-143465519D01*
X93230443Y-143465519D01*
G37*
G36*
X80530443Y-143465519D02*
G01*
X80596627Y-143472037D01*
X80766466Y-143523557D01*
X80922991Y-143607222D01*
X80958729Y-143636552D01*
X81060186Y-143719814D01*
X81143448Y-143821271D01*
X81172778Y-143857009D01*
X81256443Y-144013534D01*
X81307963Y-144183373D01*
X81325359Y-144360000D01*
X81307963Y-144536627D01*
X81256443Y-144706466D01*
X81172778Y-144862991D01*
X81153532Y-144886442D01*
X81060186Y-145000186D01*
X80958729Y-145083448D01*
X80922991Y-145112778D01*
X80766466Y-145196443D01*
X80596627Y-145247963D01*
X80530443Y-145254481D01*
X80464260Y-145261000D01*
X80375740Y-145261000D01*
X80309557Y-145254481D01*
X80243373Y-145247963D01*
X80073534Y-145196443D01*
X79917009Y-145112778D01*
X79881271Y-145083448D01*
X79779814Y-145000186D01*
X79686468Y-144886442D01*
X79667222Y-144862991D01*
X79583557Y-144706466D01*
X79532037Y-144536627D01*
X79514641Y-144360000D01*
X79532037Y-144183373D01*
X79583557Y-144013534D01*
X79667222Y-143857009D01*
X79696552Y-143821271D01*
X79779814Y-143719814D01*
X79881271Y-143636552D01*
X79917009Y-143607222D01*
X80073534Y-143523557D01*
X80243373Y-143472037D01*
X80309557Y-143465519D01*
X80375740Y-143459000D01*
X80464260Y-143459000D01*
X80530443Y-143465519D01*
X80530443Y-143465519D01*
G37*
G36*
X90690443Y-143465519D02*
G01*
X90756627Y-143472037D01*
X90926466Y-143523557D01*
X91082991Y-143607222D01*
X91118729Y-143636552D01*
X91220186Y-143719814D01*
X91303448Y-143821271D01*
X91332778Y-143857009D01*
X91416443Y-144013534D01*
X91467963Y-144183373D01*
X91485359Y-144360000D01*
X91467963Y-144536627D01*
X91416443Y-144706466D01*
X91332778Y-144862991D01*
X91313532Y-144886442D01*
X91220186Y-145000186D01*
X91118729Y-145083448D01*
X91082991Y-145112778D01*
X90926466Y-145196443D01*
X90756627Y-145247963D01*
X90690443Y-145254481D01*
X90624260Y-145261000D01*
X90535740Y-145261000D01*
X90469557Y-145254481D01*
X90403373Y-145247963D01*
X90233534Y-145196443D01*
X90077009Y-145112778D01*
X90041271Y-145083448D01*
X89939814Y-145000186D01*
X89846468Y-144886442D01*
X89827222Y-144862991D01*
X89743557Y-144706466D01*
X89692037Y-144536627D01*
X89674641Y-144360000D01*
X89692037Y-144183373D01*
X89743557Y-144013534D01*
X89827222Y-143857009D01*
X89856552Y-143821271D01*
X89939814Y-143719814D01*
X90041271Y-143636552D01*
X90077009Y-143607222D01*
X90233534Y-143523557D01*
X90403373Y-143472037D01*
X90469557Y-143465519D01*
X90535740Y-143459000D01*
X90624260Y-143459000D01*
X90690443Y-143465519D01*
X90690443Y-143465519D01*
G37*
G36*
X83070443Y-143465519D02*
G01*
X83136627Y-143472037D01*
X83306466Y-143523557D01*
X83462991Y-143607222D01*
X83498729Y-143636552D01*
X83600186Y-143719814D01*
X83683448Y-143821271D01*
X83712778Y-143857009D01*
X83796443Y-144013534D01*
X83847963Y-144183373D01*
X83865359Y-144360000D01*
X83847963Y-144536627D01*
X83796443Y-144706466D01*
X83712778Y-144862991D01*
X83693532Y-144886442D01*
X83600186Y-145000186D01*
X83498729Y-145083448D01*
X83462991Y-145112778D01*
X83306466Y-145196443D01*
X83136627Y-145247963D01*
X83070443Y-145254481D01*
X83004260Y-145261000D01*
X82915740Y-145261000D01*
X82849557Y-145254481D01*
X82783373Y-145247963D01*
X82613534Y-145196443D01*
X82457009Y-145112778D01*
X82421271Y-145083448D01*
X82319814Y-145000186D01*
X82226468Y-144886442D01*
X82207222Y-144862991D01*
X82123557Y-144706466D01*
X82072037Y-144536627D01*
X82054641Y-144360000D01*
X82072037Y-144183373D01*
X82123557Y-144013534D01*
X82207222Y-143857009D01*
X82236552Y-143821271D01*
X82319814Y-143719814D01*
X82421271Y-143636552D01*
X82457009Y-143607222D01*
X82613534Y-143523557D01*
X82783373Y-143472037D01*
X82849557Y-143465519D01*
X82915740Y-143459000D01*
X83004260Y-143459000D01*
X83070443Y-143465519D01*
X83070443Y-143465519D01*
G37*
G36*
X88150443Y-143465519D02*
G01*
X88216627Y-143472037D01*
X88386466Y-143523557D01*
X88542991Y-143607222D01*
X88578729Y-143636552D01*
X88680186Y-143719814D01*
X88763448Y-143821271D01*
X88792778Y-143857009D01*
X88876443Y-144013534D01*
X88927963Y-144183373D01*
X88945359Y-144360000D01*
X88927963Y-144536627D01*
X88876443Y-144706466D01*
X88792778Y-144862991D01*
X88773532Y-144886442D01*
X88680186Y-145000186D01*
X88578729Y-145083448D01*
X88542991Y-145112778D01*
X88386466Y-145196443D01*
X88216627Y-145247963D01*
X88150443Y-145254481D01*
X88084260Y-145261000D01*
X87995740Y-145261000D01*
X87929557Y-145254481D01*
X87863373Y-145247963D01*
X87693534Y-145196443D01*
X87537009Y-145112778D01*
X87501271Y-145083448D01*
X87399814Y-145000186D01*
X87306468Y-144886442D01*
X87287222Y-144862991D01*
X87203557Y-144706466D01*
X87152037Y-144536627D01*
X87134641Y-144360000D01*
X87152037Y-144183373D01*
X87203557Y-144013534D01*
X87287222Y-143857009D01*
X87316552Y-143821271D01*
X87399814Y-143719814D01*
X87501271Y-143636552D01*
X87537009Y-143607222D01*
X87693534Y-143523557D01*
X87863373Y-143472037D01*
X87929557Y-143465519D01*
X87995740Y-143459000D01*
X88084260Y-143459000D01*
X88150443Y-143465519D01*
X88150443Y-143465519D01*
G37*
G36*
X85610443Y-143465519D02*
G01*
X85676627Y-143472037D01*
X85846466Y-143523557D01*
X86002991Y-143607222D01*
X86038729Y-143636552D01*
X86140186Y-143719814D01*
X86223448Y-143821271D01*
X86252778Y-143857009D01*
X86336443Y-144013534D01*
X86387963Y-144183373D01*
X86405359Y-144360000D01*
X86387963Y-144536627D01*
X86336443Y-144706466D01*
X86252778Y-144862991D01*
X86233532Y-144886442D01*
X86140186Y-145000186D01*
X86038729Y-145083448D01*
X86002991Y-145112778D01*
X85846466Y-145196443D01*
X85676627Y-145247963D01*
X85610443Y-145254481D01*
X85544260Y-145261000D01*
X85455740Y-145261000D01*
X85389557Y-145254481D01*
X85323373Y-145247963D01*
X85153534Y-145196443D01*
X84997009Y-145112778D01*
X84961271Y-145083448D01*
X84859814Y-145000186D01*
X84766468Y-144886442D01*
X84747222Y-144862991D01*
X84663557Y-144706466D01*
X84612037Y-144536627D01*
X84594641Y-144360000D01*
X84612037Y-144183373D01*
X84663557Y-144013534D01*
X84747222Y-143857009D01*
X84776552Y-143821271D01*
X84859814Y-143719814D01*
X84961271Y-143636552D01*
X84997009Y-143607222D01*
X85153534Y-143523557D01*
X85323373Y-143472037D01*
X85389557Y-143465519D01*
X85455740Y-143459000D01*
X85544260Y-143459000D01*
X85610443Y-143465519D01*
X85610443Y-143465519D01*
G37*
G36*
X101740442Y-143155518D02*
G01*
X101806627Y-143162037D01*
X101976466Y-143213557D01*
X102132991Y-143297222D01*
X102168729Y-143326552D01*
X102270186Y-143409814D01*
X102321250Y-143472037D01*
X102382778Y-143547009D01*
X102466443Y-143703534D01*
X102517963Y-143873373D01*
X102535359Y-144050000D01*
X102517963Y-144226627D01*
X102466443Y-144396466D01*
X102382778Y-144552991D01*
X102353448Y-144588729D01*
X102270186Y-144690186D01*
X102168729Y-144773448D01*
X102132991Y-144802778D01*
X101976466Y-144886443D01*
X101806627Y-144937963D01*
X101740442Y-144944482D01*
X101674260Y-144951000D01*
X101585740Y-144951000D01*
X101519558Y-144944482D01*
X101453373Y-144937963D01*
X101283534Y-144886443D01*
X101127009Y-144802778D01*
X101091271Y-144773448D01*
X100989814Y-144690186D01*
X100906552Y-144588729D01*
X100877222Y-144552991D01*
X100793557Y-144396466D01*
X100742037Y-144226627D01*
X100724641Y-144050000D01*
X100742037Y-143873373D01*
X100793557Y-143703534D01*
X100877222Y-143547009D01*
X100938750Y-143472037D01*
X100989814Y-143409814D01*
X101091271Y-143326552D01*
X101127009Y-143297222D01*
X101283534Y-143213557D01*
X101453373Y-143162037D01*
X101519558Y-143155518D01*
X101585740Y-143149000D01*
X101674260Y-143149000D01*
X101740442Y-143155518D01*
X101740442Y-143155518D01*
G37*
G36*
X104280442Y-143155518D02*
G01*
X104346627Y-143162037D01*
X104516466Y-143213557D01*
X104672991Y-143297222D01*
X104708729Y-143326552D01*
X104810186Y-143409814D01*
X104861250Y-143472037D01*
X104922778Y-143547009D01*
X105006443Y-143703534D01*
X105057963Y-143873373D01*
X105075359Y-144050000D01*
X105057963Y-144226627D01*
X105006443Y-144396466D01*
X104922778Y-144552991D01*
X104893448Y-144588729D01*
X104810186Y-144690186D01*
X104708729Y-144773448D01*
X104672991Y-144802778D01*
X104516466Y-144886443D01*
X104346627Y-144937963D01*
X104280442Y-144944482D01*
X104214260Y-144951000D01*
X104125740Y-144951000D01*
X104059558Y-144944482D01*
X103993373Y-144937963D01*
X103823534Y-144886443D01*
X103667009Y-144802778D01*
X103631271Y-144773448D01*
X103529814Y-144690186D01*
X103446552Y-144588729D01*
X103417222Y-144552991D01*
X103333557Y-144396466D01*
X103282037Y-144226627D01*
X103264641Y-144050000D01*
X103282037Y-143873373D01*
X103333557Y-143703534D01*
X103417222Y-143547009D01*
X103478750Y-143472037D01*
X103529814Y-143409814D01*
X103631271Y-143326552D01*
X103667009Y-143297222D01*
X103823534Y-143213557D01*
X103993373Y-143162037D01*
X104059558Y-143155518D01*
X104125740Y-143149000D01*
X104214260Y-143149000D01*
X104280442Y-143155518D01*
X104280442Y-143155518D01*
G37*
G36*
X104280443Y-140615519D02*
G01*
X104346627Y-140622037D01*
X104516466Y-140673557D01*
X104672991Y-140757222D01*
X104690693Y-140771750D01*
X104810186Y-140869814D01*
X104871446Y-140944461D01*
X104922778Y-141007009D01*
X105006443Y-141163534D01*
X105057963Y-141333373D01*
X105075359Y-141510000D01*
X105057963Y-141686627D01*
X105006443Y-141856466D01*
X104922778Y-142012991D01*
X104893448Y-142048729D01*
X104810186Y-142150186D01*
X104708729Y-142233448D01*
X104672991Y-142262778D01*
X104516466Y-142346443D01*
X104346627Y-142397963D01*
X104280443Y-142404481D01*
X104214260Y-142411000D01*
X104125740Y-142411000D01*
X104059557Y-142404481D01*
X103993373Y-142397963D01*
X103823534Y-142346443D01*
X103667009Y-142262778D01*
X103631271Y-142233448D01*
X103529814Y-142150186D01*
X103446552Y-142048729D01*
X103417222Y-142012991D01*
X103333557Y-141856466D01*
X103282037Y-141686627D01*
X103264641Y-141510000D01*
X103282037Y-141333373D01*
X103333557Y-141163534D01*
X103417222Y-141007009D01*
X103468554Y-140944461D01*
X103529814Y-140869814D01*
X103649307Y-140771750D01*
X103667009Y-140757222D01*
X103823534Y-140673557D01*
X103993373Y-140622037D01*
X104059557Y-140615519D01*
X104125740Y-140609000D01*
X104214260Y-140609000D01*
X104280443Y-140615519D01*
X104280443Y-140615519D01*
G37*
G36*
X101740443Y-140615519D02*
G01*
X101806627Y-140622037D01*
X101976466Y-140673557D01*
X102132991Y-140757222D01*
X102150693Y-140771750D01*
X102270186Y-140869814D01*
X102331446Y-140944461D01*
X102382778Y-141007009D01*
X102466443Y-141163534D01*
X102517963Y-141333373D01*
X102535359Y-141510000D01*
X102517963Y-141686627D01*
X102466443Y-141856466D01*
X102382778Y-142012991D01*
X102353448Y-142048729D01*
X102270186Y-142150186D01*
X102168729Y-142233448D01*
X102132991Y-142262778D01*
X101976466Y-142346443D01*
X101806627Y-142397963D01*
X101740443Y-142404481D01*
X101674260Y-142411000D01*
X101585740Y-142411000D01*
X101519557Y-142404481D01*
X101453373Y-142397963D01*
X101283534Y-142346443D01*
X101127009Y-142262778D01*
X101091271Y-142233448D01*
X100989814Y-142150186D01*
X100906552Y-142048729D01*
X100877222Y-142012991D01*
X100793557Y-141856466D01*
X100742037Y-141686627D01*
X100724641Y-141510000D01*
X100742037Y-141333373D01*
X100793557Y-141163534D01*
X100877222Y-141007009D01*
X100928554Y-140944461D01*
X100989814Y-140869814D01*
X101109307Y-140771750D01*
X101127009Y-140757222D01*
X101283534Y-140673557D01*
X101453373Y-140622037D01*
X101519557Y-140615519D01*
X101585740Y-140609000D01*
X101674260Y-140609000D01*
X101740443Y-140615519D01*
X101740443Y-140615519D01*
G37*
G36*
X64449591Y-140043085D02*
G01*
X64483569Y-140053393D01*
X64514890Y-140070134D01*
X64542339Y-140092661D01*
X64564866Y-140120110D01*
X64581607Y-140151431D01*
X64591915Y-140185409D01*
X64596000Y-140226890D01*
X64596000Y-140828110D01*
X64591915Y-140869591D01*
X64581607Y-140903569D01*
X64564866Y-140934890D01*
X64542339Y-140962339D01*
X64514890Y-140984866D01*
X64483569Y-141001607D01*
X64449591Y-141011915D01*
X64408110Y-141016000D01*
X63731890Y-141016000D01*
X63690409Y-141011915D01*
X63656431Y-141001607D01*
X63625110Y-140984866D01*
X63597661Y-140962339D01*
X63575134Y-140934890D01*
X63558393Y-140903569D01*
X63548085Y-140869591D01*
X63544000Y-140828110D01*
X63544000Y-140226890D01*
X63548085Y-140185409D01*
X63558393Y-140151431D01*
X63575134Y-140120110D01*
X63597661Y-140092661D01*
X63625110Y-140070134D01*
X63656431Y-140053393D01*
X63690409Y-140043085D01*
X63731890Y-140039000D01*
X64408110Y-140039000D01*
X64449591Y-140043085D01*
X64449591Y-140043085D01*
G37*
G36*
X68259591Y-140043085D02*
G01*
X68293569Y-140053393D01*
X68324890Y-140070134D01*
X68352339Y-140092661D01*
X68374866Y-140120110D01*
X68391607Y-140151431D01*
X68401915Y-140185409D01*
X68406000Y-140226890D01*
X68406000Y-140828110D01*
X68401915Y-140869591D01*
X68391607Y-140903569D01*
X68374866Y-140934890D01*
X68352339Y-140962339D01*
X68324890Y-140984866D01*
X68293569Y-141001607D01*
X68259591Y-141011915D01*
X68218110Y-141016000D01*
X67541890Y-141016000D01*
X67500409Y-141011915D01*
X67466431Y-141001607D01*
X67435110Y-140984866D01*
X67407661Y-140962339D01*
X67385134Y-140934890D01*
X67368393Y-140903569D01*
X67358085Y-140869591D01*
X67354000Y-140828110D01*
X67354000Y-140226890D01*
X67358085Y-140185409D01*
X67368393Y-140151431D01*
X67385134Y-140120110D01*
X67407661Y-140092661D01*
X67435110Y-140070134D01*
X67466431Y-140053393D01*
X67500409Y-140043085D01*
X67541890Y-140039000D01*
X68218110Y-140039000D01*
X68259591Y-140043085D01*
X68259591Y-140043085D01*
G37*
G36*
X53210442Y-138455518D02*
G01*
X53276627Y-138462037D01*
X53446466Y-138513557D01*
X53602991Y-138597222D01*
X53619059Y-138610409D01*
X53740186Y-138709814D01*
X53823448Y-138811271D01*
X53852778Y-138847009D01*
X53936443Y-139003534D01*
X53987963Y-139173373D01*
X54005359Y-139350000D01*
X53987963Y-139526627D01*
X53936443Y-139696466D01*
X53852778Y-139852991D01*
X53837998Y-139871000D01*
X53740186Y-139990186D01*
X53658050Y-140057592D01*
X53602991Y-140102778D01*
X53602989Y-140102779D01*
X53448401Y-140185409D01*
X53446466Y-140186443D01*
X53276627Y-140237963D01*
X53210442Y-140244482D01*
X53144260Y-140251000D01*
X53055740Y-140251000D01*
X52989558Y-140244482D01*
X52923373Y-140237963D01*
X52753534Y-140186443D01*
X52751600Y-140185409D01*
X52597011Y-140102779D01*
X52597009Y-140102778D01*
X52541950Y-140057592D01*
X52459814Y-139990186D01*
X52362002Y-139871000D01*
X52347222Y-139852991D01*
X52263557Y-139696466D01*
X52212037Y-139526627D01*
X52194641Y-139350000D01*
X52212037Y-139173373D01*
X52263557Y-139003534D01*
X52347222Y-138847009D01*
X52376552Y-138811271D01*
X52459814Y-138709814D01*
X52580941Y-138610409D01*
X52597009Y-138597222D01*
X52753534Y-138513557D01*
X52923373Y-138462037D01*
X52989558Y-138455518D01*
X53055740Y-138449000D01*
X53144260Y-138449000D01*
X53210442Y-138455518D01*
X53210442Y-138455518D01*
G37*
G36*
X55750442Y-138455518D02*
G01*
X55816627Y-138462037D01*
X55986466Y-138513557D01*
X56142991Y-138597222D01*
X56159059Y-138610409D01*
X56280186Y-138709814D01*
X56363448Y-138811271D01*
X56392778Y-138847009D01*
X56476443Y-139003534D01*
X56527963Y-139173373D01*
X56545359Y-139350000D01*
X56527963Y-139526627D01*
X56476443Y-139696466D01*
X56392778Y-139852991D01*
X56377998Y-139871000D01*
X56280186Y-139990186D01*
X56198050Y-140057592D01*
X56142991Y-140102778D01*
X56142989Y-140102779D01*
X55988401Y-140185409D01*
X55986466Y-140186443D01*
X55816627Y-140237963D01*
X55750442Y-140244482D01*
X55684260Y-140251000D01*
X55595740Y-140251000D01*
X55529558Y-140244482D01*
X55463373Y-140237963D01*
X55293534Y-140186443D01*
X55291600Y-140185409D01*
X55137011Y-140102779D01*
X55137009Y-140102778D01*
X55081950Y-140057592D01*
X54999814Y-139990186D01*
X54902002Y-139871000D01*
X54887222Y-139852991D01*
X54803557Y-139696466D01*
X54752037Y-139526627D01*
X54734641Y-139350000D01*
X54752037Y-139173373D01*
X54803557Y-139003534D01*
X54887222Y-138847009D01*
X54916552Y-138811271D01*
X54999814Y-138709814D01*
X55120941Y-138610409D01*
X55137009Y-138597222D01*
X55293534Y-138513557D01*
X55463373Y-138462037D01*
X55529558Y-138455518D01*
X55595740Y-138449000D01*
X55684260Y-138449000D01*
X55750442Y-138455518D01*
X55750442Y-138455518D01*
G37*
G36*
X101740443Y-138075519D02*
G01*
X101806627Y-138082037D01*
X101976466Y-138133557D01*
X102132991Y-138217222D01*
X102168729Y-138246552D01*
X102270186Y-138329814D01*
X102353448Y-138431271D01*
X102382778Y-138467009D01*
X102382779Y-138467011D01*
X102459428Y-138610409D01*
X102466443Y-138623534D01*
X102517963Y-138793373D01*
X102535359Y-138970000D01*
X102517963Y-139146627D01*
X102466443Y-139316466D01*
X102382778Y-139472991D01*
X102353448Y-139508729D01*
X102270186Y-139610186D01*
X102168729Y-139693448D01*
X102132991Y-139722778D01*
X101976466Y-139806443D01*
X101806627Y-139857963D01*
X101740443Y-139864481D01*
X101674260Y-139871000D01*
X101585740Y-139871000D01*
X101519557Y-139864481D01*
X101453373Y-139857963D01*
X101283534Y-139806443D01*
X101127009Y-139722778D01*
X101091271Y-139693448D01*
X100989814Y-139610186D01*
X100906552Y-139508729D01*
X100877222Y-139472991D01*
X100793557Y-139316466D01*
X100742037Y-139146627D01*
X100724641Y-138970000D01*
X100742037Y-138793373D01*
X100793557Y-138623534D01*
X100800573Y-138610409D01*
X100877221Y-138467011D01*
X100877222Y-138467009D01*
X100906552Y-138431271D01*
X100989814Y-138329814D01*
X101091271Y-138246552D01*
X101127009Y-138217222D01*
X101283534Y-138133557D01*
X101453373Y-138082037D01*
X101519557Y-138075519D01*
X101585740Y-138069000D01*
X101674260Y-138069000D01*
X101740443Y-138075519D01*
X101740443Y-138075519D01*
G37*
G36*
X104280443Y-138075519D02*
G01*
X104346627Y-138082037D01*
X104516466Y-138133557D01*
X104672991Y-138217222D01*
X104708729Y-138246552D01*
X104810186Y-138329814D01*
X104893448Y-138431271D01*
X104922778Y-138467009D01*
X104922779Y-138467011D01*
X104999428Y-138610409D01*
X105006443Y-138623534D01*
X105057963Y-138793373D01*
X105075359Y-138970000D01*
X105057963Y-139146627D01*
X105006443Y-139316466D01*
X104922778Y-139472991D01*
X104893448Y-139508729D01*
X104810186Y-139610186D01*
X104708729Y-139693448D01*
X104672991Y-139722778D01*
X104516466Y-139806443D01*
X104346627Y-139857963D01*
X104280443Y-139864481D01*
X104214260Y-139871000D01*
X104125740Y-139871000D01*
X104059557Y-139864481D01*
X103993373Y-139857963D01*
X103823534Y-139806443D01*
X103667009Y-139722778D01*
X103631271Y-139693448D01*
X103529814Y-139610186D01*
X103446552Y-139508729D01*
X103417222Y-139472991D01*
X103333557Y-139316466D01*
X103282037Y-139146627D01*
X103264641Y-138970000D01*
X103282037Y-138793373D01*
X103333557Y-138623534D01*
X103340573Y-138610409D01*
X103417221Y-138467011D01*
X103417222Y-138467009D01*
X103446552Y-138431271D01*
X103529814Y-138329814D01*
X103631271Y-138246552D01*
X103667009Y-138217222D01*
X103823534Y-138133557D01*
X103993373Y-138082037D01*
X104059557Y-138075519D01*
X104125740Y-138069000D01*
X104214260Y-138069000D01*
X104280443Y-138075519D01*
X104280443Y-138075519D01*
G37*
G36*
X68259591Y-138468085D02*
G01*
X68293569Y-138478393D01*
X68324890Y-138495134D01*
X68352339Y-138517661D01*
X68374866Y-138545110D01*
X68391607Y-138576431D01*
X68401915Y-138610409D01*
X68406000Y-138651890D01*
X68406000Y-139253110D01*
X68401915Y-139294591D01*
X68391607Y-139328569D01*
X68374866Y-139359890D01*
X68352339Y-139387339D01*
X68324890Y-139409866D01*
X68293569Y-139426607D01*
X68259591Y-139436915D01*
X68218110Y-139441000D01*
X67541890Y-139441000D01*
X67500409Y-139436915D01*
X67466431Y-139426607D01*
X67435110Y-139409866D01*
X67407661Y-139387339D01*
X67385134Y-139359890D01*
X67368393Y-139328569D01*
X67358085Y-139294591D01*
X67354000Y-139253110D01*
X67354000Y-138651890D01*
X67358085Y-138610409D01*
X67368393Y-138576431D01*
X67385134Y-138545110D01*
X67407661Y-138517661D01*
X67435110Y-138495134D01*
X67466431Y-138478393D01*
X67500409Y-138468085D01*
X67541890Y-138464000D01*
X68218110Y-138464000D01*
X68259591Y-138468085D01*
X68259591Y-138468085D01*
G37*
G36*
X64449591Y-138468085D02*
G01*
X64483569Y-138478393D01*
X64514890Y-138495134D01*
X64542339Y-138517661D01*
X64564866Y-138545110D01*
X64581607Y-138576431D01*
X64591915Y-138610409D01*
X64596000Y-138651890D01*
X64596000Y-139253110D01*
X64591915Y-139294591D01*
X64581607Y-139328569D01*
X64564866Y-139359890D01*
X64542339Y-139387339D01*
X64514890Y-139409866D01*
X64483569Y-139426607D01*
X64449591Y-139436915D01*
X64408110Y-139441000D01*
X63731890Y-139441000D01*
X63690409Y-139436915D01*
X63656431Y-139426607D01*
X63625110Y-139409866D01*
X63597661Y-139387339D01*
X63575134Y-139359890D01*
X63558393Y-139328569D01*
X63548085Y-139294591D01*
X63544000Y-139253110D01*
X63544000Y-138651890D01*
X63548085Y-138610409D01*
X63558393Y-138576431D01*
X63575134Y-138545110D01*
X63597661Y-138517661D01*
X63625110Y-138495134D01*
X63656431Y-138478393D01*
X63690409Y-138468085D01*
X63731890Y-138464000D01*
X64408110Y-138464000D01*
X64449591Y-138468085D01*
X64449591Y-138468085D01*
G37*
G36*
X55750442Y-135915518D02*
G01*
X55816627Y-135922037D01*
X55986466Y-135973557D01*
X56142991Y-136057222D01*
X56175050Y-136083532D01*
X56280186Y-136169814D01*
X56363448Y-136271271D01*
X56392778Y-136307009D01*
X56476443Y-136463534D01*
X56527963Y-136633373D01*
X56545359Y-136810000D01*
X56527963Y-136986627D01*
X56476443Y-137156466D01*
X56392778Y-137312991D01*
X56377998Y-137331000D01*
X56280186Y-137450186D01*
X56203916Y-137512778D01*
X56142991Y-137562778D01*
X55986466Y-137646443D01*
X55816627Y-137697963D01*
X55750443Y-137704481D01*
X55684260Y-137711000D01*
X55595740Y-137711000D01*
X55529557Y-137704481D01*
X55463373Y-137697963D01*
X55293534Y-137646443D01*
X55137009Y-137562778D01*
X55076084Y-137512778D01*
X54999814Y-137450186D01*
X54902002Y-137331000D01*
X54887222Y-137312991D01*
X54803557Y-137156466D01*
X54752037Y-136986627D01*
X54734641Y-136810000D01*
X54752037Y-136633373D01*
X54803557Y-136463534D01*
X54887222Y-136307009D01*
X54916552Y-136271271D01*
X54999814Y-136169814D01*
X55104950Y-136083532D01*
X55137009Y-136057222D01*
X55293534Y-135973557D01*
X55463373Y-135922037D01*
X55529558Y-135915518D01*
X55595740Y-135909000D01*
X55684260Y-135909000D01*
X55750442Y-135915518D01*
X55750442Y-135915518D01*
G37*
G36*
X53210442Y-135915518D02*
G01*
X53276627Y-135922037D01*
X53446466Y-135973557D01*
X53602991Y-136057222D01*
X53635050Y-136083532D01*
X53740186Y-136169814D01*
X53823448Y-136271271D01*
X53852778Y-136307009D01*
X53936443Y-136463534D01*
X53987963Y-136633373D01*
X54005359Y-136810000D01*
X53987963Y-136986627D01*
X53936443Y-137156466D01*
X53852778Y-137312991D01*
X53837998Y-137331000D01*
X53740186Y-137450186D01*
X53663916Y-137512778D01*
X53602991Y-137562778D01*
X53446466Y-137646443D01*
X53276627Y-137697963D01*
X53210443Y-137704481D01*
X53144260Y-137711000D01*
X53055740Y-137711000D01*
X52989557Y-137704481D01*
X52923373Y-137697963D01*
X52753534Y-137646443D01*
X52597009Y-137562778D01*
X52536084Y-137512778D01*
X52459814Y-137450186D01*
X52362002Y-137331000D01*
X52347222Y-137312991D01*
X52263557Y-137156466D01*
X52212037Y-136986627D01*
X52194641Y-136810000D01*
X52212037Y-136633373D01*
X52263557Y-136463534D01*
X52347222Y-136307009D01*
X52376552Y-136271271D01*
X52459814Y-136169814D01*
X52564950Y-136083532D01*
X52597009Y-136057222D01*
X52753534Y-135973557D01*
X52923373Y-135922037D01*
X52989558Y-135915518D01*
X53055740Y-135909000D01*
X53144260Y-135909000D01*
X53210442Y-135915518D01*
X53210442Y-135915518D01*
G37*
G36*
X91750443Y-135865519D02*
G01*
X91816627Y-135872037D01*
X91986466Y-135923557D01*
X92142991Y-136007222D01*
X92178729Y-136036552D01*
X92280186Y-136119814D01*
X92363448Y-136221271D01*
X92392778Y-136257009D01*
X92476443Y-136413534D01*
X92527963Y-136583373D01*
X92545359Y-136760000D01*
X92527963Y-136936627D01*
X92476443Y-137106466D01*
X92392778Y-137262991D01*
X92363448Y-137298729D01*
X92280186Y-137400186D01*
X92178729Y-137483448D01*
X92142991Y-137512778D01*
X91986466Y-137596443D01*
X91816627Y-137647963D01*
X91750443Y-137654481D01*
X91684260Y-137661000D01*
X91595740Y-137661000D01*
X91529557Y-137654481D01*
X91463373Y-137647963D01*
X91293534Y-137596443D01*
X91137009Y-137512778D01*
X91101271Y-137483448D01*
X90999814Y-137400186D01*
X90916552Y-137298729D01*
X90887222Y-137262991D01*
X90803557Y-137106466D01*
X90752037Y-136936627D01*
X90734641Y-136760000D01*
X90752037Y-136583373D01*
X90803557Y-136413534D01*
X90887222Y-136257009D01*
X90916552Y-136221271D01*
X90999814Y-136119814D01*
X91101271Y-136036552D01*
X91137009Y-136007222D01*
X91293534Y-135923557D01*
X91463373Y-135872037D01*
X91529557Y-135865519D01*
X91595740Y-135859000D01*
X91684260Y-135859000D01*
X91750443Y-135865519D01*
X91750443Y-135865519D01*
G37*
G36*
X81300443Y-135865519D02*
G01*
X81366627Y-135872037D01*
X81536466Y-135923557D01*
X81692991Y-136007222D01*
X81728729Y-136036552D01*
X81830186Y-136119814D01*
X81913448Y-136221271D01*
X81942778Y-136257009D01*
X82026443Y-136413534D01*
X82077963Y-136583373D01*
X82095359Y-136760000D01*
X82077963Y-136936627D01*
X82026443Y-137106466D01*
X81942778Y-137262991D01*
X81913448Y-137298729D01*
X81830186Y-137400186D01*
X81728729Y-137483448D01*
X81692991Y-137512778D01*
X81536466Y-137596443D01*
X81366627Y-137647963D01*
X81300443Y-137654481D01*
X81234260Y-137661000D01*
X81145740Y-137661000D01*
X81079557Y-137654481D01*
X81013373Y-137647963D01*
X80843534Y-137596443D01*
X80687009Y-137512778D01*
X80651271Y-137483448D01*
X80549814Y-137400186D01*
X80466552Y-137298729D01*
X80437222Y-137262991D01*
X80353557Y-137106466D01*
X80302037Y-136936627D01*
X80284641Y-136760000D01*
X80302037Y-136583373D01*
X80353557Y-136413534D01*
X80437222Y-136257009D01*
X80466552Y-136221271D01*
X80549814Y-136119814D01*
X80651271Y-136036552D01*
X80687009Y-136007222D01*
X80843534Y-135923557D01*
X81013373Y-135872037D01*
X81079557Y-135865519D01*
X81145740Y-135859000D01*
X81234260Y-135859000D01*
X81300443Y-135865519D01*
X81300443Y-135865519D01*
G37*
G36*
X78760443Y-135865519D02*
G01*
X78826627Y-135872037D01*
X78996466Y-135923557D01*
X79152991Y-136007222D01*
X79188729Y-136036552D01*
X79290186Y-136119814D01*
X79373448Y-136221271D01*
X79402778Y-136257009D01*
X79486443Y-136413534D01*
X79537963Y-136583373D01*
X79555359Y-136760000D01*
X79537963Y-136936627D01*
X79486443Y-137106466D01*
X79402778Y-137262991D01*
X79373448Y-137298729D01*
X79290186Y-137400186D01*
X79188729Y-137483448D01*
X79152991Y-137512778D01*
X78996466Y-137596443D01*
X78826627Y-137647963D01*
X78760443Y-137654481D01*
X78694260Y-137661000D01*
X78605740Y-137661000D01*
X78539557Y-137654481D01*
X78473373Y-137647963D01*
X78303534Y-137596443D01*
X78147009Y-137512778D01*
X78111271Y-137483448D01*
X78009814Y-137400186D01*
X77926552Y-137298729D01*
X77897222Y-137262991D01*
X77813557Y-137106466D01*
X77762037Y-136936627D01*
X77744641Y-136760000D01*
X77762037Y-136583373D01*
X77813557Y-136413534D01*
X77897222Y-136257009D01*
X77926552Y-136221271D01*
X78009814Y-136119814D01*
X78111271Y-136036552D01*
X78147009Y-136007222D01*
X78303534Y-135923557D01*
X78473373Y-135872037D01*
X78539557Y-135865519D01*
X78605740Y-135859000D01*
X78694260Y-135859000D01*
X78760443Y-135865519D01*
X78760443Y-135865519D01*
G37*
G36*
X89210443Y-135865519D02*
G01*
X89276627Y-135872037D01*
X89446466Y-135923557D01*
X89602991Y-136007222D01*
X89638729Y-136036552D01*
X89740186Y-136119814D01*
X89823448Y-136221271D01*
X89852778Y-136257009D01*
X89936443Y-136413534D01*
X89987963Y-136583373D01*
X90005359Y-136760000D01*
X89987963Y-136936627D01*
X89936443Y-137106466D01*
X89852778Y-137262991D01*
X89823448Y-137298729D01*
X89740186Y-137400186D01*
X89638729Y-137483448D01*
X89602991Y-137512778D01*
X89446466Y-137596443D01*
X89276627Y-137647963D01*
X89210443Y-137654481D01*
X89144260Y-137661000D01*
X89055740Y-137661000D01*
X88989557Y-137654481D01*
X88923373Y-137647963D01*
X88753534Y-137596443D01*
X88597009Y-137512778D01*
X88561271Y-137483448D01*
X88459814Y-137400186D01*
X88376552Y-137298729D01*
X88347222Y-137262991D01*
X88263557Y-137106466D01*
X88212037Y-136936627D01*
X88194641Y-136760000D01*
X88212037Y-136583373D01*
X88263557Y-136413534D01*
X88347222Y-136257009D01*
X88376552Y-136221271D01*
X88459814Y-136119814D01*
X88561271Y-136036552D01*
X88597009Y-136007222D01*
X88753534Y-135923557D01*
X88923373Y-135872037D01*
X88989557Y-135865519D01*
X89055740Y-135859000D01*
X89144260Y-135859000D01*
X89210443Y-135865519D01*
X89210443Y-135865519D01*
G37*
G36*
X104280443Y-135535519D02*
G01*
X104346627Y-135542037D01*
X104516466Y-135593557D01*
X104672991Y-135677222D01*
X104708729Y-135706552D01*
X104810186Y-135789814D01*
X104893448Y-135891271D01*
X104922778Y-135927009D01*
X105006443Y-136083534D01*
X105057963Y-136253373D01*
X105075359Y-136430000D01*
X105057963Y-136606627D01*
X105006443Y-136776466D01*
X104922778Y-136932991D01*
X104893448Y-136968729D01*
X104810186Y-137070186D01*
X104708729Y-137153448D01*
X104672991Y-137182778D01*
X104516466Y-137266443D01*
X104346627Y-137317963D01*
X104280443Y-137324481D01*
X104214260Y-137331000D01*
X104125740Y-137331000D01*
X104059557Y-137324481D01*
X103993373Y-137317963D01*
X103823534Y-137266443D01*
X103667009Y-137182778D01*
X103631271Y-137153448D01*
X103529814Y-137070186D01*
X103446552Y-136968729D01*
X103417222Y-136932991D01*
X103333557Y-136776466D01*
X103282037Y-136606627D01*
X103264641Y-136430000D01*
X103282037Y-136253373D01*
X103333557Y-136083534D01*
X103417222Y-135927009D01*
X103446552Y-135891271D01*
X103529814Y-135789814D01*
X103631271Y-135706552D01*
X103667009Y-135677222D01*
X103823534Y-135593557D01*
X103993373Y-135542037D01*
X104059557Y-135535519D01*
X104125740Y-135529000D01*
X104214260Y-135529000D01*
X104280443Y-135535519D01*
X104280443Y-135535519D01*
G37*
G36*
X101740443Y-135535519D02*
G01*
X101806627Y-135542037D01*
X101976466Y-135593557D01*
X102132991Y-135677222D01*
X102168729Y-135706552D01*
X102270186Y-135789814D01*
X102353448Y-135891271D01*
X102382778Y-135927009D01*
X102466443Y-136083534D01*
X102517963Y-136253373D01*
X102535359Y-136430000D01*
X102517963Y-136606627D01*
X102466443Y-136776466D01*
X102382778Y-136932991D01*
X102353448Y-136968729D01*
X102270186Y-137070186D01*
X102168729Y-137153448D01*
X102132991Y-137182778D01*
X101976466Y-137266443D01*
X101806627Y-137317963D01*
X101740443Y-137324481D01*
X101674260Y-137331000D01*
X101585740Y-137331000D01*
X101519557Y-137324481D01*
X101453373Y-137317963D01*
X101283534Y-137266443D01*
X101127009Y-137182778D01*
X101091271Y-137153448D01*
X100989814Y-137070186D01*
X100906552Y-136968729D01*
X100877222Y-136932991D01*
X100793557Y-136776466D01*
X100742037Y-136606627D01*
X100724641Y-136430000D01*
X100742037Y-136253373D01*
X100793557Y-136083534D01*
X100877222Y-135927009D01*
X100906552Y-135891271D01*
X100989814Y-135789814D01*
X101091271Y-135706552D01*
X101127009Y-135677222D01*
X101283534Y-135593557D01*
X101453373Y-135542037D01*
X101519557Y-135535519D01*
X101585740Y-135529000D01*
X101674260Y-135529000D01*
X101740443Y-135535519D01*
X101740443Y-135535519D01*
G37*
G36*
X72451000Y-135723500D02*
G01*
X71149000Y-135723500D01*
X71149000Y-118076500D01*
X72451000Y-118076500D01*
X72451000Y-135723500D01*
X72451000Y-135723500D01*
G37*
G36*
X63051000Y-135723500D02*
G01*
X61749000Y-135723500D01*
X61749000Y-118076500D01*
X63051000Y-118076500D01*
X63051000Y-135723500D01*
X63051000Y-135723500D01*
G37*
G36*
X53210442Y-133375518D02*
G01*
X53276627Y-133382037D01*
X53446466Y-133433557D01*
X53602991Y-133517222D01*
X53635050Y-133543532D01*
X53740186Y-133629814D01*
X53823448Y-133731271D01*
X53852778Y-133767009D01*
X53936443Y-133923534D01*
X53987963Y-134093373D01*
X54005359Y-134270000D01*
X53987963Y-134446627D01*
X53936443Y-134616466D01*
X53852778Y-134772991D01*
X53837998Y-134791000D01*
X53740186Y-134910186D01*
X53663916Y-134972778D01*
X53602991Y-135022778D01*
X53446466Y-135106443D01*
X53276627Y-135157963D01*
X53210442Y-135164482D01*
X53144260Y-135171000D01*
X53055740Y-135171000D01*
X52989558Y-135164482D01*
X52923373Y-135157963D01*
X52753534Y-135106443D01*
X52597009Y-135022778D01*
X52536084Y-134972778D01*
X52459814Y-134910186D01*
X52362002Y-134791000D01*
X52347222Y-134772991D01*
X52263557Y-134616466D01*
X52212037Y-134446627D01*
X52194641Y-134270000D01*
X52212037Y-134093373D01*
X52263557Y-133923534D01*
X52347222Y-133767009D01*
X52376552Y-133731271D01*
X52459814Y-133629814D01*
X52564950Y-133543532D01*
X52597009Y-133517222D01*
X52753534Y-133433557D01*
X52923373Y-133382037D01*
X52989558Y-133375518D01*
X53055740Y-133369000D01*
X53144260Y-133369000D01*
X53210442Y-133375518D01*
X53210442Y-133375518D01*
G37*
G36*
X55750442Y-133375518D02*
G01*
X55816627Y-133382037D01*
X55986466Y-133433557D01*
X56142991Y-133517222D01*
X56175050Y-133543532D01*
X56280186Y-133629814D01*
X56363448Y-133731271D01*
X56392778Y-133767009D01*
X56476443Y-133923534D01*
X56527963Y-134093373D01*
X56545359Y-134270000D01*
X56527963Y-134446627D01*
X56476443Y-134616466D01*
X56392778Y-134772991D01*
X56377998Y-134791000D01*
X56280186Y-134910186D01*
X56203916Y-134972778D01*
X56142991Y-135022778D01*
X55986466Y-135106443D01*
X55816627Y-135157963D01*
X55750442Y-135164482D01*
X55684260Y-135171000D01*
X55595740Y-135171000D01*
X55529558Y-135164482D01*
X55463373Y-135157963D01*
X55293534Y-135106443D01*
X55137009Y-135022778D01*
X55076084Y-134972778D01*
X54999814Y-134910186D01*
X54902002Y-134791000D01*
X54887222Y-134772991D01*
X54803557Y-134616466D01*
X54752037Y-134446627D01*
X54734641Y-134270000D01*
X54752037Y-134093373D01*
X54803557Y-133923534D01*
X54887222Y-133767009D01*
X54916552Y-133731271D01*
X54999814Y-133629814D01*
X55104950Y-133543532D01*
X55137009Y-133517222D01*
X55293534Y-133433557D01*
X55463373Y-133382037D01*
X55529558Y-133375518D01*
X55595740Y-133369000D01*
X55684260Y-133369000D01*
X55750442Y-133375518D01*
X55750442Y-133375518D01*
G37*
G36*
X89210443Y-133325519D02*
G01*
X89276627Y-133332037D01*
X89446466Y-133383557D01*
X89602991Y-133467222D01*
X89638729Y-133496552D01*
X89740186Y-133579814D01*
X89823448Y-133681271D01*
X89852778Y-133717009D01*
X89852779Y-133717011D01*
X89907027Y-133818500D01*
X89936443Y-133873534D01*
X89987963Y-134043373D01*
X90005359Y-134220000D01*
X89987963Y-134396627D01*
X89936443Y-134566466D01*
X89852778Y-134722991D01*
X89823448Y-134758729D01*
X89740186Y-134860186D01*
X89638729Y-134943448D01*
X89602991Y-134972778D01*
X89446466Y-135056443D01*
X89276627Y-135107963D01*
X89210443Y-135114481D01*
X89144260Y-135121000D01*
X89055740Y-135121000D01*
X88989557Y-135114481D01*
X88923373Y-135107963D01*
X88753534Y-135056443D01*
X88597009Y-134972778D01*
X88561271Y-134943448D01*
X88459814Y-134860186D01*
X88376552Y-134758729D01*
X88347222Y-134722991D01*
X88263557Y-134566466D01*
X88212037Y-134396627D01*
X88194641Y-134220000D01*
X88212037Y-134043373D01*
X88263557Y-133873534D01*
X88292974Y-133818500D01*
X88347221Y-133717011D01*
X88347222Y-133717009D01*
X88376552Y-133681271D01*
X88459814Y-133579814D01*
X88561271Y-133496552D01*
X88597009Y-133467222D01*
X88753534Y-133383557D01*
X88923373Y-133332037D01*
X88989557Y-133325519D01*
X89055740Y-133319000D01*
X89144260Y-133319000D01*
X89210443Y-133325519D01*
X89210443Y-133325519D01*
G37*
G36*
X78760443Y-133325519D02*
G01*
X78826627Y-133332037D01*
X78996466Y-133383557D01*
X79152991Y-133467222D01*
X79188729Y-133496552D01*
X79290186Y-133579814D01*
X79373448Y-133681271D01*
X79402778Y-133717009D01*
X79402779Y-133717011D01*
X79457027Y-133818500D01*
X79486443Y-133873534D01*
X79537963Y-134043373D01*
X79555359Y-134220000D01*
X79537963Y-134396627D01*
X79486443Y-134566466D01*
X79402778Y-134722991D01*
X79373448Y-134758729D01*
X79290186Y-134860186D01*
X79188729Y-134943448D01*
X79152991Y-134972778D01*
X78996466Y-135056443D01*
X78826627Y-135107963D01*
X78760443Y-135114481D01*
X78694260Y-135121000D01*
X78605740Y-135121000D01*
X78539557Y-135114481D01*
X78473373Y-135107963D01*
X78303534Y-135056443D01*
X78147009Y-134972778D01*
X78111271Y-134943448D01*
X78009814Y-134860186D01*
X77926552Y-134758729D01*
X77897222Y-134722991D01*
X77813557Y-134566466D01*
X77762037Y-134396627D01*
X77744641Y-134220000D01*
X77762037Y-134043373D01*
X77813557Y-133873534D01*
X77842974Y-133818500D01*
X77897221Y-133717011D01*
X77897222Y-133717009D01*
X77926552Y-133681271D01*
X78009814Y-133579814D01*
X78111271Y-133496552D01*
X78147009Y-133467222D01*
X78303534Y-133383557D01*
X78473373Y-133332037D01*
X78539557Y-133325519D01*
X78605740Y-133319000D01*
X78694260Y-133319000D01*
X78760443Y-133325519D01*
X78760443Y-133325519D01*
G37*
G36*
X81300443Y-133325519D02*
G01*
X81366627Y-133332037D01*
X81536466Y-133383557D01*
X81692991Y-133467222D01*
X81728729Y-133496552D01*
X81830186Y-133579814D01*
X81913448Y-133681271D01*
X81942778Y-133717009D01*
X81942779Y-133717011D01*
X81997027Y-133818500D01*
X82026443Y-133873534D01*
X82077963Y-134043373D01*
X82095359Y-134220000D01*
X82077963Y-134396627D01*
X82026443Y-134566466D01*
X81942778Y-134722991D01*
X81913448Y-134758729D01*
X81830186Y-134860186D01*
X81728729Y-134943448D01*
X81692991Y-134972778D01*
X81536466Y-135056443D01*
X81366627Y-135107963D01*
X81300443Y-135114481D01*
X81234260Y-135121000D01*
X81145740Y-135121000D01*
X81079557Y-135114481D01*
X81013373Y-135107963D01*
X80843534Y-135056443D01*
X80687009Y-134972778D01*
X80651271Y-134943448D01*
X80549814Y-134860186D01*
X80466552Y-134758729D01*
X80437222Y-134722991D01*
X80353557Y-134566466D01*
X80302037Y-134396627D01*
X80284641Y-134220000D01*
X80302037Y-134043373D01*
X80353557Y-133873534D01*
X80382974Y-133818500D01*
X80437221Y-133717011D01*
X80437222Y-133717009D01*
X80466552Y-133681271D01*
X80549814Y-133579814D01*
X80651271Y-133496552D01*
X80687009Y-133467222D01*
X80843534Y-133383557D01*
X81013373Y-133332037D01*
X81079557Y-133325519D01*
X81145740Y-133319000D01*
X81234260Y-133319000D01*
X81300443Y-133325519D01*
X81300443Y-133325519D01*
G37*
G36*
X91750443Y-133325519D02*
G01*
X91816627Y-133332037D01*
X91986466Y-133383557D01*
X92142991Y-133467222D01*
X92178729Y-133496552D01*
X92280186Y-133579814D01*
X92363448Y-133681271D01*
X92392778Y-133717009D01*
X92392779Y-133717011D01*
X92447027Y-133818500D01*
X92476443Y-133873534D01*
X92527963Y-134043373D01*
X92545359Y-134220000D01*
X92527963Y-134396627D01*
X92476443Y-134566466D01*
X92392778Y-134722991D01*
X92363448Y-134758729D01*
X92280186Y-134860186D01*
X92178729Y-134943448D01*
X92142991Y-134972778D01*
X91986466Y-135056443D01*
X91816627Y-135107963D01*
X91750443Y-135114481D01*
X91684260Y-135121000D01*
X91595740Y-135121000D01*
X91529557Y-135114481D01*
X91463373Y-135107963D01*
X91293534Y-135056443D01*
X91137009Y-134972778D01*
X91101271Y-134943448D01*
X90999814Y-134860186D01*
X90916552Y-134758729D01*
X90887222Y-134722991D01*
X90803557Y-134566466D01*
X90752037Y-134396627D01*
X90734641Y-134220000D01*
X90752037Y-134043373D01*
X90803557Y-133873534D01*
X90832974Y-133818500D01*
X90887221Y-133717011D01*
X90887222Y-133717009D01*
X90916552Y-133681271D01*
X90999814Y-133579814D01*
X91101271Y-133496552D01*
X91137009Y-133467222D01*
X91293534Y-133383557D01*
X91463373Y-133332037D01*
X91529557Y-133325519D01*
X91595740Y-133319000D01*
X91684260Y-133319000D01*
X91750443Y-133325519D01*
X91750443Y-133325519D01*
G37*
G36*
X104280442Y-132995518D02*
G01*
X104346627Y-133002037D01*
X104516466Y-133053557D01*
X104672991Y-133137222D01*
X104708729Y-133166552D01*
X104810186Y-133249814D01*
X104893448Y-133351271D01*
X104922778Y-133387009D01*
X105006443Y-133543534D01*
X105057963Y-133713373D01*
X105075359Y-133890000D01*
X105057963Y-134066627D01*
X105006443Y-134236466D01*
X104922778Y-134392991D01*
X104893448Y-134428729D01*
X104810186Y-134530186D01*
X104708729Y-134613448D01*
X104672991Y-134642778D01*
X104516466Y-134726443D01*
X104346627Y-134777963D01*
X104280443Y-134784481D01*
X104214260Y-134791000D01*
X104125740Y-134791000D01*
X104059557Y-134784481D01*
X103993373Y-134777963D01*
X103823534Y-134726443D01*
X103667009Y-134642778D01*
X103631271Y-134613448D01*
X103529814Y-134530186D01*
X103446552Y-134428729D01*
X103417222Y-134392991D01*
X103333557Y-134236466D01*
X103282037Y-134066627D01*
X103264641Y-133890000D01*
X103282037Y-133713373D01*
X103333557Y-133543534D01*
X103417222Y-133387009D01*
X103446552Y-133351271D01*
X103529814Y-133249814D01*
X103631271Y-133166552D01*
X103667009Y-133137222D01*
X103823534Y-133053557D01*
X103993373Y-133002037D01*
X104059558Y-132995518D01*
X104125740Y-132989000D01*
X104214260Y-132989000D01*
X104280442Y-132995518D01*
X104280442Y-132995518D01*
G37*
G36*
X102531000Y-134791000D02*
G01*
X100729000Y-134791000D01*
X100729000Y-132989000D01*
X102531000Y-132989000D01*
X102531000Y-134791000D01*
X102531000Y-134791000D01*
G37*
G36*
X55750442Y-130835518D02*
G01*
X55816627Y-130842037D01*
X55986466Y-130893557D01*
X56142991Y-130977222D01*
X56178729Y-131006552D01*
X56280186Y-131089814D01*
X56363448Y-131191271D01*
X56392778Y-131227009D01*
X56476443Y-131383534D01*
X56527963Y-131553373D01*
X56545359Y-131730000D01*
X56527963Y-131906627D01*
X56476443Y-132076466D01*
X56392778Y-132232991D01*
X56363448Y-132268729D01*
X56280186Y-132370186D01*
X56203916Y-132432778D01*
X56142991Y-132482778D01*
X55986466Y-132566443D01*
X55816627Y-132617963D01*
X55750442Y-132624482D01*
X55684260Y-132631000D01*
X55595740Y-132631000D01*
X55529558Y-132624482D01*
X55463373Y-132617963D01*
X55293534Y-132566443D01*
X55137009Y-132482778D01*
X55076084Y-132432778D01*
X54999814Y-132370186D01*
X54916552Y-132268729D01*
X54887222Y-132232991D01*
X54803557Y-132076466D01*
X54752037Y-131906627D01*
X54734641Y-131730000D01*
X54752037Y-131553373D01*
X54803557Y-131383534D01*
X54887222Y-131227009D01*
X54916552Y-131191271D01*
X54999814Y-131089814D01*
X55101271Y-131006552D01*
X55137009Y-130977222D01*
X55293534Y-130893557D01*
X55463373Y-130842037D01*
X55529558Y-130835518D01*
X55595740Y-130829000D01*
X55684260Y-130829000D01*
X55750442Y-130835518D01*
X55750442Y-130835518D01*
G37*
G36*
X53210442Y-130835518D02*
G01*
X53276627Y-130842037D01*
X53446466Y-130893557D01*
X53602991Y-130977222D01*
X53638729Y-131006552D01*
X53740186Y-131089814D01*
X53823448Y-131191271D01*
X53852778Y-131227009D01*
X53936443Y-131383534D01*
X53987963Y-131553373D01*
X54005359Y-131730000D01*
X53987963Y-131906627D01*
X53936443Y-132076466D01*
X53852778Y-132232991D01*
X53823448Y-132268729D01*
X53740186Y-132370186D01*
X53663916Y-132432778D01*
X53602991Y-132482778D01*
X53446466Y-132566443D01*
X53276627Y-132617963D01*
X53210442Y-132624482D01*
X53144260Y-132631000D01*
X53055740Y-132631000D01*
X52989558Y-132624482D01*
X52923373Y-132617963D01*
X52753534Y-132566443D01*
X52597009Y-132482778D01*
X52536084Y-132432778D01*
X52459814Y-132370186D01*
X52376552Y-132268729D01*
X52347222Y-132232991D01*
X52263557Y-132076466D01*
X52212037Y-131906627D01*
X52194641Y-131730000D01*
X52212037Y-131553373D01*
X52263557Y-131383534D01*
X52347222Y-131227009D01*
X52376552Y-131191271D01*
X52459814Y-131089814D01*
X52561271Y-131006552D01*
X52597009Y-130977222D01*
X52753534Y-130893557D01*
X52923373Y-130842037D01*
X52989558Y-130835518D01*
X53055740Y-130829000D01*
X53144260Y-130829000D01*
X53210442Y-130835518D01*
X53210442Y-130835518D01*
G37*
G36*
X91750443Y-130785519D02*
G01*
X91816627Y-130792037D01*
X91986466Y-130843557D01*
X92142991Y-130927222D01*
X92178729Y-130956552D01*
X92280186Y-131039814D01*
X92363448Y-131141271D01*
X92392778Y-131177009D01*
X92392779Y-131177011D01*
X92447027Y-131278500D01*
X92476443Y-131333534D01*
X92527963Y-131503373D01*
X92545359Y-131680000D01*
X92527963Y-131856627D01*
X92476443Y-132026466D01*
X92392778Y-132182991D01*
X92363448Y-132218729D01*
X92280186Y-132320186D01*
X92178729Y-132403448D01*
X92142991Y-132432778D01*
X91986466Y-132516443D01*
X91816627Y-132567963D01*
X91750443Y-132574481D01*
X91684260Y-132581000D01*
X91595740Y-132581000D01*
X91529557Y-132574481D01*
X91463373Y-132567963D01*
X91293534Y-132516443D01*
X91137009Y-132432778D01*
X91101271Y-132403448D01*
X90999814Y-132320186D01*
X90916552Y-132218729D01*
X90887222Y-132182991D01*
X90803557Y-132026466D01*
X90752037Y-131856627D01*
X90734641Y-131680000D01*
X90752037Y-131503373D01*
X90803557Y-131333534D01*
X90832974Y-131278500D01*
X90887221Y-131177011D01*
X90887222Y-131177009D01*
X90916552Y-131141271D01*
X90999814Y-131039814D01*
X91101271Y-130956552D01*
X91137009Y-130927222D01*
X91293534Y-130843557D01*
X91463373Y-130792037D01*
X91529557Y-130785519D01*
X91595740Y-130779000D01*
X91684260Y-130779000D01*
X91750443Y-130785519D01*
X91750443Y-130785519D01*
G37*
G36*
X89210443Y-130785519D02*
G01*
X89276627Y-130792037D01*
X89446466Y-130843557D01*
X89602991Y-130927222D01*
X89638729Y-130956552D01*
X89740186Y-131039814D01*
X89823448Y-131141271D01*
X89852778Y-131177009D01*
X89852779Y-131177011D01*
X89907027Y-131278500D01*
X89936443Y-131333534D01*
X89987963Y-131503373D01*
X90005359Y-131680000D01*
X89987963Y-131856627D01*
X89936443Y-132026466D01*
X89852778Y-132182991D01*
X89823448Y-132218729D01*
X89740186Y-132320186D01*
X89638729Y-132403448D01*
X89602991Y-132432778D01*
X89446466Y-132516443D01*
X89276627Y-132567963D01*
X89210443Y-132574481D01*
X89144260Y-132581000D01*
X89055740Y-132581000D01*
X88989557Y-132574481D01*
X88923373Y-132567963D01*
X88753534Y-132516443D01*
X88597009Y-132432778D01*
X88561271Y-132403448D01*
X88459814Y-132320186D01*
X88376552Y-132218729D01*
X88347222Y-132182991D01*
X88263557Y-132026466D01*
X88212037Y-131856627D01*
X88194641Y-131680000D01*
X88212037Y-131503373D01*
X88263557Y-131333534D01*
X88292974Y-131278500D01*
X88347221Y-131177011D01*
X88347222Y-131177009D01*
X88376552Y-131141271D01*
X88459814Y-131039814D01*
X88561271Y-130956552D01*
X88597009Y-130927222D01*
X88753534Y-130843557D01*
X88923373Y-130792037D01*
X88989557Y-130785519D01*
X89055740Y-130779000D01*
X89144260Y-130779000D01*
X89210443Y-130785519D01*
X89210443Y-130785519D01*
G37*
G36*
X78760443Y-130785519D02*
G01*
X78826627Y-130792037D01*
X78996466Y-130843557D01*
X79152991Y-130927222D01*
X79188729Y-130956552D01*
X79290186Y-131039814D01*
X79373448Y-131141271D01*
X79402778Y-131177009D01*
X79402779Y-131177011D01*
X79457027Y-131278500D01*
X79486443Y-131333534D01*
X79537963Y-131503373D01*
X79555359Y-131680000D01*
X79537963Y-131856627D01*
X79486443Y-132026466D01*
X79402778Y-132182991D01*
X79373448Y-132218729D01*
X79290186Y-132320186D01*
X79188729Y-132403448D01*
X79152991Y-132432778D01*
X78996466Y-132516443D01*
X78826627Y-132567963D01*
X78760443Y-132574481D01*
X78694260Y-132581000D01*
X78605740Y-132581000D01*
X78539557Y-132574481D01*
X78473373Y-132567963D01*
X78303534Y-132516443D01*
X78147009Y-132432778D01*
X78111271Y-132403448D01*
X78009814Y-132320186D01*
X77926552Y-132218729D01*
X77897222Y-132182991D01*
X77813557Y-132026466D01*
X77762037Y-131856627D01*
X77744641Y-131680000D01*
X77762037Y-131503373D01*
X77813557Y-131333534D01*
X77842974Y-131278500D01*
X77897221Y-131177011D01*
X77897222Y-131177009D01*
X77926552Y-131141271D01*
X78009814Y-131039814D01*
X78111271Y-130956552D01*
X78147009Y-130927222D01*
X78303534Y-130843557D01*
X78473373Y-130792037D01*
X78539557Y-130785519D01*
X78605740Y-130779000D01*
X78694260Y-130779000D01*
X78760443Y-130785519D01*
X78760443Y-130785519D01*
G37*
G36*
X81300443Y-130785519D02*
G01*
X81366627Y-130792037D01*
X81536466Y-130843557D01*
X81692991Y-130927222D01*
X81728729Y-130956552D01*
X81830186Y-131039814D01*
X81913448Y-131141271D01*
X81942778Y-131177009D01*
X81942779Y-131177011D01*
X81997027Y-131278500D01*
X82026443Y-131333534D01*
X82077963Y-131503373D01*
X82095359Y-131680000D01*
X82077963Y-131856627D01*
X82026443Y-132026466D01*
X81942778Y-132182991D01*
X81913448Y-132218729D01*
X81830186Y-132320186D01*
X81728729Y-132403448D01*
X81692991Y-132432778D01*
X81536466Y-132516443D01*
X81366627Y-132567963D01*
X81300443Y-132574481D01*
X81234260Y-132581000D01*
X81145740Y-132581000D01*
X81079557Y-132574481D01*
X81013373Y-132567963D01*
X80843534Y-132516443D01*
X80687009Y-132432778D01*
X80651271Y-132403448D01*
X80549814Y-132320186D01*
X80466552Y-132218729D01*
X80437222Y-132182991D01*
X80353557Y-132026466D01*
X80302037Y-131856627D01*
X80284641Y-131680000D01*
X80302037Y-131503373D01*
X80353557Y-131333534D01*
X80382974Y-131278500D01*
X80437221Y-131177011D01*
X80437222Y-131177009D01*
X80466552Y-131141271D01*
X80549814Y-131039814D01*
X80651271Y-130956552D01*
X80687009Y-130927222D01*
X80843534Y-130843557D01*
X81013373Y-130792037D01*
X81079557Y-130785519D01*
X81145740Y-130779000D01*
X81234260Y-130779000D01*
X81300443Y-130785519D01*
X81300443Y-130785519D01*
G37*
G36*
X53210443Y-128295519D02*
G01*
X53276627Y-128302037D01*
X53446466Y-128353557D01*
X53602991Y-128437222D01*
X53638729Y-128466552D01*
X53740186Y-128549814D01*
X53823448Y-128651271D01*
X53852778Y-128687009D01*
X53936443Y-128843534D01*
X53987963Y-129013373D01*
X54005359Y-129190000D01*
X53987963Y-129366627D01*
X53936443Y-129536466D01*
X53852778Y-129692991D01*
X53823448Y-129728729D01*
X53740186Y-129830186D01*
X53663916Y-129892778D01*
X53602991Y-129942778D01*
X53446466Y-130026443D01*
X53276627Y-130077963D01*
X53210442Y-130084482D01*
X53144260Y-130091000D01*
X53055740Y-130091000D01*
X52989558Y-130084482D01*
X52923373Y-130077963D01*
X52753534Y-130026443D01*
X52597009Y-129942778D01*
X52536084Y-129892778D01*
X52459814Y-129830186D01*
X52376552Y-129728729D01*
X52347222Y-129692991D01*
X52263557Y-129536466D01*
X52212037Y-129366627D01*
X52194641Y-129190000D01*
X52212037Y-129013373D01*
X52263557Y-128843534D01*
X52347222Y-128687009D01*
X52376552Y-128651271D01*
X52459814Y-128549814D01*
X52561271Y-128466552D01*
X52597009Y-128437222D01*
X52753534Y-128353557D01*
X52923373Y-128302037D01*
X52989557Y-128295519D01*
X53055740Y-128289000D01*
X53144260Y-128289000D01*
X53210443Y-128295519D01*
X53210443Y-128295519D01*
G37*
G36*
X55750443Y-128295519D02*
G01*
X55816627Y-128302037D01*
X55986466Y-128353557D01*
X56142991Y-128437222D01*
X56178729Y-128466552D01*
X56280186Y-128549814D01*
X56363448Y-128651271D01*
X56392778Y-128687009D01*
X56476443Y-128843534D01*
X56527963Y-129013373D01*
X56545359Y-129190000D01*
X56527963Y-129366627D01*
X56476443Y-129536466D01*
X56392778Y-129692991D01*
X56363448Y-129728729D01*
X56280186Y-129830186D01*
X56203916Y-129892778D01*
X56142991Y-129942778D01*
X55986466Y-130026443D01*
X55816627Y-130077963D01*
X55750442Y-130084482D01*
X55684260Y-130091000D01*
X55595740Y-130091000D01*
X55529558Y-130084482D01*
X55463373Y-130077963D01*
X55293534Y-130026443D01*
X55137009Y-129942778D01*
X55076084Y-129892778D01*
X54999814Y-129830186D01*
X54916552Y-129728729D01*
X54887222Y-129692991D01*
X54803557Y-129536466D01*
X54752037Y-129366627D01*
X54734641Y-129190000D01*
X54752037Y-129013373D01*
X54803557Y-128843534D01*
X54887222Y-128687009D01*
X54916552Y-128651271D01*
X54999814Y-128549814D01*
X55101271Y-128466552D01*
X55137009Y-128437222D01*
X55293534Y-128353557D01*
X55463373Y-128302037D01*
X55529557Y-128295519D01*
X55595740Y-128289000D01*
X55684260Y-128289000D01*
X55750443Y-128295519D01*
X55750443Y-128295519D01*
G37*
G36*
X89210442Y-128245518D02*
G01*
X89276627Y-128252037D01*
X89446466Y-128303557D01*
X89602991Y-128387222D01*
X89638729Y-128416552D01*
X89740186Y-128499814D01*
X89823448Y-128601271D01*
X89852778Y-128637009D01*
X89852779Y-128637011D01*
X89907027Y-128738500D01*
X89936443Y-128793534D01*
X89987963Y-128963373D01*
X90005359Y-129140000D01*
X89987963Y-129316627D01*
X89936443Y-129486466D01*
X89852778Y-129642991D01*
X89823448Y-129678729D01*
X89740186Y-129780186D01*
X89638729Y-129863448D01*
X89602991Y-129892778D01*
X89446466Y-129976443D01*
X89276627Y-130027963D01*
X89210443Y-130034481D01*
X89144260Y-130041000D01*
X89055740Y-130041000D01*
X88989557Y-130034481D01*
X88923373Y-130027963D01*
X88753534Y-129976443D01*
X88597009Y-129892778D01*
X88561271Y-129863448D01*
X88459814Y-129780186D01*
X88376552Y-129678729D01*
X88347222Y-129642991D01*
X88263557Y-129486466D01*
X88212037Y-129316627D01*
X88194641Y-129140000D01*
X88212037Y-128963373D01*
X88263557Y-128793534D01*
X88292974Y-128738500D01*
X88347221Y-128637011D01*
X88347222Y-128637009D01*
X88376552Y-128601271D01*
X88459814Y-128499814D01*
X88561271Y-128416552D01*
X88597009Y-128387222D01*
X88753534Y-128303557D01*
X88923373Y-128252037D01*
X88989558Y-128245518D01*
X89055740Y-128239000D01*
X89144260Y-128239000D01*
X89210442Y-128245518D01*
X89210442Y-128245518D01*
G37*
G36*
X91750442Y-128245518D02*
G01*
X91816627Y-128252037D01*
X91986466Y-128303557D01*
X92142991Y-128387222D01*
X92178729Y-128416552D01*
X92280186Y-128499814D01*
X92363448Y-128601271D01*
X92392778Y-128637009D01*
X92392779Y-128637011D01*
X92447027Y-128738500D01*
X92476443Y-128793534D01*
X92527963Y-128963373D01*
X92545359Y-129140000D01*
X92527963Y-129316627D01*
X92476443Y-129486466D01*
X92392778Y-129642991D01*
X92363448Y-129678729D01*
X92280186Y-129780186D01*
X92178729Y-129863448D01*
X92142991Y-129892778D01*
X91986466Y-129976443D01*
X91816627Y-130027963D01*
X91750443Y-130034481D01*
X91684260Y-130041000D01*
X91595740Y-130041000D01*
X91529557Y-130034481D01*
X91463373Y-130027963D01*
X91293534Y-129976443D01*
X91137009Y-129892778D01*
X91101271Y-129863448D01*
X90999814Y-129780186D01*
X90916552Y-129678729D01*
X90887222Y-129642991D01*
X90803557Y-129486466D01*
X90752037Y-129316627D01*
X90734641Y-129140000D01*
X90752037Y-128963373D01*
X90803557Y-128793534D01*
X90832974Y-128738500D01*
X90887221Y-128637011D01*
X90887222Y-128637009D01*
X90916552Y-128601271D01*
X90999814Y-128499814D01*
X91101271Y-128416552D01*
X91137009Y-128387222D01*
X91293534Y-128303557D01*
X91463373Y-128252037D01*
X91529558Y-128245518D01*
X91595740Y-128239000D01*
X91684260Y-128239000D01*
X91750442Y-128245518D01*
X91750442Y-128245518D01*
G37*
G36*
X78760442Y-128245518D02*
G01*
X78826627Y-128252037D01*
X78996466Y-128303557D01*
X79152991Y-128387222D01*
X79188729Y-128416552D01*
X79290186Y-128499814D01*
X79373448Y-128601271D01*
X79402778Y-128637009D01*
X79402779Y-128637011D01*
X79457027Y-128738500D01*
X79486443Y-128793534D01*
X79537963Y-128963373D01*
X79555359Y-129140000D01*
X79537963Y-129316627D01*
X79486443Y-129486466D01*
X79402778Y-129642991D01*
X79373448Y-129678729D01*
X79290186Y-129780186D01*
X79188729Y-129863448D01*
X79152991Y-129892778D01*
X78996466Y-129976443D01*
X78826627Y-130027963D01*
X78760443Y-130034481D01*
X78694260Y-130041000D01*
X78605740Y-130041000D01*
X78539557Y-130034481D01*
X78473373Y-130027963D01*
X78303534Y-129976443D01*
X78147009Y-129892778D01*
X78111271Y-129863448D01*
X78009814Y-129780186D01*
X77926552Y-129678729D01*
X77897222Y-129642991D01*
X77813557Y-129486466D01*
X77762037Y-129316627D01*
X77744641Y-129140000D01*
X77762037Y-128963373D01*
X77813557Y-128793534D01*
X77842974Y-128738500D01*
X77897221Y-128637011D01*
X77897222Y-128637009D01*
X77926552Y-128601271D01*
X78009814Y-128499814D01*
X78111271Y-128416552D01*
X78147009Y-128387222D01*
X78303534Y-128303557D01*
X78473373Y-128252037D01*
X78539558Y-128245518D01*
X78605740Y-128239000D01*
X78694260Y-128239000D01*
X78760442Y-128245518D01*
X78760442Y-128245518D01*
G37*
G36*
X81300442Y-128245518D02*
G01*
X81366627Y-128252037D01*
X81536466Y-128303557D01*
X81692991Y-128387222D01*
X81728729Y-128416552D01*
X81830186Y-128499814D01*
X81913448Y-128601271D01*
X81942778Y-128637009D01*
X81942779Y-128637011D01*
X81997027Y-128738500D01*
X82026443Y-128793534D01*
X82077963Y-128963373D01*
X82095359Y-129140000D01*
X82077963Y-129316627D01*
X82026443Y-129486466D01*
X81942778Y-129642991D01*
X81913448Y-129678729D01*
X81830186Y-129780186D01*
X81728729Y-129863448D01*
X81692991Y-129892778D01*
X81536466Y-129976443D01*
X81366627Y-130027963D01*
X81300443Y-130034481D01*
X81234260Y-130041000D01*
X81145740Y-130041000D01*
X81079557Y-130034481D01*
X81013373Y-130027963D01*
X80843534Y-129976443D01*
X80687009Y-129892778D01*
X80651271Y-129863448D01*
X80549814Y-129780186D01*
X80466552Y-129678729D01*
X80437222Y-129642991D01*
X80353557Y-129486466D01*
X80302037Y-129316627D01*
X80284641Y-129140000D01*
X80302037Y-128963373D01*
X80353557Y-128793534D01*
X80382974Y-128738500D01*
X80437221Y-128637011D01*
X80437222Y-128637009D01*
X80466552Y-128601271D01*
X80549814Y-128499814D01*
X80651271Y-128416552D01*
X80687009Y-128387222D01*
X80843534Y-128303557D01*
X81013373Y-128252037D01*
X81079558Y-128245518D01*
X81145740Y-128239000D01*
X81234260Y-128239000D01*
X81300442Y-128245518D01*
X81300442Y-128245518D01*
G37*
G36*
X55750442Y-125755518D02*
G01*
X55816627Y-125762037D01*
X55986466Y-125813557D01*
X56142991Y-125897222D01*
X56178729Y-125926552D01*
X56280186Y-126009814D01*
X56363448Y-126111271D01*
X56392778Y-126147009D01*
X56476443Y-126303534D01*
X56527963Y-126473373D01*
X56545359Y-126650000D01*
X56527963Y-126826627D01*
X56476443Y-126996466D01*
X56392778Y-127152991D01*
X56363448Y-127188729D01*
X56280186Y-127290186D01*
X56203916Y-127352778D01*
X56142991Y-127402778D01*
X55986466Y-127486443D01*
X55816627Y-127537963D01*
X55750442Y-127544482D01*
X55684260Y-127551000D01*
X55595740Y-127551000D01*
X55529558Y-127544482D01*
X55463373Y-127537963D01*
X55293534Y-127486443D01*
X55137009Y-127402778D01*
X55076084Y-127352778D01*
X54999814Y-127290186D01*
X54916552Y-127188729D01*
X54887222Y-127152991D01*
X54803557Y-126996466D01*
X54752037Y-126826627D01*
X54734641Y-126650000D01*
X54752037Y-126473373D01*
X54803557Y-126303534D01*
X54887222Y-126147009D01*
X54916552Y-126111271D01*
X54999814Y-126009814D01*
X55101271Y-125926552D01*
X55137009Y-125897222D01*
X55293534Y-125813557D01*
X55463373Y-125762037D01*
X55529558Y-125755518D01*
X55595740Y-125749000D01*
X55684260Y-125749000D01*
X55750442Y-125755518D01*
X55750442Y-125755518D01*
G37*
G36*
X53210442Y-125755518D02*
G01*
X53276627Y-125762037D01*
X53446466Y-125813557D01*
X53602991Y-125897222D01*
X53638729Y-125926552D01*
X53740186Y-126009814D01*
X53823448Y-126111271D01*
X53852778Y-126147009D01*
X53936443Y-126303534D01*
X53987963Y-126473373D01*
X54005359Y-126650000D01*
X53987963Y-126826627D01*
X53936443Y-126996466D01*
X53852778Y-127152991D01*
X53823448Y-127188729D01*
X53740186Y-127290186D01*
X53663916Y-127352778D01*
X53602991Y-127402778D01*
X53446466Y-127486443D01*
X53276627Y-127537963D01*
X53210442Y-127544482D01*
X53144260Y-127551000D01*
X53055740Y-127551000D01*
X52989558Y-127544482D01*
X52923373Y-127537963D01*
X52753534Y-127486443D01*
X52597009Y-127402778D01*
X52536084Y-127352778D01*
X52459814Y-127290186D01*
X52376552Y-127188729D01*
X52347222Y-127152991D01*
X52263557Y-126996466D01*
X52212037Y-126826627D01*
X52194641Y-126650000D01*
X52212037Y-126473373D01*
X52263557Y-126303534D01*
X52347222Y-126147009D01*
X52376552Y-126111271D01*
X52459814Y-126009814D01*
X52561271Y-125926552D01*
X52597009Y-125897222D01*
X52753534Y-125813557D01*
X52923373Y-125762037D01*
X52989558Y-125755518D01*
X53055740Y-125749000D01*
X53144260Y-125749000D01*
X53210442Y-125755518D01*
X53210442Y-125755518D01*
G37*
G36*
X81300442Y-125705518D02*
G01*
X81366627Y-125712037D01*
X81536466Y-125763557D01*
X81692991Y-125847222D01*
X81728729Y-125876552D01*
X81830186Y-125959814D01*
X81913448Y-126061271D01*
X81942778Y-126097009D01*
X81942779Y-126097011D01*
X81997027Y-126198500D01*
X82026443Y-126253534D01*
X82077963Y-126423373D01*
X82095359Y-126600000D01*
X82077963Y-126776627D01*
X82026443Y-126946466D01*
X81942778Y-127102991D01*
X81913448Y-127138729D01*
X81830186Y-127240186D01*
X81728729Y-127323448D01*
X81692991Y-127352778D01*
X81536466Y-127436443D01*
X81366627Y-127487963D01*
X81300442Y-127494482D01*
X81234260Y-127501000D01*
X81145740Y-127501000D01*
X81079558Y-127494482D01*
X81013373Y-127487963D01*
X80843534Y-127436443D01*
X80687009Y-127352778D01*
X80651271Y-127323448D01*
X80549814Y-127240186D01*
X80466552Y-127138729D01*
X80437222Y-127102991D01*
X80353557Y-126946466D01*
X80302037Y-126776627D01*
X80284641Y-126600000D01*
X80302037Y-126423373D01*
X80353557Y-126253534D01*
X80382974Y-126198500D01*
X80437221Y-126097011D01*
X80437222Y-126097009D01*
X80466552Y-126061271D01*
X80549814Y-125959814D01*
X80651271Y-125876552D01*
X80687009Y-125847222D01*
X80843534Y-125763557D01*
X81013373Y-125712037D01*
X81079558Y-125705518D01*
X81145740Y-125699000D01*
X81234260Y-125699000D01*
X81300442Y-125705518D01*
X81300442Y-125705518D01*
G37*
G36*
X78760442Y-125705518D02*
G01*
X78826627Y-125712037D01*
X78996466Y-125763557D01*
X79152991Y-125847222D01*
X79188729Y-125876552D01*
X79290186Y-125959814D01*
X79373448Y-126061271D01*
X79402778Y-126097009D01*
X79402779Y-126097011D01*
X79457027Y-126198500D01*
X79486443Y-126253534D01*
X79537963Y-126423373D01*
X79555359Y-126600000D01*
X79537963Y-126776627D01*
X79486443Y-126946466D01*
X79402778Y-127102991D01*
X79373448Y-127138729D01*
X79290186Y-127240186D01*
X79188729Y-127323448D01*
X79152991Y-127352778D01*
X78996466Y-127436443D01*
X78826627Y-127487963D01*
X78760442Y-127494482D01*
X78694260Y-127501000D01*
X78605740Y-127501000D01*
X78539558Y-127494482D01*
X78473373Y-127487963D01*
X78303534Y-127436443D01*
X78147009Y-127352778D01*
X78111271Y-127323448D01*
X78009814Y-127240186D01*
X77926552Y-127138729D01*
X77897222Y-127102991D01*
X77813557Y-126946466D01*
X77762037Y-126776627D01*
X77744641Y-126600000D01*
X77762037Y-126423373D01*
X77813557Y-126253534D01*
X77842974Y-126198500D01*
X77897221Y-126097011D01*
X77897222Y-126097009D01*
X77926552Y-126061271D01*
X78009814Y-125959814D01*
X78111271Y-125876552D01*
X78147009Y-125847222D01*
X78303534Y-125763557D01*
X78473373Y-125712037D01*
X78539558Y-125705518D01*
X78605740Y-125699000D01*
X78694260Y-125699000D01*
X78760442Y-125705518D01*
X78760442Y-125705518D01*
G37*
G36*
X91750442Y-125705518D02*
G01*
X91816627Y-125712037D01*
X91986466Y-125763557D01*
X92142991Y-125847222D01*
X92178729Y-125876552D01*
X92280186Y-125959814D01*
X92363448Y-126061271D01*
X92392778Y-126097009D01*
X92392779Y-126097011D01*
X92447027Y-126198500D01*
X92476443Y-126253534D01*
X92527963Y-126423373D01*
X92545359Y-126600000D01*
X92527963Y-126776627D01*
X92476443Y-126946466D01*
X92392778Y-127102991D01*
X92363448Y-127138729D01*
X92280186Y-127240186D01*
X92178729Y-127323448D01*
X92142991Y-127352778D01*
X91986466Y-127436443D01*
X91816627Y-127487963D01*
X91750442Y-127494482D01*
X91684260Y-127501000D01*
X91595740Y-127501000D01*
X91529558Y-127494482D01*
X91463373Y-127487963D01*
X91293534Y-127436443D01*
X91137009Y-127352778D01*
X91101271Y-127323448D01*
X90999814Y-127240186D01*
X90916552Y-127138729D01*
X90887222Y-127102991D01*
X90803557Y-126946466D01*
X90752037Y-126776627D01*
X90734641Y-126600000D01*
X90752037Y-126423373D01*
X90803557Y-126253534D01*
X90832974Y-126198500D01*
X90887221Y-126097011D01*
X90887222Y-126097009D01*
X90916552Y-126061271D01*
X90999814Y-125959814D01*
X91101271Y-125876552D01*
X91137009Y-125847222D01*
X91293534Y-125763557D01*
X91463373Y-125712037D01*
X91529558Y-125705518D01*
X91595740Y-125699000D01*
X91684260Y-125699000D01*
X91750442Y-125705518D01*
X91750442Y-125705518D01*
G37*
G36*
X89210442Y-125705518D02*
G01*
X89276627Y-125712037D01*
X89446466Y-125763557D01*
X89602991Y-125847222D01*
X89638729Y-125876552D01*
X89740186Y-125959814D01*
X89823448Y-126061271D01*
X89852778Y-126097009D01*
X89852779Y-126097011D01*
X89907027Y-126198500D01*
X89936443Y-126253534D01*
X89987963Y-126423373D01*
X90005359Y-126600000D01*
X89987963Y-126776627D01*
X89936443Y-126946466D01*
X89852778Y-127102991D01*
X89823448Y-127138729D01*
X89740186Y-127240186D01*
X89638729Y-127323448D01*
X89602991Y-127352778D01*
X89446466Y-127436443D01*
X89276627Y-127487963D01*
X89210442Y-127494482D01*
X89144260Y-127501000D01*
X89055740Y-127501000D01*
X88989558Y-127494482D01*
X88923373Y-127487963D01*
X88753534Y-127436443D01*
X88597009Y-127352778D01*
X88561271Y-127323448D01*
X88459814Y-127240186D01*
X88376552Y-127138729D01*
X88347222Y-127102991D01*
X88263557Y-126946466D01*
X88212037Y-126776627D01*
X88194641Y-126600000D01*
X88212037Y-126423373D01*
X88263557Y-126253534D01*
X88292974Y-126198500D01*
X88347221Y-126097011D01*
X88347222Y-126097009D01*
X88376552Y-126061271D01*
X88459814Y-125959814D01*
X88561271Y-125876552D01*
X88597009Y-125847222D01*
X88753534Y-125763557D01*
X88923373Y-125712037D01*
X88989558Y-125705518D01*
X89055740Y-125699000D01*
X89144260Y-125699000D01*
X89210442Y-125705518D01*
X89210442Y-125705518D01*
G37*
G36*
X55750443Y-123215519D02*
G01*
X55816627Y-123222037D01*
X55986466Y-123273557D01*
X56142991Y-123357222D01*
X56178729Y-123386552D01*
X56280186Y-123469814D01*
X56356967Y-123563373D01*
X56392778Y-123607009D01*
X56476443Y-123763534D01*
X56527963Y-123933373D01*
X56545359Y-124110000D01*
X56527963Y-124286627D01*
X56476443Y-124456466D01*
X56392778Y-124612991D01*
X56369791Y-124641000D01*
X56280186Y-124750186D01*
X56203916Y-124812778D01*
X56142991Y-124862778D01*
X55986466Y-124946443D01*
X55816627Y-124997963D01*
X55750443Y-125004481D01*
X55684260Y-125011000D01*
X55595740Y-125011000D01*
X55529557Y-125004481D01*
X55463373Y-124997963D01*
X55293534Y-124946443D01*
X55137009Y-124862778D01*
X55076084Y-124812778D01*
X54999814Y-124750186D01*
X54910209Y-124641000D01*
X54887222Y-124612991D01*
X54803557Y-124456466D01*
X54752037Y-124286627D01*
X54734641Y-124110000D01*
X54752037Y-123933373D01*
X54803557Y-123763534D01*
X54887222Y-123607009D01*
X54923033Y-123563373D01*
X54999814Y-123469814D01*
X55101271Y-123386552D01*
X55137009Y-123357222D01*
X55293534Y-123273557D01*
X55463373Y-123222037D01*
X55529557Y-123215519D01*
X55595740Y-123209000D01*
X55684260Y-123209000D01*
X55750443Y-123215519D01*
X55750443Y-123215519D01*
G37*
G36*
X53210443Y-123215519D02*
G01*
X53276627Y-123222037D01*
X53446466Y-123273557D01*
X53602991Y-123357222D01*
X53638729Y-123386552D01*
X53740186Y-123469814D01*
X53816967Y-123563373D01*
X53852778Y-123607009D01*
X53936443Y-123763534D01*
X53987963Y-123933373D01*
X54005359Y-124110000D01*
X53987963Y-124286627D01*
X53936443Y-124456466D01*
X53852778Y-124612991D01*
X53829791Y-124641000D01*
X53740186Y-124750186D01*
X53663916Y-124812778D01*
X53602991Y-124862778D01*
X53446466Y-124946443D01*
X53276627Y-124997963D01*
X53210443Y-125004481D01*
X53144260Y-125011000D01*
X53055740Y-125011000D01*
X52989557Y-125004481D01*
X52923373Y-124997963D01*
X52753534Y-124946443D01*
X52597009Y-124862778D01*
X52536084Y-124812778D01*
X52459814Y-124750186D01*
X52370209Y-124641000D01*
X52347222Y-124612991D01*
X52263557Y-124456466D01*
X52212037Y-124286627D01*
X52194641Y-124110000D01*
X52212037Y-123933373D01*
X52263557Y-123763534D01*
X52347222Y-123607009D01*
X52383033Y-123563373D01*
X52459814Y-123469814D01*
X52561271Y-123386552D01*
X52597009Y-123357222D01*
X52753534Y-123273557D01*
X52923373Y-123222037D01*
X52989557Y-123215519D01*
X53055740Y-123209000D01*
X53144260Y-123209000D01*
X53210443Y-123215519D01*
X53210443Y-123215519D01*
G37*
G36*
X89210443Y-123165519D02*
G01*
X89276627Y-123172037D01*
X89446466Y-123223557D01*
X89446468Y-123223558D01*
X89524729Y-123265390D01*
X89602991Y-123307222D01*
X89638729Y-123336552D01*
X89740186Y-123419814D01*
X89823448Y-123521271D01*
X89852778Y-123557009D01*
X89852779Y-123557011D01*
X89907027Y-123658500D01*
X89936443Y-123713534D01*
X89987963Y-123883373D01*
X90005359Y-124060000D01*
X89987963Y-124236627D01*
X89936443Y-124406466D01*
X89852778Y-124562991D01*
X89841739Y-124576442D01*
X89740186Y-124700186D01*
X89638729Y-124783448D01*
X89602991Y-124812778D01*
X89446466Y-124896443D01*
X89276627Y-124947963D01*
X89210443Y-124954481D01*
X89144260Y-124961000D01*
X89055740Y-124961000D01*
X88989557Y-124954481D01*
X88923373Y-124947963D01*
X88753534Y-124896443D01*
X88597009Y-124812778D01*
X88561271Y-124783448D01*
X88459814Y-124700186D01*
X88358261Y-124576442D01*
X88347222Y-124562991D01*
X88263557Y-124406466D01*
X88212037Y-124236627D01*
X88194641Y-124060000D01*
X88212037Y-123883373D01*
X88263557Y-123713534D01*
X88292974Y-123658500D01*
X88347221Y-123557011D01*
X88347222Y-123557009D01*
X88376552Y-123521271D01*
X88459814Y-123419814D01*
X88561271Y-123336552D01*
X88597009Y-123307222D01*
X88675272Y-123265389D01*
X88753532Y-123223558D01*
X88753534Y-123223557D01*
X88923373Y-123172037D01*
X88989557Y-123165519D01*
X89055740Y-123159000D01*
X89144260Y-123159000D01*
X89210443Y-123165519D01*
X89210443Y-123165519D01*
G37*
G36*
X81300443Y-123165519D02*
G01*
X81366627Y-123172037D01*
X81536466Y-123223557D01*
X81536468Y-123223558D01*
X81614729Y-123265390D01*
X81692991Y-123307222D01*
X81728729Y-123336552D01*
X81830186Y-123419814D01*
X81913448Y-123521271D01*
X81942778Y-123557009D01*
X81942779Y-123557011D01*
X81997027Y-123658500D01*
X82026443Y-123713534D01*
X82077963Y-123883373D01*
X82095359Y-124060000D01*
X82077963Y-124236627D01*
X82026443Y-124406466D01*
X81942778Y-124562991D01*
X81931739Y-124576442D01*
X81830186Y-124700186D01*
X81728729Y-124783448D01*
X81692991Y-124812778D01*
X81536466Y-124896443D01*
X81366627Y-124947963D01*
X81300443Y-124954481D01*
X81234260Y-124961000D01*
X81145740Y-124961000D01*
X81079557Y-124954481D01*
X81013373Y-124947963D01*
X80843534Y-124896443D01*
X80687009Y-124812778D01*
X80651271Y-124783448D01*
X80549814Y-124700186D01*
X80448261Y-124576442D01*
X80437222Y-124562991D01*
X80353557Y-124406466D01*
X80302037Y-124236627D01*
X80284641Y-124060000D01*
X80302037Y-123883373D01*
X80353557Y-123713534D01*
X80382974Y-123658500D01*
X80437221Y-123557011D01*
X80437222Y-123557009D01*
X80466552Y-123521271D01*
X80549814Y-123419814D01*
X80651271Y-123336552D01*
X80687009Y-123307222D01*
X80765272Y-123265389D01*
X80843532Y-123223558D01*
X80843534Y-123223557D01*
X81013373Y-123172037D01*
X81079557Y-123165519D01*
X81145740Y-123159000D01*
X81234260Y-123159000D01*
X81300443Y-123165519D01*
X81300443Y-123165519D01*
G37*
G36*
X78760443Y-123165519D02*
G01*
X78826627Y-123172037D01*
X78996466Y-123223557D01*
X78996468Y-123223558D01*
X79074729Y-123265390D01*
X79152991Y-123307222D01*
X79188729Y-123336552D01*
X79290186Y-123419814D01*
X79373448Y-123521271D01*
X79402778Y-123557009D01*
X79402779Y-123557011D01*
X79457027Y-123658500D01*
X79486443Y-123713534D01*
X79537963Y-123883373D01*
X79555359Y-124060000D01*
X79537963Y-124236627D01*
X79486443Y-124406466D01*
X79402778Y-124562991D01*
X79391739Y-124576442D01*
X79290186Y-124700186D01*
X79188729Y-124783448D01*
X79152991Y-124812778D01*
X78996466Y-124896443D01*
X78826627Y-124947963D01*
X78760443Y-124954481D01*
X78694260Y-124961000D01*
X78605740Y-124961000D01*
X78539557Y-124954481D01*
X78473373Y-124947963D01*
X78303534Y-124896443D01*
X78147009Y-124812778D01*
X78111271Y-124783448D01*
X78009814Y-124700186D01*
X77908261Y-124576442D01*
X77897222Y-124562991D01*
X77813557Y-124406466D01*
X77762037Y-124236627D01*
X77744641Y-124060000D01*
X77762037Y-123883373D01*
X77813557Y-123713534D01*
X77842974Y-123658500D01*
X77897221Y-123557011D01*
X77897222Y-123557009D01*
X77926552Y-123521271D01*
X78009814Y-123419814D01*
X78111271Y-123336552D01*
X78147009Y-123307222D01*
X78225272Y-123265389D01*
X78303532Y-123223558D01*
X78303534Y-123223557D01*
X78473373Y-123172037D01*
X78539557Y-123165519D01*
X78605740Y-123159000D01*
X78694260Y-123159000D01*
X78760443Y-123165519D01*
X78760443Y-123165519D01*
G37*
G36*
X91750443Y-123165519D02*
G01*
X91816627Y-123172037D01*
X91986466Y-123223557D01*
X91986468Y-123223558D01*
X92064729Y-123265390D01*
X92142991Y-123307222D01*
X92178729Y-123336552D01*
X92280186Y-123419814D01*
X92363448Y-123521271D01*
X92392778Y-123557009D01*
X92392779Y-123557011D01*
X92447027Y-123658500D01*
X92476443Y-123713534D01*
X92527963Y-123883373D01*
X92545359Y-124060000D01*
X92527963Y-124236627D01*
X92476443Y-124406466D01*
X92392778Y-124562991D01*
X92381739Y-124576442D01*
X92280186Y-124700186D01*
X92178729Y-124783448D01*
X92142991Y-124812778D01*
X91986466Y-124896443D01*
X91816627Y-124947963D01*
X91750443Y-124954481D01*
X91684260Y-124961000D01*
X91595740Y-124961000D01*
X91529557Y-124954481D01*
X91463373Y-124947963D01*
X91293534Y-124896443D01*
X91137009Y-124812778D01*
X91101271Y-124783448D01*
X90999814Y-124700186D01*
X90898261Y-124576442D01*
X90887222Y-124562991D01*
X90803557Y-124406466D01*
X90752037Y-124236627D01*
X90734641Y-124060000D01*
X90752037Y-123883373D01*
X90803557Y-123713534D01*
X90832974Y-123658500D01*
X90887221Y-123557011D01*
X90887222Y-123557009D01*
X90916552Y-123521271D01*
X90999814Y-123419814D01*
X91101271Y-123336552D01*
X91137009Y-123307222D01*
X91215272Y-123265389D01*
X91293532Y-123223558D01*
X91293534Y-123223557D01*
X91463373Y-123172037D01*
X91529557Y-123165519D01*
X91595740Y-123159000D01*
X91684260Y-123159000D01*
X91750443Y-123165519D01*
X91750443Y-123165519D01*
G37*
G36*
X101770443Y-122845519D02*
G01*
X101836627Y-122852037D01*
X102006466Y-122903557D01*
X102162991Y-122987222D01*
X102198729Y-123016552D01*
X102300186Y-123099814D01*
X102383448Y-123201271D01*
X102412778Y-123237009D01*
X102496443Y-123393534D01*
X102547963Y-123563373D01*
X102565359Y-123740000D01*
X102547963Y-123916627D01*
X102496443Y-124086466D01*
X102412778Y-124242991D01*
X102383448Y-124278729D01*
X102300186Y-124380186D01*
X102207237Y-124456466D01*
X102162991Y-124492778D01*
X102162989Y-124492779D01*
X102031637Y-124562989D01*
X102006466Y-124576443D01*
X101836627Y-124627963D01*
X101770443Y-124634481D01*
X101704260Y-124641000D01*
X101615740Y-124641000D01*
X101549557Y-124634481D01*
X101483373Y-124627963D01*
X101313534Y-124576443D01*
X101288364Y-124562989D01*
X101157011Y-124492779D01*
X101157009Y-124492778D01*
X101112763Y-124456466D01*
X101019814Y-124380186D01*
X100936552Y-124278729D01*
X100907222Y-124242991D01*
X100823557Y-124086466D01*
X100772037Y-123916627D01*
X100754641Y-123740000D01*
X100772037Y-123563373D01*
X100823557Y-123393534D01*
X100907222Y-123237009D01*
X100936552Y-123201271D01*
X101019814Y-123099814D01*
X101121271Y-123016552D01*
X101157009Y-122987222D01*
X101313534Y-122903557D01*
X101483373Y-122852037D01*
X101549557Y-122845519D01*
X101615740Y-122839000D01*
X101704260Y-122839000D01*
X101770443Y-122845519D01*
X101770443Y-122845519D01*
G37*
G36*
X104310443Y-122845519D02*
G01*
X104376627Y-122852037D01*
X104546466Y-122903557D01*
X104702991Y-122987222D01*
X104738729Y-123016552D01*
X104840186Y-123099814D01*
X104923448Y-123201271D01*
X104952778Y-123237009D01*
X105036443Y-123393534D01*
X105087963Y-123563373D01*
X105105359Y-123740000D01*
X105087963Y-123916627D01*
X105036443Y-124086466D01*
X104952778Y-124242991D01*
X104923448Y-124278729D01*
X104840186Y-124380186D01*
X104747237Y-124456466D01*
X104702991Y-124492778D01*
X104702989Y-124492779D01*
X104571637Y-124562989D01*
X104546466Y-124576443D01*
X104376627Y-124627963D01*
X104310443Y-124634481D01*
X104244260Y-124641000D01*
X104155740Y-124641000D01*
X104089557Y-124634481D01*
X104023373Y-124627963D01*
X103853534Y-124576443D01*
X103828364Y-124562989D01*
X103697011Y-124492779D01*
X103697009Y-124492778D01*
X103652763Y-124456466D01*
X103559814Y-124380186D01*
X103476552Y-124278729D01*
X103447222Y-124242991D01*
X103363557Y-124086466D01*
X103312037Y-123916627D01*
X103294641Y-123740000D01*
X103312037Y-123563373D01*
X103363557Y-123393534D01*
X103447222Y-123237009D01*
X103476552Y-123201271D01*
X103559814Y-123099814D01*
X103661271Y-123016552D01*
X103697009Y-122987222D01*
X103853534Y-122903557D01*
X104023373Y-122852037D01*
X104089557Y-122845519D01*
X104155740Y-122839000D01*
X104244260Y-122839000D01*
X104310443Y-122845519D01*
X104310443Y-122845519D01*
G37*
G36*
X55750443Y-120675519D02*
G01*
X55816627Y-120682037D01*
X55986466Y-120733557D01*
X56142991Y-120817222D01*
X56178729Y-120846552D01*
X56280186Y-120929814D01*
X56356967Y-121023373D01*
X56392778Y-121067009D01*
X56476443Y-121223534D01*
X56527963Y-121393373D01*
X56545359Y-121570000D01*
X56527963Y-121746627D01*
X56476443Y-121916466D01*
X56392778Y-122072991D01*
X56369791Y-122101000D01*
X56280186Y-122210186D01*
X56203916Y-122272778D01*
X56142991Y-122322778D01*
X55986466Y-122406443D01*
X55816627Y-122457963D01*
X55750443Y-122464481D01*
X55684260Y-122471000D01*
X55595740Y-122471000D01*
X55529557Y-122464481D01*
X55463373Y-122457963D01*
X55293534Y-122406443D01*
X55137009Y-122322778D01*
X55076084Y-122272778D01*
X54999814Y-122210186D01*
X54910209Y-122101000D01*
X54887222Y-122072991D01*
X54803557Y-121916466D01*
X54752037Y-121746627D01*
X54734641Y-121570000D01*
X54752037Y-121393373D01*
X54803557Y-121223534D01*
X54887222Y-121067009D01*
X54923033Y-121023373D01*
X54999814Y-120929814D01*
X55101271Y-120846552D01*
X55137009Y-120817222D01*
X55293534Y-120733557D01*
X55463373Y-120682037D01*
X55529557Y-120675519D01*
X55595740Y-120669000D01*
X55684260Y-120669000D01*
X55750443Y-120675519D01*
X55750443Y-120675519D01*
G37*
G36*
X53210443Y-120675519D02*
G01*
X53276627Y-120682037D01*
X53446466Y-120733557D01*
X53602991Y-120817222D01*
X53638729Y-120846552D01*
X53740186Y-120929814D01*
X53816967Y-121023373D01*
X53852778Y-121067009D01*
X53936443Y-121223534D01*
X53987963Y-121393373D01*
X54005359Y-121570000D01*
X53987963Y-121746627D01*
X53936443Y-121916466D01*
X53852778Y-122072991D01*
X53829791Y-122101000D01*
X53740186Y-122210186D01*
X53663916Y-122272778D01*
X53602991Y-122322778D01*
X53446466Y-122406443D01*
X53276627Y-122457963D01*
X53210443Y-122464481D01*
X53144260Y-122471000D01*
X53055740Y-122471000D01*
X52989557Y-122464481D01*
X52923373Y-122457963D01*
X52753534Y-122406443D01*
X52597009Y-122322778D01*
X52536084Y-122272778D01*
X52459814Y-122210186D01*
X52370209Y-122101000D01*
X52347222Y-122072991D01*
X52263557Y-121916466D01*
X52212037Y-121746627D01*
X52194641Y-121570000D01*
X52212037Y-121393373D01*
X52263557Y-121223534D01*
X52347222Y-121067009D01*
X52383033Y-121023373D01*
X52459814Y-120929814D01*
X52561271Y-120846552D01*
X52597009Y-120817222D01*
X52753534Y-120733557D01*
X52923373Y-120682037D01*
X52989557Y-120675519D01*
X53055740Y-120669000D01*
X53144260Y-120669000D01*
X53210443Y-120675519D01*
X53210443Y-120675519D01*
G37*
G36*
X91750442Y-120625518D02*
G01*
X91816627Y-120632037D01*
X91986466Y-120683557D01*
X91986468Y-120683558D01*
X92064728Y-120725389D01*
X92142991Y-120767222D01*
X92178729Y-120796552D01*
X92280186Y-120879814D01*
X92363448Y-120981271D01*
X92392778Y-121017009D01*
X92392779Y-121017011D01*
X92447027Y-121118500D01*
X92476443Y-121173534D01*
X92527963Y-121343373D01*
X92545359Y-121520000D01*
X92527963Y-121696627D01*
X92476443Y-121866466D01*
X92392778Y-122022991D01*
X92381739Y-122036442D01*
X92280186Y-122160186D01*
X92178729Y-122243448D01*
X92142991Y-122272778D01*
X91986466Y-122356443D01*
X91816627Y-122407963D01*
X91750442Y-122414482D01*
X91684260Y-122421000D01*
X91595740Y-122421000D01*
X91529558Y-122414482D01*
X91463373Y-122407963D01*
X91293534Y-122356443D01*
X91137009Y-122272778D01*
X91101271Y-122243448D01*
X90999814Y-122160186D01*
X90898261Y-122036442D01*
X90887222Y-122022991D01*
X90803557Y-121866466D01*
X90752037Y-121696627D01*
X90734641Y-121520000D01*
X90752037Y-121343373D01*
X90803557Y-121173534D01*
X90832974Y-121118500D01*
X90887221Y-121017011D01*
X90887222Y-121017009D01*
X90916552Y-120981271D01*
X90999814Y-120879814D01*
X91101271Y-120796552D01*
X91137009Y-120767222D01*
X91215272Y-120725389D01*
X91293532Y-120683558D01*
X91293534Y-120683557D01*
X91463373Y-120632037D01*
X91529558Y-120625518D01*
X91595740Y-120619000D01*
X91684260Y-120619000D01*
X91750442Y-120625518D01*
X91750442Y-120625518D01*
G37*
G36*
X89210442Y-120625518D02*
G01*
X89276627Y-120632037D01*
X89446466Y-120683557D01*
X89446468Y-120683558D01*
X89524728Y-120725389D01*
X89602991Y-120767222D01*
X89638729Y-120796552D01*
X89740186Y-120879814D01*
X89823448Y-120981271D01*
X89852778Y-121017009D01*
X89852779Y-121017011D01*
X89907027Y-121118500D01*
X89936443Y-121173534D01*
X89987963Y-121343373D01*
X90005359Y-121520000D01*
X89987963Y-121696627D01*
X89936443Y-121866466D01*
X89852778Y-122022991D01*
X89841739Y-122036442D01*
X89740186Y-122160186D01*
X89638729Y-122243448D01*
X89602991Y-122272778D01*
X89446466Y-122356443D01*
X89276627Y-122407963D01*
X89210442Y-122414482D01*
X89144260Y-122421000D01*
X89055740Y-122421000D01*
X88989558Y-122414482D01*
X88923373Y-122407963D01*
X88753534Y-122356443D01*
X88597009Y-122272778D01*
X88561271Y-122243448D01*
X88459814Y-122160186D01*
X88358261Y-122036442D01*
X88347222Y-122022991D01*
X88263557Y-121866466D01*
X88212037Y-121696627D01*
X88194641Y-121520000D01*
X88212037Y-121343373D01*
X88263557Y-121173534D01*
X88292974Y-121118500D01*
X88347221Y-121017011D01*
X88347222Y-121017009D01*
X88376552Y-120981271D01*
X88459814Y-120879814D01*
X88561271Y-120796552D01*
X88597009Y-120767222D01*
X88675272Y-120725389D01*
X88753532Y-120683558D01*
X88753534Y-120683557D01*
X88923373Y-120632037D01*
X88989558Y-120625518D01*
X89055740Y-120619000D01*
X89144260Y-120619000D01*
X89210442Y-120625518D01*
X89210442Y-120625518D01*
G37*
G36*
X81300442Y-120625518D02*
G01*
X81366627Y-120632037D01*
X81536466Y-120683557D01*
X81536468Y-120683558D01*
X81614728Y-120725389D01*
X81692991Y-120767222D01*
X81728729Y-120796552D01*
X81830186Y-120879814D01*
X81913448Y-120981271D01*
X81942778Y-121017009D01*
X81942779Y-121017011D01*
X81997027Y-121118500D01*
X82026443Y-121173534D01*
X82077963Y-121343373D01*
X82095359Y-121520000D01*
X82077963Y-121696627D01*
X82026443Y-121866466D01*
X81942778Y-122022991D01*
X81931739Y-122036442D01*
X81830186Y-122160186D01*
X81728729Y-122243448D01*
X81692991Y-122272778D01*
X81536466Y-122356443D01*
X81366627Y-122407963D01*
X81300442Y-122414482D01*
X81234260Y-122421000D01*
X81145740Y-122421000D01*
X81079558Y-122414482D01*
X81013373Y-122407963D01*
X80843534Y-122356443D01*
X80687009Y-122272778D01*
X80651271Y-122243448D01*
X80549814Y-122160186D01*
X80448261Y-122036442D01*
X80437222Y-122022991D01*
X80353557Y-121866466D01*
X80302037Y-121696627D01*
X80284641Y-121520000D01*
X80302037Y-121343373D01*
X80353557Y-121173534D01*
X80382974Y-121118500D01*
X80437221Y-121017011D01*
X80437222Y-121017009D01*
X80466552Y-120981271D01*
X80549814Y-120879814D01*
X80651271Y-120796552D01*
X80687009Y-120767222D01*
X80765272Y-120725389D01*
X80843532Y-120683558D01*
X80843534Y-120683557D01*
X81013373Y-120632037D01*
X81079558Y-120625518D01*
X81145740Y-120619000D01*
X81234260Y-120619000D01*
X81300442Y-120625518D01*
X81300442Y-120625518D01*
G37*
G36*
X78760442Y-120625518D02*
G01*
X78826627Y-120632037D01*
X78996466Y-120683557D01*
X78996468Y-120683558D01*
X79074728Y-120725389D01*
X79152991Y-120767222D01*
X79188729Y-120796552D01*
X79290186Y-120879814D01*
X79373448Y-120981271D01*
X79402778Y-121017009D01*
X79402779Y-121017011D01*
X79457027Y-121118500D01*
X79486443Y-121173534D01*
X79537963Y-121343373D01*
X79555359Y-121520000D01*
X79537963Y-121696627D01*
X79486443Y-121866466D01*
X79402778Y-122022991D01*
X79391739Y-122036442D01*
X79290186Y-122160186D01*
X79188729Y-122243448D01*
X79152991Y-122272778D01*
X78996466Y-122356443D01*
X78826627Y-122407963D01*
X78760442Y-122414482D01*
X78694260Y-122421000D01*
X78605740Y-122421000D01*
X78539558Y-122414482D01*
X78473373Y-122407963D01*
X78303534Y-122356443D01*
X78147009Y-122272778D01*
X78111271Y-122243448D01*
X78009814Y-122160186D01*
X77908261Y-122036442D01*
X77897222Y-122022991D01*
X77813557Y-121866466D01*
X77762037Y-121696627D01*
X77744641Y-121520000D01*
X77762037Y-121343373D01*
X77813557Y-121173534D01*
X77842974Y-121118500D01*
X77897221Y-121017011D01*
X77897222Y-121017009D01*
X77926552Y-120981271D01*
X78009814Y-120879814D01*
X78111271Y-120796552D01*
X78147009Y-120767222D01*
X78225272Y-120725389D01*
X78303532Y-120683558D01*
X78303534Y-120683557D01*
X78473373Y-120632037D01*
X78539558Y-120625518D01*
X78605740Y-120619000D01*
X78694260Y-120619000D01*
X78760442Y-120625518D01*
X78760442Y-120625518D01*
G37*
G36*
X101770443Y-120305519D02*
G01*
X101836627Y-120312037D01*
X102006466Y-120363557D01*
X102162991Y-120447222D01*
X102198729Y-120476552D01*
X102300186Y-120559814D01*
X102383448Y-120661271D01*
X102412778Y-120697009D01*
X102496443Y-120853534D01*
X102547963Y-121023373D01*
X102565359Y-121200000D01*
X102547963Y-121376627D01*
X102496443Y-121546466D01*
X102412778Y-121702991D01*
X102383448Y-121738729D01*
X102300186Y-121840186D01*
X102207237Y-121916466D01*
X102162991Y-121952778D01*
X102162989Y-121952779D01*
X102031637Y-122022989D01*
X102006466Y-122036443D01*
X101836627Y-122087963D01*
X101770443Y-122094481D01*
X101704260Y-122101000D01*
X101615740Y-122101000D01*
X101549557Y-122094481D01*
X101483373Y-122087963D01*
X101313534Y-122036443D01*
X101288364Y-122022989D01*
X101157011Y-121952779D01*
X101157009Y-121952778D01*
X101112763Y-121916466D01*
X101019814Y-121840186D01*
X100936552Y-121738729D01*
X100907222Y-121702991D01*
X100823557Y-121546466D01*
X100772037Y-121376627D01*
X100754641Y-121200000D01*
X100772037Y-121023373D01*
X100823557Y-120853534D01*
X100907222Y-120697009D01*
X100936552Y-120661271D01*
X101019814Y-120559814D01*
X101121271Y-120476552D01*
X101157009Y-120447222D01*
X101313534Y-120363557D01*
X101483373Y-120312037D01*
X101549557Y-120305519D01*
X101615740Y-120299000D01*
X101704260Y-120299000D01*
X101770443Y-120305519D01*
X101770443Y-120305519D01*
G37*
G36*
X104310443Y-120305519D02*
G01*
X104376627Y-120312037D01*
X104546466Y-120363557D01*
X104702991Y-120447222D01*
X104738729Y-120476552D01*
X104840186Y-120559814D01*
X104923448Y-120661271D01*
X104952778Y-120697009D01*
X105036443Y-120853534D01*
X105087963Y-121023373D01*
X105105359Y-121200000D01*
X105087963Y-121376627D01*
X105036443Y-121546466D01*
X104952778Y-121702991D01*
X104923448Y-121738729D01*
X104840186Y-121840186D01*
X104747237Y-121916466D01*
X104702991Y-121952778D01*
X104702989Y-121952779D01*
X104571637Y-122022989D01*
X104546466Y-122036443D01*
X104376627Y-122087963D01*
X104310443Y-122094481D01*
X104244260Y-122101000D01*
X104155740Y-122101000D01*
X104089557Y-122094481D01*
X104023373Y-122087963D01*
X103853534Y-122036443D01*
X103828364Y-122022989D01*
X103697011Y-121952779D01*
X103697009Y-121952778D01*
X103652763Y-121916466D01*
X103559814Y-121840186D01*
X103476552Y-121738729D01*
X103447222Y-121702991D01*
X103363557Y-121546466D01*
X103312037Y-121376627D01*
X103294641Y-121200000D01*
X103312037Y-121023373D01*
X103363557Y-120853534D01*
X103447222Y-120697009D01*
X103476552Y-120661271D01*
X103559814Y-120559814D01*
X103661271Y-120476552D01*
X103697009Y-120447222D01*
X103853534Y-120363557D01*
X104023373Y-120312037D01*
X104089557Y-120305519D01*
X104155740Y-120299000D01*
X104244260Y-120299000D01*
X104310443Y-120305519D01*
X104310443Y-120305519D01*
G37*
G36*
X55750443Y-118135519D02*
G01*
X55816627Y-118142037D01*
X55986466Y-118193557D01*
X56142991Y-118277222D01*
X56178729Y-118306552D01*
X56280186Y-118389814D01*
X56356967Y-118483373D01*
X56392778Y-118527009D01*
X56476443Y-118683534D01*
X56527963Y-118853373D01*
X56545359Y-119030000D01*
X56527963Y-119206627D01*
X56476443Y-119376466D01*
X56392778Y-119532991D01*
X56369791Y-119561000D01*
X56280186Y-119670186D01*
X56203916Y-119732778D01*
X56142991Y-119782778D01*
X55986466Y-119866443D01*
X55816627Y-119917963D01*
X55750442Y-119924482D01*
X55684260Y-119931000D01*
X55595740Y-119931000D01*
X55529558Y-119924482D01*
X55463373Y-119917963D01*
X55293534Y-119866443D01*
X55137009Y-119782778D01*
X55076084Y-119732778D01*
X54999814Y-119670186D01*
X54910209Y-119561000D01*
X54887222Y-119532991D01*
X54803557Y-119376466D01*
X54752037Y-119206627D01*
X54734641Y-119030000D01*
X54752037Y-118853373D01*
X54803557Y-118683534D01*
X54887222Y-118527009D01*
X54923033Y-118483373D01*
X54999814Y-118389814D01*
X55101271Y-118306552D01*
X55137009Y-118277222D01*
X55293534Y-118193557D01*
X55463373Y-118142037D01*
X55529557Y-118135519D01*
X55595740Y-118129000D01*
X55684260Y-118129000D01*
X55750443Y-118135519D01*
X55750443Y-118135519D01*
G37*
G36*
X53210443Y-118135519D02*
G01*
X53276627Y-118142037D01*
X53446466Y-118193557D01*
X53602991Y-118277222D01*
X53638729Y-118306552D01*
X53740186Y-118389814D01*
X53816967Y-118483373D01*
X53852778Y-118527009D01*
X53936443Y-118683534D01*
X53987963Y-118853373D01*
X54005359Y-119030000D01*
X53987963Y-119206627D01*
X53936443Y-119376466D01*
X53852778Y-119532991D01*
X53829791Y-119561000D01*
X53740186Y-119670186D01*
X53663916Y-119732778D01*
X53602991Y-119782778D01*
X53446466Y-119866443D01*
X53276627Y-119917963D01*
X53210442Y-119924482D01*
X53144260Y-119931000D01*
X53055740Y-119931000D01*
X52989558Y-119924482D01*
X52923373Y-119917963D01*
X52753534Y-119866443D01*
X52597009Y-119782778D01*
X52536084Y-119732778D01*
X52459814Y-119670186D01*
X52370209Y-119561000D01*
X52347222Y-119532991D01*
X52263557Y-119376466D01*
X52212037Y-119206627D01*
X52194641Y-119030000D01*
X52212037Y-118853373D01*
X52263557Y-118683534D01*
X52347222Y-118527009D01*
X52383033Y-118483373D01*
X52459814Y-118389814D01*
X52561271Y-118306552D01*
X52597009Y-118277222D01*
X52753534Y-118193557D01*
X52923373Y-118142037D01*
X52989557Y-118135519D01*
X53055740Y-118129000D01*
X53144260Y-118129000D01*
X53210443Y-118135519D01*
X53210443Y-118135519D01*
G37*
G36*
X81300442Y-118085518D02*
G01*
X81366627Y-118092037D01*
X81536466Y-118143557D01*
X81536468Y-118143558D01*
X81614729Y-118185390D01*
X81692991Y-118227222D01*
X81728729Y-118256552D01*
X81830186Y-118339814D01*
X81913448Y-118441271D01*
X81942778Y-118477009D01*
X81942779Y-118477011D01*
X81997027Y-118578500D01*
X82026443Y-118633534D01*
X82077963Y-118803373D01*
X82095359Y-118980000D01*
X82077963Y-119156627D01*
X82026443Y-119326466D01*
X81942778Y-119482991D01*
X81931739Y-119496442D01*
X81830186Y-119620186D01*
X81728729Y-119703448D01*
X81692991Y-119732778D01*
X81536466Y-119816443D01*
X81366627Y-119867963D01*
X81300442Y-119874482D01*
X81234260Y-119881000D01*
X81145740Y-119881000D01*
X81079558Y-119874482D01*
X81013373Y-119867963D01*
X80843534Y-119816443D01*
X80687009Y-119732778D01*
X80651271Y-119703448D01*
X80549814Y-119620186D01*
X80448261Y-119496442D01*
X80437222Y-119482991D01*
X80353557Y-119326466D01*
X80302037Y-119156627D01*
X80284641Y-118980000D01*
X80302037Y-118803373D01*
X80353557Y-118633534D01*
X80382974Y-118578500D01*
X80437221Y-118477011D01*
X80437222Y-118477009D01*
X80466552Y-118441271D01*
X80549814Y-118339814D01*
X80651271Y-118256552D01*
X80687009Y-118227222D01*
X80765272Y-118185389D01*
X80843532Y-118143558D01*
X80843534Y-118143557D01*
X81013373Y-118092037D01*
X81079558Y-118085518D01*
X81145740Y-118079000D01*
X81234260Y-118079000D01*
X81300442Y-118085518D01*
X81300442Y-118085518D01*
G37*
G36*
X89210442Y-118085518D02*
G01*
X89276627Y-118092037D01*
X89446466Y-118143557D01*
X89446468Y-118143558D01*
X89524729Y-118185390D01*
X89602991Y-118227222D01*
X89638729Y-118256552D01*
X89740186Y-118339814D01*
X89823448Y-118441271D01*
X89852778Y-118477009D01*
X89852779Y-118477011D01*
X89907027Y-118578500D01*
X89936443Y-118633534D01*
X89987963Y-118803373D01*
X90005359Y-118980000D01*
X89987963Y-119156627D01*
X89936443Y-119326466D01*
X89852778Y-119482991D01*
X89841739Y-119496442D01*
X89740186Y-119620186D01*
X89638729Y-119703448D01*
X89602991Y-119732778D01*
X89446466Y-119816443D01*
X89276627Y-119867963D01*
X89210442Y-119874482D01*
X89144260Y-119881000D01*
X89055740Y-119881000D01*
X88989558Y-119874482D01*
X88923373Y-119867963D01*
X88753534Y-119816443D01*
X88597009Y-119732778D01*
X88561271Y-119703448D01*
X88459814Y-119620186D01*
X88358261Y-119496442D01*
X88347222Y-119482991D01*
X88263557Y-119326466D01*
X88212037Y-119156627D01*
X88194641Y-118980000D01*
X88212037Y-118803373D01*
X88263557Y-118633534D01*
X88292974Y-118578500D01*
X88347221Y-118477011D01*
X88347222Y-118477009D01*
X88376552Y-118441271D01*
X88459814Y-118339814D01*
X88561271Y-118256552D01*
X88597009Y-118227222D01*
X88675272Y-118185389D01*
X88753532Y-118143558D01*
X88753534Y-118143557D01*
X88923373Y-118092037D01*
X88989558Y-118085518D01*
X89055740Y-118079000D01*
X89144260Y-118079000D01*
X89210442Y-118085518D01*
X89210442Y-118085518D01*
G37*
G36*
X91750442Y-118085518D02*
G01*
X91816627Y-118092037D01*
X91986466Y-118143557D01*
X91986468Y-118143558D01*
X92064729Y-118185390D01*
X92142991Y-118227222D01*
X92178729Y-118256552D01*
X92280186Y-118339814D01*
X92363448Y-118441271D01*
X92392778Y-118477009D01*
X92392779Y-118477011D01*
X92447027Y-118578500D01*
X92476443Y-118633534D01*
X92527963Y-118803373D01*
X92545359Y-118980000D01*
X92527963Y-119156627D01*
X92476443Y-119326466D01*
X92392778Y-119482991D01*
X92381739Y-119496442D01*
X92280186Y-119620186D01*
X92178729Y-119703448D01*
X92142991Y-119732778D01*
X91986466Y-119816443D01*
X91816627Y-119867963D01*
X91750442Y-119874482D01*
X91684260Y-119881000D01*
X91595740Y-119881000D01*
X91529558Y-119874482D01*
X91463373Y-119867963D01*
X91293534Y-119816443D01*
X91137009Y-119732778D01*
X91101271Y-119703448D01*
X90999814Y-119620186D01*
X90898261Y-119496442D01*
X90887222Y-119482991D01*
X90803557Y-119326466D01*
X90752037Y-119156627D01*
X90734641Y-118980000D01*
X90752037Y-118803373D01*
X90803557Y-118633534D01*
X90832974Y-118578500D01*
X90887221Y-118477011D01*
X90887222Y-118477009D01*
X90916552Y-118441271D01*
X90999814Y-118339814D01*
X91101271Y-118256552D01*
X91137009Y-118227222D01*
X91215272Y-118185389D01*
X91293532Y-118143558D01*
X91293534Y-118143557D01*
X91463373Y-118092037D01*
X91529558Y-118085518D01*
X91595740Y-118079000D01*
X91684260Y-118079000D01*
X91750442Y-118085518D01*
X91750442Y-118085518D01*
G37*
G36*
X78760442Y-118085518D02*
G01*
X78826627Y-118092037D01*
X78996466Y-118143557D01*
X78996468Y-118143558D01*
X79074729Y-118185390D01*
X79152991Y-118227222D01*
X79188729Y-118256552D01*
X79290186Y-118339814D01*
X79373448Y-118441271D01*
X79402778Y-118477009D01*
X79402779Y-118477011D01*
X79457027Y-118578500D01*
X79486443Y-118633534D01*
X79537963Y-118803373D01*
X79555359Y-118980000D01*
X79537963Y-119156627D01*
X79486443Y-119326466D01*
X79402778Y-119482991D01*
X79391739Y-119496442D01*
X79290186Y-119620186D01*
X79188729Y-119703448D01*
X79152991Y-119732778D01*
X78996466Y-119816443D01*
X78826627Y-119867963D01*
X78760442Y-119874482D01*
X78694260Y-119881000D01*
X78605740Y-119881000D01*
X78539558Y-119874482D01*
X78473373Y-119867963D01*
X78303534Y-119816443D01*
X78147009Y-119732778D01*
X78111271Y-119703448D01*
X78009814Y-119620186D01*
X77908261Y-119496442D01*
X77897222Y-119482991D01*
X77813557Y-119326466D01*
X77762037Y-119156627D01*
X77744641Y-118980000D01*
X77762037Y-118803373D01*
X77813557Y-118633534D01*
X77842974Y-118578500D01*
X77897221Y-118477011D01*
X77897222Y-118477009D01*
X77926552Y-118441271D01*
X78009814Y-118339814D01*
X78111271Y-118256552D01*
X78147009Y-118227222D01*
X78225272Y-118185389D01*
X78303532Y-118143558D01*
X78303534Y-118143557D01*
X78473373Y-118092037D01*
X78539558Y-118085518D01*
X78605740Y-118079000D01*
X78694260Y-118079000D01*
X78760442Y-118085518D01*
X78760442Y-118085518D01*
G37*
G36*
X101770442Y-117765518D02*
G01*
X101836627Y-117772037D01*
X102006466Y-117823557D01*
X102162991Y-117907222D01*
X102198729Y-117936552D01*
X102300186Y-118019814D01*
X102383448Y-118121271D01*
X102412778Y-118157009D01*
X102496443Y-118313534D01*
X102547963Y-118483373D01*
X102565359Y-118660000D01*
X102547963Y-118836627D01*
X102496443Y-119006466D01*
X102412778Y-119162991D01*
X102383448Y-119198729D01*
X102300186Y-119300186D01*
X102207237Y-119376466D01*
X102162991Y-119412778D01*
X102162989Y-119412779D01*
X102031637Y-119482989D01*
X102006466Y-119496443D01*
X101836627Y-119547963D01*
X101770443Y-119554481D01*
X101704260Y-119561000D01*
X101615740Y-119561000D01*
X101549557Y-119554481D01*
X101483373Y-119547963D01*
X101313534Y-119496443D01*
X101288364Y-119482989D01*
X101157011Y-119412779D01*
X101157009Y-119412778D01*
X101112763Y-119376466D01*
X101019814Y-119300186D01*
X100936552Y-119198729D01*
X100907222Y-119162991D01*
X100823557Y-119006466D01*
X100772037Y-118836627D01*
X100754641Y-118660000D01*
X100772037Y-118483373D01*
X100823557Y-118313534D01*
X100907222Y-118157009D01*
X100936552Y-118121271D01*
X101019814Y-118019814D01*
X101121271Y-117936552D01*
X101157009Y-117907222D01*
X101313534Y-117823557D01*
X101483373Y-117772037D01*
X101549558Y-117765518D01*
X101615740Y-117759000D01*
X101704260Y-117759000D01*
X101770442Y-117765518D01*
X101770442Y-117765518D01*
G37*
G36*
X104310442Y-117765518D02*
G01*
X104376627Y-117772037D01*
X104546466Y-117823557D01*
X104702991Y-117907222D01*
X104738729Y-117936552D01*
X104840186Y-118019814D01*
X104923448Y-118121271D01*
X104952778Y-118157009D01*
X105036443Y-118313534D01*
X105087963Y-118483373D01*
X105105359Y-118660000D01*
X105087963Y-118836627D01*
X105036443Y-119006466D01*
X104952778Y-119162991D01*
X104923448Y-119198729D01*
X104840186Y-119300186D01*
X104747237Y-119376466D01*
X104702991Y-119412778D01*
X104702989Y-119412779D01*
X104571637Y-119482989D01*
X104546466Y-119496443D01*
X104376627Y-119547963D01*
X104310443Y-119554481D01*
X104244260Y-119561000D01*
X104155740Y-119561000D01*
X104089557Y-119554481D01*
X104023373Y-119547963D01*
X103853534Y-119496443D01*
X103828364Y-119482989D01*
X103697011Y-119412779D01*
X103697009Y-119412778D01*
X103652763Y-119376466D01*
X103559814Y-119300186D01*
X103476552Y-119198729D01*
X103447222Y-119162991D01*
X103363557Y-119006466D01*
X103312037Y-118836627D01*
X103294641Y-118660000D01*
X103312037Y-118483373D01*
X103363557Y-118313534D01*
X103447222Y-118157009D01*
X103476552Y-118121271D01*
X103559814Y-118019814D01*
X103661271Y-117936552D01*
X103697009Y-117907222D01*
X103853534Y-117823557D01*
X104023373Y-117772037D01*
X104089558Y-117765518D01*
X104155740Y-117759000D01*
X104244260Y-117759000D01*
X104310442Y-117765518D01*
X104310442Y-117765518D01*
G37*
G36*
X54001000Y-117391000D02*
G01*
X52199000Y-117391000D01*
X52199000Y-115589000D01*
X54001000Y-115589000D01*
X54001000Y-117391000D01*
X54001000Y-117391000D01*
G37*
G36*
X55750443Y-115595519D02*
G01*
X55816627Y-115602037D01*
X55986466Y-115653557D01*
X56142991Y-115737222D01*
X56178729Y-115766552D01*
X56280186Y-115849814D01*
X56356967Y-115943373D01*
X56392778Y-115987009D01*
X56476443Y-116143534D01*
X56527963Y-116313373D01*
X56545359Y-116490000D01*
X56527963Y-116666627D01*
X56476443Y-116836466D01*
X56392778Y-116992991D01*
X56369791Y-117021000D01*
X56280186Y-117130186D01*
X56203916Y-117192778D01*
X56142991Y-117242778D01*
X55986466Y-117326443D01*
X55816627Y-117377963D01*
X55750443Y-117384481D01*
X55684260Y-117391000D01*
X55595740Y-117391000D01*
X55529557Y-117384481D01*
X55463373Y-117377963D01*
X55293534Y-117326443D01*
X55137009Y-117242778D01*
X55076084Y-117192778D01*
X54999814Y-117130186D01*
X54910209Y-117021000D01*
X54887222Y-116992991D01*
X54803557Y-116836466D01*
X54752037Y-116666627D01*
X54734641Y-116490000D01*
X54752037Y-116313373D01*
X54803557Y-116143534D01*
X54887222Y-115987009D01*
X54923033Y-115943373D01*
X54999814Y-115849814D01*
X55101271Y-115766552D01*
X55137009Y-115737222D01*
X55293534Y-115653557D01*
X55463373Y-115602037D01*
X55529557Y-115595519D01*
X55595740Y-115589000D01*
X55684260Y-115589000D01*
X55750443Y-115595519D01*
X55750443Y-115595519D01*
G37*
G36*
X89210443Y-115545519D02*
G01*
X89276627Y-115552037D01*
X89446466Y-115603557D01*
X89446468Y-115603558D01*
X89524729Y-115645390D01*
X89602991Y-115687222D01*
X89638729Y-115716552D01*
X89740186Y-115799814D01*
X89823448Y-115901271D01*
X89852778Y-115937009D01*
X89936443Y-116093534D01*
X89987963Y-116263373D01*
X90005359Y-116440000D01*
X89987963Y-116616627D01*
X89936443Y-116786466D01*
X89852778Y-116942991D01*
X89841739Y-116956442D01*
X89740186Y-117080186D01*
X89638729Y-117163448D01*
X89602991Y-117192778D01*
X89446466Y-117276443D01*
X89276627Y-117327963D01*
X89210442Y-117334482D01*
X89144260Y-117341000D01*
X89055740Y-117341000D01*
X88989558Y-117334482D01*
X88923373Y-117327963D01*
X88753534Y-117276443D01*
X88597009Y-117192778D01*
X88561271Y-117163448D01*
X88459814Y-117080186D01*
X88358261Y-116956442D01*
X88347222Y-116942991D01*
X88263557Y-116786466D01*
X88212037Y-116616627D01*
X88194641Y-116440000D01*
X88212037Y-116263373D01*
X88263557Y-116093534D01*
X88347222Y-115937009D01*
X88376552Y-115901271D01*
X88459814Y-115799814D01*
X88561271Y-115716552D01*
X88597009Y-115687222D01*
X88675272Y-115645389D01*
X88753532Y-115603558D01*
X88753534Y-115603557D01*
X88923373Y-115552037D01*
X88989557Y-115545519D01*
X89055740Y-115539000D01*
X89144260Y-115539000D01*
X89210443Y-115545519D01*
X89210443Y-115545519D01*
G37*
G36*
X81300443Y-115545519D02*
G01*
X81366627Y-115552037D01*
X81536466Y-115603557D01*
X81536468Y-115603558D01*
X81614729Y-115645390D01*
X81692991Y-115687222D01*
X81728729Y-115716552D01*
X81830186Y-115799814D01*
X81913448Y-115901271D01*
X81942778Y-115937009D01*
X82026443Y-116093534D01*
X82077963Y-116263373D01*
X82095359Y-116440000D01*
X82077963Y-116616627D01*
X82026443Y-116786466D01*
X81942778Y-116942991D01*
X81931739Y-116956442D01*
X81830186Y-117080186D01*
X81728729Y-117163448D01*
X81692991Y-117192778D01*
X81536466Y-117276443D01*
X81366627Y-117327963D01*
X81300442Y-117334482D01*
X81234260Y-117341000D01*
X81145740Y-117341000D01*
X81079558Y-117334482D01*
X81013373Y-117327963D01*
X80843534Y-117276443D01*
X80687009Y-117192778D01*
X80651271Y-117163448D01*
X80549814Y-117080186D01*
X80448261Y-116956442D01*
X80437222Y-116942991D01*
X80353557Y-116786466D01*
X80302037Y-116616627D01*
X80284641Y-116440000D01*
X80302037Y-116263373D01*
X80353557Y-116093534D01*
X80437222Y-115937009D01*
X80466552Y-115901271D01*
X80549814Y-115799814D01*
X80651271Y-115716552D01*
X80687009Y-115687222D01*
X80765272Y-115645389D01*
X80843532Y-115603558D01*
X80843534Y-115603557D01*
X81013373Y-115552037D01*
X81079557Y-115545519D01*
X81145740Y-115539000D01*
X81234260Y-115539000D01*
X81300443Y-115545519D01*
X81300443Y-115545519D01*
G37*
G36*
X91750443Y-115545519D02*
G01*
X91816627Y-115552037D01*
X91986466Y-115603557D01*
X91986468Y-115603558D01*
X92064729Y-115645390D01*
X92142991Y-115687222D01*
X92178729Y-115716552D01*
X92280186Y-115799814D01*
X92363448Y-115901271D01*
X92392778Y-115937009D01*
X92476443Y-116093534D01*
X92527963Y-116263373D01*
X92545359Y-116440000D01*
X92527963Y-116616627D01*
X92476443Y-116786466D01*
X92392778Y-116942991D01*
X92381739Y-116956442D01*
X92280186Y-117080186D01*
X92178729Y-117163448D01*
X92142991Y-117192778D01*
X91986466Y-117276443D01*
X91816627Y-117327963D01*
X91750442Y-117334482D01*
X91684260Y-117341000D01*
X91595740Y-117341000D01*
X91529558Y-117334482D01*
X91463373Y-117327963D01*
X91293534Y-117276443D01*
X91137009Y-117192778D01*
X91101271Y-117163448D01*
X90999814Y-117080186D01*
X90898261Y-116956442D01*
X90887222Y-116942991D01*
X90803557Y-116786466D01*
X90752037Y-116616627D01*
X90734641Y-116440000D01*
X90752037Y-116263373D01*
X90803557Y-116093534D01*
X90887222Y-115937009D01*
X90916552Y-115901271D01*
X90999814Y-115799814D01*
X91101271Y-115716552D01*
X91137009Y-115687222D01*
X91215272Y-115645389D01*
X91293532Y-115603558D01*
X91293534Y-115603557D01*
X91463373Y-115552037D01*
X91529557Y-115545519D01*
X91595740Y-115539000D01*
X91684260Y-115539000D01*
X91750443Y-115545519D01*
X91750443Y-115545519D01*
G37*
G36*
X78760443Y-115545519D02*
G01*
X78826627Y-115552037D01*
X78996466Y-115603557D01*
X78996468Y-115603558D01*
X79074729Y-115645390D01*
X79152991Y-115687222D01*
X79188729Y-115716552D01*
X79290186Y-115799814D01*
X79373448Y-115901271D01*
X79402778Y-115937009D01*
X79486443Y-116093534D01*
X79537963Y-116263373D01*
X79555359Y-116440000D01*
X79537963Y-116616627D01*
X79486443Y-116786466D01*
X79402778Y-116942991D01*
X79391739Y-116956442D01*
X79290186Y-117080186D01*
X79188729Y-117163448D01*
X79152991Y-117192778D01*
X78996466Y-117276443D01*
X78826627Y-117327963D01*
X78760442Y-117334482D01*
X78694260Y-117341000D01*
X78605740Y-117341000D01*
X78539558Y-117334482D01*
X78473373Y-117327963D01*
X78303534Y-117276443D01*
X78147009Y-117192778D01*
X78111271Y-117163448D01*
X78009814Y-117080186D01*
X77908261Y-116956442D01*
X77897222Y-116942991D01*
X77813557Y-116786466D01*
X77762037Y-116616627D01*
X77744641Y-116440000D01*
X77762037Y-116263373D01*
X77813557Y-116093534D01*
X77897222Y-115937009D01*
X77926552Y-115901271D01*
X78009814Y-115799814D01*
X78111271Y-115716552D01*
X78147009Y-115687222D01*
X78225272Y-115645389D01*
X78303532Y-115603558D01*
X78303534Y-115603557D01*
X78473373Y-115552037D01*
X78539557Y-115545519D01*
X78605740Y-115539000D01*
X78694260Y-115539000D01*
X78760443Y-115545519D01*
X78760443Y-115545519D01*
G37*
G36*
X101770442Y-115225518D02*
G01*
X101836627Y-115232037D01*
X102006466Y-115283557D01*
X102162991Y-115367222D01*
X102198729Y-115396552D01*
X102300186Y-115479814D01*
X102383448Y-115581271D01*
X102412778Y-115617009D01*
X102496443Y-115773534D01*
X102547963Y-115943373D01*
X102565359Y-116120000D01*
X102547963Y-116296627D01*
X102496443Y-116466466D01*
X102412778Y-116622991D01*
X102383448Y-116658729D01*
X102300186Y-116760186D01*
X102207237Y-116836466D01*
X102162991Y-116872778D01*
X102162989Y-116872779D01*
X102031637Y-116942989D01*
X102006466Y-116956443D01*
X101836627Y-117007963D01*
X101770442Y-117014482D01*
X101704260Y-117021000D01*
X101615740Y-117021000D01*
X101549558Y-117014482D01*
X101483373Y-117007963D01*
X101313534Y-116956443D01*
X101288364Y-116942989D01*
X101157011Y-116872779D01*
X101157009Y-116872778D01*
X101112763Y-116836466D01*
X101019814Y-116760186D01*
X100936552Y-116658729D01*
X100907222Y-116622991D01*
X100823557Y-116466466D01*
X100772037Y-116296627D01*
X100754641Y-116120000D01*
X100772037Y-115943373D01*
X100823557Y-115773534D01*
X100907222Y-115617009D01*
X100936552Y-115581271D01*
X101019814Y-115479814D01*
X101121271Y-115396552D01*
X101157009Y-115367222D01*
X101313534Y-115283557D01*
X101483373Y-115232037D01*
X101549558Y-115225518D01*
X101615740Y-115219000D01*
X101704260Y-115219000D01*
X101770442Y-115225518D01*
X101770442Y-115225518D01*
G37*
G36*
X104310442Y-115225518D02*
G01*
X104376627Y-115232037D01*
X104546466Y-115283557D01*
X104702991Y-115367222D01*
X104738729Y-115396552D01*
X104840186Y-115479814D01*
X104923448Y-115581271D01*
X104952778Y-115617009D01*
X105036443Y-115773534D01*
X105087963Y-115943373D01*
X105105359Y-116120000D01*
X105087963Y-116296627D01*
X105036443Y-116466466D01*
X104952778Y-116622991D01*
X104923448Y-116658729D01*
X104840186Y-116760186D01*
X104747237Y-116836466D01*
X104702991Y-116872778D01*
X104702989Y-116872779D01*
X104571637Y-116942989D01*
X104546466Y-116956443D01*
X104376627Y-117007963D01*
X104310442Y-117014482D01*
X104244260Y-117021000D01*
X104155740Y-117021000D01*
X104089558Y-117014482D01*
X104023373Y-117007963D01*
X103853534Y-116956443D01*
X103828364Y-116942989D01*
X103697011Y-116872779D01*
X103697009Y-116872778D01*
X103652763Y-116836466D01*
X103559814Y-116760186D01*
X103476552Y-116658729D01*
X103447222Y-116622991D01*
X103363557Y-116466466D01*
X103312037Y-116296627D01*
X103294641Y-116120000D01*
X103312037Y-115943373D01*
X103363557Y-115773534D01*
X103447222Y-115617009D01*
X103476552Y-115581271D01*
X103559814Y-115479814D01*
X103661271Y-115396552D01*
X103697009Y-115367222D01*
X103853534Y-115283557D01*
X104023373Y-115232037D01*
X104089558Y-115225518D01*
X104155740Y-115219000D01*
X104244260Y-115219000D01*
X104310442Y-115225518D01*
X104310442Y-115225518D01*
G37*
G36*
X81300443Y-113005519D02*
G01*
X81366627Y-113012037D01*
X81536466Y-113063557D01*
X81536468Y-113063558D01*
X81614729Y-113105390D01*
X81692991Y-113147222D01*
X81713698Y-113164216D01*
X81830186Y-113259814D01*
X81913448Y-113361271D01*
X81942778Y-113397009D01*
X82026443Y-113553534D01*
X82077963Y-113723373D01*
X82095359Y-113900000D01*
X82077963Y-114076627D01*
X82026443Y-114246466D01*
X81942778Y-114402991D01*
X81931739Y-114416442D01*
X81830186Y-114540186D01*
X81728729Y-114623448D01*
X81692991Y-114652778D01*
X81536466Y-114736443D01*
X81366627Y-114787963D01*
X81300442Y-114794482D01*
X81234260Y-114801000D01*
X81145740Y-114801000D01*
X81079558Y-114794482D01*
X81013373Y-114787963D01*
X80843534Y-114736443D01*
X80687009Y-114652778D01*
X80651271Y-114623448D01*
X80549814Y-114540186D01*
X80448261Y-114416442D01*
X80437222Y-114402991D01*
X80353557Y-114246466D01*
X80302037Y-114076627D01*
X80284641Y-113900000D01*
X80302037Y-113723373D01*
X80353557Y-113553534D01*
X80437222Y-113397009D01*
X80466552Y-113361271D01*
X80549814Y-113259814D01*
X80666302Y-113164216D01*
X80687009Y-113147222D01*
X80765271Y-113105390D01*
X80843532Y-113063558D01*
X80843534Y-113063557D01*
X81013373Y-113012037D01*
X81079557Y-113005519D01*
X81145740Y-112999000D01*
X81234260Y-112999000D01*
X81300443Y-113005519D01*
X81300443Y-113005519D01*
G37*
G36*
X91750443Y-113005519D02*
G01*
X91816627Y-113012037D01*
X91986466Y-113063557D01*
X91986468Y-113063558D01*
X92064729Y-113105390D01*
X92142991Y-113147222D01*
X92163698Y-113164216D01*
X92280186Y-113259814D01*
X92363448Y-113361271D01*
X92392778Y-113397009D01*
X92476443Y-113553534D01*
X92527963Y-113723373D01*
X92545359Y-113900000D01*
X92527963Y-114076627D01*
X92476443Y-114246466D01*
X92392778Y-114402991D01*
X92381739Y-114416442D01*
X92280186Y-114540186D01*
X92178729Y-114623448D01*
X92142991Y-114652778D01*
X91986466Y-114736443D01*
X91816627Y-114787963D01*
X91750442Y-114794482D01*
X91684260Y-114801000D01*
X91595740Y-114801000D01*
X91529558Y-114794482D01*
X91463373Y-114787963D01*
X91293534Y-114736443D01*
X91137009Y-114652778D01*
X91101271Y-114623448D01*
X90999814Y-114540186D01*
X90898261Y-114416442D01*
X90887222Y-114402991D01*
X90803557Y-114246466D01*
X90752037Y-114076627D01*
X90734641Y-113900000D01*
X90752037Y-113723373D01*
X90803557Y-113553534D01*
X90887222Y-113397009D01*
X90916552Y-113361271D01*
X90999814Y-113259814D01*
X91116302Y-113164216D01*
X91137009Y-113147222D01*
X91215271Y-113105390D01*
X91293532Y-113063558D01*
X91293534Y-113063557D01*
X91463373Y-113012037D01*
X91529557Y-113005519D01*
X91595740Y-112999000D01*
X91684260Y-112999000D01*
X91750443Y-113005519D01*
X91750443Y-113005519D01*
G37*
G36*
X79551000Y-114801000D02*
G01*
X77749000Y-114801000D01*
X77749000Y-112999000D01*
X79551000Y-112999000D01*
X79551000Y-114801000D01*
X79551000Y-114801000D01*
G37*
G36*
X90001000Y-114801000D02*
G01*
X88199000Y-114801000D01*
X88199000Y-112999000D01*
X90001000Y-112999000D01*
X90001000Y-114801000D01*
X90001000Y-114801000D01*
G37*
G36*
X104310443Y-112685519D02*
G01*
X104376627Y-112692037D01*
X104546466Y-112743557D01*
X104702991Y-112827222D01*
X104734232Y-112852861D01*
X104840186Y-112939814D01*
X104923448Y-113041271D01*
X104952778Y-113077009D01*
X105036443Y-113233534D01*
X105087963Y-113403373D01*
X105105359Y-113580000D01*
X105087963Y-113756627D01*
X105036443Y-113926466D01*
X104952778Y-114082991D01*
X104923448Y-114118729D01*
X104840186Y-114220186D01*
X104738729Y-114303448D01*
X104702991Y-114332778D01*
X104702989Y-114332779D01*
X104571637Y-114402989D01*
X104546466Y-114416443D01*
X104376627Y-114467963D01*
X104310443Y-114474481D01*
X104244260Y-114481000D01*
X104155740Y-114481000D01*
X104089557Y-114474481D01*
X104023373Y-114467963D01*
X103853534Y-114416443D01*
X103828364Y-114402989D01*
X103697011Y-114332779D01*
X103697009Y-114332778D01*
X103661271Y-114303448D01*
X103559814Y-114220186D01*
X103476552Y-114118729D01*
X103447222Y-114082991D01*
X103363557Y-113926466D01*
X103312037Y-113756627D01*
X103294641Y-113580000D01*
X103312037Y-113403373D01*
X103363557Y-113233534D01*
X103447222Y-113077009D01*
X103476552Y-113041271D01*
X103559814Y-112939814D01*
X103665768Y-112852861D01*
X103697009Y-112827222D01*
X103853534Y-112743557D01*
X104023373Y-112692037D01*
X104089557Y-112685519D01*
X104155740Y-112679000D01*
X104244260Y-112679000D01*
X104310443Y-112685519D01*
X104310443Y-112685519D01*
G37*
G36*
X101770443Y-112685519D02*
G01*
X101836627Y-112692037D01*
X102006466Y-112743557D01*
X102162991Y-112827222D01*
X102194232Y-112852861D01*
X102300186Y-112939814D01*
X102383448Y-113041271D01*
X102412778Y-113077009D01*
X102496443Y-113233534D01*
X102547963Y-113403373D01*
X102565359Y-113580000D01*
X102547963Y-113756627D01*
X102496443Y-113926466D01*
X102412778Y-114082991D01*
X102383448Y-114118729D01*
X102300186Y-114220186D01*
X102198729Y-114303448D01*
X102162991Y-114332778D01*
X102162989Y-114332779D01*
X102031637Y-114402989D01*
X102006466Y-114416443D01*
X101836627Y-114467963D01*
X101770443Y-114474481D01*
X101704260Y-114481000D01*
X101615740Y-114481000D01*
X101549557Y-114474481D01*
X101483373Y-114467963D01*
X101313534Y-114416443D01*
X101288364Y-114402989D01*
X101157011Y-114332779D01*
X101157009Y-114332778D01*
X101121271Y-114303448D01*
X101019814Y-114220186D01*
X100936552Y-114118729D01*
X100907222Y-114082991D01*
X100823557Y-113926466D01*
X100772037Y-113756627D01*
X100754641Y-113580000D01*
X100772037Y-113403373D01*
X100823557Y-113233534D01*
X100907222Y-113077009D01*
X100936552Y-113041271D01*
X101019814Y-112939814D01*
X101125768Y-112852861D01*
X101157009Y-112827222D01*
X101313534Y-112743557D01*
X101483373Y-112692037D01*
X101549557Y-112685519D01*
X101615740Y-112679000D01*
X101704260Y-112679000D01*
X101770443Y-112685519D01*
X101770443Y-112685519D01*
G37*
G36*
X54362901Y-110124454D02*
G01*
X54708861Y-110267756D01*
X55020217Y-110475797D01*
X55285003Y-110740583D01*
X55493044Y-111051939D01*
X55636346Y-111397899D01*
X55649892Y-111466000D01*
X55709400Y-111765167D01*
X55709400Y-112139633D01*
X55636346Y-112506900D01*
X55503665Y-112827221D01*
X55493044Y-112852861D01*
X55285003Y-113164217D01*
X55020217Y-113429003D01*
X54708861Y-113637044D01*
X54362901Y-113780346D01*
X53995633Y-113853400D01*
X53621167Y-113853400D01*
X53253899Y-113780346D01*
X52907939Y-113637044D01*
X52596583Y-113429003D01*
X52331797Y-113164217D01*
X52123756Y-112852861D01*
X52113136Y-112827221D01*
X51980454Y-112506900D01*
X51907400Y-112139633D01*
X51907400Y-111765167D01*
X51966908Y-111466000D01*
X51980454Y-111397899D01*
X52123756Y-111051939D01*
X52331797Y-110740583D01*
X52596583Y-110475797D01*
X52907939Y-110267756D01*
X53253899Y-110124454D01*
X53621167Y-110051400D01*
X53995633Y-110051400D01*
X54362901Y-110124454D01*
X54362901Y-110124454D01*
G37*
G36*
X104310442Y-110145518D02*
G01*
X104376627Y-110152037D01*
X104546466Y-110203557D01*
X104702991Y-110287222D01*
X104738729Y-110316552D01*
X104840186Y-110399814D01*
X104918392Y-110495110D01*
X104952778Y-110537009D01*
X105036443Y-110693534D01*
X105087963Y-110863373D01*
X105105359Y-111040000D01*
X105087963Y-111216627D01*
X105042212Y-111367448D01*
X105036442Y-111386468D01*
X105010572Y-111434866D01*
X104952778Y-111542991D01*
X104923448Y-111578729D01*
X104840186Y-111680186D01*
X104738729Y-111763448D01*
X104702991Y-111792778D01*
X104546466Y-111876443D01*
X104376627Y-111927963D01*
X104310442Y-111934482D01*
X104244260Y-111941000D01*
X104155740Y-111941000D01*
X104089558Y-111934482D01*
X104023373Y-111927963D01*
X103853534Y-111876443D01*
X103697009Y-111792778D01*
X103661271Y-111763448D01*
X103559814Y-111680186D01*
X103476552Y-111578729D01*
X103447222Y-111542991D01*
X103389428Y-111434866D01*
X103363558Y-111386468D01*
X103357788Y-111367448D01*
X103312037Y-111216627D01*
X103294641Y-111040000D01*
X103312037Y-110863373D01*
X103363557Y-110693534D01*
X103447222Y-110537009D01*
X103481608Y-110495110D01*
X103559814Y-110399814D01*
X103661271Y-110316552D01*
X103697009Y-110287222D01*
X103853534Y-110203557D01*
X104023373Y-110152037D01*
X104089558Y-110145518D01*
X104155740Y-110139000D01*
X104244260Y-110139000D01*
X104310442Y-110145518D01*
X104310442Y-110145518D01*
G37*
G36*
X102561000Y-111941000D02*
G01*
X100759000Y-111941000D01*
X100759000Y-110139000D01*
X102561000Y-110139000D01*
X102561000Y-111941000D01*
X102561000Y-111941000D01*
G37*
G36*
X83104591Y-110428085D02*
G01*
X83138569Y-110438393D01*
X83169890Y-110455134D01*
X83197339Y-110477661D01*
X83219866Y-110505110D01*
X83236607Y-110536431D01*
X83246915Y-110570409D01*
X83251000Y-110611890D01*
X83251000Y-111288110D01*
X83246915Y-111329591D01*
X83236607Y-111363569D01*
X83219866Y-111394890D01*
X83197339Y-111422339D01*
X83169890Y-111444866D01*
X83138569Y-111461607D01*
X83104591Y-111471915D01*
X83063110Y-111476000D01*
X82461890Y-111476000D01*
X82420409Y-111471915D01*
X82386431Y-111461607D01*
X82355110Y-111444866D01*
X82327661Y-111422339D01*
X82305134Y-111394890D01*
X82288393Y-111363569D01*
X82278085Y-111329591D01*
X82274000Y-111288110D01*
X82274000Y-110611890D01*
X82278085Y-110570409D01*
X82288393Y-110536431D01*
X82305134Y-110505110D01*
X82327661Y-110477661D01*
X82355110Y-110455134D01*
X82386431Y-110438393D01*
X82420409Y-110428085D01*
X82461890Y-110424000D01*
X83063110Y-110424000D01*
X83104591Y-110428085D01*
X83104591Y-110428085D01*
G37*
G36*
X84679591Y-110428085D02*
G01*
X84713569Y-110438393D01*
X84744890Y-110455134D01*
X84772339Y-110477661D01*
X84794866Y-110505110D01*
X84811607Y-110536431D01*
X84821915Y-110570409D01*
X84826000Y-110611890D01*
X84826000Y-111288110D01*
X84821915Y-111329591D01*
X84811607Y-111363569D01*
X84794866Y-111394890D01*
X84772339Y-111422339D01*
X84744890Y-111444866D01*
X84713569Y-111461607D01*
X84679591Y-111471915D01*
X84638110Y-111476000D01*
X84036890Y-111476000D01*
X83995409Y-111471915D01*
X83961431Y-111461607D01*
X83930110Y-111444866D01*
X83902661Y-111422339D01*
X83880134Y-111394890D01*
X83863393Y-111363569D01*
X83853085Y-111329591D01*
X83849000Y-111288110D01*
X83849000Y-110611890D01*
X83853085Y-110570409D01*
X83863393Y-110536431D01*
X83880134Y-110505110D01*
X83902661Y-110477661D01*
X83930110Y-110455134D01*
X83961431Y-110438393D01*
X83995409Y-110428085D01*
X84036890Y-110424000D01*
X84638110Y-110424000D01*
X84679591Y-110428085D01*
X84679591Y-110428085D01*
G37*
G36*
X90017091Y-110418085D02*
G01*
X90051069Y-110428393D01*
X90082390Y-110445134D01*
X90109839Y-110467661D01*
X90132366Y-110495110D01*
X90149107Y-110526431D01*
X90159415Y-110560409D01*
X90163500Y-110601890D01*
X90163500Y-111278110D01*
X90159415Y-111319591D01*
X90149107Y-111353569D01*
X90132366Y-111384890D01*
X90109839Y-111412339D01*
X90082390Y-111434866D01*
X90051069Y-111451607D01*
X90017091Y-111461915D01*
X89975610Y-111466000D01*
X89374390Y-111466000D01*
X89332909Y-111461915D01*
X89298931Y-111451607D01*
X89267610Y-111434866D01*
X89240161Y-111412339D01*
X89217634Y-111384890D01*
X89200893Y-111353569D01*
X89190585Y-111319591D01*
X89186500Y-111278110D01*
X89186500Y-110601890D01*
X89190585Y-110560409D01*
X89200893Y-110526431D01*
X89217634Y-110495110D01*
X89240161Y-110467661D01*
X89267610Y-110445134D01*
X89298931Y-110428393D01*
X89332909Y-110418085D01*
X89374390Y-110414000D01*
X89975610Y-110414000D01*
X90017091Y-110418085D01*
X90017091Y-110418085D01*
G37*
G36*
X88442091Y-110418085D02*
G01*
X88476069Y-110428393D01*
X88507390Y-110445134D01*
X88534839Y-110467661D01*
X88557366Y-110495110D01*
X88574107Y-110526431D01*
X88584415Y-110560409D01*
X88588500Y-110601890D01*
X88588500Y-111278110D01*
X88584415Y-111319591D01*
X88574107Y-111353569D01*
X88557366Y-111384890D01*
X88534839Y-111412339D01*
X88507390Y-111434866D01*
X88476069Y-111451607D01*
X88442091Y-111461915D01*
X88400610Y-111466000D01*
X87799390Y-111466000D01*
X87757909Y-111461915D01*
X87723931Y-111451607D01*
X87692610Y-111434866D01*
X87665161Y-111412339D01*
X87642634Y-111384890D01*
X87625893Y-111353569D01*
X87615585Y-111319591D01*
X87611500Y-111278110D01*
X87611500Y-110601890D01*
X87615585Y-110560409D01*
X87625893Y-110526431D01*
X87642634Y-110495110D01*
X87665161Y-110467661D01*
X87692610Y-110445134D01*
X87723931Y-110428393D01*
X87757909Y-110418085D01*
X87799390Y-110414000D01*
X88400610Y-110414000D01*
X88442091Y-110418085D01*
X88442091Y-110418085D01*
G37*
G36*
X79879591Y-110418085D02*
G01*
X79913569Y-110428393D01*
X79944890Y-110445134D01*
X79972339Y-110467661D01*
X79994866Y-110495110D01*
X80011607Y-110526431D01*
X80021915Y-110560409D01*
X80026000Y-110601890D01*
X80026000Y-111278110D01*
X80021915Y-111319591D01*
X80011607Y-111353569D01*
X79994866Y-111384890D01*
X79972339Y-111412339D01*
X79944890Y-111434866D01*
X79913569Y-111451607D01*
X79879591Y-111461915D01*
X79838110Y-111466000D01*
X79236890Y-111466000D01*
X79195409Y-111461915D01*
X79161431Y-111451607D01*
X79130110Y-111434866D01*
X79102661Y-111412339D01*
X79080134Y-111384890D01*
X79063393Y-111353569D01*
X79053085Y-111319591D01*
X79049000Y-111278110D01*
X79049000Y-110601890D01*
X79053085Y-110560409D01*
X79063393Y-110526431D01*
X79080134Y-110495110D01*
X79102661Y-110467661D01*
X79130110Y-110445134D01*
X79161431Y-110428393D01*
X79195409Y-110418085D01*
X79236890Y-110414000D01*
X79838110Y-110414000D01*
X79879591Y-110418085D01*
X79879591Y-110418085D01*
G37*
G36*
X78304591Y-110418085D02*
G01*
X78338569Y-110428393D01*
X78369890Y-110445134D01*
X78397339Y-110467661D01*
X78419866Y-110495110D01*
X78436607Y-110526431D01*
X78446915Y-110560409D01*
X78451000Y-110601890D01*
X78451000Y-111278110D01*
X78446915Y-111319591D01*
X78436607Y-111353569D01*
X78419866Y-111384890D01*
X78397339Y-111412339D01*
X78369890Y-111434866D01*
X78338569Y-111451607D01*
X78304591Y-111461915D01*
X78263110Y-111466000D01*
X77661890Y-111466000D01*
X77620409Y-111461915D01*
X77586431Y-111451607D01*
X77555110Y-111434866D01*
X77527661Y-111412339D01*
X77505134Y-111384890D01*
X77488393Y-111353569D01*
X77478085Y-111319591D01*
X77474000Y-111278110D01*
X77474000Y-110601890D01*
X77478085Y-110560409D01*
X77488393Y-110526431D01*
X77505134Y-110495110D01*
X77527661Y-110467661D01*
X77555110Y-110445134D01*
X77586431Y-110428393D01*
X77620409Y-110418085D01*
X77661890Y-110414000D01*
X78263110Y-110414000D01*
X78304591Y-110418085D01*
X78304591Y-110418085D01*
G37*
G36*
X95017091Y-110378085D02*
G01*
X95051069Y-110388393D01*
X95082390Y-110405134D01*
X95109839Y-110427661D01*
X95132366Y-110455110D01*
X95149107Y-110486431D01*
X95159415Y-110520409D01*
X95163500Y-110561890D01*
X95163500Y-111238110D01*
X95159415Y-111279591D01*
X95149107Y-111313569D01*
X95132366Y-111344890D01*
X95109839Y-111372339D01*
X95082390Y-111394866D01*
X95051069Y-111411607D01*
X95017091Y-111421915D01*
X94975610Y-111426000D01*
X94374390Y-111426000D01*
X94332909Y-111421915D01*
X94298931Y-111411607D01*
X94267610Y-111394866D01*
X94240161Y-111372339D01*
X94217634Y-111344890D01*
X94200893Y-111313569D01*
X94190585Y-111279591D01*
X94186500Y-111238110D01*
X94186500Y-110561890D01*
X94190585Y-110520409D01*
X94200893Y-110486431D01*
X94217634Y-110455110D01*
X94240161Y-110427661D01*
X94267610Y-110405134D01*
X94298931Y-110388393D01*
X94332909Y-110378085D01*
X94374390Y-110374000D01*
X94975610Y-110374000D01*
X95017091Y-110378085D01*
X95017091Y-110378085D01*
G37*
G36*
X93442091Y-110378085D02*
G01*
X93476069Y-110388393D01*
X93507390Y-110405134D01*
X93534839Y-110427661D01*
X93557366Y-110455110D01*
X93574107Y-110486431D01*
X93584415Y-110520409D01*
X93588500Y-110561890D01*
X93588500Y-111238110D01*
X93584415Y-111279591D01*
X93574107Y-111313569D01*
X93557366Y-111344890D01*
X93534839Y-111372339D01*
X93507390Y-111394866D01*
X93476069Y-111411607D01*
X93442091Y-111421915D01*
X93400610Y-111426000D01*
X92799390Y-111426000D01*
X92757909Y-111421915D01*
X92723931Y-111411607D01*
X92692610Y-111394866D01*
X92665161Y-111372339D01*
X92642634Y-111344890D01*
X92625893Y-111313569D01*
X92615585Y-111279591D01*
X92611500Y-111238110D01*
X92611500Y-110561890D01*
X92615585Y-110520409D01*
X92625893Y-110486431D01*
X92642634Y-110455110D01*
X92665161Y-110427661D01*
X92692610Y-110405134D01*
X92723931Y-110388393D01*
X92757909Y-110378085D01*
X92799390Y-110374000D01*
X93400610Y-110374000D01*
X93442091Y-110378085D01*
X93442091Y-110378085D01*
G37*
M02*
