%FSLAX45Y45*%
G04 Gerber Fmt 4.5, Leading zero omitted, Abs format (unit mm)*
G04 Created by KiCad (PCBNEW (5.1.0-165-g615c49315)) date 2019-04-12 11:42:47*
%MOMM*%
%LPD*%
G04 APERTURE LIST*
%ADD10C,0.100000*%
%ADD11C,0.200000*%
%ADD12C,0.300000*%
G04 APERTURE END LIST*
D10*
X10800000Y-10865000D02*
X5010000Y-10865000D01*
X10800000Y-14990000D02*
X10800000Y-10865000D01*
X5010000Y-14990000D02*
X10800000Y-14990000D01*
X5010000Y-10865000D02*
X5010000Y-14990000D01*
D11*
X5937450Y-12248250D02*
X5977450Y-12288250D01*
X5977450Y-12248250D02*
X5937450Y-12288250D01*
X6006000Y-12938000D02*
X6046000Y-12978000D01*
X6046000Y-12938000D02*
X6006000Y-12978000D01*
X6012350Y-11769600D02*
X6052350Y-11809600D01*
X6052350Y-11769600D02*
X6012350Y-11809600D01*
X6145700Y-14277850D02*
X6185700Y-14317850D01*
X6185700Y-14277850D02*
X6145700Y-14317850D01*
X6152050Y-14017500D02*
X6192050Y-14057500D01*
X6192050Y-14017500D02*
X6152050Y-14057500D01*
X6406050Y-14277850D02*
X6446050Y-14317850D01*
X6446050Y-14277850D02*
X6406050Y-14317850D01*
X6577500Y-14017500D02*
X6617500Y-14057500D01*
X6617500Y-14017500D02*
X6577500Y-14057500D01*
X6666400Y-14277850D02*
X6706400Y-14317850D01*
X6706400Y-14277850D02*
X6666400Y-14317850D01*
X6926750Y-14277850D02*
X6966750Y-14317850D01*
X6966750Y-14277850D02*
X6926750Y-14317850D01*
X6933100Y-14017500D02*
X6973100Y-14057500D01*
X6973100Y-14017500D02*
X6933100Y-14057500D01*
X6978820Y-12955780D02*
X7018820Y-12995780D01*
X7018820Y-12955780D02*
X6978820Y-12995780D01*
X6978850Y-12257250D02*
X7018850Y-12297250D01*
X7018850Y-12257250D02*
X6978850Y-12297250D01*
X7326800Y-11861040D02*
X7366800Y-11901040D01*
X7366800Y-11861040D02*
X7326800Y-11901040D01*
X7387386Y-12154036D02*
X7427386Y-12194036D01*
X7427386Y-12154036D02*
X7387386Y-12194036D01*
X7482500Y-13547600D02*
X7522500Y-13587600D01*
X7522500Y-13547600D02*
X7482500Y-13587600D01*
X7517300Y-12118850D02*
X7557300Y-12158850D01*
X7557300Y-12118850D02*
X7517300Y-12158850D01*
X8577750Y-11087500D02*
X8617750Y-11127500D01*
X8617750Y-11087500D02*
X8577750Y-11127500D01*
X8577750Y-13680950D02*
X8617750Y-13720950D01*
X8617750Y-13680950D02*
X8577750Y-13720950D01*
X8685700Y-13674600D02*
X8725700Y-13714600D01*
X8725700Y-13674600D02*
X8685700Y-13714600D01*
X9581050Y-11071100D02*
X9621050Y-11111100D01*
X9621050Y-11071100D02*
X9581050Y-11111100D01*
X10216000Y-11104000D02*
G75*
G03X10216000Y-11104000I-50000J0D01*
G01*
X10216000Y-11358000D02*
G75*
G03X10216000Y-11358000I-50000J0D01*
G01*
X10216000Y-11612000D02*
G75*
G03X10216000Y-11612000I-50000J0D01*
G01*
X10216000Y-11866000D02*
G75*
G03X10216000Y-11866000I-50000J0D01*
G01*
X10216000Y-12120000D02*
G75*
G03X10216000Y-12120000I-50000J0D01*
G01*
X10216000Y-12374000D02*
G75*
G03X10216000Y-12374000I-50000J0D01*
G01*
X10470000Y-11104000D02*
G75*
G03X10470000Y-11104000I-50000J0D01*
G01*
X10470000Y-11358000D02*
G75*
G03X10470000Y-11358000I-50000J0D01*
G01*
X10470000Y-11612000D02*
G75*
G03X10470000Y-11612000I-50000J0D01*
G01*
X10470000Y-11866000D02*
G75*
G03X10470000Y-11866000I-50000J0D01*
G01*
X10470000Y-12120000D02*
G75*
G03X10470000Y-12120000I-50000J0D01*
G01*
X10470000Y-12374000D02*
G75*
G03X10470000Y-12374000I-50000J0D01*
G01*
X10213000Y-13389000D02*
G75*
G03X10213000Y-13389000I-50000J0D01*
G01*
X10213000Y-13643000D02*
G75*
G03X10213000Y-13643000I-50000J0D01*
G01*
X10213000Y-13897000D02*
G75*
G03X10213000Y-13897000I-50000J0D01*
G01*
X10213000Y-14151000D02*
G75*
G03X10213000Y-14151000I-50000J0D01*
G01*
X10213000Y-14405000D02*
G75*
G03X10213000Y-14405000I-50000J0D01*
G01*
X10213000Y-14659000D02*
G75*
G03X10213000Y-14659000I-50000J0D01*
G01*
X10467000Y-13389000D02*
G75*
G03X10467000Y-13389000I-50000J0D01*
G01*
X10467000Y-13643000D02*
G75*
G03X10467000Y-13643000I-50000J0D01*
G01*
X10467000Y-13897000D02*
G75*
G03X10467000Y-13897000I-50000J0D01*
G01*
X10467000Y-14151000D02*
G75*
G03X10467000Y-14151000I-50000J0D01*
G01*
X10467000Y-14405000D02*
G75*
G03X10467000Y-14405000I-50000J0D01*
G01*
X10467000Y-14659000D02*
G75*
G03X10467000Y-14659000I-50000J0D01*
G01*
X5360000Y-11649000D02*
G75*
G03X5360000Y-11649000I-50000J0D01*
G01*
X5360000Y-11903000D02*
G75*
G03X5360000Y-11903000I-50000J0D01*
G01*
X5360000Y-12157000D02*
G75*
G03X5360000Y-12157000I-50000J0D01*
G01*
X5360000Y-12411000D02*
G75*
G03X5360000Y-12411000I-50000J0D01*
G01*
X5360000Y-12665000D02*
G75*
G03X5360000Y-12665000I-50000J0D01*
G01*
X5360000Y-12919000D02*
G75*
G03X5360000Y-12919000I-50000J0D01*
G01*
X5360000Y-13173000D02*
G75*
G03X5360000Y-13173000I-50000J0D01*
G01*
X5360000Y-13427000D02*
G75*
G03X5360000Y-13427000I-50000J0D01*
G01*
X5360000Y-13681000D02*
G75*
G03X5360000Y-13681000I-50000J0D01*
G01*
X5360000Y-13935000D02*
G75*
G03X5360000Y-13935000I-50000J0D01*
G01*
X5614000Y-11649000D02*
G75*
G03X5614000Y-11649000I-50000J0D01*
G01*
X5614000Y-11903000D02*
G75*
G03X5614000Y-11903000I-50000J0D01*
G01*
X5614000Y-12157000D02*
G75*
G03X5614000Y-12157000I-50000J0D01*
G01*
X5614000Y-12411000D02*
G75*
G03X5614000Y-12411000I-50000J0D01*
G01*
X5614000Y-12665000D02*
G75*
G03X5614000Y-12665000I-50000J0D01*
G01*
X5614000Y-12919000D02*
G75*
G03X5614000Y-12919000I-50000J0D01*
G01*
X5614000Y-13173000D02*
G75*
G03X5614000Y-13173000I-50000J0D01*
G01*
X5614000Y-13427000D02*
G75*
G03X5614000Y-13427000I-50000J0D01*
G01*
X5614000Y-13681000D02*
G75*
G03X5614000Y-13681000I-50000J0D01*
G01*
X5614000Y-13935000D02*
G75*
G03X5614000Y-13935000I-50000J0D01*
G01*
X7915000Y-11390000D02*
G75*
G03X7915000Y-11390000I-50000J0D01*
G01*
X7915000Y-11644000D02*
G75*
G03X7915000Y-11644000I-50000J0D01*
G01*
X7915000Y-11898000D02*
G75*
G03X7915000Y-11898000I-50000J0D01*
G01*
X7915000Y-12152000D02*
G75*
G03X7915000Y-12152000I-50000J0D01*
G01*
X7915000Y-12406000D02*
G75*
G03X7915000Y-12406000I-50000J0D01*
G01*
X7915000Y-12660000D02*
G75*
G03X7915000Y-12660000I-50000J0D01*
G01*
X7915000Y-12914000D02*
G75*
G03X7915000Y-12914000I-50000J0D01*
G01*
X7915000Y-13168000D02*
G75*
G03X7915000Y-13168000I-50000J0D01*
G01*
X7915000Y-13422000D02*
G75*
G03X7915000Y-13422000I-50000J0D01*
G01*
X7915000Y-13676000D02*
G75*
G03X7915000Y-13676000I-50000J0D01*
G01*
X8169000Y-11390000D02*
G75*
G03X8169000Y-11390000I-50000J0D01*
G01*
X8169000Y-11644000D02*
G75*
G03X8169000Y-11644000I-50000J0D01*
G01*
X8169000Y-11898000D02*
G75*
G03X8169000Y-11898000I-50000J0D01*
G01*
X8169000Y-12152000D02*
G75*
G03X8169000Y-12152000I-50000J0D01*
G01*
X8169000Y-12406000D02*
G75*
G03X8169000Y-12406000I-50000J0D01*
G01*
X8169000Y-12660000D02*
G75*
G03X8169000Y-12660000I-50000J0D01*
G01*
X8169000Y-12914000D02*
G75*
G03X8169000Y-12914000I-50000J0D01*
G01*
X8169000Y-13168000D02*
G75*
G03X8169000Y-13168000I-50000J0D01*
G01*
X8169000Y-13422000D02*
G75*
G03X8169000Y-13422000I-50000J0D01*
G01*
X8169000Y-13676000D02*
G75*
G03X8169000Y-13676000I-50000J0D01*
G01*
X7330000Y-14436000D02*
G75*
G03X7330000Y-14436000I-50000J0D01*
G01*
X7330000Y-14690000D02*
G75*
G03X7330000Y-14690000I-50000J0D01*
G01*
X7584000Y-14436000D02*
G75*
G03X7584000Y-14436000I-50000J0D01*
G01*
X7584000Y-14690000D02*
G75*
G03X7584000Y-14690000I-50000J0D01*
G01*
X7838000Y-14436000D02*
G75*
G03X7838000Y-14436000I-50000J0D01*
G01*
X7838000Y-14690000D02*
G75*
G03X7838000Y-14690000I-50000J0D01*
G01*
X8092000Y-14436000D02*
G75*
G03X8092000Y-14436000I-50000J0D01*
G01*
X8092000Y-14690000D02*
G75*
G03X8092000Y-14690000I-50000J0D01*
G01*
X8346000Y-14436000D02*
G75*
G03X8346000Y-14436000I-50000J0D01*
G01*
X8346000Y-14690000D02*
G75*
G03X8346000Y-14690000I-50000J0D01*
G01*
X8600000Y-14436000D02*
G75*
G03X8600000Y-14436000I-50000J0D01*
G01*
X8600000Y-14690000D02*
G75*
G03X8600000Y-14690000I-50000J0D01*
G01*
X8854000Y-14436000D02*
G75*
G03X8854000Y-14436000I-50000J0D01*
G01*
X8854000Y-14690000D02*
G75*
G03X8854000Y-14690000I-50000J0D01*
G01*
X9108000Y-14436000D02*
G75*
G03X9108000Y-14436000I-50000J0D01*
G01*
X9108000Y-14690000D02*
G75*
G03X9108000Y-14690000I-50000J0D01*
G01*
X9362000Y-14436000D02*
G75*
G03X9362000Y-14436000I-50000J0D01*
G01*
X9362000Y-14690000D02*
G75*
G03X9362000Y-14690000I-50000J0D01*
G01*
X9616000Y-14436000D02*
G75*
G03X9616000Y-14436000I-50000J0D01*
G01*
X9616000Y-14690000D02*
G75*
G03X9616000Y-14690000I-50000J0D01*
G01*
X8960000Y-11390000D02*
G75*
G03X8960000Y-11390000I-50000J0D01*
G01*
X8960000Y-11644000D02*
G75*
G03X8960000Y-11644000I-50000J0D01*
G01*
X8960000Y-11898000D02*
G75*
G03X8960000Y-11898000I-50000J0D01*
G01*
X8960000Y-12152000D02*
G75*
G03X8960000Y-12152000I-50000J0D01*
G01*
X8960000Y-12406000D02*
G75*
G03X8960000Y-12406000I-50000J0D01*
G01*
X8960000Y-12660000D02*
G75*
G03X8960000Y-12660000I-50000J0D01*
G01*
X8960000Y-12914000D02*
G75*
G03X8960000Y-12914000I-50000J0D01*
G01*
X8960000Y-13168000D02*
G75*
G03X8960000Y-13168000I-50000J0D01*
G01*
X8960000Y-13422000D02*
G75*
G03X8960000Y-13422000I-50000J0D01*
G01*
X8960000Y-13676000D02*
G75*
G03X8960000Y-13676000I-50000J0D01*
G01*
X9214000Y-11390000D02*
G75*
G03X9214000Y-11390000I-50000J0D01*
G01*
X9214000Y-11644000D02*
G75*
G03X9214000Y-11644000I-50000J0D01*
G01*
X9214000Y-11898000D02*
G75*
G03X9214000Y-11898000I-50000J0D01*
G01*
X9214000Y-12152000D02*
G75*
G03X9214000Y-12152000I-50000J0D01*
G01*
X9214000Y-12406000D02*
G75*
G03X9214000Y-12406000I-50000J0D01*
G01*
X9214000Y-12660000D02*
G75*
G03X9214000Y-12660000I-50000J0D01*
G01*
X9214000Y-12914000D02*
G75*
G03X9214000Y-12914000I-50000J0D01*
G01*
X9214000Y-13168000D02*
G75*
G03X9214000Y-13168000I-50000J0D01*
G01*
X9214000Y-13422000D02*
G75*
G03X9214000Y-13422000I-50000J0D01*
G01*
X9214000Y-13676000D02*
G75*
G03X9214000Y-13676000I-50000J0D01*
G01*
D12*
X5291428Y-15460714D02*
X5291428Y-15160714D01*
X5362857Y-15160714D01*
X5405714Y-15175000D01*
X5434286Y-15203571D01*
X5448571Y-15232143D01*
X5462857Y-15289286D01*
X5462857Y-15332143D01*
X5448571Y-15389286D01*
X5434286Y-15417857D01*
X5405714Y-15446429D01*
X5362857Y-15460714D01*
X5291428Y-15460714D01*
X5591428Y-15460714D02*
X5591428Y-15260714D01*
X5591428Y-15317857D02*
X5605714Y-15289286D01*
X5620000Y-15275000D01*
X5648571Y-15260714D01*
X5677143Y-15260714D01*
X5777143Y-15460714D02*
X5777143Y-15260714D01*
X5777143Y-15160714D02*
X5762857Y-15175000D01*
X5777143Y-15189286D01*
X5791428Y-15175000D01*
X5777143Y-15160714D01*
X5777143Y-15189286D01*
X5962857Y-15460714D02*
X5934286Y-15446429D01*
X5920000Y-15417857D01*
X5920000Y-15160714D01*
X6120000Y-15460714D02*
X6091428Y-15446429D01*
X6077143Y-15417857D01*
X6077143Y-15160714D01*
X6462857Y-15460714D02*
X6462857Y-15160714D01*
X6562857Y-15375000D01*
X6662857Y-15160714D01*
X6662857Y-15460714D01*
X6934286Y-15460714D02*
X6934286Y-15303571D01*
X6920000Y-15275000D01*
X6891428Y-15260714D01*
X6834286Y-15260714D01*
X6805714Y-15275000D01*
X6934286Y-15446429D02*
X6905714Y-15460714D01*
X6834286Y-15460714D01*
X6805714Y-15446429D01*
X6791428Y-15417857D01*
X6791428Y-15389286D01*
X6805714Y-15360714D01*
X6834286Y-15346429D01*
X6905714Y-15346429D01*
X6934286Y-15332143D01*
X7077143Y-15260714D02*
X7077143Y-15560714D01*
X7077143Y-15275000D02*
X7105714Y-15260714D01*
X7162857Y-15260714D01*
X7191428Y-15275000D01*
X7205714Y-15289286D01*
X7220000Y-15317857D01*
X7220000Y-15403571D01*
X7205714Y-15432143D01*
X7191428Y-15446429D01*
X7162857Y-15460714D01*
X7105714Y-15460714D01*
X7077143Y-15446429D01*
X7348571Y-15432143D02*
X7362857Y-15446429D01*
X7348571Y-15460714D01*
X7334286Y-15446429D01*
X7348571Y-15432143D01*
X7348571Y-15460714D01*
X7348571Y-15275000D02*
X7362857Y-15289286D01*
X7348571Y-15303571D01*
X7334286Y-15289286D01*
X7348571Y-15275000D01*
X7348571Y-15303571D01*
X4965000Y-15935000D02*
X5005000Y-15975000D01*
X5005000Y-15935000D02*
X4965000Y-15975000D01*
X5348571Y-15790714D02*
X5377143Y-15790714D01*
X5405714Y-15805000D01*
X5420000Y-15819286D01*
X5434286Y-15847857D01*
X5448571Y-15905000D01*
X5448571Y-15976429D01*
X5434286Y-16033571D01*
X5420000Y-16062143D01*
X5405714Y-16076429D01*
X5377143Y-16090714D01*
X5348571Y-16090714D01*
X5320000Y-16076429D01*
X5305714Y-16062143D01*
X5291428Y-16033571D01*
X5277143Y-15976429D01*
X5277143Y-15905000D01*
X5291428Y-15847857D01*
X5305714Y-15819286D01*
X5320000Y-15805000D01*
X5348571Y-15790714D01*
X5577143Y-16062143D02*
X5591428Y-16076429D01*
X5577143Y-16090714D01*
X5562857Y-16076429D01*
X5577143Y-16062143D01*
X5577143Y-16090714D01*
X5848571Y-15890714D02*
X5848571Y-16090714D01*
X5777143Y-15776429D02*
X5705714Y-15990714D01*
X5891428Y-15990714D01*
X6062857Y-15790714D02*
X6091428Y-15790714D01*
X6120000Y-15805000D01*
X6134286Y-15819286D01*
X6148571Y-15847857D01*
X6162857Y-15905000D01*
X6162857Y-15976429D01*
X6148571Y-16033571D01*
X6134286Y-16062143D01*
X6120000Y-16076429D01*
X6091428Y-16090714D01*
X6062857Y-16090714D01*
X6034286Y-16076429D01*
X6020000Y-16062143D01*
X6005714Y-16033571D01*
X5991428Y-15976429D01*
X5991428Y-15905000D01*
X6005714Y-15847857D01*
X6020000Y-15819286D01*
X6034286Y-15805000D01*
X6062857Y-15790714D01*
X6291428Y-16090714D02*
X6291428Y-15890714D01*
X6291428Y-15919286D02*
X6305714Y-15905000D01*
X6334286Y-15890714D01*
X6377143Y-15890714D01*
X6405714Y-15905000D01*
X6420000Y-15933571D01*
X6420000Y-16090714D01*
X6420000Y-15933571D02*
X6434286Y-15905000D01*
X6462857Y-15890714D01*
X6505714Y-15890714D01*
X6534286Y-15905000D01*
X6548571Y-15933571D01*
X6548571Y-16090714D01*
X6691428Y-16090714D02*
X6691428Y-15890714D01*
X6691428Y-15919286D02*
X6705714Y-15905000D01*
X6734286Y-15890714D01*
X6777143Y-15890714D01*
X6805714Y-15905000D01*
X6820000Y-15933571D01*
X6820000Y-16090714D01*
X6820000Y-15933571D02*
X6834286Y-15905000D01*
X6862857Y-15890714D01*
X6905714Y-15890714D01*
X6934286Y-15905000D01*
X6948571Y-15933571D01*
X6948571Y-16090714D01*
X7534286Y-15776429D02*
X7277143Y-16162143D01*
X7920000Y-15790714D02*
X7948571Y-15790714D01*
X7977143Y-15805000D01*
X7991428Y-15819286D01*
X8005714Y-15847857D01*
X8020000Y-15905000D01*
X8020000Y-15976429D01*
X8005714Y-16033571D01*
X7991428Y-16062143D01*
X7977143Y-16076429D01*
X7948571Y-16090714D01*
X7920000Y-16090714D01*
X7891428Y-16076429D01*
X7877143Y-16062143D01*
X7862857Y-16033571D01*
X7848571Y-15976429D01*
X7848571Y-15905000D01*
X7862857Y-15847857D01*
X7877143Y-15819286D01*
X7891428Y-15805000D01*
X7920000Y-15790714D01*
X8148571Y-16062143D02*
X8162857Y-16076429D01*
X8148571Y-16090714D01*
X8134286Y-16076429D01*
X8148571Y-16062143D01*
X8148571Y-16090714D01*
X8348571Y-15790714D02*
X8377143Y-15790714D01*
X8405714Y-15805000D01*
X8420000Y-15819286D01*
X8434286Y-15847857D01*
X8448571Y-15905000D01*
X8448571Y-15976429D01*
X8434286Y-16033571D01*
X8420000Y-16062143D01*
X8405714Y-16076429D01*
X8377143Y-16090714D01*
X8348571Y-16090714D01*
X8320000Y-16076429D01*
X8305714Y-16062143D01*
X8291428Y-16033571D01*
X8277143Y-15976429D01*
X8277143Y-15905000D01*
X8291428Y-15847857D01*
X8305714Y-15819286D01*
X8320000Y-15805000D01*
X8348571Y-15790714D01*
X8734286Y-16090714D02*
X8562857Y-16090714D01*
X8648571Y-16090714D02*
X8648571Y-15790714D01*
X8620000Y-15833571D01*
X8591428Y-15862143D01*
X8562857Y-15876429D01*
X8991428Y-15790714D02*
X8934286Y-15790714D01*
X8905714Y-15805000D01*
X8891428Y-15819286D01*
X8862857Y-15862143D01*
X8848571Y-15919286D01*
X8848571Y-16033571D01*
X8862857Y-16062143D01*
X8877143Y-16076429D01*
X8905714Y-16090714D01*
X8962857Y-16090714D01*
X8991428Y-16076429D01*
X9005714Y-16062143D01*
X9020000Y-16033571D01*
X9020000Y-15962143D01*
X9005714Y-15933571D01*
X8991428Y-15919286D01*
X8962857Y-15905000D01*
X8905714Y-15905000D01*
X8877143Y-15919286D01*
X8862857Y-15933571D01*
X8848571Y-15962143D01*
X9134286Y-15790714D02*
X9134286Y-15847857D01*
X9248571Y-15790714D02*
X9248571Y-15847857D01*
X9691428Y-16205000D02*
X9677143Y-16190714D01*
X9648571Y-16147857D01*
X9634286Y-16119286D01*
X9620000Y-16076429D01*
X9605714Y-16005000D01*
X9605714Y-15947857D01*
X9620000Y-15876429D01*
X9634286Y-15833571D01*
X9648571Y-15805000D01*
X9677143Y-15762143D01*
X9691428Y-15747857D01*
X9791428Y-15819286D02*
X9805714Y-15805000D01*
X9834286Y-15790714D01*
X9905714Y-15790714D01*
X9934286Y-15805000D01*
X9948571Y-15819286D01*
X9962857Y-15847857D01*
X9962857Y-15876429D01*
X9948571Y-15919286D01*
X9777143Y-16090714D01*
X9962857Y-16090714D01*
X10148571Y-15790714D02*
X10177143Y-15790714D01*
X10205714Y-15805000D01*
X10220000Y-15819286D01*
X10234286Y-15847857D01*
X10248571Y-15905000D01*
X10248571Y-15976429D01*
X10234286Y-16033571D01*
X10220000Y-16062143D01*
X10205714Y-16076429D01*
X10177143Y-16090714D01*
X10148571Y-16090714D01*
X10120000Y-16076429D01*
X10105714Y-16062143D01*
X10091428Y-16033571D01*
X10077143Y-15976429D01*
X10077143Y-15905000D01*
X10091428Y-15847857D01*
X10105714Y-15819286D01*
X10120000Y-15805000D01*
X10148571Y-15790714D01*
X10605714Y-16090714D02*
X10605714Y-15790714D01*
X10734286Y-16090714D02*
X10734286Y-15933571D01*
X10720000Y-15905000D01*
X10691428Y-15890714D01*
X10648571Y-15890714D01*
X10620000Y-15905000D01*
X10605714Y-15919286D01*
X10920000Y-16090714D02*
X10891428Y-16076429D01*
X10877143Y-16062143D01*
X10862857Y-16033571D01*
X10862857Y-15947857D01*
X10877143Y-15919286D01*
X10891428Y-15905000D01*
X10920000Y-15890714D01*
X10962857Y-15890714D01*
X10991428Y-15905000D01*
X11005714Y-15919286D01*
X11020000Y-15947857D01*
X11020000Y-16033571D01*
X11005714Y-16062143D01*
X10991428Y-16076429D01*
X10962857Y-16090714D01*
X10920000Y-16090714D01*
X11191428Y-16090714D02*
X11162857Y-16076429D01*
X11148571Y-16047857D01*
X11148571Y-15790714D01*
X11420000Y-16076429D02*
X11391428Y-16090714D01*
X11334286Y-16090714D01*
X11305714Y-16076429D01*
X11291428Y-16047857D01*
X11291428Y-15933571D01*
X11305714Y-15905000D01*
X11334286Y-15890714D01*
X11391428Y-15890714D01*
X11420000Y-15905000D01*
X11434286Y-15933571D01*
X11434286Y-15962143D01*
X11291428Y-15990714D01*
X11548571Y-16076429D02*
X11577143Y-16090714D01*
X11634286Y-16090714D01*
X11662857Y-16076429D01*
X11677143Y-16047857D01*
X11677143Y-16033571D01*
X11662857Y-16005000D01*
X11634286Y-15990714D01*
X11591428Y-15990714D01*
X11562857Y-15976429D01*
X11548571Y-15947857D01*
X11548571Y-15933571D01*
X11562857Y-15905000D01*
X11591428Y-15890714D01*
X11634286Y-15890714D01*
X11662857Y-15905000D01*
X11777143Y-16205000D02*
X11791428Y-16190714D01*
X11820000Y-16147857D01*
X11834286Y-16119286D01*
X11848571Y-16076429D01*
X11862857Y-16005000D01*
X11862857Y-15947857D01*
X11848571Y-15876429D01*
X11834286Y-15833571D01*
X11820000Y-15805000D01*
X11791428Y-15762143D01*
X11777143Y-15747857D01*
X5005000Y-16351000D02*
G75*
G03X5005000Y-16351000I-50000J0D01*
G01*
X5448571Y-16486714D02*
X5277143Y-16486714D01*
X5362857Y-16486714D02*
X5362857Y-16186714D01*
X5334286Y-16229571D01*
X5305714Y-16258143D01*
X5277143Y-16272429D01*
X5577143Y-16458143D02*
X5591428Y-16472429D01*
X5577143Y-16486714D01*
X5562857Y-16472429D01*
X5577143Y-16458143D01*
X5577143Y-16486714D01*
X5777143Y-16186714D02*
X5805714Y-16186714D01*
X5834286Y-16201000D01*
X5848571Y-16215286D01*
X5862857Y-16243857D01*
X5877143Y-16301000D01*
X5877143Y-16372429D01*
X5862857Y-16429571D01*
X5848571Y-16458143D01*
X5834286Y-16472429D01*
X5805714Y-16486714D01*
X5777143Y-16486714D01*
X5748571Y-16472429D01*
X5734286Y-16458143D01*
X5720000Y-16429571D01*
X5705714Y-16372429D01*
X5705714Y-16301000D01*
X5720000Y-16243857D01*
X5734286Y-16215286D01*
X5748571Y-16201000D01*
X5777143Y-16186714D01*
X6062857Y-16186714D02*
X6091428Y-16186714D01*
X6120000Y-16201000D01*
X6134286Y-16215286D01*
X6148571Y-16243857D01*
X6162857Y-16301000D01*
X6162857Y-16372429D01*
X6148571Y-16429571D01*
X6134286Y-16458143D01*
X6120000Y-16472429D01*
X6091428Y-16486714D01*
X6062857Y-16486714D01*
X6034286Y-16472429D01*
X6020000Y-16458143D01*
X6005714Y-16429571D01*
X5991428Y-16372429D01*
X5991428Y-16301000D01*
X6005714Y-16243857D01*
X6020000Y-16215286D01*
X6034286Y-16201000D01*
X6062857Y-16186714D01*
X6291428Y-16486714D02*
X6291428Y-16286714D01*
X6291428Y-16315286D02*
X6305714Y-16301000D01*
X6334286Y-16286714D01*
X6377143Y-16286714D01*
X6405714Y-16301000D01*
X6420000Y-16329571D01*
X6420000Y-16486714D01*
X6420000Y-16329571D02*
X6434286Y-16301000D01*
X6462857Y-16286714D01*
X6505714Y-16286714D01*
X6534286Y-16301000D01*
X6548571Y-16329571D01*
X6548571Y-16486714D01*
X6691428Y-16486714D02*
X6691428Y-16286714D01*
X6691428Y-16315286D02*
X6705714Y-16301000D01*
X6734286Y-16286714D01*
X6777143Y-16286714D01*
X6805714Y-16301000D01*
X6820000Y-16329571D01*
X6820000Y-16486714D01*
X6820000Y-16329571D02*
X6834286Y-16301000D01*
X6862857Y-16286714D01*
X6905714Y-16286714D01*
X6934286Y-16301000D01*
X6948571Y-16329571D01*
X6948571Y-16486714D01*
X7534286Y-16172429D02*
X7277143Y-16558143D01*
X7920000Y-16186714D02*
X7948571Y-16186714D01*
X7977143Y-16201000D01*
X7991428Y-16215286D01*
X8005714Y-16243857D01*
X8020000Y-16301000D01*
X8020000Y-16372429D01*
X8005714Y-16429571D01*
X7991428Y-16458143D01*
X7977143Y-16472429D01*
X7948571Y-16486714D01*
X7920000Y-16486714D01*
X7891428Y-16472429D01*
X7877143Y-16458143D01*
X7862857Y-16429571D01*
X7848571Y-16372429D01*
X7848571Y-16301000D01*
X7862857Y-16243857D01*
X7877143Y-16215286D01*
X7891428Y-16201000D01*
X7920000Y-16186714D01*
X8148571Y-16458143D02*
X8162857Y-16472429D01*
X8148571Y-16486714D01*
X8134286Y-16472429D01*
X8148571Y-16458143D01*
X8148571Y-16486714D01*
X8348571Y-16186714D02*
X8377143Y-16186714D01*
X8405714Y-16201000D01*
X8420000Y-16215286D01*
X8434286Y-16243857D01*
X8448571Y-16301000D01*
X8448571Y-16372429D01*
X8434286Y-16429571D01*
X8420000Y-16458143D01*
X8405714Y-16472429D01*
X8377143Y-16486714D01*
X8348571Y-16486714D01*
X8320000Y-16472429D01*
X8305714Y-16458143D01*
X8291428Y-16429571D01*
X8277143Y-16372429D01*
X8277143Y-16301000D01*
X8291428Y-16243857D01*
X8305714Y-16215286D01*
X8320000Y-16201000D01*
X8348571Y-16186714D01*
X8548571Y-16186714D02*
X8734286Y-16186714D01*
X8634286Y-16301000D01*
X8677143Y-16301000D01*
X8705714Y-16315286D01*
X8720000Y-16329571D01*
X8734286Y-16358143D01*
X8734286Y-16429571D01*
X8720000Y-16458143D01*
X8705714Y-16472429D01*
X8677143Y-16486714D01*
X8591428Y-16486714D01*
X8562857Y-16472429D01*
X8548571Y-16458143D01*
X8877143Y-16486714D02*
X8934286Y-16486714D01*
X8962857Y-16472429D01*
X8977143Y-16458143D01*
X9005714Y-16415286D01*
X9020000Y-16358143D01*
X9020000Y-16243857D01*
X9005714Y-16215286D01*
X8991428Y-16201000D01*
X8962857Y-16186714D01*
X8905714Y-16186714D01*
X8877143Y-16201000D01*
X8862857Y-16215286D01*
X8848571Y-16243857D01*
X8848571Y-16315286D01*
X8862857Y-16343857D01*
X8877143Y-16358143D01*
X8905714Y-16372429D01*
X8962857Y-16372429D01*
X8991428Y-16358143D01*
X9005714Y-16343857D01*
X9020000Y-16315286D01*
X9134286Y-16186714D02*
X9134286Y-16243857D01*
X9248571Y-16186714D02*
X9248571Y-16243857D01*
X9691428Y-16601000D02*
X9677143Y-16586714D01*
X9648571Y-16543857D01*
X9634286Y-16515286D01*
X9620000Y-16472429D01*
X9605714Y-16401000D01*
X9605714Y-16343857D01*
X9620000Y-16272429D01*
X9634286Y-16229571D01*
X9648571Y-16201000D01*
X9677143Y-16158143D01*
X9691428Y-16143857D01*
X9962857Y-16486714D02*
X9791428Y-16486714D01*
X9877143Y-16486714D02*
X9877143Y-16186714D01*
X9848571Y-16229571D01*
X9820000Y-16258143D01*
X9791428Y-16272429D01*
X10148571Y-16186714D02*
X10177143Y-16186714D01*
X10205714Y-16201000D01*
X10220000Y-16215286D01*
X10234286Y-16243857D01*
X10248571Y-16301000D01*
X10248571Y-16372429D01*
X10234286Y-16429571D01*
X10220000Y-16458143D01*
X10205714Y-16472429D01*
X10177143Y-16486714D01*
X10148571Y-16486714D01*
X10120000Y-16472429D01*
X10105714Y-16458143D01*
X10091428Y-16429571D01*
X10077143Y-16372429D01*
X10077143Y-16301000D01*
X10091428Y-16243857D01*
X10105714Y-16215286D01*
X10120000Y-16201000D01*
X10148571Y-16186714D01*
X10505714Y-16286714D02*
X10505714Y-16486714D01*
X10434286Y-16172429D02*
X10362857Y-16386714D01*
X10548571Y-16386714D01*
X10891428Y-16486714D02*
X10891428Y-16186714D01*
X11020000Y-16486714D02*
X11020000Y-16329571D01*
X11005714Y-16301000D01*
X10977143Y-16286714D01*
X10934286Y-16286714D01*
X10905714Y-16301000D01*
X10891428Y-16315286D01*
X11205714Y-16486714D02*
X11177143Y-16472429D01*
X11162857Y-16458143D01*
X11148571Y-16429571D01*
X11148571Y-16343857D01*
X11162857Y-16315286D01*
X11177143Y-16301000D01*
X11205714Y-16286714D01*
X11248571Y-16286714D01*
X11277143Y-16301000D01*
X11291428Y-16315286D01*
X11305714Y-16343857D01*
X11305714Y-16429571D01*
X11291428Y-16458143D01*
X11277143Y-16472429D01*
X11248571Y-16486714D01*
X11205714Y-16486714D01*
X11477143Y-16486714D02*
X11448571Y-16472429D01*
X11434286Y-16443857D01*
X11434286Y-16186714D01*
X11705714Y-16472429D02*
X11677143Y-16486714D01*
X11620000Y-16486714D01*
X11591428Y-16472429D01*
X11577143Y-16443857D01*
X11577143Y-16329571D01*
X11591428Y-16301000D01*
X11620000Y-16286714D01*
X11677143Y-16286714D01*
X11705714Y-16301000D01*
X11720000Y-16329571D01*
X11720000Y-16358143D01*
X11577143Y-16386714D01*
X11834286Y-16472429D02*
X11862857Y-16486714D01*
X11920000Y-16486714D01*
X11948571Y-16472429D01*
X11962857Y-16443857D01*
X11962857Y-16429571D01*
X11948571Y-16401000D01*
X11920000Y-16386714D01*
X11877143Y-16386714D01*
X11848571Y-16372429D01*
X11834286Y-16343857D01*
X11834286Y-16329571D01*
X11848571Y-16301000D01*
X11877143Y-16286714D01*
X11920000Y-16286714D01*
X11948571Y-16301000D01*
X12062857Y-16601000D02*
X12077143Y-16586714D01*
X12105714Y-16543857D01*
X12120000Y-16515286D01*
X12134286Y-16472429D01*
X12148571Y-16401000D01*
X12148571Y-16343857D01*
X12134286Y-16272429D01*
X12120000Y-16229571D01*
X12105714Y-16201000D01*
X12077143Y-16158143D01*
X12062857Y-16143857D01*
M02*
