G04 #@! TF.GenerationSoftware,KiCad,Pcbnew,(5.1.0-165-g615c49315)*
G04 #@! TF.CreationDate,2019-04-12T15:14:10+02:00*
G04 #@! TF.ProjectId,JTAGMux_1.0,4a544147-4d75-4785-9f31-2e302e6b6963,rev?*
G04 #@! TF.SameCoordinates,Original*
G04 #@! TF.FileFunction,Legend,Top*
G04 #@! TF.FilePolarity,Positive*
%FSLAX46Y46*%
G04 Gerber Fmt 4.6, Leading zero omitted, Abs format (unit mm)*
G04 Created by KiCad (PCBNEW (5.1.0-165-g615c49315)) date 2019-04-12 15:14:10*
%MOMM*%
%LPD*%
G04 APERTURE LIST*
%ADD10C,0.150000*%
%ADD11C,0.125000*%
%ADD12C,0.120000*%
%ADD13C,0.375000*%
G04 APERTURE END LIST*
D10*
X60052695Y-111125880D02*
X60052695Y-111840166D01*
X60005076Y-111983023D01*
X59909838Y-112078261D01*
X59766980Y-112125880D01*
X59671742Y-112125880D01*
X60386028Y-111125880D02*
X60957457Y-111125880D01*
X60671742Y-112125880D02*
X60671742Y-111125880D01*
X61243171Y-111840166D02*
X61719361Y-111840166D01*
X61147933Y-112125880D02*
X61481266Y-111125880D01*
X61814600Y-112125880D01*
X62671742Y-111173500D02*
X62576504Y-111125880D01*
X62433647Y-111125880D01*
X62290790Y-111173500D01*
X62195552Y-111268738D01*
X62147933Y-111363976D01*
X62100314Y-111554452D01*
X62100314Y-111697309D01*
X62147933Y-111887785D01*
X62195552Y-111983023D01*
X62290790Y-112078261D01*
X62433647Y-112125880D01*
X62528885Y-112125880D01*
X62671742Y-112078261D01*
X62719361Y-112030642D01*
X62719361Y-111697309D01*
X62528885Y-111697309D01*
X63147933Y-112125880D02*
X63147933Y-111125880D01*
X63481266Y-111840166D01*
X63814600Y-111125880D01*
X63814600Y-112125880D01*
X64719361Y-111459214D02*
X64719361Y-112125880D01*
X64290790Y-111459214D02*
X64290790Y-111983023D01*
X64338409Y-112078261D01*
X64433647Y-112125880D01*
X64576504Y-112125880D01*
X64671742Y-112078261D01*
X64719361Y-112030642D01*
X65100314Y-112125880D02*
X65624123Y-111459214D01*
X65100314Y-111459214D02*
X65624123Y-112125880D01*
X66671742Y-111459214D02*
X66909838Y-112125880D01*
X67147933Y-111459214D01*
X68052695Y-112125880D02*
X67481266Y-112125880D01*
X67766980Y-112125880D02*
X67766980Y-111125880D01*
X67671742Y-111268738D01*
X67576504Y-111363976D01*
X67481266Y-111411595D01*
X68481266Y-112030642D02*
X68528885Y-112078261D01*
X68481266Y-112125880D01*
X68433647Y-112078261D01*
X68481266Y-112030642D01*
X68481266Y-112125880D01*
X69147933Y-111125880D02*
X69243171Y-111125880D01*
X69338409Y-111173500D01*
X69386028Y-111221119D01*
X69433647Y-111316357D01*
X69481266Y-111506833D01*
X69481266Y-111744928D01*
X69433647Y-111935404D01*
X69386028Y-112030642D01*
X69338409Y-112078261D01*
X69243171Y-112125880D01*
X69147933Y-112125880D01*
X69052695Y-112078261D01*
X69005076Y-112030642D01*
X68957457Y-111935404D01*
X68909838Y-111744928D01*
X68909838Y-111506833D01*
X68957457Y-111316357D01*
X69005076Y-111221119D01*
X69052695Y-111173500D01*
X69147933Y-111125880D01*
X69909838Y-112030642D02*
X69957457Y-112078261D01*
X69909838Y-112125880D01*
X69862219Y-112078261D01*
X69909838Y-112030642D01*
X69909838Y-112125880D01*
X70576504Y-111125880D02*
X70671742Y-111125880D01*
X70766980Y-111173500D01*
X70814600Y-111221119D01*
X70862219Y-111316357D01*
X70909838Y-111506833D01*
X70909838Y-111744928D01*
X70862219Y-111935404D01*
X70814600Y-112030642D01*
X70766980Y-112078261D01*
X70671742Y-112125880D01*
X70576504Y-112125880D01*
X70481266Y-112078261D01*
X70433647Y-112030642D01*
X70386028Y-111935404D01*
X70338409Y-111744928D01*
X70338409Y-111506833D01*
X70386028Y-111316357D01*
X70433647Y-111221119D01*
X70481266Y-111173500D01*
X70576504Y-111125880D01*
X61647933Y-113252071D02*
X61981266Y-113252071D01*
X62124123Y-113775880D02*
X61647933Y-113775880D01*
X61647933Y-112775880D01*
X62124123Y-112775880D01*
X62552695Y-112775880D02*
X62552695Y-113585404D01*
X62600314Y-113680642D01*
X62647933Y-113728261D01*
X62743171Y-113775880D01*
X62933647Y-113775880D01*
X63028885Y-113728261D01*
X63076504Y-113680642D01*
X63124123Y-113585404D01*
X63124123Y-112775880D01*
X64171742Y-113775880D02*
X63838409Y-113299690D01*
X63600314Y-113775880D02*
X63600314Y-112775880D01*
X63981266Y-112775880D01*
X64076504Y-112823500D01*
X64124123Y-112871119D01*
X64171742Y-112966357D01*
X64171742Y-113109214D01*
X64124123Y-113204452D01*
X64076504Y-113252071D01*
X63981266Y-113299690D01*
X63600314Y-113299690D01*
X64600314Y-113252071D02*
X64933647Y-113252071D01*
X65076504Y-113775880D02*
X64600314Y-113775880D01*
X64600314Y-112775880D01*
X65076504Y-112775880D01*
X66076504Y-113680642D02*
X66028885Y-113728261D01*
X65886028Y-113775880D01*
X65790790Y-113775880D01*
X65647933Y-113728261D01*
X65552695Y-113633023D01*
X65505076Y-113537785D01*
X65457457Y-113347309D01*
X65457457Y-113204452D01*
X65505076Y-113013976D01*
X65552695Y-112918738D01*
X65647933Y-112823500D01*
X65790790Y-112775880D01*
X65886028Y-112775880D01*
X66028885Y-112823500D01*
X66076504Y-112871119D01*
X66695552Y-112775880D02*
X66886028Y-112775880D01*
X66981266Y-112823500D01*
X67076504Y-112918738D01*
X67124123Y-113109214D01*
X67124123Y-113442547D01*
X67076504Y-113633023D01*
X66981266Y-113728261D01*
X66886028Y-113775880D01*
X66695552Y-113775880D01*
X66600314Y-113728261D01*
X66505076Y-113633023D01*
X66457457Y-113442547D01*
X66457457Y-113109214D01*
X66505076Y-112918738D01*
X66600314Y-112823500D01*
X66695552Y-112775880D01*
X67552695Y-113775880D02*
X67552695Y-112775880D01*
X67886028Y-113490166D01*
X68219361Y-112775880D01*
X68219361Y-113775880D01*
D11*
X101371757Y-148717328D02*
X101371757Y-149117328D01*
X101371757Y-148774471D02*
X101400328Y-148745900D01*
X101457471Y-148717328D01*
X101543185Y-148717328D01*
X101600328Y-148745900D01*
X101628900Y-148803042D01*
X101628900Y-149117328D01*
X101886042Y-149088757D02*
X101971757Y-149117328D01*
X102114614Y-149117328D01*
X102171757Y-149088757D01*
X102200328Y-149060185D01*
X102228900Y-149003042D01*
X102228900Y-148945900D01*
X102200328Y-148888757D01*
X102171757Y-148860185D01*
X102114614Y-148831614D01*
X102000328Y-148803042D01*
X101943185Y-148774471D01*
X101914614Y-148745900D01*
X101886042Y-148688757D01*
X101886042Y-148631614D01*
X101914614Y-148574471D01*
X101943185Y-148545900D01*
X102000328Y-148517328D01*
X102143185Y-148517328D01*
X102228900Y-148545900D01*
X102828900Y-149117328D02*
X102628900Y-148831614D01*
X102486042Y-149117328D02*
X102486042Y-148517328D01*
X102714614Y-148517328D01*
X102771757Y-148545900D01*
X102800328Y-148574471D01*
X102828900Y-148631614D01*
X102828900Y-148717328D01*
X102800328Y-148774471D01*
X102771757Y-148803042D01*
X102714614Y-148831614D01*
X102486042Y-148831614D01*
X103057471Y-149088757D02*
X103143185Y-149117328D01*
X103286042Y-149117328D01*
X103343185Y-149088757D01*
X103371757Y-149060185D01*
X103400328Y-149003042D01*
X103400328Y-148945900D01*
X103371757Y-148888757D01*
X103343185Y-148860185D01*
X103286042Y-148831614D01*
X103171757Y-148803042D01*
X103114614Y-148774471D01*
X103086042Y-148745900D01*
X103057471Y-148688757D01*
X103057471Y-148631614D01*
X103086042Y-148574471D01*
X103114614Y-148545900D01*
X103171757Y-148517328D01*
X103314614Y-148517328D01*
X103400328Y-148545900D01*
X103571757Y-148517328D02*
X103914614Y-148517328D01*
X103743185Y-149117328D02*
X103743185Y-148517328D01*
X103971757Y-149174471D02*
X104428900Y-149174471D01*
X104571757Y-149117328D02*
X104571757Y-148717328D01*
X104571757Y-148517328D02*
X104543185Y-148545900D01*
X104571757Y-148574471D01*
X104600328Y-148545900D01*
X104571757Y-148517328D01*
X104571757Y-148574471D01*
X104857471Y-148717328D02*
X104857471Y-149117328D01*
X104857471Y-148774471D02*
X104886042Y-148745900D01*
X104943185Y-148717328D01*
X105028900Y-148717328D01*
X105086042Y-148745900D01*
X105114614Y-148803042D01*
X105114614Y-149117328D01*
X105514614Y-148517328D02*
X105571757Y-148517328D01*
X105628900Y-148545900D01*
X105657471Y-148574471D01*
X105686042Y-148631614D01*
X105714614Y-148745900D01*
X105714614Y-148888757D01*
X105686042Y-149003042D01*
X105657471Y-149060185D01*
X105628900Y-149088757D01*
X105571757Y-149117328D01*
X105514614Y-149117328D01*
X105457471Y-149088757D01*
X105428900Y-149060185D01*
X105400328Y-149003042D01*
X105371757Y-148888757D01*
X105371757Y-148745900D01*
X105400328Y-148631614D01*
X105428900Y-148574471D01*
X105457471Y-148545900D01*
X105514614Y-148517328D01*
X97347371Y-148863328D02*
X97147371Y-148577614D01*
X97004514Y-148863328D02*
X97004514Y-148263328D01*
X97233085Y-148263328D01*
X97290228Y-148291900D01*
X97318800Y-148320471D01*
X97347371Y-148377614D01*
X97347371Y-148463328D01*
X97318800Y-148520471D01*
X97290228Y-148549042D01*
X97233085Y-148577614D01*
X97004514Y-148577614D01*
X97518800Y-148263328D02*
X97861657Y-148263328D01*
X97690228Y-148863328D02*
X97690228Y-148263328D01*
X98404514Y-148806185D02*
X98375942Y-148834757D01*
X98290228Y-148863328D01*
X98233085Y-148863328D01*
X98147371Y-148834757D01*
X98090228Y-148777614D01*
X98061657Y-148720471D01*
X98033085Y-148606185D01*
X98033085Y-148520471D01*
X98061657Y-148406185D01*
X98090228Y-148349042D01*
X98147371Y-148291900D01*
X98233085Y-148263328D01*
X98290228Y-148263328D01*
X98375942Y-148291900D01*
X98404514Y-148320471D01*
X98661657Y-148863328D02*
X98661657Y-148263328D01*
X99004514Y-148863328D02*
X98747371Y-148520471D01*
X99004514Y-148263328D02*
X98661657Y-148606185D01*
X99118800Y-148920471D02*
X99575942Y-148920471D01*
X99718800Y-148863328D02*
X99718800Y-148463328D01*
X99718800Y-148263328D02*
X99690228Y-148291900D01*
X99718800Y-148320471D01*
X99747371Y-148291900D01*
X99718800Y-148263328D01*
X99718800Y-148320471D01*
X100004514Y-148463328D02*
X100004514Y-148863328D01*
X100004514Y-148520471D02*
X100033085Y-148491900D01*
X100090228Y-148463328D01*
X100175942Y-148463328D01*
X100233085Y-148491900D01*
X100261657Y-148549042D01*
X100261657Y-148863328D01*
X100661657Y-148263328D02*
X100718800Y-148263328D01*
X100775942Y-148291900D01*
X100804514Y-148320471D01*
X100833085Y-148377614D01*
X100861657Y-148491900D01*
X100861657Y-148634757D01*
X100833085Y-148749042D01*
X100804514Y-148806185D01*
X100775942Y-148834757D01*
X100718800Y-148863328D01*
X100661657Y-148863328D01*
X100604514Y-148834757D01*
X100575942Y-148806185D01*
X100547371Y-148749042D01*
X100518800Y-148634757D01*
X100518800Y-148491900D01*
X100547371Y-148377614D01*
X100575942Y-148320471D01*
X100604514Y-148291900D01*
X100661657Y-148263328D01*
D12*
X97128100Y-148122000D02*
X100773000Y-148122000D01*
X95718400Y-146864700D02*
X97128100Y-148122000D01*
X95324700Y-149011000D02*
X100646000Y-149011000D01*
X93394300Y-147194900D02*
X95324700Y-149011000D01*
D11*
X96999785Y-147082228D02*
X97199785Y-147682228D01*
X97399785Y-147082228D01*
X97514071Y-147082228D02*
X97856928Y-147082228D01*
X97685500Y-147682228D02*
X97685500Y-147082228D01*
X98399785Y-147682228D02*
X98199785Y-147396514D01*
X98056928Y-147682228D02*
X98056928Y-147082228D01*
X98285500Y-147082228D01*
X98342642Y-147110800D01*
X98371214Y-147139371D01*
X98399785Y-147196514D01*
X98399785Y-147282228D01*
X98371214Y-147339371D01*
X98342642Y-147367942D01*
X98285500Y-147396514D01*
X98056928Y-147396514D01*
X98656928Y-147367942D02*
X98856928Y-147367942D01*
X98942642Y-147682228D02*
X98656928Y-147682228D01*
X98656928Y-147082228D01*
X98942642Y-147082228D01*
X99399785Y-147367942D02*
X99199785Y-147367942D01*
X99199785Y-147682228D02*
X99199785Y-147082228D01*
X99485500Y-147082228D01*
X99571214Y-147739371D02*
X100028357Y-147739371D01*
X100171214Y-147682228D02*
X100171214Y-147282228D01*
X100171214Y-147082228D02*
X100142642Y-147110800D01*
X100171214Y-147139371D01*
X100199785Y-147110800D01*
X100171214Y-147082228D01*
X100171214Y-147139371D01*
X100456928Y-147282228D02*
X100456928Y-147682228D01*
X100456928Y-147339371D02*
X100485500Y-147310800D01*
X100542642Y-147282228D01*
X100628357Y-147282228D01*
X100685500Y-147310800D01*
X100714071Y-147367942D01*
X100714071Y-147682228D01*
X101114071Y-147082228D02*
X101171214Y-147082228D01*
X101228357Y-147110800D01*
X101256928Y-147139371D01*
X101285500Y-147196514D01*
X101314071Y-147310800D01*
X101314071Y-147453657D01*
X101285500Y-147567942D01*
X101256928Y-147625085D01*
X101228357Y-147653657D01*
X101171214Y-147682228D01*
X101114071Y-147682228D01*
X101056928Y-147653657D01*
X101028357Y-147625085D01*
X100999785Y-147567942D01*
X100971214Y-147453657D01*
X100971214Y-147310800D01*
X100999785Y-147196514D01*
X101028357Y-147139371D01*
X101056928Y-147110800D01*
X101114071Y-147082228D01*
D12*
X93826100Y-149315800D02*
X105992700Y-149303100D01*
X90524100Y-147055200D02*
X93826100Y-149315800D01*
D13*
X71667171Y-143028464D02*
X71667171Y-142099892D01*
X72238600Y-142599892D01*
X72238600Y-142385607D01*
X72310028Y-142242750D01*
X72381457Y-142171321D01*
X72524314Y-142099892D01*
X72881457Y-142099892D01*
X73024314Y-142171321D01*
X73095742Y-142242750D01*
X73167171Y-142385607D01*
X73167171Y-142814178D01*
X73095742Y-142957035D01*
X73024314Y-143028464D01*
X71667171Y-141671321D02*
X73167171Y-141171321D01*
X71667171Y-140671321D01*
X71667171Y-140314178D02*
X71667171Y-139385607D01*
X72238600Y-139885607D01*
X72238600Y-139671321D01*
X72310028Y-139528464D01*
X72381457Y-139457035D01*
X72524314Y-139385607D01*
X72881457Y-139385607D01*
X73024314Y-139457035D01*
X73095742Y-139528464D01*
X73167171Y-139671321D01*
X73167171Y-140099892D01*
X73095742Y-140242750D01*
X73024314Y-140314178D01*
X75792171Y-142885607D02*
X74292171Y-142885607D01*
X74792171Y-142171321D02*
X75792171Y-142171321D01*
X74935028Y-142171321D02*
X74863600Y-142099892D01*
X74792171Y-141957035D01*
X74792171Y-141742750D01*
X74863600Y-141599892D01*
X75006457Y-141528464D01*
X75792171Y-141528464D01*
X75935028Y-141171321D02*
X75935028Y-140028464D01*
X75720742Y-139742750D02*
X75792171Y-139528464D01*
X75792171Y-139171321D01*
X75720742Y-139028464D01*
X75649314Y-138957035D01*
X75506457Y-138885607D01*
X75363600Y-138885607D01*
X75220742Y-138957035D01*
X75149314Y-139028464D01*
X75077885Y-139171321D01*
X75006457Y-139457035D01*
X74935028Y-139599892D01*
X74863600Y-139671321D01*
X74720742Y-139742750D01*
X74577885Y-139742750D01*
X74435028Y-139671321D01*
X74363600Y-139599892D01*
X74292171Y-139457035D01*
X74292171Y-139099892D01*
X74363600Y-138885607D01*
X75720742Y-137671321D02*
X75792171Y-137814178D01*
X75792171Y-138099892D01*
X75720742Y-138242750D01*
X75577885Y-138314178D01*
X75006457Y-138314178D01*
X74863600Y-138242750D01*
X74792171Y-138099892D01*
X74792171Y-137814178D01*
X74863600Y-137671321D01*
X75006457Y-137599892D01*
X75149314Y-137599892D01*
X75292171Y-138314178D01*
X75792171Y-136742750D02*
X75720742Y-136885607D01*
X75577885Y-136957035D01*
X74292171Y-136957035D01*
X76988600Y-142099892D02*
X76917171Y-142242750D01*
X76917171Y-142457035D01*
X76988600Y-142671321D01*
X77131457Y-142814178D01*
X77274314Y-142885607D01*
X77560028Y-142957035D01*
X77774314Y-142957035D01*
X78060028Y-142885607D01*
X78202885Y-142814178D01*
X78345742Y-142671321D01*
X78417171Y-142457035D01*
X78417171Y-142314178D01*
X78345742Y-142099892D01*
X78274314Y-142028464D01*
X77774314Y-142028464D01*
X77774314Y-142314178D01*
X78417171Y-141385607D02*
X76917171Y-141385607D01*
X78417171Y-140528464D01*
X76917171Y-140528464D01*
X78417171Y-139814178D02*
X76917171Y-139814178D01*
X76917171Y-139457035D01*
X76988600Y-139242750D01*
X77131457Y-139099892D01*
X77274314Y-139028464D01*
X77560028Y-138957035D01*
X77774314Y-138957035D01*
X78060028Y-139028464D01*
X78202885Y-139099892D01*
X78345742Y-139242750D01*
X78417171Y-139457035D01*
X78417171Y-139814178D01*
X80256457Y-142885607D02*
X80256457Y-142385607D01*
X81042171Y-142171321D02*
X81042171Y-142885607D01*
X79542171Y-142885607D01*
X79542171Y-142171321D01*
X79542171Y-141671321D02*
X81042171Y-140671321D01*
X79542171Y-140671321D02*
X81042171Y-141671321D01*
X79542171Y-140314178D02*
X79542171Y-139457035D01*
X81042171Y-139885607D02*
X79542171Y-139885607D01*
X79542171Y-138671321D02*
X79542171Y-138528464D01*
X79613600Y-138385607D01*
X79685028Y-138314178D01*
X79827885Y-138242750D01*
X80113600Y-138171321D01*
X80470742Y-138171321D01*
X80756457Y-138242750D01*
X80899314Y-138314178D01*
X80970742Y-138385607D01*
X81042171Y-138528464D01*
X81042171Y-138671321D01*
X80970742Y-138814178D01*
X80899314Y-138885607D01*
X80756457Y-138957035D01*
X80470742Y-139028464D01*
X80113600Y-139028464D01*
X79827885Y-138957035D01*
X79685028Y-138885607D01*
X79613600Y-138814178D01*
X79542171Y-138671321D01*
X82881457Y-142885607D02*
X82881457Y-142385607D01*
X83667171Y-142171321D02*
X83667171Y-142885607D01*
X82167171Y-142885607D01*
X82167171Y-142171321D01*
X82167171Y-141671321D02*
X83667171Y-140671321D01*
X82167171Y-140671321D02*
X83667171Y-141671321D01*
X82167171Y-140314178D02*
X82167171Y-139457035D01*
X83667171Y-139885607D02*
X82167171Y-139885607D01*
X83667171Y-138171321D02*
X83667171Y-139028464D01*
X83667171Y-138599892D02*
X82167171Y-138599892D01*
X82381457Y-138742750D01*
X82524314Y-138885607D01*
X82595742Y-139028464D01*
X85506457Y-142885607D02*
X85506457Y-142385607D01*
X86292171Y-142171321D02*
X86292171Y-142885607D01*
X84792171Y-142885607D01*
X84792171Y-142171321D01*
X84792171Y-141671321D02*
X86292171Y-140671321D01*
X84792171Y-140671321D02*
X86292171Y-141671321D01*
X84792171Y-140314178D02*
X84792171Y-139457035D01*
X86292171Y-139885607D02*
X84792171Y-139885607D01*
X84935028Y-139028464D02*
X84863600Y-138957035D01*
X84792171Y-138814178D01*
X84792171Y-138457035D01*
X84863600Y-138314178D01*
X84935028Y-138242750D01*
X85077885Y-138171321D01*
X85220742Y-138171321D01*
X85435028Y-138242750D01*
X86292171Y-139099892D01*
X86292171Y-138171321D01*
X88131457Y-142885607D02*
X88131457Y-142385607D01*
X88917171Y-142171321D02*
X88917171Y-142885607D01*
X87417171Y-142885607D01*
X87417171Y-142171321D01*
X87417171Y-141671321D02*
X88917171Y-140671321D01*
X87417171Y-140671321D02*
X88917171Y-141671321D01*
X87417171Y-140314178D02*
X87417171Y-139457035D01*
X88917171Y-139885607D02*
X87417171Y-139885607D01*
X87417171Y-139099892D02*
X87417171Y-138171321D01*
X87988600Y-138671321D01*
X87988600Y-138457035D01*
X88060028Y-138314178D01*
X88131457Y-138242750D01*
X88274314Y-138171321D01*
X88631457Y-138171321D01*
X88774314Y-138242750D01*
X88845742Y-138314178D01*
X88917171Y-138457035D01*
X88917171Y-138885607D01*
X88845742Y-139028464D01*
X88774314Y-139099892D01*
X90756457Y-142885607D02*
X90756457Y-142385607D01*
X91542171Y-142171321D02*
X91542171Y-142885607D01*
X90042171Y-142885607D01*
X90042171Y-142171321D01*
X90042171Y-141671321D02*
X91542171Y-140671321D01*
X90042171Y-140671321D02*
X91542171Y-141671321D01*
X90042171Y-140314178D02*
X90042171Y-139457035D01*
X91542171Y-139885607D02*
X90042171Y-139885607D01*
X90542171Y-138314178D02*
X91542171Y-138314178D01*
X89970742Y-138671321D02*
X91042171Y-139028464D01*
X91042171Y-138099892D01*
X93381457Y-142885607D02*
X93381457Y-142385607D01*
X94167171Y-142171321D02*
X94167171Y-142885607D01*
X92667171Y-142885607D01*
X92667171Y-142171321D01*
X92667171Y-141671321D02*
X94167171Y-140671321D01*
X92667171Y-140671321D02*
X94167171Y-141671321D01*
X92667171Y-140314178D02*
X92667171Y-139457035D01*
X94167171Y-139885607D02*
X92667171Y-139885607D01*
X92667171Y-138242750D02*
X92667171Y-138957035D01*
X93381457Y-139028464D01*
X93310028Y-138957035D01*
X93238600Y-138814178D01*
X93238600Y-138457035D01*
X93310028Y-138314178D01*
X93381457Y-138242750D01*
X93524314Y-138171321D01*
X93881457Y-138171321D01*
X94024314Y-138242750D01*
X94095742Y-138314178D01*
X94167171Y-138457035D01*
X94167171Y-138814178D01*
X94095742Y-138957035D01*
X94024314Y-139028464D01*
X96006457Y-142885607D02*
X96006457Y-142385607D01*
X96792171Y-142171321D02*
X96792171Y-142885607D01*
X95292171Y-142885607D01*
X95292171Y-142171321D01*
X95292171Y-141671321D02*
X96792171Y-140671321D01*
X95292171Y-140671321D02*
X96792171Y-141671321D01*
X95292171Y-140314178D02*
X95292171Y-139457035D01*
X96792171Y-139885607D02*
X95292171Y-139885607D01*
X95292171Y-138314178D02*
X95292171Y-138599892D01*
X95363600Y-138742750D01*
X95435028Y-138814178D01*
X95649314Y-138957035D01*
X95935028Y-139028464D01*
X96506457Y-139028464D01*
X96649314Y-138957035D01*
X96720742Y-138885607D01*
X96792171Y-138742750D01*
X96792171Y-138457035D01*
X96720742Y-138314178D01*
X96649314Y-138242750D01*
X96506457Y-138171321D01*
X96149314Y-138171321D01*
X96006457Y-138242750D01*
X95935028Y-138314178D01*
X95863600Y-138457035D01*
X95863600Y-138742750D01*
X95935028Y-138885607D01*
X96006457Y-138957035D01*
X96149314Y-139028464D01*
D10*
X75430952Y-158422380D02*
X74954761Y-158422380D01*
X74907142Y-158898571D01*
X74954761Y-158850952D01*
X75050000Y-158803333D01*
X75288095Y-158803333D01*
X75383333Y-158850952D01*
X75430952Y-158898571D01*
X75478571Y-158993809D01*
X75478571Y-159231904D01*
X75430952Y-159327142D01*
X75383333Y-159374761D01*
X75288095Y-159422380D01*
X75050000Y-159422380D01*
X74954761Y-159374761D01*
X74907142Y-159327142D01*
X75811904Y-158422380D02*
X76478571Y-158422380D01*
X76050000Y-159422380D01*
X76907142Y-159374761D02*
X76907142Y-159422380D01*
X76859523Y-159517619D01*
X76811904Y-159565238D01*
X77383333Y-159422380D02*
X77573809Y-159422380D01*
X77669047Y-159374761D01*
X77716666Y-159327142D01*
X77811904Y-159184285D01*
X77859523Y-158993809D01*
X77859523Y-158612857D01*
X77811904Y-158517619D01*
X77764285Y-158470000D01*
X77669047Y-158422380D01*
X77478571Y-158422380D01*
X77383333Y-158470000D01*
X77335714Y-158517619D01*
X77288095Y-158612857D01*
X77288095Y-158850952D01*
X77335714Y-158946190D01*
X77383333Y-158993809D01*
X77478571Y-159041428D01*
X77669047Y-159041428D01*
X77764285Y-158993809D01*
X77811904Y-158946190D01*
X77859523Y-158850952D01*
X78478571Y-158422380D02*
X78573809Y-158422380D01*
X78669047Y-158470000D01*
X78716666Y-158517619D01*
X78764285Y-158612857D01*
X78811904Y-158803333D01*
X78811904Y-159041428D01*
X78764285Y-159231904D01*
X78716666Y-159327142D01*
X78669047Y-159374761D01*
X78573809Y-159422380D01*
X78478571Y-159422380D01*
X78383333Y-159374761D01*
X78335714Y-159327142D01*
X78288095Y-159231904D01*
X78240476Y-159041428D01*
X78240476Y-158803333D01*
X78288095Y-158612857D01*
X78335714Y-158517619D01*
X78383333Y-158470000D01*
X78478571Y-158422380D01*
X79430952Y-158422380D02*
X79526190Y-158422380D01*
X79621428Y-158470000D01*
X79669047Y-158517619D01*
X79716666Y-158612857D01*
X79764285Y-158803333D01*
X79764285Y-159041428D01*
X79716666Y-159231904D01*
X79669047Y-159327142D01*
X79621428Y-159374761D01*
X79526190Y-159422380D01*
X79430952Y-159422380D01*
X79335714Y-159374761D01*
X79288095Y-159327142D01*
X79240476Y-159231904D01*
X79192857Y-159041428D01*
X79192857Y-158803333D01*
X79240476Y-158612857D01*
X79288095Y-158517619D01*
X79335714Y-158470000D01*
X79430952Y-158422380D01*
X80954761Y-159422380D02*
X80954761Y-158755714D01*
X80954761Y-158850952D02*
X81002380Y-158803333D01*
X81097619Y-158755714D01*
X81240476Y-158755714D01*
X81335714Y-158803333D01*
X81383333Y-158898571D01*
X81383333Y-159422380D01*
X81383333Y-158898571D02*
X81430952Y-158803333D01*
X81526190Y-158755714D01*
X81669047Y-158755714D01*
X81764285Y-158803333D01*
X81811904Y-158898571D01*
X81811904Y-159422380D01*
X82288095Y-159422380D02*
X82288095Y-158755714D01*
X82288095Y-158850952D02*
X82335714Y-158803333D01*
X82430952Y-158755714D01*
X82573809Y-158755714D01*
X82669047Y-158803333D01*
X82716666Y-158898571D01*
X82716666Y-159422380D01*
X82716666Y-158898571D02*
X82764285Y-158803333D01*
X82859523Y-158755714D01*
X83002380Y-158755714D01*
X83097619Y-158803333D01*
X83145238Y-158898571D01*
X83145238Y-159422380D01*
D12*
X50100000Y-157700000D02*
X108000000Y-157700000D01*
X50100000Y-149900000D02*
X50100000Y-158286421D01*
X108000000Y-149900000D02*
X108000000Y-158286421D01*
X108000000Y-157700000D02*
X106873496Y-158286421D01*
X108000000Y-157700000D02*
X106873496Y-157113579D01*
X50100000Y-157700000D02*
X51226504Y-158286421D01*
X50100000Y-157700000D02*
X51226504Y-157113579D01*
D10*
X42794285Y-125608333D02*
X42127619Y-125608333D01*
X43175238Y-125370238D02*
X42460952Y-125132142D01*
X42460952Y-125751190D01*
X42127619Y-126655952D02*
X42127619Y-126084523D01*
X42127619Y-126370238D02*
X43127619Y-126370238D01*
X42984761Y-126275000D01*
X42889523Y-126179761D01*
X42841904Y-126084523D01*
X42175238Y-127132142D02*
X42127619Y-127132142D01*
X42032380Y-127084523D01*
X41984761Y-127036904D01*
X43032380Y-127513095D02*
X43080000Y-127560714D01*
X43127619Y-127655952D01*
X43127619Y-127894047D01*
X43080000Y-127989285D01*
X43032380Y-128036904D01*
X42937142Y-128084523D01*
X42841904Y-128084523D01*
X42699047Y-128036904D01*
X42127619Y-127465476D01*
X42127619Y-128084523D01*
X43127619Y-128989285D02*
X43127619Y-128513095D01*
X42651428Y-128465476D01*
X42699047Y-128513095D01*
X42746666Y-128608333D01*
X42746666Y-128846428D01*
X42699047Y-128941666D01*
X42651428Y-128989285D01*
X42556190Y-129036904D01*
X42318095Y-129036904D01*
X42222857Y-128989285D01*
X42175238Y-128941666D01*
X42127619Y-128846428D01*
X42127619Y-128608333D01*
X42175238Y-128513095D01*
X42222857Y-128465476D01*
X43127619Y-129655952D02*
X43127619Y-129751190D01*
X43080000Y-129846428D01*
X43032380Y-129894047D01*
X42937142Y-129941666D01*
X42746666Y-129989285D01*
X42508571Y-129989285D01*
X42318095Y-129941666D01*
X42222857Y-129894047D01*
X42175238Y-129846428D01*
X42127619Y-129751190D01*
X42127619Y-129655952D01*
X42175238Y-129560714D01*
X42222857Y-129513095D01*
X42318095Y-129465476D01*
X42508571Y-129417857D01*
X42746666Y-129417857D01*
X42937142Y-129465476D01*
X43032380Y-129513095D01*
X43080000Y-129560714D01*
X43127619Y-129655952D01*
X42127619Y-131179761D02*
X42794285Y-131179761D01*
X42699047Y-131179761D02*
X42746666Y-131227380D01*
X42794285Y-131322619D01*
X42794285Y-131465476D01*
X42746666Y-131560714D01*
X42651428Y-131608333D01*
X42127619Y-131608333D01*
X42651428Y-131608333D02*
X42746666Y-131655952D01*
X42794285Y-131751190D01*
X42794285Y-131894047D01*
X42746666Y-131989285D01*
X42651428Y-132036904D01*
X42127619Y-132036904D01*
X42127619Y-132513095D02*
X42794285Y-132513095D01*
X42699047Y-132513095D02*
X42746666Y-132560714D01*
X42794285Y-132655952D01*
X42794285Y-132798809D01*
X42746666Y-132894047D01*
X42651428Y-132941666D01*
X42127619Y-132941666D01*
X42651428Y-132941666D02*
X42746666Y-132989285D01*
X42794285Y-133084523D01*
X42794285Y-133227380D01*
X42746666Y-133322619D01*
X42651428Y-133370238D01*
X42127619Y-133370238D01*
D12*
X43850000Y-108650000D02*
X43850000Y-149900000D01*
X50100000Y-108650000D02*
X43263579Y-108650000D01*
X50100000Y-149900000D02*
X43263579Y-149900000D01*
X43850000Y-149900000D02*
X43263579Y-148773496D01*
X43850000Y-149900000D02*
X44436421Y-148773496D01*
X43850000Y-108650000D02*
X43263579Y-109776504D01*
X43850000Y-108650000D02*
X44436421Y-109776504D01*
X80235000Y-110205000D02*
X77950000Y-110205000D01*
X80235000Y-111675000D02*
X80235000Y-110205000D01*
X77950000Y-111675000D02*
X80235000Y-111675000D01*
X100360000Y-132620000D02*
X101630000Y-132620000D01*
X100360000Y-133890000D02*
X100360000Y-132620000D01*
X102672929Y-146970000D02*
X103127071Y-146970000D01*
X102672929Y-146210000D02*
X103127071Y-146210000D01*
X105212929Y-146970000D02*
X105610000Y-146970000D01*
X105212929Y-146210000D02*
X105610000Y-146210000D01*
X114270000Y-146970000D02*
X108270000Y-146970000D01*
X114270000Y-146210000D02*
X114270000Y-146970000D01*
X108270000Y-146210000D02*
X114270000Y-146210000D01*
X105610000Y-145320000D02*
X108270000Y-145320000D01*
X102672929Y-144430000D02*
X103127071Y-144430000D01*
X102672929Y-143670000D02*
X103127071Y-143670000D01*
X105212929Y-144430000D02*
X105610000Y-144430000D01*
X105212929Y-143670000D02*
X105610000Y-143670000D01*
X114270000Y-144430000D02*
X108270000Y-144430000D01*
X114270000Y-143670000D02*
X114270000Y-144430000D01*
X108270000Y-143670000D02*
X114270000Y-143670000D01*
X105610000Y-142780000D02*
X108270000Y-142780000D01*
X102672929Y-141890000D02*
X103127071Y-141890000D01*
X102672929Y-141130000D02*
X103127071Y-141130000D01*
X105212929Y-141890000D02*
X105610000Y-141890000D01*
X105212929Y-141130000D02*
X105610000Y-141130000D01*
X114270000Y-141890000D02*
X108270000Y-141890000D01*
X114270000Y-141130000D02*
X114270000Y-141890000D01*
X108270000Y-141130000D02*
X114270000Y-141130000D01*
X105610000Y-140240000D02*
X108270000Y-140240000D01*
X102672929Y-139350000D02*
X103127071Y-139350000D01*
X102672929Y-138590000D02*
X103127071Y-138590000D01*
X105212929Y-139350000D02*
X105610000Y-139350000D01*
X105212929Y-138590000D02*
X105610000Y-138590000D01*
X114270000Y-139350000D02*
X108270000Y-139350000D01*
X114270000Y-138590000D02*
X114270000Y-139350000D01*
X108270000Y-138590000D02*
X114270000Y-138590000D01*
X105610000Y-137700000D02*
X108270000Y-137700000D01*
X102672929Y-136810000D02*
X103127071Y-136810000D01*
X102672929Y-136050000D02*
X103127071Y-136050000D01*
X105212929Y-136810000D02*
X105610000Y-136810000D01*
X105212929Y-136050000D02*
X105610000Y-136050000D01*
X114270000Y-136810000D02*
X108270000Y-136810000D01*
X114270000Y-136050000D02*
X114270000Y-136810000D01*
X108270000Y-136050000D02*
X114270000Y-136050000D01*
X105610000Y-135160000D02*
X108270000Y-135160000D01*
X102740000Y-134270000D02*
X103127071Y-134270000D01*
X102740000Y-133510000D02*
X103127071Y-133510000D01*
X105212929Y-134270000D02*
X105610000Y-134270000D01*
X105212929Y-133510000D02*
X105610000Y-133510000D01*
X108270000Y-134170000D02*
X114270000Y-134170000D01*
X108270000Y-134050000D02*
X114270000Y-134050000D01*
X108270000Y-133930000D02*
X114270000Y-133930000D01*
X108270000Y-133810000D02*
X114270000Y-133810000D01*
X108270000Y-133690000D02*
X114270000Y-133690000D01*
X108270000Y-133570000D02*
X114270000Y-133570000D01*
X114270000Y-134270000D02*
X108270000Y-134270000D01*
X114270000Y-133510000D02*
X114270000Y-134270000D01*
X108270000Y-133510000D02*
X114270000Y-133510000D01*
X108270000Y-132560000D02*
X105610000Y-132560000D01*
X108270000Y-147920000D02*
X108270000Y-132560000D01*
X105610000Y-147920000D02*
X108270000Y-147920000D01*
X105610000Y-132560000D02*
X105610000Y-147920000D01*
X100390000Y-109770000D02*
X101660000Y-109770000D01*
X100390000Y-111040000D02*
X100390000Y-109770000D01*
X102702929Y-124120000D02*
X103157071Y-124120000D01*
X102702929Y-123360000D02*
X103157071Y-123360000D01*
X105242929Y-124120000D02*
X105640000Y-124120000D01*
X105242929Y-123360000D02*
X105640000Y-123360000D01*
X114300000Y-124120000D02*
X108300000Y-124120000D01*
X114300000Y-123360000D02*
X114300000Y-124120000D01*
X108300000Y-123360000D02*
X114300000Y-123360000D01*
X105640000Y-122470000D02*
X108300000Y-122470000D01*
X102702929Y-121580000D02*
X103157071Y-121580000D01*
X102702929Y-120820000D02*
X103157071Y-120820000D01*
X105242929Y-121580000D02*
X105640000Y-121580000D01*
X105242929Y-120820000D02*
X105640000Y-120820000D01*
X114300000Y-121580000D02*
X108300000Y-121580000D01*
X114300000Y-120820000D02*
X114300000Y-121580000D01*
X108300000Y-120820000D02*
X114300000Y-120820000D01*
X105640000Y-119930000D02*
X108300000Y-119930000D01*
X102702929Y-119040000D02*
X103157071Y-119040000D01*
X102702929Y-118280000D02*
X103157071Y-118280000D01*
X105242929Y-119040000D02*
X105640000Y-119040000D01*
X105242929Y-118280000D02*
X105640000Y-118280000D01*
X114300000Y-119040000D02*
X108300000Y-119040000D01*
X114300000Y-118280000D02*
X114300000Y-119040000D01*
X108300000Y-118280000D02*
X114300000Y-118280000D01*
X105640000Y-117390000D02*
X108300000Y-117390000D01*
X102702929Y-116500000D02*
X103157071Y-116500000D01*
X102702929Y-115740000D02*
X103157071Y-115740000D01*
X105242929Y-116500000D02*
X105640000Y-116500000D01*
X105242929Y-115740000D02*
X105640000Y-115740000D01*
X114300000Y-116500000D02*
X108300000Y-116500000D01*
X114300000Y-115740000D02*
X114300000Y-116500000D01*
X108300000Y-115740000D02*
X114300000Y-115740000D01*
X105640000Y-114850000D02*
X108300000Y-114850000D01*
X102702929Y-113960000D02*
X103157071Y-113960000D01*
X102702929Y-113200000D02*
X103157071Y-113200000D01*
X105242929Y-113960000D02*
X105640000Y-113960000D01*
X105242929Y-113200000D02*
X105640000Y-113200000D01*
X114300000Y-113960000D02*
X108300000Y-113960000D01*
X114300000Y-113200000D02*
X114300000Y-113960000D01*
X108300000Y-113200000D02*
X114300000Y-113200000D01*
X105640000Y-112310000D02*
X108300000Y-112310000D01*
X102770000Y-111420000D02*
X103157071Y-111420000D01*
X102770000Y-110660000D02*
X103157071Y-110660000D01*
X105242929Y-111420000D02*
X105640000Y-111420000D01*
X105242929Y-110660000D02*
X105640000Y-110660000D01*
X108300000Y-111320000D02*
X114300000Y-111320000D01*
X108300000Y-111200000D02*
X114300000Y-111200000D01*
X108300000Y-111080000D02*
X114300000Y-111080000D01*
X108300000Y-110960000D02*
X114300000Y-110960000D01*
X108300000Y-110840000D02*
X114300000Y-110840000D01*
X108300000Y-110720000D02*
X114300000Y-110720000D01*
X114300000Y-111420000D02*
X108300000Y-111420000D01*
X114300000Y-110660000D02*
X114300000Y-111420000D01*
X108300000Y-110660000D02*
X114300000Y-110660000D01*
X108300000Y-109710000D02*
X105640000Y-109710000D01*
X108300000Y-125070000D02*
X108300000Y-109710000D01*
X105640000Y-125070000D02*
X108300000Y-125070000D01*
X105640000Y-109710000D02*
X105640000Y-125070000D01*
D10*
X63225000Y-117825000D02*
X61800000Y-117825000D01*
X63225000Y-136250000D02*
X70975000Y-136250000D01*
X63225000Y-117550000D02*
X70975000Y-117550000D01*
X63225000Y-136250000D02*
X63225000Y-135897500D01*
X70975000Y-136250000D02*
X70975000Y-135897500D01*
X70975000Y-117550000D02*
X70975000Y-117902500D01*
X63225000Y-117550000D02*
X63225000Y-117825000D01*
D12*
X83387221Y-111460000D02*
X83712779Y-111460000D01*
X83387221Y-110440000D02*
X83712779Y-110440000D01*
X93724721Y-111410000D02*
X94050279Y-111410000D01*
X93724721Y-110390000D02*
X94050279Y-110390000D01*
X51770000Y-115160000D02*
X53100000Y-115160000D01*
X51770000Y-116490000D02*
X51770000Y-115160000D01*
X54370000Y-115160000D02*
X56970000Y-115160000D01*
X54370000Y-117760000D02*
X54370000Y-115160000D01*
X51770000Y-117760000D02*
X54370000Y-117760000D01*
X56970000Y-115160000D02*
X56970000Y-140680000D01*
X51770000Y-117760000D02*
X51770000Y-140680000D01*
X51770000Y-140680000D02*
X56970000Y-140680000D01*
X77320000Y-112570000D02*
X78650000Y-112570000D01*
X77320000Y-113900000D02*
X77320000Y-112570000D01*
X79920000Y-112570000D02*
X82520000Y-112570000D01*
X79920000Y-115170000D02*
X79920000Y-112570000D01*
X77320000Y-115170000D02*
X79920000Y-115170000D01*
X82520000Y-112570000D02*
X82520000Y-138090000D01*
X77320000Y-115170000D02*
X77320000Y-138090000D01*
X77320000Y-138090000D02*
X82520000Y-138090000D01*
X87770000Y-112570000D02*
X89100000Y-112570000D01*
X87770000Y-113900000D02*
X87770000Y-112570000D01*
X90370000Y-112570000D02*
X92970000Y-112570000D01*
X90370000Y-115170000D02*
X90370000Y-112570000D01*
X87770000Y-115170000D02*
X90370000Y-115170000D01*
X92970000Y-112570000D02*
X92970000Y-138090000D01*
X87770000Y-115170000D02*
X87770000Y-138090000D01*
X87770000Y-138090000D02*
X92970000Y-138090000D01*
X71470000Y-148230000D02*
X71470000Y-146900000D01*
X72800000Y-148230000D02*
X71470000Y-148230000D01*
X71470000Y-145630000D02*
X71470000Y-143030000D01*
X74070000Y-145630000D02*
X71470000Y-145630000D01*
X74070000Y-148230000D02*
X74070000Y-145630000D01*
X71470000Y-143030000D02*
X96990000Y-143030000D01*
X74070000Y-148230000D02*
X96990000Y-148230000D01*
X96990000Y-148230000D02*
X96990000Y-143030000D01*
X90372500Y-110205000D02*
X88087500Y-110205000D01*
X90372500Y-111675000D02*
X90372500Y-110205000D01*
X88087500Y-111675000D02*
X90372500Y-111675000D01*
X63560000Y-139577221D02*
X63560000Y-139902779D01*
X64580000Y-139577221D02*
X64580000Y-139902779D01*
X67370000Y-139577221D02*
X67370000Y-139902779D01*
X68390000Y-139577221D02*
X68390000Y-139902779D01*
D10*
X57697876Y-147151980D02*
X57697876Y-146151980D01*
X58031209Y-146866266D01*
X58364542Y-146151980D01*
X58364542Y-147151980D01*
X58793114Y-146247219D02*
X58840733Y-146199600D01*
X58935971Y-146151980D01*
X59174066Y-146151980D01*
X59269304Y-146199600D01*
X59316923Y-146247219D01*
X59364542Y-146342457D01*
X59364542Y-146437695D01*
X59316923Y-146580552D01*
X58745495Y-147151980D01*
X59364542Y-147151980D01*
X77911504Y-109788580D02*
X77911504Y-108788580D01*
X78149600Y-108788580D01*
X78292457Y-108836200D01*
X78387695Y-108931438D01*
X78435314Y-109026676D01*
X78482933Y-109217152D01*
X78482933Y-109360009D01*
X78435314Y-109550485D01*
X78387695Y-109645723D01*
X78292457Y-109740961D01*
X78149600Y-109788580D01*
X77911504Y-109788580D01*
X79435314Y-109788580D02*
X78863885Y-109788580D01*
X79149600Y-109788580D02*
X79149600Y-108788580D01*
X79054361Y-108931438D01*
X78959123Y-109026676D01*
X78863885Y-109074295D01*
X99133561Y-130845180D02*
X99133561Y-129845180D01*
X99514514Y-129845180D01*
X99609752Y-129892800D01*
X99657371Y-129940419D01*
X99704990Y-130035657D01*
X99704990Y-130178514D01*
X99657371Y-130273752D01*
X99609752Y-130321371D01*
X99514514Y-130368990D01*
X99133561Y-130368990D01*
X100133561Y-130845180D02*
X100133561Y-129845180D01*
X100466895Y-130559466D01*
X100800228Y-129845180D01*
X100800228Y-130845180D01*
X101466895Y-129845180D02*
X101657371Y-129845180D01*
X101752609Y-129892800D01*
X101847847Y-129988038D01*
X101895466Y-130178514D01*
X101895466Y-130511847D01*
X101847847Y-130702323D01*
X101752609Y-130797561D01*
X101657371Y-130845180D01*
X101466895Y-130845180D01*
X101371657Y-130797561D01*
X101276419Y-130702323D01*
X101228800Y-130511847D01*
X101228800Y-130178514D01*
X101276419Y-129988038D01*
X101371657Y-129892800D01*
X101466895Y-129845180D01*
X102324038Y-130845180D02*
X102324038Y-129845180D01*
X102562133Y-129845180D01*
X102704990Y-129892800D01*
X102800228Y-129988038D01*
X102847847Y-130083276D01*
X102895466Y-130273752D01*
X102895466Y-130416609D01*
X102847847Y-130607085D01*
X102800228Y-130702323D01*
X102704990Y-130797561D01*
X102562133Y-130845180D01*
X102324038Y-130845180D01*
X103085942Y-130940419D02*
X103847847Y-130940419D01*
X104371657Y-129845180D02*
X104371657Y-130559466D01*
X104324038Y-130702323D01*
X104228800Y-130797561D01*
X104085942Y-130845180D01*
X103990704Y-130845180D01*
X105181180Y-130321371D02*
X105324038Y-130368990D01*
X105371657Y-130416609D01*
X105419276Y-130511847D01*
X105419276Y-130654704D01*
X105371657Y-130749942D01*
X105324038Y-130797561D01*
X105228800Y-130845180D01*
X104847847Y-130845180D01*
X104847847Y-129845180D01*
X105181180Y-129845180D01*
X105276419Y-129892800D01*
X105324038Y-129940419D01*
X105371657Y-130035657D01*
X105371657Y-130130895D01*
X105324038Y-130226133D01*
X105276419Y-130273752D01*
X105181180Y-130321371D01*
X104847847Y-130321371D01*
X106371657Y-130845180D02*
X105800228Y-130845180D01*
X106085942Y-130845180D02*
X106085942Y-129845180D01*
X105990704Y-129988038D01*
X105895466Y-130083276D01*
X105800228Y-130130895D01*
X99154190Y-126857380D02*
X99154190Y-125857380D01*
X99535142Y-125857380D01*
X99630380Y-125905000D01*
X99678000Y-125952619D01*
X99725619Y-126047857D01*
X99725619Y-126190714D01*
X99678000Y-126285952D01*
X99630380Y-126333571D01*
X99535142Y-126381190D01*
X99154190Y-126381190D01*
X100154190Y-126857380D02*
X100154190Y-125857380D01*
X100487523Y-126571666D01*
X100820857Y-125857380D01*
X100820857Y-126857380D01*
X101487523Y-125857380D02*
X101678000Y-125857380D01*
X101773238Y-125905000D01*
X101868476Y-126000238D01*
X101916095Y-126190714D01*
X101916095Y-126524047D01*
X101868476Y-126714523D01*
X101773238Y-126809761D01*
X101678000Y-126857380D01*
X101487523Y-126857380D01*
X101392285Y-126809761D01*
X101297047Y-126714523D01*
X101249428Y-126524047D01*
X101249428Y-126190714D01*
X101297047Y-126000238D01*
X101392285Y-125905000D01*
X101487523Y-125857380D01*
X102344666Y-126857380D02*
X102344666Y-125857380D01*
X102582761Y-125857380D01*
X102725619Y-125905000D01*
X102820857Y-126000238D01*
X102868476Y-126095476D01*
X102916095Y-126285952D01*
X102916095Y-126428809D01*
X102868476Y-126619285D01*
X102820857Y-126714523D01*
X102725619Y-126809761D01*
X102582761Y-126857380D01*
X102344666Y-126857380D01*
X103106571Y-126952619D02*
X103868476Y-126952619D01*
X104392285Y-125857380D02*
X104392285Y-126571666D01*
X104344666Y-126714523D01*
X104249428Y-126809761D01*
X104106571Y-126857380D01*
X104011333Y-126857380D01*
X104820857Y-126571666D02*
X105297047Y-126571666D01*
X104725619Y-126857380D02*
X105058952Y-125857380D01*
X105392285Y-126857380D01*
X106249428Y-126857380D02*
X105678000Y-126857380D01*
X105963714Y-126857380D02*
X105963714Y-125857380D01*
X105868476Y-126000238D01*
X105773238Y-126095476D01*
X105678000Y-126143095D01*
X66338095Y-116077380D02*
X66338095Y-116886904D01*
X66385714Y-116982142D01*
X66433333Y-117029761D01*
X66528571Y-117077380D01*
X66719047Y-117077380D01*
X66814285Y-117029761D01*
X66861904Y-116982142D01*
X66909523Y-116886904D01*
X66909523Y-116077380D01*
X67909523Y-117077380D02*
X67338095Y-117077380D01*
X67623809Y-117077380D02*
X67623809Y-116077380D01*
X67528571Y-116220238D01*
X67433333Y-116315476D01*
X67338095Y-116363095D01*
X83397833Y-110017180D02*
X83064500Y-109540990D01*
X82826404Y-110017180D02*
X82826404Y-109017180D01*
X83207357Y-109017180D01*
X83302595Y-109064800D01*
X83350214Y-109112419D01*
X83397833Y-109207657D01*
X83397833Y-109350514D01*
X83350214Y-109445752D01*
X83302595Y-109493371D01*
X83207357Y-109540990D01*
X82826404Y-109540990D01*
X84350214Y-110017180D02*
X83778785Y-110017180D01*
X84064500Y-110017180D02*
X84064500Y-109017180D01*
X83969261Y-109160038D01*
X83874023Y-109255276D01*
X83778785Y-109302895D01*
X93720833Y-109922380D02*
X93387500Y-109446190D01*
X93149404Y-109922380D02*
X93149404Y-108922380D01*
X93530357Y-108922380D01*
X93625595Y-108970000D01*
X93673214Y-109017619D01*
X93720833Y-109112857D01*
X93720833Y-109255714D01*
X93673214Y-109350952D01*
X93625595Y-109398571D01*
X93530357Y-109446190D01*
X93149404Y-109446190D01*
X94339880Y-108922380D02*
X94435119Y-108922380D01*
X94530357Y-108970000D01*
X94577976Y-109017619D01*
X94625595Y-109112857D01*
X94673214Y-109303333D01*
X94673214Y-109541428D01*
X94625595Y-109731904D01*
X94577976Y-109827142D01*
X94530357Y-109874761D01*
X94435119Y-109922380D01*
X94339880Y-109922380D01*
X94244642Y-109874761D01*
X94197023Y-109827142D01*
X94149404Y-109731904D01*
X94101785Y-109541428D01*
X94101785Y-109303333D01*
X94149404Y-109112857D01*
X94197023Y-109017619D01*
X94244642Y-108970000D01*
X94339880Y-108922380D01*
X57647871Y-132282071D02*
X58719300Y-132282071D01*
X58933585Y-132353500D01*
X59076442Y-132496357D01*
X59147871Y-132710642D01*
X59147871Y-132853500D01*
X57647871Y-131782071D02*
X57647871Y-130924928D01*
X59147871Y-131353500D02*
X57647871Y-131353500D01*
X58719300Y-130496357D02*
X58719300Y-129782071D01*
X59147871Y-130639214D02*
X57647871Y-130139214D01*
X59147871Y-129639214D01*
X57719300Y-128353500D02*
X57647871Y-128496357D01*
X57647871Y-128710642D01*
X57719300Y-128924928D01*
X57862157Y-129067785D01*
X58005014Y-129139214D01*
X58290728Y-129210642D01*
X58505014Y-129210642D01*
X58790728Y-129139214D01*
X58933585Y-129067785D01*
X59076442Y-128924928D01*
X59147871Y-128710642D01*
X59147871Y-128567785D01*
X59076442Y-128353500D01*
X59005014Y-128282071D01*
X58505014Y-128282071D01*
X58505014Y-128567785D01*
X59290728Y-127996357D02*
X59290728Y-126853500D01*
X57647871Y-126210642D02*
X57647871Y-125924928D01*
X57719300Y-125782071D01*
X57862157Y-125639214D01*
X58147871Y-125567785D01*
X58647871Y-125567785D01*
X58933585Y-125639214D01*
X59076442Y-125782071D01*
X59147871Y-125924928D01*
X59147871Y-126210642D01*
X59076442Y-126353500D01*
X58933585Y-126496357D01*
X58647871Y-126567785D01*
X58147871Y-126567785D01*
X57862157Y-126496357D01*
X57719300Y-126353500D01*
X57647871Y-126210642D01*
X57647871Y-124924928D02*
X58862157Y-124924928D01*
X59005014Y-124853500D01*
X59076442Y-124782071D01*
X59147871Y-124639214D01*
X59147871Y-124353500D01*
X59076442Y-124210642D01*
X59005014Y-124139214D01*
X58862157Y-124067785D01*
X57647871Y-124067785D01*
X57647871Y-123567785D02*
X57647871Y-122710642D01*
X59147871Y-123139214D02*
X57647871Y-123139214D01*
X57647871Y-121924928D02*
X57647871Y-121782071D01*
X57719300Y-121639214D01*
X57790728Y-121567785D01*
X57933585Y-121496357D01*
X58219300Y-121424928D01*
X58576442Y-121424928D01*
X58862157Y-121496357D01*
X59005014Y-121567785D01*
X59076442Y-121639214D01*
X59147871Y-121782071D01*
X59147871Y-121924928D01*
X59076442Y-122067785D01*
X59005014Y-122139214D01*
X58862157Y-122210642D01*
X58576442Y-122282071D01*
X58219300Y-122282071D01*
X57933585Y-122210642D01*
X57790728Y-122139214D01*
X57719300Y-122067785D01*
X57647871Y-121924928D01*
X74767471Y-123890671D02*
X75838900Y-123890671D01*
X76053185Y-123962100D01*
X76196042Y-124104957D01*
X76267471Y-124319242D01*
X76267471Y-124462100D01*
X74767471Y-123390671D02*
X74767471Y-122533528D01*
X76267471Y-122962100D02*
X74767471Y-122962100D01*
X75838900Y-122104957D02*
X75838900Y-121390671D01*
X76267471Y-122247814D02*
X74767471Y-121747814D01*
X76267471Y-121247814D01*
X74838900Y-119962100D02*
X74767471Y-120104957D01*
X74767471Y-120319242D01*
X74838900Y-120533528D01*
X74981757Y-120676385D01*
X75124614Y-120747814D01*
X75410328Y-120819242D01*
X75624614Y-120819242D01*
X75910328Y-120747814D01*
X76053185Y-120676385D01*
X76196042Y-120533528D01*
X76267471Y-120319242D01*
X76267471Y-120176385D01*
X76196042Y-119962100D01*
X76124614Y-119890671D01*
X75624614Y-119890671D01*
X75624614Y-120176385D01*
X76410328Y-119604957D02*
X76410328Y-118462100D01*
X76267471Y-118104957D02*
X74767471Y-118104957D01*
X76267471Y-117390671D02*
X74767471Y-117390671D01*
X76267471Y-116533528D01*
X74767471Y-116533528D01*
X76267471Y-115033528D02*
X76267471Y-115890671D01*
X76267471Y-115462100D02*
X74767471Y-115462100D01*
X74981757Y-115604957D01*
X75124614Y-115747814D01*
X75196042Y-115890671D01*
X85397371Y-123890671D02*
X86468800Y-123890671D01*
X86683085Y-123962100D01*
X86825942Y-124104957D01*
X86897371Y-124319242D01*
X86897371Y-124462100D01*
X85397371Y-123390671D02*
X85397371Y-122533528D01*
X86897371Y-122962100D02*
X85397371Y-122962100D01*
X86468800Y-122104957D02*
X86468800Y-121390671D01*
X86897371Y-122247814D02*
X85397371Y-121747814D01*
X86897371Y-121247814D01*
X85468800Y-119962100D02*
X85397371Y-120104957D01*
X85397371Y-120319242D01*
X85468800Y-120533528D01*
X85611657Y-120676385D01*
X85754514Y-120747814D01*
X86040228Y-120819242D01*
X86254514Y-120819242D01*
X86540228Y-120747814D01*
X86683085Y-120676385D01*
X86825942Y-120533528D01*
X86897371Y-120319242D01*
X86897371Y-120176385D01*
X86825942Y-119962100D01*
X86754514Y-119890671D01*
X86254514Y-119890671D01*
X86254514Y-120176385D01*
X87040228Y-119604957D02*
X87040228Y-118462100D01*
X86897371Y-118104957D02*
X85397371Y-118104957D01*
X86897371Y-117390671D02*
X85397371Y-117390671D01*
X86897371Y-116533528D01*
X85397371Y-116533528D01*
X85397371Y-115533528D02*
X85397371Y-115390671D01*
X85468800Y-115247814D01*
X85540228Y-115176385D01*
X85683085Y-115104957D01*
X85968800Y-115033528D01*
X86325942Y-115033528D01*
X86611657Y-115104957D01*
X86754514Y-115176385D01*
X86825942Y-115247814D01*
X86897371Y-115390671D01*
X86897371Y-115533528D01*
X86825942Y-115676385D01*
X86754514Y-115747814D01*
X86611657Y-115819242D01*
X86325942Y-115890671D01*
X85968800Y-115890671D01*
X85683085Y-115819242D01*
X85540228Y-115747814D01*
X85468800Y-115676385D01*
X85397371Y-115533528D01*
X67703723Y-148450680D02*
X67703723Y-149164966D01*
X67656104Y-149307823D01*
X67560866Y-149403061D01*
X67418009Y-149450680D01*
X67322771Y-149450680D01*
X68703723Y-149450680D02*
X68132295Y-149450680D01*
X68418009Y-149450680D02*
X68418009Y-148450680D01*
X68322771Y-148593538D01*
X68227533Y-148688776D01*
X68132295Y-148736395D01*
X70179914Y-149831633D02*
X70132295Y-149784014D01*
X70037057Y-149641157D01*
X69989438Y-149545919D01*
X69941819Y-149403061D01*
X69894200Y-149164966D01*
X69894200Y-148974490D01*
X69941819Y-148736395D01*
X69989438Y-148593538D01*
X70037057Y-148498300D01*
X70132295Y-148355442D01*
X70179914Y-148307823D01*
X70560866Y-148926871D02*
X70894200Y-148926871D01*
X71037057Y-149450680D02*
X70560866Y-149450680D01*
X70560866Y-148450680D01*
X71037057Y-148450680D01*
X71370390Y-149450680D02*
X71894200Y-148784014D01*
X71370390Y-148784014D02*
X71894200Y-149450680D01*
X72275152Y-148784014D02*
X72275152Y-149784014D01*
X72275152Y-148831633D02*
X72370390Y-148784014D01*
X72560866Y-148784014D01*
X72656104Y-148831633D01*
X72703723Y-148879252D01*
X72751342Y-148974490D01*
X72751342Y-149260204D01*
X72703723Y-149355442D01*
X72656104Y-149403061D01*
X72560866Y-149450680D01*
X72370390Y-149450680D01*
X72275152Y-149403061D01*
X73560866Y-149403061D02*
X73465628Y-149450680D01*
X73275152Y-149450680D01*
X73179914Y-149403061D01*
X73132295Y-149307823D01*
X73132295Y-148926871D01*
X73179914Y-148831633D01*
X73275152Y-148784014D01*
X73465628Y-148784014D01*
X73560866Y-148831633D01*
X73608485Y-148926871D01*
X73608485Y-149022109D01*
X73132295Y-149117347D01*
X74037057Y-148784014D02*
X74037057Y-149450680D01*
X74037057Y-148879252D02*
X74084676Y-148831633D01*
X74179914Y-148784014D01*
X74322771Y-148784014D01*
X74418009Y-148831633D01*
X74465628Y-148926871D01*
X74465628Y-149450680D01*
X74894200Y-149403061D02*
X74989438Y-149450680D01*
X75179914Y-149450680D01*
X75275152Y-149403061D01*
X75322771Y-149307823D01*
X75322771Y-149260204D01*
X75275152Y-149164966D01*
X75179914Y-149117347D01*
X75037057Y-149117347D01*
X74941819Y-149069728D01*
X74894200Y-148974490D01*
X74894200Y-148926871D01*
X74941819Y-148831633D01*
X75037057Y-148784014D01*
X75179914Y-148784014D01*
X75275152Y-148831633D01*
X75751342Y-149450680D02*
X75751342Y-148784014D01*
X75751342Y-148450680D02*
X75703723Y-148498300D01*
X75751342Y-148545919D01*
X75798961Y-148498300D01*
X75751342Y-148450680D01*
X75751342Y-148545919D01*
X76370390Y-149450680D02*
X76275152Y-149403061D01*
X76227533Y-149355442D01*
X76179914Y-149260204D01*
X76179914Y-148974490D01*
X76227533Y-148879252D01*
X76275152Y-148831633D01*
X76370390Y-148784014D01*
X76513247Y-148784014D01*
X76608485Y-148831633D01*
X76656104Y-148879252D01*
X76703723Y-148974490D01*
X76703723Y-149260204D01*
X76656104Y-149355442D01*
X76608485Y-149403061D01*
X76513247Y-149450680D01*
X76370390Y-149450680D01*
X77132295Y-148784014D02*
X77132295Y-149450680D01*
X77132295Y-148879252D02*
X77179914Y-148831633D01*
X77275152Y-148784014D01*
X77418009Y-148784014D01*
X77513247Y-148831633D01*
X77560866Y-148926871D01*
X77560866Y-149450680D01*
X79227533Y-149450680D02*
X79227533Y-148926871D01*
X79179914Y-148831633D01*
X79084676Y-148784014D01*
X78894200Y-148784014D01*
X78798961Y-148831633D01*
X79227533Y-149403061D02*
X79132295Y-149450680D01*
X78894200Y-149450680D01*
X78798961Y-149403061D01*
X78751342Y-149307823D01*
X78751342Y-149212585D01*
X78798961Y-149117347D01*
X78894200Y-149069728D01*
X79132295Y-149069728D01*
X79227533Y-149022109D01*
X79703723Y-148784014D02*
X79703723Y-149450680D01*
X79703723Y-148879252D02*
X79751342Y-148831633D01*
X79846580Y-148784014D01*
X79989438Y-148784014D01*
X80084676Y-148831633D01*
X80132295Y-148926871D01*
X80132295Y-149450680D01*
X81037057Y-149450680D02*
X81037057Y-148450680D01*
X81037057Y-149403061D02*
X80941819Y-149450680D01*
X80751342Y-149450680D01*
X80656104Y-149403061D01*
X80608485Y-149355442D01*
X80560866Y-149260204D01*
X80560866Y-148974490D01*
X80608485Y-148879252D01*
X80656104Y-148831633D01*
X80751342Y-148784014D01*
X80941819Y-148784014D01*
X81037057Y-148831633D01*
X82703723Y-149403061D02*
X82608485Y-149450680D01*
X82418009Y-149450680D01*
X82322771Y-149403061D01*
X82275152Y-149355442D01*
X82227533Y-149260204D01*
X82227533Y-148974490D01*
X82275152Y-148879252D01*
X82322771Y-148831633D01*
X82418009Y-148784014D01*
X82608485Y-148784014D01*
X82703723Y-148831633D01*
X83275152Y-149450680D02*
X83179914Y-149403061D01*
X83132295Y-149355442D01*
X83084676Y-149260204D01*
X83084676Y-148974490D01*
X83132295Y-148879252D01*
X83179914Y-148831633D01*
X83275152Y-148784014D01*
X83418009Y-148784014D01*
X83513247Y-148831633D01*
X83560866Y-148879252D01*
X83608485Y-148974490D01*
X83608485Y-149260204D01*
X83560866Y-149355442D01*
X83513247Y-149403061D01*
X83418009Y-149450680D01*
X83275152Y-149450680D01*
X84037057Y-148784014D02*
X84037057Y-149450680D01*
X84037057Y-148879252D02*
X84084676Y-148831633D01*
X84179914Y-148784014D01*
X84322771Y-148784014D01*
X84418009Y-148831633D01*
X84465628Y-148926871D01*
X84465628Y-149450680D01*
X84798961Y-148784014D02*
X85179914Y-148784014D01*
X84941819Y-149450680D02*
X84941819Y-148593538D01*
X84989438Y-148498300D01*
X85084676Y-148450680D01*
X85179914Y-148450680D01*
X85513247Y-149450680D02*
X85513247Y-148784014D01*
X85513247Y-148450680D02*
X85465628Y-148498300D01*
X85513247Y-148545919D01*
X85560866Y-148498300D01*
X85513247Y-148450680D01*
X85513247Y-148545919D01*
X86418009Y-148784014D02*
X86418009Y-149593538D01*
X86370390Y-149688776D01*
X86322771Y-149736395D01*
X86227533Y-149784014D01*
X86084676Y-149784014D01*
X85989438Y-149736395D01*
X86418009Y-149403061D02*
X86322771Y-149450680D01*
X86132295Y-149450680D01*
X86037057Y-149403061D01*
X85989438Y-149355442D01*
X85941819Y-149260204D01*
X85941819Y-148974490D01*
X85989438Y-148879252D01*
X86037057Y-148831633D01*
X86132295Y-148784014D01*
X86322771Y-148784014D01*
X86418009Y-148831633D01*
X87322771Y-148784014D02*
X87322771Y-149450680D01*
X86894200Y-148784014D02*
X86894200Y-149307823D01*
X86941819Y-149403061D01*
X87037057Y-149450680D01*
X87179914Y-149450680D01*
X87275152Y-149403061D01*
X87322771Y-149355442D01*
X87798961Y-149450680D02*
X87798961Y-148784014D01*
X87798961Y-148974490D02*
X87846580Y-148879252D01*
X87894200Y-148831633D01*
X87989438Y-148784014D01*
X88084676Y-148784014D01*
X88846580Y-149450680D02*
X88846580Y-148926871D01*
X88798961Y-148831633D01*
X88703723Y-148784014D01*
X88513247Y-148784014D01*
X88418009Y-148831633D01*
X88846580Y-149403061D02*
X88751342Y-149450680D01*
X88513247Y-149450680D01*
X88418009Y-149403061D01*
X88370390Y-149307823D01*
X88370390Y-149212585D01*
X88418009Y-149117347D01*
X88513247Y-149069728D01*
X88751342Y-149069728D01*
X88846580Y-149022109D01*
X89179914Y-148784014D02*
X89560866Y-148784014D01*
X89322771Y-148450680D02*
X89322771Y-149307823D01*
X89370390Y-149403061D01*
X89465628Y-149450680D01*
X89560866Y-149450680D01*
X89894200Y-149450680D02*
X89894200Y-148784014D01*
X89894200Y-148450680D02*
X89846580Y-148498300D01*
X89894200Y-148545919D01*
X89941819Y-148498300D01*
X89894200Y-148450680D01*
X89894200Y-148545919D01*
X90513247Y-149450680D02*
X90418009Y-149403061D01*
X90370390Y-149355442D01*
X90322771Y-149260204D01*
X90322771Y-148974490D01*
X90370390Y-148879252D01*
X90418009Y-148831633D01*
X90513247Y-148784014D01*
X90656104Y-148784014D01*
X90751342Y-148831633D01*
X90798961Y-148879252D01*
X90846580Y-148974490D01*
X90846580Y-149260204D01*
X90798961Y-149355442D01*
X90751342Y-149403061D01*
X90656104Y-149450680D01*
X90513247Y-149450680D01*
X91275152Y-148784014D02*
X91275152Y-149450680D01*
X91275152Y-148879252D02*
X91322771Y-148831633D01*
X91418009Y-148784014D01*
X91560866Y-148784014D01*
X91656104Y-148831633D01*
X91703723Y-148926871D01*
X91703723Y-149450680D01*
X92084676Y-149831633D02*
X92132295Y-149784014D01*
X92227533Y-149641157D01*
X92275152Y-149545919D01*
X92322771Y-149403061D01*
X92370390Y-149164966D01*
X92370390Y-148974490D01*
X92322771Y-148736395D01*
X92275152Y-148593538D01*
X92227533Y-148498300D01*
X92132295Y-148355442D01*
X92084676Y-148307823D01*
X87792104Y-109877480D02*
X87792104Y-108877480D01*
X88030200Y-108877480D01*
X88173057Y-108925100D01*
X88268295Y-109020338D01*
X88315914Y-109115576D01*
X88363533Y-109306052D01*
X88363533Y-109448909D01*
X88315914Y-109639385D01*
X88268295Y-109734623D01*
X88173057Y-109829861D01*
X88030200Y-109877480D01*
X87792104Y-109877480D01*
X88982580Y-108877480D02*
X89077819Y-108877480D01*
X89173057Y-108925100D01*
X89220676Y-108972719D01*
X89268295Y-109067957D01*
X89315914Y-109258433D01*
X89315914Y-109496528D01*
X89268295Y-109687004D01*
X89220676Y-109782242D01*
X89173057Y-109829861D01*
X89077819Y-109877480D01*
X88982580Y-109877480D01*
X88887342Y-109829861D01*
X88839723Y-109782242D01*
X88792104Y-109687004D01*
X88744485Y-109496528D01*
X88744485Y-109258433D01*
X88792104Y-109067957D01*
X88839723Y-108972719D01*
X88887342Y-108925100D01*
X88982580Y-108877480D01*
X65857142Y-139906666D02*
X65904761Y-139954285D01*
X65952380Y-140097142D01*
X65952380Y-140192380D01*
X65904761Y-140335238D01*
X65809523Y-140430476D01*
X65714285Y-140478095D01*
X65523809Y-140525714D01*
X65380952Y-140525714D01*
X65190476Y-140478095D01*
X65095238Y-140430476D01*
X65000000Y-140335238D01*
X64952380Y-140192380D01*
X64952380Y-140097142D01*
X65000000Y-139954285D01*
X65047619Y-139906666D01*
X65952380Y-138954285D02*
X65952380Y-139525714D01*
X65952380Y-139240000D02*
X64952380Y-139240000D01*
X65095238Y-139335238D01*
X65190476Y-139430476D01*
X65238095Y-139525714D01*
X69667142Y-139906666D02*
X69714761Y-139954285D01*
X69762380Y-140097142D01*
X69762380Y-140192380D01*
X69714761Y-140335238D01*
X69619523Y-140430476D01*
X69524285Y-140478095D01*
X69333809Y-140525714D01*
X69190952Y-140525714D01*
X69000476Y-140478095D01*
X68905238Y-140430476D01*
X68810000Y-140335238D01*
X68762380Y-140192380D01*
X68762380Y-140097142D01*
X68810000Y-139954285D01*
X68857619Y-139906666D01*
X68762380Y-139287619D02*
X68762380Y-139192380D01*
X68810000Y-139097142D01*
X68857619Y-139049523D01*
X68952857Y-139001904D01*
X69143333Y-138954285D01*
X69381428Y-138954285D01*
X69571904Y-139001904D01*
X69667142Y-139049523D01*
X69714761Y-139097142D01*
X69762380Y-139192380D01*
X69762380Y-139287619D01*
X69714761Y-139382857D01*
X69667142Y-139430476D01*
X69571904Y-139478095D01*
X69381428Y-139525714D01*
X69143333Y-139525714D01*
X68952857Y-139478095D01*
X68857619Y-139430476D01*
X68810000Y-139382857D01*
X68762380Y-139287619D01*
M02*
